<svg width="66" height="67" viewBox="0 0 66 67" fill="none" xmlns="http://www.w3.org/2000/svg">
<path d="M21.8413 57.6055L21.778 57.5819C20.642 57.1592 19.562 58.3211 20.0666 59.4233L20.5446 60.4674C9.86231 55.6049 2.82115 44.8155 2.82115 32.9817C2.82115 16.3414 16.359 2.80357 32.9993 2.80357C49.6396 2.80357 63.1776 16.3414 63.1776 32.9817C63.1776 33.6727 63.7175 34.3835 64.5794 34.3835C65.3535 34.3835 65.9812 33.756 65.9812 32.9817C65.9812 14.7956 51.1856 0 32.9993 0C14.8131 0 0.0175781 14.7956 0.0175781 32.9817C0.0175781 39.8365 2.10974 46.4136 6.06796 52.0023C9.55223 56.9217 14.2335 60.748 19.6891 63.1578L18.4693 63.7154C17.3669 64.2195 17.4244 65.8048 18.5604 66.2276L18.6236 66.2511C18.9617 66.377 19.336 66.3633 19.6641 66.2133L23.8464 64.2997C24.5296 63.9871 24.83 63.1798 24.5174 62.4966L23.9465 61.2487L22.6038 58.3144C22.5295 58.1519 22.4239 58.0057 22.2931 57.8841C22.1622 57.7624 22.0087 57.6678 21.8413 57.6055Z" fill="url(#paint0_linear_506_7355)"/>
<path d="M33.0005 15.9265C33.7747 15.9265 34.4023 15.299 34.4023 14.5247V5.77593C34.4023 5.00172 33.7747 4.37415 33.0005 4.37415C32.2263 4.37415 31.5987 5.00172 31.5987 5.77593V14.5247C31.5987 15.299 32.2263 15.9265 33.0005 15.9265ZM51.4576 34.3838H60.2064C60.9805 34.3838 61.6082 33.7561 61.6082 32.982C61.6082 32.208 60.9805 31.5803 60.2064 31.5803H51.4576C50.6836 31.5803 50.0558 32.2078 50.0558 32.982C50.0558 33.7562 50.6836 34.3838 51.4576 34.3838ZM14.5432 31.5801H5.79436C5.02016 31.5801 4.39258 32.2077 4.39258 32.9819C4.39258 33.7561 5.02016 34.3837 5.79436 34.3837H14.5432C15.3174 34.3837 15.945 33.756 15.945 32.9819C15.945 32.2078 15.3174 31.5801 14.5432 31.5801ZM33.0033 31.5801H33.0019C32.2278 31.5801 31.6008 32.2077 31.6008 32.9819C31.6008 33.7561 32.2291 34.3837 33.0033 34.3837C33.7773 34.3837 34.4051 33.756 34.4051 32.9819C34.4051 32.2078 33.7773 31.5801 33.0033 31.5801ZM23.0083 21.0074C22.4609 20.46 21.5733 20.46 21.0257 21.0074C20.4783 21.5548 20.4783 22.4424 21.0257 22.99L28.9244 30.8886C29.4739 31.4381 30.3515 31.444 30.9069 30.8886C31.4543 30.3412 31.4543 29.4536 30.9069 28.9061L23.0083 21.0074ZM52.4495 13.5327C51.902 12.9853 51.0147 12.9853 50.467 13.5327L35.094 28.9059C34.5466 29.4533 34.5466 30.3409 35.094 30.8885C35.649 31.4434 36.5461 31.4186 37.0766 30.8885L52.4497 15.5154C52.9969 14.9679 52.9969 14.0802 52.4495 13.5327ZM43.287 40.6222H32.6038C31.8296 40.6222 31.202 41.2499 31.202 42.024C31.202 42.798 31.8296 43.4258 32.6038 43.4258H43.287C43.6735 43.4258 43.9879 43.7402 43.9879 44.1266V50.2053C43.9879 50.5918 43.6735 50.9062 43.287 50.9062H34.7064C32.7741 50.9062 31.202 52.4783 31.202 54.4107V60.4894C31.202 62.4217 32.7741 63.9939 34.7064 63.9939H45.3897C46.1638 63.9939 46.7915 63.3661 46.7915 62.5921C46.7915 61.818 46.1638 61.1903 45.3897 61.1903H34.7064C34.32 61.1903 34.0056 60.8759 34.0056 60.4894V54.4107C34.0056 54.3494 34.0159 54.291 34.0308 54.2342C34.1096 53.9334 34.3812 53.7098 34.7064 53.7098H43.287C45.2194 53.7098 46.7915 52.1377 46.7915 50.2053V44.1266C46.7915 42.1943 45.2194 40.6222 43.287 40.6222ZM64.5809 40.6222C63.8068 40.6222 63.1791 41.2499 63.1791 42.024V50.9062H53.8976C53.5111 50.9062 53.1967 50.5918 53.1967 50.2053V42.024C53.1967 41.3491 52.6796 40.6222 51.7949 40.6222C51.0208 40.6222 50.3931 41.2499 50.3931 42.024V50.2053C50.3931 52.1377 51.9652 53.7098 53.8976 53.7098H63.1791V62.5921C63.1791 63.3661 63.8068 63.9939 64.5809 63.9939C65.3549 63.9939 65.9826 63.3661 65.9826 62.5921V42.024C65.9826 41.2498 65.3551 40.6222 64.5809 40.6222Z" fill="url(#paint1_linear_506_7355)"/>
<defs>
<linearGradient id="paint0_linear_506_7355" x1="3.48089" y1="39.542" x2="51.2053" y2="39.542" gradientUnits="userSpaceOnUse">
<stop stop-color="#374BA8"/>
<stop offset="1" stop-color="#2FB7F0"/>
</linearGradient>
<linearGradient id="paint1_linear_506_7355" x1="7.62626" y1="39.9124" x2="52.1865" y2="39.9124" gradientUnits="userSpaceOnUse">
<stop stop-color="#374BA8"/>
<stop offset="1" stop-color="#2FB7F0"/>
</linearGradient>
</defs>
</svg>
