<svg id="Layer_1" data-name="Layer 1" xmlns="http://www.w3.org/2000/svg" viewBox="0 0 1000 1080"><defs><style>.cls-1{fill:#269ad6;}.cls-2{fill:#84b741;}</style></defs><path d="M946.49,453.61c-.61,2.5-1.18,5-1.82,7.49-6,23.36-25.18,37.48-50.29,36.84a97.24,97.24,0,0,1-28.13-4.69c-3.1-1-7,.35-10.53.66-4.67.4-9.34,1.2-14,1.21q-65.9.13-131.78.05h-4.8c1.1-7.25,2.13-14.08,3.13-20.68h55.17c-.35.42-.07.24-.08.07-.22-13.5-.37-27-.81-40.5-.09-2.51-1.17-5.07-2.15-7.46-3.54-8.58-10-13-19.34-13-7.32,0-14.64,0-22,0H714.7c1-6.8,1.79-13,2.83-19.25a2.9,2.9,0,0,1,2.11-1.87c12.39.23,24.93-.5,37.13,1.23,18.26,2.58,31.43,17.17,34.62,36.63,1.17,7.17,1.26,14.55,1.51,21.85.24,7,.05,14.1.05,21.43,1.32.1,2.39.25,3.46.25,15.88,0,31.77-.09,47.65.09,3.27,0,4.52-1.4,4.85-4.18a51.3,51.3,0,0,0,.26-5.95c0-13.27,0-26.55,0-39.83,0-15.45,6.34-24.4,21.12-29,5.87-1.83,12.05-2.65,18.09-3.93h12.66a23.67,23.67,0,0,0,2.84.73c20.22,2.71,35,15.61,40.37,35.37.84,3.08,1.48,6.22,2.22,9.33Zm-70.06-33.9c.32,3.89.78,7.17.8,10.47.09,12.51.16,25,0,37.55-.05,3.08,1,4.21,3.87,4.4,4.94.33,9.87,1,14.82,1.08,10.7.21,17.69-4.91,20.58-15.18a52.93,52.93,0,0,0,.09-28.28c-1.49-5.62-4.55-10.51-10.29-12.37C895.91,414,885.84,416,876.43,419.71Z"/><path d="M694.72,392.86c-1.07,7-2.1,13.69-3.2,20.91h-4.45q-27.93,0-55.85,0a63.36,63.36,0,0,0-7.8.36c-7.62.95-11.65,5.7-11.3,13.08s4.9,12.13,12.26,12.34c9.42.26,18.86,0,28.29.19A66.79,66.79,0,0,1,665.22,441c15.6,3.34,25.51,15.83,25.28,31.81A53.34,53.34,0,0,1,689,485c-3.17,12.77-12.51,18.93-24.62,21.31a98.35,98.35,0,0,1-18.83,1.83c-41.33.09-82.66.18-124-.22-25.77-.25-42.82-17-44.29-42.68-.72-12.64-1.31-25.31,2.21-37.71,5.82-20.5,21.83-33,43.18-33.36,13-.23,26,0,39.32,0-1,7.13-2,14-3.11,21.27H544c-4.84,0-9.69-.09-14.52.11-8.75.36-15.28,4.56-18.59,12.6a42.06,42.06,0,0,0-3.28,14.36c-.29,9-.41,18.17,1,27,1.56,10.24,8.6,16.33,18.89,16.95,12.12.73,24.3.53,36.46.58q40,.14,80,.1a32.44,32.44,0,0,0,5.92-.4c8.08-1.51,12.7-7.47,12-15.32s-6.22-12.79-14.52-12.94c-11.66-.2-23.34.06-35-.54-13.81-.72-23.82-8.49-27.42-20.32-4.17-13.7-.36-28.13,9.61-35.89,8-6.2,17.38-8.77,27.14-9,23.82-.43,47.65-.23,71.48-.27A8.12,8.12,0,0,1,694.72,392.86Z"/><path d="M946.49,689c-9.26-1.67-18.5-3.51-27.8-4.93-2.58-.39-5.39.26-8,.75-11.29,2.08-22.56,3.43-33.91.43-13.46-3.55-21.11-13-21.57-26.75-.48-14.22,6.09-24.4,19.83-28.24,8.13-2.27,16.78-2.86,25.25-3.64,5.76-.54,11.61-.1,17.35-.1,2.79-11.81-2.65-19.18-14.38-19.38-12.92-.23-25.32,2.68-37.47,6.86-1.15.4-2.32.73-3.84,1.2-1-7.06-2-13.86-3.09-20.93,20.07-6.43,40-12.22,61.27-8,15.51,3.1,23.74,12,25.73,27.61a25.73,25.73,0,0,0,.66,2.86Zm-39.15-45.41-.09-.45c-5.35.75-10.85,1-16,2.4-5.34,1.49-7.82,6.52-7.34,12.35.42,5,3.39,9,8.78,9.53a63.34,63.34,0,0,0,16.82-.92c9.22-1.64,9.22-2,9.13-11.41,0-3.66.92-8.49-1-10.61C916,642.56,910.91,643.72,907.34,643.54Z"/><path d="M620.73,685.7H591.51v-4.57q0-27.93,0-55.86a49,49,0,0,0-.24-5.94c-.67-5.64-4.32-9.46-9.81-10.06a32.42,32.42,0,0,0-18.37,3.15c.19,8.2.49,15.93.53,23.67.08,15.14,0,30.28,0,45.43v4.19H534.49v-4.29c0-18.62-.18-37.24,0-55.85.18-14.5-6.31-18.27-19.88-15.88-8.14,1.43-8.11,1.64-8.11,9.78v66.1H476.91v-4.48q0-36.12,0-72.24c0-12.21,3.11-16.34,14.94-19.57,14.63-4,29.46-6,44.51-3a47.52,47.52,0,0,1,11.73,4.44,5.66,5.66,0,0,0,5.42.36c14.34-6,29.15-7.9,44.38-4.18,13.37,3.27,21.74,12.67,22.23,26.38.69,19.09.46,38.22.6,57.33C620.76,675.58,620.73,680.52,620.73,685.7Z"/><path d="M809.2,589.22v-4.35c0-12.15,0-24.31,0-36.47,0-1.94.25-3.28,2.56-3.65,8.8-1.41,17.58-3,26.92-4.53v4.19q0,59.93,0,119.84c0,11.44-2.51,14.94-13.41,18.29a97.45,97.45,0,0,1-43.41,3.25c-21.18-3.15-35.34-19.1-37-41.35-.72-9.55-.42-19.06,2.06-28.43,5-18.8,18.37-30,37.77-30.36,6.59-.13,13.22,1.45,19.82,2.32A43.52,43.52,0,0,1,809.2,589.22Zm0,47.6v-14.5c0-13.3,0-13.3-13.44-14.49-10.39-.92-18,4.12-20.6,14.17a53.67,53.67,0,0,0,.06,27.93c2.77,10.28,9.81,15.47,20.46,15.28,3.2-.06,6.38-.77,9.58-1,3-.23,4.14-1.48,4-4.69C809,651.94,809.2,644.38,809.2,636.82Z"/><path d="M699.89,626.5c1-14.9-3.63-19.81-17.84-19.41-11.75.33-23.08,3-34.15,6.8-1.16.4-2.33.74-4,1.29-1-6.66-1.93-13.1-2.72-19.57a2.66,2.66,0,0,1,1.53-2c16-5.13,32.1-9.63,49.15-8.74a63.25,63.25,0,0,1,7.76.84c19.19,3.32,28.28,13.85,28.44,33.45.18,22.34,0,44.69,0,67,0,.74-.08,1.47-.14,2.63-3.27-.56-6.43-.88-9.48-1.65a77.2,77.2,0,0,0-35.93-1,49.18,49.18,0,0,1-26.46-1.75c-12.07-4.17-18.61-13.16-19-26.06-.39-13.16,5.34-22.41,17.1-27.37,8-3.38,16.54-4.25,25.13-4.46C686.09,626.37,692.89,626.5,699.89,626.5Zm.61,17.78c-8.51,0-16.33-.5-24.06.15-7.05.61-11.08,6.11-10.74,12.86.32,6.27,4.86,11,11.95,10.66s14.13-2.13,21.17-3.43a2.69,2.69,0,0,0,1.6-2C700.55,656.47,700.5,650.41,700.5,644.28Z"/><rect class="cls-1" x="53.51" y="391.05" width="377.6" height="125.12"/><rect class="cls-2" x="53.51" y="561.61" width="377.6" height="125.12"/></svg>