<svg id="Calque_1" data-name="Calque 1" xmlns="http://www.w3.org/2000/svg" viewBox="0 0 1080 403.69"><defs><style>.cls-1{fill:#1434cb;}</style></defs><path class="cls-1" d="M693.76,39.58c-72.14,0-136.61,37.39-136.61,106.48,0,79.22,114.34,84.69,114.34,124.5,0,16.76-19.21,31.76-52,31.76-46.55,0-81.35-21-81.35-21l-14.88,69.71s40.08,17.71,93.29,17.71c78.88,0,140.94-39.23,140.94-109.5,0-83.72-114.81-89-114.81-126,0-13.13,15.76-27.51,48.47-27.51,36.91,0,67,15.24,67,15.24l14.57-67.33S740,39.58,693.76,39.58Zm-660,5.08L32,54.82s30.35,5.56,57.68,16.64c35.2,12.7,37.71,20.1,43.63,43.07l64.6,249h86.59L417.88,44.66H331.49L245.78,261.47l-35-183.78c-3.21-21-19.46-33-39.34-33Zm418.89,0L384.85,363.54h82.38L534.76,44.66Zm459.46,0c-19.87,0-30.39,10.63-38.12,29.22L753.27,363.54h86.39l16.72-48.28H961.62l10.17,48.28H1048L981.51,44.66Zm11.23,86.15,25.61,119.66h-68.6Z"/></svg>