<svg width="72" height="68" viewBox="0 0 72 68" fill="none" xmlns="http://www.w3.org/2000/svg">
<path fill-rule="evenodd" clip-rule="evenodd" d="M50.8233 68.0015H21.7718C15.4507 68.0015 10.3086 62.859 10.3086 56.5382V36.6312C10.3086 30.3105 15.4511 25.168 21.7718 25.168H29.7405C30.2505 25.168 30.6945 25.5166 30.8151 26.0125C31.2537 27.8196 32.9191 29.1314 34.7744 29.1314C36.0546 29.1314 38.1047 28.9046 38.6541 29.456C38.8609 29.6633 38.9779 29.9448 38.9779 30.2379L38.9762 36.047L47.1642 29.3801C47.3614 29.2198 47.6078 29.1322 47.862 29.1322H58.9579C59.2966 29.1322 59.6166 29.2873 59.826 29.5526C61.4358 31.5936 62.287 34.0413 62.287 36.6312V56.5378C62.287 62.8602 57.1445 68.0023 50.8237 68.0023L50.8233 68.0015ZM21.7718 27.3794C16.6704 27.3794 12.5196 31.5297 12.5196 36.6316V56.5382C12.5196 61.6397 16.67 65.7905 21.7718 65.7905H50.8233C55.9248 65.7905 60.0756 61.6397 60.0756 56.5382V36.6312C60.0756 34.7187 59.4985 32.9008 58.4027 31.3428H48.2546L38.5662 39.231C37.8469 39.8168 36.7627 39.3007 36.7627 38.3729L36.7652 31.3432H34.7736C32.1633 31.3432 29.8736 29.7512 28.9342 27.3794H21.7714H21.7718Z" fill="url(#paint0_linear_508_26490)"/>
<path fill-rule="evenodd" clip-rule="evenodd" d="M11.413 56.8356H7.20459C3.73909 56.8356 0.919922 54.0165 0.919922 50.551V42.6204C0.919922 39.1549 3.73909 36.3357 7.20459 36.3357H11.413C12.0241 36.3357 12.5187 36.8303 12.5187 37.4414V55.7308C12.5187 56.341 12.0241 56.8356 11.413 56.8356ZM7.205 38.5471C4.95879 38.5471 3.13131 40.3746 3.13131 42.6208V50.551C3.13131 52.7972 4.95879 54.6247 7.205 54.6247H10.3082V38.5471H7.205ZM65.388 56.8356H61.1796C60.5685 56.8356 60.0739 56.341 60.0739 55.7299V37.4414C60.0739 36.8307 60.5685 36.3357 61.1796 36.3357H65.388C68.8535 36.3357 71.6727 39.1549 71.6727 42.6204V50.5506C71.6727 54.0165 68.8535 56.8352 65.388 56.8352V56.8356ZM62.2857 54.6247H65.3884C67.6342 54.6247 69.4621 52.7972 69.4621 50.551V42.6204C69.4621 40.3742 67.6347 38.5467 65.3884 38.5467H62.2853V54.6242L62.2857 54.6247ZM25.9388 46.0258C25.3277 46.0258 24.8331 45.5312 24.8331 44.9201V39.7623C24.8331 38.3067 27.0441 38.3067 27.0441 39.7623V44.9201C27.0441 45.5304 26.549 46.0258 25.9384 46.0258H25.9388ZM46.6543 45.9939C46.0436 45.9939 45.5486 45.4993 45.5486 44.8882V39.7938C45.5486 38.3382 47.7595 38.3382 47.7595 39.7938V44.889C47.7595 45.4993 47.2649 45.9939 46.6538 45.9939H46.6543ZM41.7182 54.514H30.8752C29.4196 54.514 29.4196 52.303 30.8752 52.303H41.7182C43.1738 52.303 43.1738 54.514 41.7182 54.514ZM37.868 39.4795C37.2623 39.4795 36.7623 38.9887 36.7623 38.3734L36.7648 31.3437H34.7731C31.308 31.3437 28.4889 28.5246 28.4889 25.0591V6.28508C28.4889 2.81958 31.308 0.000414514 34.7731 0.000414514L64.3909 0C67.8565 0 70.6748 2.81917 70.6748 6.28467V25.0587C70.6748 28.5242 67.8556 31.3433 64.3909 31.3433H48.2541L38.5657 39.2308C38.3655 39.3945 38.118 39.4787 37.868 39.4787V39.4795ZM34.7731 2.21139C32.5269 2.21139 30.6998 4.03887 30.6998 6.28508V25.0591C30.6998 27.3053 32.5269 29.1328 34.7731 29.1328C36.055 29.1328 38.1026 28.9056 38.652 29.4574C38.8593 29.6647 38.9762 29.9462 38.9762 30.2393L38.9745 36.0484L47.1625 29.3815C47.3597 29.2211 47.6061 29.1336 47.8603 29.1336H64.3905C66.6363 29.1336 68.4634 27.3061 68.4634 25.0599V6.28591C68.4634 4.04011 66.6359 2.21222 64.3905 2.21222L34.7727 2.2118L34.7731 2.21139Z" fill="url(#paint1_linear_508_26490)"/>
<path fill-rule="evenodd" clip-rule="evenodd" d="M38.9814 19.691C36.7651 19.691 34.9629 17.8884 34.9629 15.6729C34.9629 13.4565 36.7655 11.6543 38.9814 11.6543C41.197 11.6543 43 13.4569 43 15.6729C43.0008 17.8884 41.1978 19.691 38.9814 19.691ZM38.9814 13.8649C36.6026 13.8649 36.6009 17.48 38.9814 17.48C41.3616 17.48 41.3603 13.8649 38.9814 13.8649ZM49.5819 19.691C47.3656 19.691 45.5634 17.8884 45.5634 15.6729C45.5634 13.4565 47.366 11.6543 49.5819 11.6543C51.7975 11.6543 53.6005 13.4569 53.6005 15.6729C53.6013 17.8884 51.7983 19.691 49.5819 19.691ZM49.5819 13.8649C47.2031 13.8649 47.2014 17.48 49.5819 17.48C51.9621 17.48 51.9612 13.8649 49.5819 13.8649ZM60.1828 19.691C57.9665 19.691 56.1643 17.8884 56.1643 15.6729C56.1643 13.4565 57.9669 11.6543 60.1828 11.6543C62.3984 11.6543 64.2014 13.4569 64.2014 15.6729C64.2022 17.8884 62.3992 19.691 60.1828 19.691ZM60.1828 13.8649C57.8039 13.8649 57.8023 17.48 60.1828 17.48C62.5629 17.48 62.5617 13.8649 60.1828 13.8649ZM7.2053 38.5466C6.59462 38.5466 6.09961 38.0521 6.09961 37.441V22.7378C6.09961 21.2822 8.31058 21.2822 8.31058 22.7378V37.441C8.31058 38.0512 7.81557 38.5466 7.20489 38.5466H7.2053Z" fill="url(#paint2_linear_508_26490)"/>
<path fill-rule="evenodd" clip-rule="evenodd" d="M7.20584 23.8433C4.06372 23.8433 1.50781 21.2874 1.50781 18.1453C1.50781 15.0032 4.06372 12.4473 7.20584 12.4473C10.348 12.4473 12.9039 15.0032 12.9039 18.1453C12.9039 21.2874 10.3476 23.8433 7.20584 23.8433ZM7.20584 14.6591C2.61682 14.6591 2.61682 21.6328 7.20584 21.6328C11.7949 21.6328 11.7953 14.6591 7.20584 14.6591Z" fill="url(#paint3_linear_508_26490)"/>
<defs>
<linearGradient id="paint0_linear_508_26490" x1="13.0376" y1="50.7007" x2="50.6438" y2="50.7007" gradientUnits="userSpaceOnUse">
<stop stop-color="#374BA8"/>
<stop offset="1" stop-color="#2FB7F0"/>
</linearGradient>
<linearGradient id="paint1_linear_508_26490" x1="4.63468" y1="33.8787" x2="55.8241" y2="33.8787" gradientUnits="userSpaceOnUse">
<stop stop-color="#374BA8"/>
<stop offset="1" stop-color="#2FB7F0"/>
</linearGradient>
<linearGradient id="paint2_linear_508_26490" x1="9.15015" y1="27.6843" x2="51.1866" y2="27.6844" gradientUnits="userSpaceOnUse">
<stop stop-color="#374BA8"/>
<stop offset="1" stop-color="#2FB7F0"/>
</linearGradient>
<linearGradient id="paint3_linear_508_26490" x1="2.10614" y1="19.2403" x2="10.3512" y2="19.2403" gradientUnits="userSpaceOnUse">
<stop stop-color="#374BA8"/>
<stop offset="1" stop-color="#2FB7F0"/>
</linearGradient>
</defs>
</svg>
