<svg width="64" height="66" viewBox="0 0 64 66" fill="none" xmlns="http://www.w3.org/2000/svg">
<path d="M0.404297 13.127C0.404297 9.66313 1.77514 6.41512 4.26428 3.98121C4.44139 3.811 4.67858 3.71764 4.9242 3.72146C5.16982 3.72529 5.40399 3.82598 5.57572 4.00163C5.74745 4.17728 5.84285 4.41365 5.84114 4.65929C5.83943 4.90494 5.74075 5.13996 5.56659 5.3132C3.439 7.39369 2.26722 10.1686 2.26722 13.1271C2.26722 13.3741 2.16908 13.6111 1.9944 13.7857C1.81972 13.9604 1.5828 14.0586 1.33576 14.0586C1.08872 14.0586 0.851799 13.9604 0.677116 13.7857C0.502433 13.6111 0.404297 13.374 0.404297 13.127ZM24.1538 13.127C24.1538 13.374 24.2519 13.6109 24.4266 13.7856C24.6013 13.9603 24.8382 14.0584 25.0852 14.0584C25.3323 14.0584 25.5692 13.9603 25.7439 13.7856C25.9186 13.6109 26.0167 13.374 26.0167 13.127C26.0167 9.66313 24.6459 6.41512 22.1566 3.98121C21.9795 3.811 21.7423 3.71764 21.4967 3.72146C21.2511 3.72529 21.0169 3.82598 20.8452 4.00163C20.6734 4.17728 20.578 4.41365 20.5797 4.65929C20.5814 4.90494 20.6801 5.13996 20.8543 5.3132C22.982 7.39382 24.1538 10.1686 24.1538 13.127ZM63.0214 37.8534V63.3758C63.0214 64.8232 61.8438 66.0009 60.3963 66.0009H17.8389C14.7732 66.0009 12.2791 63.5067 12.2791 60.441V28.1031C10.6562 27.7234 9.40249 26.3753 9.16377 24.7033H1.33576C1.08872 24.7033 0.851799 24.6052 0.677116 24.4305C0.502433 24.2558 0.404297 24.0189 0.404297 23.7719C0.404297 23.5248 0.502433 23.2879 0.677116 23.1132C0.851799 22.9385 1.08872 22.8404 1.33576 22.8404H2.45977C3.19615 22.8404 3.79535 22.2413 3.79535 21.5048V13.127C3.79535 9.11942 6.31522 5.69098 9.85345 4.33623V3.357C9.85345 1.50592 11.3594 9.0221e-06 13.2104 9.0221e-06C13.9596 9.0221e-06 14.6522 0.246846 15.2115 0.663343C16.0182 0.226391 16.9214 -0.00165319 17.8389 9.0221e-06H46.0093C49.0751 9.0221e-06 51.5691 2.49247 51.5691 5.55618V35.2282H52.8786V34.5414C52.8786 33.3123 53.8786 32.3123 55.1077 32.3123C56.3369 32.3123 57.3367 33.3123 57.3367 34.5414V35.2282H60.3963C61.8438 35.2282 63.0214 36.4058 63.0214 37.8534ZM54.7415 35.2282H55.4738V34.5414C55.4738 34.3429 55.3061 34.1752 55.1077 34.1752C54.9093 34.1752 54.7415 34.3429 54.7415 34.5414V35.2282ZM52.8786 37.2799V37.0911H45.8015V37.2799C45.8015 37.4763 45.9692 37.6423 46.1677 37.6423C46.4147 37.6423 46.6516 37.7404 46.8263 37.9151C47.001 38.0898 47.0992 38.3267 47.0992 38.5737C47.0992 38.8208 47.001 39.0577 46.8263 39.2324C46.6516 39.407 46.4147 39.5052 46.1677 39.5052C44.9386 39.5052 43.9386 38.5069 43.9386 37.2799V37.0911H36.8615V37.2799C36.8615 37.4763 37.0291 37.6423 37.2277 37.6423C37.4747 37.6423 37.7116 37.7404 37.8863 37.9151C38.061 38.0898 38.1591 38.3267 38.1591 38.5737C38.1591 38.8208 38.061 39.0577 37.8863 39.2324C37.7116 39.407 37.4747 39.5052 37.2277 39.5052C35.9985 39.5052 34.9985 38.5069 34.9985 37.2799V37.0911H31.9391C31.737 37.0913 31.5432 37.1717 31.4003 37.3146C31.2573 37.4575 31.177 37.6513 31.1767 37.8534V41.2147H61.1582V37.8534C61.158 37.6513 61.0777 37.4576 60.9348 37.3147C60.7919 37.1717 60.5981 37.0913 60.396 37.0911H54.7413V37.2799C54.7413 37.4763 54.9089 37.6423 55.1075 37.6423C55.3545 37.6423 55.5914 37.7404 55.7661 37.9151C55.9408 38.0898 56.0389 38.3267 56.0389 38.5737C56.0389 38.8208 55.9408 39.0577 55.7661 39.2324C55.5914 39.407 55.3545 39.5052 55.1075 39.5052C53.8783 39.5052 52.8783 38.5069 52.8783 37.2799H52.8786ZM37.5939 34.5413C37.5939 34.3427 37.4262 34.1751 37.2278 34.1751C37.0294 34.1751 36.8616 34.3427 36.8616 34.5413V35.228H37.5939V34.5413ZM46.5339 34.5413C46.5339 34.3427 46.3662 34.1751 46.1678 34.1751C45.9694 34.1751 45.8016 34.3427 45.8016 34.5413V35.228H46.5339V34.5413ZM27.1994 1.86307C27.6585 2.58854 28.2111 3.33105 28.8837 3.33105H35.2474C35.7776 3.33105 36.0874 2.88541 36.6215 1.93945L36.6651 1.86307H27.1994ZM17.8389 1.86307C17.3203 1.86307 16.818 1.97191 16.3532 2.17817C16.4951 2.55503 16.5677 2.95444 16.5674 3.35713V4.3369C20.1035 5.69204 22.6217 9.12009 22.6217 13.1271V21.5049C22.6217 22.2415 23.2209 22.8405 23.9572 22.8405H25.0852C25.3323 22.8405 25.5692 22.9387 25.7439 23.1133C25.9186 23.288 26.0167 23.5249 26.0167 23.772C26.0167 24.019 25.9186 24.2559 25.7439 24.4306C25.5692 24.6053 25.3323 24.7034 25.0852 24.7034H17.2535C17.0151 26.375 15.7628 27.723 14.142 28.103V56.7371H29.3141V37.8534C29.3141 36.4059 30.4918 35.2282 31.9393 35.2282H34.9988V34.5414C34.9988 33.3123 35.9988 32.3123 37.2279 32.3123C38.4571 32.3123 39.4569 33.3123 39.4569 34.5414V35.2282H43.9388V34.5414C43.9388 33.3123 44.9388 32.3123 46.168 32.3123C47.3971 32.3123 48.3969 33.3123 48.3969 34.5414V35.2282H49.7064V5.55631C49.7064 3.51987 48.048 1.86307 46.0096 1.86307H39.3292C38.9993 1.86307 38.738 2.02687 38.5297 2.36419C38.4362 2.51522 38.3429 2.68049 38.244 2.85561C37.6867 3.84256 36.9235 5.19397 35.2476 5.19397H28.884C27.0542 5.19397 26.05 3.55633 25.3856 2.47264L25.3181 2.36273C25.1108 2.02687 24.8495 1.86307 24.5197 1.86307H17.8391H17.8389ZM11.7165 3.8355C12.2034 3.75753 12.702 3.71574 13.2106 3.71574C13.7191 3.71574 14.2177 3.75766 14.7046 3.83564V3.35713C14.7046 2.53332 14.0344 1.86307 13.2106 1.86307C12.3868 1.86307 11.7165 2.53332 11.7165 3.35713V3.8355ZM5.36513 22.8405H21.0521C20.8586 22.4219 20.7586 21.9661 20.7589 21.5049V13.1271C20.7589 8.96493 17.3727 5.57867 13.2106 5.57867C9.0484 5.57867 5.65841 8.9648 5.65841 13.1271V21.5049C5.65841 21.9816 5.55289 22.4337 5.36513 22.8405ZM13.2106 26.3487C14.2349 26.3487 15.0973 25.6497 15.3532 24.7034H11.0642C11.3206 25.6497 12.1844 26.3487 13.2106 26.3487ZM17.8389 64.138H29.4277C29.3524 63.8909 29.3141 63.634 29.3141 63.3758V58.6H14.142V60.441C14.142 62.4794 15.8004 64.138 17.8389 64.138ZM61.1585 63.3758V43.0776H31.177V63.3758C31.1773 63.5778 31.2577 63.7716 31.4006 63.9145C31.5435 64.0574 31.7372 64.1377 31.9393 64.138H60.3964C60.5985 64.1377 60.7922 64.0573 60.9351 63.9144C61.078 63.7715 61.1583 63.5778 61.1585 63.3758ZM58.4345 46.0655V61.1502C58.4345 61.3973 58.3364 61.6342 58.1617 61.8089C57.987 61.9835 57.7501 62.0817 57.5031 62.0817H34.8325C34.5854 62.0817 34.3485 61.9835 34.1738 61.8089C33.9991 61.6342 33.901 61.3973 33.901 61.1502V46.0655C33.901 45.8184 33.9991 45.5815 34.1738 45.4068C34.3485 45.2321 34.5854 45.134 34.8325 45.134H57.5031C57.7501 45.134 57.987 45.2321 58.1617 45.4068C58.3364 45.5815 58.4345 45.8184 58.4345 46.0655ZM56.5716 46.9969H52.7687V50.1623H56.5716V46.9969ZM41.4333 55.1905H45.2362V52.0251H41.4333V55.1905ZM39.5704 52.0251H35.7639V55.1905H39.5704V52.0251ZM45.2362 46.9968H41.4333V50.1622H45.2362V46.9968ZM47.0992 50.1622H50.9056V46.9968H47.0992V50.1622ZM41.4333 57.0534V60.2188H45.2362V57.0534H41.4333ZM47.0992 60.2188H50.9056V57.0534H47.0992V60.2188ZM50.9056 55.1905V52.0251H47.0992V55.1905H50.9056ZM52.7686 55.1905H56.5715V52.0251H52.7686V55.1905ZM35.7638 46.9969V50.1623H39.5703V46.9969H35.7638ZM35.7638 60.2188H39.5703V57.0534H35.7638V60.2188ZM56.5715 60.2188V57.0534H52.7686V60.2188H56.5715Z" fill="url(#paint0_linear_508_26499)"/>
<defs>
<linearGradient id="paint0_linear_508_26499" x1="3.69191" y1="39.3419" x2="48.9952" y2="39.3419" gradientUnits="userSpaceOnUse">
<stop stop-color="#374BA8"/>
<stop offset="1" stop-color="#2FB7F0"/>
</linearGradient>
</defs>
</svg>
