<svg width="67" height="68" viewBox="0 0 67 68" fill="none" xmlns="http://www.w3.org/2000/svg">
<path d="M58.1195 41.9692C58.9521 39.3994 59.3749 36.7193 59.3749 33.9883C59.3749 31.2674 58.9552 28.5969 58.1277 26.0353C59.9474 25.3519 61.602 24.2578 62.9758 22.8029C65.3499 20.2896 66.6028 17.0017 66.5041 13.546C66.2995 6.41153 60.3294 0.774619 53.1939 0.978204C49.7376 1.07703 46.5274 2.5158 44.1532 5.02953C42.9542 6.29903 42.0421 7.76606 41.4449 9.35255C38.8827 8.52557 36.2123 8.10575 33.4904 8.10575C30.7669 8.10575 28.0945 8.5266 25.5308 9.35462C23.6818 4.4616 18.9495 0.972656 13.417 0.972656C6.27935 0.972656 0.472656 6.77935 0.472656 13.9164C0.472656 19.4485 3.96212 24.1802 8.85513 26.0287C8.0266 28.5929 7.60627 31.2655 7.60627 33.9883C7.60627 36.7193 8.02905 39.3994 8.86158 41.9692C3.96509 43.8161 0.472656 48.5498 0.472656 54.0844C0.472656 56.0327 0.894921 57.906 1.72797 59.6517C1.78268 59.7664 1.85945 59.8692 1.9539 59.9542C2.04835 60.0393 2.15863 60.1049 2.27844 60.1473C2.39824 60.1897 2.52523 60.2081 2.65215 60.2014C2.77906 60.1947 2.90342 60.1631 3.01812 60.1084C3.24962 59.9977 3.42774 59.7997 3.51337 59.5578C3.599 59.3159 3.58514 59.0499 3.47483 58.8182C2.76667 57.3346 2.40788 55.742 2.40788 54.0844C2.40788 48.0147 7.34669 43.0764 13.417 43.0764C19.4878 43.0764 24.4266 48.0147 24.4266 54.0844C24.4266 60.1546 19.4878 65.093 13.417 65.093C10.6483 65.093 8.00183 64.0614 5.96585 62.1881C5.57235 61.8263 4.95992 61.852 4.59855 62.2451C4.5125 62.3386 4.44571 62.4482 4.402 62.5675C4.35829 62.6868 4.33852 62.8136 4.34382 62.9405C4.34911 63.0675 4.37937 63.1922 4.43286 63.3074C4.48636 63.4227 4.56203 63.5263 4.65557 63.6123C7.04983 65.8152 10.1614 67.0282 13.417 67.0282C18.9575 67.0282 23.6958 63.5287 25.5388 58.6246C28.0995 59.4512 30.7694 59.8709 33.4904 59.8709C36.2118 59.8709 38.8823 59.4512 41.4428 58.6251C43.2861 63.5293 48.0243 67.0282 53.5648 67.0282C60.7024 67.0282 66.5091 61.2215 66.5091 54.0844C66.5091 48.5498 63.0167 43.8156 58.1195 41.9692ZM45.5603 6.35799C47.5792 4.22022 50.3102 2.99664 53.2498 2.91239C53.3562 2.90938 53.4628 2.90787 53.5693 2.90788C59.495 2.90788 64.3989 7.64066 64.5692 13.601C64.6535 16.5401 63.5881 19.3361 61.5693 21.4744C59.5503 23.6122 56.8193 24.8359 53.8797 24.92C53.7732 24.923 53.6667 24.9245 53.5602 24.9245C47.6345 24.9245 42.7305 20.1919 42.5602 14.2315C42.4755 11.2923 43.5414 8.49589 45.5603 6.35799ZM40.9001 56.7665C38.5159 57.5416 36.0278 57.9356 33.4904 57.9356C30.9539 57.9356 28.4659 57.5416 26.0816 56.7665C26.268 55.8846 26.3619 54.9857 26.3618 54.0843C26.3618 46.9472 20.5546 41.1411 13.417 41.1411C12.4922 41.1411 11.5901 41.2393 10.7198 41.4243C9.93808 39.0315 9.54149 36.5344 9.54149 33.9883C9.54149 31.4503 9.93615 28.9612 10.7127 26.5745C11.6016 26.7644 12.508 26.86 13.417 26.8597C15.6345 26.8597 17.8222 26.2892 19.7447 25.2103C20.2105 24.9488 20.3761 24.3592 20.1146 23.893C19.8531 23.4269 19.2634 23.2615 18.7974 23.523C17.1634 24.4398 15.3028 24.9245 13.417 24.9245C7.34617 24.9245 2.40788 19.9862 2.40788 13.9159C2.40788 7.84618 7.34669 2.90788 13.417 2.90788C19.4878 2.90788 24.4266 7.84618 24.4266 13.9164C24.4266 16.456 23.5411 18.9334 21.9335 20.8933C21.5942 21.3062 21.6548 21.9159 22.068 22.2551C22.2665 22.4177 22.5214 22.4949 22.7767 22.4697C23.0321 22.4444 23.2669 22.3188 23.4297 22.1205C25.3201 19.8159 26.3618 16.9019 26.3618 13.9159C26.3618 12.9892 26.2624 12.0846 26.0765 11.2122C28.4628 10.4355 30.9524 10.041 33.4904 10.041C36.0278 10.041 38.5164 10.4351 40.9016 11.2106C40.6883 12.2215 40.5956 13.2541 40.6255 14.2868C40.8265 21.2954 46.5919 26.8602 53.5596 26.8597C54.4701 26.8598 55.3782 26.7649 56.269 26.5765C57.0451 28.9623 57.4398 31.4514 57.4398 33.9884C57.4398 36.5344 57.0427 39.0316 56.2615 41.4243C55.375 41.2357 54.4711 41.1408 53.5648 41.1411C46.4271 41.1411 40.6205 46.9473 40.6205 54.0844C40.6205 55.0042 40.7173 55.9012 40.9001 56.7665ZM53.5648 65.093C47.494 65.093 42.5557 60.1547 42.5557 54.0849C42.5557 48.0147 47.494 43.0764 53.5648 43.0764C59.6355 43.0764 64.5739 48.0147 64.5739 54.0849C64.5739 60.1547 59.6355 65.093 53.5648 65.093Z" fill="url(#paint0_linear_508_26505)"/>
<path d="M20.0048 8.20455C19.842 8.09373 19.6492 8.03526 19.4523 8.03697C19.2553 8.03868 19.0636 8.10047 18.9027 8.2141C18.5741 8.44575 18.2208 8.64029 17.8494 8.79415C16.52 7.75391 14.5933 7.76603 13.2735 8.91362C12.5927 9.50473 12.1591 10.3303 12.0588 11.2263C11.3502 11.1209 10.6705 10.8722 10.0611 10.4955C9.45177 10.1187 8.92554 9.62182 8.51453 9.03502C8.41598 8.89511 8.28214 8.78378 8.12662 8.71235C7.97111 8.64093 7.79945 8.61195 7.6291 8.62837C7.45863 8.64488 7.29559 8.70635 7.15664 8.80649C7.0177 8.90663 6.90782 9.04185 6.83824 9.19835C6.81063 9.2608 6.15949 10.7485 6.24258 12.5694C6.30618 13.9627 6.80457 15.7589 8.62238 17.1458C7.96581 17.3583 7.27692 17.4536 6.58731 17.427C6.36993 17.4186 6.15607 17.4837 5.98021 17.6117C5.80435 17.7398 5.67675 17.9233 5.618 18.1328C5.55925 18.3422 5.57277 18.5654 5.65638 18.7662C5.74 18.967 5.88882 19.1338 6.07886 19.2397C7.59685 20.0829 9.22308 20.5053 10.812 20.5053C12.3385 20.5053 13.8303 20.1152 15.1578 19.3345C16.8223 18.3553 18.0318 16.8562 18.6885 15.0252C18.7091 14.9787 18.7263 14.9305 18.74 14.8806C19.0776 13.8862 19.2545 12.7971 19.2545 11.642C19.2545 11.5917 19.2529 11.5407 19.251 11.4903C19.8046 10.8377 20.1983 10.065 20.401 9.23358C20.4475 9.04213 20.4344 8.84108 20.3637 8.65723C20.2929 8.47338 20.1678 8.31547 20.005 8.20455H20.0048ZM17.2895 11.3401C17.3087 11.441 17.3188 11.5453 17.3188 11.6451C17.3188 12.5935 17.1776 13.472 16.909 14.2657C16.8943 14.3025 16.8821 14.3402 16.8722 14.3786C16.3698 15.7847 15.4551 16.9141 14.1766 17.6665C13.0064 18.3554 11.6634 18.6487 10.2945 18.5493C10.6082 18.3941 10.9109 18.2177 11.2006 18.0213C11.3433 17.9243 11.4575 17.7909 11.5314 17.635C11.6053 17.479 11.6362 17.3062 11.6209 17.1343C11.6056 16.9624 11.5446 16.7977 11.4442 16.6574C11.3438 16.517 11.2077 16.406 11.0499 16.336C9.2432 15.5331 8.27714 14.2561 8.17883 12.5411C8.16088 12.2083 8.17271 11.8746 8.21418 11.5438C9.5451 12.656 11.25 13.2628 13.0295 13.2169C13.2818 13.2105 13.5215 13.1058 13.6977 12.9251C13.8738 12.7445 13.9724 12.5021 13.9725 12.2498V11.6496C13.9689 11.4083 14.0182 11.169 14.1168 10.9487C14.2154 10.7283 14.361 10.5322 14.5434 10.3741C15.2349 9.77286 16.2861 9.84588 16.8873 10.5374C17.0054 10.673 17.159 10.773 17.3309 10.8261C17.2711 10.9906 17.2568 11.1682 17.2896 11.3401H17.2895ZM50.3798 14.6794H51.7516V20.4493C51.7516 20.706 51.8536 20.9521 52.035 21.1335C52.2165 21.315 52.4626 21.417 52.7192 21.417C52.9759 21.417 53.222 21.315 53.4034 21.1335C53.5849 20.9521 53.6868 20.706 53.6868 20.4493V14.6794H55.1811C55.7152 14.6794 56.1487 14.2459 56.1487 13.7118C56.1487 13.1777 55.7152 12.7442 55.1811 12.7442H53.6868V10.037C53.6868 9.10766 54.4433 8.35111 55.3731 8.35111H56.6258C57.1602 8.35111 57.5934 7.91775 57.5934 7.3835C57.5934 7.12688 57.4915 6.88076 57.31 6.6993C57.1285 6.51784 56.8824 6.41589 56.6258 6.41589H55.3731C53.3763 6.41589 51.7516 8.04019 51.7516 10.037V12.7442H50.3798C49.8457 12.7442 49.4122 13.1777 49.4122 13.7118C49.4122 14.2459 49.8457 14.6794 50.3798 14.6794ZM11.2207 59.0886C11.4512 59.0886 11.6813 59.0293 11.8865 58.9108L18.4728 55.1064C18.675 54.9893 18.8429 54.8212 18.9597 54.6188C19.0765 54.4165 19.1382 54.187 19.1385 53.9533C19.1385 53.4796 18.8836 53.0377 18.4728 52.8008L11.8866 48.9963C11.6842 48.8797 11.4547 48.8183 11.2211 48.8183C10.9875 48.8183 10.7579 48.8797 10.5555 48.9963C10.3533 49.1134 10.1853 49.2815 10.0684 49.4839C9.95146 49.6862 9.88971 49.9157 9.88931 50.1494V57.7578C9.88931 58.232 10.1448 58.674 10.5555 58.9108C10.7577 59.0277 10.9872 59.0891 11.2207 59.0887V59.0886ZM11.8245 51.1956L16.6001 53.954L11.8245 56.712V51.1956ZM57.7685 47.2315H49.3593C47.8989 47.2315 46.7104 48.4197 46.7104 49.8808V58.2885C46.7104 59.7494 47.8987 60.9378 49.3593 60.9378H57.7685C59.2289 60.9378 60.4172 59.7494 60.4172 58.2885V49.8808C60.4172 48.4199 59.2289 47.2315 57.7685 47.2315ZM58.4819 58.2885C58.4819 58.4777 58.4067 58.6592 58.2729 58.7931C58.1392 58.927 57.9577 59.0023 57.7685 59.0026H49.3593C49.17 59.0024 48.9885 58.9271 48.8547 58.7932C48.7209 58.6593 48.6457 58.4778 48.6456 58.2885V49.8808C48.6458 49.6916 48.721 49.5101 48.8548 49.3762C48.9886 49.2423 49.17 49.167 49.3593 49.1667H57.7685C57.9577 49.1671 58.1391 49.2424 58.2728 49.3763C58.4066 49.5102 58.4818 49.6916 58.4819 49.8808V58.2885Z" fill="url(#paint1_linear_508_26505)"/>
<path d="M53.563 51.1598C51.9503 51.1598 50.638 52.4722 50.638 54.0849C50.638 55.6976 51.9503 57.0094 53.563 57.0094C55.1757 57.0094 56.4879 55.6976 56.4879 54.0849C56.4879 52.4722 55.1757 51.1598 53.563 51.1598ZM53.563 55.0742C53.0173 55.0742 52.5732 54.6301 52.5732 54.0849C52.5732 53.5391 53.0171 53.0951 53.563 53.0951C54.1088 53.0951 54.5527 53.539 54.5527 54.0849C54.5527 54.6301 54.1087 55.0742 53.563 55.0742ZM40.4916 23.9493C40.235 23.9493 39.9889 24.0513 39.8074 24.2328C39.6259 24.4142 39.524 24.6603 39.524 24.917V25.3508C38.1592 26.1555 36.7305 26.8464 35.2523 27.4166C34.0676 27.8722 32.8541 28.2492 31.6198 28.545C31.4245 28.3936 31.1845 28.3113 30.9374 28.3111H26.507C25.4367 28.3111 24.5664 29.1819 24.5664 30.2518V35.3334C24.5664 36.4038 25.4367 37.2741 26.5072 37.2741H27.3926L27.7282 43.7259C27.7348 43.8528 27.7663 43.9771 27.821 44.0918C27.8757 44.2065 27.9524 44.3093 28.0468 44.3943C28.1412 44.4793 28.2515 44.5449 28.3712 44.5873C28.491 44.6297 28.6179 44.6482 28.7448 44.6415C29.001 44.6282 29.2415 44.5136 29.4133 44.323C29.585 44.1324 29.6741 43.8814 29.6608 43.6251L29.3303 37.2741H30.9374C31.194 37.2741 31.4302 37.1864 31.6194 37.0407C32.4049 37.2301 33.1822 37.4522 33.9491 37.7064C34.0697 37.7465 34.1971 37.7623 34.3238 37.7531C34.4505 37.7439 34.5742 37.7099 34.6878 37.6529C34.8014 37.5959 34.9026 37.5171 34.9858 37.4209C35.0689 37.3248 35.1322 37.2133 35.1723 37.0927C35.2123 36.972 35.2281 36.8447 35.2189 36.718C35.2097 36.5912 35.1757 36.4676 35.1187 36.354C35.0617 36.2404 34.9829 36.1392 34.8868 36.056C34.7906 35.9729 34.6791 35.9095 34.5585 35.8695C33.7348 35.5964 32.9 35.358 32.0562 35.1549V30.4313C33.3786 30.1145 34.6787 29.7106 35.9478 29.2223C37.1736 28.7496 38.368 28.1991 39.5236 27.5741V38.0132C39.0995 37.7841 38.67 37.565 38.2355 37.3562C38.121 37.301 37.9968 37.269 37.8699 37.2619C37.7431 37.2548 37.616 37.2728 37.4961 37.3148C37.3762 37.3568 37.2657 37.4221 37.1711 37.5069C37.0764 37.5916 36.9993 37.6942 36.9443 37.8088C36.8892 37.9233 36.8572 38.0475 36.8502 38.1744C36.8431 38.3013 36.8611 38.4284 36.9031 38.5483C36.9451 38.6682 37.0104 38.7787 37.0951 38.8734C37.1798 38.9681 37.2824 39.0452 37.3969 39.1003C38.1211 39.4496 38.8306 39.8286 39.5236 40.2363V40.6682C39.5236 40.9249 39.6255 41.171 39.807 41.3524C39.9885 41.5339 40.2346 41.6359 40.4912 41.6359C40.7478 41.6359 40.994 41.5339 41.1754 41.3524C41.3569 41.171 41.4588 40.9249 41.4588 40.6682V24.9168C41.4589 24.7898 41.4339 24.664 41.3854 24.5466C41.3368 24.4292 41.2656 24.3225 41.1757 24.2327C41.0859 24.1428 40.9793 24.0715 40.8619 24.0229C40.7446 23.9743 40.6188 23.9492 40.4917 23.9492L40.4916 23.9493ZM30.1215 35.3384L26.5016 35.3334L26.5072 30.2463H30.1215V35.3384Z" fill="url(#paint2_linear_508_26505)"/>
<defs>
<linearGradient id="paint0_linear_508_26505" x1="8.85861" y1="30.9041" x2="59.5614" y2="30.9041" gradientUnits="userSpaceOnUse">
<stop stop-color="#374BA8"/>
<stop offset="1" stop-color="#2FB7F0"/>
</linearGradient>
<linearGradient id="paint1_linear_508_26505" x1="12.5455" y1="31.1211" x2="54.6477" y2="31.1211" gradientUnits="userSpaceOnUse">
<stop stop-color="#374BA8"/>
<stop offset="1" stop-color="#2FB7F0"/>
</linearGradient>
<linearGradient id="paint2_linear_508_26505" x1="28.6201" y1="38.9296" x2="53.1293" y2="38.9296" gradientUnits="userSpaceOnUse">
<stop stop-color="#374BA8"/>
<stop offset="1" stop-color="#2FB7F0"/>
</linearGradient>
</defs>
</svg>
