<svg width="66" height="67" viewBox="0 0 66 67" fill="none" xmlns="http://www.w3.org/2000/svg">
<path d="M5.71359 66.3098H32.5425C35.3806 66.3098 37.6882 64.0009 37.6882 61.1641V43.4197C37.6882 43.0679 37.5484 42.7306 37.2997 42.4819C37.051 42.2332 36.7137 42.0935 36.362 42.0935C36.0102 42.0935 35.6729 42.2332 35.4242 42.4819C35.1755 42.7306 35.0358 43.0679 35.0358 43.4197V61.1641C35.0358 62.5394 33.9165 63.6574 32.5425 63.6574H5.71359C5.0509 63.6581 4.41496 63.3961 3.94512 62.9287C3.47529 62.4614 3.20989 61.8268 3.20708 61.1641V5.1589C3.20708 3.77701 4.33169 2.65239 5.71359 2.65239H32.5425C33.9165 2.65239 35.0358 3.77701 35.0358 5.1589V14.4555C35.0358 14.6297 35.0701 14.8021 35.1367 14.963C35.2034 15.1239 35.3011 15.2701 35.4242 15.3933C35.5474 15.5164 35.6936 15.6141 35.8545 15.6808C36.0154 15.7474 36.1878 15.7817 36.362 15.7817C36.5361 15.7817 36.7086 15.7474 36.8695 15.6808C37.0304 15.6141 37.1766 15.5164 37.2997 15.3933C37.4229 15.2701 37.5206 15.1239 37.5872 14.963C37.6539 14.8021 37.6882 14.6297 37.6882 14.4555V5.1589C37.6882 2.31421 35.3806 0 32.5425 0H5.71359C4.34579 0.00140431 3.03442 0.545381 2.06725 1.51256C1.10007 2.47974 0.556092 3.79111 0.554688 5.1589V61.1641C0.558199 62.5301 1.10327 63.8389 2.07038 64.8035C3.03748 65.7681 4.34766 66.3098 5.71359 66.3098Z" fill="url(#paint0_linear_508_26513)"/>
<path d="M26.877 5.61355C26.877 5.26182 26.7372 4.9245 26.4885 4.67579C26.2398 4.42708 25.9025 4.28735 25.5508 4.28735H12.6973C12.3456 4.28735 12.0082 4.42708 11.7595 4.67579C11.5108 4.9245 11.3711 5.26182 11.3711 5.61355C11.3711 5.96528 11.5108 6.3026 11.7595 6.55131C12.0082 6.80002 12.3456 6.93974 12.6973 6.93974H25.5508C25.9025 6.93974 26.2398 6.80002 26.4885 6.55131C26.7372 6.3026 26.877 5.96528 26.877 5.61355ZM18.2063 62.0273H20.0431C20.3948 62.0273 20.7321 61.8875 20.9808 61.6388C21.2296 61.3901 21.3693 61.0528 21.3693 60.7011C21.3693 60.3493 21.2296 60.012 20.9808 59.7633C20.7321 59.5146 20.3948 59.3749 20.0431 59.3749H18.2063C17.8546 59.3749 17.5173 59.5146 17.2685 59.7633C17.0198 60.012 16.8801 60.3493 16.8801 60.7011C16.8801 61.0528 17.0198 61.3901 17.2685 61.6388C17.5173 61.8875 17.8546 62.0273 18.2063 62.0273ZM29.6315 6.9424C29.9776 6.9424 30.3224 6.79652 30.5731 6.5578C30.8131 6.30582 30.9577 5.96101 30.9577 5.6162C30.9577 5.25813 30.8131 4.92658 30.5731 4.6746C30.3858 4.4919 30.1498 4.36717 29.8934 4.31541C29.6369 4.26365 29.371 4.28707 29.1275 4.38284C28.9551 4.44915 28.8092 4.55524 28.6899 4.6746C28.4512 4.92658 28.3053 5.25813 28.3053 5.6162C28.3053 5.96101 28.4512 6.30582 28.6899 6.5578C28.8092 6.67716 28.9551 6.76999 29.1275 6.8363C29.2867 6.90261 29.4591 6.9424 29.6315 6.9424ZM17.7978 19.7574V43.4274C17.7978 43.6781 17.8688 43.9237 18.0027 44.1358C18.1366 44.3478 18.3278 44.5175 18.5543 44.6252C18.7807 44.7329 19.033 44.7743 19.282 44.7444C19.5309 44.7146 19.7663 44.6147 19.9609 44.4565L26.1237 39.4461H64.3168C64.6685 39.4461 65.0059 39.3064 65.2546 39.0577C65.5033 38.809 65.643 38.4717 65.643 38.1199V19.7574C65.643 19.4057 65.5033 19.0684 65.2546 18.8197C65.0059 18.571 64.6685 18.4312 64.3168 18.4312H19.124C18.7723 18.4312 18.435 18.571 18.1863 18.8197C17.9376 19.0684 17.7978 19.4057 17.7978 19.7574ZM20.4502 21.0836H62.9906V36.7937H25.6529C25.3492 36.7937 25.0535 36.8985 24.8161 37.0908L20.4502 40.6397V21.0836Z" fill="url(#paint1_linear_508_26513)"/>
<path d="M37.3302 31.4737C37.5061 31.7783 37.7958 32.0005 38.1355 32.0916C38.4752 32.1826 38.8372 32.1349 39.1418 31.9591L40.3911 31.2376V32.6819C40.3911 33.0336 40.5308 33.3709 40.7795 33.6196C41.0282 33.8683 41.3656 34.0081 41.7173 34.0081C42.069 34.0081 42.4063 33.8683 42.6551 33.6196C42.9038 33.3709 43.0435 33.0336 43.0435 32.6819V31.2376L44.2928 31.9591C44.4435 32.0465 44.61 32.1033 44.7828 32.1262C44.9555 32.1492 45.131 32.1377 45.2994 32.0926C45.4677 32.0475 45.6254 31.9697 45.7636 31.8634C45.9017 31.7572 46.0175 31.6248 46.1043 31.4737C46.2802 31.1691 46.3279 30.8071 46.2368 30.4674C46.1458 30.1277 45.9236 29.838 45.619 29.6621L44.3684 28.9393L45.619 28.2166C45.771 28.1301 45.9044 28.0145 46.0116 27.8762C46.1188 27.738 46.1975 27.5799 46.2433 27.4112C46.2892 27.2424 46.3012 27.0662 46.2786 26.8927C46.2561 26.7193 46.1994 26.552 46.112 26.4006C46.0245 26.2491 45.908 26.1164 45.7691 26.0102C45.6301 25.904 45.4715 25.8262 45.3025 25.7815C45.1334 25.7368 44.9571 25.726 44.7838 25.7497C44.6105 25.7734 44.4436 25.8311 44.2928 25.9196L43.0448 26.6424V25.1995C43.0448 24.8477 42.9051 24.5104 42.6564 24.2617C42.4077 24.013 42.0703 23.8733 41.7186 23.8733C41.3669 23.8733 41.0296 24.013 40.7809 24.2617C40.5321 24.5104 40.3924 24.8477 40.3924 25.1995V26.6424L39.1431 25.9209C38.8387 25.7478 38.4782 25.7022 38.1402 25.7939C37.8022 25.8857 37.5143 26.1074 37.3392 26.4107C37.1641 26.714 37.116 27.0742 37.2055 27.4128C37.295 27.7514 37.5148 28.0408 37.8169 28.2179L39.0676 28.9407L37.8169 29.6634C37.6659 29.7502 37.5335 29.8658 37.4273 30.0038C37.3211 30.1418 37.2431 30.2994 37.1979 30.4676C37.1527 30.6357 37.1411 30.8112 37.1638 30.9838C37.1865 31.1565 37.2431 31.3229 37.3302 31.4737ZM50.6426 31.4737C50.8185 31.7783 51.1081 32.0005 51.4479 32.0916C51.7876 32.1826 52.1496 32.1349 52.4542 31.9591L53.7048 31.2363V32.6805C53.7048 33.0323 53.8445 33.3696 54.0932 33.6183C54.3419 33.867 54.6792 34.0067 55.031 34.0067C55.3827 34.0067 55.72 33.867 55.9687 33.6183C56.2174 33.3696 56.3572 33.0323 56.3572 32.6805V31.2376L57.6064 31.9591C57.7572 32.0465 57.9237 32.1033 58.0964 32.1262C58.2692 32.1492 58.4447 32.1377 58.613 32.0926C58.7814 32.0475 58.9391 31.9697 59.0773 31.8634C59.2154 31.7572 59.3312 31.6248 59.418 31.4737C59.5939 31.1691 59.6415 30.8071 59.5505 30.4674C59.4595 30.1277 59.2372 29.838 58.9326 29.6621L57.682 28.9407L58.9326 28.2192C59.0847 28.1328 59.2181 28.0171 59.3253 27.8789C59.4324 27.7407 59.5112 27.5826 59.557 27.4138C59.6028 27.245 59.6148 27.0688 59.5923 26.8954C59.5697 26.722 59.5131 26.5547 59.4257 26.4032C59.3382 26.2518 59.2217 26.1191 59.0827 26.0128C58.9438 25.9066 58.7852 25.8289 58.6161 25.7842C58.447 25.7395 58.2708 25.7287 58.0975 25.7524C57.9242 25.7761 57.7573 25.8338 57.6064 25.9222L56.3572 26.6437V25.2008C56.3572 24.8491 56.2174 24.5117 55.9687 24.263C55.72 24.0143 55.3827 23.8746 55.031 23.8746C54.6792 23.8746 54.3419 24.0143 54.0932 24.263C53.8445 24.5117 53.7048 24.8491 53.7048 25.2008V26.6437L52.4542 25.9209C52.1497 25.7478 51.7892 25.7022 51.4512 25.7939C51.1132 25.8857 50.8253 26.1074 50.6502 26.4107C50.4751 26.714 50.427 27.0742 50.5165 27.4128C50.6061 27.7514 50.8259 28.0408 51.128 28.2179L52.3786 28.9393L51.128 29.6608C50.8236 29.8372 50.6015 30.1271 50.5105 30.4669C50.4195 30.8068 50.467 31.1688 50.6426 31.4737ZM25.8308 31.9591L27.0801 31.2376V32.6819C27.0801 33.0336 27.2198 33.3709 27.4685 33.6196C27.7172 33.8683 28.0545 34.0081 28.4063 34.0081C28.758 34.0081 29.0953 33.8683 29.344 33.6196C29.5927 33.3709 29.7325 33.0336 29.7325 32.6819V31.2376L30.9817 31.9591C31.1325 32.0465 31.299 32.1033 31.4717 32.1262C31.6445 32.1492 31.82 32.1377 31.9883 32.0926C32.1567 32.0475 32.3144 31.9697 32.4525 31.8634C32.5907 31.7572 32.7065 31.6248 32.7933 31.4737C32.9692 31.1691 33.0168 30.8071 32.9258 30.4674C32.8348 30.1277 32.6125 29.838 32.3079 29.6621L31.0573 28.9393L32.3079 28.2166C32.46 28.1301 32.5934 28.0145 32.7006 27.8762C32.8077 27.738 32.8865 27.5799 32.9323 27.4112C32.9781 27.2424 32.9901 27.0662 32.9676 26.8927C32.945 26.7193 32.8884 26.552 32.801 26.4006C32.7135 26.2491 32.597 26.1164 32.458 26.0102C32.3191 25.904 32.1605 25.8262 31.9914 25.7815C31.8223 25.7368 31.6461 25.726 31.4728 25.7497C31.2995 25.7734 31.1326 25.8311 30.9817 25.9196L29.7325 26.641V25.1981C29.7325 24.8464 29.5927 24.5091 29.344 24.2604C29.0953 24.0117 28.758 23.8719 28.4063 23.8719C28.0545 23.8719 27.7172 24.0117 27.4685 24.2604C27.2198 24.5091 27.0801 24.8464 27.0801 25.1981V26.641L25.8308 25.9196C25.5264 25.7465 25.1658 25.7009 24.8278 25.7926C24.4899 25.8844 24.2019 26.1061 24.0268 26.4094C23.8517 26.7126 23.8037 27.0729 23.8932 27.4115C23.9827 27.75 24.2025 28.0394 24.5046 28.2166L25.7552 28.9393L24.5046 29.6621C24.2507 29.8075 24.052 30.0328 23.9396 30.303C23.8271 30.5731 23.8073 30.8729 23.8832 31.1555C23.9591 31.4381 24.1264 31.6876 24.359 31.8651C24.5916 32.0427 24.8764 32.1382 25.169 32.1368C25.4014 32.1367 25.6297 32.0754 25.8308 31.9591Z" fill="url(#paint2_linear_508_26513)"/>
<defs>
<linearGradient id="paint0_linear_508_26513" x1="2.50432" y1="39.5261" x2="29.3703" y2="39.5261" gradientUnits="userSpaceOnUse">
<stop stop-color="#374BA8"/>
<stop offset="1" stop-color="#2FB7F0"/>
</linearGradient>
<linearGradient id="paint1_linear_508_26513" x1="14.2206" y1="38.7051" x2="53.4861" y2="38.7051" gradientUnits="userSpaceOnUse">
<stop stop-color="#374BA8"/>
<stop offset="1" stop-color="#2FB7F0"/>
</linearGradient>
<linearGradient id="paint2_linear_508_26513" x1="25.7157" y1="29.9139" x2="51.5919" y2="29.9139" gradientUnits="userSpaceOnUse">
<stop stop-color="#374BA8"/>
<stop offset="1" stop-color="#2FB7F0"/>
</linearGradient>
</defs>
</svg>
