<svg width="66" height="66" viewBox="0 0 66 66" fill="none" xmlns="http://www.w3.org/2000/svg">
<mask id="mask0_508_5940" style="mask-type:luminance" maskUnits="userSpaceOnUse" x="0" y="-1" width="67" height="67">
<path d="M65.3534 65.35V0.646553H0.65V65.35H65.3534Z" fill="white" stroke="white" stroke-width="1.3"/>
</mask>
<g mask="url(#mask0_508_5940)">
<path d="M33.0019 36.0979H32.2189C31.3967 36.0979 30.6081 35.7713 30.0267 35.1899L27.7093 32.8724C27.4214 32.5845 27.0796 32.3562 26.7035 32.2004C26.3274 32.0446 25.9242 31.9645 25.5171 31.9645H16.4674C14.7553 31.9645 13.3672 33.3523 13.3672 35.0646V61.9325C13.3672 63.6447 14.7553 65.0327 16.4674 65.0327" stroke="url(#paint0_linear_508_5940)" stroke-width="1.5" stroke-miterlimit="10" stroke-linecap="round" stroke-linejoin="round"/>
<path d="M52.6358 40.2317V39.1983C52.6358 37.4861 51.2478 36.0982 49.5357 36.0982H37.1348" stroke="url(#paint1_linear_508_5940)" stroke-width="1.5" stroke-miterlimit="10" stroke-linecap="round" stroke-linejoin="round"/>
<path d="M48.5022 59.8652H41.2686" stroke="url(#paint2_linear_508_5940)" stroke-width="1.5" stroke-miterlimit="10" stroke-linecap="round" stroke-linejoin="round"/>
<path d="M50.5687 55.7328H43.335" stroke="url(#paint3_linear_508_5940)" stroke-width="1.5" stroke-miterlimit="10" stroke-linecap="round" stroke-linejoin="round"/>
<path d="M13.9229 63.366L20.9277 42.3513C21.1335 41.734 21.5283 41.1971 22.0562 40.8167C22.584 40.4363 23.2182 40.2315 23.8689 40.2315H59.4692C60.1745 40.2315 60.6726 40.9225 60.4496 41.5917L53.3425 62.9129C53.1367 63.5302 52.7419 64.067 52.2141 64.4475C51.6862 64.828 51.052 65.0327 50.4014 65.0327H16.4671" stroke="url(#paint4_linear_508_5940)" stroke-width="1.5" stroke-miterlimit="10" stroke-linecap="round" stroke-linejoin="round"/>
<path d="M12.3336 0.963472H4.06657C3.7925 0.963472 3.52966 1.07234 3.33587 1.26614C3.14208 1.45993 3.0332 1.72277 3.0332 1.99684V18.531C3.0332 18.805 3.14207 19.0679 3.33586 19.2617C3.52965 19.4555 3.79249 19.5644 4.06657 19.5645H16.4671C16.7412 19.5645 17.0041 19.4556 17.1979 19.2617C17.3917 19.0679 17.5006 18.8051 17.5006 18.531V6.13043L12.3336 0.963472Z" stroke="url(#paint5_linear_508_5940)" stroke-width="1.5" stroke-miterlimit="10" stroke-linecap="round" stroke-linejoin="round"/>
<path d="M17.5009 6.12964H13.3674C13.0933 6.12964 12.8304 6.02077 12.6367 5.82697C12.4429 5.63318 12.334 5.37034 12.334 5.09627V0.962678" stroke="url(#paint6_linear_508_5940)" stroke-width="1.5" stroke-miterlimit="10" stroke-linecap="round" stroke-linejoin="round"/>
<path d="M7.16699 10.2633H12.334" stroke="url(#paint7_linear_508_5940)" stroke-width="1.5" stroke-miterlimit="10" stroke-linecap="round" stroke-linejoin="round"/>
<path d="M7.16699 14.3971H12.334" stroke="url(#paint8_linear_508_5940)" stroke-width="1.5" stroke-miterlimit="10" stroke-linecap="round" stroke-linejoin="round"/>
<path d="M35.068 0.963472H26.8009C26.5269 0.963472 26.264 1.07234 26.0702 1.26614C25.8765 1.45993 25.7676 1.72277 25.7676 1.99684V18.531C25.7676 18.805 25.8764 19.0679 26.0702 19.2617C26.264 19.4555 26.5269 19.5644 26.8009 19.5645H39.2015C39.4756 19.5645 39.7384 19.4556 39.9323 19.2617C40.1261 19.0679 40.235 18.8051 40.235 18.531V6.13043L35.068 0.963472Z" stroke="url(#paint9_linear_508_5940)" stroke-width="1.5" stroke-miterlimit="10" stroke-linecap="round" stroke-linejoin="round"/>
<path d="M40.2353 6.12964H36.1019C35.9661 6.12966 35.8318 6.10294 35.7064 6.05102C35.581 5.99909 35.467 5.92298 35.3711 5.82702C35.2751 5.73106 35.199 5.61714 35.147 5.49175C35.0951 5.36637 35.0684 5.23199 35.0684 5.09627V0.962678" stroke="url(#paint10_linear_508_5940)" stroke-width="1.5" stroke-miterlimit="10" stroke-linecap="round" stroke-linejoin="round"/>
<path d="M29.9014 10.2633H35.0683" stroke="url(#paint11_linear_508_5940)" stroke-width="1.5" stroke-miterlimit="10" stroke-linecap="round" stroke-linejoin="round"/>
<path d="M29.9014 14.3971H35.0683" stroke="url(#paint12_linear_508_5940)" stroke-width="1.5" stroke-miterlimit="10" stroke-linecap="round" stroke-linejoin="round"/>
<path d="M57.8025 0.963472H49.5354C49.2614 0.963472 48.9985 1.07234 48.8047 1.26613C48.6109 1.45992 48.502 1.72276 48.502 1.99684V18.531C48.502 18.805 48.6109 19.0679 48.8047 19.2617C48.9985 19.4555 49.2614 19.5644 49.5354 19.5645H61.936C62.2101 19.5645 62.4729 19.4556 62.6668 19.2617C62.8606 19.0679 62.9695 18.8051 62.9695 18.531V6.13043L57.8025 0.963472Z" stroke="url(#paint13_linear_508_5940)" stroke-width="1.5" stroke-miterlimit="10" stroke-linecap="round" stroke-linejoin="round"/>
<path d="M62.9697 6.12964H58.8362C58.7005 6.12966 58.5661 6.10294 58.4407 6.05102C58.3153 5.99909 58.2014 5.92298 58.1054 5.82702C58.0095 5.73106 57.9333 5.61714 57.8814 5.49175C57.8295 5.36637 57.8027 5.23199 57.8027 5.09627V0.962678" stroke="url(#paint14_linear_508_5940)" stroke-width="1.5" stroke-miterlimit="10" stroke-linecap="round" stroke-linejoin="round"/>
<path d="M52.6357 10.2633H57.8027" stroke="url(#paint15_linear_508_5940)" stroke-width="1.5" stroke-miterlimit="10" stroke-linecap="round" stroke-linejoin="round"/>
<path d="M52.6357 14.3971H57.8027" stroke="url(#paint16_linear_508_5940)" stroke-width="1.5" stroke-miterlimit="10" stroke-linecap="round" stroke-linejoin="round"/>
<path d="M33.001 27.8312V40.2317" stroke="url(#paint17_linear_508_5940)" stroke-width="1.5" stroke-miterlimit="10" stroke-linecap="round" stroke-linejoin="round"/>
<path d="M35.0674 25.7644H53.6685C54.8099 25.7644 55.7352 24.8391 55.7352 23.6977V19.5641" stroke="url(#paint18_linear_508_5940)" stroke-width="1.5" stroke-miterlimit="10" stroke-linecap="round" stroke-linejoin="round"/>
<path d="M10.2666 19.5641V23.6975C10.2666 24.8389 11.1919 25.7644 12.3333 25.7644H30.9341" stroke="url(#paint19_linear_508_5940)" stroke-width="1.5" stroke-miterlimit="10" stroke-linecap="round" stroke-linejoin="round"/>
<path d="M35.068 25.764C35.068 26.9054 34.1427 27.8307 33.0013 27.8307C31.8598 27.8307 30.9346 26.9054 30.9346 25.764C30.9346 24.6226 31.8598 23.6972 33.0013 23.6972C34.1427 23.6972 35.068 24.6226 35.068 25.764Z" stroke="url(#paint20_linear_508_5940)" stroke-width="1.5" stroke-miterlimit="10" stroke-linecap="round" stroke-linejoin="round"/>
<path d="M33.001 23.6969V19.5634" stroke="url(#paint21_linear_508_5940)" stroke-width="1.5" stroke-miterlimit="10" stroke-linecap="round" stroke-linejoin="round"/>
</g>
<defs>
<linearGradient id="paint0_linear_508_5940" x1="14.3981" y1="45.3213" x2="28.6037" y2="45.3213" gradientUnits="userSpaceOnUse">
<stop stop-color="#374BA8"/>
<stop offset="1" stop-color="#2FB7F0"/>
</linearGradient>
<linearGradient id="paint1_linear_508_5940" x1="37.9486" y1="37.7678" x2="49.1635" y2="37.7678" gradientUnits="userSpaceOnUse">
<stop stop-color="#374BA8"/>
<stop offset="1" stop-color="#2FB7F0"/>
</linearGradient>
<linearGradient id="paint2_linear_508_5940" x1="41.6483" y1="59.2692" x2="46.8819" y2="59.2692" gradientUnits="userSpaceOnUse">
<stop stop-color="#374BA8"/>
<stop offset="1" stop-color="#2FB7F0"/>
</linearGradient>
<linearGradient id="paint3_linear_508_5940" x1="43.7148" y1="55.1367" x2="48.9483" y2="55.1367" gradientUnits="userSpaceOnUse">
<stop stop-color="#374BA8"/>
<stop offset="1" stop-color="#2FB7F0"/>
</linearGradient>
<linearGradient id="paint4_linear_508_5940" x1="16.3685" y1="50.2492" x2="50.0694" y2="50.2492" gradientUnits="userSpaceOnUse">
<stop stop-color="#374BA8"/>
<stop offset="1" stop-color="#2FB7F0"/>
</linearGradient>
<linearGradient id="paint5_linear_508_5940" x1="3.79279" y1="8.47674" x2="14.2599" y2="8.47674" gradientUnits="userSpaceOnUse">
<stop stop-color="#374BA8"/>
<stop offset="1" stop-color="#2FB7F0"/>
</linearGradient>
<linearGradient id="paint6_linear_508_5940" x1="12.6053" y1="3.04971" x2="16.3435" y2="3.04971" gradientUnits="userSpaceOnUse">
<stop stop-color="#374BA8"/>
<stop offset="1" stop-color="#2FB7F0"/>
</linearGradient>
<linearGradient id="paint7_linear_508_5940" x1="7.43827" y1="9.66722" x2="11.1766" y2="9.66722" gradientUnits="userSpaceOnUse">
<stop stop-color="#374BA8"/>
<stop offset="1" stop-color="#2FB7F0"/>
</linearGradient>
<linearGradient id="paint8_linear_508_5940" x1="7.43827" y1="13.801" x2="11.1766" y2="13.801" gradientUnits="userSpaceOnUse">
<stop stop-color="#374BA8"/>
<stop offset="1" stop-color="#2FB7F0"/>
</linearGradient>
<linearGradient id="paint9_linear_508_5940" x1="26.5272" y1="8.47674" x2="36.9943" y2="8.47674" gradientUnits="userSpaceOnUse">
<stop stop-color="#374BA8"/>
<stop offset="1" stop-color="#2FB7F0"/>
</linearGradient>
<linearGradient id="paint10_linear_508_5940" x1="35.3396" y1="3.04971" x2="39.0779" y2="3.04971" gradientUnits="userSpaceOnUse">
<stop stop-color="#374BA8"/>
<stop offset="1" stop-color="#2FB7F0"/>
</linearGradient>
<linearGradient id="paint11_linear_508_5940" x1="30.1726" y1="9.66722" x2="33.9109" y2="9.66722" gradientUnits="userSpaceOnUse">
<stop stop-color="#374BA8"/>
<stop offset="1" stop-color="#2FB7F0"/>
</linearGradient>
<linearGradient id="paint12_linear_508_5940" x1="30.1726" y1="13.801" x2="33.9109" y2="13.801" gradientUnits="userSpaceOnUse">
<stop stop-color="#374BA8"/>
<stop offset="1" stop-color="#2FB7F0"/>
</linearGradient>
<linearGradient id="paint13_linear_508_5940" x1="49.2615" y1="8.47674" x2="59.7287" y2="8.47674" gradientUnits="userSpaceOnUse">
<stop stop-color="#374BA8"/>
<stop offset="1" stop-color="#2FB7F0"/>
</linearGradient>
<linearGradient id="paint14_linear_508_5940" x1="58.074" y1="3.04971" x2="61.8123" y2="3.04971" gradientUnits="userSpaceOnUse">
<stop stop-color="#374BA8"/>
<stop offset="1" stop-color="#2FB7F0"/>
</linearGradient>
<linearGradient id="paint15_linear_508_5940" x1="52.907" y1="9.66722" x2="56.6453" y2="9.66722" gradientUnits="userSpaceOnUse">
<stop stop-color="#374BA8"/>
<stop offset="1" stop-color="#2FB7F0"/>
</linearGradient>
<linearGradient id="paint16_linear_508_5940" x1="52.907" y1="13.801" x2="56.6453" y2="13.801" gradientUnits="userSpaceOnUse">
<stop stop-color="#374BA8"/>
<stop offset="1" stop-color="#2FB7F0"/>
</linearGradient>
<linearGradient id="paint17_linear_508_5940" x1="33.0535" y1="32.84" x2="33.777" y2="32.84" gradientUnits="userSpaceOnUse">
<stop stop-color="#374BA8"/>
<stop offset="1" stop-color="#2FB7F0"/>
</linearGradient>
<linearGradient id="paint18_linear_508_5940" x1="36.1525" y1="22.0685" x2="51.1056" y2="22.0685" gradientUnits="userSpaceOnUse">
<stop stop-color="#374BA8"/>
<stop offset="1" stop-color="#2FB7F0"/>
</linearGradient>
<linearGradient id="paint19_linear_508_5940" x1="11.3517" y1="22.0685" x2="26.3045" y2="22.0685" gradientUnits="userSpaceOnUse">
<stop stop-color="#374BA8"/>
<stop offset="1" stop-color="#2FB7F0"/>
</linearGradient>
<linearGradient id="paint20_linear_508_5940" x1="31.1516" y1="25.3668" x2="34.1421" y2="25.3668" gradientUnits="userSpaceOnUse">
<stop stop-color="#374BA8"/>
<stop offset="1" stop-color="#2FB7F0"/>
</linearGradient>
<linearGradient id="paint21_linear_508_5940" x1="33.0535" y1="21.233" x2="33.777" y2="21.233" gradientUnits="userSpaceOnUse">
<stop stop-color="#374BA8"/>
<stop offset="1" stop-color="#2FB7F0"/>
</linearGradient>
</defs>
</svg>
