<svg width="66" height="66" fill="none" xmlns="http://www.w3.org/2000/svg"><mask id="a" style="mask-type:luminance" maskUnits="userSpaceOnUse" x="0" y="-1" width="66" height="67"><path d="M0 0h65.999v65.998H0V0Z" fill="#fff"/></mask><g mask="url(#a)" stroke-width="1.5" stroke-miterlimit="10" stroke-linecap="round" stroke-linejoin="round"><path d="M15.646 11.876V4.834A3.867 3.867 0 0 1 19.512.967H48.42a3.867 3.867 0 0 1 3.868 3.867v29.17" stroke="url(#b)"/><path d="M15.646 47.259V33.794" stroke="url(#c)"/><path d="M52.288 55.922v5.242a3.867 3.867 0 0 1-3.867 3.868H19.512a3.867 3.867 0 0 1-3.868-3.867V51.77" stroke="url(#d)"/><path d="M40.166 6.075h-12.4c-.711 0-1.288-.577-1.288-1.29V.968h14.977v3.819a1.29 1.29 0 0 1-1.29 1.289Z" stroke="url(#e)"/><path d="M27.705 33.794h-3.936a.644.644 0 0 0-.645.644v2.019a.644.644 0 0 1-1.002.536l-2.54-2.983a1.29 1.29 0 0 0-.715-.216H8.7a3.867 3.867 0 0 1-3.867-3.867V15.742a3.867 3.867 0 0 1 3.867-3.867h19.004a3.867 3.867 0 0 1 3.867 3.867v14.185a3.867 3.867 0 0 1-3.867 3.867Z" stroke="url(#f)"/><path d="M14.44 18.92c0-.29.311-.47.561-.325l6.779 3.916c.25.144.25.504 0 .648L15 27.075a.374.374 0 0 1-.561-.324v-7.832Z" stroke="url(#g)"/><path d="M41.899 34.004h-3.605a3.867 3.867 0 0 0-3.867 3.867v14.184a3.867 3.867 0 0 0 3.867 3.867h3.936a.645.645 0 0 1 .644.645v2.018c0 .515.574.822 1.002.536l2.54-2.982a1.29 1.29 0 0 1 .716-.217h10.166a3.867 3.867 0 0 0 3.867-3.867V37.871a3.867 3.867 0 0 0-3.867-3.867H46.41" stroke="url(#h)"/><path d="M54.907 50.435H40.685a1.227 1.227 0 0 1-1.227-1.228v-9.156a1.227 1.227 0 0 1 1.227-1.227h14.222c.678 0 1.227.55 1.227 1.227v9.156c0 .678-.55 1.228-1.227 1.228Z" stroke="url(#i)"/><path d="M49.61 50.435h4.601l-3.606-4.047a.613.613 0 0 0-.91-.005l-1.673 1.825" stroke="url(#j)"/><path d="m41.38 50.435 3.67-5.006a.614.614 0 0 1 .994.006l3.566 5h-8.23Z" stroke="url(#k)"/></g><defs><linearGradient id="b" x1="17.569" y1="14.311" x2="44.08" y2="14.311" gradientUnits="userSpaceOnUse"><stop stop-color="#374BA8"/><stop offset="1" stop-color="#2FB7F0"/></linearGradient><linearGradient id="c" x1="15.698" y1="39.233" x2="16.422" y2="39.233" gradientUnits="userSpaceOnUse"><stop stop-color="#374BA8"/><stop offset="1" stop-color="#2FB7F0"/></linearGradient><linearGradient id="d" x1="17.569" y1="57.127" x2="44.08" y2="57.127" gradientUnits="userSpaceOnUse"><stop stop-color="#374BA8"/><stop offset="1" stop-color="#2FB7F0"/></linearGradient><linearGradient id="e" x1="27.264" y1="3.03" x2="38.1" y2="3.03" gradientUnits="userSpaceOnUse"><stop stop-color="#374BA8"/><stop offset="1" stop-color="#2FB7F0"/></linearGradient><linearGradient id="f" x1="6.238" y1="22.065" x2="25.583" y2="22.065" gradientUnits="userSpaceOnUse"><stop stop-color="#374BA8"/><stop offset="1" stop-color="#2FB7F0"/></linearGradient><linearGradient id="g" x1="14.835" y1="22.01" x2="20.281" y2="22.01" gradientUnits="userSpaceOnUse"><stop stop-color="#374BA8"/><stop offset="1" stop-color="#2FB7F0"/></linearGradient><linearGradient id="h" x1="35.831" y1="44.193" x2="55.175" y2="44.193" gradientUnits="userSpaceOnUse"><stop stop-color="#374BA8"/><stop offset="1" stop-color="#2FB7F0"/></linearGradient><linearGradient id="i" x1="40.334" y1="43.514" x2="52.399" y2="43.514" gradientUnits="userSpaceOnUse"><stop stop-color="#374BA8"/><stop offset="1" stop-color="#2FB7F0"/></linearGradient><linearGradient id="j" x1="48.346" y1="47.901" x2="52.825" y2="47.901" gradientUnits="userSpaceOnUse"><stop stop-color="#374BA8"/><stop offset="1" stop-color="#2FB7F0"/></linearGradient><linearGradient id="k" x1="41.812" y1="47.301" x2="47.766" y2="47.301" gradientUnits="userSpaceOnUse"><stop stop-color="#374BA8"/><stop offset="1" stop-color="#2FB7F0"/></linearGradient></defs></svg>