<svg width="83" height="82" fill="none" xmlns="http://www.w3.org/2000/svg"><path d="M49.636 33.643a1.063 1.063 0 0 0 1.16-.132l23.383-19.466a1.063 1.063 0 0 0-.499-1.864L43.696 7.015a1.062 1.062 0 0 0-1.067 1.633l7.21 10.92-.784 13.063a1.063 1.063 0 0 0 .58 1.012Zm-3.88-24.116 25.295 4.358-19.728 16.421.612-10.2 9.523-2.552a1.063 1.063 0 1 0-.55-2.052l-9.522 2.552-5.63-8.527ZM27.81 50.563V69.69A5.318 5.318 0 0 0 33.124 75h27.625a5.318 5.318 0 0 0 5.313-5.312V50.563a5.318 5.318 0 0 0-5.313-5.312H33.124a5.319 5.319 0 0 0-5.313 5.312ZM60.75 72.876H33.124a3.19 3.19 0 0 1-3.188-3.187V52.517l14.115 9.132a5.32 5.32 0 0 0 5.772 0l14.114-9.132v17.172a3.191 3.191 0 0 1-3.188 3.187Zm3.14-22.86-15.22 9.85a3.193 3.193 0 0 1-3.464 0l-15.22-9.85a3.192 3.192 0 0 1 3.139-2.64h27.625a3.192 3.192 0 0 1 3.14 2.64Zm-28.412-24.89c.126 0 .252-.022.37-.066a102.34 102.34 0 0 1 2.856-1.016 1.062 1.062 0 1 0-.683-2.012c-.977.331-1.948.677-2.915 1.037a1.062 1.062 0 0 0 .371 2.058ZM13.37 56.761a1.062 1.062 0 0 0 .053 1.502 14.957 14.957 0 0 0 2.633 1.96 1.063 1.063 0 1 0 1.074-1.835 12.824 12.824 0 0 1-2.258-1.68 1.063 1.063 0 0 0-1.502.053Z" fill="url(#a)"/><path d="M41.408 22.049a1.063 1.063 0 0 0 1.319.72 81.268 81.268 0 0 1 2.922-.807 1.064 1.064 0 1 0-.523-2.06 85.09 85.09 0 0 0-3 .828 1.06 1.06 0 0 0-.718 1.319Zm-32.3 21.856a14.536 14.536 0 0 0-.42 3.245 1.062 1.062 0 0 0 1.046 1.08h.016a1.062 1.062 0 0 0 1.063-1.047c.015-.934.135-1.863.358-2.77a1.063 1.063 0 0 0-2.063-.508Zm21.996-19.246a84.83 84.83 0 0 0-2.831 1.264 1.064 1.064 0 0 0 .09 1.961 1.063 1.063 0 0 0 .812-.037 81.96 81.96 0 0 1 2.76-1.232 1.062 1.062 0 1 0-.83-1.956ZM22.278 31.4c.196 0 .389-.055.556-.158a57.207 57.207 0 0 1 2.6-1.505 1.062 1.062 0 0 0-1.018-1.866 58.871 58.871 0 0 0-2.696 1.562 1.062 1.062 0 0 0 .558 1.967Zm-2.783 29.223a1.063 1.063 0 0 0 .805 1.269c1.07.239 2.164.359 3.261.359a1.063 1.063 0 0 0 0-2.125c-.94 0-1.879-.103-2.797-.308a1.062 1.062 0 0 0-1.269.805ZM18.12 31.877a36.513 36.513 0 0 0-2.436 1.997 1.062 1.062 0 0 0 1.42 1.58 34.296 34.296 0 0 1 2.293-1.88 1.062 1.062 0 1 0-1.277-1.697Zm-3.994 5.029a1.062 1.062 0 0 0-1.494.162 20.631 20.631 0 0 0-1.82 2.65 1.063 1.063 0 1 0 1.843 1.056 18.53 18.53 0 0 1 1.634-2.374 1.062 1.062 0 0 0-.163-1.494ZM11.35 51.052a1.061 1.061 0 0 0-2.077.198c-.014.14 0 .28.042.414a14.818 14.818 0 0 0 1.288 3.02 1.062 1.062 0 1 0 1.85-1.045 12.69 12.69 0 0 1-1.103-2.587Z" fill="url(#b)"/><defs><linearGradient id="a" x1="16.314" y1="47.534" x2="60.791" y2="47.534" gradientUnits="userSpaceOnUse"><stop stop-color="#374BA8"/><stop offset="1" stop-color="#2FB7F0"/></linearGradient><linearGradient id="b" x1="10.671" y1="45.131" x2="37.999" y2="45.131" gradientUnits="userSpaceOnUse"><stop stop-color="#374BA8"/><stop offset="1" stop-color="#2FB7F0"/></linearGradient></defs></svg>