<svg width="82" height="82" fill="none" xmlns="http://www.w3.org/2000/svg"><path d="M9 21.127c0-3.464 1.38-6.712 3.884-9.146a.94.94 0 0 1 1.586.678.928.928 0 0 1-.276.654c-2.14 2.08-3.32 4.856-3.32 7.814a.928.928 0 0 1-.274.659.94.94 0 0 1-1.326 0 .93.93 0 0 1-.274-.66Zm23.895 0c0 .247.098.484.274.658a.94.94 0 0 0 1.6-.658c0-3.464-1.38-6.712-3.884-9.146a.94.94 0 0 0-1.586.678c.002.246.1.48.276.654 2.14 2.08 3.32 4.856 3.32 7.814ZM72 45.853v25.522A2.636 2.636 0 0 1 69.359 74H26.54c-3.084 0-5.594-2.494-5.594-5.56V36.103a4.108 4.108 0 0 1-3.134-3.4H9.937a.94.94 0 0 1-.663-.273.929.929 0 0 1 .663-1.59h1.131c.74 0 1.344-.599 1.344-1.335v-8.378c0-4.008 2.535-7.436 6.095-8.79v-.98C18.507 9.506 20.022 8 21.884 8c.754 0 1.451.247 2.014.663A5.556 5.556 0 0 1 26.54 8h28.343c3.084 0 5.594 2.492 5.594 5.556v29.672h1.317v-.687c0-1.23 1.006-2.23 2.243-2.23 1.237 0 2.243 1 2.243 2.23v.687h3.078A2.636 2.636 0 0 1 72 45.853Zm-8.33-2.625h.736v-.687a.372.372 0 0 0-.368-.366c-.2 0-.368.167-.368.366v.687Zm-1.875 2.051v-.188h-7.12v.188a.37.37 0 0 0 .368.363.94.94 0 0 1 .663.273.929.929 0 0 1-.663 1.59 2.237 2.237 0 0 1-2.242-2.226v-.188h-7.12v.188a.37.37 0 0 0 .367.363.94.94 0 0 1 .663.273.929.929 0 0 1-.663 1.59 2.237 2.237 0 0 1-2.242-2.226v-.188h-3.078a.77.77 0 0 0-.543.223.76.76 0 0 0-.224.539v3.361h30.164v-3.361a.77.77 0 0 0-.767-.762H63.67v.188a.37.37 0 0 0 .369.363.94.94 0 0 1 .662.273.928.928 0 0 1 0 1.317.94.94 0 0 1-.662.273 2.237 2.237 0 0 1-2.243-2.226Zm-15.378-2.738a.372.372 0 0 0-.368-.366c-.2 0-.369.167-.369.366v.687h.737v-.687Zm8.995 0a.372.372 0 0 0-.369-.366c-.2 0-.368.167-.368.366v.687h.737v-.687ZM35.959 9.863c.462.726 1.018 1.468 1.695 1.468h6.402c.534 0 .845-.446 1.383-1.392l.044-.076h-9.524Zm-9.418 0c-.522 0-1.027.109-1.495.315.143.377.216.776.216 1.18v.979c3.558 1.355 6.091 4.783 6.091 8.79v8.378c0 .736.603 1.335 1.344 1.335h1.135a.94.94 0 0 1 .663.273.928.928 0 0 1 0 1.317.94.94 0 0 1-.663.273h-7.88a4.107 4.107 0 0 1-3.13 3.4v28.633h15.265V45.853a2.636 2.636 0 0 1 2.64-2.625h3.079v-.687c0-1.23 1.006-2.23 2.243-2.23 1.236 0 2.242 1 2.242 2.23v.687h4.51v-.687c0-1.23 1.006-2.23 2.242-2.23 1.237 0 2.243 1 2.243 2.23v.687h1.318V13.556c0-2.036-1.669-3.693-3.72-3.693h-6.721c-.332 0-.595.164-.804.501-.095.151-.188.316-.288.492-.56.986-1.328 2.338-3.015 2.338h-6.402c-1.841 0-2.852-1.638-3.52-2.721l-.068-.11c-.208-.336-.471-.5-.803-.5H26.54Zm-6.16 1.973a9.55 9.55 0 0 1 3.007 0v-.479a1.5 1.5 0 0 0-1.503-1.494 1.5 1.5 0 0 0-1.504 1.494v.479Zm-6.39 19.004h15.783a3.162 3.162 0 0 1-.295-1.335v-8.378c0-4.162-3.407-7.548-7.594-7.548-4.188 0-7.599 3.386-7.599 7.548v8.378c0 .476-.106.928-.295 1.335Zm7.894 3.508c1.03 0 1.898-.699 2.155-1.645h-4.315a2.24 2.24 0 0 0 2.16 1.645Zm4.656 37.79h11.66a2.599 2.599 0 0 1-.114-.763v-4.776H22.822v1.841c0 2.039 1.668 3.697 3.72 3.697Zm43.585-.763V51.077H39.96v20.298a.76.76 0 0 0 .225.539.77.77 0 0 0 .542.223h28.631a.77.77 0 0 0 .542-.223.76.76 0 0 0 .225-.54Zm-2.741-17.31v15.084a.928.928 0 0 1-.275.659.94.94 0 0 1-.662.273h-22.81a.94.94 0 0 1-.662-.273.929.929 0 0 1-.274-.659V54.065c0-.247.098-.484.274-.659a.94.94 0 0 1 .663-.273h22.809a.94.94 0 0 1 .663.273.928.928 0 0 1 .274.659Zm-1.874.931h-3.826v3.166h3.826v-3.166ZM50.28 63.19h3.826v-3.166H50.28v3.166Zm-1.874-3.166h-3.83v3.166h3.83v-3.166Zm5.7-5.028H50.28v3.165h3.826v-3.165Zm1.874 3.165h3.83v-3.165h-3.83v3.165Zm-5.7 6.892v3.165h3.826v-3.165H50.28Zm5.7 3.165h3.83v-3.165h-3.83v3.165Zm3.83-5.028v-3.166h-3.83v3.166h3.83Zm1.874 0h3.827v-3.166h-3.827v3.166Zm-17.108-8.194v3.166h3.83v-3.166h-3.83Zm0 13.222h3.83v-3.165h-3.83v3.165Zm20.935 0v-3.165h-3.827v3.165h3.827Z" fill="url(#a)"/><defs><linearGradient id="a" x1="12.308" y1="47.341" x2="57.888" y2="47.341" gradientUnits="userSpaceOnUse"><stop stop-color="#374BA8"/><stop offset="1" stop-color="#2FB7F0"/></linearGradient></defs></svg>