<svg width="82" height="82" fill="none" xmlns="http://www.w3.org/2000/svg"><path d="M56.274 32.59V13.652a5.493 5.493 0 0 0-5.485-5.486H13.486A5.492 5.492 0 0 0 8 13.653v29.623a5.492 5.492 0 0 0 5.486 5.485h2.194v4.52a3.13 3.13 0 0 0 5.131 2.438l8.429-6.958h3.371A20.846 20.846 0 1 0 56.274 32.59ZM28.846 46.567c-.255 0-.503.089-.7.251l-8.736 7.21a.907.907 0 0 1-.987.13.951.951 0 0 1-.549-.879v-5.615a1.097 1.097 0 0 0-1.097-1.097h-3.291a3.291 3.291 0 0 1-3.292-3.291V13.653a3.292 3.292 0 0 1 3.292-3.292h37.303a3.291 3.291 0 0 1 3.291 3.292V32.36c-.365-.02-.726-.056-1.097-.056a20.87 20.87 0 0 0-19.764 14.263h-4.373Zm24.137 25.235A18.651 18.651 0 1 1 71.634 53.15a18.672 18.672 0 0 1-18.651 18.652Z" fill="url(#a)"/><path d="M52.983 36.693A16.457 16.457 0 1 0 69.44 53.15a16.476 16.476 0 0 0-16.457-16.457Zm0 30.72A14.262 14.262 0 1 1 67.245 53.15a14.28 14.28 0 0 1-14.263 14.263Zm-38.4-46.08H49.69a1.097 1.097 0 1 0 0-2.195H14.583a1.097 1.097 0 0 0 0 2.195Zm0 8.777h30.72a1.097 1.097 0 1 0 0-2.194h-30.72a1.097 1.097 0 0 0 0 2.194Zm17.554 5.486H14.582a1.097 1.097 0 0 0 0 2.194h17.555a1.097 1.097 0 1 0 0-2.194Z" fill="url(#b)"/><path d="M52.983 44.373a1.097 1.097 0 0 0 1.097-1.098v-1.097a1.097 1.097 0 0 0-2.194 0v1.097a1.097 1.097 0 0 0 1.097 1.098ZM46 44.616a1.097 1.097 0 0 0-1.55 1.551l.775.776a1.098 1.098 0 0 0 1.551-1.551L46 44.616Zm-2.892 7.437h-1.097a1.097 1.097 0 0 0 0 2.194h1.097a1.097 1.097 0 0 0 0-2.194Zm2.117 7.303-.776.776A1.096 1.096 0 1 0 46 61.683l.776-.776a1.097 1.097 0 0 0-1.551-1.55Zm7.758 2.57a1.097 1.097 0 0 0-1.097 1.098v1.097a1.097 1.097 0 0 0 2.194 0v-1.097a1.097 1.097 0 0 0-1.097-1.097Zm7.758-2.57a1.097 1.097 0 0 0-1.552 1.551l.776.776a1.097 1.097 0 0 0 1.551-1.551l-.775-.776Zm1.019-6.206a1.097 1.097 0 0 0 1.097 1.097h1.097a1.097 1.097 0 0 0 0-2.194h-1.097a1.097 1.097 0 0 0-1.097 1.097Zm-1.795-5.885c.29 0 .57-.116.776-.322l.775-.776a1.097 1.097 0 0 0-1.551-1.55l-.776.775a1.097 1.097 0 0 0 .776 1.873Zm-4.298 6-1.587-.793v-4.808a1.097 1.097 0 0 0-2.194 0v5.486a1.097 1.097 0 0 0 .606.987l2.195 1.097a1.097 1.097 0 1 0 .98-1.964v-.005Z" fill="url(#c)"/><defs><linearGradient id="a" x1="11.456" y1="47.421" x2="59.084" y2="47.421" gradientUnits="userSpaceOnUse"><stop stop-color="#374BA8"/><stop offset="1" stop-color="#2FB7F0"/></linearGradient><linearGradient id="b" x1="16.423" y1="49.222" x2="56.906" y2="49.222" gradientUnits="userSpaceOnUse"><stop stop-color="#374BA8"/><stop offset="1" stop-color="#2FB7F0"/></linearGradient><linearGradient id="c" x1="42.181" y1="55.469" x2="59.645" y2="55.469" gradientUnits="userSpaceOnUse"><stop stop-color="#374BA8"/><stop offset="1" stop-color="#2FB7F0"/></linearGradient></defs></svg>