<svg width="121" height="25" viewBox="0 0 121 25" fill="none" xmlns="http://www.w3.org/2000/svg">
<path d="M15 4.5625C13.5312 3.65625 11.8438 3.125 10 3.125V4.5625H15Z" fill="#ED4C5C"/>
<path d="M10 6H16.75C16.2187 5.46875 15.625 4.96875 15 4.5625H10V6Z" fill="white"/>
<path d="M10 7.4375H17.9062C17.5625 6.90625 17.1875 6.4375 16.7813 6H10V7.4375Z" fill="#ED4C5C"/>
<path d="M10 8.875H18.6562C18.4375 8.375 18.1875 7.875 17.9062 7.4375H10V8.875Z" fill="white"/>
<path d="M10 10.3125H19.125C19 9.8125 18.8438 9.34375 18.6562 8.875H10V10.3125Z" fill="#ED4C5C"/>
<path d="M10 11.7813H19.3438C19.3125 11.2813 19.2187 10.8125 19.125 10.3438H10V11.7813Z" fill="white"/>
<path d="M19.3438 11.7812H10V12.5H0.625C0.625 12.75 0.625 12.9687 0.65625 13.2187H19.3438C19.375 12.9687 19.375 12.75 19.375 12.5C19.375 12.25 19.375 12 19.3438 11.7812Z" fill="#ED4C5C"/>
<path d="M0.875 14.6563H19.125C19.25 14.1875 19.3125 13.7188 19.3438 13.2188H0.65625C0.6875 13.6875 0.75 14.1875 0.875 14.6563Z" fill="white"/>
<path d="M1.34375 16.0937H18.6562C18.8438 15.625 19 15.1563 19.125 14.6562H0.875C1 15.1563 1.15625 15.625 1.34375 16.0937Z" fill="#ED4C5C"/>
<path d="M2.09375 17.5312H17.9062C18.1875 17.0625 18.4375 16.5938 18.6562 16.0938H1.34375C1.5625 16.5938 1.8125 17.0625 2.09375 17.5312Z" fill="white"/>
<path d="M3.21875 18.9688H16.7812C17.1875 18.5313 17.5938 18.0312 17.9062 17.5312H2.09375C2.40625 18.0625 2.8125 18.5313 3.21875 18.9688Z" fill="#ED4C5C"/>
<path d="M4.96875 20.4062H15.0312C15.6875 20 16.25 19.5 16.7812 18.9688H3.21875C3.75 19.5312 4.34375 20 4.96875 20.4062Z" fill="white"/>
<path d="M10 21.875C11.8438 21.875 13.5625 21.3438 15.0312 20.4062H4.96875C6.4375 21.3438 8.15625 21.875 10 21.875Z" fill="#ED4C5C"/>
<path d="M5 4.5625C4.34375 4.96875 3.75 5.46875 3.21875 6C2.78125 6.4375 2.40625 6.9375 2.09375 7.4375C1.8125 7.90625 1.53125 8.375 1.34375 8.875C1.15625 9.34375 1 9.8125 0.875 10.3125C0.75 10.7812 0.6875 11.25 0.65625 11.75C0.625 12 0.625 12.25 0.625 12.5H10V3.125C8.15625 3.125 6.46875 3.65625 5 4.5625Z" fill="#428BC1"/>
<path d="M7.8125 3.4375L7.96875 3.90625H8.4375L8.0625 4.21875L8.1875 4.6875L7.8125 4.40625L7.4375 4.6875L7.5625 4.21875L7.1875 3.90625H7.65625L7.8125 3.4375ZM9.0625 5.3125L9.21875 5.78125H9.6875L9.3125 6.09375L9.4375 6.5625L9.0625 6.28125L8.6875 6.5625L8.8125 6.09375L8.4375 5.78125H8.90625L9.0625 5.3125ZM6.5625 5.3125L6.71875 5.78125H7.1875L6.8125 6.09375L6.9375 6.5625L6.5625 6.28125L6.1875 6.5625L6.3125 6.09375L5.9375 5.78125H6.40625L6.5625 5.3125ZM7.8125 7.1875L7.96875 7.65625H8.4375L8.0625 7.96875L8.1875 8.4375L7.8125 8.15625L7.4375 8.4375L7.5625 7.96875L7.1875 7.65625H7.65625L7.8125 7.1875ZM5.3125 7.1875L5.46875 7.65625H5.9375L5.5625 7.96875L5.6875 8.4375L5.3125 8.15625L4.9375 8.4375L5.0625 7.96875L4.6875 7.65625H5.15625L5.3125 7.1875ZM2.8125 7.1875L2.96875 7.65625H3.4375L3.0625 7.96875L3.1875 8.4375L2.8125 8.15625L2.4375 8.4375L2.5625 7.96875L2.1875 7.65625H2.65625L2.8125 7.1875ZM9.0625 9.0625L9.21875 9.53125H9.6875L9.3125 9.84375L9.4375 10.3125L9.0625 10.0312L8.6875 10.3125L8.8125 9.84375L8.4375 9.53125H8.90625L9.0625 9.0625ZM6.5625 9.0625L6.71875 9.53125H7.1875L6.8125 9.84375L6.9375 10.3125L6.5625 10.0312L6.1875 10.3125L6.3125 9.84375L5.9375 9.53125H6.40625L6.5625 9.0625ZM4.0625 9.0625L4.21875 9.53125H4.6875L4.3125 9.84375L4.4375 10.3125L4.0625 10.0312L3.6875 10.3125L3.8125 9.84375L3.4375 9.53125H3.90625L4.0625 9.0625ZM7.8125 10.9375L7.96875 11.4062H8.4375L8.0625 11.7188L8.1875 12.1875L7.8125 11.9062L7.4375 12.1875L7.5625 11.7188L7.1875 11.4062H7.65625L7.8125 10.9375ZM5.3125 10.9375L5.46875 11.4062H5.9375L5.5625 11.7188L5.6875 12.1875L5.3125 11.9062L4.9375 12.1875L5.0625 11.7188L4.6875 11.4062H5.15625L5.3125 10.9375ZM2.8125 10.9375L2.96875 11.4062H3.4375L3.0625 11.7188L3.1875 12.1875L2.8125 11.9062L2.4375 12.1875L2.5625 11.7188L2.1875 11.4062H2.65625L2.8125 10.9375ZM3.6875 6.5625L4.0625 6.28125L4.4375 6.5625L4.28125 6.09375L4.65625 5.78125H4.1875L4.0625 5.3125L3.90625 5.78125H3.46875L3.84375 6.0625L3.6875 6.5625ZM1.1875 10.3125L1.5625 10.0312L1.9375 10.3125L1.78125 9.84375L2.15625 9.53125H1.71875L1.5625 9.0625L1.40625 9.53125H1.09375C1.09375 9.5625 1.0625 9.59375 1.0625 9.625L1.3125 9.8125L1.1875 10.3125Z" fill="white"/>
<path d="M38.188 17.884V19H29.602V6.22H38.026V7.336H30.862V11.944H37.108V13.006H30.862V17.884H38.188ZM48.1149 19H46.8909V13.762C46.8909 12.658 46.7289 11.854 46.4049 11.35C46.0809 10.834 45.5709 10.576 44.8749 10.576C44.3949 10.576 43.9209 10.696 43.4529 10.936C42.9849 11.164 42.5709 11.482 42.2109 11.89C41.8629 12.286 41.6109 12.742 41.4549 13.258V19H40.2309V9.622H41.3469V11.746C41.5989 11.29 41.9289 10.894 42.3369 10.558C42.7449 10.21 43.2069 9.94 43.7229 9.748C44.2389 9.556 44.7729 9.46 45.3249 9.46C45.8409 9.46 46.2789 9.556 46.6389 9.748C46.9989 9.94 47.2869 10.216 47.5029 10.576C47.7189 10.924 47.8749 11.35 47.9709 11.854C48.0669 12.346 48.1149 12.898 48.1149 13.51V19ZM54.487 19.126C53.851 19.126 53.263 18.994 52.723 18.73C52.183 18.466 51.715 18.112 51.319 17.668C50.935 17.212 50.635 16.696 50.419 16.12C50.203 15.544 50.095 14.95 50.095 14.338C50.095 13.678 50.197 13.06 50.401 12.484C50.617 11.896 50.917 11.374 51.301 10.918C51.697 10.462 52.159 10.108 52.687 9.856C53.215 9.592 53.803 9.46 54.451 9.46C55.255 9.46 55.951 9.664 56.539 10.072C57.139 10.48 57.643 10.984 58.051 11.584V9.622H59.149V19.036C59.149 19.9 58.939 20.626 58.519 21.214C58.111 21.814 57.553 22.264 56.845 22.564C56.149 22.864 55.387 23.014 54.559 23.014C53.491 23.014 52.627 22.822 51.967 22.438C51.307 22.054 50.767 21.538 50.347 20.89L51.103 20.296C51.475 20.884 51.967 21.322 52.579 21.61C53.203 21.898 53.863 22.042 54.559 22.042C55.171 22.042 55.729 21.928 56.233 21.7C56.749 21.484 57.157 21.154 57.457 20.71C57.769 20.266 57.925 19.708 57.925 19.036V17.182C57.565 17.77 57.073 18.244 56.449 18.604C55.825 18.952 55.171 19.126 54.487 19.126ZM54.829 18.1C55.201 18.1 55.555 18.034 55.891 17.902C56.239 17.77 56.557 17.596 56.845 17.38C57.133 17.152 57.373 16.9 57.565 16.624C57.757 16.348 57.877 16.066 57.925 15.778V12.88C57.745 12.424 57.487 12.022 57.151 11.674C56.815 11.314 56.431 11.038 55.999 10.846C55.579 10.642 55.141 10.54 54.685 10.54C54.157 10.54 53.683 10.654 53.263 10.882C52.855 11.098 52.507 11.392 52.219 11.764C51.943 12.124 51.727 12.532 51.571 12.988C51.415 13.444 51.337 13.9 51.337 14.356C51.337 14.86 51.427 15.34 51.607 15.796C51.787 16.24 52.033 16.642 52.345 17.002C52.669 17.35 53.041 17.62 53.461 17.812C53.893 18.004 54.349 18.1 54.829 18.1ZM61.906 5.86H63.13V16.876C63.13 17.344 63.214 17.65 63.382 17.794C63.55 17.938 63.754 18.01 63.994 18.01C64.21 18.01 64.426 17.986 64.642 17.938C64.858 17.89 65.044 17.842 65.2 17.794L65.416 18.784C65.188 18.88 64.906 18.958 64.57 19.018C64.246 19.078 63.964 19.108 63.724 19.108C63.172 19.108 62.728 18.946 62.392 18.622C62.068 18.298 61.906 17.854 61.906 17.29V5.86ZM66.7563 19V9.622H67.9803V19H66.7563ZM66.7563 7.66V5.86H67.9803V7.66H66.7563ZM73.7542 19.18C72.9862 19.18 72.2722 19.054 71.6122 18.802C70.9522 18.55 70.3822 18.166 69.9022 17.65L70.4062 16.786C70.9342 17.278 71.4622 17.638 71.9902 17.866C72.5302 18.082 73.1002 18.19 73.7002 18.19C74.4322 18.19 75.0262 18.046 75.4822 17.758C75.9382 17.458 76.1662 17.032 76.1662 16.48C76.1662 16.108 76.0522 15.826 75.8242 15.634C75.6082 15.43 75.2902 15.268 74.8702 15.148C74.4622 15.016 73.9702 14.878 73.3942 14.734C72.7462 14.554 72.2002 14.368 71.7562 14.176C71.3242 13.972 70.9942 13.72 70.7662 13.42C70.5502 13.108 70.4422 12.706 70.4422 12.214C70.4422 11.602 70.5922 11.098 70.8922 10.702C71.2042 10.294 71.6242 9.988 72.1522 9.784C72.6922 9.568 73.2922 9.46 73.9522 9.46C74.6722 9.46 75.3082 9.574 75.8602 9.802C76.4122 10.03 76.8622 10.348 77.2102 10.756L76.6162 11.584C76.2802 11.2 75.8782 10.918 75.4102 10.738C74.9542 10.546 74.4442 10.45 73.8802 10.45C73.4962 10.45 73.1302 10.504 72.7822 10.612C72.4342 10.708 72.1462 10.876 71.9182 11.116C71.7022 11.344 71.5942 11.662 71.5942 12.07C71.5942 12.406 71.6782 12.67 71.8462 12.862C72.0142 13.042 72.2662 13.198 72.6022 13.33C72.9382 13.45 73.3522 13.582 73.8442 13.726C74.5522 13.918 75.1702 14.116 75.6982 14.32C76.2262 14.512 76.6342 14.764 76.9222 15.076C77.2102 15.388 77.3542 15.826 77.3542 16.39C77.3542 17.266 77.0242 17.95 76.3642 18.442C75.7042 18.934 74.8342 19.18 73.7542 19.18ZM87.2613 19H86.0373V13.762C86.0373 12.706 85.8513 11.914 85.4793 11.386C85.1073 10.846 84.5733 10.576 83.8773 10.576C83.4213 10.576 82.9653 10.696 82.5093 10.936C82.0653 11.164 81.6693 11.482 81.3213 11.89C80.9853 12.286 80.7453 12.742 80.6013 13.258V19H79.3773V5.86H80.6013V11.746C80.9733 11.05 81.4893 10.498 82.1493 10.09C82.8213 9.67 83.5353 9.46 84.2913 9.46C84.8313 9.46 85.2873 9.556 85.6593 9.748C86.0433 9.94 86.3493 10.222 86.5773 10.594C86.8173 10.954 86.9913 11.38 87.0993 11.872C87.2073 12.352 87.2613 12.898 87.2613 13.51V19Z" fill="#292929"/>
<path d="M114.59 8.50015L103.41 8.50015C103.212 8.50098 103.019 8.56044 102.855 8.671C102.691 8.78156 102.564 8.93827 102.489 9.1213C102.414 9.30433 102.395 9.50547 102.434 9.69928C102.474 9.8931 102.57 10.0709 102.71 10.2101L108.29 15.7901C108.383 15.8839 108.494 15.9583 108.616 16.009C108.737 16.0598 108.868 16.0859 109 16.0859C109.132 16.0859 109.263 16.0598 109.385 16.009C109.507 15.9583 109.617 15.8839 109.71 15.7901L115.29 10.2101C115.431 10.0709 115.527 9.8931 115.566 9.69928C115.605 9.50547 115.586 9.30433 115.511 9.1213C115.436 8.93827 115.309 8.78156 115.145 8.671C114.981 8.56044 114.788 8.50098 114.59 8.50015Z" fill="#292929"/>
</svg>
