<svg width="39" height="39" viewBox="0 0 39 39" fill="none" xmlns="http://www.w3.org/2000/svg">
<path d="M19.4997 31.9827C17.2174 31.9827 15.3672 30.1325 15.3672 27.8501V24.5957H23.6324V27.8501C23.6323 30.1325 21.7821 31.9827 19.4997 31.9827Z" fill="#FEC165"/>
<path d="M19.5 20.275C19.3485 20.275 19.2032 20.2149 19.096 20.1077C18.9889 20.0006 18.9287 19.8553 18.9287 19.7038V0.571289C18.9287 0.419774 18.9889 0.274464 19.096 0.167327C19.2032 0.0601892 19.3485 0 19.5 0C19.6515 0 19.7968 0.0601892 19.904 0.167327C20.0111 0.274464 20.0713 0.419774 20.0713 0.571289V19.7038C20.0713 19.8553 20.0111 20.0006 19.904 20.1077C19.7968 20.2149 19.6515 20.275 19.5 20.275Z" fill="#465A61"/>
<path d="M22.232 17.1311H16.7676V11.6304C16.7676 10.8557 17.3956 10.2275 18.1704 10.2275H20.8292C21.604 10.2275 22.2321 10.8556 22.2321 11.6304V17.1311H22.232Z" fill="#596C76"/>
<path d="M22.2323 13.5598V13.6794L17.9921 13.3223C12.5921 14.0579 8.43066 18.6871 8.43066 24.289V27.5275C8.43066 27.9482 8.77169 28.2892 9.19238 28.2892H29.8078C30.2285 28.2892 30.5695 27.9482 30.5695 27.5275V24.289C30.5696 19.1186 27.0244 14.7764 22.2323 13.5598Z" fill="#7A8C98"/>
<path d="M19.4999 39.0001C19.3484 39.0001 19.2031 38.9399 19.096 38.8328C18.9888 38.7257 18.9286 38.5803 18.9286 38.4288V34.9977C18.9286 34.8462 18.9888 34.7008 19.096 34.5937C19.2031 34.4866 19.3484 34.4264 19.4999 34.4264C19.6514 34.4264 19.7968 34.4866 19.9039 34.5937C20.011 34.7008 20.0712 34.8462 20.0712 34.9977V38.4288C20.0712 38.5803 20.011 38.7257 19.9039 38.8328C19.7968 38.9399 19.6514 39.0001 19.4999 39.0001ZM28.0838 35.7186C28.0087 35.7187 27.9344 35.7039 27.865 35.6752C27.7956 35.6464 27.7327 35.6042 27.6797 35.5511L25.2559 33.1248C25.1512 33.0171 25.0932 32.8726 25.0943 32.7224C25.0954 32.5723 25.1556 32.4286 25.2618 32.3224C25.368 32.2163 25.5118 32.1563 25.6619 32.1553C25.8121 32.1543 25.9566 32.2125 26.0642 32.3173L28.488 34.7435C28.5678 34.8234 28.6221 34.9252 28.6441 35.036C28.6661 35.1468 28.6547 35.2616 28.6115 35.366C28.5682 35.4703 28.495 35.5595 28.4011 35.6223C28.3072 35.685 28.1968 35.7185 28.0838 35.7186ZM10.916 35.7186C10.8031 35.7186 10.6926 35.6851 10.5987 35.6223C10.5048 35.5596 10.4315 35.4704 10.3883 35.366C10.345 35.2617 10.3337 35.1468 10.3557 35.036C10.3777 34.9252 10.432 34.8234 10.5119 34.7435L12.9357 32.3173C13.0433 32.2125 13.1878 32.1543 13.3379 32.1553C13.4881 32.1563 13.6318 32.2163 13.7381 32.3224C13.8443 32.4286 13.9045 32.5723 13.9056 32.7224C13.9067 32.8726 13.8487 33.0171 13.744 33.1248L11.3202 35.5511C11.2672 35.6042 11.2042 35.6464 11.1349 35.6752C11.0655 35.7039 10.9911 35.7187 10.916 35.7186Z" fill="#FDB441"/>
<path d="M19.4998 13.2197C18.987 13.2197 18.4826 13.2554 17.9883 13.3229C23.3866 14.0601 27.5463 18.6884 27.5463 24.2891V27.5275C27.5463 27.9482 27.2052 28.2893 26.7845 28.2893H29.8074C30.2281 28.2893 30.5691 27.9482 30.5691 27.5275V24.2891C30.5692 18.1756 25.6132 13.2197 19.4998 13.2197Z" fill="#596C76"/>
</svg>
