<svg width="488" height="156" viewBox="0 0 488 156" fill="none" xmlns="http://www.w3.org/2000/svg">
<g clip-path="url(#clip0_536_9853)">
<path d="M243.208 83.7647C265.054 83.7647 282.763 66.055 282.763 44.2091C282.763 22.3632 265.054 4.65356 243.208 4.65356C221.362 4.65356 203.652 22.3632 203.652 44.2091C203.652 66.055 221.362 83.7647 243.208 83.7647Z" fill="#32BA7C"/>
<path d="M233.102 62.0529L253.441 82.3922C270.286 77.9001 282.764 62.552 282.764 44.2092V43.0862L266.792 28.3621L233.102 62.0529Z" fill="#0AA06E"/>
<path d="M244.206 53.0685C245.953 54.8155 245.953 57.8102 244.206 59.5571L240.587 63.1758C238.84 64.9227 235.846 64.9227 234.099 63.1758L218.252 47.2038C216.505 45.4569 216.505 42.4622 218.252 40.7152L221.87 37.0966C223.617 35.3496 226.612 35.3496 228.359 37.0966L244.206 53.0685Z" fill="white"/>
<path d="M258.055 25.4921C259.802 23.7452 262.797 23.7452 264.544 25.4921L268.162 29.1107C269.909 30.8577 269.909 33.8524 268.162 35.5993L240.71 62.9264C238.963 64.6733 235.969 64.6733 234.222 62.9264L230.603 59.3077C228.856 57.5608 228.856 54.566 230.603 52.8191L258.055 25.4921Z" fill="white"/>
</g>
<path d="M2.56 142V119.28H12.096C13.12 119.28 14.0587 119.493 14.912 119.92C15.7653 120.347 16.512 120.912 17.152 121.616C17.792 122.32 18.2827 123.109 18.624 123.984C18.9653 124.859 19.136 125.755 19.136 126.672C19.136 127.931 18.848 129.136 18.272 130.288C17.7173 131.419 16.9173 132.336 15.872 133.04C14.848 133.744 13.6533 134.096 12.288 134.096H6.144V142H2.56ZM6.144 130.928H12.064C12.7467 130.928 13.344 130.747 13.856 130.384C14.368 130 14.7627 129.488 15.04 128.848C15.3387 128.208 15.488 127.483 15.488 126.672C15.488 125.84 15.3173 125.104 14.976 124.464C14.6347 123.824 14.1867 123.333 13.632 122.992C13.0987 122.629 12.512 122.448 11.872 122.448H6.144V130.928ZM20.646 137.104C20.646 136.037 20.9447 135.109 21.542 134.32C22.1607 133.509 23.0033 132.891 24.07 132.464C25.1367 132.016 26.374 131.792 27.782 131.792C28.5287 131.792 29.286 131.845 30.054 131.952C30.8433 132.059 31.5367 132.229 32.134 132.464V131.408C32.134 130.235 31.782 129.317 31.078 128.656C30.374 127.995 29.3607 127.664 28.038 127.664C27.0993 127.664 26.214 127.835 25.382 128.176C24.55 128.496 23.6647 128.955 22.726 129.552L21.542 127.184C22.6513 126.437 23.7607 125.883 24.87 125.52C26.0007 125.157 27.1847 124.976 28.422 124.976C30.662 124.976 32.422 125.573 33.702 126.768C35.0033 127.941 35.654 129.616 35.654 131.792V138.032C35.654 138.437 35.718 138.725 35.846 138.896C35.9953 139.067 36.2407 139.163 36.582 139.184V142C36.262 142.064 35.974 142.107 35.718 142.128C35.462 142.149 35.2487 142.16 35.078 142.16C34.3313 142.16 33.766 141.979 33.382 141.616C32.998 141.253 32.774 140.827 32.71 140.336L32.614 139.376C31.8887 140.315 30.9607 141.04 29.83 141.552C28.6993 142.064 27.558 142.32 26.406 142.32C25.2967 142.32 24.3047 142.096 23.43 141.648C22.5553 141.179 21.8727 140.549 21.382 139.76C20.8913 138.971 20.646 138.085 20.646 137.104ZM31.302 138.128C31.558 137.851 31.7607 137.573 31.91 137.296C32.0593 137.019 32.134 136.773 32.134 136.56V134.64C31.5367 134.405 30.9073 134.235 30.246 134.128C29.5847 134 28.934 133.936 28.294 133.936C27.014 133.936 25.9687 134.192 25.158 134.704C24.3687 135.216 23.974 135.92 23.974 136.816C23.974 137.307 24.102 137.776 24.358 138.224C24.6353 138.672 25.0193 139.035 25.51 139.312C26.022 139.589 26.6513 139.728 27.398 139.728C28.166 139.728 28.902 139.579 29.606 139.28C30.31 138.981 30.8753 138.597 31.302 138.128ZM45.8765 142.32C44.4685 142.32 43.1352 142.096 41.8765 141.648C40.6178 141.179 39.5405 140.485 38.6445 139.568L39.9565 137.2C40.9165 138.053 41.8765 138.672 42.8365 139.056C43.8178 139.44 44.7885 139.632 45.7485 139.632C46.7298 139.632 47.5298 139.451 48.1485 139.088C48.7672 138.704 49.0765 138.149 49.0765 137.424C49.0765 136.891 48.9165 136.496 48.5965 136.24C48.2765 135.984 47.8072 135.76 47.1885 135.568C46.5912 135.376 45.8658 135.163 45.0125 134.928C43.8178 134.565 42.8152 134.192 42.0045 133.808C41.1938 133.403 40.5858 132.912 40.1805 132.336C39.7752 131.76 39.5725 131.024 39.5725 130.128C39.5725 129.04 39.8498 128.112 40.4045 127.344C40.9592 126.576 41.7272 125.989 42.7085 125.584C43.7112 125.179 44.8632 124.976 46.1645 124.976C47.3805 124.976 48.5005 125.168 49.5245 125.552C50.5698 125.915 51.4872 126.491 52.2765 127.28L50.7725 129.616C50.0258 128.933 49.2578 128.432 48.4685 128.112C47.7005 127.792 46.8685 127.632 45.9725 127.632C45.4605 127.632 44.9698 127.696 44.5005 127.824C44.0312 127.931 43.6365 128.144 43.3165 128.464C43.0178 128.763 42.8685 129.189 42.8685 129.744C42.8685 130.192 42.9965 130.555 43.2525 130.832C43.5085 131.109 43.8925 131.344 44.4045 131.536C44.9165 131.728 45.5458 131.941 46.2925 132.176C47.5938 132.56 48.7032 132.944 49.6205 133.328C50.5378 133.691 51.2418 134.171 51.7325 134.768C52.2445 135.344 52.5005 136.144 52.5005 137.168C52.5005 138.789 51.8925 140.059 50.6765 140.976C49.4818 141.872 47.8818 142.32 45.8765 142.32ZM61.5953 142.32C60.1873 142.32 58.8539 142.096 57.5953 141.648C56.3366 141.179 55.2593 140.485 54.3633 139.568L55.6753 137.2C56.6353 138.053 57.5953 138.672 58.5553 139.056C59.5366 139.44 60.5073 139.632 61.4673 139.632C62.4486 139.632 63.2486 139.451 63.8673 139.088C64.4859 138.704 64.7953 138.149 64.7953 137.424C64.7953 136.891 64.6353 136.496 64.3153 136.24C63.9953 135.984 63.5259 135.76 62.9073 135.568C62.3099 135.376 61.5846 135.163 60.7313 134.928C59.5366 134.565 58.5339 134.192 57.7233 133.808C56.9126 133.403 56.3046 132.912 55.8993 132.336C55.4939 131.76 55.2913 131.024 55.2913 130.128C55.2913 129.04 55.5686 128.112 56.1233 127.344C56.6779 126.576 57.4459 125.989 58.4273 125.584C59.4299 125.179 60.5819 124.976 61.8833 124.976C63.0993 124.976 64.2193 125.168 65.2433 125.552C66.2886 125.915 67.2059 126.491 67.9953 127.28L66.4913 129.616C65.7446 128.933 64.9766 128.432 64.1873 128.112C63.4193 127.792 62.5873 127.632 61.6913 127.632C61.1793 127.632 60.6886 127.696 60.2193 127.824C59.7499 127.931 59.3553 128.144 59.0353 128.464C58.7366 128.763 58.5873 129.189 58.5873 129.744C58.5873 130.192 58.7153 130.555 58.9713 130.832C59.2273 131.109 59.6113 131.344 60.1233 131.536C60.6353 131.728 61.2646 131.941 62.0113 132.176C63.3126 132.56 64.4219 132.944 65.3393 133.328C66.2566 133.691 66.9606 134.171 67.4513 134.768C67.9633 135.344 68.2193 136.144 68.2193 137.168C68.2193 138.789 67.6113 140.059 66.3953 140.976C65.2006 141.872 63.6006 142.32 61.5953 142.32ZM91.8823 125.264H95.2423L88.2023 142H85.1943L82.1863 134.448L79.1783 142H76.1703L69.0983 125.264H72.4583L77.8343 138.576L80.2023 132.4L77.3223 125.296H80.2983L82.1863 130.512L84.0423 125.296H87.0183L84.1703 132.4L86.5382 138.576L91.8823 125.264ZM104.538 142.32C103.216 142.32 102.032 142.096 100.986 141.648C99.9409 141.179 99.0343 140.539 98.2663 139.728C97.5196 138.917 96.9436 138 96.5383 136.976C96.1329 135.931 95.9303 134.821 95.9303 133.648C95.9303 132.475 96.1329 131.365 96.5383 130.32C96.9436 129.275 97.5196 128.357 98.2663 127.568C99.0343 126.757 99.9409 126.128 100.986 125.68C102.053 125.211 103.237 124.976 104.538 124.976C105.84 124.976 107.013 125.211 108.058 125.68C109.125 126.128 110.032 126.757 110.778 127.568C111.546 128.357 112.133 129.275 112.538 130.32C112.944 131.365 113.146 132.475 113.146 133.648C113.146 134.821 112.944 135.931 112.538 136.976C112.133 138 111.546 138.917 110.778 139.728C110.032 140.539 109.125 141.179 108.058 141.648C107.013 142.096 105.84 142.32 104.538 142.32ZM99.5463 133.68C99.5463 134.747 99.7703 135.707 100.218 136.56C100.666 137.413 101.264 138.085 102.01 138.576C102.757 139.067 103.6 139.312 104.538 139.312C105.456 139.312 106.288 139.067 107.034 138.576C107.802 138.064 108.41 137.381 108.858 136.528C109.306 135.653 109.53 134.693 109.53 133.648C109.53 132.581 109.306 131.621 108.858 130.768C108.41 129.915 107.802 129.243 107.034 128.752C106.288 128.24 105.456 127.984 104.538 127.984C103.6 127.984 102.757 128.24 102.01 128.752C101.264 129.264 100.666 129.947 100.218 130.8C99.7703 131.632 99.5463 132.592 99.5463 133.68ZM125.676 128.304C124.311 128.325 123.095 128.635 122.028 129.232C120.983 129.829 120.236 130.672 119.788 131.76V142H116.268V125.264H119.532V129.008C120.108 127.856 120.866 126.939 121.804 126.256C122.743 125.552 123.735 125.168 124.78 125.104C124.994 125.104 125.164 125.104 125.292 125.104C125.442 125.104 125.57 125.115 125.676 125.136V128.304ZM126.931 133.648C126.931 132.048 127.251 130.597 127.891 129.296C128.552 127.973 129.448 126.928 130.579 126.16C131.71 125.371 133.011 124.976 134.483 124.976C135.763 124.976 136.915 125.307 137.939 125.968C138.984 126.629 139.795 127.451 140.371 128.432V118.64H143.891V138.032C143.891 138.437 143.966 138.725 144.115 138.896C144.264 139.067 144.51 139.163 144.851 139.184V142C144.19 142.107 143.678 142.16 143.315 142.16C142.654 142.16 142.088 141.968 141.619 141.584C141.171 141.2 140.936 140.741 140.915 140.208L140.883 138.96C140.243 140.027 139.379 140.859 138.291 141.456C137.203 142.032 136.072 142.32 134.899 142.32C133.747 142.32 132.68 142.096 131.699 141.648C130.739 141.2 129.896 140.571 129.171 139.76C128.467 138.949 127.912 138.021 127.507 136.976C127.123 135.931 126.931 134.821 126.931 133.648ZM140.371 135.984V131.6C140.136 130.917 139.752 130.309 139.219 129.776C138.707 129.221 138.12 128.784 137.459 128.464C136.819 128.144 136.179 127.984 135.539 127.984C134.792 127.984 134.11 128.144 133.491 128.464C132.894 128.784 132.371 129.211 131.923 129.744C131.496 130.277 131.166 130.885 130.931 131.568C130.696 132.251 130.579 132.965 130.579 133.712C130.579 134.48 130.707 135.205 130.963 135.888C131.219 136.549 131.582 137.147 132.051 137.68C132.542 138.192 133.096 138.597 133.715 138.896C134.355 139.173 135.048 139.312 135.795 139.312C136.264 139.312 136.734 139.227 137.203 139.056C137.694 138.885 138.152 138.651 138.579 138.352C139.027 138.053 139.4 137.701 139.699 137.296C140.019 136.891 140.243 136.453 140.371 135.984ZM163.852 142.32C162.551 142.32 161.367 142.096 160.3 141.648C159.255 141.179 158.348 140.539 157.58 139.728C156.812 138.917 156.215 137.989 155.788 136.944C155.383 135.899 155.18 134.789 155.18 133.616C155.18 132.037 155.532 130.597 156.236 129.296C156.962 127.995 157.964 126.949 159.244 126.16C160.546 125.371 162.082 124.976 163.852 124.976C165.559 124.976 167.042 125.36 168.3 126.128C169.58 126.875 170.519 127.877 171.116 129.136L167.692 130.224C167.308 129.52 166.764 128.976 166.06 128.592C165.378 128.187 164.62 127.984 163.788 127.984C162.85 127.984 161.996 128.229 161.228 128.72C160.482 129.189 159.884 129.851 159.436 130.704C159.01 131.536 158.796 132.507 158.796 133.616C158.796 134.683 159.02 135.653 159.468 136.528C159.916 137.381 160.514 138.064 161.26 138.576C162.028 139.067 162.882 139.312 163.82 139.312C164.396 139.312 164.951 139.216 165.484 139.024C166.039 138.811 166.519 138.533 166.924 138.192C167.33 137.829 167.618 137.435 167.788 137.008L171.244 138.032C170.882 138.864 170.338 139.6 169.612 140.24C168.908 140.88 168.066 141.392 167.084 141.776C166.124 142.139 165.047 142.32 163.852 142.32ZM189.151 142H185.631V132.624C185.631 131.109 185.354 129.979 184.799 129.232C184.245 128.485 183.466 128.112 182.463 128.112C181.845 128.112 181.205 128.283 180.543 128.624C179.882 128.965 179.295 129.435 178.783 130.032C178.271 130.608 177.898 131.28 177.663 132.048V142H174.143V118.64H177.663V128.624C178.303 127.493 179.178 126.608 180.287 125.968C181.397 125.307 182.591 124.976 183.871 124.976C184.917 124.976 185.781 125.157 186.463 125.52C187.146 125.883 187.679 126.384 188.063 127.024C188.469 127.643 188.746 128.368 188.895 129.2C189.066 130.011 189.151 130.875 189.151 131.792V142ZM192.021 137.104C192.021 136.037 192.32 135.109 192.917 134.32C193.536 133.509 194.378 132.891 195.445 132.464C196.512 132.016 197.749 131.792 199.157 131.792C199.904 131.792 200.661 131.845 201.429 131.952C202.218 132.059 202.912 132.229 203.509 132.464V131.408C203.509 130.235 203.157 129.317 202.453 128.656C201.749 127.995 200.736 127.664 199.413 127.664C198.474 127.664 197.589 127.835 196.757 128.176C195.925 128.496 195.04 128.955 194.101 129.552L192.917 127.184C194.026 126.437 195.136 125.883 196.245 125.52C197.376 125.157 198.56 124.976 199.797 124.976C202.037 124.976 203.797 125.573 205.077 126.768C206.378 127.941 207.029 129.616 207.029 131.792V138.032C207.029 138.437 207.093 138.725 207.221 138.896C207.37 139.067 207.616 139.163 207.957 139.184V142C207.637 142.064 207.349 142.107 207.093 142.128C206.837 142.149 206.624 142.16 206.453 142.16C205.706 142.16 205.141 141.979 204.757 141.616C204.373 141.253 204.149 140.827 204.085 140.336L203.989 139.376C203.264 140.315 202.336 141.04 201.205 141.552C200.074 142.064 198.933 142.32 197.781 142.32C196.672 142.32 195.68 142.096 194.805 141.648C193.93 141.179 193.248 140.549 192.757 139.76C192.266 138.971 192.021 138.085 192.021 137.104ZM202.677 138.128C202.933 137.851 203.136 137.573 203.285 137.296C203.434 137.019 203.509 136.773 203.509 136.56V134.64C202.912 134.405 202.282 134.235 201.621 134.128C200.96 134 200.309 133.936 199.669 133.936C198.389 133.936 197.344 134.192 196.533 134.704C195.744 135.216 195.349 135.92 195.349 136.816C195.349 137.307 195.477 137.776 195.733 138.224C196.01 138.672 196.394 139.035 196.885 139.312C197.397 139.589 198.026 139.728 198.773 139.728C199.541 139.728 200.277 139.579 200.981 139.28C201.685 138.981 202.25 138.597 202.677 138.128ZM226.308 142H222.788V132.624C222.788 131.067 222.532 129.925 222.02 129.2C221.529 128.475 220.793 128.112 219.812 128.112C219.129 128.112 218.446 128.283 217.764 128.624C217.102 128.965 216.505 129.435 215.972 130.032C215.438 130.608 215.054 131.28 214.82 132.048V142H211.299V125.264H214.5V128.624C214.926 127.877 215.481 127.237 216.164 126.704C216.868 126.149 217.657 125.723 218.532 125.424C219.406 125.125 220.334 124.976 221.316 124.976C222.318 124.976 223.14 125.157 223.78 125.52C224.441 125.883 224.953 126.384 225.316 127.024C225.7 127.643 225.956 128.368 226.083 129.2C226.233 130.011 226.308 130.875 226.308 131.792V142ZM237.017 142.16C235.887 142.16 234.852 141.936 233.913 141.488C232.975 141.019 232.164 140.389 231.481 139.6C230.82 138.811 230.297 137.904 229.913 136.88C229.551 135.856 229.369 134.779 229.369 133.648C229.369 132.453 229.561 131.333 229.945 130.288C230.329 129.243 230.863 128.325 231.545 127.536C232.249 126.725 233.071 126.096 234.009 125.648C234.948 125.2 235.993 124.976 237.145 124.976C238.489 124.976 239.663 125.296 240.665 125.936C241.689 126.576 242.532 127.408 243.193 128.432V125.264H246.297V141.52C246.297 143.141 245.903 144.517 245.113 145.648C244.345 146.779 243.289 147.643 241.945 148.24C240.601 148.837 239.087 149.136 237.401 149.136C235.545 149.136 234.009 148.816 232.793 148.176C231.577 147.536 230.543 146.661 229.689 145.552L231.673 143.696C232.313 144.592 233.135 145.275 234.137 145.744C235.161 146.213 236.249 146.448 237.401 146.448C238.361 146.448 239.247 146.267 240.057 145.904C240.889 145.563 241.551 145.019 242.041 144.272C242.532 143.547 242.777 142.629 242.777 141.52V138.96C242.18 139.963 241.359 140.752 240.313 141.328C239.268 141.883 238.169 142.16 237.017 142.16ZM238.169 139.312C238.703 139.312 239.215 139.227 239.705 139.056C240.196 138.864 240.644 138.619 241.049 138.32C241.476 138 241.839 137.648 242.137 137.264C242.436 136.859 242.649 136.432 242.777 135.984V131.6C242.5 130.875 242.105 130.245 241.593 129.712C241.081 129.157 240.505 128.731 239.865 128.432C239.225 128.133 238.575 127.984 237.913 127.984C237.145 127.984 236.452 128.155 235.833 128.496C235.236 128.816 234.724 129.253 234.297 129.808C233.871 130.341 233.54 130.949 233.305 131.632C233.071 132.315 232.953 133.019 232.953 133.744C232.953 134.512 233.081 135.227 233.337 135.888C233.615 136.549 233.988 137.147 234.457 137.68C234.927 138.192 235.481 138.597 236.121 138.896C236.761 139.173 237.444 139.312 238.169 139.312ZM258.102 142.32C256.801 142.32 255.617 142.096 254.55 141.648C253.505 141.179 252.598 140.549 251.83 139.76C251.062 138.949 250.465 138.032 250.038 137.008C249.633 135.963 249.43 134.853 249.43 133.68C249.43 132.101 249.793 130.661 250.518 129.36C251.244 128.037 252.257 126.981 253.558 126.192C254.86 125.381 256.385 124.976 258.134 124.976C259.884 124.976 261.388 125.381 262.646 126.192C263.926 126.981 264.918 128.027 265.622 129.328C266.326 130.629 266.678 132.027 266.678 133.52C266.678 133.776 266.668 134.021 266.646 134.256C266.625 134.469 266.604 134.651 266.582 134.8H253.174C253.238 135.781 253.505 136.645 253.974 137.392C254.465 138.117 255.084 138.693 255.83 139.12C256.577 139.525 257.377 139.728 258.23 139.728C259.169 139.728 260.054 139.493 260.886 139.024C261.74 138.555 262.316 137.936 262.614 137.168L265.622 138.032C265.26 138.843 264.705 139.579 263.958 140.24C263.233 140.88 262.369 141.392 261.366 141.776C260.364 142.139 259.276 142.32 258.102 142.32ZM253.078 132.464H263.19C263.126 131.504 262.849 130.661 262.358 129.936C261.889 129.189 261.281 128.613 260.534 128.208C259.809 127.781 258.998 127.568 258.102 127.568C257.228 127.568 256.417 127.781 255.67 128.208C254.945 128.613 254.348 129.189 253.878 129.936C253.409 130.661 253.142 131.504 253.078 132.464ZM268.493 133.648C268.493 132.048 268.814 130.597 269.454 129.296C270.115 127.973 271.011 126.928 272.141 126.16C273.272 125.371 274.574 124.976 276.046 124.976C277.326 124.976 278.478 125.307 279.502 125.968C280.547 126.629 281.358 127.451 281.934 128.432V118.64H285.454V138.032C285.454 138.437 285.528 138.725 285.678 138.896C285.827 139.067 286.072 139.163 286.414 139.184V142C285.752 142.107 285.24 142.16 284.878 142.16C284.216 142.16 283.651 141.968 283.182 141.584C282.734 141.2 282.499 140.741 282.478 140.208L282.446 138.96C281.806 140.027 280.942 140.859 279.854 141.456C278.766 142.032 277.635 142.32 276.462 142.32C275.31 142.32 274.243 142.096 273.262 141.648C272.302 141.2 271.459 140.571 270.734 139.76C270.03 138.949 269.475 138.021 269.07 136.976C268.686 135.931 268.493 134.821 268.493 133.648ZM281.934 135.984V131.6C281.699 130.917 281.315 130.309 280.782 129.776C280.27 129.221 279.683 128.784 279.022 128.464C278.382 128.144 277.742 127.984 277.102 127.984C276.355 127.984 275.672 128.144 275.054 128.464C274.456 128.784 273.934 129.211 273.486 129.744C273.059 130.277 272.728 130.885 272.494 131.568C272.259 132.251 272.141 132.965 272.141 133.712C272.141 134.48 272.27 135.205 272.526 135.888C272.782 136.549 273.144 137.147 273.614 137.68C274.104 138.192 274.659 138.597 275.278 138.896C275.918 139.173 276.611 139.312 277.358 139.312C277.827 139.312 278.296 139.227 278.766 139.056C279.256 138.885 279.715 138.651 280.142 138.352C280.59 138.053 280.963 137.701 281.262 137.296C281.582 136.891 281.806 136.453 281.934 135.984ZM311.719 124.624C311.505 124.389 311.196 124.144 310.791 123.888C310.385 123.611 309.905 123.355 309.351 123.12C308.796 122.885 308.199 122.693 307.559 122.544C306.919 122.395 306.257 122.32 305.575 122.32C304.081 122.32 302.972 122.597 302.247 123.152C301.521 123.707 301.159 124.475 301.159 125.456C301.159 126.181 301.361 126.757 301.767 127.184C302.172 127.589 302.791 127.931 303.623 128.208C304.455 128.485 305.5 128.784 306.759 129.104C308.295 129.467 309.628 129.904 310.759 130.416C311.889 130.907 312.753 131.568 313.351 132.4C313.948 133.232 314.247 134.331 314.247 135.696C314.247 136.848 314.033 137.84 313.607 138.672C313.18 139.504 312.583 140.187 311.815 140.72C311.047 141.232 310.161 141.616 309.159 141.872C308.156 142.107 307.079 142.224 305.927 142.224C304.796 142.224 303.665 142.107 302.535 141.872C301.425 141.637 300.359 141.296 299.335 140.848C298.332 140.379 297.404 139.813 296.551 139.152L298.183 136.08C298.46 136.357 298.855 136.667 299.367 137.008C299.9 137.328 300.508 137.637 301.191 137.936C301.895 138.235 302.652 138.491 303.463 138.704C304.295 138.896 305.137 138.992 305.991 138.992C307.42 138.992 308.508 138.747 309.255 138.256C310.023 137.744 310.407 137.019 310.407 136.08C310.407 135.312 310.161 134.704 309.671 134.256C309.18 133.787 308.465 133.392 307.527 133.072C306.588 132.752 305.468 132.432 304.167 132.112C302.673 131.707 301.425 131.269 300.423 130.8C299.42 130.309 298.663 129.691 298.151 128.944C297.66 128.176 297.415 127.205 297.415 126.032C297.415 124.539 297.777 123.28 298.503 122.256C299.228 121.211 300.209 120.432 301.447 119.92C302.705 119.387 304.113 119.12 305.671 119.12C306.695 119.12 307.665 119.237 308.583 119.472C309.5 119.685 310.353 119.984 311.143 120.368C311.953 120.752 312.689 121.189 313.351 121.68L311.719 124.624ZM317.202 135.504V125.264H320.722V134.8C320.722 136.293 320.989 137.424 321.522 138.192C322.077 138.939 322.877 139.312 323.922 139.312C324.583 139.312 325.223 139.173 325.842 138.896C326.482 138.619 327.058 138.213 327.57 137.68C328.103 137.125 328.53 136.464 328.85 135.696V125.264H332.37V138.032C332.37 138.437 332.445 138.725 332.594 138.896C332.743 139.067 332.989 139.163 333.33 139.184V142C332.967 142.064 332.669 142.107 332.434 142.128C332.199 142.149 331.975 142.16 331.762 142.16C331.122 142.16 330.589 141.989 330.162 141.648C329.735 141.285 329.49 140.827 329.426 140.272L329.362 138.608C328.615 139.824 327.645 140.752 326.45 141.392C325.255 142.011 323.943 142.32 322.514 142.32C320.765 142.32 319.442 141.744 318.546 140.592C317.65 139.44 317.202 137.744 317.202 135.504ZM344.446 142.32C343.145 142.32 341.961 142.096 340.894 141.648C339.849 141.179 338.942 140.539 338.174 139.728C337.406 138.917 336.809 137.989 336.382 136.944C335.977 135.899 335.774 134.789 335.774 133.616C335.774 132.037 336.126 130.597 336.83 129.296C337.555 127.995 338.558 126.949 339.838 126.16C341.139 125.371 342.675 124.976 344.446 124.976C346.153 124.976 347.635 125.36 348.894 126.128C350.174 126.875 351.113 127.877 351.71 129.136L348.286 130.224C347.902 129.52 347.358 128.976 346.654 128.592C345.971 128.187 345.214 127.984 344.382 127.984C343.443 127.984 342.59 128.229 341.822 128.72C341.075 129.189 340.478 129.851 340.03 130.704C339.603 131.536 339.39 132.507 339.39 133.616C339.39 134.683 339.614 135.653 340.062 136.528C340.51 137.381 341.107 138.064 341.854 138.576C342.622 139.067 343.475 139.312 344.414 139.312C344.99 139.312 345.545 139.216 346.078 139.024C346.633 138.811 347.113 138.533 347.518 138.192C347.923 137.829 348.211 137.435 348.382 137.008L351.838 138.032C351.475 138.864 350.931 139.6 350.206 140.24C349.502 140.88 348.659 141.392 347.678 141.776C346.718 142.139 345.641 142.32 344.446 142.32ZM362.165 142.32C360.863 142.32 359.679 142.096 358.613 141.648C357.567 141.179 356.661 140.539 355.893 139.728C355.125 138.917 354.527 137.989 354.101 136.944C353.695 135.899 353.493 134.789 353.493 133.616C353.493 132.037 353.845 130.597 354.549 129.296C355.274 127.995 356.277 126.949 357.557 126.16C358.858 125.371 360.394 124.976 362.165 124.976C363.871 124.976 365.354 125.36 366.613 126.128C367.893 126.875 368.831 127.877 369.429 129.136L366.005 130.224C365.621 129.52 365.077 128.976 364.373 128.592C363.69 128.187 362.933 127.984 362.101 127.984C361.162 127.984 360.309 128.229 359.541 128.72C358.794 129.189 358.197 129.851 357.749 130.704C357.322 131.536 357.109 132.507 357.109 133.616C357.109 134.683 357.333 135.653 357.781 136.528C358.229 137.381 358.826 138.064 359.573 138.576C360.341 139.067 361.194 139.312 362.133 139.312C362.709 139.312 363.263 139.216 363.797 139.024C364.351 138.811 364.831 138.533 365.237 138.192C365.642 137.829 365.93 137.435 366.101 137.008L369.557 138.032C369.194 138.864 368.65 139.6 367.925 140.24C367.221 140.88 366.378 141.392 365.397 141.776C364.437 142.139 363.359 142.32 362.165 142.32ZM379.884 142.32C378.582 142.32 377.398 142.096 376.332 141.648C375.286 141.179 374.38 140.549 373.612 139.76C372.844 138.949 372.246 138.032 371.82 137.008C371.414 135.963 371.212 134.853 371.212 133.68C371.212 132.101 371.574 130.661 372.299 129.36C373.025 128.037 374.038 126.981 375.34 126.192C376.641 125.381 378.166 124.976 379.916 124.976C381.665 124.976 383.169 125.381 384.428 126.192C385.708 126.981 386.7 128.027 387.404 129.328C388.108 130.629 388.46 132.027 388.46 133.52C388.46 133.776 388.449 134.021 388.428 134.256C388.406 134.469 388.385 134.651 388.364 134.8H374.956C375.02 135.781 375.286 136.645 375.756 137.392C376.246 138.117 376.865 138.693 377.612 139.12C378.358 139.525 379.158 139.728 380.012 139.728C380.95 139.728 381.836 139.493 382.668 139.024C383.521 138.555 384.097 137.936 384.396 137.168L387.404 138.032C387.041 138.843 386.486 139.579 385.74 140.24C385.014 140.88 384.15 141.392 383.148 141.776C382.145 142.139 381.057 142.32 379.884 142.32ZM374.86 132.464H384.972C384.908 131.504 384.63 130.661 384.14 129.936C383.67 129.189 383.062 128.613 382.316 128.208C381.59 127.781 380.78 127.568 379.884 127.568C379.009 127.568 378.198 127.781 377.452 128.208C376.726 128.613 376.129 129.189 375.66 129.936C375.19 130.661 374.924 131.504 374.86 132.464ZM397.283 142.32C395.875 142.32 394.541 142.096 393.283 141.648C392.024 141.179 390.947 140.485 390.051 139.568L391.363 137.2C392.323 138.053 393.283 138.672 394.243 139.056C395.224 139.44 396.195 139.632 397.155 139.632C398.136 139.632 398.936 139.451 399.555 139.088C400.173 138.704 400.483 138.149 400.483 137.424C400.483 136.891 400.323 136.496 400.003 136.24C399.683 135.984 399.213 135.76 398.595 135.568C397.997 135.376 397.272 135.163 396.419 134.928C395.224 134.565 394.221 134.192 393.411 133.808C392.6 133.403 391.992 132.912 391.587 132.336C391.181 131.76 390.979 131.024 390.979 130.128C390.979 129.04 391.256 128.112 391.811 127.344C392.365 126.576 393.133 125.989 394.115 125.584C395.117 125.179 396.269 124.976 397.571 124.976C398.787 124.976 399.907 125.168 400.931 125.552C401.976 125.915 402.893 126.491 403.683 127.28L402.179 129.616C401.432 128.933 400.664 128.432 399.875 128.112C399.107 127.792 398.275 127.632 397.379 127.632C396.867 127.632 396.376 127.696 395.907 127.824C395.437 127.931 395.043 128.144 394.723 128.464C394.424 128.763 394.275 129.189 394.275 129.744C394.275 130.192 394.403 130.555 394.659 130.832C394.915 131.109 395.299 131.344 395.811 131.536C396.323 131.728 396.952 131.941 397.699 132.176C399 132.56 400.109 132.944 401.027 133.328C401.944 133.691 402.648 134.171 403.139 134.768C403.651 135.344 403.907 136.144 403.907 137.168C403.907 138.789 403.299 140.059 402.083 140.976C400.888 141.872 399.288 142.32 397.283 142.32ZM413.002 142.32C411.594 142.32 410.26 142.096 409.002 141.648C407.743 141.179 406.666 140.485 405.77 139.568L407.082 137.2C408.042 138.053 409.002 138.672 409.962 139.056C410.943 139.44 411.914 139.632 412.874 139.632C413.855 139.632 414.655 139.451 415.274 139.088C415.892 138.704 416.202 138.149 416.202 137.424C416.202 136.891 416.042 136.496 415.722 136.24C415.402 135.984 414.932 135.76 414.314 135.568C413.716 135.376 412.991 135.163 412.138 134.928C410.943 134.565 409.94 134.192 409.13 133.808C408.319 133.403 407.711 132.912 407.306 132.336C406.9 131.76 406.698 131.024 406.698 130.128C406.698 129.04 406.975 128.112 407.53 127.344C408.084 126.576 408.852 125.989 409.834 125.584C410.836 125.179 411.988 124.976 413.29 124.976C414.506 124.976 415.626 125.168 416.65 125.552C417.695 125.915 418.612 126.491 419.402 127.28L417.898 129.616C417.151 128.933 416.383 128.432 415.594 128.112C414.826 127.792 413.994 127.632 413.098 127.632C412.586 127.632 412.095 127.696 411.626 127.824C411.156 127.931 410.762 128.144 410.442 128.464C410.143 128.763 409.994 129.189 409.994 129.744C409.994 130.192 410.122 130.555 410.378 130.832C410.634 131.109 411.018 131.344 411.53 131.536C412.042 131.728 412.671 131.941 413.418 132.176C414.719 132.56 415.828 132.944 416.746 133.328C417.663 133.691 418.367 134.171 418.858 134.768C419.37 135.344 419.626 136.144 419.626 137.168C419.626 138.789 419.018 140.059 417.802 140.976C416.607 141.872 415.007 142.32 413.002 142.32ZM423.666 142V128.4H421.426V125.68H423.666V125.008C423.666 123.643 423.879 122.459 424.306 121.456C424.754 120.453 425.372 119.685 426.162 119.152C426.972 118.597 427.922 118.32 429.01 118.32C429.692 118.32 430.364 118.416 431.026 118.608C431.687 118.779 432.316 119.024 432.914 119.344L432.146 121.968C431.826 121.755 431.442 121.595 430.994 121.488C430.567 121.36 430.151 121.296 429.746 121.296C428.935 121.296 428.306 121.605 427.858 122.224C427.41 122.843 427.186 123.739 427.186 124.912V125.68H431.474V128.4H427.186V142H423.666ZM433.952 135.504V125.264H437.472V134.8C437.472 136.293 437.739 137.424 438.272 138.192C438.827 138.939 439.627 139.312 440.672 139.312C441.333 139.312 441.973 139.173 442.592 138.896C443.232 138.619 443.808 138.213 444.32 137.68C444.853 137.125 445.28 136.464 445.6 135.696V125.264H449.12V138.032C449.12 138.437 449.195 138.725 449.344 138.896C449.493 139.067 449.739 139.163 450.08 139.184V142C449.717 142.064 449.419 142.107 449.184 142.128C448.949 142.149 448.725 142.16 448.512 142.16C447.872 142.16 447.339 141.989 446.912 141.648C446.485 141.285 446.24 140.827 446.176 140.272L446.112 138.608C445.365 139.824 444.395 140.752 443.2 141.392C442.005 142.011 440.693 142.32 439.264 142.32C437.515 142.32 436.192 141.744 435.296 140.592C434.4 139.44 433.952 137.744 433.952 135.504ZM453.644 118.64H457.164V137.168C457.164 138.021 457.292 138.565 457.548 138.8C457.804 139.035 458.124 139.152 458.508 139.152C458.935 139.152 459.329 139.109 459.692 139.024C460.076 138.939 460.407 138.832 460.684 138.704L461.196 141.488C460.684 141.701 460.076 141.883 459.372 142.032C458.668 142.181 458.039 142.256 457.484 142.256C456.289 142.256 455.351 141.925 454.668 141.264C453.985 140.581 453.644 139.643 453.644 138.448V118.64ZM463.269 118.64H466.789V137.168C466.789 138.021 466.917 138.565 467.173 138.8C467.429 139.035 467.749 139.152 468.133 139.152C468.56 139.152 468.954 139.109 469.317 139.024C469.701 138.939 470.032 138.832 470.309 138.704L470.821 141.488C470.309 141.701 469.701 141.883 468.997 142.032C468.293 142.181 467.664 142.256 467.109 142.256C465.914 142.256 464.976 141.925 464.293 141.264C463.61 140.581 463.269 139.643 463.269 138.448V118.64ZM472.719 145.936C473.039 145.979 473.349 146.021 473.647 146.064C473.967 146.128 474.223 146.16 474.415 146.16C474.778 146.16 475.087 146.043 475.343 145.808C475.621 145.595 475.898 145.189 476.175 144.592C476.453 143.995 476.794 143.131 477.199 142L470.319 125.264H473.999L479.119 138.416L483.663 125.264H487.055L479.471 145.872C479.237 146.491 478.895 147.056 478.447 147.568C477.999 148.101 477.445 148.517 476.783 148.816C476.122 149.115 475.343 149.264 474.447 149.264C474.191 149.264 473.925 149.243 473.647 149.2C473.37 149.157 473.061 149.093 472.719 149.008V145.936Z" fill="#20C58F"/>
<defs>
<clipPath id="clip0_536_9853">
<rect width="79.1111" height="79.1111" fill="white" transform="translate(203.652 4.65356)"/>
</clipPath>
</defs>
</svg>
