<svg width="99" height="98" viewBox="0 0 99 98" fill="none" xmlns="http://www.w3.org/2000/svg">
<g clip-path="url(#clip0_536_7980)">
<path fill-rule="evenodd" clip-rule="evenodd" d="M40.161 8.96547C49.245 8.96547 56.6926 16.3939 56.6926 25.4543V37.9691H65.6812V25.4543C65.6814 11.4417 54.2045 0 40.161 0C26.1175 0 14.6406 11.4417 14.6406 25.4543V37.9691H23.6293V25.4543C23.6294 16.3939 31.0771 8.96547 40.161 8.96547Z" fill="#DEDBEE"/>
<path fill-rule="evenodd" clip-rule="evenodd" d="M65.6845 25.4544C65.6845 11.4417 54.2076 5.57405e-06 40.1641 5.57405e-06C37.3655 -0.00184872 34.5858 0.458953 31.9375 1.36378C32.9804 1.23352 34.0304 1.16819 35.0813 1.16816C49.1248 1.16816 60.6017 12.6154 60.6017 26.6225V37.9691H65.6845V25.4544Z" fill="#D2CFE9"/>
<path fill-rule="evenodd" clip-rule="evenodd" d="M13.5607 36.0017C8.25933 36.0017 3.92188 40.3279 3.92188 45.6157V59.9191C3.92188 79.8008 20.2293 96.0661 40.1625 96.0661C46.9433 96.0661 53.3037 94.1825 58.7397 90.9183L76.4032 56.7666V45.6157C76.4032 40.3281 72.0658 36.0017 66.7644 36.0017H13.5607Z" fill="#FDB441"/>
<path fill-rule="evenodd" clip-rule="evenodd" d="M40.162 50.0647C35.8301 50.0647 32.3164 53.5636 32.3164 57.8844C32.3164 60.6736 33.7789 63.1161 35.9757 64.5078L34.329 75.2097C34.3165 75.2916 34.3217 75.3751 34.3445 75.4547C34.3672 75.5343 34.4069 75.6081 34.4608 75.6709C34.5147 75.7337 34.5815 75.7842 34.6568 75.8188C34.732 75.8533 34.8138 75.8712 34.8966 75.8712H45.427C45.5098 75.8712 45.5916 75.8533 45.6668 75.8188C45.742 75.7842 45.8088 75.7337 45.8628 75.6709C45.9167 75.6081 45.9563 75.5343 45.9791 75.4547C46.0018 75.3751 46.0071 75.2916 45.9945 75.2097L44.3478 64.5078C46.5446 63.1161 48.0071 60.6734 48.0071 57.8844C48.0075 53.5636 44.4939 50.0647 40.162 50.0647Z" fill="#002F87"/>
<path fill-rule="evenodd" clip-rule="evenodd" d="M74.3506 56.666C62.9074 56.666 53.6328 65.9165 53.6328 77.3302C53.6328 82.534 55.5607 87.2851 58.738 90.9182C62.5374 95.2556 68.1246 98 74.3506 98C85.7938 98 95.074 88.7438 95.074 77.3302C95.074 66.6096 86.8866 57.7951 76.4017 56.7667C75.7201 56.6991 75.0356 56.6655 74.3506 56.666Z" fill="#002F87"/>
<path fill-rule="evenodd" clip-rule="evenodd" d="M38.875 50.1654C41.8227 51.3111 43.9186 54.2065 43.9186 57.5939C43.9214 58.9324 43.5878 60.2501 42.9484 61.426C42.309 62.602 41.3843 63.5983 40.2592 64.3235L42.0077 75.8712H45.4293C45.5121 75.8712 45.5939 75.8533 45.6691 75.8188C45.7444 75.7842 45.8112 75.7337 45.8651 75.6709C45.919 75.6081 45.9587 75.5343 45.9814 75.4547C46.0042 75.3751 46.0094 75.2916 45.9968 75.2097L44.3502 64.5078C46.5469 63.1161 48.0095 60.6734 48.0095 57.8844C48.0095 53.5638 44.4958 50.0647 40.1639 50.0647C39.727 50.0647 39.2953 50.0982 38.875 50.1654Z" fill="#024C67"/>
<path fill-rule="evenodd" clip-rule="evenodd" d="M95.0773 77.3302C95.0773 66.6096 86.8899 57.7951 76.4051 56.7667C75.7326 56.6997 75.0489 56.666 74.3539 56.666C72.8914 56.666 71.4566 56.8168 70.0781 57.1076C80.535 58.1584 88.7 66.9618 88.7 77.6711C88.7 87.6204 81.6446 95.9263 72.2581 97.8938C72.9473 97.9608 73.6478 98 74.3539 98C85.7972 98 95.0773 88.7438 95.0773 77.3302Z" fill="#002F87"/>
<path fill-rule="evenodd" clip-rule="evenodd" d="M76.4046 45.6157C76.4046 40.3281 72.0672 36.0017 66.7658 36.0017H56.6953C61.9967 36.0017 66.3341 40.3279 66.3341 45.6157V58.2703C67.5278 57.7728 68.783 57.376 70.0777 57.1077C71.4838 56.8128 72.9168 56.6649 74.3535 56.6661C75.0483 56.6661 75.732 56.6996 76.4046 56.7668V45.6157Z" fill="#FE9901"/>
<path d="M74.3518 85.4327C74.1576 85.4328 73.9653 85.3945 73.7858 85.3202C73.6064 85.2459 73.4434 85.137 73.3061 84.9997C73.1687 84.8623 73.0598 84.6993 72.9855 84.5199C72.9112 84.3404 72.873 84.1481 72.873 83.9539V77.3024C72.873 76.9102 73.0288 76.534 73.3061 76.2567C73.5834 75.9794 73.9596 75.8236 74.3518 75.8236C75.7131 75.8236 76.9781 75.2803 77.9144 74.2944C78.8437 73.3156 79.3169 72.0331 79.2466 70.6831C79.1134 68.1422 77.0093 66.111 74.4565 66.0595C74.4224 66.0588 74.3882 66.0584 74.3541 66.0584C71.9135 66.0584 69.8369 67.8467 69.501 70.2571C69.4701 70.4839 69.4543 70.7126 69.4537 70.9415C69.4537 71.3338 69.2979 71.7099 69.0206 71.9872C68.7432 72.2645 68.3671 72.4204 67.9749 72.4204C67.5827 72.4204 67.2066 72.2645 66.9292 71.9872C66.6519 71.7099 66.4961 71.3338 66.4961 70.9415C66.4961 70.5884 66.5214 70.2226 66.5709 69.8547C67.1193 65.921 70.5338 63.0242 74.5168 63.1021C78.611 63.1848 81.9864 66.4469 82.2006 70.5287C82.3135 72.6973 81.5533 74.7576 80.0599 76.3306C78.9245 77.5263 77.4346 78.3306 75.831 78.6395V83.9537C75.8308 84.346 75.6749 84.7221 75.3976 84.9994C75.1202 85.2768 74.744 85.4326 74.3518 85.4327ZM74.3535 91.5644C74.1386 91.5647 73.9262 91.5181 73.7311 91.4279C73.536 91.3377 73.3629 91.206 73.2239 91.0421C73.0849 90.8782 72.9833 90.6859 72.9261 90.4787C72.869 90.2715 72.8577 90.0543 72.8931 89.8423L72.8986 89.8088C72.9303 89.6172 72.9995 89.4337 73.1023 89.2688C73.205 89.1039 73.3393 88.9609 73.4973 88.848C73.6554 88.7351 73.8342 88.6544 74.0235 88.6107C74.2128 88.567 74.4088 88.5611 74.6004 88.5932C74.9873 88.6578 75.3326 88.8733 75.5606 89.1924C75.7885 89.5116 75.8804 89.9082 75.816 90.295L75.8105 90.3285C75.753 90.6735 75.575 90.987 75.3083 91.2133C75.0416 91.4395 74.7033 91.5639 74.3535 91.5644Z" fill="#F4EAFA"/>
</g>
<defs>
<clipPath id="clip0_536_7980">
<rect width="98" height="98" fill="white" transform="translate(0.5)"/>
</clipPath>
</defs>
</svg>
