<svg width="22" height="23" viewBox="0 0 22 23" fill="none" xmlns="http://www.w3.org/2000/svg">
<path fill-rule="evenodd" clip-rule="evenodd" d="M10.3041 0.354226L9.77331 0.409226C7.19793 0.666351 4.60331 1.9946 2.84881 3.95535C0.908684 6.12373 -0.0771912 8.8146 0.0135588 11.6815C0.171684 16.6329 3.57481 20.8252 8.40243 22.0187C9.8238 22.362 11.2992 22.4196 12.743 22.1883C14.1868 21.957 15.5703 21.4413 16.8133 20.6712C19.2578 19.1482 21.0074 16.7272 21.6863 13.9282C21.9228 12.9644 21.9778 12.4735 21.9778 11.3336C21.9778 10.1937 21.9228 9.70285 21.6863 8.73898C20.5973 4.29085 16.9343 1.01835 12.3762 0.421601C11.9857 0.370726 10.5653 0.325351 10.3041 0.354226ZM12.1741 2.48273C13.7186 2.68605 15.1834 3.28838 16.4242 4.23035C16.8766 4.5686 17.7662 5.45823 18.1044 5.9106C18.8758 6.94323 19.4464 8.15735 19.7049 9.31923C19.9992 10.646 19.9992 12.0212 19.7049 13.348C19.1357 15.9069 17.3331 18.1784 14.9433 19.3471C14.0818 19.7687 13.1601 20.0544 12.2112 20.1941C11.6282 20.2835 10.3742 20.2835 9.79118 20.1941C7.11268 19.7871 4.85218 18.3255 3.42906 16.0787C3.07901 15.4983 2.78702 14.8849 2.55731 14.2472C2.2298 13.3113 2.06923 12.3251 2.08293 11.3336C2.08293 9.90498 2.35931 8.68673 2.97118 7.4286C3.43868 6.46885 3.91443 5.8061 4.69406 5.02648C5.38363 4.31123 6.1976 3.72743 7.09618 3.3036C8.6706 2.53451 10.4375 2.24888 12.1741 2.48273ZM10.5969 6.23235C10.2889 6.33273 10.1143 6.50873 10.0291 6.80298C9.97956 6.97073 9.97406 7.35435 9.98231 9.7056C9.99331 12.4144 9.99331 12.4157 10.0731 12.5656C10.1778 12.7576 10.346 12.9073 10.5488 12.9891C10.7303 13.0524 11.2721 13.0524 11.4536 12.9891C11.6564 12.9073 11.8245 12.7576 11.9293 12.5656C12.0091 12.4157 12.0091 12.4144 12.0201 9.7056C12.0311 6.7466 12.0311 6.74385 11.8207 6.49498C11.6502 6.29148 11.4673 6.2241 11.0562 6.2131C10.9028 6.20446 10.749 6.21091 10.5969 6.23235ZM10.7069 14.8124C10.4318 14.9107 10.203 15.1077 10.0648 15.3651C9.96554 15.6117 9.95342 15.8848 10.0304 16.1392C10.1048 16.3384 10.2369 16.5109 10.4098 16.6346C10.5827 16.7583 10.7886 16.8276 11.0012 16.8336C11.4178 16.8336 11.8427 16.5311 11.9719 16.1392C12.049 15.8848 12.0368 15.6117 11.9376 15.3651C11.8237 15.1642 11.6586 14.9972 11.4591 14.8811C11.2996 14.7986 10.8692 14.7587 10.7069 14.8124Z" fill="#838383"/>
</svg>
