<svg width="24" height="25" viewBox="0 0 24 25" fill="none" xmlns="http://www.w3.org/2000/svg">
<path d="M6.44531 10.9814V9.12953C6.44531 6.06472 7.37124 3.57397 12.0009 3.57397C16.6305 3.57397 17.5564 6.06472 17.5564 9.12953V10.9814" stroke="#29387E" stroke-width="1.5" stroke-linecap="round" stroke-linejoin="round"/>
<path d="M12.0023 18.8518C13.2808 18.8518 14.3171 17.8154 14.3171 16.537C14.3171 15.2585 13.2808 14.2222 12.0023 14.2222C10.7239 14.2222 9.6875 15.2585 9.6875 16.537C9.6875 17.8154 10.7239 18.8518 12.0023 18.8518Z" stroke="#29387E" stroke-width="1.5" stroke-linecap="round" stroke-linejoin="round"/>
<path d="M16.6311 22.0926H7.37182C3.66811 22.0926 2.74219 21.1666 2.74219 17.4629V15.6111C2.74219 11.9074 3.66811 10.9814 7.37182 10.9814H16.6311C20.3348 10.9814 21.2607 11.9074 21.2607 15.6111V17.4629C21.2607 21.1666 20.3348 22.0926 16.6311 22.0926Z" stroke="#29387E" stroke-width="1.5" stroke-linecap="round" stroke-linejoin="round"/>
</svg>
