<svg width="133" height="116" viewBox="0 0 133 116" fill="none" xmlns="http://www.w3.org/2000/svg">
<g clip-path="url(#clip0_536_8585)">
<path fill-rule="evenodd" clip-rule="evenodd" d="M63.661 26.2987C72.745 26.2987 80.1926 33.7272 80.1926 42.7876V55.3023H89.1812V42.7876C89.1814 28.7749 77.7045 17.3333 63.661 17.3333C49.6175 17.3333 38.1406 28.7749 38.1406 42.7876V55.3023H47.1293V42.7876C47.1294 33.7272 54.5771 26.2987 63.661 26.2987Z" fill="#DEDBEE"/>
<path fill-rule="evenodd" clip-rule="evenodd" d="M89.1845 42.7876C89.1845 28.7749 77.7076 17.3333 63.6641 17.3333C60.8655 17.3314 58.0858 17.7922 55.4375 18.697C56.4804 18.5668 57.5304 18.5014 58.5813 18.5014C72.6248 18.5014 84.1017 29.9487 84.1017 43.9558V55.3023H89.1845V42.7876Z" fill="#D2CFE9"/>
<path fill-rule="evenodd" clip-rule="evenodd" d="M37.0607 53.335C31.7593 53.335 27.4219 57.6611 27.4219 62.9489V77.2523C27.4219 97.1341 43.7293 113.399 63.6625 113.399C70.4433 113.399 76.8037 111.516 82.2397 108.252L99.9032 74.0999V62.9489C99.9032 57.6613 95.5658 53.335 90.2644 53.335H37.0607Z" fill="#FDB441"/>
<path fill-rule="evenodd" clip-rule="evenodd" d="M63.6659 67.3977C59.334 67.3977 55.8203 70.8966 55.8203 75.2174C55.8203 78.0066 57.2828 80.4491 59.4796 81.8408L57.8329 92.5427C57.8204 92.6246 57.8256 92.7081 57.8484 92.7877C57.8711 92.8673 57.9108 92.9411 57.9647 93.0039C58.0186 93.0668 58.0854 93.1172 58.1607 93.1518C58.2359 93.1863 58.3177 93.2042 58.4005 93.2042H68.9309C69.0137 93.2042 69.0955 93.1863 69.1707 93.1518C69.2459 93.1172 69.3128 93.0668 69.3667 93.0039C69.4206 92.9411 69.4602 92.8673 69.483 92.7877C69.5057 92.7081 69.511 92.6246 69.4984 92.5427L67.8517 81.8408C70.0485 80.4491 71.511 78.0064 71.511 75.2174C71.5114 70.8966 67.9978 67.3977 63.6659 67.3977Z" fill="#002F87"/>
<path fill-rule="evenodd" clip-rule="evenodd" d="M97.8506 73.9993C86.4074 73.9993 77.1328 83.2497 77.1328 94.6635C77.1328 99.8673 79.0607 104.618 82.238 108.251C86.0374 112.589 91.6246 115.333 97.8506 115.333C109.294 115.333 118.574 106.077 118.574 94.6635C118.574 83.9428 110.387 75.1284 99.9017 74.1C99.2201 74.0324 98.5356 73.9988 97.8506 73.9993Z" fill="#002F87"/>
<path fill-rule="evenodd" clip-rule="evenodd" d="M62.375 67.4984C65.3227 68.6441 67.4186 71.5395 67.4186 74.9269C67.4214 76.2654 67.0878 77.5831 66.4484 78.7591C65.809 79.935 64.8843 80.9313 63.7592 81.6565L65.5077 93.2042H68.9293C69.0121 93.2042 69.0939 93.1863 69.1691 93.1518C69.2444 93.1172 69.3112 93.0668 69.3651 93.0039C69.419 92.9411 69.4587 92.8673 69.4814 92.7877C69.5042 92.7081 69.5094 92.6246 69.4968 92.5427L67.8502 81.8408C70.0469 80.4491 71.5095 78.0064 71.5095 75.2174C71.5095 70.8968 67.9958 67.3977 63.6639 67.3977C63.227 67.3977 62.7953 67.4312 62.375 67.4984Z" fill="#024C67"/>
<path fill-rule="evenodd" clip-rule="evenodd" d="M118.577 94.6635C118.577 83.9428 110.39 75.1284 99.9051 74.0999C99.2326 74.033 98.5489 73.9993 97.8539 73.9993C96.3914 73.9993 94.9566 74.1501 93.5781 74.4408C104.035 75.4917 112.2 84.295 112.2 95.0044C112.2 104.954 105.145 113.26 95.7581 115.227C96.4473 115.294 97.1478 115.333 97.8539 115.333C109.297 115.333 118.577 106.077 118.577 94.6635Z" fill="#002F87"/>
<path fill-rule="evenodd" clip-rule="evenodd" d="M99.9046 62.9492C99.9046 57.6616 95.5672 53.3352 90.2658 53.3352H80.1953C85.4967 53.3352 89.8341 57.6614 89.8341 62.9492V75.6038C91.0278 75.1063 92.283 74.7095 93.5777 74.4412C94.9838 74.1463 96.4168 73.9984 97.8535 73.9996C98.5483 73.9996 99.232 74.0331 99.9046 74.1003V62.9492Z" fill="#FE9901"/>
<path d="M90.9977 91.6085C90.8879 91.4183 90.7069 91.2795 90.4948 91.2227C90.2826 91.1659 90.0565 91.1956 89.8663 91.3054L87.8829 92.4507V90.1616C87.8829 89.942 87.7956 89.7313 87.6403 89.576C87.485 89.4206 87.2743 89.3334 87.0547 89.3334C86.835 89.3334 86.6243 89.4206 86.469 89.576C86.3137 89.7313 86.2264 89.942 86.2264 90.1616V92.4507L84.2431 91.3054C84.1489 91.2509 84.0449 91.2155 83.937 91.2012C83.8291 91.1869 83.7195 91.194 83.6143 91.2221C83.5092 91.2502 83.4106 91.2988 83.3243 91.365C83.2379 91.4313 83.1654 91.5139 83.111 91.6081C83.0566 91.7024 83.0213 91.8064 83.0071 91.9143C82.9929 92.0222 83.0001 92.1319 83.0283 92.237C83.0565 92.3421 83.1052 92.4406 83.1715 92.5269C83.2378 92.6132 83.3205 92.6856 83.4148 92.7399L85.3984 93.8854L83.4148 95.0309C83.2567 95.122 83.1332 95.2628 83.0633 95.4314C82.9935 95.5999 82.9813 95.7869 83.0286 95.9631C83.0759 96.1393 83.1801 96.295 83.3249 96.4059C83.4698 96.5169 83.6472 96.5769 83.8297 96.5766C83.9749 96.5766 84.1175 96.5383 84.2431 96.4655L86.2264 95.3203V97.6093C86.2264 97.829 86.3137 98.0396 86.469 98.195C86.6243 98.3503 86.835 98.4376 87.0547 98.4376C87.2743 98.4376 87.485 98.3503 87.6403 98.195C87.7956 98.0396 87.8829 97.829 87.8829 97.6093V95.3203L89.8663 96.4655C89.9605 96.52 90.0645 96.5553 90.1723 96.5696C90.2802 96.5838 90.3898 96.5766 90.4949 96.5485C90.6 96.5203 90.6985 96.4717 90.7847 96.4055C90.871 96.3392 90.9434 96.2566 90.9977 96.1623C91.1076 95.9721 91.1374 95.746 91.0805 95.5338C91.0237 95.3216 90.8849 95.1407 90.6947 95.0309L88.711 93.8854L90.6947 92.7399C90.8849 92.6301 91.0237 92.4492 91.0805 92.237C91.1374 92.0248 91.1076 91.7987 90.9977 91.6085ZM102.08 91.6085C101.97 91.4183 101.789 91.2795 101.577 91.2227C101.365 91.1659 101.139 91.1956 100.949 91.3054L98.9652 92.4508V90.1617C98.9652 89.9421 98.8779 89.7314 98.7226 89.5761C98.5673 89.4208 98.3566 89.3335 98.1369 89.3335C97.9173 89.3335 97.7066 89.4208 97.5513 89.5761C97.3959 89.7314 97.3087 89.9421 97.3087 90.1617V92.4508L95.3254 91.3056C95.2312 91.251 95.1272 91.2156 95.0193 91.2013C94.9114 91.187 94.8018 91.1941 94.6966 91.2223C94.5915 91.2504 94.4929 91.2989 94.4065 91.3651C94.3202 91.4314 94.2477 91.514 94.1933 91.6082C94.1388 91.7025 94.1035 91.8065 94.0893 91.9144C94.0752 92.0223 94.0824 92.132 94.1106 92.2371C94.1388 92.3422 94.1874 92.4407 94.2538 92.527C94.3201 92.6133 94.4027 92.6857 94.497 92.7401L96.4807 93.8855L94.497 95.031C94.4028 95.0854 94.3203 95.1578 94.2541 95.2441C94.1878 95.3304 94.1393 95.4289 94.1111 95.5339C94.083 95.639 94.0758 95.7486 94.09 95.8564C94.1042 95.9643 94.1396 96.0682 94.194 96.1624C94.2483 96.2567 94.3207 96.3392 94.407 96.4055C94.4933 96.4717 94.5918 96.5203 94.6969 96.5485C94.8019 96.5766 94.9115 96.5838 95.0194 96.5696C95.1272 96.5554 95.2312 96.52 95.3254 96.4656L97.3087 95.3204V97.6094C97.3087 97.8291 97.3959 98.0398 97.5513 98.1951C97.7066 98.3504 97.9173 98.4377 98.1369 98.4377C98.3566 98.4377 98.5673 98.3504 98.7226 98.1951C98.8779 98.0398 98.9652 97.8291 98.9652 97.6094V95.3204L100.949 96.4657C101.043 96.5202 101.147 96.5556 101.255 96.5698C101.362 96.584 101.472 96.5769 101.577 96.5487C101.682 96.5206 101.781 96.472 101.867 96.4057C101.953 96.3394 102.026 96.2568 102.08 96.1625C102.19 95.9723 102.22 95.7462 102.163 95.5341C102.106 95.3219 101.967 95.141 101.777 95.0311L99.7933 93.8856L101.777 92.7402C101.967 92.6303 102.106 92.4493 102.163 92.2371C102.22 92.0249 102.19 91.7988 102.08 91.6085ZM112.856 95.0309L110.873 93.8853L112.856 92.7397C113.042 92.6279 113.177 92.4474 113.232 92.2369C113.286 92.0265 113.256 91.8031 113.147 91.6149C113.038 91.4267 112.86 91.2888 112.651 91.2309C112.441 91.1729 112.217 91.1997 112.027 91.3053L110.047 92.4492V90.1615C110.047 89.9418 109.96 89.7312 109.805 89.5758C109.649 89.4205 109.439 89.3333 109.219 89.3333C108.999 89.3333 108.789 89.4205 108.633 89.5758C108.478 89.7312 108.391 89.9418 108.391 90.1615V92.4513L106.408 91.3054C106.218 91.1998 105.994 91.1731 105.784 91.231C105.575 91.2889 105.396 91.4268 105.288 91.615C105.179 91.8032 105.149 92.0266 105.203 92.2371C105.258 92.4475 105.393 92.628 105.579 92.7398L107.562 93.8854L105.579 95.031C105.393 95.1428 105.258 95.3233 105.203 95.5338C105.149 95.7442 105.179 95.9676 105.288 96.1558C105.396 96.344 105.575 96.4819 105.784 96.5398C105.994 96.5978 106.218 96.571 106.408 96.4654L108.391 95.3196V97.6093C108.391 97.829 108.478 98.0396 108.633 98.195C108.789 98.3503 108.999 98.4376 109.219 98.4376C109.439 98.4376 109.649 98.3503 109.805 98.195C109.96 98.0396 110.047 97.829 110.047 97.6093V95.3216L112.027 96.4655C112.121 96.52 112.225 96.5554 112.333 96.5696C112.441 96.5839 112.551 96.5768 112.656 96.5486C112.761 96.5205 112.859 96.4719 112.946 96.4057C113.032 96.3395 113.104 96.2569 113.159 96.1627C113.213 96.0685 113.248 95.9645 113.263 95.8566C113.277 95.7488 113.27 95.6391 113.242 95.534C113.214 95.4289 113.165 95.3304 113.099 95.2441C113.033 95.1577 112.95 95.0853 112.856 95.0309Z" fill="#EAF6FF"/>
<path fill-rule="evenodd" clip-rule="evenodd" d="M117.916 50.8844C115.79 39.2966 110.162 28.6626 101.625 20.3324C91.0514 10.0152 77.1348 4.33325 62.4378 4.33325C31.3178 4.33352 6 29.9283 6 61.3889C6 63.0004 7.29652 64.3116 8.89036 64.3116C10.4842 64.3116 11.7807 63.0004 11.7807 61.3889C11.7807 33.1515 34.5055 10.1788 62.4376 10.1788C86.9019 10.1788 107.265 27.478 112.032 50.8847H104.218L115.613 64.3333L127 50.8847H117.916V50.8844Z" fill="#FFB74D"/>
</g>
<defs>
<clipPath id="clip0_536_8585">
<rect width="133" height="115" fill="white" transform="translate(0 0.333252)"/>
</clipPath>
</defs>
</svg>
