<svg width="62" height="68" viewBox="0 0 62 68" fill="none" xmlns="http://www.w3.org/2000/svg">
<path d="M60.6 46.7175V63.0177C60.6 65.2181 58.8161 67.002 56.6157 67.002H5.38468C3.18429 67.002 1.40039 65.2181 1.40039 63.0177V57.4751" stroke="url(#paint0_linear_506_10540)" stroke-width="2" stroke-miterlimit="10" stroke-linecap="round" stroke-linejoin="round"/>
<path d="M45.7766 63.0176H5.39132C3.18721 63.0176 1.40039 61.2308 1.40039 59.0267V9.53836C1.40039 7.33425 3.18721 5.54743 5.39132 5.54743H56.6089C58.8132 5.54743 60.6 7.33425 60.6 9.53836V48.1942C60.6 49.2527 60.1795 50.2679 59.431 51.0162L48.5987 61.8486C48.2281 62.2192 47.7881 62.5132 47.3039 62.7138C46.8197 62.9143 46.3007 63.0176 45.7766 63.0176Z" stroke="url(#paint1_linear_506_10540)" stroke-width="2" stroke-miterlimit="10" stroke-linecap="round" stroke-linejoin="round"/>
<path d="M44.1406 63.0176C45.9466 63.0176 47.4107 61.5536 47.4107 59.7475V53.0987C47.4107 51.2928 48.8746 49.8287 50.6806 49.8287H57.3295C59.1355 49.8287 60.5995 48.3647 60.5995 46.5588" stroke="url(#paint2_linear_506_10540)" stroke-width="2" stroke-miterlimit="10" stroke-linecap="round" stroke-linejoin="round"/>
<path d="M13.1771 19.7822H1.40039" stroke="url(#paint3_linear_506_10540)" stroke-width="2" stroke-miterlimit="10" stroke-linecap="round" stroke-linejoin="round"/>
<path d="M60.5987 19.7822H17.1602" stroke="url(#paint4_linear_506_10540)" stroke-width="2" stroke-miterlimit="10" stroke-linecap="round" stroke-linejoin="round"/>
<path d="M12.6794 11.5049C11.5566 11.5049 10.6465 10.5947 10.6465 9.47197V3.02818C10.6465 1.90541 11.5566 0.995262 12.6794 0.995262H13.1367C14.2594 0.995262 15.1696 1.90541 15.1696 3.02818V5.54718" stroke="url(#paint5_linear_506_10540)" stroke-width="2" stroke-miterlimit="10" stroke-linecap="round" stroke-linejoin="round"/>
<path d="M48.8649 11.5049C47.7422 11.5049 46.832 10.5947 46.832 9.47197V3.02818C46.832 1.90541 47.7422 0.995262 48.8649 0.995262H49.3222C50.445 0.995262 51.3551 1.90541 51.3551 3.02818V5.54718" stroke="url(#paint6_linear_506_10540)" stroke-width="2" stroke-miterlimit="10" stroke-linecap="round" stroke-linejoin="round"/>
<path d="M13.0688 32.3994H8.32561C8.07401 32.3994 7.83272 32.2995 7.65481 32.1216C7.4769 31.9437 7.37695 31.7024 7.37695 31.4508V26.7076C7.37695 26.456 7.4769 26.2147 7.65481 26.0368C7.83272 25.8589 8.07401 25.7589 8.32561 25.7589H13.0688C13.3204 25.7589 13.5617 25.8589 13.7396 26.0368C13.9175 26.2147 14.0174 26.456 14.0174 26.7076V31.4508C14.0174 31.7024 13.9175 31.9437 13.7396 32.1216C13.5617 32.2995 13.3204 32.3994 13.0688 32.3994Z" stroke="url(#paint7_linear_506_10540)" stroke-width="2" stroke-miterlimit="10" stroke-linecap="round" stroke-linejoin="round"/>
<path d="M26.6039 32.3994H21.8608C21.6092 32.3994 21.3679 32.2995 21.19 32.1216C21.0121 31.9437 20.9121 31.7024 20.9121 31.4508V26.7076C20.9121 26.456 21.0121 26.2147 21.19 26.0368C21.3679 25.8589 21.6092 25.7589 21.8608 25.7589H26.6039C26.8555 25.7589 27.0968 25.8589 27.2747 26.0368C27.4526 26.2147 27.5526 26.456 27.5526 26.7076V31.4508C27.5526 31.7024 27.4526 31.9437 27.2747 32.1216C27.0968 32.2995 26.8555 32.3994 26.6039 32.3994Z" stroke="url(#paint8_linear_506_10540)" stroke-width="2" stroke-miterlimit="10" stroke-linecap="round" stroke-linejoin="round"/>
<path d="M40.141 32.3994H35.3979C35.1463 32.3994 34.905 32.2995 34.7271 32.1216C34.5492 31.9437 34.4492 31.7024 34.4492 31.4508V26.7076C34.4492 26.456 34.5492 26.2147 34.7271 26.0368C34.905 25.8589 35.1463 25.7589 35.3979 25.7589H40.141C40.3926 25.7589 40.6339 25.8589 40.8118 26.0368C40.9897 26.2147 41.0897 26.456 41.0897 26.7076V31.4508C41.0897 31.7024 40.9897 31.9437 40.8118 32.1216C40.6339 32.2995 40.3926 32.3994 40.141 32.3994Z" stroke="url(#paint9_linear_506_10540)" stroke-width="2" stroke-miterlimit="10" stroke-linecap="round" stroke-linejoin="round"/>
<path d="M53.6742 32.3994H48.9311C48.6795 32.3994 48.4382 32.2995 48.2603 32.1216C48.0824 31.9437 47.9824 31.7024 47.9824 31.4508V26.7076C47.9824 26.456 48.0824 26.2147 48.2603 26.0368C48.4382 25.8589 48.6795 25.7589 48.9311 25.7589H53.6742C53.9258 25.7589 54.1671 25.8589 54.345 26.0368C54.523 26.2147 54.6229 26.456 54.6229 26.7076V31.4508C54.6229 31.7024 54.523 31.9437 54.345 32.1216C54.1671 32.2995 53.9258 32.3994 53.6742 32.3994Z" stroke="url(#paint10_linear_506_10540)" stroke-width="2" stroke-miterlimit="10" stroke-linecap="round" stroke-linejoin="round"/>
<path d="M13.0688 44.7197H8.32561C8.07401 44.7197 7.83272 44.6198 7.65481 44.4419C7.4769 44.264 7.37695 44.0227 7.37695 43.7711V39.0279C7.37695 38.7763 7.4769 38.535 7.65481 38.3571C7.83272 38.1792 8.07401 38.0792 8.32561 38.0792H13.0688C13.3204 38.0792 13.5617 38.1792 13.7396 38.3571C13.9175 38.535 14.0174 38.7763 14.0174 39.0279V43.7711C14.0174 44.0227 13.9175 44.264 13.7396 44.4419C13.5617 44.6198 13.3204 44.7197 13.0688 44.7197Z" stroke="url(#paint11_linear_506_10540)" stroke-width="2" stroke-miterlimit="10" stroke-linecap="round" stroke-linejoin="round"/>
<path d="M26.6039 44.7197H21.8608C21.6092 44.7197 21.3679 44.6198 21.19 44.4419C21.0121 44.264 20.9121 44.0227 20.9121 43.7711V39.0279C20.9121 38.7763 21.0121 38.535 21.19 38.3571C21.3679 38.1792 21.6092 38.0792 21.8608 38.0792H26.6039C26.8555 38.0792 27.0968 38.1792 27.2747 38.3571C27.4526 38.535 27.5526 38.7763 27.5526 39.0279V43.7711C27.5526 44.0227 27.4526 44.264 27.2747 44.4419C27.0968 44.6198 26.8555 44.7197 26.6039 44.7197Z" stroke="url(#paint12_linear_506_10540)" stroke-width="2" stroke-miterlimit="10" stroke-linecap="round" stroke-linejoin="round"/>
<path d="M40.141 44.7197H35.3979C35.1463 44.7197 34.905 44.6198 34.7271 44.4419C34.5492 44.264 34.4492 44.0227 34.4492 43.7711V39.0279C34.4492 38.7763 34.5492 38.535 34.7271 38.3571C34.905 38.1792 35.1463 38.0792 35.3979 38.0792H40.141C40.3926 38.0792 40.6339 38.1792 40.8118 38.3571C40.9897 38.535 41.0897 38.7763 41.0897 39.0279V43.7711C41.0897 44.0227 40.9897 44.264 40.8118 44.4419C40.6339 44.6198 40.3926 44.7197 40.141 44.7197Z" stroke="url(#paint13_linear_506_10540)" stroke-width="2" stroke-miterlimit="10" stroke-linecap="round" stroke-linejoin="round"/>
<path d="M53.6742 45.0156H48.9311C48.6795 45.0156 48.4382 44.9157 48.2603 44.7378C48.0824 44.5599 47.9824 44.3186 47.9824 44.067V39.3238C47.9824 39.0722 48.0824 38.8309 48.2603 38.653C48.4382 38.4751 48.6795 38.3751 48.9311 38.3751H53.6742C53.9258 38.3751 54.1671 38.4751 54.345 38.653C54.523 38.8309 54.6229 39.0722 54.6229 39.3238V44.067C54.6229 44.3186 54.523 44.5599 54.345 44.7378C54.1671 44.9157 53.9258 45.0156 53.6742 45.0156Z" stroke="url(#paint14_linear_506_10540)" stroke-width="2" stroke-miterlimit="10" stroke-linecap="round" stroke-linejoin="round"/>
<path d="M13.0688 57.0411H8.32561C8.07401 57.0411 7.83272 56.9412 7.65481 56.7633C7.4769 56.5854 7.37695 56.3441 7.37695 56.0925V51.3493C7.37695 51.0977 7.4769 50.8564 7.65481 50.6785C7.83272 50.5006 8.07401 50.4007 8.32561 50.4007H13.0688C13.3204 50.4007 13.5617 50.5006 13.7396 50.6785C13.9175 50.8564 14.0174 51.0977 14.0174 51.3493V56.0925C14.0174 56.3441 13.9175 56.5854 13.7396 56.7633C13.5617 56.9412 13.3204 57.0411 13.0688 57.0411Z" stroke="url(#paint15_linear_506_10540)" stroke-width="2" stroke-miterlimit="10" stroke-linecap="round" stroke-linejoin="round"/>
<path d="M26.6039 57.041H21.8608C21.6092 57.041 21.3679 56.9411 21.19 56.7632C21.0121 56.5853 20.9121 56.344 20.9121 56.0924V51.3492C20.9121 51.0976 21.0121 50.8563 21.19 50.6784C21.3679 50.5005 21.6092 50.4005 21.8608 50.4005H26.6039C26.8555 50.4005 27.0968 50.5005 27.2747 50.6784C27.4526 50.8563 27.5526 51.0976 27.5526 51.3492V56.0924C27.5526 56.344 27.4526 56.5853 27.2747 56.7632C27.0968 56.9411 26.8555 57.041 26.6039 57.041Z" stroke="url(#paint16_linear_506_10540)" stroke-width="2" stroke-miterlimit="10" stroke-linecap="round" stroke-linejoin="round"/>
<path d="M34.4492 52.717V51.3492C34.4492 51.2246 34.4737 51.1012 34.5214 50.9861C34.5691 50.871 34.6389 50.7664 34.727 50.6784C34.8151 50.5903 34.9197 50.5204 35.0348 50.4727C35.1499 50.425 35.2733 50.4005 35.3979 50.4005H40.141C40.2656 50.4005 40.389 50.425 40.5041 50.4727C40.6192 50.5204 40.7238 50.5903 40.8119 50.6784C40.9 50.7664 40.9699 50.871 41.0175 50.9861C41.0652 51.1012 41.0897 51.2246 41.0897 51.3492V56.0924C41.0897 56.2169 41.0652 56.3403 41.0175 56.4554C40.9698 56.5705 40.8999 56.6751 40.8118 56.7632C40.7238 56.8513 40.6192 56.9211 40.5041 56.9688C40.389 57.0165 40.2656 57.041 40.141 57.041H35.3979C35.1463 57.041 34.905 56.9411 34.7271 56.7632C34.5492 56.5853 34.4492 56.344 34.4492 56.0924" stroke="url(#paint17_linear_506_10540)" stroke-width="2" stroke-miterlimit="10" stroke-linecap="round" stroke-linejoin="round"/>
<defs>
<linearGradient id="paint0_linear_506_10540" x1="4.50857" y1="54.9108" x2="47.3393" y2="54.9108" gradientUnits="userSpaceOnUse">
<stop stop-color="#374BA8"/>
<stop offset="1" stop-color="#2FB7F0"/>
</linearGradient>
<linearGradient id="paint1_linear_506_10540" x1="4.50857" y1="28.7606" x2="47.3393" y2="28.7606" gradientUnits="userSpaceOnUse">
<stop stop-color="#374BA8"/>
<stop offset="1" stop-color="#2FB7F0"/>
</linearGradient>
<linearGradient id="paint2_linear_506_10540" x1="45.0048" y1="53.2068" x2="56.9127" y2="53.2068" gradientUnits="userSpaceOnUse">
<stop stop-color="#374BA8"/>
<stop offset="1" stop-color="#2FB7F0"/>
</linearGradient>
<linearGradient id="paint3_linear_506_10540" x1="2.01871" y1="19.1861" x2="10.5392" y2="19.1861" gradientUnits="userSpaceOnUse">
<stop stop-color="#374BA8"/>
<stop offset="1" stop-color="#2FB7F0"/>
</linearGradient>
<linearGradient id="paint4_linear_506_10540" x1="19.4408" y1="19.1861" x2="50.8685" y2="19.1861" gradientUnits="userSpaceOnUse">
<stop stop-color="#374BA8"/>
<stop offset="1" stop-color="#2FB7F0"/>
</linearGradient>
<linearGradient id="paint5_linear_506_10540" x1="10.884" y1="5.24029" x2="14.1564" y2="5.24029" gradientUnits="userSpaceOnUse">
<stop stop-color="#374BA8"/>
<stop offset="1" stop-color="#2FB7F0"/>
</linearGradient>
<linearGradient id="paint6_linear_506_10540" x1="47.0695" y1="5.24029" x2="50.342" y2="5.24029" gradientUnits="userSpaceOnUse">
<stop stop-color="#374BA8"/>
<stop offset="1" stop-color="#2FB7F0"/>
</linearGradient>
<linearGradient id="paint7_linear_506_10540" x1="7.7256" y1="28.4411" x2="12.53" y2="28.4411" gradientUnits="userSpaceOnUse">
<stop stop-color="#374BA8"/>
<stop offset="1" stop-color="#2FB7F0"/>
</linearGradient>
<linearGradient id="paint8_linear_506_10540" x1="21.2608" y1="28.4411" x2="26.0651" y2="28.4411" gradientUnits="userSpaceOnUse">
<stop stop-color="#374BA8"/>
<stop offset="1" stop-color="#2FB7F0"/>
</linearGradient>
<linearGradient id="paint9_linear_506_10540" x1="34.7979" y1="28.4411" x2="39.6022" y2="28.4411" gradientUnits="userSpaceOnUse">
<stop stop-color="#374BA8"/>
<stop offset="1" stop-color="#2FB7F0"/>
</linearGradient>
<linearGradient id="paint10_linear_506_10540" x1="48.3311" y1="28.4411" x2="53.1354" y2="28.4411" gradientUnits="userSpaceOnUse">
<stop stop-color="#374BA8"/>
<stop offset="1" stop-color="#2FB7F0"/>
</linearGradient>
<linearGradient id="paint11_linear_506_10540" x1="7.7256" y1="40.7615" x2="12.53" y2="40.7615" gradientUnits="userSpaceOnUse">
<stop stop-color="#374BA8"/>
<stop offset="1" stop-color="#2FB7F0"/>
</linearGradient>
<linearGradient id="paint12_linear_506_10540" x1="21.2608" y1="40.7615" x2="26.0651" y2="40.7615" gradientUnits="userSpaceOnUse">
<stop stop-color="#374BA8"/>
<stop offset="1" stop-color="#2FB7F0"/>
</linearGradient>
<linearGradient id="paint13_linear_506_10540" x1="34.7979" y1="40.7615" x2="39.6022" y2="40.7615" gradientUnits="userSpaceOnUse">
<stop stop-color="#374BA8"/>
<stop offset="1" stop-color="#2FB7F0"/>
</linearGradient>
<linearGradient id="paint14_linear_506_10540" x1="48.3311" y1="41.0574" x2="53.1354" y2="41.0574" gradientUnits="userSpaceOnUse">
<stop stop-color="#374BA8"/>
<stop offset="1" stop-color="#2FB7F0"/>
</linearGradient>
<linearGradient id="paint15_linear_506_10540" x1="7.7256" y1="53.0829" x2="12.53" y2="53.0829" gradientUnits="userSpaceOnUse">
<stop stop-color="#374BA8"/>
<stop offset="1" stop-color="#2FB7F0"/>
</linearGradient>
<linearGradient id="paint16_linear_506_10540" x1="21.2608" y1="53.0827" x2="26.0651" y2="53.0827" gradientUnits="userSpaceOnUse">
<stop stop-color="#374BA8"/>
<stop offset="1" stop-color="#2FB7F0"/>
</linearGradient>
<linearGradient id="paint17_linear_506_10540" x1="34.7979" y1="53.0827" x2="39.6022" y2="53.0827" gradientUnits="userSpaceOnUse">
<stop stop-color="#374BA8"/>
<stop offset="1" stop-color="#2FB7F0"/>
</linearGradient>
</defs>
</svg>
