<svg width="69" height="66" viewBox="0 0 69 66" fill="none" xmlns="http://www.w3.org/2000/svg">
<path d="M55.5691 60.1949C45.6845 66.6318 32.3163 65.5133 23.6424 56.8393C13.6843 46.8813 13.6843 30.7361 23.6424 20.7782C33.6004 10.8201 49.7455 10.8201 59.7035 20.7782C68.3694 29.444 69.4939 42.7953 63.0771 52.6771" fill="white"/>
<path d="M55.5691 60.1949C45.6845 66.6318 32.3163 65.5133 23.6424 56.8393C13.6843 46.8813 13.6843 30.7361 23.6424 20.7782C33.6004 10.8201 49.7455 10.8201 59.7035 20.7782C68.3694 29.444 69.4939 42.7953 63.0771 52.6771" stroke="url(#paint0_linear_506_10603)" stroke-width="2" stroke-miterlimit="10" stroke-linecap="round" stroke-linejoin="round"/>
<path d="M41.6727 58.0833C31.0278 58.0833 22.3984 49.4539 22.3984 38.809C22.3984 28.164 31.0278 19.5347 41.6727 19.5347C52.3176 19.5347 60.947 28.164 60.947 38.809C60.947 49.4539 52.3176 58.0833 41.6727 58.0833Z" fill="white" stroke="url(#paint1_linear_506_10603)" stroke-width="2" stroke-miterlimit="10" stroke-linecap="round" stroke-linejoin="round"/>
<path d="M36.8729 8.06665H46.4351C48.1955 8.06665 49.6225 6.63963 49.6225 4.87926C49.6225 3.1189 48.1955 1.69188 46.4351 1.69188H36.8729C35.1126 1.69188 33.6855 3.1189 33.6855 4.87926C33.6855 6.63963 35.1126 8.06665 36.8729 8.06665Z" fill="white" stroke="url(#paint2_linear_506_10603)" stroke-width="2" stroke-miterlimit="10" stroke-linecap="round" stroke-linejoin="round"/>
<path d="M46.1972 13.3098V8.06709H37.1113V13.3098" fill="white"/>
<path d="M46.1972 13.3098V8.06709H37.1113V13.3098" stroke="url(#paint3_linear_506_10603)" stroke-width="2" stroke-miterlimit="10" stroke-linecap="round" stroke-linejoin="round"/>
<path d="M44.1914 36.2922L51.0141 29.4695L44.1914 36.2922Z" fill="white"/>
<path d="M44.1914 36.2922L51.0141 29.4695" stroke="url(#paint4_linear_506_10603)" stroke-width="2" stroke-miterlimit="10" stroke-linecap="round" stroke-linejoin="round"/>
<path d="M38.875 38.8089C38.875 40.3546 40.128 41.6077 41.6738 41.6077C43.2195 41.6077 44.4726 40.3546 44.4726 38.8089C44.4726 37.2631 43.2195 36.0101 41.6738 36.0101C40.128 36.0101 38.875 37.2631 38.875 38.8089Z" fill="white" stroke="url(#paint5_linear_506_10603)" stroke-width="2" stroke-miterlimit="10" stroke-linecap="round" stroke-linejoin="round"/>
<path d="M55.8729 38.8245H54.6426H55.8729Z" fill="white"/>
<path d="M55.8729 38.8245H54.6426" stroke="url(#paint6_linear_506_10603)" stroke-width="2" stroke-miterlimit="10" stroke-linecap="round" stroke-linejoin="round"/>
<path d="M27.4766 38.7922H28.7069H27.4766Z" fill="white"/>
<path d="M27.4766 38.7922H28.7069" stroke="url(#paint7_linear_506_10603)" stroke-width="2" stroke-miterlimit="10" stroke-linecap="round" stroke-linejoin="round"/>
<path d="M41.6895 24.6088V25.8391V24.6088Z" fill="white"/>
<path d="M41.6895 24.6088V25.8391" stroke="url(#paint8_linear_506_10603)" stroke-width="2" stroke-miterlimit="10" stroke-linecap="round" stroke-linejoin="round"/>
<path d="M41.6582 53.009V51.7787V53.009Z" fill="white"/>
<path d="M41.6582 53.009V51.7787" stroke="url(#paint9_linear_506_10603)" stroke-width="2" stroke-miterlimit="10" stroke-linecap="round" stroke-linejoin="round"/>
<path d="M39.5743 36.7085L35.9688 33.1029L39.5743 36.7085Z" fill="white"/>
<path d="M39.5743 36.7085L35.9688 33.1029" stroke="url(#paint10_linear_506_10603)" stroke-width="2" stroke-miterlimit="10" stroke-linecap="round" stroke-linejoin="round"/>
<path d="M43.6543 36.8295L50.8223 29.6616L43.6543 36.8295Z" fill="white"/>
<path d="M43.6543 36.8295L50.8223 29.6616" stroke="url(#paint11_linear_506_10603)" stroke-width="2" stroke-miterlimit="10" stroke-linecap="round" stroke-linejoin="round"/>
<path d="M17.339 47.0042H7.14453H17.339Z" fill="white"/>
<path d="M17.339 47.0042H7.14453" stroke="url(#paint12_linear_506_10603)" stroke-width="2" stroke-miterlimit="10" stroke-linecap="round" stroke-linejoin="round"/>
<path d="M16.1757 39.2424H9.00391H16.1757Z" fill="white"/>
<path d="M16.1757 39.2424H9.00391" stroke="url(#paint13_linear_506_10603)" stroke-width="2" stroke-miterlimit="10" stroke-linecap="round" stroke-linejoin="round"/>
<path d="M16.9846 31.4817H1.83203H16.9846Z" fill="white"/>
<path d="M16.9846 31.4817H1.83203" stroke="url(#paint14_linear_506_10603)" stroke-width="2" stroke-miterlimit="10" stroke-linecap="round" stroke-linejoin="round"/>
<path d="M20.3488 23.7209H10.8848H20.3488Z" fill="white"/>
<path d="M20.3488 23.7209H10.8848" stroke="url(#paint15_linear_506_10603)" stroke-width="2" stroke-miterlimit="10" stroke-linecap="round" stroke-linejoin="round"/>
<defs>
<linearGradient id="paint0_linear_506_10603" x1="18.8514" y1="33.9087" x2="55.7484" y2="33.9087" gradientUnits="userSpaceOnUse">
<stop stop-color="#374BA8"/>
<stop offset="1" stop-color="#2FB7F0"/>
</linearGradient>
<linearGradient id="paint1_linear_506_10603" x1="24.4224" y1="35.1052" x2="52.3121" y2="35.1052" gradientUnits="userSpaceOnUse">
<stop stop-color="#374BA8"/>
<stop offset="1" stop-color="#2FB7F0"/>
</linearGradient>
<linearGradient id="paint2_linear_506_10603" x1="34.5223" y1="4.26676" x2="46.0526" y2="4.26676" gradientUnits="userSpaceOnUse">
<stop stop-color="#374BA8"/>
<stop offset="1" stop-color="#2FB7F0"/>
</linearGradient>
<linearGradient id="paint3_linear_506_10603" x1="37.5884" y1="10.1847" x2="44.162" y2="10.1847" gradientUnits="userSpaceOnUse">
<stop stop-color="#374BA8"/>
<stop offset="1" stop-color="#2FB7F0"/>
</linearGradient>
<linearGradient id="paint4_linear_506_10603" x1="44.5496" y1="32.2253" x2="49.4858" y2="32.2253" gradientUnits="userSpaceOnUse">
<stop stop-color="#374BA8"/>
<stop offset="1" stop-color="#2FB7F0"/>
</linearGradient>
<linearGradient id="paint5_linear_506_10603" x1="39.1689" y1="38.271" x2="43.2187" y2="38.271" gradientUnits="userSpaceOnUse">
<stop stop-color="#374BA8"/>
<stop offset="1" stop-color="#2FB7F0"/>
</linearGradient>
<linearGradient id="paint6_linear_506_10603" x1="54.7072" y1="38.2284" x2="55.5973" y2="38.2284" gradientUnits="userSpaceOnUse">
<stop stop-color="#374BA8"/>
<stop offset="1" stop-color="#2FB7F0"/>
</linearGradient>
<linearGradient id="paint7_linear_506_10603" x1="27.5412" y1="38.1962" x2="28.4313" y2="38.1962" gradientUnits="userSpaceOnUse">
<stop stop-color="#374BA8"/>
<stop offset="1" stop-color="#2FB7F0"/>
</linearGradient>
<linearGradient id="paint8_linear_506_10603" x1="41.742" y1="25.1057" x2="42.4655" y2="25.1057" gradientUnits="userSpaceOnUse">
<stop stop-color="#374BA8"/>
<stop offset="1" stop-color="#2FB7F0"/>
</linearGradient>
<linearGradient id="paint9_linear_506_10603" x1="41.7107" y1="52.2757" x2="42.4342" y2="52.2757" gradientUnits="userSpaceOnUse">
<stop stop-color="#374BA8"/>
<stop offset="1" stop-color="#2FB7F0"/>
</linearGradient>
<linearGradient id="paint10_linear_506_10603" x1="36.1581" y1="34.5593" x2="38.7667" y2="34.5593" gradientUnits="userSpaceOnUse">
<stop stop-color="#374BA8"/>
<stop offset="1" stop-color="#2FB7F0"/>
</linearGradient>
<linearGradient id="paint11_linear_506_10603" x1="44.0306" y1="32.5568" x2="49.2167" y2="32.5568" gradientUnits="userSpaceOnUse">
<stop stop-color="#374BA8"/>
<stop offset="1" stop-color="#2FB7F0"/>
</linearGradient>
<linearGradient id="paint12_linear_506_10603" x1="7.67977" y1="46.4081" x2="15.0554" y2="46.4081" gradientUnits="userSpaceOnUse">
<stop stop-color="#374BA8"/>
<stop offset="1" stop-color="#2FB7F0"/>
</linearGradient>
<linearGradient id="paint13_linear_506_10603" x1="9.38045" y1="38.6463" x2="14.5692" y2="38.6463" gradientUnits="userSpaceOnUse">
<stop stop-color="#374BA8"/>
<stop offset="1" stop-color="#2FB7F0"/>
</linearGradient>
<linearGradient id="paint14_linear_506_10603" x1="2.62759" y1="30.8856" x2="13.5904" y2="30.8856" gradientUnits="userSpaceOnUse">
<stop stop-color="#374BA8"/>
<stop offset="1" stop-color="#2FB7F0"/>
</linearGradient>
<linearGradient id="paint15_linear_506_10603" x1="11.3817" y1="23.1249" x2="18.2288" y2="23.1249" gradientUnits="userSpaceOnUse">
<stop stop-color="#374BA8"/>
<stop offset="1" stop-color="#2FB7F0"/>
</linearGradient>
</defs>
</svg>
