<svg width="67" height="66" viewBox="0 0 67 66" fill="none" xmlns="http://www.w3.org/2000/svg">
<path d="M53.3 26.4C60.579 26.4 66.5 20.4788 66.5 13.2C66.5 5.92116 60.5788 0 53.3 0C48.0144 0 43.4569 3.12978 41.351 7.62754L37.8163 6.3228C37.8581 6.0522 37.9 5.78146 37.9 5.5C37.9 2.46744 35.4326 0 32.4 0C29.3674 0 26.9 2.46744 26.9 5.5C26.9 8.53256 29.3674 11 32.4 11C34.3701 11 36.0883 9.9495 37.0595 8.3886L40.5883 9.691C40.2783 10.8109 40.1 11.9834 40.1 13.2C40.1 14.641 40.3395 16.0247 40.7687 17.3239L28.6709 22.4513C26.4557 18.2632 22.059 15.4 17 15.4C15.3607 15.4 13.7967 15.7149 12.347 16.2625L9.30426 9.86837C10.6298 8.86284 11.5 7.2875 11.5 5.5C11.5 2.46744 9.03256 0 6 0C2.96744 0 0.5 2.46744 0.5 5.5C0.5 8.53256 2.96744 11 6 11C6.4576 11 6.8965 10.9275 7.32234 10.8206L10.3614 17.2084C6.44413 19.5008 3.8 23.7424 3.8 28.6C3.8 33.1628 6.12788 37.19 9.65668 39.5614L7.6445 43.1782C7.1209 43.0133 6.57613 42.9 6 42.9C2.96744 42.9 0.5 45.3674 0.5 48.4C0.5 51.4326 2.96744 53.9 6 53.9C9.03256 53.9 11.5 51.4326 11.5 48.4C11.5 46.7345 10.74 45.2574 9.56744 44.2487L11.5837 40.6242C13.2381 41.3731 15.0685 41.8 17 41.8C20.0185 41.8 22.7949 40.7704 25.0212 39.0585L29.3508 43.8217C27.1551 46.1801 25.8 49.3309 25.8 52.8C25.8 53.4731 25.8671 54.1288 25.9638 54.7745L20.8699 55.9834C19.9934 54.109 18.1021 52.8 15.9 52.8C12.8674 52.8 10.4 55.2674 10.4 58.3C10.4 61.3326 12.8674 63.8 15.9 63.8C18.9326 63.8 21.4 61.3326 21.4 58.3C21.4 58.2394 21.3834 58.1824 21.3823 58.1217L26.4666 56.9165C28.2003 62.1837 33.159 66 39 66C46.279 66 52.2 60.0788 52.2 52.8C52.2 50.5431 51.6291 48.4177 50.6256 46.5589L57.0872 42.3576C58.0862 43.3696 59.4698 44 61 44C64.0326 44 66.5 41.5326 66.5 38.5C66.5 35.4674 64.0326 33 61 33C57.9674 33 55.5 35.4674 55.5 38.5C55.5 39.2106 55.6462 39.8857 55.8926 40.5098L49.4162 44.7202C48.1133 43.0443 46.4274 41.7052 44.5 40.8155L49.869 25.9317C50.9647 26.227 52.1119 26.4 53.3 26.4ZM32.4 8.8C30.5809 8.8 29.1 7.31913 29.1 5.5C29.1 3.68088 30.5809 2.2 32.4 2.2C34.2191 2.2 35.7 3.68088 35.7 5.5C35.7 7.31913 34.2191 8.8 32.4 8.8ZM2.7 5.5C2.7 3.68088 4.18088 2.2 6 2.2C7.81913 2.2 9.3 3.68088 9.3 5.5C9.3 7.31913 7.81913 8.8 6 8.8C4.18088 8.8 2.7 7.31913 2.7 5.5ZM6 51.7C4.18088 51.7 2.7 50.2191 2.7 48.4C2.7 46.5809 4.18088 45.1 6 45.1C7.81913 45.1 9.3 46.5809 9.3 48.4C9.3 50.2191 7.81913 51.7 6 51.7ZM15.9 61.6C14.0809 61.6 12.6 60.1191 12.6 58.3C12.6 56.4809 14.0809 55 15.9 55C17.7191 55 19.2 56.4809 19.2 58.3C19.2 60.1191 17.7191 61.6 15.9 61.6ZM61 35.2C62.8191 35.2 64.3 36.6809 64.3 38.5C64.3 40.3191 62.8191 41.8 61 41.8C59.1809 41.8 57.7 40.3191 57.7 38.5C57.7 36.6809 59.1809 35.2 61 35.2ZM46.822 22.0704C47.3128 19.5261 49.5559 17.6 52.2 17.6H54.4C57.0441 17.6 59.2872 19.5261 59.778 22.0704C57.9585 23.4024 55.7234 24.2 53.3 24.2C50.8766 24.2 48.6416 23.4025 46.822 22.0704ZM53.3 15.4C51.4809 15.4 50 13.9191 50 12.1C50 10.2809 51.4809 8.8 53.3 8.8C55.1191 8.8 56.6 10.2809 56.6 12.1C56.6 13.9191 55.1191 15.4 53.3 15.4ZM53.3 2.2C59.3655 2.2 64.3 7.13446 64.3 13.2C64.3 15.95 63.2778 18.4625 61.6027 20.393C60.8318 18.3633 59.2249 16.7434 57.2225 15.9435C58.1964 14.9509 58.8 13.596 58.8 12.1C58.8 9.06744 56.3326 6.6 53.3 6.6C50.2674 6.6 47.8 9.06744 47.8 12.1C47.8 13.5959 48.4036 14.9509 49.3775 15.9435C47.3751 16.7434 45.7682 18.3633 44.9973 20.393C43.3222 18.4625 42.3 15.95 42.3 13.2C42.3 7.13446 47.2345 2.2 53.3 2.2ZM6 28.6C6 22.5345 10.9345 17.6 17 17.6C23.0655 17.6 28 22.5345 28 28.6C28 31.3587 26.9715 33.8777 25.2875 35.8106C24.5196 33.7734 22.9093 32.1454 20.9016 31.3435C21.8742 30.3509 22.478 28.9959 22.478 27.5C22.478 24.4674 20.0106 22 16.978 22C13.9454 22 11.478 24.4674 11.478 27.5C11.478 28.9959 12.0816 30.3509 13.0554 31.3435C11.059 32.1397 9.45428 33.7535 8.6807 35.7752C7.01516 33.847 6 31.3426 6 28.6ZM13.678 27.5C13.678 25.6809 15.1589 24.2 16.978 24.2C18.7971 24.2 20.278 25.6809 20.278 27.5C20.278 29.3191 18.7971 30.8 16.978 30.8C15.1589 30.8 13.678 29.3191 13.678 27.5ZM10.5037 37.4558C10.9994 34.9185 13.2391 33 15.878 33H18.078C20.7269 33 22.9744 34.9326 23.4582 37.4848C21.6423 38.809 19.4144 39.6 17 39.6C14.5679 39.6 12.3261 38.797 10.5037 37.4558ZM32.5037 61.6558C32.9994 59.1185 35.2391 57.2 37.878 57.2H40.078C42.7269 57.2 44.9744 59.1326 45.4582 61.6848C43.6423 63.009 41.4144 63.8 39 63.8C36.5679 63.8 34.3261 62.997 32.5037 61.6558ZM38.978 55C37.1589 55 35.678 53.5191 35.678 51.7C35.678 49.8809 37.1589 48.4 38.978 48.4C40.7971 48.4 42.278 49.8809 42.278 51.7C42.278 53.5191 40.7971 55 38.978 55ZM50 52.8C50 55.5587 48.9715 58.0777 47.2875 60.0106C46.5195 57.9734 44.9093 56.3454 42.9016 55.5435C43.8742 54.5509 44.478 53.1959 44.478 51.7C44.478 48.6674 42.0106 46.2 38.978 46.2C35.9454 46.2 33.478 48.6674 33.478 51.7C33.478 53.1959 34.0816 54.5509 35.0554 55.5435C33.059 56.3397 31.4543 57.9535 30.6807 59.9752C29.0152 58.047 28 55.5426 28 52.8C28 46.7345 32.9345 41.8 39 41.8C45.0655 41.8 50 46.7345 50 52.8ZM42.431 40.0683C41.3353 39.773 40.1881 39.6 39 39.6C35.9815 39.6 33.2051 40.6296 30.9788 42.3415L26.6492 37.5783C28.8449 35.2199 30.2 32.0691 30.2 28.6C30.2 27.159 29.9605 25.7753 29.5313 24.4761L41.6291 19.3487C42.9843 21.9109 45.159 23.9669 47.8011 25.1845L42.431 40.0683Z" fill="url(#paint0_linear_506_10624)"/>
<defs>
<linearGradient id="paint0_linear_506_10624" x1="3.96522" y1="39.3414" x2="51.716" y2="39.3414" gradientUnits="userSpaceOnUse">
<stop stop-color="#374BA8"/>
<stop offset="1" stop-color="#2FB7F0"/>
</linearGradient>
</defs>
</svg>
