<svg width="67" height="68" viewBox="0 0 67 68" fill="none" xmlns="http://www.w3.org/2000/svg">
<path d="M58.1195 41.9687C58.9521 39.399 59.3749 36.7188 59.3749 33.9878C59.3749 31.2669 58.9552 28.5964 58.1277 26.0348C59.9474 25.3514 61.602 24.2573 62.9758 22.8024C65.3499 20.2892 66.6028 17.0012 66.5041 13.5456C66.2995 6.41104 60.3294 0.77413 53.1939 0.977716C49.7376 1.07654 46.5274 2.51531 44.1532 5.02904C42.9542 6.29854 42.0421 7.76557 41.4449 9.35206C38.8827 8.52508 36.2123 8.10527 33.4904 8.10527C30.7669 8.10527 28.0945 8.52611 25.5308 9.35413C23.6818 4.46111 18.9495 0.972168 13.417 0.972168C6.27935 0.972168 0.472656 6.77886 0.472656 13.916C0.472656 19.448 3.96212 24.1797 8.85513 26.0283C8.0266 28.5924 7.60627 31.265 7.60627 33.9878C7.60627 36.7188 8.02905 39.399 8.86158 41.9687C3.96509 43.8156 0.472656 48.5493 0.472656 54.0839C0.472656 56.0322 0.894921 57.9055 1.72797 59.6512C1.78268 59.7659 1.85945 59.8687 1.9539 59.9537C2.04835 60.0388 2.15863 60.1044 2.27844 60.1468C2.39824 60.1892 2.52523 60.2076 2.65215 60.2009C2.77906 60.1942 2.90342 60.1626 3.01812 60.1079C3.24962 59.9972 3.42774 59.7992 3.51337 59.5573C3.599 59.3154 3.58514 59.0494 3.47483 58.8177C2.76667 57.3341 2.40788 55.7415 2.40788 54.0839C2.40788 48.0142 7.34669 43.0759 13.417 43.0759C19.4878 43.0759 24.4266 48.0142 24.4266 54.0839C24.4266 60.1541 19.4878 65.0925 13.417 65.0925C10.6483 65.0925 8.00183 64.0609 5.96585 62.1876C5.57235 61.8259 4.95992 61.8515 4.59855 62.2446C4.5125 62.3381 4.44571 62.4477 4.402 62.567C4.35829 62.6863 4.33852 62.8131 4.34382 62.94C4.34911 63.067 4.37937 63.1917 4.43286 63.3069C4.48636 63.4222 4.56203 63.5258 4.65557 63.6118C7.04983 65.8147 10.1614 67.0277 13.417 67.0277C18.9575 67.0277 23.6958 63.5282 25.5388 58.6241C28.0995 59.4507 30.7694 59.8704 33.4904 59.8704C36.2118 59.8704 38.8823 59.4507 41.4428 58.6246C43.2861 63.5288 48.0243 67.0277 53.5648 67.0277C60.7024 67.0277 66.5091 61.221 66.5091 54.0839C66.5091 48.5493 63.0167 43.8151 58.1195 41.9687ZM45.5603 6.3575C47.5792 4.21973 50.3102 2.99615 53.2498 2.9119C53.3562 2.90889 53.4628 2.90738 53.5693 2.90739C59.495 2.90739 64.3989 7.64017 64.5692 13.6005C64.6535 16.5396 63.5881 19.3356 61.5693 21.4739C59.5503 23.6117 56.8193 24.8354 53.8797 24.9195C53.7732 24.9225 53.6667 24.924 53.5602 24.924C47.6345 24.924 42.7305 20.1914 42.5602 14.231C42.4755 11.2918 43.5414 8.49541 45.5603 6.3575ZM40.9001 56.766C38.5159 57.5411 36.0278 57.9352 33.4904 57.9352C30.9539 57.9352 28.4659 57.5411 26.0816 56.766C26.268 55.8841 26.3619 54.9852 26.3618 54.0838C26.3618 46.9467 20.5546 41.1407 13.417 41.1407C12.4922 41.1407 11.5901 41.2388 10.7198 41.4238C9.93808 39.031 9.54149 36.5339 9.54149 33.9878C9.54149 31.4498 9.93615 28.9608 10.7127 26.574C11.6016 26.7639 12.508 26.8595 13.417 26.8592C15.6345 26.8592 17.8222 26.2887 19.7447 25.2098C20.2105 24.9483 20.3761 24.3587 20.1146 23.8925C19.8531 23.4264 19.2634 23.261 18.7974 23.5225C17.1634 24.4393 15.3028 24.924 13.417 24.924C7.34617 24.924 2.40788 19.9857 2.40788 13.9154C2.40788 7.84569 7.34669 2.90739 13.417 2.90739C19.4878 2.90739 24.4266 7.84569 24.4266 13.916C24.4266 16.4555 23.5411 18.933 21.9335 20.8928C21.5942 21.3057 21.6548 21.9154 22.068 22.2546C22.2665 22.4172 22.5214 22.4944 22.7767 22.4692C23.0321 22.444 23.2669 22.3184 23.4297 22.12C25.3201 19.8154 26.3618 16.9014 26.3618 13.9154C26.3618 12.9887 26.2624 12.0841 26.0765 11.2117C28.4628 10.435 30.9524 10.0405 33.4904 10.0405C36.0278 10.0405 38.5164 10.4346 40.9016 11.2101C40.6883 12.221 40.5956 13.2536 40.6255 14.2864C40.8265 21.295 46.5919 26.8598 53.5596 26.8592C54.4701 26.8594 55.3782 26.7644 56.269 26.576C57.0451 28.9618 57.4398 31.4509 57.4398 33.9879C57.4398 36.5339 57.0427 39.0311 56.2615 41.4238C55.375 41.2352 54.4711 41.1403 53.5648 41.1407C46.4271 41.1407 40.6205 46.9468 40.6205 54.0839C40.6205 55.0037 40.7173 55.9007 40.9001 56.766ZM53.5648 65.0925C47.494 65.0925 42.5557 60.1542 42.5557 54.0844C42.5557 48.0142 47.494 43.0759 53.5648 43.0759C59.6355 43.0759 64.5739 48.0142 64.5739 54.0844C64.5739 60.1542 59.6355 65.0925 53.5648 65.0925Z" fill="url(#paint0_linear_506_10630)"/>
<path d="M20.0048 8.20407C19.842 8.09324 19.6492 8.03478 19.4523 8.03648C19.2553 8.03819 19.0636 8.09999 18.9027 8.21361C18.5741 8.44526 18.2208 8.6398 17.8494 8.79366C16.52 7.75342 14.5933 7.76554 13.2735 8.91313C12.5927 9.50424 12.1591 10.3298 12.0588 11.2258C11.3502 11.1204 10.6705 10.8717 10.0611 10.495C9.45177 10.1183 8.92554 9.62133 8.51453 9.03453C8.41598 8.89462 8.28214 8.78329 8.12662 8.71187C7.97111 8.64044 7.79945 8.61146 7.6291 8.62788C7.45863 8.64439 7.29559 8.70586 7.15664 8.806C7.0177 8.90614 6.90782 9.04137 6.83824 9.19787C6.81063 9.26031 6.15949 10.748 6.24258 12.5689C6.30618 13.9623 6.80457 15.7584 8.62238 17.1453C7.96581 17.3579 7.27692 17.4531 6.58731 17.4266C6.36993 17.4181 6.15607 17.4832 5.98021 17.6113C5.80435 17.7393 5.67675 17.9229 5.618 18.1323C5.55925 18.3418 5.57277 18.5649 5.65638 18.7657C5.74 18.9665 5.88882 19.1333 6.07886 19.2392C7.59685 20.0825 9.22308 20.5048 10.812 20.5048C12.3385 20.5048 13.8303 20.1147 15.1578 19.334C16.8223 18.3548 18.0318 16.8557 18.6885 15.0247C18.7091 14.9782 18.7263 14.93 18.74 14.8801C19.0776 13.8857 19.2545 12.7966 19.2545 11.6415C19.2545 11.5912 19.2529 11.5403 19.251 11.4898C19.8046 10.8372 20.1983 10.0645 20.401 9.23309C20.4475 9.04164 20.4344 8.84059 20.3637 8.65674C20.2929 8.47289 20.1678 8.31498 20.005 8.20407H20.0048ZM17.2895 11.3396C17.3087 11.4405 17.3188 11.5448 17.3188 11.6446C17.3188 12.593 17.1776 13.4715 16.909 14.2652C16.8943 14.302 16.8821 14.3397 16.8722 14.3781C16.3698 15.7842 15.4551 16.9136 14.1766 17.666C13.0064 18.3549 11.6634 18.6482 10.2945 18.5489C10.6082 18.3936 10.9109 18.2172 11.2006 18.0208C11.3433 17.9238 11.4575 17.7904 11.5314 17.6345C11.6053 17.4785 11.6362 17.3057 11.6209 17.1338C11.6056 16.9619 11.5446 16.7972 11.4442 16.6569C11.3438 16.5165 11.2077 16.4055 11.0499 16.3355C9.2432 15.5326 8.27714 14.2556 8.17883 12.5406C8.16088 12.2078 8.17271 11.8741 8.21418 11.5434C9.5451 12.6555 11.25 13.2623 13.0295 13.2164C13.2818 13.21 13.5215 13.1053 13.6977 12.9246C13.8738 12.744 13.9724 12.5016 13.9725 12.2493V11.6491C13.9689 11.4078 14.0182 11.1685 14.1168 10.9482C14.2154 10.7279 14.361 10.5317 14.5434 10.3736C15.2349 9.77237 16.2861 9.84539 16.8873 10.5369C17.0054 10.6726 17.159 10.7726 17.3309 10.8256C17.2711 10.9901 17.2568 11.1677 17.2896 11.3396H17.2895ZM50.3798 14.6789H51.7516V20.4489C51.7516 20.7055 51.8536 20.9516 52.035 21.1331C52.2165 21.3145 52.4626 21.4165 52.7192 21.4165C52.9759 21.4165 53.222 21.3145 53.4034 21.1331C53.5849 20.9516 53.6868 20.7055 53.6868 20.4489V14.6789H55.1811C55.7152 14.6789 56.1487 14.2454 56.1487 13.7113C56.1487 13.1772 55.7152 12.7437 55.1811 12.7437H53.6868V10.0365C53.6868 9.10717 54.4433 8.35063 55.3731 8.35063H56.6258C57.1602 8.35063 57.5934 7.91727 57.5934 7.38302C57.5934 7.12639 57.4915 6.88027 57.31 6.69881C57.1285 6.51735 56.8824 6.41541 56.6258 6.41541H55.3731C53.3763 6.41541 51.7516 8.0397 51.7516 10.0365V12.7437H50.3798C49.8457 12.7437 49.4122 13.1772 49.4122 13.7113C49.4122 14.2454 49.8457 14.6789 50.3798 14.6789ZM11.2207 59.0881C11.4512 59.0881 11.6813 59.0288 11.8865 58.9103L18.4728 55.106C18.675 54.9888 18.8429 54.8207 18.9597 54.6183C19.0765 54.416 19.1382 54.1865 19.1385 53.9528C19.1385 53.4791 18.8836 53.0372 18.4728 52.8003L11.8866 48.9958C11.6842 48.8792 11.4547 48.8178 11.2211 48.8178C10.9875 48.8178 10.7579 48.8792 10.5555 48.9958C10.3533 49.1129 10.1853 49.281 10.0684 49.4834C9.95146 49.6857 9.88971 49.9152 9.88931 50.149V57.7573C9.88931 58.2315 10.1448 58.6735 10.5555 58.9103C10.7577 59.0273 10.9872 59.0886 11.2207 59.0883V59.0881ZM11.8245 51.1951L16.6001 53.9535L11.8245 56.7115V51.1951ZM57.7685 47.231H49.3593C47.8989 47.231 46.7104 48.4193 46.7104 49.8803V58.288C46.7104 59.7489 47.8987 60.9373 49.3593 60.9373H57.7685C59.2289 60.9373 60.4172 59.7489 60.4172 58.288V49.8803C60.4172 48.4194 59.2289 47.231 57.7685 47.231ZM58.4819 58.288C58.4819 58.4772 58.4067 58.6587 58.2729 58.7926C58.1392 58.9265 57.9577 59.0018 57.7685 59.0021H49.3593C49.17 59.0019 48.9885 58.9266 48.8547 58.7927C48.7209 58.6588 48.6457 58.4773 48.6456 58.288V49.8803C48.6458 49.6911 48.721 49.5096 48.8548 49.3757C48.9886 49.2419 49.17 49.1665 49.3593 49.1662H57.7685C57.9577 49.1666 58.1391 49.242 58.2728 49.3758C58.4066 49.5097 58.4818 49.6911 58.4819 49.8803V58.288Z" fill="url(#paint1_linear_506_10630)"/>
<path d="M53.564 51.1596C51.9513 51.1596 50.6389 52.4719 50.6389 54.0846C50.6389 55.6973 51.9513 57.0091 53.564 57.0091C55.1766 57.0091 56.4889 55.6973 56.4889 54.0846C56.4889 52.4719 55.1766 51.1596 53.564 51.1596ZM53.564 55.0739C53.0182 55.0739 52.5742 54.6298 52.5742 54.0846C52.5742 53.5389 53.0181 53.0948 53.564 53.0948C54.1098 53.0948 54.5536 53.5388 54.5536 54.0846C54.5536 54.6298 54.1097 55.0739 53.564 55.0739ZM40.4926 23.9491C40.2359 23.9491 39.9898 24.051 39.8084 24.2325C39.6269 24.414 39.525 24.6601 39.525 24.9167V25.3506C38.1602 26.1552 36.7314 26.8462 35.2533 27.4164C34.0686 27.872 32.8551 28.2489 31.6207 28.5447C31.4255 28.3934 31.1855 28.3111 30.9384 28.3108H26.508C25.4377 28.3108 24.5674 29.1817 24.5674 30.2516V35.3331C24.5674 36.4035 25.4377 37.2739 26.5082 37.2739H27.3936L27.7291 43.7256C27.7358 43.8525 27.7673 43.9769 27.822 44.0915C27.8767 44.2062 27.9534 44.309 28.0478 44.394C28.1422 44.4791 28.2524 44.5447 28.3722 44.5871C28.492 44.6295 28.6189 44.6479 28.7458 44.6413C29.002 44.6279 29.2425 44.5134 29.4142 44.3228C29.586 44.1322 29.6751 43.8811 29.6618 43.6249L29.3313 37.2739H30.9384C31.195 37.2739 31.4312 37.1861 31.6204 37.0405C32.4059 37.2299 33.1831 37.452 33.9501 37.7062C34.0707 37.7462 34.198 37.7621 34.3248 37.7529C34.4515 37.7437 34.5752 37.7096 34.6888 37.6526C34.8024 37.5956 34.9036 37.5168 34.9867 37.4207C35.0698 37.3246 35.1332 37.213 35.1732 37.0924C35.2132 36.9718 35.2291 36.8445 35.2199 36.7177C35.2107 36.591 35.1767 36.4673 35.1197 36.3537C35.0627 36.2402 34.9839 36.1389 34.8877 36.0558C34.7916 35.9727 34.6801 35.9093 34.5594 35.8693C33.7357 35.5961 32.9009 35.3577 32.0572 35.1547V30.4311C33.3796 30.1142 34.6797 29.7104 35.9488 29.2221C37.1746 28.7494 38.369 28.1989 39.5246 27.5739V38.013C39.1004 37.7839 38.671 37.5648 38.2365 37.3559C38.122 37.3008 37.9978 37.2687 37.8709 37.2616C37.744 37.2545 37.617 37.2725 37.4971 37.3146C37.3772 37.3566 37.2667 37.4219 37.172 37.5066C37.0774 37.5914 37.0003 37.694 36.9453 37.8085C36.8902 37.923 36.8582 38.0473 36.8511 38.1742C36.8441 38.3011 36.862 38.4281 36.9041 38.548C36.9461 38.668 37.0113 38.7785 37.0961 38.8732C37.1808 38.9679 37.2834 39.045 37.3979 39.1001C38.1221 39.4494 38.8316 39.8284 39.5246 40.2361V40.668C39.5246 40.9246 39.6265 41.1707 39.808 41.3522C39.9894 41.5337 40.2356 41.6356 40.4922 41.6356C40.7488 41.6356 40.9949 41.5337 41.1764 41.3522C41.3579 41.1707 41.4598 40.9246 41.4598 40.668V24.9166C41.4599 24.7895 41.4349 24.6637 41.3863 24.5463C41.3378 24.4289 41.2665 24.3223 41.1767 24.2324C41.0869 24.1426 40.9803 24.0713 40.8629 24.0226C40.7455 23.974 40.6197 23.949 40.4927 23.949L40.4926 23.9491ZM30.1225 35.3381L26.5026 35.3331L26.5082 30.2461H30.1225V35.3381Z" fill="url(#paint2_linear_506_10630)"/>
<defs>
<linearGradient id="paint0_linear_506_10630" x1="8.85861" y1="30.9036" x2="59.5614" y2="30.9036" gradientUnits="userSpaceOnUse">
<stop stop-color="#374BA8"/>
<stop offset="1" stop-color="#2FB7F0"/>
</linearGradient>
<linearGradient id="paint1_linear_506_10630" x1="12.5455" y1="31.1206" x2="54.6477" y2="31.1206" gradientUnits="userSpaceOnUse">
<stop stop-color="#374BA8"/>
<stop offset="1" stop-color="#2FB7F0"/>
</linearGradient>
<linearGradient id="paint2_linear_506_10630" x1="28.6211" y1="38.9294" x2="53.1302" y2="38.9294" gradientUnits="userSpaceOnUse">
<stop stop-color="#374BA8"/>
<stop offset="1" stop-color="#2FB7F0"/>
</linearGradient>
</defs>
</svg>
