<svg width="67" height="67" viewBox="0 0 67 67" fill="none" xmlns="http://www.w3.org/2000/svg">
<path d="M57.4025 42.2669L55.2609 19.1184C55.1307 17.7275 54.4731 16.4391 53.423 15.5178C52.3729 14.5965 51.0099 14.1121 49.6139 14.164C48.2179 14.2159 46.8947 14.8002 45.9159 15.7969C44.9371 16.7937 44.377 18.1273 44.3505 19.524L44.1812 22.7349C40.3831 16.5458 32.6474 3.97633 32.555 3.82616C32.1759 3.19881 31.6747 2.654 31.081 2.22406C30.4873 1.79412 29.8133 1.48781 29.099 1.3233C28.4024 1.15897 27.6798 1.13619 26.9742 1.2563C26.2686 1.37642 25.5943 1.63698 24.9913 2.02255C23.9378 2.69477 23.1447 3.70562 22.7423 4.88871L21.3722 2.64594C20.9931 2.01865 20.4919 1.47387 19.8984 1.04393C19.3048 0.613998 18.6309 0.307657 17.9167 0.143088C17.2198 -0.0214567 16.497 -0.0443494 15.7911 0.0757675C15.0852 0.195884 14.4106 0.456564 13.8074 0.842339C12.5766 1.64438 11.7073 2.89481 11.384 4.3278C11.0608 5.7608 11.3093 7.26335 12.0765 8.51605L12.8573 9.7938C11.6152 9.63517 10.3568 9.91772 9.3017 10.5921C8.07098 11.3942 7.2016 12.6446 6.87839 14.0776C6.55517 15.5106 6.8036 17.0131 7.57086 18.2658L10.2414 22.6368C8.99923 22.4766 7.74029 22.7592 6.68583 23.4351C5.45494 24.237 4.58535 25.4874 4.26193 26.9204C3.93852 28.3534 4.18679 29.856 4.95395 31.1088L19.3333 54.6589C23.3131 61.1715 30.7194 66.056 38.516 66.056C41.5845 66.0558 44.6041 65.2871 47.2992 63.8199C47.3209 63.808 47.3425 63.7957 47.3637 63.7822L49.0337 62.7202C53.175 60.0857 55.6319 57.1055 56.9984 53.0587C57.999 50.0981 57.8654 47.3996 57.6249 44.6666C57.5114 43.3667 57.4025 42.2669 57.4025 42.2669ZM55.0431 52.3981C53.8371 55.9676 51.6423 58.6134 47.9257 60.978L46.2882 62.0194C36.8373 67.0824 26.0605 61.7108 21.0945 53.5819L6.71627 30.0329C6.22862 29.2425 6.06837 28.2931 6.26957 27.3864C6.47078 26.4797 7.01758 25.6873 7.79379 25.1773C8.56652 24.709 9.49302 24.565 10.3715 24.7766C11.2499 24.9883 12.0091 25.5386 12.4837 26.3075L21.6297 41.2782C21.7755 41.5083 22.0051 41.6727 22.2699 41.7366C22.5348 41.8006 22.8141 41.7591 23.0488 41.6208C23.1645 41.5501 23.2651 41.4573 23.3449 41.3478C23.4247 41.2382 23.4821 41.1139 23.5139 40.9822C23.5456 40.8504 23.5511 40.7136 23.5301 40.5797C23.509 40.4458 23.4617 40.3173 23.391 40.2017L9.33215 17.1894C8.84431 16.3991 8.68391 15.4497 8.88502 14.543C9.08614 13.6363 9.63291 12.8437 10.4091 12.3338C11.1825 11.8643 12.1103 11.7201 12.9897 11.9326C13.8691 12.1452 14.6286 12.6972 15.1021 13.4681L29.1635 36.4841C29.3098 36.7136 29.5394 36.8776 29.804 36.9416C30.0686 37.0056 30.3477 36.9646 30.5827 36.8272C30.6984 36.7565 30.799 36.6637 30.8787 36.5541C30.9585 36.4446 31.016 36.3203 31.0477 36.1885C31.0795 36.0567 31.085 35.92 31.0639 35.7861C31.0428 35.6522 30.9956 35.5237 30.9248 35.4081L13.8383 7.44008C13.3503 6.64973 13.1898 5.70022 13.391 4.7934C13.5921 3.88657 14.1389 3.09394 14.9153 2.58402C15.6894 2.11369 16.6183 1.96947 17.4985 2.18296C18.3787 2.39646 19.1384 2.95026 19.6109 3.72295L36.6969 31.691C36.8429 31.9209 37.0725 32.0851 37.3372 32.149C37.602 32.213 37.8812 32.1716 38.116 32.0336C38.3496 31.8908 38.5169 31.6611 38.5812 31.395C38.6454 31.1289 38.6014 30.8481 38.4587 30.6145L25.0212 8.61926C24.5331 7.82897 24.3727 6.87945 24.5739 5.97267C24.7751 5.06588 25.3222 4.27338 26.0987 3.76372C26.4707 3.52595 26.8867 3.36541 27.322 3.29165C27.7573 3.21789 28.203 3.23241 28.6325 3.33436C29.08 3.43786 29.5021 3.63025 29.8737 3.90011C30.2453 4.16997 30.5589 4.51178 30.7958 4.90522C30.9083 5.08842 42.1067 23.285 44.1564 26.6445C44.2713 26.8325 44.4433 26.9789 44.6474 27.0621C44.8514 27.1454 45.0767 27.1611 45.2903 27.1071C45.504 27.053 45.6947 26.932 45.8346 26.7618C45.9745 26.5915 46.0563 26.381 46.0679 26.1609L46.4126 19.6112C46.4184 18.7363 46.7607 17.8973 47.3686 17.2681C47.9765 16.6389 48.8033 16.2679 49.6775 16.2321C50.5516 16.1963 51.406 16.4983 52.0633 17.0756C52.7207 17.6529 53.1306 18.4611 53.208 19.3325C53.208 19.3325 55.4554 43.556 55.5689 44.8467C55.7976 47.4481 55.9163 49.8127 55.0431 52.3981ZM8.58284 56.832C6.24099 56.0481 4.27121 53.5535 3.20815 51.4795C1.96666 49.0672 1.72402 46.2634 2.53263 43.6737C2.61612 43.413 2.59261 43.1298 2.46729 42.8864C2.34196 42.643 2.12507 42.4593 1.86434 42.3758C1.60361 42.2923 1.3204 42.3159 1.077 42.4412C0.833601 42.5665 0.649958 42.7834 0.56647 43.0441C-0.406922 46.1545 -0.117755 49.5229 1.37151 52.4218C1.97684 53.6036 4.24077 57.556 7.92797 58.7899C8.05652 58.8329 8.19229 58.8502 8.32752 58.8407C8.46275 58.8312 8.59478 58.7952 8.71609 58.7347C8.8374 58.6742 8.94561 58.5904 9.03453 58.4881C9.12346 58.3858 9.19135 58.267 9.23435 58.1384C9.27735 58.0099 9.29461 57.8741 9.28514 57.7389C9.27567 57.6036 9.23966 57.4716 9.17916 57.3503C9.11866 57.229 9.03486 57.1208 8.93254 57.0319C8.83022 56.9429 8.7114 56.875 8.58284 56.832ZM11.1631 51.6705C9.95038 51.2648 8.91311 49.9376 8.34545 48.8296C7.68919 47.5556 7.56036 46.0745 7.9868 44.7063C8.02919 44.577 8.04558 44.4406 8.03502 44.3049C8.02447 44.1692 7.98719 44.0369 7.92531 43.9157C7.86344 43.7944 7.7782 43.6867 7.6745 43.5985C7.5708 43.5104 7.45069 43.4436 7.32108 43.402C7.19147 43.3605 7.05493 43.345 6.91931 43.3564C6.78368 43.3679 6.65166 43.406 6.53084 43.4687C6.41002 43.5313 6.30279 43.6173 6.21531 43.7215C6.12784 43.8258 6.06185 43.9464 6.02115 44.0762C5.42923 45.9649 5.60422 48.0107 6.5083 49.7714C6.87367 50.4846 8.24224 52.8703 10.5082 53.6284C10.768 53.712 11.0502 53.6906 11.2944 53.5687C11.5386 53.4469 11.7254 53.2344 11.8149 52.9766C11.9015 52.717 11.8815 52.4335 11.7593 52.1886C11.6371 51.9437 11.4227 51.7573 11.1631 51.6705ZM63.9306 10.6587C63.1978 9.56673 60.5158 5.94559 56.777 5.18493C56.5088 5.13038 56.2298 5.18464 56.0016 5.33576C55.7733 5.48688 55.6145 5.72249 55.5599 5.99074C55.5054 6.259 55.5596 6.53794 55.7108 6.76619C55.8619 6.99444 56.0975 7.15331 56.3657 7.20785C58.7241 7.68778 60.9344 9.89959 62.2167 11.8095C63.718 14.046 64.2947 16.777 63.8258 19.4295C63.8013 19.5629 63.8032 19.6997 63.8316 19.8323C63.86 19.9649 63.9142 20.0906 63.9912 20.2022C64.0682 20.3138 64.1664 20.4091 64.2802 20.4828C64.394 20.5564 64.5212 20.607 64.6546 20.6314C64.7164 20.6429 64.7791 20.6486 64.8419 20.6485C65.0831 20.6482 65.3166 20.5634 65.5019 20.4089C65.6871 20.2544 65.8124 20.0399 65.8559 19.8026C66.4209 16.6204 65.7308 13.343 63.9306 10.6587ZM54.9053 10.5957C54.637 10.5412 54.358 10.5955 54.1297 10.7467C53.9014 10.8978 53.7425 11.1335 53.6879 11.4018C53.6334 11.6701 53.6877 11.9491 53.8388 12.1774C53.99 12.4057 54.2257 12.5646 54.494 12.6192C55.7103 12.8669 56.8746 14.0435 57.5583 15.0617C58.3521 16.2435 58.6573 17.6869 58.4098 19.0889C58.3853 19.2222 58.3872 19.3591 58.4156 19.4916C58.4439 19.6242 58.4981 19.7498 58.575 19.8614C58.6519 19.973 58.7501 20.0684 58.8639 20.1421C58.9776 20.2157 59.1048 20.2663 59.2381 20.2908C59.3714 20.3154 59.5082 20.3134 59.6408 20.2851C59.7733 20.2567 59.899 20.2025 60.0106 20.1256C60.1222 20.0487 60.2175 19.9506 60.2912 19.8368C60.3649 19.723 60.4154 19.5959 60.44 19.4626C60.7835 17.5305 60.3647 15.5406 59.2716 13.9109C58.8294 13.2519 57.2069 11.0638 54.9053 10.5957Z" fill="url(#paint0_linear_506_10638)"/>
<defs>
<linearGradient id="paint0_linear_506_10638" x1="3.46776" y1="39.3748" x2="51.2535" y2="39.3748" gradientUnits="userSpaceOnUse">
<stop stop-color="#374BA8"/>
<stop offset="1" stop-color="#2FB7F0"/>
</linearGradient>
</defs>
</svg>
