<svg width="66" height="66" viewBox="0 0 66 66" fill="none" xmlns="http://www.w3.org/2000/svg">
<path d="M53.4942 57.4839L51.0299 50.0897C50.6073 48.8225 49.8519 47.6922 48.8427 46.817C47.8334 45.9419 46.6075 45.3541 45.2932 45.1153L38.1791 43.8208V43.2694C39.4171 42.5508 40.4944 41.5896 41.3524 40.4516H43.5016C45.2623 40.4516 46.6952 39.0188 46.6952 37.2581V24.4839C46.6952 16.8534 40.4869 10.6452 32.8565 10.6452C25.226 10.6452 19.0178 16.8534 19.0178 24.4839V31.9355C19.0178 33.9879 20.4772 35.7049 22.4125 36.1052C23.0097 39.1646 24.9216 41.7535 27.5339 43.2694V43.8208L20.4187 45.1153C19.1045 45.3541 17.8787 45.9419 16.8697 46.8171C15.8606 47.6922 15.1054 48.8226 14.6831 50.0897L14.2572 51.3682L10.6315 47.7425C10.2163 47.3273 10.2163 46.6514 10.6315 46.2362L14.8363 42.0324L6.94402 34.1401L2.19202 38.8921C0.784733 40.2994 0.00976562 42.1708 0.00976562 44.1615C0.00976562 46.1521 0.784733 48.0224 2.19202 49.4297L16.579 63.8167C17.9862 65.224 19.8577 66 21.8483 66C23.839 66 25.7093 65.224 27.0836 63.8486L32.2689 59.0977L30.6519 57.4839H53.4942ZM44.5662 37.2581C44.5662 37.8457 44.0882 38.3226 43.5016 38.3226H42.6064C42.9185 37.6112 43.1512 36.8676 43.3004 36.1052C43.7561 36.0105 44.1755 35.8295 44.5662 35.6017V37.2581ZM43.5016 33.7686V30.1024C44.135 30.4718 44.5662 31.1509 44.5662 31.9355C44.5662 32.72 44.135 33.3992 43.5016 33.7686ZM22.2113 33.7686C21.5779 33.3992 21.1468 32.72 21.1468 31.9355C21.1468 31.1509 21.5779 30.4718 22.2113 30.1024V33.7686ZM22.2113 26.6129V27.8286C21.838 27.9262 21.4798 28.0744 21.1468 28.2693V24.4839C21.1468 18.0276 26.4002 12.7742 32.8565 12.7742C39.3128 12.7742 44.5662 18.0276 44.5662 24.4839V28.2693C44.2333 28.074 43.8751 27.9257 43.5016 27.8286V26.6129H42.4371C39.2893 26.6129 36.33 25.3866 34.103 23.1607L32.8565 21.9141L31.6099 23.1607C29.383 25.3866 26.4236 26.6129 23.2758 26.6129H22.2113ZM24.3403 34.0645V28.7015C27.5371 28.4609 30.5177 27.142 32.8565 24.9182C35.1952 27.142 38.1759 28.462 41.3726 28.7015V34.0645C41.3726 35.6166 40.9489 37.0686 40.2208 38.3226H32.8565V40.4516H38.4707C36.9698 41.7727 35.0079 42.5806 32.8565 42.5806C28.1609 42.5806 24.3403 38.7601 24.3403 34.0645ZM36.05 44.2189V44.269L32.8565 47.4625L29.6629 44.269V44.2189C30.6721 44.5362 31.7441 44.7097 32.8565 44.7097C33.9689 44.7097 35.0409 44.5362 36.05 44.2189ZM16.7014 50.7625C17.0032 49.8573 17.5427 49.0497 18.2635 48.4244C18.9843 47.7991 19.8599 47.379 20.7987 47.2081L28.2397 45.8562L32.8565 50.473L37.4722 45.8572L44.9121 47.2092C45.851 47.3799 46.7267 47.7999 47.4475 48.4253C48.1684 49.0506 48.7078 49.8582 49.0094 50.7636L50.5413 55.3548H28.5228L24.3765 51.2085L19.7693 55.3761C19.368 55.7796 18.6665 55.7796 18.2641 55.3761L15.9392 53.0512L16.7014 50.7625ZM6.94296 37.1505L11.8248 42.0324L10.6688 43.1885L5.78689 38.3066L6.94296 37.1505ZM25.6092 62.3136C24.6043 63.3163 23.2673 63.871 21.8462 63.871C20.4251 63.871 19.088 63.3164 18.0821 62.3115L3.69512 47.9256C2.69022 46.9207 2.13667 45.5836 2.13667 44.1625C2.13667 42.7403 2.69022 41.4033 3.69512 40.3984L4.2806 39.8129L9.16247 44.6948L9.12415 44.7331C7.87973 45.9786 7.87973 48.0044 9.12415 49.2498L16.7578 56.8835C17.3614 57.486 18.163 57.8192 19.0167 57.8192C19.8704 57.8192 20.672 57.4871 21.2362 56.9207L21.3161 56.8494L26.2203 61.7536L25.6092 62.3136ZM27.7915 60.3123L22.8979 55.4187L24.3042 54.1477L29.1892 59.0327L27.7915 60.3123ZM62.6629 0H47.7597C45.999 0 44.5662 1.43284 44.5662 3.19355V11.7097C44.5662 13.4704 45.999 14.9032 47.7597 14.9032H50.603L49.5023 21.3233L59.7749 14.9032H62.6629C64.4236 14.9032 65.8565 13.4704 65.8565 11.7097V3.19355C65.8565 1.43284 64.4236 0 62.6629 0ZM63.7274 11.7097C63.7274 12.2962 63.2495 12.7742 62.6629 12.7742H59.1639L52.4031 16.9993L53.1281 12.7742H47.7597C47.1732 12.7742 46.6952 12.2962 46.6952 11.7097V3.19355C46.6952 2.607 47.1732 2.12903 47.7597 2.12903H62.6629C63.2495 2.12903 63.7274 2.607 63.7274 3.19355V11.7097Z" fill="url(#paint0_linear_506_10644)"/>
<path d="M48.8233 4.25788H61.5975V6.38691H48.8233V4.25788ZM48.8233 8.51594H57.3395V10.645H48.8233V8.51594ZM59.4685 8.51594H61.5975V10.645H59.4685V8.51594ZM32.8556 3.19336C18.9466 3.19336 6.96549 12.8145 3.85072 26.2348L1.83346 22.872L0.0078125 23.9674L3.74959 30.2023L9.98446 26.4605L8.88907 24.6348L6.00423 26.3657C9.02107 14.0887 20.0612 5.32239 32.8556 5.32239C35.6521 5.32239 38.4113 5.73755 41.0566 6.55723L41.6868 4.524C38.8371 3.64046 35.866 3.19336 32.8556 3.19336ZM65.3382 23.5703L59.1034 19.8286L55.3626 26.0645L57.1883 27.1599L59.0512 24.0547C60.0316 26.9236 60.533 29.9244 60.533 32.9998C60.533 39.3305 58.3401 45.5196 54.3599 50.4259L56.0131 51.7672C60.3009 46.483 62.662 39.817 62.662 32.9998C62.662 29.7435 62.1372 26.5637 61.1142 23.5192L64.2428 25.396L65.3382 23.5703Z" fill="url(#paint1_linear_506_10644)"/>
<defs>
<linearGradient id="paint0_linear_506_10644" x1="3.46694" y1="39.3414" x2="51.1068" y2="39.3414" gradientUnits="userSpaceOnUse">
<stop stop-color="#374BA8"/>
<stop offset="1" stop-color="#2FB7F0"/>
</linearGradient>
<linearGradient id="paint1_linear_506_10644" x1="3.43788" y1="32.1474" x2="50.7042" y2="32.1474" gradientUnits="userSpaceOnUse">
<stop stop-color="#374BA8"/>
<stop offset="1" stop-color="#2FB7F0"/>
</linearGradient>
</defs>
</svg>
