<svg width="66" height="66" viewBox="0 0 66 66" fill="none" xmlns="http://www.w3.org/2000/svg">
<path d="M39.2716 54.3156H26.8307C26.1188 54.3156 25.5417 53.7383 25.5417 53.0265C25.5417 52.3147 26.1188 51.7374 26.8307 51.7374H39.2716C39.9835 51.7374 40.5607 52.3147 40.5607 53.0265C40.5607 53.7383 39.9835 54.3156 39.2716 54.3156ZM43.1223 59.4445H22.98C22.2681 59.4445 21.691 58.8672 21.691 58.1554C21.691 57.4436 22.2681 56.8663 22.98 56.8663H43.1223C43.8342 56.8663 44.4113 57.4436 44.4113 58.1554C44.4113 58.8672 43.8342 59.4445 43.1223 59.4445ZM33.0511 8.77555C32.3391 8.77555 31.762 8.19831 31.762 7.48649V6.1875C31.762 5.47568 32.3391 4.89844 33.0511 4.89844C33.763 4.89844 34.3402 5.47568 34.3402 6.1875V7.48649C34.3402 8.19844 33.763 8.77555 33.0511 8.77555ZM33.0511 39.6922C32.3391 39.6922 31.762 39.1149 31.762 38.4031V37.104C31.762 36.3922 32.3391 35.8149 33.0511 35.8149C33.763 35.8149 34.3402 36.3922 34.3402 37.104V38.4031C34.3402 39.1151 33.763 39.6922 33.0511 39.6922ZM43.5225 13.113C43.3532 13.1132 43.1855 13.0799 43.0291 13.0152C42.8727 12.9504 42.7306 12.8553 42.611 12.7354C42.1077 12.232 42.1077 11.4158 42.611 10.9123L44.7955 8.72798C45.2989 8.22486 46.1151 8.22486 46.6185 8.72798C47.1219 9.23136 47.1219 10.0476 46.6185 10.5511L44.434 12.7354C44.3145 12.8553 44.1724 12.9503 44.016 13.0151C43.8595 13.0799 43.6919 13.1132 43.5225 13.113ZM20.3955 36.2401C20.2262 36.2403 20.0585 36.207 19.902 36.1422C19.7456 36.0774 19.6035 35.9824 19.484 35.8625C18.9806 35.3591 18.9806 34.5429 19.484 34.0394L21.6684 31.8551C22.1718 31.3518 22.9879 31.3519 23.4914 31.8551C23.9948 32.3584 23.9948 33.1747 23.4914 33.6782L21.307 35.8625C21.1874 35.9824 21.0453 36.0774 20.8889 36.1422C20.7325 36.207 20.5648 36.2403 20.3955 36.2401ZM49.159 23.5843H47.8598C47.1479 23.5843 46.5708 23.0071 46.5708 22.2952C46.5708 21.5834 47.1479 21.0062 47.8598 21.0062H49.159C49.8709 21.0062 50.448 21.5834 50.448 22.2952C50.448 23.0071 49.8709 23.5843 49.159 23.5843ZM18.2425 23.5843H16.9434C16.2314 23.5843 15.6543 23.0071 15.6543 22.2952C15.6543 21.5834 16.2314 21.0062 16.9434 21.0062H18.2425C18.9544 21.0062 19.5315 21.5834 19.5315 22.2952C19.5315 23.0071 18.9544 23.5843 18.2425 23.5843ZM22.5798 13.113C22.4105 13.1132 22.2428 13.0799 22.0864 13.0151C21.9299 12.9503 21.7879 12.8553 21.6683 12.7354L19.4838 10.5511C18.9805 10.0477 18.9803 9.23149 19.4838 8.72798C19.9872 8.22473 20.8035 8.22473 21.3068 8.72798L23.4913 10.9123C23.9947 11.4157 23.9948 12.2319 23.4913 12.7354C23.3717 12.8553 23.2296 12.9504 23.0732 13.0152C22.9168 13.0799 22.7491 13.1132 22.5798 13.113ZM45.7069 36.2401C45.5375 36.2403 45.3699 36.207 45.2134 36.1422C45.057 36.0774 44.9149 35.9824 44.7954 35.8625L42.6109 33.6782C42.1075 33.1748 42.1074 32.3586 42.6109 31.8551C43.1143 31.3518 43.9305 31.3518 44.4339 31.8551L46.6184 34.0394C47.1217 34.5427 47.1219 35.359 46.6184 35.8625C46.4988 35.9824 46.3567 36.0774 46.2003 36.1422C46.0439 36.207 45.8762 36.2403 45.7069 36.2401ZM28.319 31.7249C28.0136 31.725 27.7116 31.6603 27.4331 31.5351C27.1546 31.4098 26.9058 31.2269 26.7032 30.9984C26.5007 30.7699 26.3489 30.501 26.258 30.2094C26.167 29.9179 26.139 29.6104 26.1758 29.3072L26.6839 25.1294L23.8135 22.0475C23.5515 21.766 23.3694 21.4195 23.2862 21.044C23.2031 20.6684 23.2218 20.2775 23.3405 19.9116C23.4595 19.5456 23.6742 19.2181 23.9624 18.9629C24.2505 18.7077 24.6016 18.5342 24.9794 18.4603L29.1166 17.6518L31.1649 13.9724C31.5456 13.2887 32.2682 12.8639 33.0511 12.8639C33.8339 12.8639 34.5567 13.2886 34.9374 13.9724L36.9857 17.6518L41.1231 18.4603C41.5008 18.5342 41.852 18.7077 42.1401 18.9629C42.4283 19.2181 42.643 19.5457 42.762 19.9118C42.8806 20.2776 42.8993 20.6685 42.8161 21.044C42.7329 21.4195 42.5508 21.766 42.2888 22.0475L39.4184 25.1294L39.9267 29.3072C39.973 29.6889 39.9164 30.076 39.763 30.4285C39.6095 30.781 39.3646 31.0862 39.0537 31.3124C38.7423 31.5385 38.3762 31.6774 37.9931 31.7147C37.6101 31.752 37.224 31.6863 36.8748 31.5244L33.0514 29.7498L29.2279 31.5244C28.9431 31.6565 28.6329 31.725 28.319 31.7249ZM33.0511 27.0396C33.2386 27.0396 33.4238 27.0805 33.5938 27.1595L37.276 28.8686L36.7865 24.8455C36.7639 24.659 36.7822 24.4699 36.8403 24.2912C36.8984 24.1126 36.9948 23.9488 37.1229 23.8113L39.8852 20.8454L35.9034 20.0672C35.7193 20.0313 35.5452 19.9555 35.3934 19.8453C35.2416 19.7351 35.1156 19.5931 35.0244 19.4291L33.0511 15.8846L31.0778 19.4291C30.9865 19.5931 30.8606 19.7351 30.7088 19.8453C30.557 19.9555 30.3829 20.0312 30.1988 20.0672L26.217 20.8454L28.9793 23.8113C29.1074 23.9488 29.2038 24.1126 29.2619 24.2912C29.32 24.4699 29.3383 24.659 29.3157 24.8455L28.8263 28.8686L32.5085 27.1595C32.6785 27.0805 32.8637 27.0396 33.0511 27.0396Z" fill="url(#paint0_linear_506_10651)"/>
<path d="M60.2972 17.8072H59.9607V4.47614C59.9607 2.00797 57.9528 0 55.4846 0H10.5154C8.04723 0 6.03926 2.00797 6.03926 4.47614V17.8072H5.70281C2.55827 17.8072 0 20.3654 0 23.5099V60.2967C0 63.4415 2.55853 66 5.70346 66H60.2967C63.4415 66 66 63.4415 66 60.2967V47.7309C66 47.0191 65.4229 46.4418 64.7109 46.4418C63.999 46.4418 63.4219 47.0191 63.4219 47.7309V56.0103L47.0586 41.1417L63.4219 27.6213V36.0761C63.4219 36.7879 63.999 37.3652 64.7109 37.3652C65.4229 37.3652 66 36.7879 66 36.0761V23.5099C66 20.3654 63.4417 17.8072 60.2972 17.8072ZM8.61738 4.47614C8.61738 3.42955 9.46881 2.57812 10.5154 2.57812H55.4846C56.5312 2.57812 57.3826 3.42955 57.3826 4.47614V29.267L36.1857 46.7814H29.8142L8.61738 29.267V4.47614ZM2.57812 27.6213L18.9414 41.1417L2.57812 56.0103V27.6213ZM2.57812 23.5099C2.57812 21.7871 3.97985 20.3854 5.70281 20.3854H6.03926V27.1368L2.57812 24.277V23.5099ZM63.4219 59.4937V60.2967C63.4219 62.0199 62.0199 63.4219 60.2965 63.4219H5.70346C3.98011 63.4219 2.57812 62.0199 2.57812 60.2967V59.4937L20.9492 42.8007L28.5295 49.0642C28.7606 49.255 29.0509 49.3595 29.3507 49.3595H36.6493C36.949 49.3595 37.2393 49.2549 37.4705 49.0642L45.0508 42.8007L63.4219 59.4937ZM59.9607 20.3854H60.2972C62.0201 20.3854 63.4219 21.7871 63.4219 23.5099V24.277L59.9607 27.1368V20.3854Z" fill="url(#paint1_linear_506_10651)"/>
<path d="M64.7102 43.1694C64.1712 43.1694 63.6794 42.8202 63.4979 42.3139C63.319 41.815 63.4716 41.2404 63.8764 40.8971C64.2984 40.5392 64.9202 40.493 65.3905 40.7851C65.8409 41.065 66.0783 41.6117 65.9735 42.1317C65.8538 42.7264 65.3184 43.1694 64.7102 43.1694Z" fill="url(#paint2_linear_506_10651)"/>
<defs>
<linearGradient id="paint0_linear_506_10651" x1="17.4811" y1="37.4124" x2="42.6542" y2="37.4124" gradientUnits="userSpaceOnUse">
<stop stop-color="#374BA8"/>
<stop offset="1" stop-color="#2FB7F0"/>
</linearGradient>
<linearGradient id="paint1_linear_506_10651" x1="3.46522" y1="39.3414" x2="51.216" y2="39.3414" gradientUnits="userSpaceOnUse">
<stop stop-color="#374BA8"/>
<stop offset="1" stop-color="#2FB7F0"/>
</linearGradient>
<linearGradient id="paint2_linear_506_10651" x1="63.559" y1="42.129" x2="65.4214" y2="42.129" gradientUnits="userSpaceOnUse">
<stop stop-color="#374BA8"/>
<stop offset="1" stop-color="#2FB7F0"/>
</linearGradient>
</defs>
</svg>
