<svg width="82" height="72" viewBox="0 0 82 72" fill="none" xmlns="http://www.w3.org/2000/svg">
<path fill-rule="evenodd" clip-rule="evenodd" d="M45.9165 2.77744C43.9771 2.77744 42.4106 4.34392 42.4106 6.28336V26.0881C42.4106 28.0275 43.9771 29.594 45.9165 29.594H55.8189C56.0986 29.594 56.3597 29.7245 56.5276 29.9483L61.3202 36.2702L66.1129 29.9483C66.2807 29.7245 66.5418 29.594 66.8215 29.594H76.7239C78.6633 29.594 80.2298 28.0275 80.2298 26.0881V6.28336C80.2298 4.34392 78.6633 2.77744 76.7239 2.77744H45.9165ZM61.3016 38.6385C61.0218 38.6385 60.7608 38.508 60.5929 38.2842L55.3713 31.3843H45.9165C42.9887 31.3843 40.6204 29.0159 40.6204 26.0881V6.28336C40.6204 3.35554 42.9887 0.987183 45.9165 0.987183H76.7052C79.6144 0.987183 82.0014 3.35554 82.0014 6.28336V26.0881C82.0014 28.9973 79.6331 31.3843 76.7052 31.3843H67.2505L62.0289 38.2842C61.861 38.508 61.5813 38.6385 61.3016 38.6385ZM5.30008 35.1513C3.36064 35.1513 1.79416 36.7177 1.79416 38.6572V58.4619C1.79416 60.4014 3.36064 61.9678 5.30008 61.9678H15.2024C15.4822 61.9678 15.7433 62.0984 15.9111 62.3221L20.7038 68.644L25.4964 62.3221C25.6643 62.0984 25.9253 61.9678 26.2051 61.9678H36.1074C38.0469 61.9678 39.6134 60.4014 39.6134 58.4619V38.6572C39.6134 36.7177 38.0469 35.1513 36.1074 35.1513H5.30008ZM20.7038 71.0124C20.424 71.0124 20.163 70.8818 19.9951 70.658L14.7735 63.7581H5.30008C2.37227 63.7581 0.00390625 61.3897 0.00390625 58.4619V38.6572C0.00390625 35.7294 2.37227 33.361 5.30008 33.361H36.0888C39.0166 33.361 41.385 35.7294 41.385 38.6572V58.4619C41.385 61.3711 39.0166 63.7581 36.0888 63.7581H26.634L21.3938 70.658C21.2446 70.8818 20.9835 71.0124 20.7038 71.0124Z" fill="url(#paint0_linear_506_7309)"/>
<path fill-rule="evenodd" clip-rule="evenodd" d="M74.5036 14.2647H48.116C47.6125 14.2647 47.2209 13.873 47.2209 13.3695C47.2209 12.866 47.6311 12.4744 48.116 12.4744H74.485C74.9885 12.4744 75.3801 12.8847 75.3801 13.3695C75.3988 13.873 74.9885 14.2647 74.5036 14.2647ZM74.5036 8.65146H52.6289C52.1441 8.65146 51.7338 8.25985 51.7338 7.75634C51.7338 7.25283 52.1441 6.86121 52.6289 6.86121H74.485C74.9885 6.86121 75.3801 7.27147 75.3801 7.75634C75.3988 8.25985 74.9885 8.65146 74.5036 8.65146ZM74.5036 19.8779H52.6289C52.1441 19.8779 51.7338 19.4863 51.7338 18.9827C51.7338 18.4979 52.1441 18.0876 52.6289 18.0876H74.485C74.9885 18.0876 75.3801 18.4979 75.3801 18.9827C75.3988 19.4863 74.9885 19.8779 74.5036 19.8779ZM74.5036 25.5097H48.116C47.6125 25.5097 47.2209 25.0995 47.2209 24.6146C47.2209 24.1111 47.6311 23.7195 48.116 23.7195H74.485C74.9885 23.7195 75.3801 24.1111 75.3801 24.6146C75.3988 25.0995 74.9885 25.5097 74.5036 25.5097ZM33.8872 46.6571H7.51817C7.03331 46.6571 6.62305 46.2469 6.62305 45.762C6.62305 45.2585 7.03331 44.8669 7.51817 44.8669H33.8872C34.3907 44.8669 34.7823 45.2771 34.7823 45.762C34.7823 46.2469 34.372 46.6571 33.8872 46.6571ZM29.3742 41.0253H7.51817C7.03331 41.0253 6.62305 40.6337 6.62305 40.1302C6.62305 39.6266 7.03331 39.235 7.51817 39.235H29.3742C29.8591 39.235 30.2694 39.6266 30.2694 40.1302C30.2694 40.6337 29.8591 41.0253 29.3742 41.0253ZM29.3742 52.2703H7.51817C7.03331 52.2703 6.62305 51.8787 6.62305 51.3752C6.62305 50.8717 7.03331 50.4801 7.51817 50.4801H29.3742C29.8591 50.4801 30.2694 50.8904 30.2694 51.3752C30.2694 51.8601 29.8591 52.2703 29.3742 52.2703ZM33.8872 57.8835H7.51817C7.03331 57.8835 6.62305 57.4919 6.62305 56.9884C6.62305 56.4849 7.03331 56.0933 7.51817 56.0933H33.8872C34.3907 56.0933 34.7823 56.5036 34.7823 56.9884C34.7823 57.4733 34.372 57.8835 33.8872 57.8835Z" fill="url(#paint1_linear_506_7309)"/>
<defs>
<linearGradient id="paint0_linear_506_7309" x1="4.30905" y1="42.7279" x2="63.634" y2="42.7279" gradientUnits="userSpaceOnUse">
<stop stop-color="#374BA8"/>
<stop offset="1" stop-color="#2FB7F0"/>
</linearGradient>
<linearGradient id="paint1_linear_506_7309" x1="10.2331" y1="37.2747" x2="59.979" y2="37.2747" gradientUnits="userSpaceOnUse">
<stop stop-color="#374BA8"/>
<stop offset="1" stop-color="#2FB7F0"/>
</linearGradient>
</defs>
</svg>
