<svg width="67" height="64" viewBox="0 0 67 64" fill="none" xmlns="http://www.w3.org/2000/svg">
<path d="M4.5633 39.2039H61.9338C64.4502 39.2039 66.4971 37.1557 66.4971 34.6393V4.5633C66.4971 2.04689 64.4502 0 61.9338 0H4.5633C2.04689 0 0 2.04689 0 4.5633V34.6393C0 37.1557 2.04702 39.2039 4.5633 39.2039ZM1.38536 4.5633C1.38536 2.8113 2.8113 1.38536 4.5633 1.38536H61.9338C63.6858 1.38536 65.1117 2.8113 65.1117 4.5633V34.6393C65.1117 36.3926 63.6858 37.8185 61.9338 37.8185H4.5633C2.8113 37.8185 1.38536 36.3926 1.38536 34.6393V4.5633Z" fill="url(#paint0_linear_506_7332)"/>
<path d="M5.38018 30.3262C7.308 30.3262 8.87741 31.8956 8.87741 33.8234C8.87737 33.9144 8.89526 34.0044 8.93006 34.0885C8.96486 34.1726 9.01588 34.2489 9.08021 34.3133C9.14454 34.3776 9.22091 34.4286 9.30497 34.4634C9.38902 34.4982 9.47911 34.5161 9.57009 34.5161H56.9265C57.0175 34.5161 57.1076 34.4982 57.1917 34.4634C57.2757 34.4286 57.3521 34.3776 57.4164 34.3133C57.4807 34.2489 57.5318 34.1726 57.5666 34.0885C57.6014 34.0044 57.6193 33.9144 57.6192 33.8234C57.6192 31.8956 59.1886 30.3262 61.1164 30.3262C61.2074 30.3262 61.2975 30.3083 61.3816 30.2735C61.4656 30.2387 61.542 30.1877 61.6063 30.1234C61.6707 30.059 61.7217 29.9827 61.7565 29.8986C61.7913 29.8145 61.8092 29.7244 61.8091 29.6335V9.57009C61.8092 9.47911 61.7913 9.38902 61.7565 9.30497C61.7217 9.22091 61.6707 9.14454 61.6063 9.08021C61.542 9.01588 61.4656 8.96486 61.3816 8.93006C61.2975 8.89526 61.2074 8.87737 61.1164 8.87741C59.1886 8.87741 57.6192 7.308 57.6192 5.38018C57.6193 5.2892 57.6014 5.19911 57.5666 5.11504C57.5318 5.03098 57.4808 4.9546 57.4165 4.89027C57.3521 4.82593 57.2757 4.77491 57.1917 4.74012C57.1076 4.70533 57.0175 4.68745 56.9265 4.6875H9.57009C9.47911 4.68747 9.38902 4.70536 9.30497 4.74016C9.22091 4.77495 9.14454 4.82598 9.08021 4.8903C9.01588 4.95463 8.96486 5.03101 8.93006 5.11506C8.89526 5.19912 8.87737 5.28921 8.87741 5.38018C8.87741 7.308 7.308 8.87741 5.38018 8.87741C5.28921 8.87737 5.19912 8.89526 5.11506 8.93006C5.03101 8.96486 4.95463 9.01588 4.8903 9.08021C4.82598 9.14454 4.77495 9.22091 4.74016 9.30497C4.70536 9.38902 4.68747 9.47911 4.6875 9.57009V29.6333C4.68745 29.7243 4.70533 29.8144 4.74012 29.8985C4.77491 29.9826 4.82593 30.059 4.89026 30.1233C4.95459 30.1877 5.03097 30.2387 5.11503 30.2735C5.1991 30.3083 5.2892 30.3262 5.38018 30.3262ZM6.07286 10.2141C8.21177 9.90834 9.90834 8.21177 10.2141 6.07286H56.2826C56.5884 8.21177 58.285 9.90834 60.4239 10.2141V28.9895C58.285 29.2952 56.5884 30.9918 56.2826 33.1307H10.2141C9.90834 30.9918 8.21177 29.2952 6.07286 28.9895V10.2141Z" fill="url(#paint1_linear_506_7332)"/>
<path d="M33.2183 23.7725C31.9087 23.7631 30.8494 22.9743 30.8561 22.0138C30.8574 21.8301 30.7858 21.6535 30.6569 21.5226C30.5281 21.3917 30.3525 21.3173 30.1689 21.3157H30.1635C29.9807 21.3157 29.8053 21.3879 29.6756 21.5166C29.5459 21.6454 29.4722 21.8201 29.4708 22.0029C29.4599 23.5304 30.7751 24.8104 32.5153 25.0946L32.5108 25.6761C32.5101 25.7671 32.5272 25.8573 32.5614 25.9416C32.5955 26.0259 32.6459 26.1027 32.7098 26.1676C32.7736 26.2324 32.8496 26.284 32.9333 26.3195C33.0171 26.3549 33.1071 26.3735 33.198 26.3742H33.2035C33.3862 26.3742 33.5616 26.3019 33.6913 26.1732C33.8211 26.0445 33.8947 25.8697 33.8962 25.687L33.9007 25.1067C35.5776 24.8618 36.9777 23.6671 36.9903 22.0585C37.0025 20.3363 35.3262 18.9239 33.2536 18.9089C31.944 18.8995 30.8846 18.1107 30.8914 17.1501C30.8995 16.2153 31.9778 15.432 33.2536 15.432H33.278C34.5646 15.4414 35.647 16.2437 35.6402 17.184C35.6389 17.3676 35.7106 17.5443 35.8394 17.6752C35.9683 17.806 36.1438 17.8805 36.3274 17.8821H36.3329C36.5156 17.882 36.691 17.8098 36.8207 17.6811C36.9505 17.5524 37.0241 17.3776 37.0256 17.1948C37.0364 15.6709 35.7212 14.3936 33.981 14.1098L33.9855 13.5272C33.9863 13.4362 33.9691 13.346 33.935 13.2617C33.9008 13.1774 33.8504 13.1006 33.7866 13.0357C33.7228 12.9709 33.6468 12.9193 33.563 12.8838C33.4792 12.8484 33.3893 12.8298 33.2983 12.8291H33.2929C33.1101 12.8291 32.9347 12.9014 32.805 13.0301C32.6753 13.1588 32.6016 13.3336 32.6002 13.5163L32.5957 14.1015C30.8527 14.3595 29.5182 15.6152 29.5062 17.1394C29.494 18.8643 31.1703 20.2794 33.2429 20.2944C34.5308 20.3038 35.6118 21.1062 35.6051 22.0477C35.598 23.1245 34.3339 23.7776 33.2183 23.7725Z" fill="url(#paint2_linear_506_7332)"/>
<path d="M33.2498 30.185C38.1757 30.185 42.1843 25.4376 42.1843 19.6027C42.1843 13.7678 38.1757 9.02051 33.2498 9.02051C28.324 9.02051 24.3167 13.7678 24.3167 19.6027C24.3167 25.4376 28.324 30.185 33.2498 30.185ZM33.2498 10.4059C37.4127 10.4059 40.7989 14.5321 40.7989 19.6027C40.7989 24.6734 37.4127 28.7996 33.2498 28.7996C29.0883 28.7996 25.7021 24.6734 25.7021 19.6027C25.7021 14.5321 29.0883 10.4059 33.2498 10.4059ZM17.8526 23.3124C20.135 23.3124 21.9924 21.4616 21.9924 19.1874C21.9924 16.9037 20.1349 15.0462 17.8526 15.0462C15.5689 15.0462 13.7114 16.9037 13.7114 19.1874C13.7114 21.4616 15.5689 23.3124 17.8526 23.3124ZM17.8526 16.4316C19.3719 16.4316 20.6071 17.6682 20.6071 19.1874C20.6071 20.6986 19.3719 21.927 17.8526 21.927C16.3334 21.927 15.0968 20.6986 15.0968 19.1874C15.0968 17.6682 16.3334 16.4316 17.8526 16.4316ZM48.6484 23.3124C50.9307 23.3124 52.7881 21.4616 52.7881 19.1874C52.7881 16.9037 50.9306 15.0462 48.6484 15.0462C46.3647 15.0462 44.5071 16.9037 44.5071 19.1874C44.5073 21.4616 46.3648 23.3124 48.6484 23.3124ZM48.6484 16.4316C50.1676 16.4316 51.4028 17.6682 51.4028 19.1874C51.4028 20.6986 50.1676 21.927 48.6484 21.927C47.1291 21.927 45.8925 20.6986 45.8925 19.1874C45.8926 17.6682 47.1291 16.4316 48.6484 16.4316ZM35.6769 43.2025H30.8227C30.7317 43.2024 30.6416 43.2203 30.5575 43.2551C30.4735 43.2899 30.3971 43.3409 30.3328 43.4053C30.2685 43.4696 30.2174 43.546 30.1826 43.63C30.1478 43.7141 30.1299 43.8042 30.13 43.8951V53.5657H27.5108C26.9611 53.5657 26.6285 54.1801 26.9331 54.6398L32.6639 63.3051C32.9376 63.7197 33.5451 63.7189 33.8192 63.3064L39.5663 54.6411C39.8693 54.1837 39.5422 53.5657 38.9886 53.5657H36.3694V43.8951C36.3695 43.8042 36.3516 43.7141 36.3169 43.63C36.2821 43.546 36.2311 43.4696 36.1667 43.4052C36.1024 43.3409 36.0261 43.2899 35.942 43.2551C35.8579 43.2203 35.7678 43.2024 35.6769 43.2025ZM37.6982 54.951L33.2431 61.6694L28.7989 54.951H30.8228C30.9138 54.9511 31.0039 54.9332 31.0879 54.8984C31.172 54.8636 31.2484 54.8126 31.3127 54.7482C31.377 54.6839 31.4281 54.6075 31.4629 54.5235C31.4977 54.4394 31.5155 54.3493 31.5155 54.2583V44.588H34.9843V54.2583C34.9843 54.3493 35.0022 54.4394 35.037 54.5235C35.0718 54.6075 35.1228 54.6839 35.1871 54.7482C35.2515 54.8125 35.3278 54.8636 35.4119 54.8984C35.4959 54.9332 35.586 54.951 35.677 54.951H37.6982ZM16.0573 41.134H11.2045C11.1136 41.1339 11.0235 41.1518 10.9394 41.1866C10.8553 41.2214 10.779 41.2724 10.7146 41.3367C10.6503 41.4011 10.5993 41.4774 10.5645 41.5615C10.5297 41.6456 10.5118 41.7357 10.5119 41.8266V51.497H7.89268C7.34294 51.497 7.01039 52.1115 7.31496 52.5712L13.0458 61.2365C13.3194 61.6511 13.927 61.6503 14.2011 61.2378L19.9467 52.5725C20.2497 52.1151 19.9226 51.497 19.369 51.497H16.7498V41.8266C16.7499 41.7357 16.7321 41.6456 16.6973 41.5615C16.6625 41.4774 16.6115 41.401 16.5472 41.3367C16.4829 41.2724 16.4065 41.2213 16.3224 41.1866C16.2384 41.1518 16.1483 41.1339 16.0573 41.134ZM18.0786 52.8824L13.6249 59.6008L9.18072 52.8824H11.2047C11.2956 52.8824 11.3857 52.8646 11.4698 52.8298C11.5539 52.795 11.6303 52.744 11.6946 52.6796C11.7589 52.6153 11.8099 52.5389 11.8447 52.4548C11.8795 52.3708 11.8974 52.2807 11.8974 52.1897V42.5193H15.3647V52.1897C15.3647 52.2807 15.3826 52.3708 15.4174 52.4548C15.4522 52.5389 15.5032 52.6153 15.5675 52.6796C15.6319 52.7439 15.7082 52.7949 15.7923 52.8297C15.8764 52.8645 15.9664 52.8824 16.0574 52.8824H18.0786ZM55.2951 41.134H50.4409C50.3499 41.1339 50.2599 41.1518 50.1758 41.1866C50.0917 41.2214 50.0153 41.2724 49.951 41.3367C49.8867 41.4011 49.8357 41.4774 49.8009 41.5615C49.7661 41.6456 49.7482 41.7357 49.7482 41.8266V51.497H47.1304C46.5807 51.497 46.2481 52.1115 46.5527 52.5712L52.2835 61.2365C52.5572 61.6511 53.1647 61.6503 53.4388 61.2378L59.1845 52.5725C59.4874 52.1151 59.1603 51.497 58.6067 51.497H55.9876V41.8266C55.9877 41.7357 55.9698 41.6456 55.9351 41.5615C55.9003 41.4774 55.8493 41.4011 55.785 41.3367C55.7207 41.2724 55.6443 41.2213 55.5603 41.1866C55.4762 41.1518 55.3861 41.1339 55.2951 41.134ZM57.3163 52.8824L52.8625 59.6008L48.4183 52.8824H50.4409C50.5319 52.8824 50.622 52.8646 50.7061 52.8298C50.7901 52.795 50.8665 52.744 50.9308 52.6796C50.9952 52.6153 51.0462 52.5389 51.081 52.4548C51.1158 52.3708 51.1337 52.2807 51.1336 52.1897V42.5193H54.6025V52.1897C54.6024 52.2807 54.6203 52.3708 54.6551 52.4548C54.6899 52.5389 54.7409 52.6153 54.8053 52.6796C54.8696 52.7439 54.946 52.7949 55.03 52.8297C55.1141 52.8645 55.2042 52.8824 55.2951 52.8824H57.3163Z" fill="url(#paint3_linear_506_7332)"/>
<defs>
<linearGradient id="paint0_linear_506_7332" x1="3.49132" y1="23.3687" x2="51.6017" y2="23.3688" gradientUnits="userSpaceOnUse">
<stop stop-color="#374BA8"/>
<stop offset="1" stop-color="#2FB7F0"/>
</linearGradient>
<linearGradient id="paint1_linear_506_7332" x1="7.68658" y1="22.4678" x2="49.0139" y2="22.4678" gradientUnits="userSpaceOnUse">
<stop stop-color="#374BA8"/>
<stop offset="1" stop-color="#2FB7F0"/>
</linearGradient>
<linearGradient id="paint2_linear_506_7332" x1="29.8674" y1="20.9031" x2="35.3333" y2="20.9031" gradientUnits="userSpaceOnUse">
<stop stop-color="#374BA8"/>
<stop offset="1" stop-color="#2FB7F0"/>
</linearGradient>
<linearGradient id="paint3_linear_506_7332" x1="9.93469" y1="41.5639" x2="47.6295" y2="41.5639" gradientUnits="userSpaceOnUse">
<stop stop-color="#374BA8"/>
<stop offset="1" stop-color="#2FB7F0"/>
</linearGradient>
</defs>
</svg>
