<svg width="66" height="68" viewBox="0 0 66 68" fill="none" xmlns="http://www.w3.org/2000/svg">
<path d="M39.5877 50.9626V33.2673C41.6991 33.9741 43.9847 34.362 46.3705 34.362C48.2637 34.362 50.1316 34.1187 51.9302 33.6387L59.7864 40.0226C59.9376 40.1455 60.1231 40.2186 60.3175 40.2319C60.512 40.2451 60.7057 40.1979 60.8722 40.0967C61.0387 39.9955 61.1699 39.8452 61.2477 39.6666C61.3255 39.4879 61.3461 39.2896 61.3068 39.0988L59.4005 29.8649C63.4022 26.6114 65.6847 22.0204 65.6847 17.181C65.6847 7.70727 57.0203 0 46.3705 0C35.7206 0 27.0562 7.7074 27.0562 17.181C27.0562 19.9576 27.8014 22.582 29.1219 24.9057H5.26916C2.58346 24.9057 0.39854 27.0906 0.39854 29.7763V50.9625C0.39854 53.6482 2.58346 55.8331 5.26916 55.8331H8.33299V64.2957C8.33302 64.4878 8.39167 64.6754 8.50111 64.8333C8.61054 64.9913 8.76555 65.1121 8.94545 65.1796C9.12534 65.2471 9.32155 65.2582 9.50788 65.2113C9.69422 65.1644 9.86181 65.0617 9.98828 64.9171L17.9289 55.8329H34.7169C37.4026 55.8329 39.5876 53.648 39.5876 50.9623L39.5877 50.9626ZM46.3706 1.88867C55.9791 1.88867 63.7962 8.74887 63.7962 17.181C63.7962 21.6125 61.6054 25.823 57.7855 28.7329C57.6439 28.8408 57.5357 28.9864 57.4733 29.1531C57.411 29.3198 57.397 29.5007 57.4329 29.675L58.9216 36.886L52.742 31.8646C52.6233 31.7682 52.483 31.702 52.333 31.6718C52.1831 31.6416 52.0281 31.6483 51.8813 31.6913C50.1079 32.2101 48.2539 32.4732 46.3705 32.4732C36.762 32.4732 28.9449 25.6131 28.9449 17.181C28.9449 8.74887 36.762 1.88867 46.3705 1.88867H46.3706ZM34.7171 53.9445H17.5002C17.2277 53.9445 16.9685 54.0622 16.7891 54.2675L10.2215 61.7808V54.8889C10.2215 54.6384 10.122 54.3982 9.94494 54.2211C9.76784 54.044 9.52764 53.9445 9.27719 53.9445H5.26902C3.6248 53.9445 2.28708 52.6068 2.28708 50.9626V29.7764C2.28708 28.1322 3.6248 26.7945 5.26902 26.7945H30.3702C32.2169 29.2188 34.7414 31.2025 37.6989 32.5301V50.9627C37.6989 52.607 36.3612 53.9447 34.7169 53.9447L34.7171 53.9445ZM0.94005 20.2244C1.13526 20.3165 1.35613 20.339 1.56587 20.288C1.7756 20.237 1.96153 20.1157 2.09268 19.9442C5.6879 15.2467 10.6381 12.1436 15.2169 11.6608L15.3186 13.7669C15.3311 14.0332 15.416 14.2909 15.5642 14.5124C15.7124 14.7339 15.9183 14.9107 16.1596 15.0237C16.4006 15.1374 16.6679 15.1831 16.9329 15.156C17.1979 15.1288 17.4504 15.0299 17.6633 14.8698L26.2945 8.39812C26.6871 8.10348 26.9004 7.65331 26.8796 7.16212C26.8586 6.67174 26.6077 6.24139 26.1911 5.98089L16.9704 0.224752C16.7434 0.0825275 16.4817 0.00535391 16.2138 0.00164293C15.9459 -0.00206804 15.6822 0.0678259 15.4513 0.203707C15.2201 0.338847 15.0304 0.534875 14.903 0.770411C14.7756 1.00595 14.7153 1.27195 14.7287 1.5394L14.8442 3.93478C7.56659 4.97746 2.46731 10.3309 0.43429 19.1081L0.422823 19.1571C0.374098 19.3673 0.39885 19.5879 0.492958 19.7821C0.587066 19.9763 0.744853 20.1324 0.94005 20.2244ZM15.9172 5.70946C16.1594 5.68698 16.3836 5.57193 16.543 5.38827C16.7025 5.20461 16.7849 4.96651 16.7732 4.72357L16.6539 2.25332L24.6687 7.25682L17.1669 12.8816L17.0572 10.6092C17.0324 10.0959 16.6025 9.69955 16.088 9.71088C11.8644 9.82676 7.29908 11.9958 3.51094 15.5612C5.41607 10.8376 9.03935 6.34688 15.9172 5.70946ZM62.9575 47.7679C62.7622 47.6759 62.5414 47.6535 62.3316 47.7044C62.1219 47.7554 61.936 47.8767 61.8048 48.0481C58.2095 52.7456 53.2594 55.8487 48.6806 56.3316L48.5788 54.2247C48.5663 53.9587 48.4814 53.7012 48.3333 53.4798C48.1852 53.2585 47.9795 53.0818 47.7384 52.9688C47.4975 52.855 47.2301 52.8092 46.965 52.8362C46.6999 52.8633 46.4473 52.9622 46.2343 53.1223L37.6032 59.5937C37.2101 59.8886 36.9967 60.339 37.0179 60.8293C37.0385 61.3203 37.2897 61.7511 37.7064 62.0112L46.9275 67.7677C47.1603 67.9135 47.4294 67.9909 47.7041 67.991C47.9599 67.991 48.2161 67.9237 48.446 67.7888C48.6773 67.6537 48.8671 67.4577 48.9946 67.2221C49.1221 66.9865 49.1824 66.7205 49.1689 66.4529L49.0534 64.0574C56.3313 63.0148 61.4307 57.6613 63.4635 48.8838L63.4748 48.8353C63.5235 48.625 63.4988 48.4045 63.4047 48.2103C63.3106 48.0161 63.1528 47.8599 62.9576 47.7679H62.9575ZM47.9804 62.2828C47.7382 62.3052 47.514 62.4202 47.3545 62.6039C47.195 62.7876 47.1126 63.0257 47.1243 63.2686L47.2434 65.7389L39.2288 60.7354L46.7306 55.1108L46.8403 57.3829C46.8652 57.8963 47.3017 58.2991 47.8095 58.2813C52.033 58.1655 56.5986 55.9963 60.3866 52.4309C58.4817 57.1546 54.8583 61.6455 47.9803 62.2829L47.9804 62.2828ZM32.7955 48.0187C32.7955 48.2691 32.696 48.5093 32.5189 48.6864C32.3418 48.8635 32.1016 48.963 31.8511 48.963H8.13495C7.88449 48.963 7.6443 48.8635 7.4672 48.6864C7.2901 48.5093 7.19061 48.2691 7.19061 48.0187C7.19061 47.7682 7.2901 47.528 7.4672 47.3509C7.6443 47.1739 7.88449 47.0744 8.13495 47.0744H31.8513C32.1017 47.0744 32.3419 47.1739 32.519 47.3509C32.6961 47.528 32.7956 47.7682 32.7956 48.0187H32.7955ZM7.19048 37.8199C7.19048 37.5694 7.28997 37.3292 7.46707 37.1521C7.64416 36.975 7.88436 36.8755 8.13481 36.8755H20.9295C21.1799 36.8755 21.4201 36.975 21.5972 37.1521C21.7743 37.3292 21.8738 37.5694 21.8738 37.8199C21.8738 38.0703 21.7743 38.3105 21.5972 38.4876C21.4201 38.6647 21.1799 38.7642 20.9295 38.7642H8.13481C7.88436 38.7642 7.64416 38.6647 7.46707 38.4876C7.28997 38.3105 7.19048 38.0703 7.19048 37.8199ZM32.7955 37.8199C32.7955 38.0703 32.696 38.3105 32.5189 38.4876C32.3418 38.6647 32.1016 38.7642 31.8511 38.7642H25.7861C25.5356 38.7642 25.2954 38.6647 25.1183 38.4876C24.9412 38.3105 24.8417 38.0703 24.8417 37.8199C24.8417 37.5694 24.9412 37.3292 25.1183 37.1521C25.2954 36.975 25.5356 36.8755 25.7861 36.8755H31.8511C32.1016 36.8755 32.3418 36.975 32.5189 37.1521C32.696 37.3292 32.7955 37.5694 32.7955 37.8199ZM32.7955 42.9193C32.7955 43.1697 32.696 43.4099 32.5189 43.587C32.3418 43.7641 32.1016 43.8636 31.8511 43.8636H8.13495C8.01094 43.8636 7.88814 43.8392 7.77357 43.7917C7.65899 43.7443 7.55489 43.6747 7.4672 43.587C7.37951 43.4993 7.30995 43.3952 7.2625 43.2807C7.21504 43.1661 7.19061 43.0433 7.19061 42.9193C7.19061 42.7953 7.21504 42.6725 7.2625 42.5579C7.30995 42.4433 7.37951 42.3392 7.4672 42.2515C7.55489 42.1638 7.65899 42.0943 7.77357 42.0468C7.88814 41.9994 8.01094 41.9749 8.13495 41.9749H31.8513C32.1017 41.9749 32.3419 42.0744 32.519 42.2515C32.6961 42.4286 32.7956 42.6688 32.7956 42.9193H32.7955ZM32.7955 32.7203C32.7955 32.9708 32.696 33.211 32.5189 33.3881C32.3418 33.5652 32.1016 33.6646 31.8511 33.6646H8.13495C7.88449 33.6646 7.6443 33.5652 7.4672 33.3881C7.2901 33.211 7.19061 32.9708 7.19061 32.7203C7.19061 32.4699 7.2901 32.2297 7.4672 32.0526C7.6443 31.8755 7.88449 31.776 8.13495 31.776H31.8513C32.1017 31.776 32.3419 31.8755 32.519 32.0526C32.6961 32.2297 32.7956 32.4699 32.7956 32.7203H32.7955ZM34.1194 14.6313C34.1194 14.3808 34.2189 14.1406 34.396 13.9635C34.5731 13.7864 34.8133 13.6869 35.0638 13.6869H47.2634C47.3874 13.6869 47.5102 13.7114 47.6248 13.7588C47.7393 13.8063 47.8434 13.8758 47.9311 13.9635C48.0188 14.0512 48.0884 14.1553 48.1358 14.2699C48.1833 14.3845 48.2077 14.5073 48.2077 14.6313C48.2077 14.7553 48.1833 14.8781 48.1358 14.9927C48.0884 15.1072 48.0188 15.2113 47.9311 15.299C47.8434 15.3867 47.7393 15.4563 47.6248 15.5037C47.5102 15.5512 47.3874 15.5756 47.2634 15.5756H35.0638C34.8133 15.5756 34.5731 15.4761 34.396 15.299C34.2189 15.1219 34.1194 14.8817 34.1194 14.6313ZM34.1194 19.7307C34.1194 19.4802 34.2189 19.24 34.396 19.0629C34.5731 18.8859 34.8133 18.7864 35.0638 18.7864H57.677C57.9274 18.7864 58.1676 18.8859 58.3447 19.0629C58.5218 19.24 58.6213 19.4802 58.6213 19.7307C58.6213 19.9811 58.5218 20.2213 58.3447 20.3984C58.1676 20.5755 57.9274 20.675 57.677 20.675H35.0638C34.8133 20.675 34.5731 20.5755 34.396 20.3984C34.2189 20.2213 34.1194 19.9811 34.1194 19.7307ZM55.4864 24.8301C55.4864 25.0806 55.3869 25.3208 55.2098 25.4979C55.0327 25.675 54.7925 25.7744 54.5421 25.7744H38.1988C37.9484 25.7744 37.7082 25.675 37.5311 25.4979C37.354 25.3208 37.2545 25.0806 37.2545 24.8301C37.2545 24.5797 37.354 24.3395 37.5311 24.1624C37.7082 23.9853 37.9484 23.8858 38.1988 23.8858H54.5421C54.7925 23.8858 55.0327 23.9853 55.2098 24.1624C55.3869 24.3395 55.4864 24.5797 55.4864 24.8301ZM37.2545 9.53186C37.2545 9.28141 37.354 9.04121 37.5311 8.86411C37.7082 8.68702 37.9484 8.58753 38.1988 8.58753H54.5421C54.6661 8.58753 54.7889 8.61195 54.9034 8.65941C55.018 8.70687 55.1221 8.77642 55.2098 8.86411C55.2975 8.9518 55.3671 9.05591 55.4145 9.17048C55.462 9.28505 55.4864 9.40785 55.4864 9.53186C55.4864 9.65587 55.462 9.77867 55.4145 9.89324C55.3671 10.0078 55.2975 10.1119 55.2098 10.1996C55.1221 10.2873 55.018 10.3569 54.9034 10.4043C54.7889 10.4518 54.6661 10.4762 54.5421 10.4762H38.1988C37.9484 10.4762 37.7082 10.3767 37.5311 10.1996C37.354 10.0225 37.2545 9.78232 37.2545 9.53186ZM51.894 13.6871H57.677C57.801 13.6871 57.9238 13.7115 58.0384 13.759C58.1529 13.8064 58.257 13.876 58.3447 13.9637C58.4324 14.0514 58.502 14.1555 58.5494 14.27C58.5969 14.3846 58.6213 14.5074 58.6213 14.6314C58.6213 14.7554 58.5969 14.8782 58.5494 14.9928C58.502 15.1074 58.4324 15.2115 58.3447 15.2992C58.257 15.3868 58.1529 15.4564 58.0384 15.5039C57.9238 15.5513 57.801 15.5757 57.677 15.5757H51.894C51.77 15.5757 51.6472 15.5513 51.5326 15.5039C51.4181 15.4564 51.314 15.3868 51.2263 15.2992C51.1386 15.2115 51.069 15.1074 51.0216 14.9928C50.9741 14.8782 50.9497 14.7554 50.9497 14.6314C50.9497 14.5074 50.9741 14.3846 51.0216 14.27C51.069 14.1555 51.1386 14.0514 51.2263 13.9637C51.314 13.876 51.4181 13.8064 51.5326 13.759C51.6472 13.7115 51.77 13.6871 51.894 13.6871Z" fill="url(#paint0_linear_506_7341)"/>
<defs>
<linearGradient id="paint0_linear_506_7341" x1="-1.01831" y1="43.9191" x2="61.3185" y2="43.9191" gradientUnits="userSpaceOnUse">
<stop stop-color="#374BA8"/>
<stop offset="1" stop-color="#2FB7F0"/>
</linearGradient>
</defs>
</svg>
