<svg width="66" height="66" viewBox="0 0 66 66" fill="none" xmlns="http://www.w3.org/2000/svg">
<path d="M64.6225 31.6237H63.1779C62.4724 16.0437 49.9538 3.52493 34.3736 2.81946V1.37499C34.3737 0.614988 33.7587 0 32.9987 0C32.2387 0 31.6237 0.614988 31.6237 1.37499V2.81959C16.0437 3.52506 3.52493 16.0437 2.81946 31.6239H1.37499C0.614988 31.6237 0 32.2387 0 32.9987C0 33.7587 0.614988 34.3737 1.37499 34.3737H2.81959C3.52506 49.9538 16.0437 62.4725 31.6239 63.178V64.6226C31.6239 65.3826 32.2389 65.9976 32.9989 65.9976C33.7589 65.9976 34.3738 65.3826 34.3738 64.6226V63.178C49.9539 62.4725 62.4726 49.9539 63.1781 34.3737H64.6227C65.3827 34.3737 65.9977 33.7587 65.9977 32.9987C65.9977 32.2387 65.3825 31.6237 64.6225 31.6237ZM56.3728 34.3737H60.428C59.7274 48.4383 48.4381 59.7274 34.3737 60.428V56.3728C34.3737 55.6128 33.7587 54.9978 32.9987 54.9978C32.2387 54.9978 31.6237 55.6128 31.6237 56.3728V60.428C17.5592 59.7274 6.27002 48.4381 5.56944 34.3737H9.62467C10.3847 34.3737 10.9997 33.7587 10.9997 32.9987C10.9997 32.2387 10.3847 31.6237 9.62467 31.6237H5.56944C6.27002 17.5592 17.5593 6.27002 31.6237 5.56944V9.62467C31.6237 10.3847 32.2387 10.9997 32.9987 10.9997C33.7587 10.9997 34.3737 10.3847 34.3737 9.62467V5.56944C48.4383 6.27002 59.7274 17.5593 60.428 31.6237H56.3728C55.6128 31.6237 54.9978 32.2387 54.9978 32.9987C54.9978 33.7587 55.6129 34.3737 56.3728 34.3737Z" fill="url(#paint0_linear_506_7348)"/>
<path d="M32.9995 32.9985C36.79 32.9985 39.8742 29.9143 39.8742 26.1238C39.8742 22.3334 36.79 19.249 32.9995 19.249C29.2091 19.249 26.1248 22.3332 26.1248 26.1237C26.1248 29.9142 29.2091 32.9985 32.9995 32.9985ZM32.9995 21.999C35.2741 21.999 37.1244 23.8493 37.1244 26.1238C37.1244 28.3984 35.2741 30.2487 32.9995 30.2487C30.7249 30.2487 28.8747 28.3984 28.8747 26.1238C28.8747 23.8493 30.7249 21.999 32.9995 21.999ZM42.4039 37.2106C40.2086 35.9162 36.7954 34.3735 32.9995 34.3735C29.2036 34.3735 25.7905 35.9163 23.5951 37.2106C21.7623 38.2916 20.625 40.3902 20.625 42.6877V43.5684C20.625 45.322 21.9462 46.748 23.5709 46.748H42.4281C44.0528 46.748 45.374 45.322 45.374 43.5684V42.6877C45.374 40.3902 44.2367 38.2916 42.4039 37.2106ZM42.6242 43.5684C42.6242 43.8545 42.4618 43.9981 42.4281 43.9981H23.5709C23.5374 43.9981 23.3748 43.8543 23.3748 43.5684V42.6877C23.3748 41.3785 24.0099 40.1593 24.9915 39.5792C26.8915 38.4594 29.824 37.1234 32.9995 37.1234C36.175 37.1234 39.1075 38.4594 41.0075 39.5792C41.9891 40.1593 42.6242 41.3784 42.6242 42.6877V43.5684Z" fill="url(#paint1_linear_506_7348)"/>
<defs>
<linearGradient id="paint0_linear_506_7348" x1="3.4651" y1="39.34" x2="51.2142" y2="39.34" gradientUnits="userSpaceOnUse">
<stop stop-color="#374BA8"/>
<stop offset="1" stop-color="#2FB7F0"/>
</linearGradient>
<linearGradient id="paint1_linear_506_7348" x1="21.9244" y1="35.6407" x2="39.8303" y2="35.6407" gradientUnits="userSpaceOnUse">
<stop stop-color="#374BA8"/>
<stop offset="1" stop-color="#2FB7F0"/>
</linearGradient>
</defs>
</svg>
