<svg width="46" height="61" viewBox="0 0 46 61" fill="none" xmlns="http://www.w3.org/2000/svg">
<path d="M16.8926 31.6162V26.8965C16.8926 26.7913 16.9482 26.7007 17.0396 26.6562C17.0833 26.6344 17.1326 26.6264 17.1809 26.6333C17.2292 26.6401 17.2743 26.6616 17.3102 26.6947C20.4895 29.5098 25.0952 29.5098 28.2745 26.6947C28.3104 26.6617 28.3554 26.6403 28.4036 26.6334C28.4519 26.6265 28.5011 26.6345 28.5447 26.6562C28.6369 26.7007 28.6917 26.7913 28.6917 26.8965V31.6162C28.6924 31.6507 28.6862 31.6851 28.6735 31.7173C28.6608 31.7495 28.6419 31.7789 28.6178 31.8037C27.4061 33.0694 25.9505 34.0999 24.2525 34.4706C22.9952 34.7455 21.7271 34.6247 20.5189 34.183C19.5945 33.8449 18.7217 33.328 17.945 32.7063C17.6125 32.4401 17.2458 32.1195 16.9598 31.7961C16.9154 31.7468 16.8914 31.6825 16.8926 31.6162Z" fill="#F9C5B8"/>
<path fill-rule="evenodd" clip-rule="evenodd" d="M16.838 31.3513H16.8916C16.9683 31.3513 17.0346 31.3803 17.0863 31.4368C17.364 31.7375 17.7259 32.0386 18.0485 32.2857C18.8152 32.8733 19.6781 33.3635 20.591 33.6829C21.7634 34.0933 22.9878 34.2074 24.2086 33.9519C25.8792 33.6027 27.3129 32.6198 28.5036 31.4292C28.5279 31.4041 28.557 31.3843 28.5893 31.3709C28.6215 31.3575 28.6562 31.3508 28.6911 31.3513H28.7447C28.8309 31.3513 28.9052 31.3887 28.9569 31.4574C29.0085 31.5265 29.0232 31.6084 28.9994 31.6906L23.0458 52.0768C23.0302 52.132 22.9969 52.1807 22.9509 52.2151C22.905 52.2496 22.849 52.268 22.7916 52.2675C22.7341 52.268 22.6781 52.2496 22.6322 52.2151C22.5862 52.1807 22.5529 52.132 22.5373 52.0768L16.5837 31.691C16.5716 31.6516 16.569 31.6099 16.5764 31.5693C16.5837 31.5287 16.6007 31.4905 16.6258 31.4578C16.6501 31.4244 16.6821 31.3974 16.719 31.3789C16.7559 31.3604 16.7967 31.3507 16.838 31.3513Z" fill="#EBF0F1"/>
<path fill-rule="evenodd" clip-rule="evenodd" d="M29.4471 40.7822L30.0983 44.5762C30.1059 44.6169 30.1035 44.6589 30.0914 44.6985C30.0793 44.7382 30.0578 44.7743 30.0288 44.8038L22.9827 52.1852C22.942 52.2287 22.8877 52.257 22.8288 52.2655C22.7699 52.274 22.7098 52.2622 22.6585 52.2321C22.6067 52.2028 22.5664 52.1567 22.5443 52.1015C22.5221 52.0463 22.5194 51.9852 22.5366 51.9282L28.4901 31.542C28.5057 31.4867 28.539 31.4381 28.585 31.4037C28.6309 31.3692 28.6869 31.3508 28.7444 31.3513H30.2024C30.3148 31.3513 30.4109 31.4181 30.4503 31.5233L33.0397 38.424C33.062 38.4825 33.0628 38.5469 33.0419 38.6059C33.021 38.6648 32.9798 38.7144 32.9257 38.7458L29.4471 40.7822Z" fill="#617385"/>
<path fill-rule="evenodd" clip-rule="evenodd" d="M16.1349 40.7822L12.6567 38.7454C12.6026 38.714 12.5614 38.6644 12.5405 38.6055C12.5196 38.5465 12.5204 38.482 12.5427 38.4236L15.1321 31.5229C15.1719 31.4181 15.2672 31.3513 15.38 31.3513H16.838C16.9572 31.3513 17.0589 31.4272 17.0923 31.542L23.0458 51.9282C23.063 51.9851 23.0603 52.0463 23.0381 52.1015C23.016 52.1567 22.9757 52.2028 22.9239 52.2321C22.8726 52.2623 22.8126 52.2741 22.7536 52.2657C22.6947 52.2572 22.6404 52.229 22.5997 52.1856L15.5536 44.8042C15.5245 44.7746 15.503 44.7385 15.4909 44.6987C15.4788 44.659 15.4765 44.617 15.4841 44.5762L16.1349 40.7822Z" fill="#6A7F91"/>
<path fill-rule="evenodd" clip-rule="evenodd" d="M13.1172 38.401L16.5612 40.4175C16.6581 40.4743 16.7074 40.5804 16.6883 40.6909L16.0288 44.5345L22.9831 51.8193C23.0069 51.8435 23.0256 51.8721 23.0383 51.9035C23.0509 51.935 23.0571 51.9686 23.0566 52.0025V60.2793C23.0566 60.4255 22.9375 60.5443 22.7917 60.5443H0.264982C0.194737 60.5442 0.127399 60.5162 0.0777276 60.4665C0.0280566 60.4169 0.000105079 60.3495 0 60.2793V38.3867C0 34.5168 3.16509 31.3513 7.03494 31.3513H15.3801C15.4699 31.3513 15.547 31.3918 15.5978 31.4653C15.6228 31.5002 15.6387 31.5408 15.644 31.5834C15.6494 31.626 15.644 31.6693 15.6284 31.7093L13.1172 38.401Z" fill="#788D9E"/>
<path fill-rule="evenodd" clip-rule="evenodd" d="M12.8331 60.5447H11.5078V49.6708C11.512 49.498 11.5837 49.3336 11.7075 49.2128C11.8312 49.092 11.9973 49.0244 12.1703 49.0244C12.3432 49.0244 12.5093 49.092 12.6331 49.2128C12.7568 49.3336 12.8285 49.498 12.8327 49.6708L12.8331 60.5447Z" fill="#617385"/>
<path fill-rule="evenodd" clip-rule="evenodd" d="M32.4664 38.401L29.9556 31.7093C29.9399 31.6693 29.9345 31.6261 29.9397 31.5835C29.945 31.5409 29.9608 31.5003 29.9858 31.4654C30.0097 31.4297 30.0422 31.4007 30.0802 31.3807C30.1182 31.3608 30.1606 31.3507 30.2035 31.3513H38.5486C42.4181 31.3513 45.5836 34.5168 45.5836 38.3867V60.2793C45.5836 60.4255 45.4644 60.5443 45.3186 60.5443H22.7919C22.7218 60.5441 22.6545 60.5161 22.6049 60.4664C22.5553 60.4168 22.5274 60.3495 22.5273 60.2793V52.0025C22.5273 51.9318 22.5516 51.871 22.6004 51.8197L29.5547 44.5345L28.8953 40.6909C28.8855 40.6378 28.8925 40.5829 28.9153 40.534C28.9381 40.485 28.9755 40.4443 29.0224 40.4176L32.4664 38.401Z" fill="#6A7F91"/>
<path fill-rule="evenodd" clip-rule="evenodd" d="M34.0749 60.5447H32.75V49.6708C32.7542 49.498 32.8259 49.3336 32.9497 49.2128C33.0734 49.092 33.2395 49.0244 33.4125 49.0244C33.5854 49.0244 33.7515 49.092 33.8753 49.2128C33.999 49.3336 34.0707 49.498 34.0749 49.6708V60.5447Z" fill="#617385"/>
<path d="M13.0175 7.09448H13.0357L32.5674 7.39323C32.9317 7.39323 33.2268 7.68841 33.2268 8.05271C33.2292 8.61446 33.2308 14.5509 33.2324 15.1437C33.2364 16.9791 33.2384 17.0685 33.2384 17.2127C33.2384 23.1929 30.5393 27.0373 27.0846 28.7336C25.7494 29.3906 24.2813 29.7327 22.7932 29.7336C21.3052 29.7328 19.8371 29.3909 18.5018 28.734C15.0467 27.0377 12.3477 23.1929 12.3477 17.2131C12.3477 17.0657 12.3496 17.045 12.3532 14.8906C12.3544 14.2569 12.356 8.29703 12.3576 7.75436C12.3576 7.39005 12.6536 7.09448 13.0175 7.09448Z" fill="#F9C5B8"/>
<path d="M16.8926 31.0019C22.6876 31.9395 26.5082 30.4358 28.6916 29.0116V27.7431C28.1885 28.124 27.6499 28.456 27.0835 28.7343C25.7484 29.3911 24.2804 29.733 22.7925 29.7338C21.3045 29.7331 19.8364 29.3911 18.5011 28.7343C17.9345 28.4558 17.3959 28.1238 16.8926 27.7427V31.0019Z" fill="#FAB1A6"/>
<path fill-rule="evenodd" clip-rule="evenodd" d="M27.6996 8.40142V2.78872C27.6996 2.42323 27.996 2.12646 28.3619 2.12646H31.0689C31.8873 2.12646 32.631 2.46057 33.1693 2.99928C33.4459 3.27466 33.6655 3.60196 33.8153 3.9624C33.9652 4.32284 34.0424 4.70932 34.0425 5.09967V13.4194C34.0425 13.7849 33.7457 14.0817 33.3799 14.0817C31.817 14.0817 30.3967 13.4428 29.3674 12.4135C28.3384 11.3846 27.6992 9.9643 27.6992 8.40102L27.6996 8.40142Z" fill="#634D55"/>
<path fill-rule="evenodd" clip-rule="evenodd" d="M15.9003 0H26.4197C27.1372 0 27.7887 0.292792 28.2607 0.764754C28.5032 1.0062 28.6956 1.29315 28.8269 1.60914C28.9582 1.92513 29.0258 2.26394 29.0258 2.60612V9.7237C29.0258 10.9227 28.5356 12.0124 27.7466 12.8022C26.9576 13.592 25.8675 14.0814 24.6677 14.0814H14.1491C13.8069 14.0814 13.4681 14.0139 13.1522 13.8826C12.8362 13.7514 12.5492 13.5591 12.3077 13.3167C12.0653 13.0752 11.8729 12.7882 11.7417 12.4722C11.6105 12.1562 11.5429 11.8174 11.543 11.4753V4.35771C11.543 3.15873 12.0328 2.06901 12.8222 1.27962C13.2258 0.874142 13.7055 0.55237 14.2338 0.332777C14.7621 0.113184 15.3282 9.4074e-05 15.9003 0Z" fill="#6E555E"/>
</svg>
