<svg width="53" height="54" viewBox="0 0 53 54" fill="none" xmlns="http://www.w3.org/2000/svg">
<path d="M45.2051 14.5295L46.7639 16.0883L48.3227 14.5295V8.29419H45.2051V14.5295Z" fill="#CCDDFF"/>
<path d="M7.79343 14.5295L6.2346 16.0883L4.67578 14.5295V8.29419H7.79343V14.5295Z" fill="#E6F2FF"/>
<path d="M40.5295 50.3825H53.0001V42.5884L51.857 41.2582L53.0001 39.4707V36.3531L52.0856 34.7943L53.0001 33.2354V30.1178L51.9401 28.559L53.0001 27.0001V23.8825L51.9089 22.3237L53.0001 20.7648V14.5295H40.5295L38.9707 32.456L40.5295 50.3825Z" fill="#99BBFF"/>
<path d="M12.4706 50.3825L6.23529 51.9413L0 50.3825V42.5884L1.24706 41.0295L0 39.4707V36.3531L1.14314 34.7943L0 33.2354V30.1178L1.14314 28.559L0 27.0001V23.8825L1.24706 22.3237L0 20.7648V14.5295H12.4706L14.0294 32.456L12.4706 50.3825Z" fill="#CCDDFF"/>
<path d="M40.5295 53.5H53.0001V50.3823H40.5295L38.9707 51.9411L40.5295 53.5Z" fill="#32393F"/>
<path d="M12.4706 53.5H0V50.3823H12.4706L14.0294 51.9411L12.4706 53.5Z" fill="#474F54"/>
<path d="M12.4707 3.61766V50.3824L15.5884 51.9412L20.2648 50.3824L26.5001 37.9118L28.0589 19.2059L26.5001 3.61766L19.4854 2.05884L12.4707 3.61766Z" fill="#E6F2FF"/>
<path d="M40.5295 3.61765L33.5148 2.05882L26.5001 3.61765V37.9118L32.7354 50.3824L37.4119 51.9412L40.5295 50.3824V3.61765ZM12.4707 0.5V3.61765H26.5001L28.0589 2.05882L26.5001 0.5H12.4707Z" fill="#CCDDFF"/>
<path d="M40.5294 0.5H26.5V3.61765H40.5294V0.5Z" fill="#99BBFF"/>
<path d="M20.2648 53.5H12.4707V50.3823H20.2648L21.8236 51.9411L20.2648 53.5Z" fill="#CCDDFF"/>
<path d="M32.7344 53.5H40.5285V50.3823H32.7344V53.5Z" fill="#99BBFF"/>
<path d="M20.2656 37.9116H26.5009L28.0597 45.7057L26.5009 53.4999H20.2656V37.9116Z" fill="#66CCFF"/>
<path d="M32.7353 37.9117H26.5V53.4999H32.7353V37.9117ZM45.2059 23.8823H53V20.7646H45.2059V23.8823ZM45.2059 30.1176H53V26.9999H45.2059V30.1176ZM45.2059 36.3529H53V33.2352H45.2059V36.3529ZM45.2059 42.5882H53V39.4705H45.2059V42.5882Z" fill="#4596E6"/>
<path d="M7.79412 23.8824H0V20.7648H7.79412V23.8824ZM7.79412 30.1177H0V27.0001H7.79412V30.1177ZM7.79412 36.353H0V33.2354H7.79412V36.353ZM7.79412 42.5883H0V39.4706H7.79412V42.5883ZM24.9412 25.4412V28.5589H26.5L27.2794 27.0001L26.5 25.4412H24.9412ZM24.9412 19.2059V22.3236H26.5L27.2794 20.7648L26.5 19.2059H24.9412ZM24.9412 12.9706V16.0883H26.5L27.2794 14.5295L26.5 12.9706H24.9412ZM24.9412 6.73535V9.853H26.5L27.2794 8.29418L26.5 6.73535H24.9412Z" fill="#66CCFF"/>
<path d="M26.5002 9.853L27.2796 8.29418L26.5002 6.73535H24.9414V9.853H26.5002ZM26.5002 16.0883L27.2796 14.5295L26.5002 12.9706H24.9414V16.0883H26.5002ZM26.5002 22.3236L27.2796 20.7648L26.5002 19.2059H24.9414V22.3236H26.5002ZM26.5002 28.5589L27.2796 27.0001L26.5002 25.4412H24.9414V28.5589H26.5002Z" fill="#66CCFF"/>
<path d="M26.5 25.4412V28.5589H28.0588V25.4412H26.5ZM26.5 19.2059V22.3236H28.0588V19.2059H26.5ZM26.5 12.9706V16.0883H28.0588V12.9706H26.5ZM26.5 6.73535V9.853H28.0588V6.73535H26.5Z" fill="#4596E6"/>
<path d="M31.1758 6.73535H34.2934V9.853H31.1758V6.73535ZM31.1758 12.9706H34.2934V16.0883H31.1758V12.9706ZM31.1758 19.2059H34.2934V22.3236H31.1758V19.2059ZM31.1758 25.4412H34.2934V28.5589H31.1758V25.4412Z" fill="#4596E6"/>
<path d="M18.7051 6.73535H21.8227V9.853H18.7051V6.73535ZM18.7051 12.9706H21.8227V16.0883H18.7051V12.9706ZM18.7051 19.2059H21.8227V22.3236H18.7051V19.2059ZM18.7051 25.4412H21.8227V28.5589H18.7051V25.4412Z" fill="#66CCFF"/>
</svg>
