<svg width="82" height="82" viewBox="0 0 82 82" fill="none" xmlns="http://www.w3.org/2000/svg">
<g clip-path="url(#clip0_506_7308)">
<path fill-rule="evenodd" clip-rule="evenodd" d="M45.9156 7.77744C43.9761 7.77744 42.4097 9.34392 42.4097 11.2834V31.0881C42.4097 33.0275 43.9761 34.594 45.9156 34.594H55.8179C56.0977 34.594 56.3587 34.7245 56.5266 34.9483L61.3192 41.2702L66.1119 34.9483C66.2797 34.7245 66.5408 34.594 66.8206 34.594H76.7229C78.6624 34.594 80.2288 33.0275 80.2288 31.0881V11.2834C80.2288 9.34392 78.6624 7.77744 76.7229 7.77744H45.9156ZM61.3006 43.6385C61.0209 43.6385 60.7598 43.508 60.5919 43.2842L55.3704 36.3843H45.9156C42.9878 36.3843 40.6194 34.0159 40.6194 31.0881V11.2834C40.6194 8.35554 42.9878 5.98718 45.9156 5.98718H76.7043C79.6134 5.98718 82.0005 8.35554 82.0005 11.2834V31.0881C82.0005 33.9973 79.6321 36.3843 76.7043 36.3843H67.2495L62.0279 43.2842C61.8601 43.508 61.5803 43.6385 61.3006 43.6385ZM5.29911 40.1513C3.35966 40.1513 1.79319 41.7177 1.79319 43.6572V63.4619C1.79319 65.4014 3.35966 66.9678 5.29911 66.9678H15.2015C15.4812 66.9678 15.7423 67.0984 15.9101 67.3221L20.7028 73.644L25.4955 67.3221C25.6633 67.0984 25.9244 66.9678 26.2041 66.9678H36.1065C38.0459 66.9678 39.6124 65.4014 39.6124 63.4619V43.6572C39.6124 41.7177 38.0459 40.1513 36.1065 40.1513H5.29911ZM20.7028 76.0124C20.4231 76.0124 20.162 75.8818 19.9941 75.658L14.7726 68.7581H5.29911C2.37129 68.7581 0.00292969 66.3897 0.00292969 63.4619V43.6572C0.00292969 40.7294 2.37129 38.361 5.29911 38.361H36.0878C39.0156 38.361 41.384 40.7294 41.384 43.6572V63.4619C41.384 66.3711 39.0156 68.7581 36.0878 68.7581H26.633L21.3928 75.658C21.2436 75.8818 20.9825 76.0124 20.7028 76.0124Z" fill="url(#paint0_linear_506_7308)"/>
<path fill-rule="evenodd" clip-rule="evenodd" d="M74.5027 19.2647H48.115C47.6115 19.2647 47.2199 18.873 47.2199 18.3695C47.2199 17.866 47.6302 17.4744 48.115 17.4744H74.484C74.9875 17.4744 75.3791 17.8847 75.3791 18.3695C75.3978 18.873 74.9875 19.2647 74.5027 19.2647ZM74.5027 13.6515H52.628C52.1431 13.6515 51.7328 13.2598 51.7328 12.7563C51.7328 12.2528 52.1431 11.8612 52.628 11.8612H74.484C74.9875 11.8612 75.3791 12.2715 75.3791 12.7563C75.3978 13.2598 74.9875 13.6515 74.5027 13.6515ZM74.5027 24.8779H52.628C52.1431 24.8779 51.7328 24.4863 51.7328 23.9827C51.7328 23.4979 52.1431 23.0876 52.628 23.0876H74.484C74.9875 23.0876 75.3791 23.4979 75.3791 23.9827C75.3978 24.4863 74.9875 24.8779 74.5027 24.8779ZM74.5027 30.5097H48.115C47.6115 30.5097 47.2199 30.0995 47.2199 29.6146C47.2199 29.1111 47.6302 28.7195 48.115 28.7195H74.484C74.9875 28.7195 75.3791 29.1111 75.3791 29.6146C75.3978 30.0995 74.9875 30.5097 74.5027 30.5097ZM33.8862 51.6571H7.5172C7.03234 51.6571 6.62207 51.2469 6.62207 50.762C6.62207 50.2585 7.03234 49.8669 7.5172 49.8669H33.8862C34.3897 49.8669 34.7813 50.2771 34.7813 50.762C34.7813 51.2469 34.3711 51.6571 33.8862 51.6571ZM29.3733 46.0253H7.5172C7.03234 46.0253 6.62207 45.6337 6.62207 45.1302C6.62207 44.6266 7.03234 44.235 7.5172 44.235H29.3733C29.8581 44.235 30.2684 44.6266 30.2684 45.1302C30.2684 45.6337 29.8581 46.0253 29.3733 46.0253ZM29.3733 57.2703H7.5172C7.03234 57.2703 6.62207 56.8787 6.62207 56.3752C6.62207 55.8717 7.03234 55.4801 7.5172 55.4801H29.3733C29.8581 55.4801 30.2684 55.8904 30.2684 56.3752C30.2684 56.8601 29.8581 57.2703 29.3733 57.2703ZM33.8862 62.8835H7.5172C7.03234 62.8835 6.62207 62.4919 6.62207 61.9884C6.62207 61.4849 7.03234 61.0933 7.5172 61.0933H33.8862C34.3897 61.0933 34.7813 61.5036 34.7813 61.9884C34.7813 62.4733 34.3711 62.8835 33.8862 62.8835Z" fill="url(#paint1_linear_506_7308)"/>
</g>
<defs>
<linearGradient id="paint0_linear_506_7308" x1="4.30808" y1="47.7279" x2="63.633" y2="47.7279" gradientUnits="userSpaceOnUse">
<stop stop-color="#374BA8"/>
<stop offset="1" stop-color="#2FB7F0"/>
</linearGradient>
<linearGradient id="paint1_linear_506_7308" x1="10.2321" y1="42.2747" x2="59.978" y2="42.2747" gradientUnits="userSpaceOnUse">
<stop stop-color="#374BA8"/>
<stop offset="1" stop-color="#2FB7F0"/>
</linearGradient>
<clipPath id="clip0_506_7308">
<rect width="82" height="82" fill="white"/>
</clipPath>
</defs>
</svg>
