<svg width="71" height="71" viewBox="0 0 71 71" fill="none" xmlns="http://www.w3.org/2000/svg">
<path d="M16.7038 53.5629C19.6237 53.5629 21.9907 51.1959 21.9907 48.2761C21.9907 45.3563 19.6237 42.9893 16.7038 42.9893C13.784 42.9893 11.417 45.3563 11.417 48.2761C11.417 51.1959 13.784 53.5629 16.7038 53.5629Z" stroke="url(#paint0_linear_506_7317)" stroke-width="1.5" stroke-miterlimit="10" stroke-linecap="round" stroke-linejoin="round"/>
<path d="M54.2956 53.5629C57.2155 53.5629 59.5824 51.1959 59.5824 48.2761C59.5824 45.3563 57.2155 42.9893 54.2956 42.9893C51.3758 42.9893 49.0088 45.3563 49.0088 48.2761C49.0088 51.1959 51.3758 53.5629 54.2956 53.5629Z" stroke="url(#paint1_linear_506_7317)" stroke-width="1.5" stroke-miterlimit="10" stroke-linecap="round" stroke-linejoin="round"/>
<path d="M39.1593 53.424H31.8423C27.9221 53.424 24.7441 56.6019 24.7441 60.5221V68.0163C24.7441 69.1121 25.6326 70.0005 26.7284 70.0005H44.2731C45.3689 70.0005 46.2573 69.1121 46.2573 68.0163V60.5221C46.2575 56.6019 43.0795 53.424 39.1593 53.424Z" stroke="url(#paint2_linear_506_7317)" stroke-width="1.5" stroke-miterlimit="10" stroke-linecap="round" stroke-linejoin="round"/>
<path d="M35.501 53.4238C39.0083 53.4238 41.8516 50.5806 41.8516 47.0732C41.8516 43.5659 39.0083 40.7227 35.501 40.7227C31.9936 40.7227 29.1504 43.5659 29.1504 47.0732C29.1504 50.5806 31.9936 53.4238 35.501 53.4238Z" stroke="url(#paint3_linear_506_7317)" stroke-width="1.5" stroke-miterlimit="10" stroke-linecap="round" stroke-linejoin="round"/>
<path d="M57.3418 53.5628H51.2504C48.6328 53.5628 46.4141 55.2655 45.6378 57.6233C46.0468 58.535 46.2579 59.523 46.2572 60.5222V67.1881C46.4856 67.3028 46.7377 67.3626 46.9933 67.3628H61.5991C62.5114 67.3628 63.251 66.6232 63.251 65.7109V59.4719C63.251 56.2084 60.6053 53.5628 57.3418 53.5628ZM24.7439 60.5222C24.7431 59.523 24.9542 58.535 25.3632 57.6233C24.587 55.2655 22.3682 53.5628 19.7506 53.5628H13.6591C10.3954 53.5628 7.74992 56.2084 7.74992 59.4719V65.7109C7.74992 66.6232 8.4895 67.3628 9.40179 67.3628H24.0077C24.2725 67.3628 24.5219 67.2989 24.7437 67.1881L24.7439 60.5222ZM17.0544 23.2163V7.09328C17.0532 6.09589 17.298 5.1136 17.7671 4.2334H6.14456C3.30329 4.2334 1 6.53669 1 9.37796V22.99C1 25.8313 3.30329 28.1346 6.14456 28.1346H7.49391C8.08147 28.1345 8.65483 28.3152 9.13626 28.652C9.61768 28.9889 9.98389 29.4656 10.1852 30.0176L11.4684 33.5344C11.7562 34.3234 12.8721 34.3234 13.1599 33.5344L14.4431 30.0176C14.6444 29.4656 15.0107 28.9889 15.4921 28.652C15.9736 28.3152 16.547 28.1345 17.1345 28.1346H19.5519C18.0381 27.026 17.0544 25.2364 17.0544 23.2163Z" stroke="url(#paint4_linear_506_7317)" stroke-width="1.5" stroke-miterlimit="10" stroke-linecap="round" stroke-linejoin="round"/>
<path d="M26.084 18.7031C27.4485 18.7031 28.5547 17.597 28.5547 16.2324C28.5547 14.8679 27.4485 13.7617 26.084 13.7617C24.7195 13.7617 23.6133 14.8679 23.6133 16.2324C23.6133 17.597 24.7195 18.7031 26.084 18.7031Z" stroke="url(#paint5_linear_506_7317)" stroke-width="1.5" stroke-miterlimit="10" stroke-linecap="round" stroke-linejoin="round"/>
<path d="M35.5 18.7031C36.8645 18.7031 37.9707 17.597 37.9707 16.2324C37.9707 14.8679 36.8645 13.7617 35.5 13.7617C34.1355 13.7617 33.0293 14.8679 33.0293 16.2324C33.0293 17.597 34.1355 18.7031 35.5 18.7031Z" stroke="url(#paint6_linear_506_7317)" stroke-width="1.5" stroke-miterlimit="10" stroke-linecap="round" stroke-linejoin="round"/>
<path d="M44.917 18.7031C46.2815 18.7031 47.3877 17.597 47.3877 16.2324C47.3877 14.8679 46.2815 13.7617 44.917 13.7617C43.5525 13.7617 42.4463 14.8679 42.4463 16.2324C42.4463 17.597 43.5525 18.7031 44.917 18.7031Z" stroke="url(#paint7_linear_506_7317)" stroke-width="1.5" stroke-miterlimit="10" stroke-linecap="round" stroke-linejoin="round"/>
<path d="M33.0711 1H23.1482C19.7828 1 17.0547 3.72813 17.0547 7.09351V23.2165C17.0547 26.5819 19.7828 29.31 23.1482 29.31H29.7912C30.4872 29.31 31.1663 29.524 31.7365 29.923C32.3068 30.322 32.7405 30.8866 32.979 31.5404L34.4989 35.7059C34.8398 36.6404 36.1616 36.6404 36.5025 35.7059L38.0224 31.5404C38.2609 30.8866 38.6947 30.322 39.2649 29.923C39.8351 29.524 40.5142 29.31 41.2102 29.31H47.8532C51.2186 29.31 53.9467 26.5819 53.9467 23.2165V7.09351C53.9467 3.72813 51.2186 1 47.8532 1H37.9303" stroke="url(#paint8_linear_506_7317)" stroke-width="1.5" stroke-miterlimit="10" stroke-linecap="round" stroke-linejoin="round"/>
<path d="M70.0002 14.4124V9.37796C70.0002 6.53669 67.6969 4.2334 64.8556 4.2334H53.2331C53.7021 5.11361 53.9469 6.0959 53.9456 7.09328V23.2163C53.9456 25.2364 52.962 27.026 51.4482 28.1347H53.8657C54.4532 28.1347 55.0266 28.3154 55.508 28.6522C55.9895 28.989 56.3557 29.4657 56.5571 30.0177L57.8402 33.5346C58.1281 34.3236 59.244 34.3236 59.5318 33.5346L60.8149 30.0177C61.0163 29.4658 61.3825 28.989 61.8639 28.6522C62.3454 28.3154 62.9187 28.1347 63.5063 28.1347H64.8556C67.6968 28.1347 70.0002 25.8314 70.0002 22.9901V19.2718" stroke="url(#paint9_linear_506_7317)" stroke-width="1.5" stroke-miterlimit="10" stroke-linecap="round" stroke-linejoin="round"/>
<defs>
<linearGradient id="paint0_linear_506_7317" x1="11.9721" y1="49.292" x2="19.6222" y2="49.292" gradientUnits="userSpaceOnUse">
<stop stop-color="#374BA8"/>
<stop offset="1" stop-color="#2FB7F0"/>
</linearGradient>
<linearGradient id="paint1_linear_506_7317" x1="49.5639" y1="49.292" x2="57.2139" y2="49.292" gradientUnits="userSpaceOnUse">
<stop stop-color="#374BA8"/>
<stop offset="1" stop-color="#2FB7F0"/>
</linearGradient>
<linearGradient id="paint2_linear_506_7317" x1="25.8737" y1="63.305" x2="41.4384" y2="63.305" gradientUnits="userSpaceOnUse">
<stop stop-color="#374BA8"/>
<stop offset="1" stop-color="#2FB7F0"/>
</linearGradient>
<linearGradient id="paint3_linear_506_7317" x1="29.8172" y1="48.2936" x2="39.0065" y2="48.2936" gradientUnits="userSpaceOnUse">
<stop stop-color="#374BA8"/>
<stop offset="1" stop-color="#2FB7F0"/>
</linearGradient>
<linearGradient id="paint4_linear_506_7317" x1="4.26838" y1="41.8637" x2="49.3067" y2="41.8637" gradientUnits="userSpaceOnUse">
<stop stop-color="#374BA8"/>
<stop offset="1" stop-color="#2FB7F0"/>
</linearGradient>
<linearGradient id="paint5_linear_506_7317" x1="23.8727" y1="16.7072" x2="27.4478" y2="16.7072" gradientUnits="userSpaceOnUse">
<stop stop-color="#374BA8"/>
<stop offset="1" stop-color="#2FB7F0"/>
</linearGradient>
<linearGradient id="paint6_linear_506_7317" x1="33.2887" y1="16.7072" x2="36.8638" y2="16.7072" gradientUnits="userSpaceOnUse">
<stop stop-color="#374BA8"/>
<stop offset="1" stop-color="#2FB7F0"/>
</linearGradient>
<linearGradient id="paint7_linear_506_7317" x1="42.7057" y1="16.7072" x2="46.2808" y2="16.7072" gradientUnits="userSpaceOnUse">
<stop stop-color="#374BA8"/>
<stop offset="1" stop-color="#2FB7F0"/>
</linearGradient>
<linearGradient id="paint8_linear_506_7317" x1="18.9916" y1="22.1054" x2="45.6829" y2="22.1054" gradientUnits="userSpaceOnUse">
<stop stop-color="#374BA8"/>
<stop offset="1" stop-color="#2FB7F0"/>
</linearGradient>
<linearGradient id="paint9_linear_506_7317" x1="52.4223" y1="22.052" x2="65.8446" y2="22.052" gradientUnits="userSpaceOnUse">
<stop stop-color="#374BA8"/>
<stop offset="1" stop-color="#2FB7F0"/>
</linearGradient>
</defs>
</svg>
