<svg width="82" height="82" viewBox="0 0 82 82" fill="none" xmlns="http://www.w3.org/2000/svg">
<path d="M12.5643 48.2039H69.9348C72.4512 48.2039 74.4981 46.1557 74.4981 43.6393V13.5633C74.4981 11.0469 72.4512 9 69.9348 9H12.5643C10.0479 9 8.00098 11.0469 8.00098 13.5633V43.6393C8.00098 46.1557 10.048 48.2039 12.5643 48.2039ZM9.38634 13.5633C9.38634 11.8113 10.8123 10.3854 12.5643 10.3854H69.9348C71.6868 10.3854 73.1127 11.8113 73.1127 13.5633V43.6393C73.1127 45.3926 71.6868 46.8185 69.9348 46.8185H12.5643C10.8123 46.8185 9.38634 45.3926 9.38634 43.6393V13.5633Z" fill="url(#paint0_linear_506_7331)"/>
<path d="M13.3812 39.3262C15.309 39.3262 16.8784 40.8956 16.8784 42.8234C16.8783 42.9144 16.8962 43.0044 16.931 43.0885C16.9658 43.1726 17.0169 43.2489 17.0812 43.3133C17.1455 43.3776 17.2219 43.4286 17.3059 43.4634C17.39 43.4982 17.4801 43.5161 17.5711 43.5161H64.9275C65.0185 43.5161 65.1086 43.4982 65.1926 43.4634C65.2767 43.4286 65.3531 43.3776 65.4174 43.3133C65.4817 43.2489 65.5327 43.1726 65.5675 43.0885C65.6023 43.0044 65.6202 42.9144 65.6202 42.8234C65.6202 40.8956 67.1896 39.3262 69.1174 39.3262C69.2084 39.3262 69.2985 39.3083 69.3825 39.2735C69.4666 39.2387 69.543 39.1877 69.6073 39.1234C69.6716 39.059 69.7226 38.9827 69.7574 38.8986C69.7922 38.8145 69.8101 38.7244 69.8101 38.6335V18.5701C69.8101 18.4791 69.7922 18.389 69.7574 18.305C69.7226 18.2209 69.6716 18.1445 69.6073 18.0802C69.543 18.0159 69.4666 17.9649 69.3825 17.9301C69.2985 17.8953 69.2084 17.8774 69.1174 17.8774C67.1896 17.8774 65.6202 16.308 65.6202 14.3802C65.6203 14.2892 65.6024 14.1991 65.5676 14.115C65.5328 14.031 65.4818 13.9546 65.4174 13.8903C65.3531 13.8259 65.2767 13.7749 65.1927 13.7401C65.1086 13.7053 65.0185 13.6874 64.9275 13.6875H17.5711C17.4801 13.6875 17.39 13.7054 17.3059 13.7402C17.2219 13.775 17.1455 13.826 17.0812 13.8903C17.0169 13.9546 16.9658 14.031 16.931 14.1151C16.8962 14.1991 16.8783 14.2892 16.8784 14.3802C16.8784 16.308 15.309 17.8774 13.3812 17.8774C13.2902 17.8774 13.2001 17.8953 13.116 17.9301C13.032 17.9649 12.9556 18.0159 12.8913 18.0802C12.827 18.1445 12.7759 18.2209 12.7411 18.305C12.7063 18.389 12.6884 18.4791 12.6885 18.5701V38.6333C12.6884 38.7243 12.7063 38.8144 12.7411 38.8985C12.7759 38.9826 12.8269 39.059 12.8912 39.1233C12.9556 39.1877 13.0319 39.2387 13.116 39.2735C13.2001 39.3083 13.2902 39.3262 13.3812 39.3262ZM14.0738 19.2141C16.2127 18.9083 17.9093 17.2118 18.2151 15.0729H64.2836C64.5894 17.2118 66.286 18.9083 68.4249 19.2141V37.9895C66.286 38.2952 64.5894 39.9918 64.2836 42.1307H18.2151C17.9093 39.9918 16.2127 38.2952 14.0738 37.9895V19.2141Z" fill="url(#paint1_linear_506_7331)"/>
<path d="M41.2193 32.7725C39.9097 32.7631 38.8503 31.9743 38.8571 31.0138C38.8584 30.8301 38.7867 30.6535 38.6579 30.5226C38.529 30.3917 38.3535 30.3173 38.1699 30.3157H38.1644C37.9817 30.3157 37.8063 30.3879 37.6766 30.5166C37.5468 30.6454 37.4732 30.8201 37.4717 31.0029C37.4609 32.5304 38.7761 33.8104 40.5163 34.0946L40.5118 34.6761C40.511 34.7671 40.5282 34.8573 40.5623 34.9416C40.5965 35.0259 40.6469 35.1027 40.7107 35.1676C40.7746 35.2324 40.8505 35.284 40.9343 35.3195C41.0181 35.3549 41.108 35.3735 41.199 35.3742H41.2045C41.3872 35.3742 41.5626 35.3019 41.6923 35.1732C41.8221 35.0445 41.8957 34.8697 41.8971 34.687L41.9017 34.1067C43.5786 33.8618 44.9787 32.6671 44.9913 31.0585C45.0035 29.3363 43.3272 27.9239 41.2546 27.9089C39.9449 27.8995 38.8856 27.1107 38.8924 26.1501C38.9005 25.2153 39.9787 24.432 41.2546 24.432H41.279C42.5656 24.4414 43.6479 25.2437 43.6412 26.184C43.6399 26.3676 43.7116 26.5443 43.8404 26.6752C43.9693 26.806 44.1448 26.8805 44.3284 26.8821H44.3339C44.5166 26.882 44.692 26.8098 44.8217 26.6811C44.9515 26.5524 45.0251 26.3776 45.0265 26.1948C45.0374 24.6709 43.7222 23.3936 41.982 23.1098L41.9865 22.5272C41.9873 22.4362 41.9701 22.346 41.9359 22.2617C41.9018 22.1774 41.8514 22.1006 41.7876 22.0357C41.7237 21.9709 41.6478 21.9193 41.564 21.8838C41.4802 21.8484 41.3902 21.8298 41.2993 21.8291H41.2938C41.1111 21.8291 40.9357 21.9014 40.806 22.0301C40.6762 22.1588 40.6026 22.3336 40.6011 22.5163L40.5966 23.1015C38.8537 23.3595 37.5192 24.6152 37.5071 26.1394C37.495 27.8643 39.1712 29.2794 41.2438 29.2944C42.5317 29.3038 43.6128 30.1062 43.606 31.0477C43.599 32.1245 42.3348 32.7776 41.2193 32.7725Z" fill="url(#paint2_linear_506_7331)"/>
<path d="M41.2498 39.185C46.1757 39.185 50.1843 34.4376 50.1843 28.6027C50.1843 22.7678 46.1757 18.0205 41.2498 18.0205C36.324 18.0205 32.3167 22.7678 32.3167 28.6027C32.3167 34.4376 36.324 39.185 41.2498 39.185ZM41.2498 19.4059C45.4127 19.4059 48.7989 23.5321 48.7989 28.6027C48.7989 33.6734 45.4127 37.7996 41.2498 37.7996C37.0883 37.7996 33.7021 33.6734 33.7021 28.6027C33.7021 23.5321 37.0883 19.4059 41.2498 19.4059ZM25.8526 32.3124C28.135 32.3124 29.9924 30.4616 29.9924 28.1874C29.9924 25.9037 28.1349 24.0462 25.8526 24.0462C23.5689 24.0462 21.7114 25.9037 21.7114 28.1874C21.7114 30.4616 23.5689 32.3124 25.8526 32.3124ZM25.8526 25.4316C27.3719 25.4316 28.6071 26.6682 28.6071 28.1874C28.6071 29.6986 27.3719 30.927 25.8526 30.927C24.3334 30.927 23.0968 29.6986 23.0968 28.1874C23.0968 26.6682 24.3334 25.4316 25.8526 25.4316ZM56.6484 32.3124C58.9307 32.3124 60.7881 30.4616 60.7881 28.1874C60.7881 25.9037 58.9306 24.0462 56.6484 24.0462C54.3647 24.0462 52.5071 25.9037 52.5071 28.1874C52.5073 30.4616 54.3648 32.3124 56.6484 32.3124ZM56.6484 25.4316C58.1676 25.4316 59.4028 26.6682 59.4028 28.1874C59.4028 29.6986 58.1676 30.927 56.6484 30.927C55.1291 30.927 53.8925 29.6986 53.8925 28.1874C53.8926 26.6682 55.1291 25.4316 56.6484 25.4316ZM43.6769 52.2025H38.8227C38.7317 52.2024 38.6416 52.2203 38.5575 52.2551C38.4735 52.2899 38.3971 52.3409 38.3328 52.4053C38.2685 52.4696 38.2174 52.546 38.1826 52.63C38.1478 52.7141 38.1299 52.8042 38.13 52.8951V62.5657H35.5108C34.9611 62.5657 34.6285 63.1801 34.9331 63.6398L40.6639 72.3051C40.9376 72.7197 41.5451 72.7189 41.8192 72.3064L47.5663 63.6411C47.8693 63.1837 47.5422 62.5657 46.9886 62.5657H44.3694V52.8951C44.3695 52.8042 44.3516 52.7141 44.3169 52.63C44.2821 52.546 44.2311 52.4696 44.1667 52.4052C44.1024 52.3409 44.0261 52.2899 43.942 52.2551C43.8579 52.2203 43.7678 52.2024 43.6769 52.2025ZM45.6982 63.951L41.2431 70.6694L36.7989 63.951H38.8228C38.9138 63.9511 39.0039 63.9332 39.0879 63.8984C39.172 63.8636 39.2484 63.8126 39.3127 63.7482C39.377 63.6839 39.4281 63.6075 39.4629 63.5235C39.4977 63.4394 39.5155 63.3493 39.5155 63.2583V53.588H42.9843V63.2583C42.9843 63.3493 43.0022 63.4394 43.037 63.5235C43.0718 63.6075 43.1228 63.6839 43.1871 63.7482C43.2515 63.8125 43.3278 63.8636 43.4119 63.8984C43.4959 63.9332 43.586 63.951 43.677 63.951H45.6982ZM24.0573 50.134H19.2045C19.1136 50.1339 19.0235 50.1518 18.9394 50.1866C18.8553 50.2214 18.779 50.2724 18.7146 50.3367C18.6503 50.4011 18.5993 50.4774 18.5645 50.5615C18.5297 50.6456 18.5118 50.7357 18.5119 50.8266V60.497H15.8927C15.3429 60.497 15.0104 61.1115 15.315 61.5712L21.0458 70.2365C21.3194 70.6511 21.927 70.6503 22.2011 70.2378L27.9467 61.5725C28.2497 61.1151 27.9226 60.497 27.369 60.497H24.7498V50.8266C24.7499 50.7357 24.7321 50.6456 24.6973 50.5615C24.6625 50.4774 24.6115 50.401 24.5472 50.3367C24.4829 50.2724 24.4065 50.2213 24.3224 50.1866C24.2384 50.1518 24.1483 50.1339 24.0573 50.134ZM26.0786 61.8824L21.6249 68.6008L17.1807 61.8824H19.2047C19.2956 61.8824 19.3857 61.8646 19.4698 61.8298C19.5539 61.795 19.6303 61.744 19.6946 61.6796C19.7589 61.6153 19.8099 61.5389 19.8447 61.4548C19.8795 61.3708 19.8974 61.2807 19.8974 61.1897V51.5193H23.3647V61.1897C23.3647 61.2807 23.3826 61.3708 23.4174 61.4548C23.4522 61.5389 23.5032 61.6153 23.5675 61.6796C23.6319 61.7439 23.7082 61.7949 23.7923 61.8297C23.8764 61.8645 23.9664 61.8824 24.0574 61.8824H26.0786ZM63.2951 50.134H58.4409C58.3499 50.1339 58.2599 50.1518 58.1758 50.1866C58.0917 50.2214 58.0153 50.2724 57.951 50.3367C57.8867 50.4011 57.8357 50.4774 57.8009 50.5615C57.7661 50.6456 57.7482 50.7357 57.7482 50.8266V60.497H55.1304C54.5807 60.497 54.2481 61.1115 54.5527 61.5712L60.2835 70.2365C60.5572 70.6511 61.1647 70.6503 61.4388 70.2378L67.1845 61.5725C67.4874 61.1151 67.1603 60.497 66.6067 60.497H63.9876V50.8266C63.9877 50.7357 63.9698 50.6456 63.9351 50.5615C63.9003 50.4774 63.8493 50.4011 63.785 50.3367C63.7207 50.2724 63.6443 50.2213 63.5603 50.1866C63.4762 50.1518 63.3861 50.1339 63.2951 50.134ZM65.3163 61.8824L60.8625 68.6008L56.4183 61.8824H58.4409C58.5319 61.8824 58.622 61.8646 58.7061 61.8298C58.7901 61.795 58.8665 61.744 58.9308 61.6796C58.9952 61.6153 59.0462 61.5389 59.081 61.4548C59.1158 61.3708 59.1337 61.2807 59.1336 61.1897V51.5193H62.6025V61.1897C62.6024 61.2807 62.6203 61.3708 62.6551 61.4548C62.6899 61.5389 62.7409 61.6153 62.8053 61.6796C62.8696 61.7439 62.946 61.7949 63.03 61.8297C63.1141 61.8645 63.2042 61.8824 63.2951 61.8824H65.3163Z" fill="url(#paint3_linear_506_7331)"/>
<defs>
<linearGradient id="paint0_linear_506_7331" x1="11.4923" y1="32.3687" x2="59.6027" y2="32.3688" gradientUnits="userSpaceOnUse">
<stop stop-color="#374BA8"/>
<stop offset="1" stop-color="#2FB7F0"/>
</linearGradient>
<linearGradient id="paint1_linear_506_7331" x1="15.6876" y1="31.4678" x2="57.0148" y2="31.4678" gradientUnits="userSpaceOnUse">
<stop stop-color="#374BA8"/>
<stop offset="1" stop-color="#2FB7F0"/>
</linearGradient>
<linearGradient id="paint2_linear_506_7331" x1="37.8683" y1="29.9031" x2="43.3343" y2="29.9031" gradientUnits="userSpaceOnUse">
<stop stop-color="#374BA8"/>
<stop offset="1" stop-color="#2FB7F0"/>
</linearGradient>
<linearGradient id="paint3_linear_506_7331" x1="17.9347" y1="50.5639" x2="55.6295" y2="50.5639" gradientUnits="userSpaceOnUse">
<stop stop-color="#374BA8"/>
<stop offset="1" stop-color="#2FB7F0"/>
</linearGradient>
</defs>
</svg>
