<svg width="72" height="65" viewBox="0 0 72 65" fill="none" xmlns="http://www.w3.org/2000/svg">
<path d="M32.6519 64.5424C26.4592 64.5413 20.3978 62.7583 15.1908 59.4062C9.98384 56.0542 5.85135 51.2747 3.28654 45.6382C0.721719 40.0017 -0.167094 33.7463 0.726173 27.6184C1.61944 21.4906 4.25706 15.7492 8.32423 11.0794C12.3914 6.40966 17.7164 3.00881 23.6635 1.28275C29.6107 -0.443316 35.929 -0.421692 41.8642 1.34504C47.7995 3.11177 53.101 6.54898 57.1362 11.2465C61.1713 15.9439 63.7695 21.7033 64.6208 27.8371C64.6482 28.0193 64.6392 28.2051 64.5942 28.3837C64.5493 28.5624 64.4693 28.7303 64.3589 28.8778C64.2486 29.0253 64.11 29.1494 63.9513 29.2429C63.7926 29.3365 63.6169 29.3975 63.4344 29.4226C63.2519 29.4477 63.0662 29.4363 62.8881 29.3891C62.7101 29.3419 62.5431 29.2598 62.3971 29.1475C62.251 29.0353 62.1286 28.8952 62.0371 28.7353C61.9456 28.5754 61.8868 28.3989 61.864 28.2161C59.8706 13.7168 47.3121 2.78299 32.6519 2.78299C28.3985 2.78718 24.1963 3.71145 20.3338 5.4924C16.4712 7.27334 13.0396 9.86881 10.2745 13.1007C7.50931 16.3326 5.47604 20.1245 4.31417 24.2161C3.1523 28.3077 2.88932 32.6022 3.54328 36.805C4.19724 41.0078 5.75266 45.0194 8.10281 48.5646C10.453 52.1097 13.5422 55.1045 17.1586 57.3434C20.7751 59.5823 24.833 61.0124 29.0541 61.5355C33.2752 62.0587 37.5595 61.6624 41.6131 60.3741C41.7876 60.317 41.9717 60.295 42.1548 60.3094C42.3379 60.3238 42.5163 60.3743 42.6797 60.458C42.8432 60.5417 42.9885 60.6569 43.1072 60.797C43.2259 60.9371 43.3158 61.0993 43.3715 61.2743C43.4272 61.4493 43.4478 61.6335 43.432 61.8165C43.4161 61.9994 43.3643 62.1775 43.2793 62.3403C43.1944 62.5031 43.078 62.6475 42.937 62.7651C42.796 62.8827 42.6331 62.9713 42.4577 63.0257C39.2869 64.034 35.9791 64.5456 32.6519 64.5424Z" fill="url(#paint0_linear_506_10588)"/>
<path d="M32.6486 17.0213C24.0391 17.0213 16.2473 14.2344 11.8054 9.56649C11.551 9.29912 11.4133 8.94164 11.4224 8.5727C11.4316 8.20376 11.587 7.85359 11.8544 7.5992C12.1218 7.34482 12.4792 7.20707 12.8482 7.21625C13.2171 7.22544 13.5673 7.38081 13.8217 7.64818C17.69 11.713 24.9038 14.2383 32.6486 14.2383C40.3933 14.2383 47.6063 11.7133 51.4746 7.64874C51.6006 7.51635 51.7514 7.41006 51.9184 7.33595C52.0854 7.26184 52.2654 7.22136 52.4481 7.21681C52.6308 7.21226 52.8126 7.24374 52.9831 7.30944C53.1536 7.37515 53.3095 7.4738 53.4419 7.59976C53.5743 7.72572 53.6806 7.87652 53.7547 8.04355C53.8288 8.21058 53.8693 8.39058 53.8738 8.57326C53.8784 8.75594 53.8469 8.93773 53.7812 9.10824C53.7155 9.27876 53.6168 9.43466 53.4909 9.56705C49.0487 14.2341 41.2572 17.0213 32.6486 17.0213ZM12.8134 57.3289C12.5411 57.3289 12.2748 57.249 12.0475 57.0992C11.8202 56.9493 11.6418 56.736 11.5345 56.4858C11.4272 56.2355 11.3957 55.9593 11.4438 55.6913C11.492 55.4233 11.6177 55.1754 11.8054 54.9781C16.2473 50.3102 24.0391 47.5233 32.6499 47.5233C34.0382 47.5229 35.4255 47.5972 36.8058 47.746C37.1727 47.7858 37.5087 47.9698 37.74 48.2574C37.9712 48.5451 38.0788 48.9128 38.0389 49.2797C37.9991 49.6466 37.8151 49.9826 37.5275 50.2139C37.2398 50.4451 36.8721 50.5527 36.5052 50.5128C35.2248 50.3745 33.9378 50.3054 32.6499 50.3058C24.9052 50.3058 17.6911 52.831 13.8231 56.8959C13.6931 57.033 13.5365 57.1421 13.3629 57.2165C13.1893 57.291 13.0023 57.3292 12.8134 57.3289Z" fill="url(#paint1_linear_506_10588)"/>
<path d="M32.651 64.5424C27.24 64.5424 22.2084 61.0887 18.4825 54.8173C14.8917 48.7743 12.9141 40.766 12.9141 32.2712C12.9141 23.7764 14.8917 15.7695 18.4825 9.72514C22.2084 3.45368 27.24 0 32.651 0C37.5616 0 42.2523 2.91657 45.8574 8.21258C49.296 13.2631 51.5458 20.1777 52.192 27.6829C52.2226 28.05 52.1064 28.4143 51.8689 28.6959C51.6314 28.9774 51.2919 29.1533 50.9248 29.185C50.5578 29.2166 50.1932 29.1014 49.911 28.8647C49.6288 28.6279 49.452 28.2889 49.4193 27.922C48.185 13.5896 40.9763 2.78298 32.651 2.78298C28.2614 2.78298 24.0794 5.75298 20.8751 11.1467C17.5358 16.7672 15.697 24.2693 15.697 32.2712C15.697 40.2731 17.5358 47.7752 20.8751 53.3957C24.0791 58.7894 28.2614 61.7594 32.651 61.7594C33.02 61.7594 33.374 61.906 33.6349 62.167C33.8959 62.4279 34.0425 62.7819 34.0425 63.1509C34.0425 63.52 33.8959 63.8739 33.6349 64.1348C33.374 64.3958 33.02 64.5424 32.651 64.5424Z" fill="url(#paint2_linear_506_10588)"/>
<path d="M41.645 33.663H1.76845C1.3994 33.663 1.04547 33.5164 0.784512 33.2554C0.523556 32.9945 0.376953 32.6405 0.376953 32.2715C0.376953 31.9025 0.523556 31.5485 0.784512 31.2876C1.04547 31.0266 1.3994 30.88 1.76845 30.88H41.645C42.014 30.88 42.368 31.0266 42.6289 31.2876C42.8899 31.5485 43.0365 31.9025 43.0365 32.2715C43.0365 32.6405 42.8899 32.9945 42.6289 33.2554C42.368 33.5164 42.014 33.663 41.645 33.663Z" fill="url(#paint3_linear_506_10588)"/>
<path d="M32.6474 64.5151C32.2783 64.5151 31.9244 64.3685 31.6634 64.1076C31.4025 63.8466 31.2559 63.4927 31.2559 63.1236V1.39149C31.2559 1.02245 31.4025 0.668514 31.6634 0.407559C31.9244 0.146603 32.2783 0 32.6474 0C33.0164 0 33.3703 0.146603 33.6313 0.407559C33.8922 0.668514 34.0388 1.02245 34.0388 1.39149V63.1236C34.0388 63.4927 33.8922 63.8466 33.6313 64.1076C33.3703 64.3685 33.0164 64.5151 32.6474 64.5151ZM55.2126 62.7382C51.9675 62.7382 48.7952 61.7759 46.097 59.973C43.3988 58.1701 41.2958 55.6076 40.0539 52.6095C38.8121 49.6114 38.4872 46.3124 39.1203 43.1296C39.7533 39.9468 41.316 37.0233 43.6107 34.7286C45.9053 32.434 48.8289 30.8713 52.0117 30.2382C55.1944 29.6051 58.4935 29.93 61.4916 31.1719C64.4897 32.4137 67.0522 34.5167 68.8551 37.215C70.658 39.9132 71.6203 43.0854 71.6203 46.3306C71.6154 50.6806 69.8852 54.8512 66.8092 57.9271C63.7332 61.0031 59.5627 62.7333 55.2126 62.7382ZM55.2126 32.7062C52.5179 32.7062 49.8837 33.5053 47.6431 35.0024C45.4026 36.4995 43.6563 38.6274 42.6251 41.117C41.5938 43.6066 41.324 46.346 41.8498 48.989C42.3755 51.6319 43.6732 54.0596 45.5786 55.965C47.4841 57.8704 49.9118 59.168 52.5548 59.6937C55.1977 60.2194 57.9372 59.9496 60.4267 58.9183C62.9163 57.887 65.0442 56.1407 66.5412 53.9001C68.0383 51.6595 68.8373 49.0253 68.8373 46.3306C68.8332 42.7183 67.3965 39.2552 64.8422 36.701C62.288 34.1468 58.8248 32.7102 55.2126 32.7062Z" fill="url(#paint4_linear_506_10588)"/>
<path d="M58.9153 49.5388C58.6709 49.5391 58.4309 49.4746 58.2195 49.352L54.6801 47.3088C54.4686 47.1867 54.2929 47.011 54.1708 46.7995C54.0487 46.5879 53.9844 46.348 53.9844 46.1038V37.6571C53.9844 37.2881 54.131 36.9341 54.3919 36.6732C54.6529 36.4122 55.0068 36.2656 55.3759 36.2656C55.7449 36.2656 56.0988 36.4122 56.3598 36.6732C56.6208 36.9341 56.7674 37.2881 56.7674 37.6571V45.3003L59.611 46.9423C59.8764 47.0954 60.0839 47.3318 60.2012 47.6148C60.3185 47.8979 60.3391 48.2117 60.2598 48.5077C60.1805 48.8036 60.0057 49.0651 59.7626 49.2516C59.5195 49.4381 59.2217 49.5389 58.9153 49.5388Z" fill="url(#paint5_linear_506_10588)"/>
<defs>
<linearGradient id="paint0_linear_506_10588" x1="3.76189" y1="38.4742" x2="50.2448" y2="38.4742" gradientUnits="userSpaceOnUse">
<stop stop-color="#374BA8"/>
<stop offset="1" stop-color="#2FB7F0"/>
</linearGradient>
<linearGradient id="paint1_linear_506_10588" x1="13.6508" y1="37.0873" x2="44.3649" y2="37.0873" gradientUnits="userSpaceOnUse">
<stop stop-color="#374BA8"/>
<stop offset="1" stop-color="#2FB7F0"/>
</linearGradient>
<linearGradient id="paint2_linear_506_10588" x1="14.9765" y1="38.4726" x2="43.3975" y2="38.4726" gradientUnits="userSpaceOnUse">
<stop stop-color="#374BA8"/>
<stop offset="1" stop-color="#2FB7F0"/>
</linearGradient>
<linearGradient id="paint3_linear_506_10588" x1="2.61672" y1="32.5389" x2="33.4807" y2="32.5389" gradientUnits="userSpaceOnUse">
<stop stop-color="#374BA8"/>
<stop offset="1" stop-color="#2FB7F0"/>
</linearGradient>
<linearGradient id="paint4_linear_506_10588" x1="33.3751" y1="38.4563" x2="62.5786" y2="38.4563" gradientUnits="userSpaceOnUse">
<stop stop-color="#374BA8"/>
<stop offset="1" stop-color="#2FB7F0"/>
</linearGradient>
<linearGradient id="paint5_linear_506_10588" x1="54.3163" y1="44.1777" x2="58.8909" y2="44.1777" gradientUnits="userSpaceOnUse">
<stop stop-color="#374BA8"/>
<stop offset="1" stop-color="#2FB7F0"/>
</linearGradient>
</defs>
</svg>
