<svg width="52" height="60" viewBox="0 0 52 60" fill="none" xmlns="http://www.w3.org/2000/svg">
<path d="M46.0661 52.87C45.6699 52.87 45.2747 52.9108 44.8868 52.9919C43.5115 49.9829 40.4538 47.8879 36.8997 47.8879C32.0593 47.8879 28.1353 51.7713 28.1353 56.5617C28.1353 56.7073 28.1419 56.8514 28.1492 56.9953H51.5481C50.8827 54.6169 48.6812 52.87 46.0661 52.87ZM5.98204 52.87C6.38651 52.87 6.78079 52.9124 7.16133 52.9919C8.53667 49.9829 11.5943 47.8879 15.1485 47.8879C19.9889 47.8879 23.9129 51.7713 23.9129 56.5617C23.9129 56.7073 23.9062 56.8514 23.899 56.9953H0.5C1.16546 54.6169 3.36693 52.87 5.98204 52.87Z" fill="#E9E9FF"/>
<path d="M26.0243 59.582C28.9275 59.582 31.281 57.2444 31.281 54.3608C31.281 51.4773 28.9275 49.1396 26.0243 49.1396C23.1211 49.1396 20.7676 51.4773 20.7676 54.3608C20.7676 57.2444 23.1211 59.582 26.0243 59.582Z" fill="#E0E0E0"/>
<path d="M22.3319 54.3608C22.3319 51.7413 24.2743 49.5728 26.8065 49.1974C26.5475 49.159 26.2861 49.1397 26.0243 49.1396C23.1211 49.1396 20.7676 51.4772 20.7676 54.3608C20.7676 57.2444 23.1211 59.582 26.0243 59.582C26.2901 59.582 26.5512 59.562 26.8065 59.5242C24.2743 59.1489 22.3319 56.9804 22.3319 54.3608Z" fill="#D1D1D1"/>
<path d="M42.6096 26.1762C42.6096 17.0563 35.2022 9.66321 26.0647 9.66309C16.9232 9.66296 9.53024 17.0324 9.51954 26.1563C9.5133 31.4112 11.9667 36.0939 15.7941 39.1224C16.5631 39.7304 17.1845 40.5047 17.6118 41.387C18.0391 42.2694 18.2611 43.237 18.2613 44.2174V51.6595C18.2613 53.0966 19.4286 54.2616 20.8684 54.2616H31.1278C32.5677 54.2616 33.7348 53.0966 33.7348 51.6595V44.3661C33.7348 42.3586 34.6372 40.443 36.2239 39.2093C40.1098 36.1877 42.6096 31.4736 42.6096 26.1762Z" fill="#FFD599"/>
<path d="M18.2599 51.6592C18.2599 53.0963 19.4272 54.2613 20.867 54.2613H31.1264C32.5663 54.2613 33.7335 53.0963 33.7335 51.6592V46.5564L18.2598 46.5532L18.2599 51.6592Z" fill="#26A6FE"/>
<path d="M19.6937 51.6595V46.554L18.2598 46.5537V51.6597C18.2598 53.0968 19.4271 54.2618 20.8669 54.2618H22.3008C20.861 54.2617 19.6937 53.0966 19.6937 51.6595Z" fill="#26A6FE"/>
<path d="M20.2449 16.6799L22.0171 15.3711V23.7641L14.8782 30.2958C13.8324 25.1509 15.9094 19.8815 20.2449 16.6799Z" fill="#FF667C"/>
<path d="M16.001 29.2684C15.4619 24.503 17.5376 19.7717 21.5483 16.81L22.0169 16.4639V15.3711L20.2448 16.6799C15.9093 19.8815 13.8325 25.1509 14.8782 30.2958L16.001 29.2684Z" fill="#F44A6A"/>
<path d="M31.8034 16.6799L30.0312 15.3711V23.7641L37.1701 30.2958C38.2159 25.1509 36.1389 19.8815 31.8034 16.6799Z" fill="#FF667C"/>
<path d="M31.8034 16.6799L30.0312 15.3711V16.8543L30.4999 17.2003C34.4104 20.0881 36.4824 24.6582 36.0838 29.3019L37.1701 30.2958C38.2159 25.1509 36.1389 19.8815 31.8034 16.6799Z" fill="#F44A6A"/>
<path d="M26.0214 37.4574C25.7681 37.0784 23.9912 33.2011 23.9912 33.2011L21.0933 34.1313C20.325 29.8677 23.6523 26.3573 23.9912 26.3747H28.0566C28.3954 26.3571 31.7227 29.8677 30.9545 34.1313L28.0566 33.2011C28.0566 33.2011 26.2797 37.0784 26.0264 37.4574" fill="#FF667C"/>
<path d="M25.2947 26.3747H23.9911C23.6524 26.3571 20.3251 29.8677 21.0933 34.1313L22.3365 33.7323C21.8345 29.6508 24.9665 26.3576 25.2947 26.3747Z" fill="#F44A6A"/>
<path d="M33.1695 12.8792C32.9901 11.303 32.5913 8.11522 30.4256 4.71549C28.9644 2.42172 27.2546 0.903658 26.0625 0C24.8701 0.908114 23.1663 2.42732 21.7037 4.71549C19.5173 8.13623 19.1052 11.3436 18.9253 12.8792C18.0952 19.9656 21.5124 25.6067 22.8004 27.6447H29.2944C30.6031 25.5593 33.9724 19.9356 33.1695 12.8792Z" fill="#FF667C"/>
<path d="M21.7037 4.71549C19.5173 8.13623 19.1052 11.3436 18.9253 12.8792C18.0952 19.9656 21.5124 25.6067 22.8004 27.6447H24.3647C23.0766 25.6067 19.6595 19.9656 20.4895 12.8792C20.6694 11.3436 21.0815 8.13623 23.268 4.71549C24.4348 2.88997 25.7544 1.55524 26.8462 0.62841C26.5906 0.412009 26.3293 0.202464 26.0625 0C24.8701 0.908114 23.1661 2.42732 21.7037 4.71549Z" fill="#F44A6A"/>
<path d="M33.1694 12.8793C33.0274 11.6316 32.747 9.37411 31.5627 6.80127C30.1592 7.86279 27.9413 8.4977 26.0616 8.4977C24.1817 8.4977 21.9638 7.86292 20.5603 6.80127C19.3575 9.39346 19.0679 11.6619 18.9253 12.8794C18.0952 19.9658 21.5124 25.6069 22.8004 27.6449H29.2944C30.6029 25.5594 33.9722 19.9356 33.1694 12.8793Z" fill="#EFEFEF"/>
<path d="M20.2288 12.8789C20.3597 11.7616 20.6165 9.75798 21.5874 7.43237C21.2147 7.24319 20.8671 7.03287 20.5603 6.80078C19.3575 9.39297 19.0679 11.6614 18.9253 12.8789C18.0952 19.9653 21.5124 25.6064 22.8004 27.6444H24.1039C22.8158 25.6064 19.3987 19.9653 20.2288 12.8789Z" fill="#D1D1D1"/>
<path d="M26.0637 15.616C27.1021 15.616 27.9439 14.7742 27.9439 13.7359C27.9439 12.6975 27.1021 11.8557 26.0637 11.8557C25.0254 11.8557 24.1836 12.6975 24.1836 13.7359C24.1836 14.7742 25.0254 15.616 26.0637 15.616Z" fill="white"/>
<path d="M26.0637 23.1363C27.1021 23.1363 27.9439 22.2945 27.9439 21.2561C27.9439 20.2177 27.1021 19.376 26.0637 19.376C25.0254 19.376 24.1836 20.2177 24.1836 21.2561C24.1836 22.2945 25.0254 23.1363 26.0637 23.1363Z" fill="white"/>
</svg>
