<svg width="24" height="25" viewBox="0 0 24 25" fill="none" xmlns="http://www.w3.org/2000/svg">
<g clip-path="url(#clip0_917_11166)">
<path d="M12 12.5C12.89 12.5 13.76 12.2361 14.5001 11.7416C15.2401 11.2471 15.8169 10.5443 16.1575 9.72208C16.4981 8.89981 16.5872 7.99501 16.4135 7.1221C16.2399 6.24918 15.8113 5.44736 15.182 4.81802C14.5526 4.18869 13.7508 3.7601 12.8779 3.58647C12.005 3.41283 11.1002 3.50195 10.2779 3.84254C9.45566 4.18314 8.75285 4.75991 8.25839 5.49994C7.76392 6.23996 7.5 7.10999 7.5 8C7.50119 9.19311 7.97568 10.337 8.81934 11.1807C9.66299 12.0243 10.8069 12.4988 12 12.5ZM12 5C12.5933 5 13.1734 5.17595 13.6667 5.50559C14.1601 5.83524 14.5446 6.30377 14.7716 6.85195C14.9987 7.40013 15.0581 8.00333 14.9424 8.58527C14.8266 9.16722 14.5409 9.70177 14.1213 10.1213C13.7018 10.5409 13.1672 10.8266 12.5853 10.9424C12.0033 11.0581 11.4001 10.9987 10.8519 10.7716C10.3038 10.5446 9.83524 10.1601 9.50559 9.66671C9.17595 9.17337 9 8.59335 9 8C9 7.20435 9.31607 6.44129 9.87868 5.87868C10.4413 5.31607 11.2044 5 12 5Z" fill="#29387E"/>
<path d="M12 14.0005C10.2104 14.0025 8.49466 14.7143 7.22922 15.9797C5.96378 17.2452 5.25199 18.9609 5.25 20.7505C5.25 20.9494 5.32902 21.1402 5.46967 21.2808C5.61032 21.4215 5.80109 21.5005 6 21.5005C6.19891 21.5005 6.38968 21.4215 6.53033 21.2808C6.67098 21.1402 6.75 20.9494 6.75 20.7505C6.75 19.3581 7.30312 18.0227 8.28769 17.0382C9.27226 16.0536 10.6076 15.5005 12 15.5005C13.3924 15.5005 14.7277 16.0536 15.7123 17.0382C16.6969 18.0227 17.25 19.3581 17.25 20.7505C17.25 20.9494 17.329 21.1402 17.4697 21.2808C17.6103 21.4215 17.8011 21.5005 18 21.5005C18.1989 21.5005 18.3897 21.4215 18.5303 21.2808C18.671 21.1402 18.75 20.9494 18.75 20.7505C18.748 18.9609 18.0362 17.2452 16.7708 15.9797C15.5053 14.7143 13.7896 14.0025 12 14.0005Z" fill="#29387E"/>
</g>
<defs>
<clipPath id="clip0_917_11166">
<rect width="18" height="18" fill="white" transform="translate(3 3.5)"/>
</clipPath>
</defs>
</svg>
