<svg width="24" height="25" viewBox="0 0 24 25" fill="none" xmlns="http://www.w3.org/2000/svg">
<path d="M6.44336 10.6481V8.79628C6.44336 5.73146 7.36929 3.24072 11.9989 3.24072C16.6285 3.24072 17.5545 5.73146 17.5545 8.79628V10.6481" stroke="#29387E" stroke-width="1.5" stroke-linecap="round" stroke-linejoin="round"/>
<path d="M12.0004 18.5185C13.2788 18.5185 14.3152 17.4822 14.3152 16.2037C14.3152 14.9253 13.2788 13.8889 12.0004 13.8889C10.7219 13.8889 9.68555 14.9253 9.68555 16.2037C9.68555 17.4822 10.7219 18.5185 12.0004 18.5185Z" stroke="#29387E" stroke-width="1.5" stroke-linecap="round" stroke-linejoin="round"/>
<path d="M16.6291 21.7593H7.36986C3.66616 21.7593 2.74023 20.8334 2.74023 17.1297V15.2778C2.74023 11.5741 3.66616 10.6482 7.36986 10.6482H16.6291C20.3328 10.6482 21.2588 11.5741 21.2588 15.2778V17.1297C21.2588 20.8334 20.3328 21.7593 16.6291 21.7593Z" stroke="#29387E" stroke-width="1.5" stroke-linecap="round" stroke-linejoin="round"/>
</svg>
