<svg width="66" height="73" viewBox="0 0 66 73" fill="none" xmlns="http://www.w3.org/2000/svg">
<path d="M36.8232 68.6473C38.4028 68.6473 39.6834 67.3667 39.6834 65.787C39.6834 64.2073 38.4028 62.9268 36.8232 62.9268C35.2435 62.9268 33.9629 64.2073 33.9629 65.787C33.9629 67.3667 35.2435 68.6473 36.8232 68.6473Z" fill="url(#paint0_linear_508_26522)"/>
<path d="M25.3841 17.1618C26.3319 17.1618 27.1003 16.3935 27.1003 15.4456C27.1003 14.4978 26.3319 13.7295 25.3841 13.7295C24.4363 13.7295 23.668 14.4978 23.668 15.4456C23.668 16.3935 24.4363 17.1618 25.3841 17.1618Z" fill="url(#paint1_linear_508_26522)"/>
<path d="M29.9603 17.1618C30.9081 17.1618 31.6765 16.3935 31.6765 15.4456C31.6765 14.4978 30.9081 13.7295 29.9603 13.7295C29.0125 13.7295 28.2441 14.4978 28.2441 15.4456C28.2441 16.3935 29.0125 17.1618 29.9603 17.1618Z" fill="url(#paint2_linear_508_26522)"/>
<path d="M34.5365 17.1618C35.4843 17.1618 36.2526 16.3935 36.2526 15.4456C36.2526 14.4978 35.4843 13.7295 34.5365 13.7295C33.5887 13.7295 32.8203 14.4978 32.8203 15.4456C32.8203 16.3935 33.5887 17.1618 34.5365 17.1618Z" fill="url(#paint3_linear_508_26522)"/>
<path d="M15.6591 41.1875H8.79449C8.16266 41.1875 7.65039 41.6992 7.65039 42.3316C7.65039 42.964 8.16266 43.4757 8.79449 43.4757H15.6591C16.291 43.4757 16.8032 42.964 16.8032 42.3316C16.8032 41.6992 16.291 41.1875 15.6591 41.1875ZM22.5237 41.1875H19.0914C18.4596 41.1875 17.9473 41.6992 17.9473 42.3316C17.9473 42.964 18.4596 43.4757 19.0914 43.4757H22.5237C23.1556 43.4757 23.6678 42.964 23.6678 42.3316C23.6678 41.6992 23.1556 41.1875 22.5237 41.1875Z" fill="url(#paint4_linear_508_26522)"/>
<path d="M66 10.2969C66 4.61875 61.3812 0 55.703 0C50.8123 0 46.7155 3.43002 45.6712 8.00873H22.6641C20.0636 8.00873 17.9476 10.1247 17.9476 12.7259V26.3144H5.57638C4.19659 26.3144 3.07422 27.4362 3.07422 28.816V45.5508C3.07422 46.9306 4.19659 48.0524 5.57638 48.0524H36.0399C37.4197 48.0524 38.5415 46.9306 38.5415 45.5508V28.816C38.5415 27.4362 37.4197 26.3144 36.0399 26.3144H20.2358V12.7259C20.2358 11.3861 21.3253 10.2969 22.6641 10.2969H45.4061C45.4061 15.5878 49.4179 19.9552 54.5589 20.5264V59.4866H20.2358V51.5551C20.2358 50.9226 19.7235 50.4109 19.0917 50.4109C18.4598 50.4109 17.9476 50.9226 17.9476 51.5551V67.3611C17.9476 69.9623 20.0636 72.0783 22.6641 72.0783H52.13C54.7311 72.0783 56.8471 69.9623 56.8471 67.3611V20.5264C61.9882 19.9552 66 15.5878 66 10.2969ZM5.36243 34.3231H36.2532V36.6113H5.36243V34.3231ZM36.0399 45.7642H5.57638C5.51975 45.7641 5.46547 45.7416 5.42538 45.7016C5.38529 45.6616 5.36265 45.6074 5.36243 45.5508V38.8995H36.2532V45.5508C36.2532 45.6681 36.1571 45.7642 36.0399 45.7642ZM36.2532 28.816V32.0349H5.36243V28.816C5.36243 28.6987 5.45853 28.6026 5.57638 28.6026H36.0399C36.1571 28.6026 36.2532 28.6987 36.2532 28.816ZM54.5589 67.3614C54.5589 68.7012 53.4694 69.7904 52.13 69.7904H22.6641C21.325 69.7904 20.2358 68.7009 20.2358 67.3614V61.7751H54.5589V67.3614ZM55.703 18.3057C51.2873 18.3057 47.6943 14.7126 47.6943 10.2969C47.6943 5.88127 51.2873 2.28821 55.703 2.28821C60.1187 2.28821 63.7117 5.88127 63.7117 10.2969C63.7117 14.7126 60.1187 18.3057 55.703 18.3057Z" fill="url(#paint5_linear_508_26522)"/>
<path d="M58.1826 6.23076L54.3804 11.9344L53.0787 10.6327C52.9732 10.5234 52.8469 10.4363 52.7074 10.3763C52.5678 10.3163 52.4176 10.2848 52.2657 10.2835C52.1138 10.2821 51.9632 10.3111 51.8226 10.3686C51.6819 10.4261 51.5542 10.5111 51.4468 10.6185C51.3394 10.7259 51.2544 10.8537 51.1969 10.9943C51.1394 11.1349 51.1104 11.2855 51.1117 11.4375C51.113 11.5894 51.1446 11.7395 51.2046 11.8791C51.2645 12.0187 51.3517 12.1449 51.461 12.2505L53.7492 14.5387C53.8688 14.6585 54.0135 14.7503 54.1729 14.8074C54.3324 14.8645 54.5025 14.8855 54.671 14.8688C54.8395 14.8522 55.0022 14.7983 55.1473 14.7111C55.2925 14.6238 55.4164 14.5055 55.5102 14.3645L60.0867 7.49985C60.1701 7.37487 60.228 7.23467 60.2573 7.08728C60.2865 6.93988 60.2863 6.78817 60.2569 6.64082C60.2274 6.49347 60.1692 6.35337 60.0856 6.22854C60.0019 6.1037 59.8945 5.99657 59.7695 5.91327C59.6445 5.82978 59.5042 5.77176 59.3568 5.74253C59.2093 5.7133 59.0576 5.71343 58.9102 5.74292C58.7628 5.77241 58.6226 5.83068 58.4978 5.91438C58.3729 5.99809 58.2658 6.1056 58.1826 6.23076ZM13.3703 16.0183C14.0021 16.0183 14.5144 15.5066 14.5144 14.8742V9.15366C14.5144 8.52125 14.0021 8.00955 13.3703 8.00955C12.7385 8.00955 12.2262 8.52125 12.2262 9.15366V14.8742C12.2262 15.5066 12.7385 16.0183 13.3703 16.0183ZM8.79389 20.5947C8.79389 19.9623 8.28161 19.4506 7.64978 19.4506H1.92926C1.29743 19.4506 0.785156 19.9623 0.785156 20.5947C0.785156 21.2271 1.29743 21.7388 1.92926 21.7388H7.64978C8.28161 21.7388 8.79389 21.2271 8.79389 20.5947ZM8.05994 16.7399C8.28333 16.9633 8.57622 17.0751 8.86882 17.0751C9.16143 17.0751 9.45432 16.9633 9.67771 16.7399C9.89219 16.5254 10.0127 16.2344 10.0127 15.931C10.0127 15.6277 9.89219 15.3367 9.67771 15.1222L5.6107 11.0552C5.50516 10.9459 5.37892 10.8587 5.23933 10.7988C5.09975 10.7388 4.94962 10.7072 4.7977 10.7059C4.64579 10.7046 4.49513 10.7335 4.35453 10.7911C4.21392 10.8486 4.08618 10.9336 3.97876 11.041C3.87133 11.1484 3.78638 11.2761 3.72885 11.4167C3.67133 11.5574 3.64238 11.708 3.6437 11.8599C3.64502 12.0118 3.67658 12.162 3.73654 12.3015C3.7965 12.4411 3.88366 12.5674 3.99294 12.6729L8.05994 16.7399Z" fill="url(#paint6_linear_508_26522)"/>
<defs>
<linearGradient id="paint0_linear_508_26522" x1="34.2632" y1="66.3367" x2="38.402" y2="66.3367" gradientUnits="userSpaceOnUse">
<stop stop-color="#374BA8"/>
<stop offset="1" stop-color="#2FB7F0"/>
</linearGradient>
<linearGradient id="paint1_linear_508_26522" x1="23.8482" y1="15.7754" x2="26.3314" y2="15.7754" gradientUnits="userSpaceOnUse">
<stop stop-color="#374BA8"/>
<stop offset="1" stop-color="#2FB7F0"/>
</linearGradient>
<linearGradient id="paint2_linear_508_26522" x1="28.4243" y1="15.7754" x2="30.9076" y2="15.7754" gradientUnits="userSpaceOnUse">
<stop stop-color="#374BA8"/>
<stop offset="1" stop-color="#2FB7F0"/>
</linearGradient>
<linearGradient id="paint3_linear_508_26522" x1="33.0005" y1="15.7754" x2="35.4838" y2="15.7754" gradientUnits="userSpaceOnUse">
<stop stop-color="#374BA8"/>
<stop offset="1" stop-color="#2FB7F0"/>
</linearGradient>
<linearGradient id="paint4_linear_508_26522" x1="8.49136" y1="42.5515" x2="20.0799" y2="42.5515" gradientUnits="userSpaceOnUse">
<stop stop-color="#374BA8"/>
<stop offset="1" stop-color="#2FB7F0"/>
</linearGradient>
<linearGradient id="paint5_linear_508_26522" x1="6.37803" y1="42.9646" x2="51.9046" y2="42.9646" gradientUnits="userSpaceOnUse">
<stop stop-color="#374BA8"/>
<stop offset="1" stop-color="#2FB7F0"/>
</linearGradient>
<linearGradient id="paint6_linear_508_26522" x1="3.90879" y1="15.2688" x2="46.9524" y2="15.2688" gradientUnits="userSpaceOnUse">
<stop stop-color="#374BA8"/>
<stop offset="1" stop-color="#2FB7F0"/>
</linearGradient>
</defs>
</svg>
