<svg width="67" height="68" fill="none" xmlns="http://www.w3.org/2000/svg"><path d="M40.087 50.963V33.267a21.353 21.353 0 0 0 6.783 1.095c1.893 0 3.76-.243 5.56-.723l7.856 6.384a.944.944 0 0 0 1.52-.924L59.9 29.865c4.002-3.254 6.284-7.845 6.284-12.684C66.184 7.707 57.52 0 46.87 0S27.556 7.707 27.556 17.181c0 2.777.745 5.401 2.065 7.725H5.768a4.876 4.876 0 0 0-4.87 4.87v21.186a4.876 4.876 0 0 0 4.87 4.871h3.064v8.463a.944.944 0 0 0 1.655.621l7.941-9.084h16.788a4.876 4.876 0 0 0 4.87-4.87h.001ZM46.87 1.889c9.608 0 17.425 6.86 17.425 15.292 0 4.431-2.19 8.642-6.01 11.552a.945.945 0 0 0-.353.942l1.489 7.211-6.18-5.021a.945.945 0 0 0-.86-.174 19.617 19.617 0 0 1-5.511.782c-9.609 0-17.426-6.86-17.426-15.292 0-8.432 7.817-15.292 17.426-15.292ZM35.216 53.944H18a.944.944 0 0 0-.712.323l-6.567 7.514v-6.892a.944.944 0 0 0-.945-.945H5.768a2.985 2.985 0 0 1-2.982-2.981V29.776a2.985 2.985 0 0 1 2.982-2.982H30.87c1.847 2.425 4.372 4.409 7.33 5.736v18.433a2.985 2.985 0 0 1-2.983 2.982ZM1.44 20.224a.944.944 0 0 0 1.153-.28c3.595-4.697 8.545-7.8 13.124-8.283l.102 2.106a1.464 1.464 0 0 0 1.614 1.389c.265-.027.518-.126.73-.286l8.632-6.472c.392-.295.606-.745.585-1.236a1.448 1.448 0 0 0-.689-1.181L17.47.225a1.463 1.463 0 0 0-2.068.545 1.463 1.463 0 0 0-.174.77l.116 2.395C8.066 4.977 2.966 10.33.934 19.108l-.012.05a.944.944 0 0 0 .517 1.066ZM16.416 5.71a.944.944 0 0 0 .857-.985l-.12-2.47 8.015 5.003-7.502 5.625-.11-2.273a.946.946 0 0 0-.969-.898c-4.223.116-8.789 2.285-12.577 5.85C5.915 10.838 9.54 6.347 16.416 5.71Zm47.04 42.059a.945.945 0 0 0-1.152.28c-3.595 4.698-8.545 7.8-13.124 8.284l-.102-2.107a1.463 1.463 0 0 0-1.614-1.389 1.464 1.464 0 0 0-.73.286l-8.632 6.472a1.446 1.446 0 0 0-.585 1.235c.02.491.272.922.689 1.182l9.22 5.757a1.465 1.465 0 0 0 2.242-1.315l-.115-2.396c7.278-1.042 12.377-6.396 14.41-15.173l.011-.049a.944.944 0 0 0-.517-1.067ZM48.48 62.283a.944.944 0 0 0-.856.986l.119 2.47-8.015-5.004 7.502-5.624.11 2.272a.945.945 0 0 0 .969.898c4.223-.115 8.789-2.285 12.577-5.85-1.905 4.724-5.529 9.215-12.407 9.852ZM33.295 48.019a.944.944 0 0 1-.945.944H8.634a.944.944 0 0 1 0-1.889H32.35a.945.945 0 0 1 .945.945ZM7.69 37.819a.944.944 0 0 1 .944-.944H21.43a.944.944 0 0 1 0 1.89H8.634a.944.944 0 0 1-.944-.945Zm25.605 0a.944.944 0 0 1-.945.945h-6.065a.944.944 0 0 1 0-1.889h6.065a.944.944 0 0 1 .945.945Zm0 5.1a.944.944 0 0 1-.945.945H8.634a.944.944 0 1 1 0-1.89H32.35a.944.944 0 0 1 .945.945Zm0-10.199a.944.944 0 0 1-.945.945H8.634a.944.944 0 1 1 0-1.889H32.35a.944.944 0 0 1 .945.944Zm1.324-18.089a.944.944 0 0 1 .944-.944h12.2a.945.945 0 0 1 0 1.889h-12.2a.944.944 0 0 1-.944-.945Zm0 5.1a.944.944 0 0 1 .944-.945h22.613a.945.945 0 0 1 0 1.889H35.563a.944.944 0 0 1-.944-.944Zm21.367 5.1a.944.944 0 0 1-.945.943H38.698a.944.944 0 1 1 0-1.888h16.343a.944.944 0 0 1 .945.944ZM37.754 9.53a.944.944 0 0 1 .944-.943h16.343a.945.945 0 0 1 0 1.888H38.698a.944.944 0 0 1-.944-.944Zm14.64 4.156h5.782a.943.943 0 0 1 .668 1.612.946.946 0 0 1-.668.277h-5.783a.946.946 0 0 1-.361-1.817.944.944 0 0 1 .361-.072Z" fill="url(#a)"/><defs><linearGradient id="a" x1="-.519" y1="43.919" x2="61.818" y2="43.919" gradientUnits="userSpaceOnUse"><stop stop-color="#374BA8"/><stop offset="1" stop-color="#2FB7F0"/></linearGradient></defs></svg>