<svg width="83" height="82" fill="none" xmlns="http://www.w3.org/2000/svg"><mask id="a" style="mask-type:luminance" maskUnits="userSpaceOnUse" x="7" y="6" width="69" height="70"><path d="M74.501 74.001V8H8.5V74h66.001Z" fill="#fff" stroke="#fff" stroke-width="2"/></mask><g mask="url(#a)" stroke-width="2" stroke-miterlimit="22.926" stroke-linecap="round" stroke-linejoin="round"><path d="M44.954 59.063c0-8.069 6.541-14.61 14.61-14.61 8.069 0 14.61 6.541 14.61 14.61a14.54 14.54 0 0 1-2.148 7.627l1.259 4.693c.236.835-.528 1.635-1.387 1.406-1.57-.42-3.139-.842-4.708-1.263a14.54 14.54 0 0 1-7.626 2.147c-8.069 0-14.61-6.541-14.61-14.61Z" stroke="url(#b)"/><path d="M31.17 37.65c5.705 5.706 14.955 5.706 20.66 0 5.706-5.705 5.706-14.955 0-20.66a14.54 14.54 0 0 0-6.91-3.876L42.49 8.906c-.424-.757-1.53-.782-1.975-.013l-2.436 4.222a14.537 14.537 0 0 0-6.91 3.874c-5.706 5.706-5.706 14.956 0 20.662Z" stroke="url(#c)"/><path d="M23.438 44.453c8.068 0 14.61 6.541 14.61 14.61 0 8.069-6.542 14.61-14.61 14.61-2.796 0-5.407-.786-7.628-2.147-1.564.42-3.128.84-4.692 1.258-.835.236-1.635-.528-1.406-1.387l1.262-4.708a14.54 14.54 0 0 1-2.146-7.626c0-8.069 6.54-14.61 14.61-14.61Z" stroke="url(#d)"/><path d="M17.46 53.751h11.955" stroke="url(#e)"/><path d="M17.46 59.063h11.955" stroke="url(#f)"/><path d="M17.46 64.376h5.977" stroke="url(#g)"/><path d="M53.587 53.751H65.54" stroke="url(#h)"/><path d="M53.587 59.063H65.54" stroke="url(#i)"/><path d="M53.586 64.376h5.977" stroke="url(#j)"/><path d="M35.524 22.008h11.954" stroke="url(#k)"/><path d="M35.524 27.32h11.954" stroke="url(#l)"/><path d="M35.524 32.633H41.5" stroke="url(#m)"/></g><defs><linearGradient id="b" x1="46" y1="58" x2="74" y2="58" gradientUnits="userSpaceOnUse"><stop stop-color="#374BA8"/><stop offset="1" stop-color="#2FB7F0"/></linearGradient><linearGradient id="c" x1="26.5" y1="27.999" x2="56.5" y2="27.999" gradientUnits="userSpaceOnUse"><stop stop-color="#374BA8"/><stop offset="1" stop-color="#2FB7F0"/></linearGradient><linearGradient id="d" x1="8.5" y1="56.5" x2="38.5" y2="56.5" gradientUnits="userSpaceOnUse"><stop stop-color="#374BA8"/><stop offset="1" stop-color="#2FB7F0"/></linearGradient><linearGradient id="e" x1="23.438" y1="53.751" x2="23.438" y2="52.751" gradientUnits="userSpaceOnUse"><stop stop-color="#374BA8"/><stop offset="1" stop-color="#2FB7F0"/></linearGradient><linearGradient id="f" x1="23.438" y1="59.063" x2="23.438" y2="58.063" gradientUnits="userSpaceOnUse"><stop stop-color="#374BA8"/><stop offset="1" stop-color="#2FB7F0"/></linearGradient><linearGradient id="g" x1="20.449" y1="64.376" x2="20.449" y2="63.376" gradientUnits="userSpaceOnUse"><stop stop-color="#374BA8"/><stop offset="1" stop-color="#2FB7F0"/></linearGradient><linearGradient id="h" x1="59.564" y1="53.751" x2="59.564" y2="52.751" gradientUnits="userSpaceOnUse"><stop stop-color="#374BA8"/><stop offset="1" stop-color="#2FB7F0"/></linearGradient><linearGradient id="i" x1="59.564" y1="59.063" x2="59.564" y2="58.063" gradientUnits="userSpaceOnUse"><stop stop-color="#374BA8"/><stop offset="1" stop-color="#2FB7F0"/></linearGradient><linearGradient id="j" x1="56.575" y1="64.376" x2="56.575" y2="63.376" gradientUnits="userSpaceOnUse"><stop stop-color="#374BA8"/><stop offset="1" stop-color="#2FB7F0"/></linearGradient><linearGradient id="k" x1="41.501" y1="22.008" x2="41.501" y2="21.008" gradientUnits="userSpaceOnUse"><stop stop-color="#374BA8"/><stop offset="1" stop-color="#2FB7F0"/></linearGradient><linearGradient id="l" x1="41.501" y1="27.32" x2="41.501" y2="26.32" gradientUnits="userSpaceOnUse"><stop stop-color="#374BA8"/><stop offset="1" stop-color="#2FB7F0"/></linearGradient><linearGradient id="m" x1="38.512" y1="32.633" x2="38.512" y2="31.633" gradientUnits="userSpaceOnUse"><stop stop-color="#374BA8"/><stop offset="1" stop-color="#2FB7F0"/></linearGradient></defs></svg>