<svg width="83" height="82" fill="none" xmlns="http://www.w3.org/2000/svg"><path d="M35.948 50.915H19.475c-5.275 0-9.55-4.278-9.55-9.55a9.549 9.549 0 0 1 5.382-8.595 11.804 11.804 0 0 1-.763-4.187c0-6.52 5.286-11.808 11.805-11.808.837 0 1.654.084 2.437.252 1.773-5.611 7.017-9.68 13.212-9.68 6.195 0 11.44 4.069 13.212 9.68.787-.168 1.6-.252 2.437-.252 6.52 0 11.81 5.287 11.81 11.808a11.805 11.805 0 0 1-.764 4.187 9.549 9.549 0 0 1 5.381 8.595c0 5.272-4.278 9.55-9.549 9.55H48.048" stroke="url(#a)" stroke-width="2" stroke-miterlimit="10" stroke-linecap="round" stroke-linejoin="round"/><path d="M51.71 50.915c.433 1.157.654 2.383.654 3.618 0 5.726-4.641 10.364-10.366 10.364-5.722 0-10.363-4.638-10.363-10.364 0-1.272.23-2.49.65-3.618" stroke="url(#b)" stroke-width="2" stroke-miterlimit="10" stroke-linecap="round" stroke-linejoin="round"/><path d="M22.885 50.916v5.73c0 .828.676 1.505 1.505 1.505h1.578a16.29 16.29 0 0 0 2.139 5.16l-1.116 1.116a1.508 1.508 0 0 0 0 2.131l2.983 2.988a1.514 1.514 0 0 0 2.131 0l1.12-1.116a16.31 16.31 0 0 0 5.156 2.136v1.578c0 .828.676 1.508 1.509 1.508h4.22c.829 0 1.509-.68 1.509-1.508v-1.578a16.381 16.381 0 0 0 5.156-2.136l1.116 1.116a1.514 1.514 0 0 0 2.13 0l2.988-2.988a1.515 1.515 0 0 0 0-2.13l-1.116-1.116a16.473 16.473 0 0 0 2.14-5.161h1.573c.829 0 1.508-.677 1.508-1.505v-5.73" stroke="url(#c)" stroke-width="2" stroke-miterlimit="10" stroke-linecap="round" stroke-linejoin="round"/><path d="M56.233 26.468v13.294" stroke="url(#d)" stroke-width="2" stroke-miterlimit="10" stroke-linecap="round" stroke-linejoin="round"/><path d="M41.73 26.468v13.538" stroke="url(#e)" stroke-width="2" stroke-miterlimit="10" stroke-linecap="round" stroke-linejoin="round"/><path d="M49.396 30.288c0 2.113-1.787 3.82-3.896 3.82-1.046 0-3.743.019-3.743.019s-.015-2.773-.015-3.84c0-.874-.011-3.82-.011-3.82h3.77c2.108 0 3.895 1.712 3.895 3.82Z" stroke="url(#f)" stroke-width="2" stroke-miterlimit="10" stroke-linecap="round" stroke-linejoin="round"/><path d="m24.206 40.006 5.084-13.348a.304.304 0 0 1 .566 0l5.038 13.348" stroke="url(#g)" stroke-width="2" stroke-miterlimit="10" stroke-linecap="round" stroke-linejoin="round"/><path d="M25.792 36.683h7.544" stroke="url(#h)" stroke-width="2" stroke-miterlimit="10" stroke-linecap="round" stroke-linejoin="round"/><path d="M42.005 50.915h-.007" stroke="url(#i)" stroke-width="2" stroke-miterlimit="10" stroke-linecap="round" stroke-linejoin="round"/><defs><linearGradient id="a" x1="14" y1="32.5" x2="70" y2="32.5" gradientUnits="userSpaceOnUse"><stop stop-color="#374BA8"/><stop offset="1" stop-color="#2FB7F0"/></linearGradient><linearGradient id="b" x1="41.999" y1="64.897" x2="41.999" y2="50.915" gradientUnits="userSpaceOnUse"><stop stop-color="#374BA8"/><stop offset="1" stop-color="#2FB7F0"/></linearGradient><linearGradient id="c" x1="22.5" y1="56.5" x2="61.5" y2="56.5" gradientUnits="userSpaceOnUse"><stop stop-color="#374BA8"/><stop offset="1" stop-color="#2FB7F0"/></linearGradient><linearGradient id="d" x1="56.733" y1="39.762" x2="56.733" y2="26.468" gradientUnits="userSpaceOnUse"><stop stop-color="#374BA8"/><stop offset="1" stop-color="#2FB7F0"/></linearGradient><linearGradient id="e" x1="42.23" y1="40.006" x2="42.23" y2="26.468" gradientUnits="userSpaceOnUse"><stop stop-color="#374BA8"/><stop offset="1" stop-color="#2FB7F0"/></linearGradient><linearGradient id="f" x1="45.563" y1="34.127" x2="45.563" y2="26.468" gradientUnits="userSpaceOnUse"><stop stop-color="#374BA8"/><stop offset="1" stop-color="#2FB7F0"/></linearGradient><linearGradient id="g" x1="29.55" y1="40.006" x2="29.55" y2="26.467" gradientUnits="userSpaceOnUse"><stop stop-color="#374BA8"/><stop offset="1" stop-color="#2FB7F0"/></linearGradient><linearGradient id="h" x1="29.564" y1="36.683" x2="29.564" y2="35.683" gradientUnits="userSpaceOnUse"><stop stop-color="#374BA8"/><stop offset="1" stop-color="#2FB7F0"/></linearGradient><linearGradient id="i" x1="42.001" y1="50.915" x2="42.001" y2="49.915" gradientUnits="userSpaceOnUse"><stop stop-color="#374BA8"/><stop offset="1" stop-color="#2FB7F0"/></linearGradient></defs></svg>
