<svg width="83" height="82" fill="none" xmlns="http://www.w3.org/2000/svg"><g clip-path="url(#a)"><path d="m28.797 58.535 11.91 12.223" stroke="url(#b)" stroke-width="2" stroke-miterlimit="10" stroke-linecap="round" stroke-linejoin="round"/><mask id="c" style="mask-type:luminance" maskUnits="userSpaceOnUse" x="7" y="7" width="69" height="68"><path d="M8.5 74V8h66v66h-66Z" fill="#fff" stroke="#fff" stroke-width="2"/></mask><g mask="url(#c)"><path d="m8.8 70.758 11.91-12.223" stroke="url(#d)" stroke-width="2" stroke-miterlimit="10" stroke-linecap="round" stroke-linejoin="round"/></g><path d="M65.602 25.898H14.107" stroke="url(#e)" stroke-width="2" stroke-miterlimit="10" stroke-linecap="round" stroke-linejoin="round"/><mask id="f" style="mask-type:luminance" maskUnits="userSpaceOnUse" x="7" y="7" width="69" height="68"><path d="M8.5 74V8h66v66h-66Z" fill="#fff" stroke="#fff" stroke-width="2"/></mask><g mask="url(#f)" stroke-width="2" stroke-miterlimit="10" stroke-linecap="round" stroke-linejoin="round"><path d="M74.504 25.898h-4.245" stroke="url(#g)"/><path d="M63.858 20.481a2.602 2.602 0 0 1-2.602-2.602v-4.442a2.602 2.602 0 1 1 5.204 0v4.442a2.602 2.602 0 0 1-2.602 2.602Z" stroke="url(#h)"/><path d="M24.754 20.481a2.602 2.602 0 0 1-2.603-2.602v-4.442a2.602 2.602 0 0 1 5.205 0v4.442a2.602 2.602 0 0 1-2.602 2.602Z" stroke="url(#i)"/><path d="M27.356 15.658h33.9" stroke="url(#j)"/><path d="M66.46 15.658h4.292a3.752 3.752 0 0 1 3.752 3.752v43.766a3.752 3.752 0 0 1-3.752 3.751H45.668" stroke="url(#k)"/><path d="M14.107 43.943V19.41a3.752 3.752 0 0 1 3.752-3.752h4.292" stroke="url(#l)"/><path d="M9.7 71.164h30.107c.665 0 1.204-.54 1.204-1.204V49.804a1.204 1.204 0 0 0-1.204-1.204H9.701a1.205 1.205 0 0 0-1.205 1.204V69.96a1.204 1.204 0 0 0 1.205 1.204Z" stroke="url(#m)"/><path d="m8.63 49.252 14.605 11.222a2.491 2.491 0 0 0 3.037 0l14.605-11.222" stroke="url(#n)"/><path d="M67.93 39.65v-5.752a1.42 1.42 0 0 0-1.419-1.42H60.76a1.42 1.42 0 0 0-1.42 1.42v5.752c0 .784.636 1.42 1.42 1.42h5.751a1.42 1.42 0 0 0 1.42-1.42Z" stroke="url(#o)"/><path d="M67.93 54.708v-5.751a1.42 1.42 0 0 0-1.419-1.42H60.76a1.42 1.42 0 0 0-1.42 1.42v5.751c0 .784.636 1.42 1.42 1.42h5.751a1.42 1.42 0 0 0 1.42-1.42Z" stroke="url(#p)"/><path d="M55.002 39.65v-5.752a1.42 1.42 0 0 0-1.42-1.42h-5.75a1.42 1.42 0 0 0-1.42 1.42v5.752c0 .784.635 1.42 1.42 1.42h5.75a1.42 1.42 0 0 0 1.42-1.42Z" stroke="url(#q)"/><path d="M55.002 54.708v-5.751a1.42 1.42 0 0 0-1.42-1.42h-5.75a1.42 1.42 0 0 0-1.42 1.42v5.751c0 .784.635 1.42 1.42 1.42h5.75a1.42 1.42 0 0 0 1.42-1.42Z" stroke="url(#r)"/><path d="M42.074 39.65v-5.752a1.42 1.42 0 0 0-1.42-1.42h-5.751a1.42 1.42 0 0 0-1.42 1.42v5.752c0 .784.636 1.42 1.42 1.42h5.751a1.42 1.42 0 0 0 1.42-1.42Z" stroke="url(#s)"/><path d="M29.145 39.65v-5.752a1.42 1.42 0 0 0-1.419-1.42h-5.751a1.42 1.42 0 0 0-1.42 1.42v5.752c0 .784.636 1.42 1.42 1.42h5.751a1.42 1.42 0 0 0 1.42-1.42Z" stroke="url(#t)"/></g></g><defs><linearGradient id="b" x1="34.752" y1="70.758" x2="34.752" y2="58.535" gradientUnits="userSpaceOnUse"><stop stop-color="#374BA8"/><stop offset="1" stop-color="#2FB7F0"/></linearGradient><linearGradient id="d" x1="14.755" y1="70.758" x2="14.755" y2="58.535" gradientUnits="userSpaceOnUse"><stop stop-color="#374BA8"/><stop offset="1" stop-color="#2FB7F0"/></linearGradient><linearGradient id="e" x1="39.855" y1="25.898" x2="39.855" y2="24.898" gradientUnits="userSpaceOnUse"><stop stop-color="#374BA8"/><stop offset="1" stop-color="#2FB7F0"/></linearGradient><linearGradient id="g" x1="72.381" y1="25.898" x2="72.381" y2="24.898" gradientUnits="userSpaceOnUse"><stop stop-color="#374BA8"/><stop offset="1" stop-color="#2FB7F0"/></linearGradient><linearGradient id="h" x1="63.858" y1="20.481" x2="63.858" y2="10.835" gradientUnits="userSpaceOnUse"><stop stop-color="#374BA8"/><stop offset="1" stop-color="#2FB7F0"/></linearGradient><linearGradient id="i" x1="24.754" y1="20.481" x2="24.754" y2="10.835" gradientUnits="userSpaceOnUse"><stop stop-color="#374BA8"/><stop offset="1" stop-color="#2FB7F0"/></linearGradient><linearGradient id="j" x1="44.306" y1="15.658" x2="44.306" y2="14.658" gradientUnits="userSpaceOnUse"><stop stop-color="#374BA8"/><stop offset="1" stop-color="#2FB7F0"/></linearGradient><linearGradient id="k" x1="60.086" y1="66.927" x2="60.086" y2="15.658" gradientUnits="userSpaceOnUse"><stop stop-color="#374BA8"/><stop offset="1" stop-color="#2FB7F0"/></linearGradient><linearGradient id="l" x1="18.129" y1="43.943" x2="18.129" y2="15.658" gradientUnits="userSpaceOnUse"><stop stop-color="#374BA8"/><stop offset="1" stop-color="#2FB7F0"/></linearGradient><linearGradient id="m" x1="24.754" y1="71.164" x2="24.754" y2="48.6" gradientUnits="userSpaceOnUse"><stop stop-color="#374BA8"/><stop offset="1" stop-color="#2FB7F0"/></linearGradient><linearGradient id="n" x1="8.5" y1="60.999" x2="40.5" y2="60.999" gradientUnits="userSpaceOnUse"><stop stop-color="#374BA8"/><stop offset="1" stop-color="#2FB7F0"/></linearGradient><linearGradient id="o" x1="63.636" y1="41.069" x2="63.636" y2="32.479" gradientUnits="userSpaceOnUse"><stop stop-color="#374BA8"/><stop offset="1" stop-color="#2FB7F0"/></linearGradient><linearGradient id="p" x1="63.636" y1="56.128" x2="63.636" y2="47.538" gradientUnits="userSpaceOnUse"><stop stop-color="#374BA8"/><stop offset="1" stop-color="#2FB7F0"/></linearGradient><linearGradient id="q" x1="50.707" y1="41.069" x2="50.707" y2="32.479" gradientUnits="userSpaceOnUse"><stop stop-color="#374BA8"/><stop offset="1" stop-color="#2FB7F0"/></linearGradient><linearGradient id="r" x1="50.707" y1="56.128" x2="50.707" y2="47.538" gradientUnits="userSpaceOnUse"><stop stop-color="#374BA8"/><stop offset="1" stop-color="#2FB7F0"/></linearGradient><linearGradient id="s" x1="37.779" y1="41.069" x2="37.779" y2="32.479" gradientUnits="userSpaceOnUse"><stop stop-color="#374BA8"/><stop offset="1" stop-color="#2FB7F0"/></linearGradient><linearGradient id="t" x1="24.85" y1="41.069" x2="24.85" y2="32.479" gradientUnits="userSpaceOnUse"><stop stop-color="#374BA8"/><stop offset="1" stop-color="#2FB7F0"/></linearGradient><clipPath id="a"><path fill="#fff" transform="matrix(-1 0 0 1 75.5 7)" d="M0 0h68v68H0z"/></clipPath></defs></svg>