<svg width="83" height="82" fill="none" xmlns="http://www.w3.org/2000/svg"><path d="M61.225 4H9.022C6.444 4 4.347 6.089 4.347 8.656v7.42c0 2.568 2.097 4.657 4.675 4.657h4.914l3.197 4.716a1.085 1.085 0 0 0 .9.476 1.09 1.09 0 0 0 .9-.476l3.198-4.716h39.094c2.578 0 4.675-2.09 4.675-4.657v-7.42C65.9 6.09 63.803 4 61.225 4Zm2.502 12.076a2.5 2.5 0 0 1-2.502 2.493H21.553a1.09 1.09 0 0 0-.9.477l-2.62 3.864-2.62-3.864a1.085 1.085 0 0 0-.9-.477H9.022a2.5 2.5 0 0 1-2.503-2.493v-7.42a2.5 2.5 0 0 1 2.503-2.492h52.203a2.5 2.5 0 0 1 2.502 2.492v7.42Zm-2.502 39.997H9.022c-2.578 0-4.675 2.089-4.675 4.656v7.42c0 2.568 2.097 4.657 4.675 4.657h4.914l3.197 4.716a1.084 1.084 0 0 0 .9.477 1.09 1.09 0 0 0 .9-.477l3.198-4.716h39.094c2.578 0 4.675-2.089 4.675-4.656v-7.42c0-2.568-2.097-4.657-4.675-4.657Zm0 14.57H21.553a1.09 1.09 0 0 0-.9.476l-2.62 3.864-2.62-3.864a1.085 1.085 0 0 0-.9-.477H9.022a2.5 2.5 0 0 1-2.503-2.492v-7.42a2.5 2.5 0 0 1 2.503-2.493h52.203a2.5 2.5 0 0 1 2.502 2.492v7.42a2.5 2.5 0 0 1-2.502 2.493Zm12.6-39.813H21.622c-2.582 0-4.675 2.085-4.675 4.656v7.42c0 2.572 2.093 4.657 4.675 4.657H45.68c.288 0 .564-.114.768-.317a1.08 1.08 0 0 0-.768-1.847H21.622a2.497 2.497 0 0 1-2.502-2.492v-7.42a2.498 2.498 0 0 1 2.502-2.493h52.203a2.497 2.497 0 0 1 2.503 2.492v7.42a2.498 2.498 0 0 1-2.503 2.493h-5.491a1.09 1.09 0 0 0-.9.477l-2.62 3.864-2.62-3.864a1.085 1.085 0 0 0-.9-.477h-8.546c-.288 0-.565.114-.768.317a1.08 1.08 0 0 0 .768 1.847h7.968l3.181 4.692c.14.206.34.371.578.447a1.092 1.092 0 0 0 1.239-.423l3.197-4.716h4.914c2.582 0 4.675-2.085 4.675-4.657v-7.42c0-2.571-2.093-4.656-4.675-4.656Z" fill="url(#a)"/><path d="M13.399 8.04c-2.356 0-4.273 1.908-4.273 4.254 0 2.347 1.917 4.256 4.273 4.256s4.272-1.91 4.272-4.256S15.755 8.04 13.4 8.04Zm0 6.346c-1.158 0-2.1-.938-2.1-2.092 0-1.153.942-2.091 2.1-2.091 1.158 0 2.1.938 2.1 2.091a2.098 2.098 0 0 1-2.1 2.092Zm56.05 20.483c-2.357 0-4.273 1.909-4.273 4.255 0 2.347 1.916 4.256 4.272 4.256 2.356 0 4.273-1.91 4.273-4.256s-1.917-4.255-4.273-4.255Zm0 6.347c-1.159 0-2.1-.938-2.1-2.092 0-1.153.941-2.091 2.1-2.091 1.157 0 2.1.938 2.1 2.091a2.098 2.098 0 0 1-2.1 2.092Zm-56.05 18.896c-2.356 0-4.273 1.91-4.273 4.256s1.917 4.255 4.273 4.255 4.272-1.909 4.272-4.255c0-2.347-1.916-4.256-4.272-4.256Zm0 6.347c-1.158 0-2.1-.938-2.1-2.091 0-1.154.942-2.092 2.1-2.092 1.158 0 2.1.938 2.1 2.092a2.098 2.098 0 0 1-2.1 2.091ZM46.855 8.328H20.64a1.09 1.09 0 0 0-1.003.667 1.08 1.08 0 0 0 1.003 1.496h26.215a1.09 1.09 0 0 0 1.003-.668 1.076 1.076 0 0 0-.235-1.178 1.086 1.086 0 0 0-.768-.317Zm10.862 0h-6.373a1.09 1.09 0 0 0-1.003.667 1.08 1.08 0 0 0 1.003 1.496h6.373a1.091 1.091 0 0 0 1.003-.668 1.078 1.078 0 0 0-.587-1.413 1.09 1.09 0 0 0-.416-.082ZM46.855 13.52H20.64a1.087 1.087 0 0 0-1.086 1.081 1.08 1.08 0 0 0 1.086 1.082h26.215c.288 0 .564-.114.768-.317a1.08 1.08 0 0 0-.768-1.847Zm10.862 0h-6.373a1.087 1.087 0 0 0-1.086 1.081 1.08 1.08 0 0 0 1.086 1.082h6.373c.288 0 .564-.114.768-.317a1.08 1.08 0 0 0-.768-1.847ZM49.75 35.446H23.537c-.6 0-1.086.484-1.086 1.082 0 .597.486 1.082 1.086 1.082H49.75c.288 0 .565-.114.768-.317a1.08 1.08 0 0 0-.768-1.847Zm7.966 25.388h-6.373c-.6 0-1.086.484-1.086 1.081 0 .598.486 1.082 1.086 1.082h6.373a1.08 1.08 0 1 0 0-2.164ZM32.37 40.639h-8.834a1.09 1.09 0 0 0-1.004.668 1.078 1.078 0 0 0 .588 1.413c.132.055.273.083.416.083h8.834a1.092 1.092 0 0 0 1.004-.668 1.076 1.076 0 0 0-.235-1.18 1.086 1.086 0 0 0-.769-.316Zm25.346 25.387h-12.89a1.088 1.088 0 0 0-1.086 1.082 1.078 1.078 0 0 0 .67 1c.132.054.273.082.416.082h12.89a1.091 1.091 0 0 0 1.003-.668 1.078 1.078 0 0 0-.587-1.413 1.087 1.087 0 0 0-.416-.082Zm-10.428-5.192H22.595c-.6 0-1.086.484-1.086 1.081 0 .598.486 1.082 1.086 1.082H47.29c.288 0 .564-.114.768-.317a1.08 1.08 0 0 0-.768-1.846Zm-6.807 5.192H22.595a1.088 1.088 0 0 0-1.086 1.082 1.078 1.078 0 0 0 .67 1c.132.054.274.082.416.082h17.887a1.092 1.092 0 0 0 1.003-.668 1.078 1.078 0 0 0-.587-1.413 1.087 1.087 0 0 0-.416-.082Zm19.697-30.58H55.4c-.6 0-1.086.484-1.086 1.082 0 .597.486 1.082 1.087 1.082h4.78c.287 0 .563-.114.767-.317a1.08 1.08 0 0 0-.768-1.847Zm0 5.193H38.6a1.09 1.09 0 0 0-1.003.668 1.08 1.08 0 0 0 1.003 1.496h21.58a1.091 1.091 0 0 0 1.004-.668 1.076 1.076 0 0 0-.236-1.18 1.084 1.084 0 0 0-.768-.316Z" fill="url(#b)"/><defs><linearGradient id="a" x1="1.59" y1="46.058" x2="79.806" y2="46.058" gradientUnits="userSpaceOnUse"><stop stop-color="#374BA8"/><stop offset="1" stop-color="#2FB7F0"/></linearGradient><linearGradient id="b" x1="6.724" y1="42.473" x2="74.858" y2="42.473" gradientUnits="userSpaceOnUse"><stop stop-color="#374BA8"/><stop offset="1" stop-color="#2FB7F0"/></linearGradient></defs></svg>