<svg width="71" height="67" viewBox="0 0 71 67" fill="none" xmlns="http://www.w3.org/2000/svg">
<path d="M4.56986 66.0534L4.56933 66.0536C3.83894 66.3245 3.02678 66.159 2.45129 65.6305C1.87454 65.1008 1.65049 64.2994 1.87414 63.5458C1.87416 63.5458 1.87418 63.5457 1.87419 63.5457L3.25118 58.8446C1.30639 55.9406 0.285547 52.5608 0.285547 49.0408C0.285547 39.2777 8.23225 31.342 17.9845 31.353M4.56986 66.0534L17.9843 31.503M4.56986 66.0534L9.09772 64.3541C11.7906 65.9158 14.8497 66.7396 17.9952 66.7396C26.8047 66.7396 34.1154 60.25 35.4466 51.7972C38.186 52.7681 41.1342 53.3052 44.1983 53.3052C48.9264 53.3052 53.5354 52.0449 57.5711 49.6539L64.6193 52.2916L64.6197 52.2918C65.5569 52.6389 66.5875 52.4304 67.3163 51.7595L67.3172 51.7586C68.0459 51.0762 68.3239 50.0683 68.0463 49.1083L68.0462 49.108L65.916 41.7874M4.56986 66.0534L65.916 41.7874M17.9845 31.353L17.9843 31.503M17.9845 31.353C17.9844 31.353 17.9844 31.353 17.9843 31.353V31.503M17.9845 31.353C18.0999 31.353 18.2151 31.3576 18.3287 31.3638M17.9843 31.503C18.1076 31.503 18.231 31.5084 18.3543 31.5155C18.3457 31.4649 18.3371 31.4144 18.3287 31.3638M18.3287 31.3638C18.0961 29.9641 17.9653 28.5335 17.9653 27.0721C17.9653 12.6163 29.7316 0.85 44.1874 0.85C58.6648 0.85 70.4313 12.6052 70.4313 27.0612C70.4313 32.3607 68.8648 37.4322 65.916 41.7874M18.3287 31.3638C18.3803 31.3666 18.4315 31.3697 18.4823 31.3729C18.2474 29.9698 18.1153 28.5362 18.1153 27.0721C18.1153 12.6992 29.8144 1 44.1874 1C58.5822 1 70.2813 12.6883 70.2813 27.0612C70.2813 32.3542 68.7098 37.418 65.7523 41.7616L65.916 41.7874M9.69252 62.5003L9.69158 62.4998C9.54371 62.41 9.37465 62.361 9.20167 62.3579H9.19901C9.07723 62.3579 8.97218 62.3854 8.86783 62.4202L8.86779 62.4201L8.86266 62.422L3.90797 64.2773L3.90677 64.2778C3.88011 64.288 3.85107 64.2904 3.82311 64.2846C3.79516 64.2788 3.76945 64.2651 3.74904 64.2451L3.74931 64.2449L3.74109 64.2379C3.72058 64.2205 3.70569 64.1974 3.6983 64.1716C3.69091 64.1457 3.69136 64.1182 3.69959 64.0926L3.69965 64.0926L3.70083 64.0885L5.19597 58.9374L5.19615 58.9368C5.274 58.6643 5.22238 58.357 5.06759 58.1249L5.06764 58.1248L5.06522 58.1214C3.18665 55.4669 2.18162 52.2932 2.18982 49.0412V49.0408C2.18982 40.3276 9.28172 33.2463 17.9952 33.2463C18.2369 33.2463 18.4793 33.2625 18.7263 33.2812C20.6731 41.2637 26.2657 47.8253 33.6349 51.0865C32.6239 58.8283 26.0103 64.8462 17.9952 64.8462C15.0543 64.8462 12.1787 64.0353 9.69252 62.5003ZM65.2925 50.5157L65.2918 50.5154L57.8066 47.7222C57.8063 47.722 57.806 47.7219 57.8056 47.7218C57.6707 47.6701 57.5257 47.6502 57.3818 47.6637C57.2377 47.6772 57.0987 47.7238 56.9756 47.7999C53.1342 50.1662 48.7102 51.4168 44.1985 51.4118H44.1983C30.7923 51.4118 19.8804 40.4893 19.8804 27.0721C19.8804 13.666 30.7922 2.75427 44.1983 2.75427C57.6155 2.75427 68.538 13.6661 68.538 27.0721C68.538 32.1269 67.0087 36.9638 64.1021 41.0744C63.9337 41.3083 63.8817 41.6075 63.9717 41.8925C63.9719 41.8931 63.9721 41.8937 63.9723 41.8944L66.2402 49.6469C66.3031 49.9123 66.2297 50.1821 66.0319 50.3717C65.8219 50.5627 65.5545 50.6151 65.2925 50.5157Z" fill="url(#paint0_linear_508_3811)" stroke="url(#paint1_linear_508_3811)" stroke-width="0.3"/>
<mask id="path-2-outside-1_508_3811" maskUnits="userSpaceOnUse" x="25.834" y="8.18555" width="37" height="37" fill="black">
<rect fill="white" x="25.834" y="8.18555" width="37" height="37"/>
<path d="M60.0326 23.0783L58.3301 22.7291C58.0027 21.5177 57.5225 20.3609 56.9004 19.2804L57.8499 17.829C58.3519 17.0541 58.2428 16.0173 57.5989 15.3625L55.3944 13.158C54.7396 12.5032 53.7137 12.3941 52.9388 12.907L51.4765 13.8674C50.3851 13.2453 49.2283 12.7651 48.0387 12.4377L47.6895 10.7462C47.504 9.84035 46.6964 9.18555 45.7687 9.18555H42.6366C41.7199 9.18555 40.9123 9.84035 40.7267 10.7462L40.3775 12.4487C39.177 12.7761 38.0311 13.2453 36.9398 13.8783L35.4774 12.9179C34.7025 12.4159 33.6767 12.525 33.0219 13.1689L30.8174 15.3734C30.1626 16.0283 30.0534 17.065 30.5664 17.8399L31.5158 19.2914C30.8938 20.3718 30.4136 21.5286 30.0862 22.74L28.3837 23.0892C27.4779 23.2748 26.834 24.0823 26.834 24.9991V28.1312C26.834 29.0479 27.4888 29.8555 28.3946 30.0411L30.0971 30.3903C30.4245 31.5908 30.8938 32.7367 31.5267 33.8389L30.5773 35.2904C30.0753 36.0653 30.1844 37.102 30.8283 37.7568L33.0328 39.9613C33.6876 40.6161 34.7244 40.7253 35.4992 40.2124L36.9507 39.2629C38.0311 39.8849 39.188 40.3651 40.3884 40.6925L40.7377 42.395C40.9232 43.3008 41.7308 43.9447 42.6475 43.9447H45.7906C46.7073 43.9447 47.5149 43.2899 47.7004 42.3841L48.0496 40.6816C49.2501 40.3542 50.4069 39.874 51.4983 39.252L52.9498 40.2014C53.7246 40.7035 54.7614 40.6052 55.4162 39.9504L57.6207 37.7459C58.2755 37.0911 58.3846 36.0543 57.8717 35.2795L56.9222 33.828C57.5443 32.7367 58.0245 31.5799 58.3519 30.3794L60.0435 30.0301C60.9493 29.8446 61.6041 29.037 61.6041 28.1094V24.9882C61.5823 24.0714 60.9275 23.2748 60.0326 23.0783ZM59.9889 28.1203C59.9889 28.2949 59.8689 28.4368 59.7052 28.4695L57.5225 28.9279C57.2169 28.9934 56.9768 29.2226 56.9113 29.5281C56.5948 30.8923 56.0492 32.2128 55.2961 33.4242C55.215 33.5538 55.1729 33.704 55.1749 33.8569C55.1768 34.0098 55.2227 34.1589 55.3071 34.2864L56.5403 36.1635C56.6385 36.3054 56.6167 36.5018 56.4966 36.6218L54.2921 38.8263C54.1721 38.9464 53.9756 38.9682 53.8337 38.87L51.9566 37.6477C51.8291 37.5633 51.68 37.5175 51.5272 37.5155C51.3743 37.5136 51.2241 37.5557 51.0945 37.6368C49.8891 38.385 48.5693 38.9306 47.1875 39.252C47.0382 39.2869 46.9021 39.3642 46.7957 39.4745C46.6892 39.5849 46.6168 39.7236 46.5872 39.874L46.1289 42.0676C46.0961 42.2313 45.9543 42.3514 45.7797 42.3514H42.6366C42.4729 42.3514 42.3201 42.2313 42.2874 42.0676L41.829 39.874C41.7976 39.7244 41.7246 39.5867 41.6184 39.4766C41.5122 39.3666 41.3772 39.2887 41.2288 39.252C39.8537 38.9355 38.5441 38.3898 37.3436 37.6368C37.2126 37.5604 37.0708 37.5167 36.918 37.5167C36.7652 37.5167 36.6124 37.5604 36.4814 37.6477L34.6043 38.87C34.4625 38.9682 34.266 38.9464 34.146 38.8263L31.9415 36.6218C31.8824 36.5622 31.8457 36.484 31.8378 36.4005C31.8298 36.3169 31.851 36.2332 31.8978 36.1635L33.131 34.2864C33.2154 34.1589 33.2613 34.0098 33.2632 33.8569C33.2651 33.704 33.223 33.5538 33.1419 33.4242C32.3889 32.2019 31.8432 30.8923 31.5267 29.5281C31.4941 29.3796 31.419 29.2437 31.3105 29.1371C31.2019 29.0305 31.0647 28.9578 30.9156 28.9279L28.722 28.4695C28.6414 28.4535 28.569 28.4098 28.5172 28.3461C28.4653 28.2823 28.4374 28.2025 28.4383 28.1203V24.9882C28.4383 24.8245 28.5583 24.6717 28.722 24.6389L30.9156 24.1806C31.2212 24.1151 31.4613 23.8859 31.5267 23.5803C31.8432 22.1834 32.3889 20.8738 33.1419 19.6842C33.223 19.5546 33.2651 19.4044 33.2632 19.2516C33.2613 19.0987 33.2154 18.9496 33.131 18.8221L31.8978 16.945C31.851 16.8753 31.8298 16.7916 31.8378 16.708C31.8457 16.6244 31.8824 16.5462 31.9415 16.4866L34.146 14.2821C34.266 14.173 34.4515 14.1511 34.5934 14.2494L36.4705 15.4826C36.7324 15.6572 37.0708 15.6572 37.3327 15.4935C38.5303 14.7456 39.8429 14.1999 41.2178 13.8783C41.3672 13.8434 41.5032 13.7661 41.6097 13.6558C41.7161 13.5454 41.7885 13.4067 41.8181 13.2562L42.2765 11.0627C42.3092 10.899 42.4511 10.7789 42.6257 10.7789H45.7578C45.9324 10.7789 46.0743 10.899 46.1071 11.0627L46.5654 13.2453C46.6309 13.5509 46.8601 13.791 47.1657 13.8674C48.5298 14.1839 49.8504 14.7296 51.0727 15.4826C51.3346 15.6463 51.6729 15.6463 51.9348 15.4717L53.8119 14.2385C53.9538 14.1511 54.1393 14.1621 54.2594 14.2821L56.4639 16.4866C56.5839 16.6067 56.6058 16.8031 56.5075 16.945L55.2743 18.8221C55.19 18.9496 55.1441 19.0987 55.1421 19.2516C55.1402 19.4044 55.1823 19.5546 55.2634 19.6842C56.0164 20.8738 56.5621 22.1943 56.8786 23.5803C56.9441 23.8859 57.1842 24.1151 57.4897 24.1806L59.6833 24.6389C59.847 24.6717 59.9671 24.8135 59.9671 24.9882V28.1203H59.9889Z"/>
</mask>
<path d="M60.0326 23.0783L58.3301 22.7291C58.0027 21.5177 57.5225 20.3609 56.9004 19.2804L57.8499 17.829C58.3519 17.0541 58.2428 16.0173 57.5989 15.3625L55.3944 13.158C54.7396 12.5032 53.7137 12.3941 52.9388 12.907L51.4765 13.8674C50.3851 13.2453 49.2283 12.7651 48.0387 12.4377L47.6895 10.7462C47.504 9.84035 46.6964 9.18555 45.7687 9.18555H42.6366C41.7199 9.18555 40.9123 9.84035 40.7267 10.7462L40.3775 12.4487C39.177 12.7761 38.0311 13.2453 36.9398 13.8783L35.4774 12.9179C34.7025 12.4159 33.6767 12.525 33.0219 13.1689L30.8174 15.3734C30.1626 16.0283 30.0534 17.065 30.5664 17.8399L31.5158 19.2914C30.8938 20.3718 30.4136 21.5286 30.0862 22.74L28.3837 23.0892C27.4779 23.2748 26.834 24.0823 26.834 24.9991V28.1312C26.834 29.0479 27.4888 29.8555 28.3946 30.0411L30.0971 30.3903C30.4245 31.5908 30.8938 32.7367 31.5267 33.8389L30.5773 35.2904C30.0753 36.0653 30.1844 37.102 30.8283 37.7568L33.0328 39.9613C33.6876 40.6161 34.7244 40.7253 35.4992 40.2124L36.9507 39.2629C38.0311 39.8849 39.188 40.3651 40.3884 40.6925L40.7377 42.395C40.9232 43.3008 41.7308 43.9447 42.6475 43.9447H45.7906C46.7073 43.9447 47.5149 43.2899 47.7004 42.3841L48.0496 40.6816C49.2501 40.3542 50.4069 39.874 51.4983 39.252L52.9498 40.2014C53.7246 40.7035 54.7614 40.6052 55.4162 39.9504L57.6207 37.7459C58.2755 37.0911 58.3846 36.0543 57.8717 35.2795L56.9222 33.828C57.5443 32.7367 58.0245 31.5799 58.3519 30.3794L60.0435 30.0301C60.9493 29.8446 61.6041 29.037 61.6041 28.1094V24.9882C61.5823 24.0714 60.9275 23.2748 60.0326 23.0783ZM59.9889 28.1203C59.9889 28.2949 59.8689 28.4368 59.7052 28.4695L57.5225 28.9279C57.2169 28.9934 56.9768 29.2226 56.9113 29.5281C56.5948 30.8923 56.0492 32.2128 55.2961 33.4242C55.215 33.5538 55.1729 33.704 55.1749 33.8569C55.1768 34.0098 55.2227 34.1589 55.3071 34.2864L56.5403 36.1635C56.6385 36.3054 56.6167 36.5018 56.4966 36.6218L54.2921 38.8263C54.1721 38.9464 53.9756 38.9682 53.8337 38.87L51.9566 37.6477C51.8291 37.5633 51.68 37.5175 51.5272 37.5155C51.3743 37.5136 51.2241 37.5557 51.0945 37.6368C49.8891 38.385 48.5693 38.9306 47.1875 39.252C47.0382 39.2869 46.9021 39.3642 46.7957 39.4745C46.6892 39.5849 46.6168 39.7236 46.5872 39.874L46.1289 42.0676C46.0961 42.2313 45.9543 42.3514 45.7797 42.3514H42.6366C42.4729 42.3514 42.3201 42.2313 42.2874 42.0676L41.829 39.874C41.7976 39.7244 41.7246 39.5867 41.6184 39.4766C41.5122 39.3666 41.3772 39.2887 41.2288 39.252C39.8537 38.9355 38.5441 38.3898 37.3436 37.6368C37.2126 37.5604 37.0708 37.5167 36.918 37.5167C36.7652 37.5167 36.6124 37.5604 36.4814 37.6477L34.6043 38.87C34.4625 38.9682 34.266 38.9464 34.146 38.8263L31.9415 36.6218C31.8824 36.5622 31.8457 36.484 31.8378 36.4005C31.8298 36.3169 31.851 36.2332 31.8978 36.1635L33.131 34.2864C33.2154 34.1589 33.2613 34.0098 33.2632 33.8569C33.2651 33.704 33.223 33.5538 33.1419 33.4242C32.3889 32.2019 31.8432 30.8923 31.5267 29.5281C31.4941 29.3796 31.419 29.2437 31.3105 29.1371C31.2019 29.0305 31.0647 28.9578 30.9156 28.9279L28.722 28.4695C28.6414 28.4535 28.569 28.4098 28.5172 28.3461C28.4653 28.2823 28.4374 28.2025 28.4383 28.1203V24.9882C28.4383 24.8245 28.5583 24.6717 28.722 24.6389L30.9156 24.1806C31.2212 24.1151 31.4613 23.8859 31.5267 23.5803C31.8432 22.1834 32.3889 20.8738 33.1419 19.6842C33.223 19.5546 33.2651 19.4044 33.2632 19.2516C33.2613 19.0987 33.2154 18.9496 33.131 18.8221L31.8978 16.945C31.851 16.8753 31.8298 16.7916 31.8378 16.708C31.8457 16.6244 31.8824 16.5462 31.9415 16.4866L34.146 14.2821C34.266 14.173 34.4515 14.1511 34.5934 14.2494L36.4705 15.4826C36.7324 15.6572 37.0708 15.6572 37.3327 15.4935C38.5303 14.7456 39.8429 14.1999 41.2178 13.8783C41.3672 13.8434 41.5032 13.7661 41.6097 13.6558C41.7161 13.5454 41.7885 13.4067 41.8181 13.2562L42.2765 11.0627C42.3092 10.899 42.4511 10.7789 42.6257 10.7789H45.7578C45.9324 10.7789 46.0743 10.899 46.1071 11.0627L46.5654 13.2453C46.6309 13.5509 46.8601 13.791 47.1657 13.8674C48.5298 14.1839 49.8504 14.7296 51.0727 15.4826C51.3346 15.6463 51.6729 15.6463 51.9348 15.4717L53.8119 14.2385C53.9538 14.1511 54.1393 14.1621 54.2594 14.2821L56.4639 16.4866C56.5839 16.6067 56.6058 16.8031 56.5075 16.945L55.2743 18.8221C55.19 18.9496 55.1441 19.0987 55.1421 19.2516C55.1402 19.4044 55.1823 19.5546 55.2634 19.6842C56.0164 20.8738 56.5621 22.1943 56.8786 23.5803C56.9441 23.8859 57.1842 24.1151 57.4897 24.1806L59.6833 24.6389C59.847 24.6717 59.9671 24.8135 59.9671 24.9882V28.1203H59.9889Z" fill="url(#paint2_linear_508_3811)"/>
<path d="M60.0326 23.0783L58.3301 22.7291C58.0027 21.5177 57.5225 20.3609 56.9004 19.2804L57.8499 17.829C58.3519 17.0541 58.2428 16.0173 57.5989 15.3625L55.3944 13.158C54.7396 12.5032 53.7137 12.3941 52.9388 12.907L51.4765 13.8674C50.3851 13.2453 49.2283 12.7651 48.0387 12.4377L47.6895 10.7462C47.504 9.84035 46.6964 9.18555 45.7687 9.18555H42.6366C41.7199 9.18555 40.9123 9.84035 40.7267 10.7462L40.3775 12.4487C39.177 12.7761 38.0311 13.2453 36.9398 13.8783L35.4774 12.9179C34.7025 12.4159 33.6767 12.525 33.0219 13.1689L30.8174 15.3734C30.1626 16.0283 30.0534 17.065 30.5664 17.8399L31.5158 19.2914C30.8938 20.3718 30.4136 21.5286 30.0862 22.74L28.3837 23.0892C27.4779 23.2748 26.834 24.0823 26.834 24.9991V28.1312C26.834 29.0479 27.4888 29.8555 28.3946 30.0411L30.0971 30.3903C30.4245 31.5908 30.8938 32.7367 31.5267 33.8389L30.5773 35.2904C30.0753 36.0653 30.1844 37.102 30.8283 37.7568L33.0328 39.9613C33.6876 40.6161 34.7244 40.7253 35.4992 40.2124L36.9507 39.2629C38.0311 39.8849 39.188 40.3651 40.3884 40.6925L40.7377 42.395C40.9232 43.3008 41.7308 43.9447 42.6475 43.9447H45.7906C46.7073 43.9447 47.5149 43.2899 47.7004 42.3841L48.0496 40.6816C49.2501 40.3542 50.4069 39.874 51.4983 39.252L52.9498 40.2014C53.7246 40.7035 54.7614 40.6052 55.4162 39.9504L57.6207 37.7459C58.2755 37.0911 58.3846 36.0543 57.8717 35.2795L56.9222 33.828C57.5443 32.7367 58.0245 31.5799 58.3519 30.3794L60.0435 30.0301C60.9493 29.8446 61.6041 29.037 61.6041 28.1094V24.9882C61.5823 24.0714 60.9275 23.2748 60.0326 23.0783ZM59.9889 28.1203C59.9889 28.2949 59.8689 28.4368 59.7052 28.4695L57.5225 28.9279C57.2169 28.9934 56.9768 29.2226 56.9113 29.5281C56.5948 30.8923 56.0492 32.2128 55.2961 33.4242C55.215 33.5538 55.1729 33.704 55.1749 33.8569C55.1768 34.0098 55.2227 34.1589 55.3071 34.2864L56.5403 36.1635C56.6385 36.3054 56.6167 36.5018 56.4966 36.6218L54.2921 38.8263C54.1721 38.9464 53.9756 38.9682 53.8337 38.87L51.9566 37.6477C51.8291 37.5633 51.68 37.5175 51.5272 37.5155C51.3743 37.5136 51.2241 37.5557 51.0945 37.6368C49.8891 38.385 48.5693 38.9306 47.1875 39.252C47.0382 39.2869 46.9021 39.3642 46.7957 39.4745C46.6892 39.5849 46.6168 39.7236 46.5872 39.874L46.1289 42.0676C46.0961 42.2313 45.9543 42.3514 45.7797 42.3514H42.6366C42.4729 42.3514 42.3201 42.2313 42.2874 42.0676L41.829 39.874C41.7976 39.7244 41.7246 39.5867 41.6184 39.4766C41.5122 39.3666 41.3772 39.2887 41.2288 39.252C39.8537 38.9355 38.5441 38.3898 37.3436 37.6368C37.2126 37.5604 37.0708 37.5167 36.918 37.5167C36.7652 37.5167 36.6124 37.5604 36.4814 37.6477L34.6043 38.87C34.4625 38.9682 34.266 38.9464 34.146 38.8263L31.9415 36.6218C31.8824 36.5622 31.8457 36.484 31.8378 36.4005C31.8298 36.3169 31.851 36.2332 31.8978 36.1635L33.131 34.2864C33.2154 34.1589 33.2613 34.0098 33.2632 33.8569C33.2651 33.704 33.223 33.5538 33.1419 33.4242C32.3889 32.2019 31.8432 30.8923 31.5267 29.5281C31.4941 29.3796 31.419 29.2437 31.3105 29.1371C31.2019 29.0305 31.0647 28.9578 30.9156 28.9279L28.722 28.4695C28.6414 28.4535 28.569 28.4098 28.5172 28.3461C28.4653 28.2823 28.4374 28.2025 28.4383 28.1203V24.9882C28.4383 24.8245 28.5583 24.6717 28.722 24.6389L30.9156 24.1806C31.2212 24.1151 31.4613 23.8859 31.5267 23.5803C31.8432 22.1834 32.3889 20.8738 33.1419 19.6842C33.223 19.5546 33.2651 19.4044 33.2632 19.2516C33.2613 19.0987 33.2154 18.9496 33.131 18.8221L31.8978 16.945C31.851 16.8753 31.8298 16.7916 31.8378 16.708C31.8457 16.6244 31.8824 16.5462 31.9415 16.4866L34.146 14.2821C34.266 14.173 34.4515 14.1511 34.5934 14.2494L36.4705 15.4826C36.7324 15.6572 37.0708 15.6572 37.3327 15.4935C38.5303 14.7456 39.8429 14.1999 41.2178 13.8783C41.3672 13.8434 41.5032 13.7661 41.6097 13.6558C41.7161 13.5454 41.7885 13.4067 41.8181 13.2562L42.2765 11.0627C42.3092 10.899 42.4511 10.7789 42.6257 10.7789H45.7578C45.9324 10.7789 46.0743 10.899 46.1071 11.0627L46.5654 13.2453C46.6309 13.5509 46.8601 13.791 47.1657 13.8674C48.5298 14.1839 49.8504 14.7296 51.0727 15.4826C51.3346 15.6463 51.6729 15.6463 51.9348 15.4717L53.8119 14.2385C53.9538 14.1511 54.1393 14.1621 54.2594 14.2821L56.4639 16.4866C56.5839 16.6067 56.6058 16.8031 56.5075 16.945L55.2743 18.8221C55.19 18.9496 55.1441 19.0987 55.1421 19.2516C55.1402 19.4044 55.1823 19.5546 55.2634 19.6842C56.0164 20.8738 56.5621 22.1943 56.8786 23.5803C56.9441 23.8859 57.1842 24.1151 57.4897 24.1806L59.6833 24.6389C59.847 24.6717 59.9671 24.8135 59.9671 24.9882V28.1203H59.9889Z" stroke="url(#paint3_linear_508_3811)" stroke-width="0.6" mask="url(#path-2-outside-1_508_3811)"/>
<path d="M44.1962 32.3625H44.1992C47.4033 32.3625 50.0023 29.7635 50.0023 26.5594C50.0023 23.3551 47.3922 20.7562 44.1992 20.7562L44.1962 20.7563C42.6769 20.7861 41.2299 21.4107 40.166 22.4957C39.102 23.5807 38.5061 25.0398 38.5061 26.5594C38.5061 28.079 39.102 29.538 40.166 30.6231C41.2299 31.7081 42.6769 32.3327 44.1962 32.3625ZM8.89433 47.0847H19.4694C19.9888 47.0847 20.4161 46.6574 20.4161 46.138C20.4161 45.6187 19.9888 45.1914 19.4694 45.1914H8.89433C8.37496 45.1914 7.94766 45.6187 7.94766 46.138C7.94766 46.6574 8.37496 47.0847 8.89433 47.0847ZM23.0163 51.0082H8.89433C8.37496 51.0082 7.94766 51.4355 7.94766 51.9549C7.94766 52.4743 8.37496 52.9016 8.89433 52.9016H23.0163C23.5357 52.9016 23.963 52.4743 23.963 51.9549C23.963 51.4368 23.5479 51.0082 23.0163 51.0082Z" fill="url(#paint4_linear_508_3811)" stroke="url(#paint5_linear_508_3811)" stroke-width="0.3"/>
<defs>
<linearGradient id="paint0_linear_508_3811" x1="4.10269" y1="40.0968" x2="54.6359" y2="40.0968" gradientUnits="userSpaceOnUse">
<stop stop-color="#374BA8"/>
<stop offset="1" stop-color="#2FB7F0"/>
</linearGradient>
<linearGradient id="paint1_linear_508_3811" x1="4.10269" y1="40.0968" x2="54.6359" y2="40.0968" gradientUnits="userSpaceOnUse">
<stop stop-color="#374BA8"/>
<stop offset="1" stop-color="#2FB7F0"/>
</linearGradient>
<linearGradient id="paint2_linear_508_3811" x1="28.6595" y1="29.9049" x2="53.8156" y2="29.9049" gradientUnits="userSpaceOnUse">
<stop stop-color="#374BA8"/>
<stop offset="1" stop-color="#2FB7F0"/>
</linearGradient>
<linearGradient id="paint3_linear_508_3811" x1="28.6595" y1="29.9049" x2="53.8156" y2="29.9049" gradientUnits="userSpaceOnUse">
<stop stop-color="#374BA8"/>
<stop offset="1" stop-color="#2FB7F0"/>
</linearGradient>
<linearGradient id="paint4_linear_508_3811" x1="10.2899" y1="39.8887" x2="40.4993" y2="39.8887" gradientUnits="userSpaceOnUse">
<stop stop-color="#374BA8"/>
<stop offset="1" stop-color="#2FB7F0"/>
</linearGradient>
<linearGradient id="paint5_linear_508_3811" x1="10.2899" y1="39.8887" x2="40.4993" y2="39.8887" gradientUnits="userSpaceOnUse">
<stop stop-color="#374BA8"/>
<stop offset="1" stop-color="#2FB7F0"/>
</linearGradient>
</defs>
</svg>
