<svg width="69" height="66" viewBox="0 0 69 66" fill="none" xmlns="http://www.w3.org/2000/svg">
<path d="M55.5689 60.1949C45.6842 66.6318 32.3161 65.5133 23.6421 56.8393C13.6841 46.8813 13.6841 30.7361 23.6421 20.7782C33.6002 10.8201 49.7452 10.8201 59.7033 20.7782C68.3691 29.444 69.4936 42.7953 63.0769 52.6771" fill="white"/>
<path d="M55.5689 60.1949C45.6842 66.6318 32.3161 65.5133 23.6421 56.8393C13.6841 46.8813 13.6841 30.7361 23.6421 20.7782C33.6002 10.8201 49.7452 10.8201 59.7033 20.7782C68.3691 29.444 69.4936 42.7953 63.0769 52.6771" stroke="url(#paint0_linear_508_3823)" stroke-width="2" stroke-miterlimit="10" stroke-linecap="round" stroke-linejoin="round"/>
<path d="M41.6725 58.0833C31.0275 58.0833 22.3982 49.4539 22.3982 38.809C22.3982 28.164 31.0275 19.5347 41.6725 19.5347C52.3174 19.5347 60.9467 28.164 60.9467 38.809C60.9467 49.4539 52.3174 58.0833 41.6725 58.0833Z" fill="white" stroke="url(#paint1_linear_508_3823)" stroke-width="2" stroke-miterlimit="10" stroke-linecap="round" stroke-linejoin="round"/>
<path d="M36.8727 8.06665H46.4349C48.1952 8.06665 49.6222 6.63963 49.6222 4.87926C49.6222 3.1189 48.1952 1.69188 46.4349 1.69188H36.8727C35.1123 1.69188 33.6853 3.1189 33.6853 4.87926C33.6853 6.63963 35.1123 8.06665 36.8727 8.06665Z" fill="white" stroke="url(#paint2_linear_508_3823)" stroke-width="2" stroke-miterlimit="10" stroke-linecap="round" stroke-linejoin="round"/>
<path d="M46.197 13.3098V8.06709H37.1111V13.3098" fill="white"/>
<path d="M46.197 13.3098V8.06709H37.1111V13.3098" stroke="url(#paint3_linear_508_3823)" stroke-width="2" stroke-miterlimit="10" stroke-linecap="round" stroke-linejoin="round"/>
<path d="M44.1912 36.2922L51.0139 29.4695L44.1912 36.2922Z" fill="white"/>
<path d="M44.1912 36.2922L51.0139 29.4695" stroke="url(#paint4_linear_508_3823)" stroke-width="2" stroke-miterlimit="10" stroke-linecap="round" stroke-linejoin="round"/>
<path d="M38.8748 38.8089C38.8748 40.3546 40.1278 41.6077 41.6735 41.6077C43.2193 41.6077 44.4723 40.3546 44.4723 38.8089C44.4723 37.2631 43.2193 36.0101 41.6735 36.0101C40.1278 36.0101 38.8748 37.2631 38.8748 38.8089Z" fill="white" stroke="url(#paint5_linear_508_3823)" stroke-width="2" stroke-miterlimit="10" stroke-linecap="round" stroke-linejoin="round"/>
<path d="M55.8727 38.8245H54.6423H55.8727Z" fill="white"/>
<path d="M55.8727 38.8245H54.6423" stroke="url(#paint6_linear_508_3823)" stroke-width="2" stroke-miterlimit="10" stroke-linecap="round" stroke-linejoin="round"/>
<path d="M27.4763 38.7922H28.7066H27.4763Z" fill="white"/>
<path d="M27.4763 38.7922H28.7066" stroke="url(#paint7_linear_508_3823)" stroke-width="2" stroke-miterlimit="10" stroke-linecap="round" stroke-linejoin="round"/>
<path d="M41.6892 24.6088V25.8391V24.6088Z" fill="white"/>
<path d="M41.6892 24.6088V25.8391" stroke="url(#paint8_linear_508_3823)" stroke-width="2" stroke-miterlimit="10" stroke-linecap="round" stroke-linejoin="round"/>
<path d="M41.658 53.009V51.7787V53.009Z" fill="white"/>
<path d="M41.658 53.009V51.7787" stroke="url(#paint9_linear_508_3823)" stroke-width="2" stroke-miterlimit="10" stroke-linecap="round" stroke-linejoin="round"/>
<path d="M39.5741 36.7085L35.9685 33.1029L39.5741 36.7085Z" fill="white"/>
<path d="M39.5741 36.7085L35.9685 33.1029" stroke="url(#paint10_linear_508_3823)" stroke-width="2" stroke-miterlimit="10" stroke-linecap="round" stroke-linejoin="round"/>
<path d="M43.6538 36.8295L50.8218 29.6616L43.6538 36.8295Z" fill="white"/>
<path d="M43.6538 36.8295L50.8218 29.6616" stroke="url(#paint11_linear_508_3823)" stroke-width="2" stroke-miterlimit="10" stroke-linecap="round" stroke-linejoin="round"/>
<path d="M17.3387 47.0042H7.14429H17.3387Z" fill="white"/>
<path d="M17.3387 47.0042H7.14429" stroke="url(#paint12_linear_508_3823)" stroke-width="2" stroke-miterlimit="10" stroke-linecap="round" stroke-linejoin="round"/>
<path d="M16.1754 39.2424H9.00366H16.1754Z" fill="white"/>
<path d="M16.1754 39.2424H9.00366" stroke="url(#paint13_linear_508_3823)" stroke-width="2" stroke-miterlimit="10" stroke-linecap="round" stroke-linejoin="round"/>
<path d="M16.9844 31.4817H1.83179H16.9844Z" fill="white"/>
<path d="M16.9844 31.4817H1.83179" stroke="url(#paint14_linear_508_3823)" stroke-width="2" stroke-miterlimit="10" stroke-linecap="round" stroke-linejoin="round"/>
<path d="M20.3485 23.7209H10.8845H20.3485Z" fill="white"/>
<path d="M20.3485 23.7209H10.8845" stroke="url(#paint15_linear_508_3823)" stroke-width="2" stroke-miterlimit="10" stroke-linecap="round" stroke-linejoin="round"/>
<defs>
<linearGradient id="paint0_linear_508_3823" x1="18.8512" y1="33.9087" x2="55.7482" y2="33.9087" gradientUnits="userSpaceOnUse">
<stop stop-color="#374BA8"/>
<stop offset="1" stop-color="#2FB7F0"/>
</linearGradient>
<linearGradient id="paint1_linear_508_3823" x1="24.4221" y1="35.1052" x2="52.3118" y2="35.1052" gradientUnits="userSpaceOnUse">
<stop stop-color="#374BA8"/>
<stop offset="1" stop-color="#2FB7F0"/>
</linearGradient>
<linearGradient id="paint2_linear_508_3823" x1="34.522" y1="4.26676" x2="46.0524" y2="4.26676" gradientUnits="userSpaceOnUse">
<stop stop-color="#374BA8"/>
<stop offset="1" stop-color="#2FB7F0"/>
</linearGradient>
<linearGradient id="paint3_linear_508_3823" x1="37.5881" y1="10.1847" x2="44.1617" y2="10.1847" gradientUnits="userSpaceOnUse">
<stop stop-color="#374BA8"/>
<stop offset="1" stop-color="#2FB7F0"/>
</linearGradient>
<linearGradient id="paint4_linear_508_3823" x1="44.5494" y1="32.2253" x2="49.4856" y2="32.2253" gradientUnits="userSpaceOnUse">
<stop stop-color="#374BA8"/>
<stop offset="1" stop-color="#2FB7F0"/>
</linearGradient>
<linearGradient id="paint5_linear_508_3823" x1="39.1686" y1="38.271" x2="43.2185" y2="38.271" gradientUnits="userSpaceOnUse">
<stop stop-color="#374BA8"/>
<stop offset="1" stop-color="#2FB7F0"/>
</linearGradient>
<linearGradient id="paint6_linear_508_3823" x1="54.7069" y1="38.2284" x2="55.5971" y2="38.2284" gradientUnits="userSpaceOnUse">
<stop stop-color="#374BA8"/>
<stop offset="1" stop-color="#2FB7F0"/>
</linearGradient>
<linearGradient id="paint7_linear_508_3823" x1="27.5409" y1="38.1962" x2="28.4311" y2="38.1962" gradientUnits="userSpaceOnUse">
<stop stop-color="#374BA8"/>
<stop offset="1" stop-color="#2FB7F0"/>
</linearGradient>
<linearGradient id="paint8_linear_508_3823" x1="41.7417" y1="25.1057" x2="42.4652" y2="25.1057" gradientUnits="userSpaceOnUse">
<stop stop-color="#374BA8"/>
<stop offset="1" stop-color="#2FB7F0"/>
</linearGradient>
<linearGradient id="paint9_linear_508_3823" x1="41.7105" y1="52.2757" x2="42.434" y2="52.2757" gradientUnits="userSpaceOnUse">
<stop stop-color="#374BA8"/>
<stop offset="1" stop-color="#2FB7F0"/>
</linearGradient>
<linearGradient id="paint10_linear_508_3823" x1="36.1578" y1="34.5593" x2="38.7664" y2="34.5593" gradientUnits="userSpaceOnUse">
<stop stop-color="#374BA8"/>
<stop offset="1" stop-color="#2FB7F0"/>
</linearGradient>
<linearGradient id="paint11_linear_508_3823" x1="44.0302" y1="32.5568" x2="49.2162" y2="32.5568" gradientUnits="userSpaceOnUse">
<stop stop-color="#374BA8"/>
<stop offset="1" stop-color="#2FB7F0"/>
</linearGradient>
<linearGradient id="paint12_linear_508_3823" x1="7.67953" y1="46.4081" x2="15.0552" y2="46.4081" gradientUnits="userSpaceOnUse">
<stop stop-color="#374BA8"/>
<stop offset="1" stop-color="#2FB7F0"/>
</linearGradient>
<linearGradient id="paint13_linear_508_3823" x1="9.3802" y1="38.6463" x2="14.5689" y2="38.6463" gradientUnits="userSpaceOnUse">
<stop stop-color="#374BA8"/>
<stop offset="1" stop-color="#2FB7F0"/>
</linearGradient>
<linearGradient id="paint14_linear_508_3823" x1="2.62735" y1="30.8856" x2="13.5902" y2="30.8856" gradientUnits="userSpaceOnUse">
<stop stop-color="#374BA8"/>
<stop offset="1" stop-color="#2FB7F0"/>
</linearGradient>
<linearGradient id="paint15_linear_508_3823" x1="11.3814" y1="23.1249" x2="18.2286" y2="23.1249" gradientUnits="userSpaceOnUse">
<stop stop-color="#374BA8"/>
<stop offset="1" stop-color="#2FB7F0"/>
</linearGradient>
</defs>
</svg>
