<svg width="66" height="67" viewBox="0 0 66 67" fill="none" xmlns="http://www.w3.org/2000/svg">
<path d="M5.21359 66.3098H32.0425C34.8806 66.3098 37.1882 64.0009 37.1882 61.1641V43.4197C37.1882 43.0679 37.0484 42.7306 36.7997 42.4819C36.551 42.2332 36.2137 42.0935 35.862 42.0935C35.5102 42.0935 35.1729 42.2332 34.9242 42.4819C34.6755 42.7306 34.5358 43.0679 34.5358 43.4197V61.1641C34.5358 62.5394 33.4165 63.6574 32.0425 63.6574H5.21359C4.5509 63.6581 3.91496 63.3961 3.44512 62.9287C2.97529 62.4614 2.70989 61.8268 2.70708 61.1641V5.1589C2.70708 3.77701 3.83169 2.65239 5.21359 2.65239H32.0425C33.4165 2.65239 34.5358 3.77701 34.5358 5.1589V14.4555C34.5358 14.6297 34.5701 14.8021 34.6367 14.963C34.7034 15.1239 34.8011 15.2701 34.9242 15.3933C35.0474 15.5164 35.1936 15.6141 35.3545 15.6808C35.5154 15.7474 35.6878 15.7817 35.862 15.7817C36.0361 15.7817 36.2086 15.7474 36.3695 15.6808C36.5304 15.6141 36.6766 15.5164 36.7997 15.3933C36.9229 15.2701 37.0206 15.1239 37.0872 14.963C37.1539 14.8021 37.1882 14.6297 37.1882 14.4555V5.1589C37.1882 2.31421 34.8806 0 32.0425 0H5.21359C3.84579 0.00140431 2.53442 0.545381 1.56725 1.51256C0.600069 2.47974 0.0560918 3.79111 0.0546875 5.1589V61.1641C0.0581989 62.5301 0.603274 63.8389 1.57038 64.8035C2.53748 65.7681 3.84766 66.3098 5.21359 66.3098Z" fill="url(#paint0_linear_508_3844)"/>
<path d="M26.3772 5.61355C26.3772 5.26182 26.2375 4.9245 25.9888 4.67579C25.7401 4.42708 25.4028 4.28735 25.051 4.28735H12.1975C11.8458 4.28735 11.5085 4.42708 11.2598 4.67579C11.0111 4.9245 10.8713 5.26182 10.8713 5.61355C10.8713 5.96528 11.0111 6.3026 11.2598 6.55131C11.5085 6.80002 11.8458 6.93974 12.1975 6.93974H25.051C25.4028 6.93974 25.7401 6.80002 25.9888 6.55131C26.2375 6.3026 26.3772 5.96528 26.3772 5.61355ZM17.7066 62.0273H19.5433C19.8951 62.0273 20.2324 61.8875 20.4811 61.6388C20.7298 61.3901 20.8695 61.0528 20.8695 60.7011C20.8695 60.3493 20.7298 60.012 20.4811 59.7633C20.2324 59.5146 19.8951 59.3749 19.5433 59.3749H17.7066C17.3548 59.3749 17.0175 59.5146 16.7688 59.7633C16.5201 60.012 16.3804 60.3493 16.3804 60.7011C16.3804 61.0528 16.5201 61.3901 16.7688 61.6388C17.0175 61.8875 17.3548 62.0273 17.7066 62.0273ZM29.1317 6.9424C29.4779 6.9424 29.8227 6.79652 30.0733 6.5578C30.3134 6.30582 30.4579 5.96101 30.4579 5.6162C30.4579 5.25813 30.3134 4.92658 30.0733 4.6746C29.8861 4.4919 29.65 4.36717 29.3936 4.31541C29.1372 4.26365 28.8712 4.28707 28.6278 4.38284C28.4554 4.44915 28.3095 4.55524 28.1901 4.6746C27.9514 4.92658 27.8055 5.25813 27.8055 5.6162C27.8055 5.96101 27.9514 6.30582 28.1901 6.5578C28.3095 6.67716 28.4554 6.76999 28.6278 6.8363C28.7869 6.90261 28.9593 6.9424 29.1317 6.9424ZM17.2981 19.7574V43.4274C17.298 43.6781 17.3691 43.9237 17.5029 44.1358C17.6368 44.3478 17.8281 44.5175 18.0545 44.6252C18.2809 44.7329 18.5333 44.7743 18.7822 44.7444C19.0312 44.7146 19.2666 44.6147 19.4611 44.4565L25.6239 39.4461H63.8171C64.1688 39.4461 64.5061 39.3064 64.7548 39.0577C65.0035 38.809 65.1432 38.4717 65.1432 38.1199V19.7574C65.1432 19.4057 65.0035 19.0684 64.7548 18.8197C64.5061 18.571 64.1688 18.4312 63.8171 18.4312H18.6243C18.2725 18.4312 17.9352 18.571 17.6865 18.8197C17.4378 19.0684 17.2981 19.4057 17.2981 19.7574ZM19.9505 21.0836H62.4909V36.7937H25.1531C24.8494 36.7937 24.5537 36.8985 24.3163 37.0908L19.9505 40.6397V21.0836Z" fill="url(#paint1_linear_508_3844)"/>
<path d="M36.8302 31.4738C37.0061 31.7784 37.2958 32.0007 37.6355 32.0917C37.9752 32.1827 38.3372 32.1351 38.6418 31.9592L39.8911 31.2378V32.682C39.8911 33.0337 40.0308 33.371 40.2795 33.6198C40.5282 33.8685 40.8656 34.0082 41.2173 34.0082C41.569 34.0082 41.9063 33.8685 42.1551 33.6198C42.4038 33.371 42.5435 33.0337 42.5435 32.682V31.2378L43.7928 31.9592C43.9435 32.0466 44.11 32.1034 44.2828 32.1264C44.4555 32.1493 44.631 32.1379 44.7994 32.0928C44.9677 32.0477 45.1254 31.9698 45.2636 31.8636C45.4017 31.7573 45.5175 31.6249 45.6043 31.4738C45.7802 31.1692 45.8279 30.8072 45.7368 30.4675C45.6458 30.1278 45.4236 29.8381 45.119 29.6622L43.8684 28.9395L45.119 28.2167C45.271 28.1302 45.4044 28.0146 45.5116 27.8764C45.6188 27.7381 45.6975 27.5801 45.7433 27.4113C45.7892 27.2425 45.8012 27.0663 45.7786 26.8929C45.7561 26.7194 45.6994 26.5522 45.612 26.4007C45.5245 26.2492 45.408 26.1166 45.2691 26.0103C45.1301 25.9041 44.9715 25.8264 44.8025 25.7817C44.6334 25.737 44.4571 25.7261 44.2838 25.7498C44.1105 25.7735 43.9436 25.8313 43.7928 25.9197L42.5448 26.6425V25.1996C42.5448 24.8479 42.4051 24.5105 42.1564 24.2618C41.9077 24.0131 41.5703 23.8734 41.2186 23.8734C40.8669 23.8734 40.5296 24.0131 40.2809 24.2618C40.0321 24.5105 39.8924 24.8479 39.8924 25.1996V26.6425L38.6431 25.921C38.3387 25.748 37.9782 25.7023 37.6402 25.7941C37.3022 25.8858 37.0143 26.1075 36.8392 26.4108C36.6641 26.7141 36.616 27.0743 36.7055 27.4129C36.795 27.7515 37.0148 28.0409 37.3169 28.218L38.5676 28.9408L37.3169 29.6636C37.1659 29.7503 37.0335 29.866 36.9273 30.0039C36.8211 30.1419 36.7431 30.2995 36.6979 30.4677C36.6527 30.6359 36.6411 30.8113 36.6638 30.9839C36.6865 31.1566 36.7431 31.3231 36.8302 31.4738ZM50.1426 31.4738C50.3185 31.7784 50.6081 32.0007 50.9479 32.0917C51.2876 32.1827 51.6496 32.1351 51.9542 31.9592L53.2048 31.2364V32.6807C53.2048 33.0324 53.3445 33.3697 53.5932 33.6184C53.8419 33.8671 54.1792 34.0069 54.531 34.0069C54.8827 34.0069 55.22 33.8671 55.4687 33.6184C55.7174 33.3697 55.8572 33.0324 55.8572 32.6807V31.2378L57.1064 31.9592C57.2572 32.0466 57.4237 32.1034 57.5964 32.1264C57.7692 32.1493 57.9447 32.1379 58.113 32.0928C58.2814 32.0477 58.4391 31.9698 58.5773 31.8636C58.7154 31.7573 58.8312 31.6249 58.918 31.4738C59.0939 31.1692 59.1415 30.8072 59.0505 30.4675C58.9595 30.1278 58.7372 29.8381 58.4326 29.6622L57.182 28.9408L58.4326 28.2193C58.5847 28.1329 58.7181 28.0172 58.8253 27.879C58.9324 27.7408 59.0112 27.5827 59.057 27.4139C59.1028 27.2451 59.1148 27.069 59.0923 26.8955C59.0697 26.7221 59.0131 26.5548 58.9257 26.4033C58.8382 26.2519 58.7217 26.1192 58.5827 26.013C58.4438 25.9067 58.2852 25.829 58.1161 25.7843C57.947 25.7396 57.7708 25.7288 57.5975 25.7525C57.4242 25.7762 57.2573 25.8339 57.1064 25.9224L55.8572 26.6438V25.2009C55.8572 24.8492 55.7174 24.5119 55.4687 24.2632C55.22 24.0144 54.8827 23.8747 54.531 23.8747C54.1792 23.8747 53.8419 24.0144 53.5932 24.2632C53.3445 24.5119 53.2048 24.8492 53.2048 25.2009V26.6438L51.9542 25.921C51.6497 25.748 51.2892 25.7023 50.9512 25.7941C50.6132 25.8858 50.3253 26.1075 50.1502 26.4108C49.9751 26.7141 49.927 27.0743 50.0165 27.4129C50.1061 27.7515 50.3259 28.0409 50.628 28.218L51.8786 28.9395L50.628 29.6609C50.3236 29.8373 50.1015 30.1272 50.0105 30.467C49.9195 30.8069 49.967 31.1689 50.1426 31.4738ZM25.3308 31.9592L26.5801 31.2378V32.682C26.5801 33.0337 26.7198 33.371 26.9685 33.6198C27.2172 33.8685 27.5545 34.0082 27.9063 34.0082C28.258 34.0082 28.5953 33.8685 28.844 33.6198C29.0927 33.371 29.2325 33.0337 29.2325 32.682V31.2378L30.4817 31.9592C30.6325 32.0466 30.799 32.1034 30.9717 32.1264C31.1445 32.1493 31.32 32.1379 31.4883 32.0928C31.6567 32.0477 31.8144 31.9698 31.9525 31.8636C32.0907 31.7573 32.2065 31.6249 32.2933 31.4738C32.4692 31.1692 32.5168 30.8072 32.4258 30.4675C32.3348 30.1278 32.1125 29.8381 31.8079 29.6622L30.5573 28.9395L31.8079 28.2167C31.96 28.1302 32.0934 28.0146 32.2006 27.8764C32.3077 27.7381 32.3865 27.5801 32.4323 27.4113C32.4781 27.2425 32.4901 27.0663 32.4676 26.8929C32.445 26.7194 32.3884 26.5522 32.301 26.4007C32.2135 26.2492 32.097 26.1166 31.958 26.0103C31.8191 25.9041 31.6605 25.8264 31.4914 25.7817C31.3223 25.737 31.1461 25.7261 30.9728 25.7498C30.7995 25.7735 30.6326 25.8313 30.4817 25.9197L29.2325 26.6412V25.1983C29.2325 24.8465 29.0927 24.5092 28.844 24.2605C28.5953 24.0118 28.258 23.8721 27.9063 23.8721C27.5545 23.8721 27.2172 24.0118 26.9685 24.2605C26.7198 24.5092 26.5801 24.8465 26.5801 25.1983V26.6412L25.3308 25.9197C25.0264 25.7466 24.6658 25.701 24.3278 25.7927C23.9899 25.8845 23.7019 26.1062 23.5268 26.4095C23.3517 26.7128 23.3037 27.073 23.3932 27.4116C23.4827 27.7502 23.7025 28.0396 24.0046 28.2167L25.2552 28.9395L24.0046 29.6622C23.7507 29.8076 23.552 30.0329 23.4396 30.3031C23.3271 30.5732 23.3073 30.873 23.3832 31.1556C23.4591 31.4382 23.6264 31.6877 23.859 31.8653C24.0916 32.0428 24.3764 32.1383 24.669 32.1369C24.9014 32.1369 25.1297 32.0756 25.3308 31.9592Z" fill="url(#paint2_linear_508_3844)"/>
<defs>
<linearGradient id="paint0_linear_508_3844" x1="2.00432" y1="39.5261" x2="28.8703" y2="39.5261" gradientUnits="userSpaceOnUse">
<stop stop-color="#374BA8"/>
<stop offset="1" stop-color="#2FB7F0"/>
</linearGradient>
<linearGradient id="paint1_linear_508_3844" x1="13.7208" y1="38.7051" x2="52.9863" y2="38.7051" gradientUnits="userSpaceOnUse">
<stop stop-color="#374BA8"/>
<stop offset="1" stop-color="#2FB7F0"/>
</linearGradient>
<linearGradient id="paint2_linear_508_3844" x1="25.2157" y1="29.914" x2="51.0919" y2="29.914" gradientUnits="userSpaceOnUse">
<stop stop-color="#374BA8"/>
<stop offset="1" stop-color="#2FB7F0"/>
</linearGradient>
</defs>
</svg>
