<svg width="65" height="59" viewBox="0 0 65 59" fill="none" xmlns="http://www.w3.org/2000/svg">
<path d="M14.8952 15.9998H44.6869C44.8648 15.9999 45.041 15.9655 45.2053 15.8985C45.3697 15.8315 45.519 15.7333 45.6448 15.6095C45.7705 15.4856 45.8703 15.3386 45.9383 15.1768C46.0063 15.015 46.0413 14.8415 46.0411 14.6664C46.0413 14.4912 46.0063 14.3178 45.9383 14.156C45.8703 13.9942 45.7705 13.8471 45.6448 13.7233C45.519 13.5995 45.3697 13.5012 45.2053 13.4343C45.041 13.3673 44.8648 13.3329 44.6869 13.333H14.8952C14.7174 13.3329 14.5412 13.3673 14.3769 13.4343C14.2125 13.5012 14.0632 13.5995 13.9374 13.7233C13.8116 13.8471 13.7119 13.9942 13.6439 14.156C13.5758 14.3178 13.5409 14.4912 13.541 14.6664C13.5409 14.8415 13.5759 15.0149 13.6439 15.1767C13.712 15.3385 13.8117 15.4856 13.9375 15.6094C14.0632 15.7332 14.2126 15.8314 14.3769 15.8984C14.5412 15.9654 14.7174 15.9998 14.8952 15.9998ZM31.1452 29.3331H14.8952C14.7174 29.333 14.5412 29.3674 14.3769 29.4344C14.2125 29.5014 14.0632 29.5996 13.9374 29.7234C13.8116 29.8473 13.7119 29.9943 13.6439 30.1561C13.5758 30.3179 13.5409 30.4914 13.541 30.6665C13.5409 30.8416 13.5758 31.0151 13.6439 31.1769C13.7119 31.3387 13.8116 31.4858 13.9374 31.6096C14.0632 31.7334 14.2125 31.8317 14.3769 31.8986C14.5412 31.9656 14.7174 32 14.8952 31.9999H31.1452C31.3231 32 31.4992 31.9656 31.6636 31.8986C31.8279 31.8317 31.9773 31.7334 32.1031 31.6096C32.2288 31.4858 32.3286 31.3387 32.3966 31.1769C32.4646 31.0151 32.4995 30.8416 32.4994 30.6665C32.4995 30.4914 32.4646 30.3179 32.3966 30.1561C32.3286 29.9943 32.2288 29.8473 32.1031 29.7234C31.9773 29.5996 31.8279 29.5014 31.6636 29.4344C31.4992 29.3674 31.3231 29.333 31.1452 29.3331Z" fill="url(#paint0_linear_508_3852)"/>
<path d="M59.8161 5.33337C59.7377 5.33337 59.6616 5.35275 59.5834 5.35637V5.33337C59.5834 2.392 57.1528 0 54.1667 0H5.41671C2.43064 0 0 2.392 0 5.33337V57.3334C5.60448e-05 57.597 0.0794753 57.8548 0.228224 58.074C0.376974 58.2932 0.588379 58.4641 0.835732 58.5651C1.00242 58.6341 1.17952 58.6667 1.35408 58.6667C1.70587 58.6667 2.05232 58.5314 2.31156 58.2761L15.4565 45.3334H54.1667C57.1528 45.3334 59.5834 42.9415 59.5834 40V17.8848L63.4819 14.0469V14.0456C64.4472 13.0951 65 11.78 65 10.4375C65 7.6225 62.6752 5.33337 59.8161 5.33337ZM56.875 40C56.875 41.47 55.6609 42.6666 54.1667 42.6666H14.8958C14.718 42.6666 14.5419 42.7011 14.3776 42.7681C14.2133 42.8351 14.064 42.9334 13.9383 43.0572L2.70829 54.1146V5.33337C2.70829 3.86337 3.92234 2.66675 5.41658 2.66675H54.1666C55.6611 2.66675 56.875 3.86337 56.875 5.33337V6.24413C56.6179 6.41813 56.372 6.6095 56.1504 6.82812L41.4162 21.3334H14.8958C14.7179 21.3333 14.5418 21.3677 14.3774 21.4346C14.2131 21.5016 14.0637 21.5998 13.938 21.7237C13.8122 21.8475 13.7124 21.9945 13.6444 22.1564C13.5764 22.3182 13.5415 22.4916 13.5416 22.6668C13.5415 22.8419 13.5764 23.0153 13.6444 23.1771C13.7124 23.339 13.8122 23.486 13.938 23.6098C14.0637 23.7337 14.2131 23.8319 14.3774 23.8989C14.5418 23.9658 14.7179 24.0002 14.8958 24.0001H39.2435L37.9431 30.4051C37.8532 30.8426 37.9934 31.2945 38.3134 31.6095C38.5675 31.8594 38.9118 31.9999 39.2709 32.0001C39.3583 32.0001 39.4481 31.991 39.5354 31.9741L46.3036 30.6408C46.5663 30.5898 46.8075 30.4628 46.9965 30.2761L56.875 20.5511V40ZM45.3725 28.1055L40.998 28.9675L41.8735 24.655L54.1661 12.5515L57.6683 15.9999L45.3725 28.1055ZM61.5669 12.1615L59.5833 14.1146L56.0808 10.666L58.0651 8.71225C58.531 8.25751 59.16 8.00165 59.816 8C61.1807 8 62.2916 9.09375 62.2916 10.4375C62.2917 11.0781 62.0271 11.7071 61.5669 12.1615Z" fill="url(#paint1_linear_508_3852)"/>
<defs>
<linearGradient id="paint0_linear_508_3852" x1="15.2474" y1="24.46" x2="38.7611" y2="24.46" gradientUnits="userSpaceOnUse">
<stop stop-color="#374BA8"/>
<stop offset="1" stop-color="#2FB7F0"/>
</linearGradient>
<linearGradient id="paint1_linear_508_3852" x1="3.41272" y1="34.9702" x2="50.44" y2="34.9702" gradientUnits="userSpaceOnUse">
<stop stop-color="#374BA8"/>
<stop offset="1" stop-color="#2FB7F0"/>
</linearGradient>
</defs>
</svg>
