<svg width="65" height="59" viewBox="0 0 65 59" fill="none" xmlns="http://www.w3.org/2000/svg">
<path d="M64.5009 3.8175C64.181 3.0725 63.7227 2.405 63.14 1.83125C62.5573 1.2575 61.8794 0.80625 61.1227 0.49125C60.3408 0.165 59.5093 0 58.6523 0H38.195C37.4942 0 36.9255 0.56125 36.9255 1.25C36.9255 1.93875 37.4942 2.5 38.195 2.5H58.6523C60.7483 2.50375 62.4571 4.18625 62.4609 6.25V35H13.9648V2.5H26.7681C27.469 2.5 28.0376 1.93875 28.0376 1.25C28.0376 0.56125 27.469 0 26.7681 0H6.34766C5.49072 0 4.65918 0.165 3.87715 0.49125C3.12292 0.805125 2.43777 1.26021 1.85974 1.83125C1.27939 2.40003 0.81713 3.07468 0.498799 3.8175C0.167451 4.5875 0 5.40625 0 6.25V40C0 43.4463 2.84756 46.25 6.34766 46.25H25.5176V50.625H23.6133C20.1132 50.625 17.2656 53.4287 17.2656 56.875V57.5C17.2656 58.1904 17.8341 58.75 18.5352 58.75H46.4648C47.1659 58.75 47.7344 58.1904 47.7344 57.5V56.875C47.7344 53.4287 44.8868 50.625 41.3867 50.625H39.4824V46.25H58.6523C62.1524 46.25 65 43.4463 65 40V6.25C65 5.40625 64.8324 4.5875 64.5009 3.8175ZM2.53906 35V13.25H11.4258V35H2.53906ZM6.34766 2.5H11.4258V10.75H2.53906V6.25C2.54287 4.18625 4.25166 2.50375 6.34766 2.5ZM38.2129 53.125H41.3867C43.2706 53.125 44.8393 54.4787 45.1424 56.25H19.8576C20.1607 54.4787 21.7294 53.125 23.6133 53.125H26.7871C27.4881 53.125 28.0566 52.5654 28.0566 51.875V46.25H36.9434V51.875C36.9434 52.5654 37.5119 53.125 38.2129 53.125ZM62.4609 40C62.4609 42.0677 60.7524 43.75 58.6523 43.75H6.34766C4.2476 43.75 2.53906 42.0677 2.53906 40V37.5H62.4609V40Z" fill="url(#paint0_linear_508_3859)"/>
<path d="M32.4821 2.5C33.1817 2.5 33.7504 1.93875 33.7504 1.25C33.7504 0.56125 33.1817 0 32.4821 0C31.7813 0 31.2113 0.56125 31.2113 1.25C31.2114 1.93875 31.7814 2.5 32.4821 2.5ZM45.556 24.5095L46.8086 17.685L48.8702 24.556C48.9647 24.8653 49.1581 25.1364 49.4215 25.329C49.6849 25.5216 50.0044 25.6254 50.3325 25.625H50.3406C50.6698 25.6237 50.9897 25.5176 51.2526 25.3225C51.5155 25.1274 51.7072 24.8537 51.7992 24.5425L53.7897 17.6768L55.12 24.5221C55.1513 24.6834 55.2146 24.837 55.3062 24.9742C55.3978 25.1113 55.5159 25.2294 55.6539 25.3216C55.7919 25.4138 55.9469 25.4783 56.1102 25.5115C56.2735 25.5446 56.4418 25.5458 56.6056 25.5149C57.2942 25.3851 57.7455 24.7302 57.6139 24.0522L55.4808 13.0784C55.4131 12.753 55.2381 12.4587 54.9829 12.2415C54.7277 12.0243 54.4066 11.8962 54.0698 11.8774C53.733 11.8589 53.3995 11.9506 53.1211 12.1382C52.8427 12.3258 52.635 12.5987 52.5305 12.9145C52.5258 12.9288 50.3158 20.5509 50.3158 20.5509C50.3158 20.5509 48.0245 12.9152 48.0194 12.9006C47.9116 12.5857 47.7011 12.3148 47.4207 12.13C47.1402 11.9452 46.8055 11.8569 46.4688 11.879C46.1321 11.9014 45.8124 12.0329 45.5595 12.2529C45.3066 12.4729 45.1347 12.769 45.0706 13.0953C45.0696 13.1 43.057 24.0649 43.057 24.0649C42.9324 24.7442 43.3907 25.3945 44.0807 25.5173C44.7703 25.6405 45.4311 25.1889 45.556 24.5095ZM18.2812 18.75C18.2812 22.5409 21.2965 25.625 25.0028 25.625C26.4923 25.625 27.8266 25.1225 28.8613 24.1719C29.0649 23.9844 29.2545 23.7826 29.4286 23.5681C29.8667 23.0291 29.7783 22.2425 29.2308 21.8111C28.6833 21.3797 27.8845 21.4671 27.4464 22.0059C27.3489 22.126 27.2428 22.2391 27.1289 22.3442C26.5651 22.8624 25.8497 23.125 25.0028 23.125C22.6966 23.125 20.8203 21.1624 20.8203 18.75C20.8203 16.3376 22.6966 14.375 25.0028 14.375C25.831 14.375 26.6315 14.6278 27.3175 15.1059C27.8897 15.5046 28.682 15.3713 29.0871 14.8079C29.4921 14.2444 29.3566 13.4643 28.7843 13.0654C27.667 12.2866 26.3593 11.875 25.0027 11.875C21.2965 11.875 18.2812 14.9591 18.2812 18.75ZM40.498 16C40.498 13.764 38.5505 11.875 36.2451 11.875H33.5156C32.8146 11.875 32.2461 12.4346 32.2461 13.125V24.375C32.2461 25.0654 32.8146 25.625 33.5156 25.625C34.2167 25.625 34.7852 25.0654 34.7852 24.375V21.7679L38.3308 25.259C38.4486 25.3752 38.5885 25.4674 38.7426 25.5302C38.8966 25.593 39.0618 25.6252 39.2285 25.625C39.5535 25.625 39.8783 25.503 40.1262 25.2589C40.622 24.7708 40.622 23.9792 40.1262 23.491L36.5677 19.9872C38.7625 19.8316 40.498 18.1035 40.498 16ZM36.2451 17.5H34.7852V14.375H36.2451C37.126 14.375 37.959 15.1648 37.959 16C37.959 16.8131 37.174 17.5 36.2451 17.5Z" fill="url(#paint1_linear_508_3859)"/>
<path d="M6.98242 30.75C7.68356 30.75 8.25195 30.1904 8.25195 29.5C8.25195 28.8096 7.68356 28.25 6.98242 28.25C6.28128 28.25 5.71289 28.8096 5.71289 29.5C5.71289 30.1904 6.28128 30.75 6.98242 30.75Z" fill="url(#paint2_linear_508_3859)"/>
<path d="M6.98242 25.125C7.68356 25.125 8.25195 24.5654 8.25195 23.875C8.25195 23.1846 7.68356 22.625 6.98242 22.625C6.28128 22.625 5.71289 23.1846 5.71289 23.875C5.71289 24.5654 6.28128 25.125 6.98242 25.125Z" fill="url(#paint3_linear_508_3859)"/>
<path d="M6.98242 19.5C7.68356 19.5 8.25195 18.9404 8.25195 18.25C8.25195 17.5596 7.68356 17 6.98242 17C6.28128 17 5.71289 17.5596 5.71289 18.25C5.71289 18.9404 6.28128 19.5 6.98242 19.5Z" fill="url(#paint4_linear_508_3859)"/>
<defs>
<linearGradient id="paint0_linear_508_3859" x1="3.41272" y1="35.0198" x2="50.44" y2="35.0198" gradientUnits="userSpaceOnUse">
<stop stop-color="#374BA8"/>
<stop offset="1" stop-color="#2FB7F0"/>
</linearGradient>
<linearGradient id="paint1_linear_508_3859" x1="20.3475" y1="15.2746" x2="48.8211" y2="15.2746" gradientUnits="userSpaceOnUse">
<stop stop-color="#374BA8"/>
<stop offset="1" stop-color="#2FB7F0"/>
</linearGradient>
<linearGradient id="paint2_linear_508_3859" x1="5.8462" y1="29.7402" x2="7.6832" y2="29.7402" gradientUnits="userSpaceOnUse">
<stop stop-color="#374BA8"/>
<stop offset="1" stop-color="#2FB7F0"/>
</linearGradient>
<linearGradient id="paint3_linear_508_3859" x1="5.8462" y1="24.1152" x2="7.6832" y2="24.1152" gradientUnits="userSpaceOnUse">
<stop stop-color="#374BA8"/>
<stop offset="1" stop-color="#2FB7F0"/>
</linearGradient>
<linearGradient id="paint4_linear_508_3859" x1="5.8462" y1="18.4902" x2="7.6832" y2="18.4902" gradientUnits="userSpaceOnUse">
<stop stop-color="#374BA8"/>
<stop offset="1" stop-color="#2FB7F0"/>
</linearGradient>
</defs>
</svg>
