<svg width="67" height="68" viewBox="0 0 67 68" fill="none" xmlns="http://www.w3.org/2000/svg">
<path d="M41.6358 26.6428C41.8209 26.7363 42.0292 26.7737 42.2352 26.7503C42.4412 26.7269 42.6359 26.6438 42.7952 26.5111L66.1794 7.04495C66.3354 6.9151 66.4509 6.74329 66.5123 6.54984C66.5737 6.35639 66.5784 6.14941 66.5259 5.95337C66.4734 5.75733 66.3658 5.58043 66.2159 5.44361C66.066 5.30679 65.88 5.21576 65.68 5.18129L35.696 0.0154473C35.4916 -0.019778 35.2815 0.00554589 35.0914 0.0882983C34.9013 0.171051 34.7395 0.307615 34.6261 0.481163C34.5126 0.65471 34.4524 0.857657 34.4529 1.06499C34.4534 1.27233 34.5145 1.47499 34.6288 1.64801L41.8391 12.5682L41.0554 25.6306C41.0429 25.8375 41.0911 26.0436 41.1943 26.2235C41.2974 26.4033 41.4509 26.5491 41.6358 26.6428ZM37.7553 2.52658L63.0506 6.88464L43.3233 23.3063L43.9354 13.1061L53.4583 10.5545C53.5935 10.5188 53.7203 10.4567 53.8315 10.3719C53.9427 10.2871 54.0361 10.1811 54.1062 10.0601C54.1764 9.93914 54.222 9.80549 54.2403 9.66685C54.2587 9.52821 54.2496 9.3873 54.2134 9.2522C54.1772 9.11711 54.1147 8.99049 54.0295 8.8796C53.9442 8.76872 53.8379 8.67575 53.7167 8.60604C53.5955 8.53632 53.4616 8.49122 53.3229 8.47334C53.1842 8.45545 53.0434 8.46512 52.9084 8.5018L43.386 11.0537L37.7553 2.52658ZM19.8113 43.5634V62.6888C19.8128 64.0973 20.3731 65.4476 21.369 66.4436C22.365 67.4396 23.7154 67.9998 25.1239 68.0014H52.7494C54.1579 67.9998 55.5083 67.4396 56.5042 66.4436C57.5002 65.4476 58.0604 64.0973 58.062 62.6888V43.5634C58.0604 42.1549 57.5002 40.8045 56.5042 39.8086C55.5083 38.8126 54.1579 38.2524 52.7494 38.2508H25.1239C23.7154 38.2524 22.365 38.8126 21.369 39.8086C20.3731 40.8045 19.8128 42.1549 19.8113 43.5634ZM52.7494 65.8763H25.1239C24.2788 65.8754 23.4686 65.5392 22.871 64.9416C22.2734 64.3441 21.9373 63.5339 21.9363 62.6888V45.5166L36.0506 54.6493C36.9107 55.2047 37.9128 55.5 38.9366 55.5C39.9605 55.5 40.9626 55.2047 41.8227 54.6493L55.937 45.5166V62.6888C55.936 63.5339 55.5998 64.3441 55.0023 64.9416C54.4047 65.5392 53.5945 65.8754 52.7494 65.8763ZM55.889 43.0163L40.6684 52.8651C40.1523 53.1983 39.551 53.3756 38.9367 53.3756C38.3224 53.3756 37.7211 53.1983 37.205 52.8651L21.9844 43.0163C22.114 42.2775 22.4997 41.6079 23.0738 41.125C23.6479 40.6422 24.3737 40.3769 25.1239 40.3758H52.7494C53.4996 40.3769 54.2254 40.6421 54.7996 41.125C55.3737 41.6078 55.7594 42.2774 55.889 43.0163ZM27.4767 18.1264C27.6032 18.1265 27.7288 18.104 27.8474 18.06C28.7942 17.7073 29.7461 17.3687 30.7029 17.0442C30.8357 17 30.9585 16.9299 31.0642 16.838C31.1699 16.7462 31.2563 16.6343 31.3186 16.5089C31.381 16.3835 31.4179 16.2471 31.4272 16.1074C31.4366 15.9676 31.4183 15.8275 31.3733 15.6949C31.3284 15.5623 31.2576 15.4399 31.1652 15.3347C31.0727 15.2295 30.9604 15.1437 30.8347 15.082C30.709 15.0204 30.5723 14.9843 30.4325 14.9756C30.2928 14.967 30.1527 14.9861 30.0204 15.0318C29.0435 15.363 28.0717 15.7086 27.1051 16.0685C26.8713 16.1553 26.6755 16.3215 26.552 16.5381C26.4284 16.7546 26.3849 17.0078 26.4291 17.2531C26.4734 17.4985 26.6025 17.7205 26.7939 17.8803C26.9853 18.0401 27.2268 18.1275 27.4762 18.1272L27.4767 18.1264ZM5.37107 49.761C5.27595 49.863 5.20187 49.9829 5.15306 50.1136C5.10425 50.2443 5.08167 50.3834 5.0866 50.5228C5.09154 50.6623 5.12389 50.7994 5.18181 50.9263C5.23974 51.0533 5.3221 51.1676 5.4242 51.2627C6.22731 52.0105 7.11027 52.6676 8.05713 53.2222C8.30034 53.3646 8.59014 53.4045 8.86278 53.3332C9.13542 53.2619 9.36856 53.0852 9.51092 52.842C9.65328 52.5988 9.6932 52.309 9.62189 52.0363C9.55058 51.7637 9.37388 51.5306 9.13067 51.3882C8.31866 50.9126 7.56148 50.349 6.87281 49.7077C6.77071 49.6126 6.65088 49.5385 6.52015 49.4897C6.38942 49.4409 6.25036 49.4183 6.11091 49.4233C5.97146 49.4282 5.83435 49.4606 5.70741 49.5185C5.58047 49.5765 5.46618 49.6588 5.37107 49.761Z" fill="url(#paint0_linear_1309_16016)"/>
<path d="M33.4077 15.049C33.447 15.1829 33.5123 15.3078 33.5999 15.4165C33.6875 15.5251 33.7956 15.6154 33.9182 15.6822C34.0407 15.7491 34.1752 15.7911 34.314 15.8058C34.4528 15.8206 34.5931 15.8079 34.7269 15.7683C36.0409 15.3815 37.0412 15.1165 37.6489 14.9623C37.7853 14.9291 37.9139 14.8692 38.027 14.7861C38.1402 14.703 38.2358 14.5982 38.3082 14.4779C38.3806 14.3576 38.4285 14.2241 38.449 14.0852C38.4696 13.9463 38.4624 13.8047 38.4278 13.6686C38.3933 13.5325 38.3321 13.4045 38.2479 13.2922C38.1636 13.1799 38.0579 13.0854 37.9369 13.0141C37.8158 12.9429 37.6819 12.8964 37.5428 12.8772C37.4037 12.8581 37.2621 12.8667 37.1264 12.9026C36.5008 13.062 35.4727 13.3336 34.1269 13.7296C33.993 13.769 33.8682 13.8344 33.7597 13.9221C33.6511 14.0097 33.5608 14.1179 33.494 14.2404C33.4272 14.3629 33.3852 14.4974 33.3704 14.6361C33.3556 14.7749 33.3683 14.9152 33.4077 15.049ZM1.10785 36.9048C0.846049 37.9674 0.70508 39.0562 0.687626 40.1504C0.683295 40.4322 0.79107 40.7041 0.987243 40.9064C1.18342 41.1087 1.45192 41.2248 1.73368 41.2291H1.75041C2.0294 41.2292 2.29721 41.1195 2.49601 40.9237C2.69481 40.728 2.80864 40.4619 2.81293 40.183C2.8278 39.2489 2.94809 38.3196 3.17153 37.4126C3.23693 37.1396 3.19168 36.8519 3.04567 36.6122C2.89966 36.3725 2.66474 36.2003 2.39221 36.1333C2.11968 36.0662 1.83168 36.1096 1.59109 36.2542C1.35051 36.3987 1.17688 36.6326 1.10812 36.9047L1.10785 36.9048ZM23.1043 17.6592C22.1528 18.0631 21.2089 18.4844 20.2728 18.9228C20.1465 18.9821 20.0331 19.0656 19.939 19.1687C19.845 19.2718 19.7722 19.3924 19.7247 19.5236C19.6773 19.6548 19.6562 19.7941 19.6626 19.9335C19.669 20.0729 19.7028 20.2097 19.762 20.336C19.8817 20.5911 20.0978 20.7883 20.3628 20.8841C20.494 20.9315 20.6333 20.9526 20.7727 20.9462C20.9121 20.9398 21.0488 20.906 21.1752 20.8468C22.0875 20.4193 23.0076 20.0087 23.9351 19.6151C24.0647 19.5614 24.1824 19.4825 24.2814 19.383C24.3804 19.2836 24.4587 19.1655 24.5118 19.0356C24.5649 18.9057 24.5917 18.7666 24.5908 18.6263C24.5898 18.486 24.5611 18.3472 24.5063 18.2181C24.4514 18.0889 24.3715 17.9719 24.2712 17.8738C24.1708 17.7757 24.0521 17.6985 23.9217 17.6465C23.7914 17.5945 23.652 17.5689 23.5117 17.5711C23.3714 17.5733 23.233 17.6032 23.1043 17.6592ZM14.2775 24.4C14.474 24.4 14.6666 24.3453 14.8338 24.242C15.6572 23.735 16.5315 23.2286 17.4334 22.7369C17.6808 22.602 17.8645 22.3743 17.944 22.104C18.0236 21.8337 17.9925 21.5428 17.8576 21.2954C17.7227 21.048 17.4951 20.8643 17.2247 20.7847C16.9544 20.7051 16.6635 20.7362 16.4161 20.8711C15.5038 21.3677 14.6048 21.8884 13.72 22.4326C13.5229 22.5539 13.3708 22.7362 13.2868 22.9519C13.2028 23.1675 13.1915 23.4047 13.2547 23.6273C13.3178 23.85 13.4519 24.0459 13.6366 24.1854C13.8212 24.3248 14.0464 24.4002 14.2778 24.4H14.2775ZM11.4952 53.6228C11.4647 53.7589 11.4614 53.8998 11.4853 54.0372C11.5093 54.1747 11.5601 54.3061 11.6348 54.4239C11.7096 54.5418 11.8068 54.6437 11.9209 54.724C12.0351 54.8042 12.1639 54.8612 12.3 54.8917C13.3706 55.1306 14.4643 55.2509 15.5612 55.2506C15.843 55.2506 16.1132 55.1386 16.3125 54.9394C16.5118 54.7401 16.6237 54.4698 16.6237 54.188C16.6237 53.9062 16.5118 53.636 16.3125 53.4367C16.1132 53.2375 15.843 53.1255 15.5612 53.1255C14.6204 53.1259 13.6824 53.0228 12.7641 52.8181C12.4891 52.7565 12.201 52.8067 11.963 52.9576C11.725 53.1085 11.5568 53.3478 11.4952 53.6228ZM10.1186 24.8772C9.25128 25.5299 8.43181 26.2016 7.6834 26.8739C7.47995 27.0638 7.35912 27.326 7.34689 27.604C7.33466 27.882 7.432 28.1538 7.61799 28.3608C7.80398 28.5678 8.06377 28.6936 8.34152 28.7111C8.61927 28.7286 8.8928 28.6365 9.10332 28.4544C9.80645 27.8229 10.5776 27.1904 11.3962 26.5747C11.6214 26.4053 11.7701 26.1533 11.8095 25.8743C11.8489 25.5953 11.7759 25.312 11.6064 25.0869C11.437 24.8617 11.1851 24.713 10.906 24.6736C10.627 24.6342 10.3437 24.7072 10.1186 24.8767V24.8772ZM6.12521 29.9059C5.90561 29.7293 5.62487 29.6472 5.34474 29.6776C5.06461 29.708 4.80803 29.8484 4.63144 30.068C3.95658 30.9024 3.3479 31.7882 2.81094 32.7173C2.73908 32.8384 2.69202 32.9726 2.6725 33.1121C2.65298 33.2516 2.66139 33.3936 2.69723 33.5298C2.73308 33.666 2.79565 33.7937 2.8813 33.9055C2.96696 34.0174 3.07399 34.111 3.19617 34.1811C3.31835 34.2512 3.45325 34.2962 3.59301 34.3137C3.73277 34.3312 3.87461 34.3207 4.01027 34.2828C4.14594 34.245 4.27273 34.1805 4.38327 34.0932C4.49381 34.006 4.58588 33.8976 4.65415 33.7744C5.13618 32.9415 5.68237 32.1475 6.28778 31.3995C6.46426 31.1799 6.54627 30.8991 6.51578 30.619C6.4853 30.3389 6.34481 30.0824 6.12521 29.9059ZM3.34884 44.0524C3.3094 43.9179 3.24375 43.7926 3.15567 43.6836C3.06758 43.5746 2.95881 43.4841 2.8356 43.4173C2.7124 43.3505 2.5772 43.3088 2.43779 43.2944C2.29838 43.2801 2.15752 43.2935 2.02332 43.3339C1.88911 43.3742 1.76421 43.4407 1.65582 43.5296C1.54742 43.6184 1.45767 43.7278 1.39172 43.8514C1.32578 43.9751 1.28495 44.1106 1.27158 44.2501C1.25822 44.3896 1.27258 44.5303 1.31385 44.6643C1.63007 45.7156 2.06216 46.7285 2.60216 47.6844C2.67081 47.8058 2.76273 47.9126 2.87264 47.9985C2.98256 48.0845 3.10833 48.1479 3.24277 48.1853C3.37722 48.2226 3.5177 48.2331 3.6562 48.2162C3.7947 48.1992 3.9285 48.1552 4.04997 48.0865C4.17144 48.0179 4.2782 47.9259 4.36415 47.816C4.4501 47.7061 4.51356 47.5803 4.55091 47.4459C4.58825 47.3115 4.59875 47.171 4.5818 47.0325C4.56486 46.894 4.5208 46.7602 4.45214 46.6387C3.98966 45.8202 3.61962 44.9527 3.34884 44.0524Z" fill="url(#paint1_linear_1309_16016)"/>
<defs>
<linearGradient id="paint0_linear_1309_16016" x1="8.31364" y1="40.5344" x2="52.7914" y2="40.5344" gradientUnits="userSpaceOnUse">
<stop stop-color="#374BA8"/>
<stop offset="1" stop-color="#2FB7F0"/>
</linearGradient>
<linearGradient id="paint1_linear_1309_16016" x1="2.67071" y1="38.1312" x2="29.9993" y2="38.1312" gradientUnits="userSpaceOnUse">
<stop stop-color="#374BA8"/>
<stop offset="1" stop-color="#2FB7F0"/>
</linearGradient>
</defs>
</svg>
