<svg width="82" height="82" viewBox="0 0 82 82" fill="none" xmlns="http://www.w3.org/2000/svg">
<path d="M9 21.1268C9 17.663 10.3792 14.415 12.8836 11.9812C13.0618 11.8109 13.3004 11.7176 13.5475 11.7214C13.7947 11.7252 14.0303 11.8259 14.203 12.0016C14.3758 12.1772 14.4718 12.4136 14.4701 12.6592C14.4684 12.9049 14.3691 13.1399 14.1939 13.3131C12.0533 15.3936 10.8743 18.1685 10.8743 21.1269C10.8743 21.374 10.7756 21.6109 10.5998 21.7856C10.4241 21.9602 10.1857 22.0584 9.93716 22.0584C9.68861 22.0584 9.45024 21.9602 9.27449 21.7856C9.09874 21.6109 9 21.3738 9 21.1268ZM32.8947 21.1268C32.8947 21.3738 32.9934 21.6107 33.1692 21.7854C33.3449 21.9601 33.5833 22.0582 33.8319 22.0582C34.0804 22.0582 34.3188 21.9601 34.4945 21.7854C34.6703 21.6107 34.769 21.3738 34.769 21.1268C34.769 17.663 33.3898 14.415 30.8853 11.9812C30.7071 11.8109 30.4685 11.7176 30.2213 11.7214C29.9742 11.7252 29.7386 11.8259 29.5658 12.0016C29.3931 12.1772 29.2971 12.4136 29.2988 12.6592C29.3005 12.9049 29.3998 13.1399 29.575 13.3131C31.7158 15.3937 32.8947 18.1685 32.8947 21.1268ZM72 45.8529V71.3749C72 72.8224 70.8152 74 69.3588 74H26.5412C23.4567 74 20.9474 71.5058 20.9474 68.4402V36.1028C19.3146 35.723 18.0532 34.3749 17.813 32.703H9.93716C9.68861 32.703 9.45024 32.6048 9.27449 32.4302C9.09874 32.2555 9 32.0186 9 31.7715C9 31.5245 9.09874 31.2876 9.27449 31.1129C9.45024 30.9382 9.68861 30.8401 9.93716 30.8401H11.068C11.8089 30.8401 12.4118 30.241 12.4118 29.5045V21.1268C12.4118 17.1193 14.9471 13.6909 18.5069 12.3362V11.357C18.5069 9.5059 20.022 8.00001 21.8844 8.00001C22.6382 8.00001 23.335 8.24684 23.8977 8.66333C24.7094 8.22639 25.6181 7.99835 26.5412 8.00001H54.8839C57.9683 8.00001 60.4777 10.4924 60.4777 13.5561V43.2277H61.7952V42.541C61.7952 41.3118 62.8013 40.3119 64.0379 40.3119C65.2746 40.3119 66.2805 41.3118 66.2805 42.541V43.2277H69.3588C70.8152 43.2277 72 44.4053 72 45.8529ZM63.6695 43.2277H64.4062V42.541C64.4062 42.3424 64.2375 42.1748 64.0379 42.1748C63.8383 42.1748 63.6695 42.3424 63.6695 42.541V43.2277ZM61.7952 45.2794V45.0906H54.6748V45.2794C54.6748 45.4758 54.8435 45.6418 55.0432 45.6418C55.2918 45.6418 55.5301 45.7399 55.7059 45.9146C55.8816 46.0892 55.9804 46.3262 55.9804 46.5732C55.9804 46.8202 55.8816 47.0572 55.7059 47.2318C55.5301 47.4065 55.2918 47.5046 55.0432 47.5046C53.8066 47.5046 52.8005 46.5064 52.8005 45.2794V45.0906H45.6801V45.2794C45.6801 45.4758 45.8488 45.6418 46.0485 45.6418C46.2971 45.6418 46.5354 45.7399 46.7112 45.9146C46.8869 46.0892 46.9857 46.3262 46.9857 46.5732C46.9857 46.8202 46.8869 47.0572 46.7112 47.2318C46.5354 47.4065 46.2971 47.5046 46.0485 47.5046C44.8119 47.5046 43.8058 46.5064 43.8058 45.2794V45.0906H40.7276C40.5242 45.0908 40.3293 45.1712 40.1855 45.3141C40.0417 45.457 39.9608 45.6508 39.9606 45.8529V49.2141H70.1254V45.8529C70.1252 45.6508 70.0443 45.4571 69.9006 45.3142C69.7568 45.1712 69.5619 45.0908 69.3586 45.0906H63.6692V45.2794C63.6692 45.4758 63.8379 45.6418 64.0376 45.6418C64.2862 45.6418 64.5246 45.7399 64.7003 45.9146C64.8761 46.0892 64.9748 46.3262 64.9748 46.5732C64.9748 46.8202 64.8761 47.0572 64.7003 47.2318C64.5246 47.4065 64.2862 47.5046 64.0376 47.5046C62.801 47.5046 61.7949 46.5064 61.7949 45.2794H61.7952ZM46.4169 42.5408C46.4169 42.3423 46.2483 42.1746 46.0486 42.1746C45.849 42.1746 45.6802 42.3423 45.6802 42.5408V43.2276H46.4169V42.5408ZM55.4116 42.5408C55.4116 42.3423 55.243 42.1746 55.0433 42.1746C54.8437 42.1746 54.6749 42.3423 54.6749 42.5408V43.2276H55.4116V42.5408ZM35.9589 9.86304C36.4208 10.5885 36.9768 11.331 37.6536 11.331H44.0561C44.5896 11.331 44.9013 10.8854 45.4387 9.93942L45.4825 9.86304H35.9589ZM26.5412 9.86304C26.0194 9.86304 25.514 9.97189 25.0464 10.1781C25.1892 10.555 25.2622 10.9544 25.262 11.3571V12.3368C28.8197 13.692 31.3532 17.12 31.3532 21.1269V29.5047C31.3532 30.2412 31.9561 30.8402 32.697 30.8402H33.8319C34.0804 30.8402 34.3188 30.9384 34.4945 31.113C34.6703 31.2877 34.769 31.5246 34.769 31.7717C34.769 32.0187 34.6703 32.2556 34.4945 32.4303C34.3188 32.605 34.0804 32.7031 33.8319 32.7031H25.9522C25.7123 34.3747 24.4524 35.7226 22.8217 36.1026V64.7363H38.0866V45.8529C38.0866 44.4054 39.2715 43.2277 40.7279 43.2277H43.806V42.541C43.806 41.3118 44.8121 40.3119 46.0488 40.3119C47.2854 40.3119 48.2914 41.3118 48.2914 42.541V43.2277H52.8007V42.541C52.8007 41.3118 53.8068 40.3119 55.0435 40.3119C56.2801 40.3119 57.2861 41.3118 57.2861 42.541V43.2277H58.6036V13.5562C58.6036 11.5198 56.9351 9.86304 54.8842 9.86304H48.1629C47.831 9.86304 47.568 10.0268 47.3585 10.3642C47.2644 10.5152 47.1706 10.6805 47.0711 10.8556C46.5104 11.8425 45.7425 13.1939 44.0564 13.1939H37.6539C35.8129 13.1939 34.8025 11.5563 34.134 10.4726L34.0661 10.3627C33.8576 10.0268 33.5946 9.86304 33.2629 9.86304H26.5414H26.5412ZM20.3814 11.8355C20.8712 11.7575 21.3729 11.7157 21.8846 11.7157C22.3963 11.7157 22.8979 11.7576 23.3878 11.8356V11.3571C23.3878 10.5333 22.7134 9.86304 21.8846 9.86304C21.0557 9.86304 20.3814 10.5333 20.3814 11.3571V11.8355ZM13.9912 30.8402H29.7741C29.5794 30.4216 29.4787 29.9658 29.479 29.5047V21.1269C29.479 16.9648 26.0722 13.5786 21.8846 13.5786C17.697 13.5786 14.2862 16.9647 14.2862 21.1269V29.5047C14.2862 29.9813 14.1801 30.4334 13.9912 30.8402ZM21.8846 34.3483C22.9152 34.3483 23.7829 33.6493 24.0403 32.7031H19.7251C19.9831 33.6493 20.8521 34.3483 21.8846 34.3483ZM26.5412 72.1371H38.2009C38.1251 71.89 38.0866 71.6332 38.0866 71.3749V66.5992H22.8217V68.4402C22.8217 70.4786 24.4903 72.1371 26.5412 72.1371ZM70.1257 71.3749V51.077H39.9609V71.3749C39.9611 71.577 40.042 71.7707 40.1858 71.9136C40.3296 72.0565 40.5245 72.1369 40.7279 72.1371H69.359C69.5623 72.1368 69.7572 72.0565 69.9009 71.9136C70.0447 71.7707 70.1254 71.577 70.1257 71.3749ZM67.385 54.0648V69.1494C67.385 69.3964 67.2863 69.6334 67.1105 69.808C66.9348 69.9827 66.6964 70.0809 66.4479 70.0809H43.6387C43.3901 70.0809 43.1518 69.9827 42.976 69.808C42.8003 69.6334 42.7015 69.3964 42.7015 69.1494V54.0648C42.7015 53.8178 42.8003 53.5809 42.976 53.4062C43.1518 53.2315 43.3901 53.1334 43.6387 53.1334H66.4479C66.6964 53.1334 66.9348 53.2315 67.1105 53.4062C67.2863 53.5809 67.385 53.8178 67.385 54.0648ZM65.5107 54.9963H61.6846V58.1616H65.5107V54.9963ZM50.2799 63.1897H54.1061V60.0244H50.2799V63.1897ZM48.4056 60.0244H44.5758V63.1897H48.4056V60.0244ZM54.1061 54.9962H50.2799V58.1615H54.1061V54.9962ZM55.9804 58.1615H59.8101V54.9962H55.9804V58.1615ZM50.2799 65.0526V68.218H54.1061V65.0526H50.2799ZM55.9804 68.218H59.8101V65.0526H55.9804V68.218ZM59.8101 63.1897V60.0244H55.9804V63.1897H59.8101ZM61.6844 63.1897H65.5106V60.0244H61.6844V63.1897ZM44.5757 54.9963V58.1616H48.4055V54.9963H44.5757ZM44.5757 68.218H48.4055V65.0526H44.5757V68.218ZM65.5106 68.218V65.0526H61.6844V68.218H65.5106Z" fill="url(#paint0_linear_1309_16010)"/>
<defs>
<linearGradient id="paint0_linear_1309_16010" x1="12.3077" y1="47.3414" x2="57.888" y2="47.3414" gradientUnits="userSpaceOnUse">
<stop stop-color="#374BA8"/>
<stop offset="1" stop-color="#2FB7F0"/>
</linearGradient>
</defs>
</svg>
