<svg width="23" height="17" viewBox="0 0 23 17" fill="none" xmlns="http://www.w3.org/2000/svg">
<path d="M10.2832 0.515834C9.99561 0.228378 9.60567 0.0668945 9.19909 0.0668945C8.7925 0.0668945 8.40257 0.228378 8.11502 0.515834L1.21502 7.41583C0.927567 7.70338 0.766083 8.09332 0.766083 8.4999C0.766083 8.90649 0.927567 9.29642 1.21502 9.58397L8.11502 16.484C8.40421 16.7633 8.79154 16.9178 9.19357 16.9143C9.5956 16.9108 9.98018 16.7496 10.2645 16.4653C10.5488 16.181 10.71 15.7964 10.7135 15.3944C10.717 14.9923 10.5625 14.605 10.2832 14.3158L6.13242 10.0332H20.6991C21.1058 10.0332 21.4958 9.87169 21.7833 9.58413C22.0709 9.29658 22.2324 8.90657 22.2324 8.4999C22.2324 8.09324 22.0709 7.70323 21.7833 7.41567C21.4958 7.12811 21.1058 6.96657 20.6991 6.96657H6.13242L10.2832 2.68397C10.5706 2.39642 10.7321 2.00649 10.7321 1.5999C10.7321 1.19332 10.5706 0.803376 10.2832 0.515834Z" fill="#29387E"/>
</svg>
