<svg width="72" height="72" viewBox="0 0 72 72" fill="none" xmlns="http://www.w3.org/2000/svg">
<rect width="72" height="72" rx="16" fill="#F1FAFE"/>
<path d="M54.2051 23.0295L55.7639 24.5883L57.3227 23.0295V16.7942H54.2051V23.0295Z" fill="#F1FAFE"/>
<path d="M16.7934 23.0295L15.2346 24.5883L13.6758 23.0295V16.7942H16.7934V23.0295Z" fill="#E6F2FF"/>
<path d="M49.5295 58.8825H62.0001V51.0884L60.857 49.7582L62.0001 47.9707V44.8531L61.0856 43.2943L62.0001 41.7354V38.6178L60.9401 37.059L62.0001 35.5001V32.3825L60.9089 30.8237L62.0001 29.2648V23.0295H49.5295L47.9707 40.956L49.5295 58.8825Z" fill="#99BBFF"/>
<path d="M21.4706 58.8825L15.2353 60.4413L9 58.8825V51.0884L10.2471 49.5295L9 47.9707V44.8531L10.1431 43.2943L9 41.7354V38.6178L10.1431 37.059L9 35.5001V32.3825L10.2471 30.8237L9 29.2648V23.0295H21.4706L23.0294 40.956L21.4706 58.8825Z" fill="#F1FAFE"/>
<path d="M49.5295 62H62.0001V58.8823H49.5295L47.9707 60.4411L49.5295 62Z" fill="#32393F"/>
<path d="M21.4706 62H9V58.8823H21.4706L23.0294 60.4411L21.4706 62Z" fill="#474F54"/>
<path d="M21.4707 12.1177V58.8824L24.5884 60.4412L29.2648 58.8824L35.5001 46.4118L37.0589 27.7059L35.5001 12.1177L28.4854 10.5588L21.4707 12.1177Z" fill="#E6F2FF"/>
<path d="M49.5295 12.1176L42.5148 10.5588L35.5001 12.1176V46.4118L41.7354 58.8824L46.4119 60.4412L49.5295 58.8824V12.1176ZM21.4707 9V12.1176H35.5001L37.0589 10.5588L35.5001 9H21.4707Z" fill="#F1FAFE"/>
<path d="M49.5294 9H35.5V12.1176H49.5294V9Z" fill="#99BBFF"/>
<path d="M29.2648 62H21.4707V58.8823H29.2648L30.8236 60.4411L29.2648 62Z" fill="#F1FAFE"/>
<path d="M41.7344 62H49.5285V58.8823H41.7344V62Z" fill="#99BBFF"/>
<path d="M29.2656 46.4116H35.5009L37.0597 54.2057L35.5009 61.9999H29.2656V46.4116Z" fill="#66CCFF"/>
<path d="M41.7353 46.4117H35.5V61.9999H41.7353V46.4117ZM54.2059 32.3823H62V29.2646H54.2059V32.3823ZM54.2059 38.6176H62V35.4999H54.2059V38.6176ZM54.2059 44.8529H62V41.7352H54.2059V44.8529ZM54.2059 51.0882H62V47.9705H54.2059V51.0882Z" fill="#4596E6"/>
<path d="M16.7941 32.3824H9V29.2648H16.7941V32.3824ZM16.7941 38.6177H9V35.5001H16.7941V38.6177ZM16.7941 44.853H9V41.7354H16.7941V44.853ZM16.7941 51.0883H9V47.9706H16.7941V51.0883ZM33.9412 33.9412V37.0589H35.5L36.2794 35.5001L35.5 33.9412H33.9412ZM33.9412 27.7059V30.8236H35.5L36.2794 29.2648L35.5 27.7059H33.9412ZM33.9412 21.4706V24.5883H35.5L36.2794 23.0295L35.5 21.4706H33.9412ZM33.9412 15.2354V18.353H35.5L36.2794 16.7942L35.5 15.2354H33.9412Z" fill="#66CCFF"/>
<path d="M35.5002 18.353L36.2796 16.7942L35.5002 15.2354H33.9414V18.353H35.5002ZM35.5002 24.5883L36.2796 23.0295L35.5002 21.4706H33.9414V24.5883H35.5002ZM35.5002 30.8236L36.2796 29.2648L35.5002 27.7059H33.9414V30.8236H35.5002ZM35.5002 37.0589L36.2796 35.5001L35.5002 33.9412H33.9414V37.0589H35.5002Z" fill="#66CCFF"/>
<path d="M35.5 33.9412V37.0589H37.0588V33.9412H35.5ZM35.5 27.7059V30.8236H37.0588V27.7059H35.5ZM35.5 21.4706V24.5883H37.0588V21.4706H35.5ZM35.5 15.2354V18.353H37.0588V15.2354H35.5Z" fill="#4596E6"/>
<path d="M40.1758 15.2354H43.2934V18.353H40.1758V15.2354ZM40.1758 21.4706H43.2934V24.5883H40.1758V21.4706ZM40.1758 27.7059H43.2934V30.8236H40.1758V27.7059ZM40.1758 33.9412H43.2934V37.0589H40.1758V33.9412Z" fill="#4596E6"/>
<path d="M27.7051 15.2354H30.8227V18.353H27.7051V15.2354ZM27.7051 21.4706H30.8227V24.5883H27.7051V21.4706ZM27.7051 27.7059H30.8227V30.8236H27.7051V27.7059ZM27.7051 33.9412H30.8227V37.0589H27.7051V33.9412Z" fill="#66CCFF"/>
</svg>
