<svg width="24" height="24" viewBox="0 0 24 24" fill="none" xmlns="http://www.w3.org/2000/svg">
<rect x="0.5" y="0.5" width="23" height="23" rx="11.5" stroke="url(#paint0_linear_942_3612)"/>
<path d="M9.30506 16C9.30506 15.68 9.32906 15.38 9.37706 15.1C9.43306 14.82 9.52906 14.552 9.66506 14.296C9.80906 14.04 10.0091 13.796 10.2651 13.564C10.5211 13.324 10.8531 13.092 11.2611 12.868C11.5011 12.732 11.7411 12.604 11.9811 12.484C12.2291 12.364 12.4571 12.236 12.6651 12.1C12.8811 11.964 13.0531 11.816 13.1811 11.656C13.3091 11.488 13.3731 11.296 13.3731 11.08C13.3731 10.896 13.3171 10.72 13.2051 10.552C13.1011 10.376 12.9411 10.236 12.7251 10.132C12.5171 10.02 12.2571 9.964 11.9451 9.964C11.7051 9.964 11.4851 9.996 11.2851 10.06C11.0931 10.124 10.9171 10.208 10.7571 10.312C10.6051 10.408 10.4691 10.512 10.3491 10.624C10.2371 10.728 10.1411 10.824 10.0611 10.912L9.40106 10.168C9.46506 10.096 9.57306 10 9.72506 9.88C9.87706 9.752 10.0691 9.624 10.3011 9.496C10.5331 9.368 10.8011 9.26 11.1051 9.172C11.4171 9.076 11.7571 9.028 12.1251 9.028C12.6211 9.028 13.0451 9.116 13.3971 9.292C13.7571 9.46 14.0331 9.692 14.2251 9.988C14.4171 10.276 14.5131 10.6 14.5131 10.96C14.5131 11.272 14.4451 11.544 14.3091 11.776C14.1811 12.008 14.0131 12.212 13.8051 12.388C13.6051 12.564 13.3931 12.716 13.1691 12.844C12.9531 12.964 12.7571 13.068 12.5811 13.156C12.2211 13.332 11.9131 13.492 11.6571 13.636C11.4011 13.78 11.1891 13.924 11.0211 14.068C10.8611 14.204 10.7291 14.348 10.6251 14.5C10.5291 14.652 10.4571 14.832 10.4091 15.04H14.6451V16H9.30506Z" fill="url(#paint1_linear_942_3612)"/>
<defs>
<linearGradient id="paint0_linear_942_3612" x1="0" y1="12" x2="24" y2="12" gradientUnits="userSpaceOnUse">
<stop stop-color="#23316E"/>
<stop offset="1" stop-color="#435ED4"/>
</linearGradient>
<linearGradient id="paint1_linear_942_3612" x1="8.5" y1="12" x2="15.5" y2="12" gradientUnits="userSpaceOnUse">
<stop stop-color="#23316E"/>
<stop offset="1" stop-color="#435ED4"/>
</linearGradient>
</defs>
</svg>
