<svg width="24" height="24" viewBox="0 0 24 24" fill="none" xmlns="http://www.w3.org/2000/svg">
<rect x="0.5" y="0.5" width="23" height="23" rx="11.5" stroke="#D0D0D0"/>
<path d="M13.0558 13.168C13.3998 13.224 13.6958 13.352 13.9438 13.552C14.1918 13.744 14.3838 13.992 14.5198 14.296C14.6558 14.592 14.7238 14.928 14.7238 15.304C14.7238 15.792 14.6038 16.22 14.3638 16.588C14.1318 16.964 13.7998 17.252 13.3678 17.452C12.9358 17.66 12.4318 17.764 11.8558 17.764C11.2478 17.764 10.7118 17.648 10.2478 17.416C9.79177 17.192 9.43577 16.872 9.17977 16.456L9.88777 15.748C10.0718 16.068 10.3198 16.324 10.6318 16.516C10.9518 16.708 11.3598 16.804 11.8558 16.804C12.4078 16.804 12.8398 16.676 13.1518 16.42C13.4718 16.172 13.6318 15.8 13.6318 15.304C13.6318 14.8 13.4598 14.4 13.1158 14.104C12.7798 13.8 12.2878 13.648 11.6398 13.648H11.3278V12.76H11.6638C12.2398 12.76 12.6798 12.62 12.9838 12.34C13.2958 12.06 13.4518 11.712 13.4518 11.296C13.4518 11.008 13.3838 10.772 13.2478 10.588C13.1118 10.404 12.9278 10.268 12.6958 10.18C12.4638 10.084 12.1958 10.036 11.8918 10.036C11.4518 10.036 11.0638 10.132 10.7278 10.324C10.3998 10.508 10.1438 10.768 9.95977 11.104L9.31177 10.432C9.45577 10.16 9.65977 9.924 9.92377 9.724C10.1958 9.524 10.5078 9.368 10.8598 9.256C11.2198 9.144 11.5998 9.088 11.9998 9.088C12.5038 9.088 12.9478 9.176 13.3318 9.352C13.7238 9.528 14.0278 9.776 14.2438 10.096C14.4598 10.416 14.5678 10.792 14.5678 11.224C14.5678 11.536 14.5078 11.832 14.3878 12.112C14.2678 12.384 14.0918 12.616 13.8598 12.808C13.6358 12.992 13.3678 13.112 13.0558 13.168Z" fill="#D0D0D0"/>
</svg>
