<svg width="41" height="40" viewBox="0 0 41 40" fill="none" xmlns="http://www.w3.org/2000/svg">
<rect x="1.5" y="1" width="38" height="38" rx="19" stroke="url(#paint0_linear_915_4189)" stroke-width="2"/>
<path d="M22.2596 22.28C22.8329 22.3733 23.3263 22.5867 23.7396 22.92C24.1529 23.24 24.4729 23.6533 24.6996 24.16C24.9263 24.6533 25.0396 25.2133 25.0396 25.84C25.0396 26.6533 24.8396 27.3667 24.4396 27.98C24.0529 28.6067 23.4996 29.0867 22.7796 29.42C22.0596 29.7667 21.2196 29.94 20.2596 29.94C19.2463 29.94 18.3529 29.7467 17.5796 29.36C16.8196 28.9867 16.2263 28.4533 15.7996 27.76L16.9796 26.58C17.2863 27.1133 17.6996 27.54 18.2196 27.86C18.7529 28.18 19.4329 28.34 20.2596 28.34C21.1796 28.34 21.8996 28.1267 22.4196 27.7C22.9529 27.2867 23.2196 26.6667 23.2196 25.84C23.2196 25 22.9329 24.3333 22.3596 23.84C21.7996 23.3333 20.9796 23.08 19.8996 23.08H19.3796V21.6H19.9396C20.8996 21.6 21.6329 21.3667 22.1396 20.9C22.6596 20.4333 22.9196 19.8533 22.9196 19.16C22.9196 18.68 22.8063 18.2867 22.5796 17.98C22.3529 17.6733 22.0463 17.4467 21.6596 17.3C21.2729 17.14 20.8263 17.06 20.3196 17.06C19.5863 17.06 18.9396 17.22 18.3796 17.54C17.8329 17.8467 17.4063 18.28 17.0996 18.84L16.0196 17.72C16.2596 17.2667 16.5996 16.8733 17.0396 16.54C17.4929 16.2067 18.0129 15.9467 18.5996 15.76C19.1996 15.5733 19.8329 15.48 20.4996 15.48C21.3396 15.48 22.0796 15.6267 22.7196 15.92C23.3729 16.2133 23.8796 16.6267 24.2396 17.16C24.5996 17.6933 24.7796 18.32 24.7796 19.04C24.7796 19.56 24.6796 20.0533 24.4796 20.52C24.2796 20.9733 23.9863 21.36 23.5996 21.68C23.2263 21.9867 22.7796 22.1867 22.2596 22.28Z" fill="url(#paint1_linear_915_4189)"/>
<defs>
<linearGradient id="paint0_linear_915_4189" x1="0.5" y1="20" x2="40.5" y2="20" gradientUnits="userSpaceOnUse">
<stop stop-color="#23316E"/>
<stop offset="1" stop-color="#435ED4"/>
</linearGradient>
<linearGradient id="paint1_linear_915_4189" x1="15" y1="20" x2="26" y2="20" gradientUnits="userSpaceOnUse">
<stop stop-color="#23316E"/>
<stop offset="1" stop-color="#435ED4"/>
</linearGradient>
</defs>
</svg>
