<svg width="41" height="40" viewBox="0 0 41 40" fill="none" xmlns="http://www.w3.org/2000/svg">
<rect x="1.5" y="1" width="38" height="38" rx="19" fill="url(#paint0_linear_915_4185)"/>
<rect x="1.5" y="1" width="38" height="38" rx="19" stroke="url(#paint1_linear_915_4185)" stroke-width="2"/>
<g clip-path="url(#clip0_915_4185)">
<path d="M29.0995 13.6925L17.5837 25.2075C17.5063 25.2852 17.4142 25.3469 17.3129 25.389C17.2116 25.4311 17.103 25.4527 16.9933 25.4527C16.8836 25.4527 16.7749 25.4311 16.6736 25.389C16.5723 25.3469 16.4803 25.2852 16.4028 25.2075L11.9495 20.75C11.8721 20.6723 11.7801 20.6106 11.6788 20.5685C11.5774 20.5264 11.4688 20.5048 11.3591 20.5048C11.2494 20.5048 11.1408 20.5264 11.0394 20.5685C10.9381 20.6106 10.8461 20.6723 10.7687 20.75C10.6909 20.8274 10.6293 20.9194 10.5872 21.0208C10.5451 21.1221 10.5234 21.2307 10.5234 21.3404C10.5234 21.4501 10.5451 21.5588 10.5872 21.6601C10.6293 21.7614 10.6909 21.8534 10.7687 21.9308L15.2237 26.385C15.6936 26.8541 16.3305 27.1175 16.9945 27.1175C17.6585 27.1175 18.2954 26.8541 18.7653 26.385L30.2803 14.8725C30.358 14.7951 30.4195 14.7031 30.4615 14.6019C30.5035 14.5007 30.5252 14.3921 30.5252 14.2825C30.5252 14.1729 30.5035 14.0644 30.4615 13.9631C30.4195 13.8619 30.358 13.7699 30.2803 13.6925C30.2029 13.6148 30.1109 13.5531 30.0096 13.511C29.9083 13.4689 29.7996 13.4473 29.6899 13.4473C29.5802 13.4473 29.4716 13.4689 29.3703 13.511C29.2689 13.5531 29.1769 13.6148 29.0995 13.6925Z" fill="white"/>
</g>
<defs>
<linearGradient id="paint0_linear_915_4185" x1="0.5" y1="20" x2="40.5" y2="20" gradientUnits="userSpaceOnUse">
<stop stop-color="#23316E"/>
<stop offset="1" stop-color="#435ED4"/>
</linearGradient>
<linearGradient id="paint1_linear_915_4185" x1="0.5" y1="20" x2="40.5" y2="20" gradientUnits="userSpaceOnUse">
<stop stop-color="#23316E"/>
<stop offset="1" stop-color="#435ED4"/>
</linearGradient>
<clipPath id="clip0_915_4185">
<rect width="20" height="20" fill="white" transform="translate(10.5 10)"/>
</clipPath>
</defs>
</svg>
