<svg width="41" height="40" viewBox="0 0 41 40" fill="none" xmlns="http://www.w3.org/2000/svg">
<rect x="1.5" y="1" width="38" height="38" rx="19" stroke="url(#paint0_linear_910_4128)" stroke-width="2"/>
<path d="M16.0084 27C16.0084 26.4667 16.0484 25.9667 16.1284 25.5C16.2218 25.0333 16.3818 24.5867 16.6084 24.16C16.8484 23.7333 17.1818 23.3267 17.6084 22.94C18.0351 22.54 18.5884 22.1533 19.2684 21.78C19.6684 21.5533 20.0684 21.34 20.4684 21.14C20.8818 20.94 21.2618 20.7267 21.6084 20.5C21.9684 20.2733 22.2551 20.0267 22.4684 19.76C22.6818 19.48 22.7884 19.16 22.7884 18.8C22.7884 18.4933 22.6951 18.2 22.5084 17.92C22.3351 17.6267 22.0684 17.3933 21.7084 17.22C21.3618 17.0333 20.9284 16.94 20.4084 16.94C20.0084 16.94 19.6418 16.9933 19.3084 17.1C18.9884 17.2067 18.6951 17.3467 18.4284 17.52C18.1751 17.68 17.9484 17.8533 17.7484 18.04C17.5618 18.2133 17.4018 18.3733 17.2684 18.52L16.1684 17.28C16.2751 17.16 16.4551 17 16.7084 16.8C16.9618 16.5867 17.2818 16.3733 17.6684 16.16C18.0551 15.9467 18.5018 15.7667 19.0084 15.62C19.5284 15.46 20.0951 15.38 20.7084 15.38C21.5351 15.38 22.2418 15.5267 22.8284 15.82C23.4284 16.1 23.8884 16.4867 24.2084 16.98C24.5284 17.46 24.6884 18 24.6884 18.6C24.6884 19.12 24.5751 19.5733 24.3484 19.96C24.1351 20.3467 23.8551 20.6867 23.5084 20.98C23.1751 21.2733 22.8218 21.5267 22.4484 21.74C22.0884 21.94 21.7618 22.1133 21.4684 22.26C20.8684 22.5533 20.3551 22.82 19.9284 23.06C19.5018 23.3 19.1484 23.54 18.8684 23.78C18.6018 24.0067 18.3818 24.2467 18.2084 24.5C18.0484 24.7533 17.9284 25.0533 17.8484 25.4H24.9084V27H16.0084Z" fill="url(#paint1_linear_910_4128)"/>
<defs>
<linearGradient id="paint0_linear_910_4128" x1="0.5" y1="20" x2="40.5" y2="20" gradientUnits="userSpaceOnUse">
<stop stop-color="#23316E"/>
<stop offset="1" stop-color="#435ED4"/>
</linearGradient>
<linearGradient id="paint1_linear_910_4128" x1="15" y1="20" x2="26" y2="20" gradientUnits="userSpaceOnUse">
<stop stop-color="#23316E"/>
<stop offset="1" stop-color="#435ED4"/>
</linearGradient>
</defs>
</svg>
