<svg width="26" height="26" viewBox="0 0 26 26" fill="none" xmlns="http://www.w3.org/2000/svg">
<path d="M2.89019 9.90876C5.66331 15.9477 10.5908 20.734 16.7077 23.3305L17.69 23.7682C18.7777 24.2526 20.0014 24.3375 21.1456 24.008C22.2898 23.6784 23.2809 22.9557 23.9444 21.967L25.2285 20.0545C25.4295 19.7546 25.5108 19.3903 25.4565 19.0334C25.4023 18.6765 25.2163 18.3528 24.9353 18.1262L20.5846 14.6162C20.4331 14.4941 20.2585 14.4038 20.0712 14.3508C19.8839 14.2978 19.6879 14.2832 19.4948 14.3079C19.3018 14.3326 19.1157 14.3961 18.9478 14.4945C18.7798 14.5929 18.6335 14.7242 18.5176 14.8805L17.1714 16.6962C13.7157 14.9895 10.9186 12.1919 9.21252 8.73588L11.0267 7.38965C11.1831 7.27375 11.3144 7.12745 11.4128 6.95953C11.5112 6.79161 11.5747 6.60553 11.5994 6.41248C11.624 6.21942 11.6095 6.02337 11.5565 5.83609C11.5035 5.64881 11.4132 5.47417 11.2911 5.32265L7.78108 0.971987C7.55444 0.690975 7.23079 0.505018 6.87388 0.450746C6.51697 0.396474 6.15267 0.477821 5.85275 0.678765L3.9273 1.9701C2.93266 2.63711 2.2071 3.63556 1.87988 4.78758C1.55266 5.9396 1.64502 7.17038 2.14052 8.26065L2.89019 9.90876Z" fill="#29387E"/>
</svg>
