<svg width="32" height="32" viewBox="0 0 32 32" fill="none" xmlns="http://www.w3.org/2000/svg">
<path d="M18.1193 28.1804C21.3148 25.3284 27 19.5018 27 14.1549C27 11.1964 25.8411 8.35915 23.7782 6.2672C21.7153 4.17525 18.9174 3 16 3C13.0826 3 10.2847 4.17525 8.22183 6.2672C6.15893 8.35915 5 11.1964 5 14.1549C5 19.5018 10.6833 25.3284 13.8807 28.1804C14.4639 28.7082 15.2183 29 16 29C16.7817 29 17.5361 28.7082 18.1193 28.1804ZM12.3333 14.1549C12.3333 13.1688 12.7196 12.223 13.4073 11.5257C14.0949 10.8284 15.0275 10.4366 16 10.4366C16.9725 10.4366 17.9051 10.8284 18.5927 11.5257C19.2804 12.223 19.6667 13.1688 19.6667 14.1549C19.6667 15.1411 19.2804 16.0868 18.5927 16.7841C17.9051 17.4815 16.9725 17.8732 16 17.8732C15.0275 17.8732 14.0949 17.4815 13.4073 16.7841C12.7196 16.0868 12.3333 15.1411 12.3333 14.1549Z" fill="#29387E"/>
</svg>
