<svg width="66" height="67" viewBox="0 0 66 67" fill="none" xmlns="http://www.w3.org/2000/svg">
<path d="M48.2744 24.5895V5.65284C48.2726 4.19847 47.6941 2.80416 46.6657 1.77577C45.6373 0.747374 44.243 0.168856 42.7886 0.167114L5.48572 0.167114C4.03135 0.168856 2.63705 0.747374 1.60866 1.77577C0.58026 2.80416 0.00174211 4.19847 0 5.65284L0 35.2757C0.00174211 36.7301 0.58026 38.1244 1.60866 39.1528C2.63705 40.1812 4.03135 40.7597 5.48572 40.7615H7.68001V45.2817C7.67408 45.879 7.83916 46.4655 8.15576 46.972C8.47237 47.4784 8.92728 47.8838 9.46679 48.1401C10.0063 48.3964 10.6079 48.493 11.2005 48.4185C11.7932 48.344 12.3521 48.1014 12.8114 47.7195L21.2396 40.7615H24.6111C23.7281 44.8385 24.0886 49.0867 25.646 52.9566C27.2035 56.8266 29.8861 60.1402 33.3471 62.469C36.8081 64.7979 40.8883 66.0347 45.0598 66.0197C49.2313 66.0046 53.3024 64.7383 56.7465 62.3845C60.1906 60.0308 62.8493 56.6978 64.3787 52.8167C65.9081 48.9357 66.2379 44.685 65.3255 40.6144C64.413 36.5439 62.3003 32.8407 59.2605 29.9839C56.2207 27.127 52.3936 25.2479 48.2744 24.5895ZM20.8457 38.5672C20.5907 38.5671 20.3435 38.656 20.1469 38.8184L11.4103 46.0277C11.2763 46.1433 11.1114 46.2171 10.9359 46.2401C10.7605 46.2631 10.5822 46.2343 10.4229 46.1572C10.2565 46.0795 10.1161 45.9552 10.0188 45.7995C9.92141 45.6437 9.87124 45.4631 9.8743 45.2795V39.6643C9.8743 39.3733 9.75871 39.0943 9.55295 38.8885C9.3472 38.6828 9.06814 38.5672 8.77716 38.5672H5.48572C4.61278 38.5672 3.77559 38.2204 3.15833 37.6031C2.54106 36.9859 2.19429 36.1487 2.19429 35.2757V5.65284C2.19429 4.77989 2.54106 3.9427 3.15833 3.32544C3.77559 2.70818 4.61278 2.3614 5.48572 2.3614H42.7886C43.6616 2.3614 44.4988 2.70818 45.116 3.32544C45.7333 3.9427 46.0801 4.77989 46.0801 5.65284V24.3602C45.7147 24.3405 45.3538 24.3043 44.9829 24.3043C40.6096 24.3113 36.349 25.6918 32.8027 28.2511C29.2564 30.8103 26.6036 34.4188 25.219 38.5672H20.8457ZM44.9829 63.8015C41.294 63.8015 37.6879 62.7076 34.6207 60.6581C31.5535 58.6087 29.1629 55.6957 27.7512 52.2876C26.3395 48.8795 25.9702 45.1293 26.6898 41.5113C27.4095 37.8933 29.1859 34.5699 31.7944 31.9615C34.4028 29.353 37.7262 27.5766 41.3442 26.857C44.9622 26.1373 48.7124 26.5066 52.1205 27.9183C55.5286 29.33 58.4416 31.7206 60.491 34.7878C62.5405 37.8551 63.6344 41.4611 63.6344 45.15C63.6289 50.095 61.662 54.8359 58.1654 58.3325C54.6688 61.8291 49.9279 63.796 44.9829 63.8015Z" fill="url(#paint0_linear_508_6001)"/>
<path d="M44.9825 28.6927C41.7276 28.6927 38.5458 29.6579 35.8394 31.4663C33.1331 33.2746 31.0237 35.8449 29.7781 38.852C28.5325 41.8592 28.2066 45.1682 28.8416 48.3605C29.4766 51.5529 31.044 54.4853 33.3456 56.7869C35.6472 59.0884 38.5795 60.6558 41.7719 61.2908C44.9643 61.9258 48.2733 61.5999 51.2804 60.3543C54.2876 59.1087 56.8578 56.9994 58.6662 54.293C60.4745 51.5866 61.4397 48.4048 61.4397 45.1499C61.4348 40.7867 59.6993 36.6036 56.6141 33.5184C53.5288 30.4331 49.3457 28.6977 44.9825 28.6927ZM44.9825 59.4128C42.1616 59.4128 39.404 58.5763 37.0585 57.009C34.713 55.4418 32.8849 53.2143 31.8054 50.6081C30.7258 48.0019 30.4434 45.1341 30.9937 42.3673C31.5441 39.6006 32.9025 37.0592 34.8972 35.0645C36.8919 33.0698 39.4333 31.7114 42.2 31.1611C44.9667 30.6107 47.8345 30.8932 50.4407 31.9727C53.0469 33.0522 55.2745 34.8804 56.8417 37.2259C58.4089 39.5714 59.2454 42.329 59.2454 45.1499C59.2411 48.9313 57.737 52.5566 55.0631 55.2305C52.3893 57.9043 48.764 59.4084 44.9825 59.4128ZM6.5825 13.3327H41.6911C41.9821 13.3327 42.2612 13.2171 42.4669 13.0114C42.6727 12.8056 42.7883 12.5266 42.7883 12.2356C42.7883 11.9446 42.6727 11.6655 42.4669 11.4598C42.2612 11.254 41.9821 11.1384 41.6911 11.1384H6.5825C6.29152 11.1384 6.01245 11.254 5.8067 11.4598C5.60094 11.6655 5.48535 11.9446 5.48535 12.2356C5.48535 12.5266 5.60094 12.8056 5.8067 13.0114C6.01245 13.2171 6.29152 13.3327 6.5825 13.3327ZM6.5825 22.1099H37.3025C37.5935 22.1099 37.8726 21.9943 38.0783 21.7885C38.2841 21.5828 38.3997 21.3037 38.3997 21.0127C38.3997 20.7217 38.2841 20.4427 38.0783 20.2369C37.8726 20.0312 37.5935 19.9156 37.3025 19.9156H6.5825C6.29152 19.9156 6.01245 20.0312 5.8067 20.2369C5.60094 20.4427 5.48535 20.7217 5.48535 21.0127C5.48535 21.3037 5.60094 21.5828 5.8067 21.7885C6.01245 21.9943 6.29152 22.1099 6.5825 22.1099ZM24.1368 27.5956H6.5825C6.29152 27.5956 6.01245 27.7112 5.8067 27.9169C5.60094 28.1227 5.48535 28.4018 5.48535 28.6927C5.48535 28.9837 5.60094 29.2628 5.8067 29.4685C6.01245 29.6743 6.29152 29.7899 6.5825 29.7899H24.1368C24.4278 29.7899 24.7069 29.6743 24.9126 29.4685C25.1184 29.2628 25.2339 28.9837 25.2339 28.6927C25.2339 28.4018 25.1184 28.1227 24.9126 27.9169C24.7069 27.7112 24.4278 27.5956 24.1368 27.5956Z" fill="url(#paint1_linear_508_6001)"/>
<path d="M44.9827 36.3725C45.2736 36.3725 45.5527 36.2569 45.7584 36.0511C45.9642 35.8454 46.0798 35.5663 46.0798 35.2753V34.1782C46.0798 33.8872 45.9642 33.6082 45.7584 33.4024C45.5527 33.1966 45.2736 33.0811 44.9827 33.0811C44.6917 33.0811 44.4126 33.1966 44.2069 33.4024C44.0011 33.6082 43.8855 33.8872 43.8855 34.1782V35.2753C43.8855 35.5663 44.0011 35.8454 44.2069 36.0511C44.4126 36.2569 44.6917 36.3725 44.9827 36.3725ZM38.0004 36.6161C37.7935 36.4162 37.5164 36.3056 37.2287 36.3081C36.941 36.3106 36.6658 36.426 36.4624 36.6294C36.259 36.8328 36.1436 37.108 36.1411 37.3957C36.1386 37.6834 36.2492 37.9605 36.4491 38.1674L37.2247 38.9431C37.4317 39.1429 37.7088 39.2535 37.9965 39.251C38.2841 39.2485 38.5593 39.1332 38.7627 38.9297C38.9662 38.7263 39.0815 38.4511 39.084 38.1635C39.0865 37.8758 38.976 37.5987 38.7761 37.3917L38.0004 36.6161ZM35.1084 44.0525H34.0112C33.7202 44.0525 33.4412 44.1681 33.2354 44.3738C33.0297 44.5796 32.9141 44.8587 32.9141 45.1496C32.9141 45.4406 33.0297 45.7197 33.2354 45.9254C33.4412 46.1312 33.7202 46.2468 34.0112 46.2468H35.1084C35.3993 46.2468 35.6784 46.1312 35.8842 45.9254C36.0899 45.7197 36.2055 45.4406 36.2055 45.1496C36.2055 44.8587 36.0899 44.5796 35.8842 44.3738C35.6784 44.1681 35.3993 44.0525 35.1084 44.0525ZM37.2247 51.3562L36.4491 52.1319C36.3443 52.2331 36.2607 52.3541 36.2032 52.488C36.1457 52.6219 36.1154 52.7658 36.1142 52.9115C36.1129 53.0572 36.1406 53.2016 36.1958 53.3365C36.251 53.4713 36.3324 53.5938 36.4355 53.6968C36.5385 53.7998 36.661 53.8813 36.7958 53.9365C36.9306 53.9916 37.0751 54.0194 37.2208 54.0181C37.3665 54.0169 37.5104 53.9866 37.6443 53.9291C37.7782 53.8716 37.8992 53.788 38.0004 53.6832L38.7761 52.9075C38.976 52.7006 39.0865 52.4235 39.084 52.1358C39.0815 51.8482 38.9662 51.573 38.7627 51.3696C38.5593 51.1661 38.2841 51.0508 37.9965 51.0483C37.7088 51.0457 37.4317 51.1563 37.2247 51.3562ZM44.9827 53.9268C44.6917 53.9268 44.4126 54.0424 44.2069 54.2481C44.0011 54.4539 43.8855 54.733 43.8855 55.0239V56.1211C43.8855 56.4121 44.0011 56.6911 44.2069 56.8969C44.4126 57.1026 44.6917 57.2182 44.9827 57.2182C45.2736 57.2182 45.5527 57.1026 45.7584 56.8969C45.9642 56.6911 46.0798 56.4121 46.0798 56.1211V55.0239C46.0798 54.733 45.9642 54.4539 45.7584 54.2481C45.5527 54.0424 45.2736 53.9268 44.9827 53.9268ZM52.7406 51.3562C52.5336 51.1563 52.2565 51.0457 51.9688 51.0483C51.6812 51.0508 51.406 51.1661 51.2026 51.3696C50.9991 51.573 50.8838 51.8482 50.8813 52.1358C50.8788 52.4235 50.9893 52.7006 51.1892 52.9075L51.9649 53.6832C52.1718 53.8831 52.4489 53.9937 52.7366 53.9912C53.0243 53.9887 53.2995 53.8733 53.5029 53.6699C53.7063 53.4664 53.8217 53.1913 53.8242 52.9036C53.8267 52.6159 53.7161 52.3388 53.5162 52.1319L52.7406 51.3562ZM53.7598 45.1496C53.7598 45.4406 53.8754 45.7197 54.0812 45.9254C54.2869 46.1312 54.566 46.2468 54.8569 46.2468H55.9541C56.2451 46.2468 56.5241 46.1312 56.7299 45.9254C56.9356 45.7197 57.0512 45.4406 57.0512 45.1496C57.0512 44.8587 56.9356 44.5796 56.7299 44.3738C56.5241 44.1681 56.2451 44.0525 55.9541 44.0525H54.8569C54.566 44.0525 54.2869 44.1681 54.0812 44.3738C53.8754 44.5796 53.7598 44.8587 53.7598 45.1496ZM51.9649 39.2646C52.2558 39.2645 52.5349 39.1489 52.7406 38.9431L53.5162 38.1674C53.7161 37.9605 53.8267 37.6834 53.8242 37.3957C53.8217 37.108 53.7063 36.8328 53.5029 36.6294C53.2995 36.426 53.0243 36.3106 52.7366 36.3081C52.4489 36.3056 52.1718 36.4162 51.9649 36.6161L51.1892 37.3917C51.0358 37.5452 50.9313 37.7406 50.889 37.9534C50.8467 38.1662 50.8684 38.3868 50.9515 38.5872C51.0345 38.7877 51.1751 38.959 51.3555 39.0796C51.5358 39.2001 51.7479 39.2645 51.9649 39.2646ZM47.6674 45.2648L46.0798 44.4716V39.6639C46.0798 39.3729 45.9642 39.0939 45.7584 38.8881C45.5527 38.6824 45.2736 38.5668 44.9827 38.5668C44.6917 38.5668 44.4126 38.6824 44.2069 38.8881C44.0011 39.0939 43.8855 39.3729 43.8855 39.6639V45.1496C43.8844 45.3545 43.9406 45.5555 44.0478 45.73C44.1551 45.9045 44.309 46.0455 44.4922 46.1371L46.6865 47.2342C46.8155 47.2986 46.9558 47.337 47.0996 47.3471C47.2434 47.3573 47.3878 47.339 47.5245 47.2934C47.6612 47.2478 47.7876 47.1756 47.8965 47.0811C48.0053 46.9866 48.0945 46.8716 48.1589 46.7427C48.2233 46.6137 48.2617 46.4734 48.2718 46.3296C48.282 46.1858 48.2637 46.0414 48.2181 45.9047C48.1724 45.768 48.1003 45.6416 48.0058 45.5328C47.9113 45.4239 47.7963 45.3347 47.6674 45.2703V45.2648Z" fill="url(#paint2_linear_508_6001)"/>
<defs>
<linearGradient id="paint0_linear_508_6001" x1="3.45631" y1="39.4207" x2="51.0843" y2="39.4207" gradientUnits="userSpaceOnUse">
<stop stop-color="#374BA8"/>
<stop offset="1" stop-color="#2FB7F0"/>
</linearGradient>
<linearGradient id="paint1_linear_508_6001" x1="8.42314" y1="41.2219" x2="48.9059" y2="41.2219" gradientUnits="userSpaceOnUse">
<stop stop-color="#374BA8"/>
<stop offset="1" stop-color="#2FB7F0"/>
</linearGradient>
<linearGradient id="paint2_linear_508_6001" x1="34.1813" y1="47.4688" x2="51.6445" y2="47.4688" gradientUnits="userSpaceOnUse">
<stop stop-color="#374BA8"/>
<stop offset="1" stop-color="#2FB7F0"/>
</linearGradient>
</defs>
</svg>
