<svg width="62" height="66" viewBox="0 0 62 66" fill="none" xmlns="http://www.w3.org/2000/svg">
<path d="M31.0019 36.0979H30.2189C29.3967 36.0979 28.6081 35.7713 28.0267 35.1899L25.7093 32.8724C25.4214 32.5845 25.0796 32.3562 24.7035 32.2004C24.3274 32.0446 23.9242 31.9645 23.5171 31.9645H14.4674C12.7553 31.9645 11.3672 33.3523 11.3672 35.0646V61.9325C11.3672 63.6447 12.7553 65.0327 14.4674 65.0327" stroke="url(#paint0_linear_508_5943)" stroke-width="1.5" stroke-miterlimit="10" stroke-linecap="round" stroke-linejoin="round"/>
<path d="M50.6358 40.2317V39.1983C50.6358 37.4861 49.2478 36.0982 47.5357 36.0982H35.1348" stroke="url(#paint1_linear_508_5943)" stroke-width="1.5" stroke-miterlimit="10" stroke-linecap="round" stroke-linejoin="round"/>
<path d="M46.5022 59.8652H39.2686" stroke="url(#paint2_linear_508_5943)" stroke-width="1.5" stroke-miterlimit="10" stroke-linecap="round" stroke-linejoin="round"/>
<path d="M48.5687 55.7328H41.335" stroke="url(#paint3_linear_508_5943)" stroke-width="1.5" stroke-miterlimit="10" stroke-linecap="round" stroke-linejoin="round"/>
<path d="M11.9229 63.366L18.9277 42.3513C19.1335 41.734 19.5283 41.1971 20.0562 40.8167C20.584 40.4363 21.2182 40.2315 21.8689 40.2315H57.4692C58.1745 40.2315 58.6726 40.9225 58.4496 41.5917L51.3425 62.9129C51.1367 63.5302 50.7419 64.067 50.2141 64.4475C49.6862 64.828 49.052 65.0327 48.4014 65.0327H14.4671" stroke="url(#paint4_linear_508_5943)" stroke-width="1.5" stroke-miterlimit="10" stroke-linecap="round" stroke-linejoin="round"/>
<path d="M10.3336 0.963472H2.06657C1.7925 0.963472 1.52966 1.07234 1.33587 1.26614C1.14208 1.45993 1.0332 1.72277 1.0332 1.99684V18.531C1.0332 18.805 1.14207 19.0679 1.33586 19.2617C1.52965 19.4555 1.79249 19.5644 2.06657 19.5645H14.4671C14.7412 19.5645 15.0041 19.4556 15.1979 19.2617C15.3917 19.0679 15.5006 18.8051 15.5006 18.531V6.13043L10.3336 0.963472Z" stroke="url(#paint5_linear_508_5943)" stroke-width="1.5" stroke-miterlimit="10" stroke-linecap="round" stroke-linejoin="round"/>
<path d="M15.5009 6.12964H11.3674C11.0933 6.12964 10.8304 6.02077 10.6367 5.82697C10.4429 5.63318 10.334 5.37034 10.334 5.09627V0.962678" stroke="url(#paint6_linear_508_5943)" stroke-width="1.5" stroke-miterlimit="10" stroke-linecap="round" stroke-linejoin="round"/>
<path d="M5.16699 10.2633H10.334" stroke="url(#paint7_linear_508_5943)" stroke-width="1.5" stroke-miterlimit="10" stroke-linecap="round" stroke-linejoin="round"/>
<path d="M5.16699 14.3971H10.334" stroke="url(#paint8_linear_508_5943)" stroke-width="1.5" stroke-miterlimit="10" stroke-linecap="round" stroke-linejoin="round"/>
<path d="M33.068 0.963472H24.8009C24.5269 0.963472 24.264 1.07234 24.0702 1.26614C23.8765 1.45993 23.7676 1.72277 23.7676 1.99684V18.531C23.7676 18.805 23.8764 19.0679 24.0702 19.2617C24.264 19.4555 24.5269 19.5644 24.8009 19.5645H37.2015C37.4756 19.5645 37.7384 19.4556 37.9323 19.2617C38.1261 19.0679 38.235 18.8051 38.235 18.531V6.13043L33.068 0.963472Z" stroke="url(#paint9_linear_508_5943)" stroke-width="1.5" stroke-miterlimit="10" stroke-linecap="round" stroke-linejoin="round"/>
<path d="M38.2353 6.12964H34.1019C33.9661 6.12966 33.8318 6.10294 33.7064 6.05102C33.581 5.99909 33.467 5.92298 33.3711 5.82702C33.2751 5.73106 33.199 5.61714 33.147 5.49175C33.0951 5.36637 33.0684 5.23199 33.0684 5.09627V0.962678" stroke="url(#paint10_linear_508_5943)" stroke-width="1.5" stroke-miterlimit="10" stroke-linecap="round" stroke-linejoin="round"/>
<path d="M27.9014 10.2633H33.0683" stroke="url(#paint11_linear_508_5943)" stroke-width="1.5" stroke-miterlimit="10" stroke-linecap="round" stroke-linejoin="round"/>
<path d="M27.9014 14.3971H33.0683" stroke="url(#paint12_linear_508_5943)" stroke-width="1.5" stroke-miterlimit="10" stroke-linecap="round" stroke-linejoin="round"/>
<path d="M55.8025 0.963472H47.5354C47.2614 0.963472 46.9985 1.07234 46.8047 1.26613C46.6109 1.45992 46.502 1.72276 46.502 1.99684V18.531C46.502 18.805 46.6109 19.0679 46.8047 19.2617C46.9985 19.4555 47.2614 19.5644 47.5354 19.5645H59.936C60.2101 19.5645 60.4729 19.4556 60.6668 19.2617C60.8606 19.0679 60.9695 18.8051 60.9695 18.531V6.13043L55.8025 0.963472Z" stroke="url(#paint13_linear_508_5943)" stroke-width="1.5" stroke-miterlimit="10" stroke-linecap="round" stroke-linejoin="round"/>
<path d="M60.9697 6.12964H56.8362C56.7005 6.12966 56.5661 6.10294 56.4407 6.05102C56.3153 5.99909 56.2014 5.92298 56.1054 5.82702C56.0095 5.73106 55.9333 5.61714 55.8814 5.49175C55.8295 5.36637 55.8027 5.23199 55.8027 5.09627V0.962678" stroke="url(#paint14_linear_508_5943)" stroke-width="1.5" stroke-miterlimit="10" stroke-linecap="round" stroke-linejoin="round"/>
<path d="M50.6357 10.2633H55.8027" stroke="url(#paint15_linear_508_5943)" stroke-width="1.5" stroke-miterlimit="10" stroke-linecap="round" stroke-linejoin="round"/>
<path d="M50.6357 14.3971H55.8027" stroke="url(#paint16_linear_508_5943)" stroke-width="1.5" stroke-miterlimit="10" stroke-linecap="round" stroke-linejoin="round"/>
<path d="M31.001 27.8312V40.2317" stroke="url(#paint17_linear_508_5943)" stroke-width="1.5" stroke-miterlimit="10" stroke-linecap="round" stroke-linejoin="round"/>
<path d="M33.0674 25.7644H51.6685C52.8099 25.7644 53.7352 24.8391 53.7352 23.6977V19.5641" stroke="url(#paint18_linear_508_5943)" stroke-width="1.5" stroke-miterlimit="10" stroke-linecap="round" stroke-linejoin="round"/>
<path d="M8.2666 19.5641V23.6975C8.2666 24.8389 9.19194 25.7644 10.3333 25.7644H28.9341" stroke="url(#paint19_linear_508_5943)" stroke-width="1.5" stroke-miterlimit="10" stroke-linecap="round" stroke-linejoin="round"/>
<path d="M33.068 25.764C33.068 26.9054 32.1427 27.8307 31.0013 27.8307C29.8598 27.8307 28.9346 26.9054 28.9346 25.764C28.9346 24.6226 29.8598 23.6972 31.0013 23.6972C32.1427 23.6972 33.068 24.6226 33.068 25.764Z" stroke="url(#paint20_linear_508_5943)" stroke-width="1.5" stroke-miterlimit="10" stroke-linecap="round" stroke-linejoin="round"/>
<path d="M31.001 23.6969V19.5634" stroke="url(#paint21_linear_508_5943)" stroke-width="1.5" stroke-miterlimit="10" stroke-linecap="round" stroke-linejoin="round"/>
<defs>
<linearGradient id="paint0_linear_508_5943" x1="12.3981" y1="45.3213" x2="26.6037" y2="45.3213" gradientUnits="userSpaceOnUse">
<stop stop-color="#374BA8"/>
<stop offset="1" stop-color="#2FB7F0"/>
</linearGradient>
<linearGradient id="paint1_linear_508_5943" x1="35.9486" y1="37.7678" x2="47.1635" y2="37.7678" gradientUnits="userSpaceOnUse">
<stop stop-color="#374BA8"/>
<stop offset="1" stop-color="#2FB7F0"/>
</linearGradient>
<linearGradient id="paint2_linear_508_5943" x1="39.6483" y1="59.2692" x2="44.8819" y2="59.2692" gradientUnits="userSpaceOnUse">
<stop stop-color="#374BA8"/>
<stop offset="1" stop-color="#2FB7F0"/>
</linearGradient>
<linearGradient id="paint3_linear_508_5943" x1="41.7148" y1="55.1367" x2="46.9483" y2="55.1367" gradientUnits="userSpaceOnUse">
<stop stop-color="#374BA8"/>
<stop offset="1" stop-color="#2FB7F0"/>
</linearGradient>
<linearGradient id="paint4_linear_508_5943" x1="14.3685" y1="50.2492" x2="48.0694" y2="50.2492" gradientUnits="userSpaceOnUse">
<stop stop-color="#374BA8"/>
<stop offset="1" stop-color="#2FB7F0"/>
</linearGradient>
<linearGradient id="paint5_linear_508_5943" x1="1.79279" y1="8.47674" x2="12.2599" y2="8.47674" gradientUnits="userSpaceOnUse">
<stop stop-color="#374BA8"/>
<stop offset="1" stop-color="#2FB7F0"/>
</linearGradient>
<linearGradient id="paint6_linear_508_5943" x1="10.6053" y1="3.04971" x2="14.3435" y2="3.04971" gradientUnits="userSpaceOnUse">
<stop stop-color="#374BA8"/>
<stop offset="1" stop-color="#2FB7F0"/>
</linearGradient>
<linearGradient id="paint7_linear_508_5943" x1="5.43827" y1="9.66722" x2="9.17655" y2="9.66722" gradientUnits="userSpaceOnUse">
<stop stop-color="#374BA8"/>
<stop offset="1" stop-color="#2FB7F0"/>
</linearGradient>
<linearGradient id="paint8_linear_508_5943" x1="5.43827" y1="13.801" x2="9.17655" y2="13.801" gradientUnits="userSpaceOnUse">
<stop stop-color="#374BA8"/>
<stop offset="1" stop-color="#2FB7F0"/>
</linearGradient>
<linearGradient id="paint9_linear_508_5943" x1="24.5272" y1="8.47674" x2="34.9943" y2="8.47674" gradientUnits="userSpaceOnUse">
<stop stop-color="#374BA8"/>
<stop offset="1" stop-color="#2FB7F0"/>
</linearGradient>
<linearGradient id="paint10_linear_508_5943" x1="33.3396" y1="3.04971" x2="37.0779" y2="3.04971" gradientUnits="userSpaceOnUse">
<stop stop-color="#374BA8"/>
<stop offset="1" stop-color="#2FB7F0"/>
</linearGradient>
<linearGradient id="paint11_linear_508_5943" x1="28.1726" y1="9.66722" x2="31.9109" y2="9.66722" gradientUnits="userSpaceOnUse">
<stop stop-color="#374BA8"/>
<stop offset="1" stop-color="#2FB7F0"/>
</linearGradient>
<linearGradient id="paint12_linear_508_5943" x1="28.1726" y1="13.801" x2="31.9109" y2="13.801" gradientUnits="userSpaceOnUse">
<stop stop-color="#374BA8"/>
<stop offset="1" stop-color="#2FB7F0"/>
</linearGradient>
<linearGradient id="paint13_linear_508_5943" x1="47.2615" y1="8.47674" x2="57.7287" y2="8.47674" gradientUnits="userSpaceOnUse">
<stop stop-color="#374BA8"/>
<stop offset="1" stop-color="#2FB7F0"/>
</linearGradient>
<linearGradient id="paint14_linear_508_5943" x1="56.074" y1="3.04971" x2="59.8123" y2="3.04971" gradientUnits="userSpaceOnUse">
<stop stop-color="#374BA8"/>
<stop offset="1" stop-color="#2FB7F0"/>
</linearGradient>
<linearGradient id="paint15_linear_508_5943" x1="50.907" y1="9.66722" x2="54.6453" y2="9.66722" gradientUnits="userSpaceOnUse">
<stop stop-color="#374BA8"/>
<stop offset="1" stop-color="#2FB7F0"/>
</linearGradient>
<linearGradient id="paint16_linear_508_5943" x1="50.907" y1="13.801" x2="54.6453" y2="13.801" gradientUnits="userSpaceOnUse">
<stop stop-color="#374BA8"/>
<stop offset="1" stop-color="#2FB7F0"/>
</linearGradient>
<linearGradient id="paint17_linear_508_5943" x1="31.0535" y1="32.84" x2="31.777" y2="32.84" gradientUnits="userSpaceOnUse">
<stop stop-color="#374BA8"/>
<stop offset="1" stop-color="#2FB7F0"/>
</linearGradient>
<linearGradient id="paint18_linear_508_5943" x1="34.1525" y1="22.0685" x2="49.1056" y2="22.0685" gradientUnits="userSpaceOnUse">
<stop stop-color="#374BA8"/>
<stop offset="1" stop-color="#2FB7F0"/>
</linearGradient>
<linearGradient id="paint19_linear_508_5943" x1="9.35171" y1="22.0685" x2="24.3045" y2="22.0685" gradientUnits="userSpaceOnUse">
<stop stop-color="#374BA8"/>
<stop offset="1" stop-color="#2FB7F0"/>
</linearGradient>
<linearGradient id="paint20_linear_508_5943" x1="29.1516" y1="25.3668" x2="32.1421" y2="25.3668" gradientUnits="userSpaceOnUse">
<stop stop-color="#374BA8"/>
<stop offset="1" stop-color="#2FB7F0"/>
</linearGradient>
<linearGradient id="paint21_linear_508_5943" x1="31.0535" y1="21.233" x2="31.777" y2="21.233" gradientUnits="userSpaceOnUse">
<stop stop-color="#374BA8"/>
<stop offset="1" stop-color="#2FB7F0"/>
</linearGradient>
</defs>
</svg>
