<svg width="63" height="66" viewBox="0 0 63 66" fill="none" xmlns="http://www.w3.org/2000/svg">
<path d="M0 13.1268C0 9.663 1.37923 6.41504 3.88358 3.98116C4.06178 3.81095 4.30042 3.71759 4.54754 3.72141C4.79466 3.72524 5.03026 3.82593 5.20304 4.00158C5.37583 4.17722 5.4718 4.41359 5.47008 4.65923C5.46836 4.90487 5.36909 5.13989 5.19386 5.31313C3.05326 7.39359 1.87431 10.1685 1.87431 13.1269C1.87431 13.374 1.77558 13.6109 1.59983 13.7856C1.42408 13.9602 1.18571 14.0584 0.937157 14.0584C0.688608 14.0584 0.450238 13.9602 0.274487 13.7856C0.0987357 13.6109 0 13.3738 0 13.1268ZM23.8947 13.1268C23.8947 13.3738 23.9934 13.6107 24.1692 13.7854C24.3449 13.9601 24.5833 14.0582 24.8319 14.0582C25.0804 14.0582 25.3188 13.9601 25.4945 13.7854C25.6703 13.6107 25.769 13.3738 25.769 13.1268C25.769 9.663 24.3898 6.41504 21.8853 3.98116C21.7071 3.81095 21.4685 3.71759 21.2213 3.72141C20.9742 3.72524 20.7386 3.82593 20.5658 4.00158C20.3931 4.17722 20.2971 4.41359 20.2988 4.65923C20.3005 4.90487 20.3998 5.13989 20.575 5.31313C22.7158 7.39372 23.8947 10.1685 23.8947 13.1268ZM63 37.8529V63.3749C63 64.8224 61.8152 66 60.3588 66H17.5412C14.4567 66 11.9474 63.5058 11.9474 60.4402V28.1028C10.3146 27.723 9.05321 26.3749 8.81303 24.703H0.937157C0.688608 24.703 0.450238 24.6048 0.274487 24.4302C0.0987357 24.2555 0 24.0186 0 23.7715C0 23.5245 0.0987357 23.2876 0.274487 23.1129C0.450238 22.9382 0.688608 22.8401 0.937157 22.8401H2.06804C2.80893 22.8401 3.41179 22.241 3.41179 21.5045V13.1268C3.41179 9.1193 5.94707 5.6909 9.50693 4.33617V3.35695C9.50693 1.5059 11.022 9.02198e-06 12.8844 9.02198e-06C13.6382 9.02198e-06 14.335 0.246843 14.8977 0.663334C15.7094 0.226388 16.6181 -0.00165316 17.5412 9.02198e-06H45.8839C48.9683 9.02198e-06 51.4777 2.49244 51.4777 5.55611V35.2277H52.7952V34.541C52.7952 33.3118 53.8013 32.3119 55.0379 32.3119C56.2746 32.3119 57.2805 33.3118 57.2805 34.541V35.2277H60.3588C61.8152 35.2277 63 36.4053 63 37.8529ZM54.6695 35.2277H55.4062V34.541C55.4062 34.3424 55.2375 34.1748 55.0379 34.1748C54.8383 34.1748 54.6695 34.3424 54.6695 34.541V35.2277ZM52.7952 37.2794V37.0906H45.6748V37.2794C45.6748 37.4758 45.8435 37.6418 46.0432 37.6418C46.2918 37.6418 46.5301 37.7399 46.7059 37.9146C46.8816 38.0892 46.9804 38.3262 46.9804 38.5732C46.9804 38.8202 46.8816 39.0572 46.7059 39.2318C46.5301 39.4065 46.2918 39.5046 46.0432 39.5046C44.8066 39.5046 43.8005 38.5064 43.8005 37.2794V37.0906H36.6801V37.2794C36.6801 37.4758 36.8488 37.6418 37.0485 37.6418C37.2971 37.6418 37.5354 37.7399 37.7112 37.9146C37.8869 38.0892 37.9857 38.3262 37.9857 38.5732C37.9857 38.8202 37.8869 39.0572 37.7112 39.2318C37.5354 39.4065 37.2971 39.5046 37.0485 39.5046C35.8119 39.5046 34.8058 38.5064 34.8058 37.2794V37.0906H31.7276C31.5242 37.0908 31.3293 37.1712 31.1855 37.3141C31.0417 37.457 30.9608 37.6508 30.9606 37.8529V41.2141H61.1254V37.8529C61.1252 37.6508 61.0443 37.4571 60.9006 37.3142C60.7568 37.1712 60.5619 37.0908 60.3586 37.0906H54.6692V37.2794C54.6692 37.4758 54.8379 37.6418 55.0376 37.6418C55.2862 37.6418 55.5246 37.7399 55.7003 37.9146C55.8761 38.0892 55.9748 38.3262 55.9748 38.5732C55.9748 38.8202 55.8761 39.0572 55.7003 39.2318C55.5246 39.4065 55.2862 39.5046 55.0376 39.5046C53.801 39.5046 52.7949 38.5064 52.7949 37.2794H52.7952ZM37.4169 34.5408C37.4169 34.3423 37.2483 34.1746 37.0486 34.1746C36.849 34.1746 36.6802 34.3423 36.6802 34.5408V35.2276H37.4169V34.5408ZM46.4116 34.5408C46.4116 34.3423 46.243 34.1746 46.0433 34.1746C45.8437 34.1746 45.6749 34.3423 45.6749 34.5408V35.2276H46.4116V34.5408ZM26.9589 1.86304C27.4208 2.58851 27.9768 3.33101 28.6536 3.33101H35.0561C35.5896 3.33101 35.9013 2.88537 36.4387 1.93942L36.4825 1.86304H26.9589ZM17.5412 1.86304C17.0194 1.86304 16.514 1.97189 16.0464 2.17814C16.1892 2.55499 16.2622 2.9544 16.262 3.35709V4.33684C19.8197 5.69196 22.3532 9.11996 22.3532 13.1269V21.5047C22.3532 22.2412 22.9561 22.8402 23.697 22.8402H24.8319C25.0804 22.8402 25.3188 22.9384 25.4945 23.113C25.6703 23.2877 25.769 23.5246 25.769 23.7717C25.769 24.0187 25.6703 24.2556 25.4945 24.4303C25.3188 24.605 25.0804 24.7031 24.8319 24.7031H16.9522C16.7123 26.3747 15.4524 27.7226 13.8217 28.1026V56.7363H29.0866V37.8529C29.0866 36.4054 30.2715 35.2277 31.7279 35.2277H34.806V34.541C34.806 33.3118 35.8121 32.3119 37.0488 32.3119C38.2854 32.3119 39.2914 33.3118 39.2914 34.541V35.2277H43.8007V34.541C43.8007 33.3118 44.8068 32.3119 46.0435 32.3119C47.2801 32.3119 48.2861 33.3118 48.2861 34.541V35.2277H49.6036V5.55624C49.6036 3.51982 47.9351 1.86304 45.8842 1.86304H39.1629C38.831 1.86304 38.568 2.02684 38.3585 2.36416C38.2644 2.51519 38.1706 2.68045 38.0711 2.85557C37.5104 3.8425 36.7425 5.19391 35.0564 5.19391H28.6539C26.8129 5.19391 25.8025 3.55628 25.134 2.47261L25.0661 2.3627C24.8576 2.02684 24.5946 1.86304 24.2629 1.86304H17.5414H17.5412ZM11.3814 3.83545C11.8712 3.75748 12.3729 3.71569 12.8846 3.71569C13.3963 3.71569 13.8979 3.75761 14.3878 3.83559V3.35709C14.3878 2.53329 13.7134 1.86304 12.8846 1.86304C12.0557 1.86304 11.3814 2.53329 11.3814 3.35709V3.83545ZM4.99117 22.8402H20.7741C20.5794 22.4216 20.4787 21.9658 20.479 21.5047V13.1269C20.479 8.96481 17.0722 5.57859 12.8846 5.57859C8.69695 5.57859 5.28624 8.96468 5.28624 13.1269V21.5047C5.28624 21.9813 5.18007 22.4334 4.99117 22.8402ZM12.8846 26.3483C13.9152 26.3483 14.7829 25.6493 15.0403 24.7031H10.7251C10.9831 25.6493 11.8521 26.3483 12.8846 26.3483ZM17.5412 64.1371H29.2009C29.1251 63.89 29.0866 63.6332 29.0866 63.3749V58.5992H13.8217V60.4402C13.8217 62.4786 15.4903 64.1371 17.5412 64.1371ZM61.1257 63.3749V43.077H30.9609V63.3749C30.9611 63.577 31.042 63.7707 31.1858 63.9136C31.3296 64.0565 31.5245 64.1369 31.7279 64.1371H60.359C60.5623 64.1368 60.7572 64.0565 60.9009 63.9136C61.0447 63.7707 61.1254 63.577 61.1257 63.3749ZM58.385 46.0648V61.1494C58.385 61.3964 58.2863 61.6334 58.1105 61.808C57.9348 61.9827 57.6964 62.0809 57.4479 62.0809H34.6387C34.3901 62.0809 34.1518 61.9827 33.976 61.808C33.8003 61.6334 33.7015 61.3964 33.7015 61.1494V46.0648C33.7015 45.8178 33.8003 45.5809 33.976 45.4062C34.1518 45.2315 34.3901 45.1334 34.6387 45.1334H57.4479C57.6964 45.1334 57.9348 45.2315 58.1105 45.4062C58.2863 45.5809 58.385 45.8178 58.385 46.0648ZM56.5107 46.9963H52.6846V50.1616H56.5107V46.9963ZM41.2799 55.1897H45.1061V52.0244H41.2799V55.1897ZM39.4056 52.0244H35.5758V55.1897H39.4056V52.0244ZM45.1061 46.9962H41.2799V50.1615H45.1061V46.9962ZM46.9804 50.1615H50.8101V46.9962H46.9804V50.1615ZM41.2799 57.0526V60.218H45.1061V57.0526H41.2799ZM46.9804 60.218H50.8101V57.0526H46.9804V60.218ZM50.8101 55.1897V52.0244H46.9804V55.1897H50.8101ZM52.6844 55.1897H56.5106V52.0244H52.6844V55.1897ZM35.5757 46.9963V50.1616H39.4055V46.9963H35.5757ZM35.5757 60.218H39.4055V57.0526H35.5757V60.218ZM56.5106 60.218V57.0526H52.6844V60.218H56.5106Z" fill="url(#paint0_linear_508_5996)"/>
<defs>
<linearGradient id="paint0_linear_508_5996" x1="3.30771" y1="39.3414" x2="48.888" y2="39.3414" gradientUnits="userSpaceOnUse">
<stop stop-color="#374BA8"/>
<stop offset="1" stop-color="#2FB7F0"/>
</linearGradient>
</defs>
</svg>
