<svg width="72" height="73" viewBox="0 0 72 73" fill="none" xmlns="http://www.w3.org/2000/svg">
<rect y="0.5" width="72" height="72" rx="16" fill="white"/>
<path d="M54.207 23.5295L55.7659 25.0883L57.3247 23.5295V17.2942H54.207V23.5295Z" fill="#CCDDFF"/>
<path d="M16.7934 23.5295L15.2346 25.0883L13.6758 23.5295V17.2942H16.7934V23.5295Z" fill="#E6F2FF"/>
<path d="M49.5276 59.3825H61.9982V51.5884L60.855 50.2582L61.9982 48.4707V45.3531L61.0837 43.7943L61.9982 42.2354V39.1178L60.9382 37.559L61.9982 36.0001V32.8825L60.907 31.3237L61.9982 29.7648V23.5295H49.5276L47.9688 41.456L49.5276 59.3825Z" fill="#99BBFF"/>
<path d="M21.4706 59.3825L15.2353 60.9413L9 59.3825V51.5884L10.2471 50.0295L9 48.4707V45.3531L10.1431 43.7943L9 42.2354V39.1178L10.1431 37.559L9 36.0001V32.8825L10.2471 31.3237L9 29.7648V23.5295H21.4706L23.0294 41.456L21.4706 59.3825Z" fill="#CCDDFF"/>
<path d="M49.5276 62.5H61.9982V59.3823H49.5276L47.9688 60.9411L49.5276 62.5Z" fill="#32393F"/>
<path d="M21.4706 62.5H9V59.3823H21.4706L23.0294 60.9411L21.4706 62.5Z" fill="#474F54"/>
<path d="M21.4688 12.6177V59.3824L24.5864 60.9412L29.2629 59.3824L35.4982 46.9118L37.057 28.2059L35.4982 12.6177L28.4835 11.0588L21.4688 12.6177Z" fill="#E6F2FF"/>
<path d="M49.5276 12.6176L42.5129 11.0588L35.4982 12.6176V46.9118L41.7335 59.3824L46.4099 60.9412L49.5276 59.3824V12.6176ZM21.4688 9.5V12.6176H35.4982L37.057 11.0588L35.4982 9.5H21.4688Z" fill="#CCDDFF"/>
<path d="M49.5294 9.5H35.5V12.6176H49.5294V9.5Z" fill="#99BBFF"/>
<path d="M29.2629 62.5H21.4688V59.3823H29.2629L30.8217 60.9411L29.2629 62.5Z" fill="#CCDDFF"/>
<path d="M41.7344 62.5H49.5285V59.3823H41.7344V62.5Z" fill="#99BBFF"/>
<path d="M29.2656 46.9116H35.5009L37.0597 54.7057L35.5009 62.4999H29.2656V46.9116Z" fill="#66CCFF"/>
<path d="M41.7353 46.9117H35.5V62.4999H41.7353V46.9117ZM54.2059 32.8823H62V29.7646H54.2059V32.8823ZM54.2059 39.1176H62V35.9999H54.2059V39.1176ZM54.2059 45.3529H62V42.2352H54.2059V45.3529ZM54.2059 51.5882H62V48.4705H54.2059V51.5882Z" fill="#4596E6"/>
<path d="M16.7941 32.8824H9V29.7648H16.7941V32.8824ZM16.7941 39.1177H9V36.0001H16.7941V39.1177ZM16.7941 45.353H9V42.2354H16.7941V45.353ZM16.7941 51.5883H9V48.4706H16.7941V51.5883ZM33.9412 34.4412V37.5589H35.5L36.2794 36.0001L35.5 34.4412H33.9412ZM33.9412 28.2059V31.3236H35.5L36.2794 29.7648L35.5 28.2059H33.9412ZM33.9412 21.9706V25.0883H35.5L36.2794 23.5295L35.5 21.9706H33.9412ZM33.9412 15.7354V18.853H35.5L36.2794 17.2942L35.5 15.7354H33.9412Z" fill="#66CCFF"/>
<path d="M35.5002 18.853L36.2796 17.2942L35.5002 15.7354H33.9414V18.853H35.5002ZM35.5002 25.0883L36.2796 23.5295L35.5002 21.9706H33.9414V25.0883H35.5002ZM35.5002 31.3236L36.2796 29.7648L35.5002 28.2059H33.9414V31.3236H35.5002ZM35.5002 37.5589L36.2796 36.0001L35.5002 34.4412H33.9414V37.5589H35.5002Z" fill="#66CCFF"/>
<path d="M35.5 34.4412V37.5589H37.0588V34.4412H35.5ZM35.5 28.2059V31.3236H37.0588V28.2059H35.5ZM35.5 21.9706V25.0883H37.0588V21.9706H35.5ZM35.5 15.7354V18.853H37.0588V15.7354H35.5Z" fill="#4596E6"/>
<path d="M40.1758 15.7354H43.2934V18.853H40.1758V15.7354ZM40.1758 21.9706H43.2934V25.0883H40.1758V21.9706ZM40.1758 28.2059H43.2934V31.3236H40.1758V28.2059ZM40.1758 34.4412H43.2934V37.5589H40.1758V34.4412Z" fill="#4596E6"/>
<path d="M27.707 15.7354H30.8247V18.853H27.707V15.7354ZM27.707 21.9706H30.8247V25.0883H27.707V21.9706ZM27.707 28.2059H30.8247V31.3236H27.707V28.2059ZM27.707 34.4412H30.8247V37.5589H27.707V34.4412Z" fill="#66CCFF"/>
</svg>
