<svg width="22" height="23" viewBox="0 0 22 23" fill="none" xmlns="http://www.w3.org/2000/svg">
<g clip-path="url(#clip0_538_11758)">
<path fill-rule="evenodd" clip-rule="evenodd" d="M10.3041 0.687478L9.77331 0.742478C7.19793 0.999603 4.60331 2.32785 2.84881 4.2886C0.908684 6.45698 -0.0771912 9.14785 0.0135588 12.0147C0.171684 16.9661 3.57481 21.1585 8.40243 22.352C9.8238 22.6952 11.2992 22.7528 12.743 22.5215C14.1868 22.2902 15.5703 21.7746 16.8133 21.0045C19.2578 19.4814 21.0074 17.0604 21.6863 14.2615C21.9228 13.2976 21.9778 12.8067 21.9778 11.6669C21.9778 10.527 21.9228 10.0361 21.6863 9.07223C20.5973 4.6241 16.9343 1.3516 12.3762 0.754853C11.9857 0.703978 10.5653 0.658603 10.3041 0.687478ZM12.1741 2.81598C13.7186 3.0193 15.1834 3.62163 16.4242 4.5636C16.8766 4.90185 17.7662 5.79148 18.1044 6.24385C18.8758 7.27648 19.4464 8.4906 19.7049 9.65248C19.9992 10.9793 19.9992 12.3544 19.7049 13.6812C19.1357 16.2401 17.3331 18.5116 14.9433 19.6804C14.0818 20.102 13.1601 20.3877 12.2112 20.5274C11.6282 20.6167 10.3742 20.6167 9.79118 20.5274C7.11268 20.1204 4.85218 18.6587 3.42906 16.412C3.07901 15.8316 2.78702 15.2181 2.55731 14.5805C2.2298 13.6445 2.06923 12.6583 2.08293 11.6669C2.08293 10.2382 2.35931 9.01998 2.97118 7.76185C3.43868 6.8021 3.91443 6.13935 4.69406 5.35973C5.38363 4.64448 6.1976 4.06068 7.09618 3.63685C8.6706 2.86776 10.4375 2.58213 12.1741 2.81598ZM10.5969 6.5656C10.2889 6.66598 10.1143 6.84198 10.0291 7.13623C9.97956 7.30398 9.97406 7.6876 9.98231 10.0389C9.99331 12.7476 9.99331 12.749 10.0731 12.8989C10.1778 13.0908 10.346 13.2405 10.5488 13.3224C10.7303 13.3856 11.2721 13.3856 11.4536 13.3224C11.6564 13.2405 11.8245 13.0908 11.9293 12.8989C12.0091 12.749 12.0091 12.7476 12.0201 10.0389C12.0311 7.07985 12.0311 7.0771 11.8207 6.82823C11.6502 6.62473 11.4673 6.55735 11.0562 6.54635C10.9028 6.53771 10.749 6.54416 10.5969 6.5656ZM10.7069 15.1456C10.4318 15.244 10.203 15.4409 10.0648 15.6984C9.96554 15.945 9.95342 16.218 10.0304 16.4725C10.1048 16.6717 10.2369 16.8442 10.4098 16.9679C10.5827 17.0916 10.7886 17.1608 11.0012 17.1669C11.4178 17.1669 11.8427 16.8644 11.9719 16.4725C12.049 16.218 12.0368 15.945 11.9376 15.6984C11.8237 15.4975 11.6586 15.3305 11.4591 15.2144C11.2996 15.1319 10.8692 15.092 10.7069 15.1456Z" fill="#E81010"/>
</g>
<defs>
<clipPath id="clip0_538_11758">
<rect width="22" height="22" fill="white" transform="translate(0 0.666748)"/>
</clipPath>
</defs>
</svg>
