<svg width="237" height="237" viewBox="0 0 237 237" fill="none" xmlns="http://www.w3.org/2000/svg">
<path opacity="0.3" d="M62.6023 220.703C79.8316 230.093 99.2437 234.982 118.968 234.982H119.046C184.065 234.982 237 182.29 237 117.569C237 86.2171 224.76 56.6503 202.463 34.4558C180.167 12.2613 150.542 0 118.968 0C53.9487 0 1.0135 52.6925 1.0135 117.414C1.0135 138.134 6.47073 158.31 16.7615 176.159L0 237L62.6023 220.703ZM119.046 19.8664C145.24 19.8664 169.876 30.0324 188.353 48.502C206.829 66.9715 217.042 91.4941 217.042 117.569C217.042 171.425 172.994 215.193 118.968 215.193H118.89C101.271 215.193 84.0414 210.46 68.9951 201.613L65.4089 199.518L28.2997 209.218L38.2007 173.21L35.8618 169.485C26.0388 153.965 20.8934 135.961 20.8934 117.569C20.9714 63.6346 64.9411 19.8664 119.046 19.8664ZM121.462 165.993C128.479 169.02 134.014 170.805 138.302 172.201C145.396 174.452 151.789 174.141 156.857 173.365C162.548 172.512 174.32 166.304 176.736 159.397C179.231 152.568 179.231 146.67 178.452 145.428C177.75 144.187 175.723 143.488 172.838 142.014C169.876 140.539 155.375 133.477 152.725 132.469C149.996 131.46 148.047 130.994 146.098 133.943C144.149 136.892 138.458 143.488 136.743 145.428C135.028 147.368 133.312 147.601 130.35 146.127C127.387 144.652 117.876 141.548 106.65 131.537C97.9184 123.777 91.9934 114.154 90.2783 111.205C88.5631 108.256 90.1224 106.704 91.6036 105.23C92.9289 103.911 94.5661 101.815 96.0474 100.108C97.5286 98.4008 97.9964 97.1591 99.0099 95.2191C100.023 93.279 99.4776 91.5717 98.776 90.0972C98.0743 88.6228 92.1494 74.1886 89.6546 68.2908C87.2378 62.5481 84.8211 63.3242 83.028 63.2466C81.3128 63.169 79.3638 63.169 77.4148 63.169C75.4658 63.169 72.2694 63.8674 69.5408 66.8163C66.8122 69.7652 59.25 76.8271 59.25 91.2613C59.25 105.695 69.7747 119.664 71.2559 121.604C72.5813 123.699 91.8375 153.344 121.462 165.993Z" fill="#0FE7CF"/>
</svg>
