<svg width="248" height="63" viewBox="0 0 248 63" fill="none" xmlns="http://www.w3.org/2000/svg">
<mask id="path-1-outside-1_1309_28041" maskUnits="userSpaceOnUse" x="-3" y="-3" width="254" height="69" fill="black">
<rect fill="white" x="-3" y="-3" width="254" height="69"/>
<path d="M25.3875 48.344L27.0515 39.384C31.1902 39.384 34.7955 39.2773 37.8675 39.064C40.9395 38.808 43.4782 38.4453 45.4835 37.976C47.5315 37.464 49.0462 36.8027 50.0275 35.992C51.0515 35.1813 51.5635 34.2 51.5635 33.048C51.5635 31.512 51.3075 29.6773 50.7955 27.544C50.2835 25.368 49.6222 23.1707 48.8115 20.952L57.1955 18.52C57.7502 19.9707 58.2835 21.5707 58.7955 23.32C59.3075 25.0267 59.7128 26.7547 60.0115 28.504C60.3528 30.2107 60.5235 31.8107 60.5235 33.304C60.5235 35.9493 59.9475 38.232 58.7955 40.152C57.6435 42.0293 55.7235 43.5867 53.0355 44.824C50.3902 46.0187 46.8062 46.8933 42.2835 47.448C37.7608 48.0453 32.1288 48.344 25.3875 48.344ZM25.3235 48.344C20.7155 48.344 16.8115 47.9813 13.6115 47.256C10.4542 46.5733 7.87283 45.592 5.8675 44.312C3.90483 42.9893 2.4755 41.4533 1.5795 39.704C0.6835 37.9547 0.2355 36.0347 0.2355 33.944C0.2355 32.5787 0.342167 31.2133 0.5555 29.848C0.8115 28.44 1.11017 27.0747 1.4515 25.752C1.8355 24.4293 2.17683 23.2347 2.4755 22.168L10.4755 24.024C10.3048 24.792 10.1128 25.624 9.8995 26.52C9.68617 27.416 9.5155 28.2907 9.3875 29.144C9.2595 29.9547 9.1955 30.7013 9.1955 31.384C9.1955 32.9627 9.75017 34.3707 10.8595 35.608C12.0115 36.8027 13.8888 37.7413 16.4915 38.424C19.0942 39.064 22.5928 39.384 26.9875 39.384L28.2675 46.296L25.3235 48.344ZM35.8835 19.096C34.6462 19.096 33.5795 18.6693 32.6835 17.816C31.8302 16.92 31.4035 15.8747 31.4035 14.68C31.4035 13.4427 31.8302 12.376 32.6835 11.48C33.5795 10.584 34.6462 10.136 35.8835 10.136C37.0782 10.136 38.1022 10.584 38.9555 11.48C39.8088 12.376 40.2355 13.4427 40.2355 14.68C40.2355 15.8747 39.8088 16.92 38.9555 17.816C38.1022 18.6693 37.0782 19.096 35.8835 19.096ZM24.8115 19.032C23.5742 19.032 22.5075 18.6053 21.6115 17.752C20.7582 16.856 20.3315 15.8107 20.3315 14.616C20.3315 13.3787 20.7582 12.312 21.6115 11.416C22.5075 10.52 23.5742 10.072 24.8115 10.072C26.0062 10.072 27.0302 10.52 27.8835 11.416C28.7368 12.312 29.1635 13.3787 29.1635 14.616C29.1635 15.8107 28.7368 16.856 27.8835 17.752C27.0302 18.6053 26.0062 19.032 24.8115 19.032ZM68.87 47L67.526 0.151997H76.486L77.83 47H68.87ZM80.649 61.784L77.385 53.848C79.6463 53.08 81.7157 52.184 83.593 51.16C85.513 50.136 87.177 49.0053 88.585 47.768C89.993 46.5307 91.081 45.1867 91.849 43.736C92.617 42.2427 93.001 40.6427 93.001 38.936C93.001 37.144 92.5957 35.1813 91.785 33.048C90.9743 30.9147 89.993 28.7387 88.841 26.52L97.225 22.488C97.993 23.8107 98.6543 25.24 99.209 26.776C99.8063 28.2693 100.297 29.6133 100.681 30.808C101.065 32.0027 101.321 32.8133 101.449 33.24C102.046 35.288 102.857 36.6533 103.881 37.336C104.948 38.0187 106.654 38.36 109.001 38.36C110.622 38.36 111.774 38.7867 112.457 39.64C113.182 40.4507 113.545 41.4747 113.545 42.712C113.545 44.0347 113.097 45.144 112.201 46.04C111.305 46.8933 110.025 47.32 108.361 47.32C106.612 47.32 105.076 47.064 103.753 46.552C102.43 46.04 101.364 45.2933 100.553 44.312C99.785 43.3307 99.2943 42.1787 99.081 40.856L101.449 42.2C101.193 44.4613 100.446 46.5947 99.209 48.6C98.0143 50.648 96.457 52.5253 94.537 54.232C92.617 55.9387 90.4623 57.432 88.073 58.712C85.6837 59.992 83.209 61.016 80.649 61.784ZM93.705 15.96C92.3823 15.96 91.2517 15.512 90.313 14.616C89.417 13.72 88.969 12.6107 88.969 11.288C88.969 9.96533 89.417 8.83466 90.313 7.896C91.2517 6.95733 92.3823 6.488 93.705 6.488C94.985 6.488 96.073 6.95733 96.969 7.896C97.9077 8.83466 98.377 9.96533 98.377 11.288C98.377 12.6107 97.9077 13.72 96.969 14.616C96.073 15.512 94.985 15.96 93.705 15.96ZM108.438 47.32L109.078 38.36C110.614 38.36 111.936 38.2107 113.046 37.912C114.155 37.6133 115.094 37.016 115.862 36.12C116.63 35.1813 117.27 33.816 117.782 32.024C118.336 30.232 118.827 27.8427 119.254 24.856L127.638 26.264C127.552 26.904 127.424 27.6507 127.253 28.504C127.126 29.3573 126.998 30.232 126.87 31.128C126.784 31.9813 126.742 32.792 126.742 33.56C126.742 34.328 126.891 35.0107 127.19 35.608C127.488 36.2053 127.958 36.7173 128.598 37.144C129.28 37.528 130.155 37.8267 131.222 38.04C132.331 38.2533 133.675 38.36 135.254 38.36C136.875 38.36 138.027 38.7867 138.71 39.64C139.392 40.4507 139.734 41.4747 139.734 42.712C139.734 44.0347 139.286 45.144 138.39 46.04C137.536 46.8933 136.278 47.32 134.614 47.32C132.694 47.32 130.944 47.1707 129.366 46.872C127.83 46.5733 126.486 46.0827 125.333 45.4C124.224 44.6747 123.307 43.736 122.582 42.584C121.899 41.3893 121.472 39.9387 121.302 38.232H124.374C123.606 40.28 122.624 41.9227 121.43 43.16C120.278 44.3547 118.976 45.2507 117.526 45.848C116.075 46.4453 114.56 46.8293 112.982 47C111.446 47.2133 109.931 47.32 108.438 47.32ZM126.294 62.168C125.056 62.168 123.99 61.72 123.094 60.824C122.24 59.9707 121.814 58.9467 121.814 57.752C121.814 56.5147 122.24 55.448 123.094 54.552C123.99 53.656 125.056 53.208 126.294 53.208C127.488 53.208 128.512 53.656 129.366 54.552C130.219 55.448 130.646 56.5147 130.646 57.752C130.646 58.9467 130.219 59.9707 129.366 60.824C128.512 61.72 127.488 62.168 126.294 62.168ZM115.222 62.168C113.984 62.168 112.918 61.72 112.022 60.824C111.168 59.9707 110.742 58.9467 110.742 57.752C110.742 56.5147 111.168 55.448 112.022 54.552C112.918 53.656 113.984 53.208 115.222 53.208C116.416 53.208 117.44 53.656 118.294 54.552C119.147 55.448 119.574 56.5147 119.574 57.752C119.574 58.9467 119.147 59.9707 118.294 60.824C117.44 61.72 116.416 62.168 115.222 62.168ZM134.625 47.32L135.265 38.36C136.332 38.36 137.142 38.1467 137.697 37.72C138.252 37.2933 138.806 36.5467 139.361 35.48C139.916 34.4133 140.684 32.9627 141.665 31.128C142.732 29.08 143.841 27.3733 144.993 26.008C146.145 24.6 147.297 23.4907 148.449 22.68C149.644 21.8267 150.817 21.2293 151.969 20.888C153.164 20.504 154.337 20.312 155.489 20.312C157.068 20.312 158.54 20.6533 159.905 21.336C161.313 21.976 162.657 23.1067 163.937 24.728C165.217 26.3067 166.433 28.4827 167.585 31.256C168.396 33.176 169.206 34.648 170.017 35.672C170.828 36.696 171.66 37.4 172.513 37.784C173.409 38.168 174.305 38.36 175.201 38.36C176.822 38.36 177.974 38.7867 178.657 39.64C179.34 40.4507 179.681 41.4747 179.681 42.712C179.681 44.0347 179.233 45.144 178.337 46.04C177.441 46.8933 176.182 47.32 174.561 47.32C172.47 47.32 170.572 46.9787 168.865 46.296C167.158 45.6133 165.814 44.5893 164.833 43.224L166.689 41.816C166.305 42.712 165.729 43.6507 164.961 44.632C164.236 45.6133 163.276 46.4453 162.081 47.128C160.929 47.8107 159.542 48.152 157.921 48.152C156.854 48.152 155.596 47.9387 154.145 47.512C152.737 47.128 151.265 46.4667 149.729 45.528C148.236 44.5467 146.849 43.224 145.569 41.56C144.758 43.0533 143.862 44.2267 142.881 45.08C141.9 45.8907 140.748 46.4667 139.425 46.808C138.102 47.1493 136.502 47.32 134.625 47.32ZM149.281 34.008C149.708 34.648 150.22 35.288 150.817 35.928C151.414 36.568 152.076 37.144 152.801 37.656C153.526 38.1253 154.294 38.5093 155.105 38.808C155.958 39.1067 156.79 39.256 157.601 39.256C158.454 39.256 159.158 38.936 159.713 38.296C160.268 37.6133 160.289 36.6107 159.777 35.288C159.564 34.7333 159.265 34.1147 158.881 33.432C158.54 32.7067 158.134 32.024 157.665 31.384C157.238 30.744 156.748 30.2107 156.193 29.784C155.681 29.3573 155.148 29.144 154.593 29.144C154.038 29.144 153.462 29.3147 152.865 29.656C152.268 29.9973 151.67 30.5307 151.073 31.256C150.476 31.9387 149.878 32.856 149.281 34.008ZM174.562 47.32L175.203 38.36C176.269 38.36 177.08 38.1467 177.635 37.72C178.189 37.2933 178.744 36.5467 179.299 35.48C179.853 34.4133 180.621 32.9627 181.603 31.128C182.669 29.08 183.779 27.3733 184.931 26.008C186.083 24.6 187.235 23.4907 188.387 22.68C189.581 21.8267 190.755 21.2293 191.907 20.888C193.101 20.504 194.275 20.312 195.427 20.312C197.005 20.312 198.477 20.6533 199.843 21.336C201.251 21.976 202.595 23.1067 203.875 24.728C205.155 26.3067 206.371 28.4827 207.523 31.256C208.333 33.176 209.144 34.648 209.955 35.672C210.765 36.696 211.597 37.4 212.451 37.784C213.347 38.168 214.243 38.36 215.139 38.36C216.76 38.36 217.912 38.7867 218.595 39.64C219.277 40.4507 219.619 41.4747 219.619 42.712C219.619 44.0347 219.171 45.144 218.275 46.04C217.379 46.8933 216.12 47.32 214.499 47.32C212.408 47.32 210.509 46.9787 208.803 46.296C207.096 45.6133 205.752 44.5893 204.771 43.224L206.627 41.816C206.243 42.712 205.667 43.6507 204.899 44.632C204.173 45.6133 203.213 46.4453 202.019 47.128C200.867 47.8107 199.48 48.152 197.859 48.152C196.792 48.152 195.533 47.9387 194.083 47.512C192.675 47.128 191.203 46.4667 189.667 45.528C188.173 44.5467 186.787 43.224 185.507 41.56C184.696 43.0533 183.8 44.2267 182.819 45.08C181.837 45.8907 180.685 46.4667 179.363 46.808C178.04 47.1493 176.44 47.32 174.562 47.32ZM189.219 34.008C189.645 34.648 190.157 35.288 190.755 35.928C191.352 36.568 192.013 37.144 192.739 37.656C193.464 38.1253 194.232 38.5093 195.043 38.808C195.896 39.1067 196.728 39.256 197.539 39.256C198.392 39.256 199.096 38.936 199.651 38.296C200.205 37.6133 200.227 36.6107 199.715 35.288C199.501 34.7333 199.203 34.1147 198.819 33.432C198.477 32.7067 198.072 32.024 197.603 31.384C197.176 30.744 196.685 30.2107 196.131 29.784C195.619 29.3573 195.085 29.144 194.531 29.144C193.976 29.144 193.4 29.3147 192.803 29.656C192.205 29.9973 191.608 30.5307 191.01 31.256C190.413 31.9387 189.816 32.856 189.219 34.008ZM214.5 47.32L215.14 38.36C217.103 38.36 218.511 38.168 219.364 37.784C220.217 37.3573 220.729 36.5893 220.9 35.48C221.071 34.328 221.113 32.664 221.028 30.488L219.876 0.151997H228.9L230.18 31.128C230.265 33.6027 230.159 35.8427 229.86 37.848C229.604 39.8107 228.943 41.496 227.876 42.904C226.852 44.312 225.252 45.4 223.076 46.168C220.943 46.936 218.084 47.32 214.5 47.32ZM238.62 47L237.276 0.151997H246.236L247.58 47H238.62Z"/>
</mask>
<path d="M25.3875 48.344L22.4379 47.7962L21.7791 51.344H25.3875V48.344ZM27.0515 39.384V36.384H24.5574L24.1019 38.8362L27.0515 39.384ZM37.8675 39.064L38.0753 42.0568L38.096 42.0554L38.1166 42.0536L37.8675 39.064ZM45.4835 37.976L46.1672 40.8971L46.1892 40.8919L46.2111 40.8864L45.4835 37.976ZM50.0275 35.992L48.1654 33.6399L48.1409 33.6592L48.1169 33.6791L50.0275 35.992ZM50.7955 27.544L47.8752 28.2311L47.8783 28.2441L50.7955 27.544ZM48.8115 20.952L47.9757 18.0708L44.8916 18.9654L45.9937 21.9816L48.8115 20.952ZM57.1955 18.52L59.9977 17.4486L59.0116 14.8695L56.3597 15.6388L57.1955 18.52ZM58.7955 23.32L55.9163 24.1627L55.9191 24.1724L55.922 24.182L58.7955 23.32ZM60.0115 28.504L57.0543 29.0089L57.0614 29.0507L57.0698 29.0924L60.0115 28.504ZM58.7955 40.152L61.3525 41.721L61.3603 41.7083L61.368 41.6955L58.7955 40.152ZM53.0355 44.824L54.2703 47.5581L54.2801 47.5537L54.2899 47.5491L53.0355 44.824ZM42.2835 47.448L41.9183 44.4703L41.9045 44.472L41.8907 44.4738L42.2835 47.448ZM25.3235 48.344V51.344H26.2643L27.0367 50.8067L25.3235 48.344ZM13.6115 47.256L14.2747 44.3302L14.2601 44.3269L14.2455 44.3238L13.6115 47.256ZM5.8675 44.312L4.19094 46.7998L4.22191 46.8207L4.25339 46.8408L5.8675 44.312ZM1.5795 39.704L4.24963 38.3364H4.24963L1.5795 39.704ZM0.5555 29.848L-2.39611 29.3113L-2.40278 29.348L-2.40854 29.3849L0.5555 29.848ZM1.4515 25.752L-1.42954 24.9156L-1.44209 24.9588L-1.45333 25.0024L1.4515 25.752ZM2.4755 22.168L3.15349 19.2456L0.35986 18.5975L-0.413392 21.3591L2.4755 22.168ZM10.4755 24.024L13.4041 24.6748L14.0488 21.7733L11.1535 21.1016L10.4755 24.024ZM9.8995 26.52L12.8179 27.2149L12.8179 27.2149L9.8995 26.52ZM9.3875 29.144L12.3508 29.6119L12.3526 29.6005L12.3543 29.589L9.3875 29.144ZM10.8595 35.608L8.62579 37.6106L8.66216 37.6512L8.69997 37.6904L10.8595 35.608ZM16.4915 38.424L15.7304 41.3258L15.7527 41.3317L15.7751 41.3372L16.4915 38.424ZM26.9875 39.384L29.9373 38.8377L29.483 36.384H26.9875V39.384ZM28.2675 46.296L29.9807 48.7587L31.5698 47.6532L31.2173 45.7497L28.2675 46.296ZM32.6835 17.816L30.5111 19.885L30.5616 19.9379L30.6145 19.9884L32.6835 17.816ZM32.6835 11.48L30.5622 9.35868L30.5363 9.38455L30.5111 9.41103L32.6835 11.48ZM38.9555 11.48L36.7831 13.549L36.7831 13.549L38.9555 11.48ZM38.9555 17.816L41.0768 19.9373L41.1027 19.9114L41.1279 19.885L38.9555 17.816ZM21.6115 17.752L19.4391 19.821L19.4895 19.874L19.5425 19.9244L21.6115 17.752ZM21.6115 11.416L19.4902 9.29467L19.4643 9.32054L19.4391 9.34703L21.6115 11.416ZM27.8835 11.416L30.0559 9.34703L27.8835 11.416ZM27.8835 17.752L30.0048 19.8733L30.0307 19.8475L30.0559 19.821L27.8835 17.752ZM28.3371 48.8918L30.0011 39.9318L24.1019 38.8362L22.4379 47.7962L28.3371 48.8918ZM27.0515 42.384C31.2376 42.384 34.9153 42.2762 38.0753 42.0568L37.6597 36.0712C34.6757 36.2784 31.1427 36.384 27.0515 36.384V42.384ZM38.1166 42.0536C41.2707 41.7908 43.9674 41.4119 46.1672 40.8971L44.7998 35.0549C42.9889 35.4788 40.6083 35.8252 37.6184 36.0744L38.1166 42.0536ZM46.2111 40.8864C48.4426 40.3285 50.4568 39.5286 51.9381 38.3049L48.1169 33.6791C47.6356 34.0767 46.6204 34.5995 44.7559 35.0656L46.2111 40.8864ZM51.8896 38.3441C53.5235 37.0507 54.5635 35.2472 54.5635 33.048H48.5635C48.5635 33.1528 48.5795 33.312 48.1654 33.6399L51.8896 38.3441ZM54.5635 33.048C54.5635 31.1995 54.2584 29.1176 53.7127 26.8439L47.8783 28.2441C48.3567 30.2371 48.5635 31.8245 48.5635 33.048H54.5635ZM53.7158 26.8569C53.1749 24.5585 52.4786 22.2468 51.6293 19.9224L45.9937 21.9816C46.7657 24.0945 47.3921 26.1775 47.8752 28.2311L53.7158 26.8569ZM49.6473 23.8332L58.0313 21.4012L56.3597 15.6388L47.9757 18.0708L49.6473 23.8332ZM54.3933 19.5914C54.9149 20.9554 55.4231 22.4778 55.9163 24.1627L61.6747 22.4773C61.1439 20.6636 60.5855 18.986 59.9977 17.4486L54.3933 19.5914ZM55.922 24.182C56.399 25.772 56.7763 27.3807 57.0543 29.0089L62.9687 27.9991C62.6494 26.1286 62.216 24.2814 61.669 22.458L55.922 24.182ZM57.0698 29.0924C57.3785 30.6363 57.5235 32.0375 57.5235 33.304H63.5235C63.5235 31.5839 63.3271 29.7851 62.9532 27.9156L57.0698 29.0924ZM57.5235 33.304C57.5235 35.5052 57.0481 37.2333 56.223 38.6085L61.368 41.6955C62.8469 39.2307 63.5235 36.3935 63.5235 33.304H57.5235ZM56.2385 38.5829C55.4868 39.808 54.1111 41.0263 51.7811 42.0989L54.2899 47.5491C57.3359 46.147 59.8002 44.2507 61.3525 41.721L56.2385 38.5829ZM51.8007 42.0899C49.5419 43.11 46.291 43.934 41.9183 44.4703L42.6487 50.4257C47.3213 49.8526 51.2384 48.9273 54.2703 47.5581L51.8007 42.0899ZM41.8907 44.4738C37.5438 45.048 32.0532 45.344 25.3875 45.344V51.344C32.2045 51.344 37.9779 51.0427 42.6763 50.4222L41.8907 44.4738ZM25.3235 45.344C20.8565 45.344 17.1894 44.9909 14.2747 44.3302L12.9483 50.1818C16.4336 50.9718 20.5745 51.344 25.3235 51.344V45.344ZM14.2455 44.3238C11.3199 43.6912 9.10058 42.8166 7.48161 41.7832L4.25339 46.8408C6.64509 48.3674 9.58846 49.4555 12.9775 50.1882L14.2455 44.3238ZM7.54406 41.8242C5.9164 40.7273 4.87158 39.5507 4.24963 38.3364L-1.09063 41.0716C0.079417 43.356 1.89326 45.2514 4.19094 46.7998L7.54406 41.8242ZM4.24963 38.3364C3.58419 37.0372 3.2355 35.5902 3.2355 33.944H-2.7645C-2.7645 36.4791 -2.21719 38.8722 -1.09063 41.0716L4.24963 38.3364ZM3.2355 33.944C3.2355 32.7356 3.32985 31.5251 3.51954 30.3111L-2.40854 29.3849C-2.64552 30.9016 -2.7645 32.4217 -2.7645 33.944H3.2355ZM3.50711 30.3847C3.75072 29.0448 4.034 27.7507 4.35633 26.5016L-1.45333 25.0024C-1.81367 26.3987 -2.12772 27.8352 -2.39611 29.3113L3.50711 30.3847ZM4.33254 26.5884C4.71859 25.2587 5.06262 24.0546 5.36439 22.9769L-0.413392 21.3591C-0.708956 22.4147 -1.04759 23.6 -1.42954 24.9156L4.33254 26.5884ZM1.79751 25.0904L9.79751 26.9464L11.1535 21.1016L3.15349 19.2456L1.79751 25.0904ZM7.54694 23.3732C7.38004 24.1243 7.19149 24.9414 6.98108 25.8251L12.8179 27.2149C13.0342 26.3066 13.2296 25.4597 13.4041 24.6748L7.54694 23.3732ZM6.98108 25.8251C6.7494 26.7982 6.56209 27.7563 6.42069 28.699L12.3543 29.589C12.4689 28.825 12.6229 28.0338 12.8179 27.2149L6.98108 25.8251ZM6.42421 28.6761C6.27649 29.6117 6.1955 30.5171 6.1955 31.384H12.1955C12.1955 30.8856 12.2425 30.2977 12.3508 29.6119L6.42421 28.6761ZM6.1955 31.384C6.1955 33.7433 7.05147 35.8547 8.62579 37.6106L13.0932 33.6054C12.4489 32.8867 12.1955 32.182 12.1955 31.384H6.1955ZM8.69997 37.6904C10.4028 39.4563 12.8934 40.5817 15.7304 41.3258L17.2526 35.5222C14.8843 34.9009 13.6202 34.149 13.019 33.5256L8.69997 37.6904ZM15.7751 41.3372C18.7131 42.0597 22.484 42.384 26.9875 42.384V36.384C22.7017 36.384 19.4752 36.0683 17.2079 35.5108L15.7751 41.3372ZM24.0377 39.9303L25.3177 46.8423L31.2173 45.7497L29.9373 38.8377L24.0377 39.9303ZM26.5543 43.8333L23.6103 45.8813L27.0367 50.8067L29.9807 48.7587L26.5543 43.8333ZM35.8835 16.096C35.4165 16.096 35.0906 15.9657 34.7525 15.6436L30.6145 19.9884C32.0684 21.373 33.8758 22.096 35.8835 22.096V16.096ZM34.8559 15.747C34.5128 15.3868 34.4035 15.0744 34.4035 14.68H28.4035C28.4035 16.675 29.1475 18.4532 30.5111 19.885L34.8559 15.747ZM34.4035 14.68C34.4035 14.213 34.5338 13.8871 34.8559 13.549L30.5111 9.41103C29.1265 10.8649 28.4035 12.6723 28.4035 14.68H34.4035ZM34.8048 13.6013C35.1534 13.2527 35.463 13.136 35.8835 13.136V7.136C33.8293 7.136 32.0056 7.91525 30.5622 9.35868L34.8048 13.6013ZM35.8835 13.136C36.2247 13.136 36.4732 13.2236 36.7831 13.549L41.1279 9.41104C39.7311 7.9444 37.9316 7.136 35.8835 7.136V13.136ZM36.7831 13.549C37.1052 13.8871 37.2355 14.213 37.2355 14.68H43.2355C43.2355 12.6723 42.5125 10.8649 41.1279 9.41103L36.7831 13.549ZM37.2355 14.68C37.2355 15.0744 37.1262 15.3868 36.7831 15.747L41.1279 19.885C42.4915 18.4532 43.2355 16.675 43.2355 14.68H37.2355ZM36.8342 15.6947C36.537 15.9918 36.2735 16.096 35.8835 16.096V22.096C37.8829 22.096 39.6673 21.3468 41.0768 19.9373L36.8342 15.6947ZM24.8115 16.032C24.3445 16.032 24.0186 15.9017 23.6805 15.5796L19.5425 19.9244C20.9964 21.309 22.8038 22.032 24.8115 22.032V16.032ZM23.7839 15.683C23.4408 15.3228 23.3315 15.0104 23.3315 14.616H17.3315C17.3315 16.611 18.0755 18.3892 19.4391 19.821L23.7839 15.683ZM23.3315 14.616C23.3315 14.149 23.4618 13.8231 23.7839 13.485L19.4391 9.34703C18.0545 10.8009 17.3315 12.6083 17.3315 14.616H23.3315ZM23.7328 13.5373C24.0814 13.1887 24.391 13.072 24.8115 13.072V7.072C22.7573 7.072 20.9336 7.85125 19.4902 9.29467L23.7328 13.5373ZM24.8115 13.072C25.1527 13.072 25.4012 13.1596 25.7111 13.485L30.0559 9.34703C28.6591 7.88039 26.8596 7.072 24.8115 7.072V13.072ZM25.7111 13.485C26.0332 13.8231 26.1635 14.149 26.1635 14.616H32.1635C32.1635 12.6083 31.4405 10.8009 30.0559 9.34703L25.7111 13.485ZM26.1635 14.616C26.1635 15.0104 26.0542 15.3228 25.7111 15.683L30.0559 19.821C31.4195 18.3892 32.1635 16.611 32.1635 14.616H26.1635ZM25.7622 15.6307C25.465 15.9278 25.2015 16.032 24.8115 16.032V22.032C26.8109 22.032 28.5953 21.2828 30.0048 19.8733L25.7622 15.6307ZM68.87 47L65.8712 47.086L65.9548 50H68.87V47ZM67.526 0.151997V-2.848H64.4387L64.5272 0.238028L67.526 0.151997ZM76.486 0.151997L79.4848 0.0659657L79.4012 -2.848H76.486V0.151997ZM77.83 47V50H80.9173L80.8288 46.914L77.83 47ZM71.8688 46.914L70.5248 0.0659657L64.5272 0.238028L65.8712 47.086L71.8688 46.914ZM67.526 3.152H76.486V-2.848H67.526V3.152ZM73.4872 0.238028L74.8312 47.086L80.8288 46.914L79.4848 0.0659657L73.4872 0.238028ZM77.83 44H68.87V50H77.83V44ZM80.649 61.784L77.8745 62.9251L78.9082 65.4383L81.511 64.6575L80.649 61.784ZM77.385 53.848L76.4202 51.0074L73.3954 52.0347L74.6105 54.9891L77.385 53.848ZM83.593 51.16L82.1812 48.5129L82.1688 48.5196L82.1564 48.5263L83.593 51.16ZM88.585 47.768L86.6047 45.5145H86.6047L88.585 47.768ZM91.849 43.736L94.5004 45.1397L94.5087 45.1239L94.5169 45.108L91.849 43.736ZM91.785 33.048L94.5893 31.9823L91.785 33.048ZM88.841 26.52L87.5408 23.8164L84.753 25.1571L86.1785 27.9024L88.841 26.52ZM97.225 22.488L99.8194 20.9816L98.4258 18.5816L95.9248 19.7844L97.225 22.488ZM99.209 26.776L96.3873 27.7949L96.4046 27.8429L96.4236 27.8902L99.209 26.776ZM100.681 30.808L103.537 29.89V29.89L100.681 30.808ZM101.449 33.24L104.329 32.4L104.326 32.389L104.322 32.378L101.449 33.24ZM103.881 37.336L102.217 39.8322L102.24 39.8477L102.264 39.8628L103.881 37.336ZM112.457 39.64L110.114 41.5141L110.166 41.5787L110.221 41.6404L112.457 39.64ZM112.201 46.04L114.27 48.2124L114.296 48.1872L114.322 48.1613L112.201 46.04ZM103.753 46.552L102.67 49.3497L103.753 46.552ZM100.553 44.312L98.1905 46.1609L98.2149 46.1921L98.2401 46.2226L100.553 44.312ZM99.081 40.856L100.562 38.2469L95.1236 35.1604L96.1193 41.3337L99.081 40.856ZM101.449 42.2L104.43 42.5375L104.653 40.5689L102.93 39.5909L101.449 42.2ZM99.209 48.6L96.6559 47.0247L96.6364 47.0563L96.6177 47.0884L99.209 48.6ZM94.537 54.232L92.5439 51.9898L94.537 54.232ZM88.073 58.712L86.6563 56.0676L88.073 58.712ZM90.313 14.616L88.1917 16.7373L88.2163 16.762L88.2416 16.7861L90.313 14.616ZM90.313 7.896L88.1917 5.77468L88.167 5.79934L88.1429 5.82457L90.313 7.896ZM96.969 7.896L94.7989 9.96743L94.823 9.99266L94.8477 10.0173L96.969 7.896ZM96.969 14.616L94.8976 12.4459L94.8723 12.47L94.8477 12.4947L96.969 14.616ZM83.4235 60.6429L80.1595 52.7069L74.6105 54.9891L77.8745 62.9251L83.4235 60.6429ZM78.3497 56.6886C80.7554 55.8716 82.9849 54.909 85.0296 53.7937L82.1564 48.5263C80.4464 49.459 78.5372 50.2884 76.4202 51.0074L78.3497 56.6886ZM85.0048 53.8071C87.097 52.6912 88.9585 51.4336 90.5653 50.0215L86.6047 45.5145C85.3955 46.5771 83.929 47.5808 82.1812 48.5129L85.0048 53.8071ZM90.5653 50.0215C92.2083 48.5777 93.5397 46.9542 94.5004 45.1397L89.1976 42.3323C88.6223 43.4191 87.7777 44.4837 86.6047 45.5145L90.5653 50.0215ZM94.5169 45.108C95.5068 43.1831 96.001 41.1118 96.001 38.936H90.001C90.001 40.1735 89.7272 41.3022 89.1811 42.364L94.5169 45.108ZM96.001 38.936C96.001 36.6954 95.4956 34.3671 94.5893 31.9823L88.9807 34.1137C89.6958 35.9956 90.001 37.5926 90.001 38.936H96.001ZM94.5893 31.9823C93.7339 29.7311 92.7039 27.4494 91.5035 25.1376L86.1785 27.9024C87.2821 30.0279 88.2148 32.0982 88.9807 34.1137L94.5893 31.9823ZM90.1412 29.2236L98.5252 25.1916L95.9248 19.7844L87.5408 23.8164L90.1412 29.2236ZM94.6306 23.9944C95.3026 25.1516 95.8896 26.4166 96.3873 27.7949L102.031 25.7571C101.419 24.0634 100.683 22.4697 99.8194 20.9816L94.6306 23.9944ZM96.4236 27.8902C97.0019 29.3359 97.4671 30.6129 97.8249 31.726L103.537 29.89C103.127 28.6138 102.611 27.2028 101.994 25.6618L96.4236 27.8902ZM97.8249 31.726C98.21 32.924 98.4572 33.7077 98.5755 34.102L104.322 32.378C104.185 31.919 103.92 31.0813 103.537 29.89L97.8249 31.726ZM98.569 34.08C99.2325 36.3549 100.307 38.5587 102.217 39.8322L105.545 34.8398C105.407 34.748 104.86 34.2211 104.329 32.4L98.569 34.08ZM102.264 39.8628C104.074 41.021 106.499 41.36 109.001 41.36V35.36C106.81 35.36 105.822 35.0163 105.498 34.8092L102.264 39.8628ZM109.001 41.36C109.563 41.36 109.884 41.4359 110.039 41.4932C110.169 41.5415 110.154 41.5638 110.114 41.5141L114.8 37.7659C113.314 35.9094 111.08 35.36 109.001 35.36V41.36ZM110.221 41.6404C110.387 41.8251 110.545 42.1042 110.545 42.712H116.545C116.545 40.8451 115.978 39.0762 114.693 37.6396L110.221 41.6404ZM110.545 42.712C110.545 43.2779 110.386 43.6122 110.08 43.9187L114.322 48.1613C115.808 46.6758 116.545 44.7915 116.545 42.712H110.545ZM110.132 43.8676C109.964 44.028 109.526 44.32 108.361 44.32V50.32C110.524 50.32 112.646 49.7587 114.27 48.2124L110.132 43.8676ZM108.361 44.32C106.898 44.32 105.743 44.1054 104.836 43.7543L102.67 49.3497C104.408 50.0226 106.325 50.32 108.361 50.32V44.32ZM104.836 43.7543C103.937 43.4061 103.313 42.9428 102.866 42.4014L98.2401 46.2226C99.4142 47.6439 100.924 48.6739 102.67 49.3497L104.836 43.7543ZM102.916 42.4631C102.483 41.9106 102.182 41.2393 102.043 40.3783L96.1193 41.3337C96.4071 43.118 97.0868 44.7507 98.1905 46.1609L102.916 42.4631ZM97.6002 43.4651L99.9682 44.8091L102.93 39.5909L100.562 38.2469L97.6002 43.4651ZM98.468 41.8625C98.2635 43.6691 97.6696 45.3817 96.6559 47.0247L101.762 50.1753C103.223 47.8076 104.122 45.2536 104.43 42.5375L98.468 41.8625ZM96.6177 47.0884C95.5954 48.8409 94.2469 50.476 92.5439 51.9898L96.5301 56.4742C98.6671 54.5747 100.433 52.4551 101.8 50.1116L96.6177 47.0884ZM92.5439 51.9898C90.809 53.5319 88.8498 54.8925 86.6563 56.0676L89.4897 61.3564C92.0748 59.9715 94.425 58.3455 96.5301 56.4742L92.5439 51.9898ZM86.6563 56.0676C84.4412 57.2542 82.1522 58.201 79.787 58.9105L81.511 64.6575C84.2658 63.831 86.9261 62.7298 89.4897 61.3564L86.6563 56.0676ZM93.705 12.96C93.1373 12.96 92.7532 12.7979 92.3844 12.4459L88.2416 16.7861C89.7502 18.2261 91.6274 18.96 93.705 18.96V12.96ZM92.4343 12.4947C92.1278 12.1882 91.969 11.8539 91.969 11.288H85.969C85.969 13.3675 86.7062 15.2518 88.1917 16.7373L92.4343 12.4947ZM91.969 11.288C91.969 10.7203 92.1311 10.3362 92.4831 9.96743L88.1429 5.82457C86.7029 7.33317 85.969 9.21038 85.969 11.288H91.969ZM92.4343 10.0173C92.8127 9.63896 93.1812 9.488 93.705 9.488V3.488C91.5834 3.488 89.6907 4.27571 88.1917 5.77468L92.4343 10.0173ZM93.705 9.488C94.1524 9.488 94.4602 9.61255 94.7989 9.96743L99.1391 5.82457C97.6858 4.30212 95.8176 3.488 93.705 3.488V9.488ZM94.8477 10.0173C95.226 10.3957 95.377 10.7642 95.377 11.288H101.377C101.377 9.16643 100.589 7.27365 99.0903 5.77468L94.8477 10.0173ZM95.377 11.288C95.377 11.8087 95.2304 12.1282 94.8976 12.4459L99.0404 16.7861C100.585 15.3118 101.377 13.4127 101.377 11.288H95.377ZM94.8477 12.4947C94.5207 12.8217 94.1984 12.96 93.705 12.96V18.96C95.7716 18.96 97.6253 18.2023 99.0903 16.7373L94.8477 12.4947ZM108.438 47.32L105.445 47.1063L105.216 50.32H108.438V47.32ZM109.077 38.36V35.36H106.284L106.085 38.1463L109.077 38.36ZM115.862 36.12L118.139 38.0724L118.162 38.0463L118.183 38.0197L115.862 36.12ZM117.782 32.024L114.916 31.1369L114.906 31.1683L114.897 31.1998L117.782 32.024ZM119.254 24.856L119.75 21.8974L116.718 21.3883L116.284 24.4317L119.254 24.856ZM127.637 26.264L130.611 26.6605L130.994 23.7858L128.134 23.3054L127.637 26.264ZM127.253 28.504L124.312 27.9156L124.297 27.987L124.287 28.059L127.253 28.504ZM126.87 31.128L123.9 30.7037L123.891 30.7665L123.884 30.8295L126.87 31.128ZM128.598 37.144L126.933 39.6402L127.028 39.7031L127.127 39.7587L128.598 37.144ZM131.221 38.04L130.633 40.9817L130.644 40.9839L130.655 40.986L131.221 38.04ZM138.71 39.64L136.367 41.5141L136.39 41.5435L136.415 41.5724L138.71 39.64ZM138.389 46.04L140.511 48.1613L138.389 46.04ZM129.366 46.872L128.793 49.8168L128.8 49.8183L128.808 49.8197L129.366 46.872ZM125.333 45.4L123.692 47.9109L123.747 47.9471L123.804 47.9809L125.333 45.4ZM122.581 42.584L119.977 44.0724L120.009 44.1281L120.043 44.1824L122.581 42.584ZM121.301 38.232V35.232H117.987L118.316 38.5305L121.301 38.232ZM124.374 38.232L127.182 39.2854L128.702 35.232H124.374V38.232ZM121.43 43.16L119.271 41.0762L119.27 41.0776L121.43 43.16ZM117.525 45.848L116.383 43.074L117.525 45.848ZM112.981 47L112.659 44.0174L112.614 44.0223L112.569 44.0285L112.981 47ZM123.093 60.824L125.215 58.7027L123.093 60.824ZM123.093 54.552L120.972 52.4307L120.946 52.4565L120.921 52.483L123.093 54.552ZM129.366 54.552L131.538 52.483V52.483L129.366 54.552ZM129.366 60.824L127.244 58.7027L127.218 58.7285L127.193 58.755L129.366 60.824ZM112.021 60.824L114.143 58.7027L112.021 60.824ZM112.021 54.552L109.9 52.4307L109.874 52.4565L109.849 52.483L112.021 54.552ZM118.294 54.552L120.466 52.483L118.294 54.552ZM118.294 60.824L116.172 58.7027L116.146 58.7285L116.121 58.755L118.294 60.824ZM111.43 47.5337L112.07 38.5737L106.085 38.1463L105.445 47.1063L111.43 47.5337ZM109.077 41.36C110.794 41.36 112.393 41.1945 113.825 40.8088L112.266 35.0152C111.48 35.2268 110.433 35.36 109.077 35.36V41.36ZM113.825 40.8088C115.534 40.3488 116.99 39.4135 118.139 38.0724L113.584 34.1676C113.197 34.6185 112.775 34.8779 112.266 35.0152L113.825 40.8088ZM118.183 38.0197C119.311 36.6412 120.096 34.8437 120.666 32.8482L114.897 31.1998C114.443 32.7883 113.948 33.7215 113.54 34.2203L118.183 38.0197ZM120.647 32.911C121.268 30.9052 121.786 28.3417 122.223 25.2803L116.284 24.4317C115.868 27.3437 115.404 29.5588 114.916 31.1369L120.647 32.911ZM118.757 27.8146L127.141 29.2226L128.134 23.3054L119.75 21.8974L118.757 27.8146ZM124.664 25.8675C124.589 26.4256 124.474 27.1057 124.312 27.9156L130.195 29.0924C130.375 28.1957 130.515 27.3824 130.611 26.6605L124.664 25.8675ZM124.287 28.059C124.158 28.9196 124.029 29.8011 123.9 30.7037L129.839 31.5523C129.966 30.6628 130.093 29.7951 130.22 28.949L124.287 28.059ZM123.884 30.8295C123.79 31.7708 123.742 32.6816 123.742 33.56H129.742C129.742 32.9024 129.778 32.1919 129.855 31.4265L123.884 30.8295ZM123.742 33.56C123.742 34.7237 123.97 35.8773 124.506 36.9496L129.873 34.2664C129.812 34.144 129.742 33.9323 129.742 33.56H123.742ZM124.506 36.9496C125.072 38.0808 125.926 38.9684 126.933 39.6402L130.262 34.6478C129.989 34.4663 129.905 34.3299 129.873 34.2664L124.506 36.9496ZM127.127 39.7587C128.168 40.3446 129.368 40.7287 130.633 40.9817L131.81 35.0983C130.942 34.9246 130.392 34.7114 130.068 34.5293L127.127 39.7587ZM130.655 40.986C132.008 41.2462 133.553 41.36 135.254 41.36V35.36C133.796 35.36 132.654 35.2604 131.788 35.094L130.655 40.986ZM135.254 41.36C135.816 41.36 136.137 41.4359 136.292 41.4932C136.422 41.5415 136.407 41.5638 136.367 41.5141L141.052 37.7659C139.567 35.9094 137.332 35.36 135.254 35.36V41.36ZM136.415 41.5724C136.568 41.7539 136.734 42.0571 136.734 42.712H142.734C142.734 40.8922 142.217 39.1474 141.004 37.7076L136.415 41.5724ZM136.734 42.712C136.734 43.2779 136.575 43.6122 136.268 43.9187L140.511 48.1613C141.996 46.6758 142.734 44.7915 142.734 42.712H136.734ZM136.268 43.9187C136.163 44.0239 135.79 44.32 134.613 44.32V50.32C136.765 50.32 138.909 49.7628 140.511 48.1613L136.268 43.9187ZM134.613 44.32C132.846 44.32 131.287 44.1822 129.923 43.9243L128.808 49.8197C130.602 50.1591 132.541 50.32 134.613 50.32V44.32ZM129.938 43.9272C128.684 43.6833 127.674 43.2998 126.863 42.8191L123.804 47.9809C125.297 48.8656 126.975 49.4634 128.793 49.8168L129.938 43.9272ZM126.975 42.8891C126.237 42.4064 125.622 41.7826 125.12 40.9856L120.043 44.1824C120.992 45.6894 122.211 46.943 123.692 47.9109L126.975 42.8891ZM125.186 41.0956C124.757 40.3448 124.425 39.3215 124.287 37.9335L118.316 38.5305C118.519 40.5559 119.04 42.4338 119.977 44.0724L125.186 41.0956ZM121.301 41.232H124.374V35.232H121.301V41.232ZM121.565 37.1786C120.903 38.9428 120.115 40.2027 119.271 41.0762L123.588 45.2438C125.134 43.6426 126.308 41.6172 127.182 39.2854L121.565 37.1786ZM119.27 41.0776C118.389 41.9915 117.429 42.6435 116.383 43.074L118.668 48.622C120.524 47.8579 122.166 46.7178 123.589 45.2424L119.27 41.0776ZM116.383 43.074C115.198 43.5621 113.959 43.8768 112.659 44.0174L113.304 49.9826C115.161 49.7819 116.952 49.3286 118.668 48.622L116.383 43.074ZM112.569 44.0285C111.164 44.2236 109.788 44.32 108.438 44.32V50.32C110.074 50.32 111.727 50.2031 113.394 49.9715L112.569 44.0285ZM126.294 59.168C125.873 59.168 125.563 59.0513 125.215 58.7027L120.972 62.9453C122.416 64.3887 124.239 65.168 126.294 65.168V59.168ZM125.215 58.7027C124.918 58.4055 124.813 58.142 124.813 57.752H118.813C118.813 59.7514 119.563 61.5358 120.972 62.9453L125.215 58.7027ZM124.813 57.752C124.813 57.285 124.944 56.9591 125.266 56.621L120.921 52.483C119.536 53.9369 118.813 55.7443 118.813 57.752H124.813ZM125.215 56.6733C125.563 56.3248 125.873 56.208 126.294 56.208V50.208C124.239 50.208 122.416 50.9873 120.972 52.4307L125.215 56.6733ZM126.294 56.208C126.635 56.208 126.883 56.2956 127.193 56.621L131.538 52.483C130.141 51.0164 128.342 50.208 126.294 50.208V56.208ZM127.193 56.621C127.515 56.9591 127.646 57.285 127.646 57.752H133.646C133.646 55.7443 132.923 53.9369 131.538 52.483L127.193 56.621ZM127.646 57.752C127.646 58.142 127.541 58.4055 127.244 58.7027L131.487 62.9453C132.896 61.5358 133.646 59.7514 133.646 57.752H127.646ZM127.193 58.755C126.883 59.0804 126.635 59.168 126.294 59.168V65.168C128.342 65.168 130.141 64.3596 131.538 62.893L127.193 58.755ZM115.221 59.168C114.801 59.168 114.491 59.0513 114.143 58.7027L109.9 62.9453C111.344 64.3887 113.167 65.168 115.221 65.168V59.168ZM114.143 58.7027C113.846 58.4055 113.742 58.142 113.742 57.752H107.742C107.742 59.7514 108.491 61.5358 109.9 62.9453L114.143 58.7027ZM113.742 57.752C113.742 57.285 113.872 56.9591 114.194 56.621L109.849 52.483C108.464 53.9369 107.742 55.7443 107.742 57.752H113.742ZM114.143 56.6733C114.491 56.3248 114.801 56.208 115.221 56.208V50.208C113.167 50.208 111.344 50.9873 109.9 52.4307L114.143 56.6733ZM115.221 56.208C115.563 56.208 115.811 56.2956 116.121 56.621L120.466 52.483C119.069 51.0164 117.27 50.208 115.221 50.208V56.208ZM116.121 56.621C116.443 56.9591 116.574 57.285 116.574 57.752H122.574C122.574 55.7443 121.851 53.9369 120.466 52.483L116.121 56.621ZM116.574 57.752C116.574 58.142 116.469 58.4055 116.172 58.7027L120.415 62.9453C121.824 61.5358 122.574 59.7514 122.574 57.752H116.574ZM116.121 58.755C115.811 59.0804 115.563 59.168 115.221 59.168V65.168C117.27 65.168 119.069 64.3596 120.466 62.893L116.121 58.755ZM134.625 47.32L131.633 47.1063L131.403 50.32H134.625V47.32ZM135.265 38.36V35.36H132.472L132.273 38.1463L135.265 38.36ZM137.697 37.72L135.868 35.3421V35.3421L137.697 37.72ZM139.361 35.48L136.699 34.0959V34.0959L139.361 35.48ZM141.665 31.128L144.31 32.543L144.318 32.5284L144.326 32.5138L141.665 31.128ZM144.993 26.008L147.286 27.9426L147.301 27.9253L147.315 27.9077L144.993 26.008ZM148.449 22.68L150.175 25.1334L150.184 25.1273L150.193 25.1212L148.449 22.68ZM151.969 20.888L152.821 23.7644L152.854 23.7546L152.887 23.7441L151.969 20.888ZM159.905 21.336L158.563 24.0193L158.613 24.0441L158.664 24.0671L159.905 21.336ZM163.937 24.728L161.582 26.5869L161.594 26.6022L161.607 26.6174L163.937 24.728ZM167.585 31.256L164.815 32.4068L164.818 32.4149L164.821 32.4229L167.585 31.256ZM170.017 35.672L167.665 37.5341L170.017 35.672ZM172.513 37.784L171.282 40.5198L171.306 40.5308L171.331 40.5414L172.513 37.784ZM178.657 39.64L176.314 41.5141L176.338 41.5435L176.362 41.5724L178.657 39.64ZM178.337 46.04L180.406 48.2124L180.432 48.1872L180.458 48.1613L178.337 46.04ZM168.865 46.296L167.751 49.0814L168.865 46.296ZM164.833 43.224L163.02 40.8339L160.691 42.6009L162.397 44.9749L164.833 43.224ZM166.689 41.816L169.446 42.9978L173.917 32.5674L164.876 39.4259L166.689 41.816ZM164.961 44.632L162.598 42.7831L162.573 42.8156L162.548 42.8488L164.961 44.632ZM162.081 47.128L160.593 44.5233L160.572 44.535L160.552 44.5471L162.081 47.128ZM154.145 47.512L154.992 44.6339L154.963 44.6255L154.934 44.6177L154.145 47.512ZM149.729 45.528L148.081 48.0351L148.123 48.0622L148.165 48.0878L149.729 45.528ZM145.569 41.56L147.947 39.7309L145.134 36.0738L142.932 40.1287L145.569 41.56ZM142.881 45.08L144.792 47.3929L144.821 47.3687L144.85 47.3438L142.881 45.08ZM139.425 46.808L138.675 43.9032L139.425 46.808ZM149.281 34.008L146.618 32.627L145.803 34.1989L146.785 35.6721L149.281 34.008ZM150.817 35.928L153.01 33.881V33.881L150.817 35.928ZM152.801 37.656L151.071 40.1069L151.12 40.1418L151.171 40.1747L152.801 37.656ZM155.105 38.808L154.068 41.623L154.091 41.6315L154.114 41.6396L155.105 38.808ZM159.713 38.296L161.98 40.2608L162.011 40.2248L162.041 40.1878L159.713 38.296ZM159.777 35.288L156.977 36.3649L156.979 36.371L159.777 35.288ZM158.881 33.432L156.167 34.7094L156.213 34.8079L156.266 34.9028L158.881 33.432ZM157.665 31.384L155.169 33.0481L155.206 33.104L155.246 33.1581L157.665 31.384ZM156.193 29.784L154.272 32.0887L154.317 32.1262L154.364 32.1619L156.193 29.784ZM152.865 29.656L151.377 27.0513L152.865 29.656ZM151.073 31.256L153.331 33.2315L153.36 33.1978L153.389 33.1631L151.073 31.256ZM137.617 47.5337L138.257 38.5737L132.273 38.1463L131.633 47.1063L137.617 47.5337ZM135.265 41.36C136.665 41.36 138.236 41.0906 139.526 40.0979L135.868 35.3421C135.963 35.2686 136.003 35.2741 135.91 35.2988C135.81 35.3249 135.607 35.36 135.265 35.36V41.36ZM139.526 40.0979C140.592 39.278 141.391 38.0786 142.023 36.8641L136.699 34.0959C136.476 34.5264 136.28 34.8364 136.121 35.051C135.958 35.2705 135.868 35.3424 135.868 35.3421L139.526 40.0979ZM142.023 36.8641C142.569 35.8125 143.331 34.3736 144.31 32.543L139.02 29.713C138.036 31.5517 137.262 33.0142 136.699 34.0959L142.023 36.8641ZM144.326 32.5138C145.318 30.608 146.311 29.0984 147.286 27.9426L142.7 24.0734C141.371 25.6483 140.145 27.552 139.004 29.7422L144.326 32.5138ZM147.315 27.9077C148.342 26.6526 149.3 25.7495 150.175 25.1334L146.723 20.2266C145.294 21.2318 143.948 22.5474 142.671 24.1083L147.315 27.9077ZM150.193 25.1212C151.174 24.42 152.05 23.9928 152.821 23.7644L151.117 18.0116C149.584 18.4659 148.113 19.2334 146.705 20.2388L150.193 25.1212ZM152.887 23.7441C153.811 23.447 154.675 23.312 155.489 23.312V17.312C153.999 17.312 152.516 17.561 151.051 18.0319L152.887 23.7441ZM155.489 23.312C156.618 23.312 157.629 23.5521 158.563 24.0193L161.247 18.6527C159.45 17.7545 157.517 17.312 155.489 17.312V23.312ZM158.664 24.0671C159.515 24.4542 160.503 25.2203 161.582 26.5869L166.292 22.8691C164.811 20.993 163.111 19.4978 161.146 18.6049L158.664 24.0671ZM161.607 26.6174C162.641 27.8931 163.726 29.7854 164.815 32.4068L170.355 30.1052C169.14 27.18 167.793 24.7202 166.267 22.8386L161.607 26.6174ZM164.821 32.4229C165.683 34.4629 166.617 36.2107 167.665 37.5341L172.369 33.8099C171.796 33.0853 171.109 31.8891 170.349 30.0891L164.821 32.4229ZM167.665 37.5341C168.663 38.7943 169.852 39.8762 171.282 40.5198L173.744 35.0482C173.468 34.9238 172.993 34.5977 172.369 33.8099L167.665 37.5341ZM171.331 40.5414C172.568 41.0713 173.864 41.36 175.201 41.36V35.36C174.746 35.36 174.25 35.2647 173.695 35.0266L171.331 40.5414ZM175.201 41.36C175.763 41.36 176.084 41.4359 176.239 41.4932C176.369 41.5415 176.354 41.5638 176.314 41.5141L181 37.7659C179.514 35.9094 177.28 35.36 175.201 35.36V41.36ZM176.362 41.5724C176.515 41.7539 176.681 42.0571 176.681 42.712H182.681C182.681 40.8922 182.164 39.1474 180.952 37.7076L176.362 41.5724ZM176.681 42.712C176.681 43.2779 176.522 43.6122 176.216 43.9187L180.458 48.1613C181.944 46.6758 182.681 44.7915 182.681 42.712H176.681ZM176.268 43.8676C176.086 44.0409 175.659 44.32 174.561 44.32V50.32C176.706 50.32 178.796 49.7457 180.406 48.2124L176.268 43.8676ZM174.561 44.32C172.8 44.32 171.286 44.0334 169.979 43.5106L167.751 49.0814C169.857 49.924 172.141 50.32 174.561 50.32V44.32ZM169.979 43.5106C168.751 43.0194 167.886 42.3319 167.269 41.4731L162.397 44.9749C163.742 46.8468 165.565 48.2073 167.751 49.0814L169.979 43.5106ZM166.646 45.6141L168.502 44.2061L164.876 39.4259L163.02 40.8339L166.646 45.6141ZM163.932 40.6342C163.674 41.2363 163.249 41.9525 162.598 42.7831L167.324 46.4809C168.209 45.3489 168.936 44.1877 169.446 42.9978L163.932 40.6342ZM162.548 42.8488C162.101 43.4548 161.472 44.0209 160.593 44.5233L163.569 49.7327C165.08 48.8697 166.371 47.7718 167.374 46.4152L162.548 42.8488ZM160.552 44.5471C159.951 44.9028 159.118 45.152 157.921 45.152V51.152C159.967 51.152 161.907 50.7185 163.61 49.7089L160.552 44.5471ZM157.921 45.152C157.233 45.152 156.272 45.0105 154.992 44.6339L153.299 50.3901C154.919 50.8668 156.476 51.152 157.921 51.152V45.152ZM154.934 44.6177C153.854 44.3231 152.642 43.7923 151.293 42.9682L148.165 48.0878C149.888 49.141 151.62 49.9329 153.356 50.4063L154.934 44.6177ZM151.377 43.0209C150.207 42.2522 149.058 41.175 147.947 39.7309L143.191 43.3891C144.64 45.273 146.265 46.8411 148.081 48.0351L151.377 43.0209ZM142.932 40.1287C142.243 41.3984 141.554 42.258 140.912 42.8162L144.85 47.3438C146.17 46.1953 147.273 44.7083 148.206 42.9913L142.932 40.1287ZM140.97 42.7671C140.352 43.2776 139.604 43.6635 138.675 43.9032L140.175 49.7128C141.891 49.2698 143.447 48.5037 144.792 47.3929L140.97 42.7671ZM138.675 43.9032C137.67 44.1627 136.336 44.32 134.625 44.32V50.32C136.668 50.32 138.535 50.1359 140.175 49.7128L138.675 43.9032ZM146.785 35.6721C147.313 36.4648 147.93 37.2318 148.624 37.975L153.01 33.881C152.509 33.3442 152.102 32.8312 151.777 32.3439L146.785 35.6721ZM148.624 37.975C149.363 38.7672 150.18 39.4781 151.071 40.1069L154.531 35.2051C153.971 34.8099 153.465 34.3688 153.01 33.881L148.624 37.975ZM151.171 40.1747C152.083 40.7644 153.049 41.2478 154.068 41.623L156.142 35.993C155.539 35.7709 154.97 35.4863 154.431 35.1373L151.171 40.1747ZM154.114 41.6396C155.249 42.037 156.416 42.256 157.601 42.256V36.256C157.164 36.256 156.667 36.1764 156.096 35.9764L154.114 41.6396ZM157.601 42.256C159.317 42.256 160.851 41.564 161.98 40.2608L157.446 36.3312C157.432 36.3468 157.433 36.3435 157.45 36.3306C157.467 36.3173 157.494 36.3003 157.528 36.2849C157.561 36.2696 157.59 36.2613 157.609 36.2574C157.627 36.2537 157.626 36.256 157.601 36.256V42.256ZM162.041 40.1878C163.622 38.2422 163.224 35.8824 162.575 34.205L156.979 36.371C157.06 36.579 157.103 36.7335 157.126 36.8394C157.148 36.9455 157.145 36.9845 157.146 36.9682C157.146 36.9487 157.151 36.8694 157.19 36.7538C157.231 36.6338 157.297 36.5117 157.385 36.4042L162.041 40.1878ZM162.577 34.2111C162.298 33.486 161.93 32.7332 161.496 31.9612L156.266 34.9028C156.6 35.4961 156.829 35.9807 156.977 36.3649L162.577 34.2111ZM161.595 32.1546C161.173 31.2564 160.669 30.4072 160.084 29.6099L155.246 33.1581C155.6 33.6408 155.907 34.157 156.167 34.7094L161.595 32.1546ZM160.161 29.7199C159.571 28.834 158.861 28.0515 158.022 27.4061L154.364 32.1619C154.634 32.3698 154.906 32.654 155.169 33.0481L160.161 29.7199ZM158.114 27.4793C157.176 26.6977 155.984 26.144 154.593 26.144V32.144C154.475 32.144 154.37 32.1194 154.295 32.0894C154.227 32.0621 154.22 32.0453 154.272 32.0887L158.114 27.4793ZM154.593 26.144C153.405 26.144 152.319 26.5125 151.377 27.0513L154.353 32.2607C154.605 32.1168 154.672 32.144 154.593 32.144V26.144ZM151.377 27.0513C150.371 27.6258 149.507 28.4386 148.757 29.3489L153.389 33.1631C153.834 32.6227 154.164 32.3688 154.353 32.2607L151.377 27.0513ZM148.815 29.2805C148.008 30.2035 147.283 31.3446 146.618 32.627L151.944 35.389C152.474 34.3674 152.944 33.6738 153.331 33.2315L148.815 29.2805ZM174.562 47.32L171.57 47.1063L171.341 50.32H174.562V47.32ZM175.202 38.36V35.36H172.409L172.21 38.1463L175.202 38.36ZM177.635 37.72L175.805 35.3421V35.3421L177.635 37.72ZM179.298 35.48L176.637 34.0959V34.0959L179.298 35.48ZM181.602 31.128L184.248 32.543L184.256 32.5284L184.263 32.5138L181.602 31.128ZM184.93 26.008L187.223 27.9426L187.238 27.9253L187.252 27.9077L184.93 26.008ZM188.387 22.68L190.113 25.1334L190.122 25.1273L190.13 25.1212L188.387 22.68ZM191.906 20.888L192.759 23.7644L192.792 23.7546L192.825 23.7441L191.906 20.888ZM199.842 21.336L198.501 24.0193L198.551 24.0441L198.601 24.0671L199.842 21.336ZM203.874 24.728L201.52 26.5869L201.532 26.6022L201.544 26.6174L203.874 24.728ZM207.523 31.256L204.752 32.4068L204.755 32.4149L204.759 32.4229L207.523 31.256ZM209.954 35.672L207.602 37.5341L209.954 35.672ZM212.451 37.784L211.219 40.5198L211.244 40.5308L211.269 40.5414L212.451 37.784ZM218.594 39.64L216.252 41.5141L216.275 41.5435L216.3 41.5724L218.594 39.64ZM218.275 46.04L220.343 48.2124L220.37 48.1872L220.396 48.1613L218.275 46.04ZM208.803 46.296L207.688 49.0814L208.803 46.296ZM204.771 43.224L202.957 40.8339L200.628 42.6009L202.334 44.9749L204.771 43.224ZM206.626 41.816L209.384 42.9978L213.854 32.5674L204.813 39.4259L206.626 41.816ZM204.898 44.632L202.536 42.7831L202.511 42.8156L202.486 42.8488L204.898 44.632ZM202.018 47.128L200.53 44.5233L200.509 44.535L200.489 44.5471L202.018 47.128ZM194.083 47.512L194.929 44.6339L194.901 44.6255L194.872 44.6177L194.083 47.512ZM189.667 45.528L188.019 48.0351L188.06 48.0622L188.102 48.0878L189.667 45.528ZM185.507 41.56L187.884 39.7309L185.071 36.0738L182.87 40.1287L185.507 41.56ZM182.818 45.08L184.729 47.3929L184.758 47.3687L184.787 47.3438L182.818 45.08ZM179.363 46.808L178.613 43.9032L179.363 46.808ZM189.219 34.008L186.555 32.627L185.74 34.1989L186.722 35.6721L189.219 34.008ZM190.755 35.928L192.948 33.881V33.881L190.755 35.928ZM192.738 37.656L191.008 40.1069L191.058 40.1418L191.109 40.1747L192.738 37.656ZM195.042 38.808L194.005 41.623L194.028 41.6315L194.051 41.6396L195.042 38.808ZM199.65 38.296L201.918 40.2608L201.949 40.2248L201.979 40.1878L199.65 38.296ZM199.715 35.288L196.914 36.3649L196.917 36.371L199.715 35.288ZM198.818 33.432L196.104 34.7094L196.15 34.8079L196.204 34.9028L198.818 33.432ZM197.603 31.384L195.106 33.0481L195.144 33.104L195.183 33.1581L197.603 31.384ZM196.13 29.784L194.21 32.0887L194.255 32.1262L194.301 32.1619L196.13 29.784ZM192.803 29.656L191.314 27.0513L192.803 29.656ZM191.01 31.256L193.268 33.2315L193.298 33.1978L193.326 33.1631L191.01 31.256ZM177.555 47.5337L178.195 38.5737L172.21 38.1463L171.57 47.1063L177.555 47.5337ZM175.202 41.36C176.602 41.36 178.173 41.0906 179.464 40.0979L175.805 35.3421C175.901 35.2686 175.941 35.2741 175.847 35.2988C175.748 35.3249 175.544 35.36 175.202 35.36V41.36ZM179.464 40.0979C180.529 39.278 181.329 38.0786 181.96 36.8641L176.637 34.0959C176.413 34.5264 176.218 34.8364 176.058 35.051C175.895 35.2705 175.805 35.3424 175.805 35.3421L179.464 40.0979ZM181.96 36.8641C182.507 35.8125 183.269 34.3736 184.248 32.543L178.957 29.713C177.974 31.5517 177.199 33.0142 176.637 34.0959L181.96 36.8641ZM184.263 32.5138C185.256 30.608 186.248 29.0984 187.223 27.9426L182.638 24.0734C181.309 25.6483 180.083 27.552 178.942 29.7422L184.263 32.5138ZM187.252 27.9077C188.279 26.6526 189.237 25.7495 190.113 25.1334L186.66 20.2266C185.232 21.2318 183.886 22.5474 182.609 24.1083L187.252 27.9077ZM190.13 25.1212C191.112 24.42 191.988 23.9928 192.759 23.7644L191.054 18.0116C189.521 18.4659 188.05 19.2334 186.643 20.2388L190.13 25.1212ZM192.825 23.7441C193.749 23.447 194.613 23.312 195.426 23.312V17.312C193.936 17.312 192.453 17.561 190.988 18.0319L192.825 23.7441ZM195.426 23.312C196.556 23.312 197.567 23.5521 198.501 24.0193L201.184 18.6527C199.388 17.7545 197.454 17.312 195.426 17.312V23.312ZM198.601 24.0671C199.453 24.4542 200.441 25.2203 201.52 26.5869L206.229 22.8691C204.748 20.993 203.048 19.4978 201.084 18.6049L198.601 24.0671ZM201.544 26.6174C202.579 27.8931 203.663 29.7854 204.752 32.4068L210.293 30.1052C209.078 27.18 207.73 24.7202 206.205 22.8386L201.544 26.6174ZM204.759 32.4229C205.62 34.4629 206.555 36.2107 207.602 37.5341L212.307 33.8099C211.733 33.0853 211.046 31.8891 210.286 30.0891L204.759 32.4229ZM207.602 37.5341C208.6 38.7943 209.789 39.8762 211.219 40.5198L213.682 35.0482C213.405 34.9238 212.93 34.5977 212.307 33.8099L207.602 37.5341ZM211.269 40.5414C212.505 41.0713 213.802 41.36 215.139 41.36V35.36C214.683 35.36 214.188 35.2647 213.632 35.0266L211.269 40.5414ZM215.139 41.36C215.701 41.36 216.022 41.4359 216.177 41.4932C216.307 41.5415 216.292 41.5638 216.252 41.5141L220.937 37.7659C219.452 35.9094 217.217 35.36 215.139 35.36V41.36ZM216.3 41.5724C216.453 41.7539 216.618 42.0571 216.618 42.712H222.618C222.618 40.8922 222.102 39.1474 220.889 37.7076L216.3 41.5724ZM216.618 42.712C216.618 43.2779 216.46 43.6122 216.153 43.9187L220.396 48.1613C221.881 46.6758 222.618 44.7915 222.618 42.712H216.618ZM216.206 43.8676C216.024 44.0409 215.596 44.32 214.499 44.32V50.32C216.644 50.32 218.733 49.7457 220.343 48.2124L216.206 43.8676ZM214.499 44.32C212.737 44.32 211.224 44.0334 209.917 43.5106L207.688 49.0814C209.795 49.924 212.078 50.32 214.499 50.32V44.32ZM209.917 43.5106C208.689 43.0194 207.824 42.3319 207.207 41.4731L202.334 44.9749C203.68 46.8468 205.503 48.2073 207.688 49.0814L209.917 43.5106ZM206.584 45.6141L208.44 44.2061L204.813 39.4259L202.957 40.8339L206.584 45.6141ZM203.869 40.6342C203.611 41.2363 203.186 41.9525 202.536 42.7831L207.261 46.4809C208.147 45.3489 208.874 44.1877 209.384 42.9978L203.869 40.6342ZM202.486 42.8488C202.038 43.4548 201.409 44.0209 200.53 44.5233L203.507 49.7327C205.017 48.8697 206.308 47.7718 207.311 46.4152L202.486 42.8488ZM200.489 44.5471C199.889 44.9028 199.055 45.152 197.859 45.152V51.152C199.905 51.152 201.844 50.7185 203.548 49.7089L200.489 44.5471ZM197.859 45.152C197.17 45.152 196.21 45.0105 194.929 44.6339L193.236 50.3901C194.857 50.8668 196.413 51.152 197.859 51.152V45.152ZM194.872 44.6177C193.792 44.3231 192.579 43.7923 191.231 42.9682L188.102 48.0878C189.826 49.141 191.557 49.9329 193.293 50.4063L194.872 44.6177ZM191.314 43.0209C190.144 42.2522 188.995 41.175 187.884 39.7309L183.129 43.3891C184.578 45.273 186.202 46.8411 188.019 48.0351L191.314 43.0209ZM182.87 40.1287C182.181 41.3984 181.492 42.258 180.85 42.8162L184.787 47.3438C186.108 46.1953 187.211 44.7083 188.143 42.9913L182.87 40.1287ZM180.908 42.7671C180.29 43.2776 179.542 43.6635 178.613 43.9032L180.112 49.7128C181.829 49.2698 183.384 48.5037 184.729 47.3929L180.908 42.7671ZM178.613 43.9032C177.607 44.1627 176.274 44.32 174.562 44.32V50.32C176.606 50.32 178.473 50.1359 180.112 49.7128L178.613 43.9032ZM186.722 35.6721C187.251 36.4648 187.868 37.2318 188.561 37.975L192.948 33.881C192.447 33.3442 192.04 32.8312 191.715 32.3439L186.722 35.6721ZM188.561 37.975C189.301 38.7672 190.118 39.4781 191.008 40.1069L194.469 35.2051C193.909 34.8099 193.403 34.3688 192.948 33.881L188.561 37.975ZM191.109 40.1747C192.02 40.7644 192.987 41.2478 194.005 41.623L196.08 35.993C195.477 35.7709 194.908 35.4863 194.368 35.1373L191.109 40.1747ZM194.051 41.6396C195.187 42.037 196.354 42.256 197.538 42.256V36.256C197.102 36.256 196.605 36.1764 196.034 35.9764L194.051 41.6396ZM197.538 42.256C199.254 42.256 200.788 41.564 201.918 40.2608L197.383 36.3312C197.37 36.3468 197.37 36.3435 197.387 36.3306C197.405 36.3173 197.431 36.3003 197.465 36.2849C197.499 36.2696 197.528 36.2613 197.547 36.2574C197.565 36.2537 197.564 36.256 197.538 36.256V42.256ZM201.979 40.1878C203.56 38.2422 203.162 35.8824 202.512 34.205L196.917 36.371C196.997 36.579 197.041 36.7335 197.063 36.8394C197.086 36.9455 197.083 36.9845 197.083 36.9682C197.084 36.9487 197.088 36.8694 197.128 36.7538C197.169 36.6338 197.235 36.5117 197.322 36.4042L201.979 40.1878ZM202.515 34.2111C202.236 33.486 201.867 32.7332 201.433 31.9612L196.204 34.9028C196.538 35.4961 196.767 35.9807 196.914 36.3649L202.515 34.2111ZM201.533 32.1546C201.11 31.2564 200.606 30.4072 200.022 29.6099L195.183 33.1581C195.537 33.6408 195.844 34.157 196.104 34.7094L201.533 32.1546ZM200.099 29.7199C199.508 28.834 198.799 28.0515 197.96 27.4061L194.301 32.1619C194.572 32.3698 194.844 32.654 195.106 33.0481L200.099 29.7199ZM198.051 27.4793C197.113 26.6977 195.921 26.144 194.531 26.144V32.144C194.413 32.144 194.307 32.1194 194.232 32.0894C194.164 32.0621 194.158 32.0453 194.21 32.0887L198.051 27.4793ZM194.531 26.144C193.342 26.144 192.257 26.5125 191.314 27.0513L194.291 32.2607C194.543 32.1168 194.609 32.144 194.531 32.144V26.144ZM191.314 27.0513C190.309 27.6258 189.444 28.4386 188.695 29.3489L193.326 33.1631C193.771 32.6227 194.102 32.3688 194.291 32.2607L191.314 27.0513ZM188.753 29.2805C187.945 30.2035 187.22 31.3446 186.555 32.627L191.882 35.389C192.411 34.3674 192.881 33.6738 193.268 33.2315L188.753 29.2805ZM214.5 47.32L211.508 47.1063L211.278 50.32H214.5V47.32ZM215.14 38.36V35.36H212.347L212.148 38.1463L215.14 38.36ZM219.364 37.784L220.595 40.5198L220.651 40.4947L220.706 40.4673L219.364 37.784ZM220.9 35.48L223.865 35.9362L223.866 35.9279L223.868 35.9196L220.9 35.48ZM221.028 30.488L218.03 30.6018L218.03 30.6056L221.028 30.488ZM219.876 0.151997V-2.848H216.76L216.878 0.265839L219.876 0.151997ZM228.9 0.151997L231.897 0.0281353L231.779 -2.848H228.9V0.151997ZM230.18 31.128L233.178 31.0246L233.178 31.0144L233.177 31.0041L230.18 31.128ZM229.86 37.848L226.893 37.4061L226.889 37.433L226.885 37.46L229.86 37.848ZM227.876 42.904L225.485 41.0924L225.467 41.1158L225.45 41.1395L227.876 42.904ZM223.076 46.168L222.078 43.339L222.069 43.3422L222.06 43.3453L223.076 46.168ZM217.492 47.5337L218.132 38.5737L212.148 38.1463L211.508 47.1063L217.492 47.5337ZM215.14 41.36C217.162 41.36 219.122 41.1827 220.595 40.5198L218.133 35.0482C217.899 35.1533 217.043 35.36 215.14 35.36V41.36ZM220.706 40.4673C222.591 39.5245 223.576 37.8133 223.865 35.9362L217.935 35.0238C217.902 35.238 217.859 35.2735 217.892 35.2239C217.908 35.1998 217.933 35.1701 217.964 35.1423C217.996 35.1148 218.019 35.1024 218.022 35.1007L220.706 40.4673ZM223.868 35.9196C224.08 34.4878 224.113 32.6019 224.026 30.3704L218.03 30.6056C218.113 32.7261 218.062 34.1682 217.932 35.0404L223.868 35.9196ZM224.026 30.3742L222.874 0.0381546L216.878 0.265839L218.03 30.6018L224.026 30.3742ZM219.876 3.152H228.9V-2.848H219.876V3.152ZM225.903 0.275858L227.183 31.2519L233.177 31.0041L231.897 0.0281353L225.903 0.275858ZM227.182 31.2314C227.262 33.5621 227.159 35.6156 226.893 37.4061L232.827 38.2899C233.158 36.0698 233.269 33.6432 233.178 31.0246L227.182 31.2314ZM226.885 37.46C226.688 38.9691 226.2 40.1485 225.485 41.0924L230.267 44.7156C231.685 42.8435 232.52 40.6522 232.835 38.236L226.885 37.46ZM225.45 41.1395C224.883 41.9194 223.865 42.7083 222.078 43.339L224.074 48.997C226.639 48.0917 228.821 46.7046 230.302 44.6685L225.45 41.1395ZM222.06 43.3453C220.385 43.9481 217.915 44.32 214.5 44.32V50.32C218.253 50.32 221.5 49.9239 224.092 48.9907L222.06 43.3453ZM238.62 47L235.621 47.086L235.705 50H238.62V47ZM237.276 0.151997V-2.848H234.189L234.277 0.238028L237.276 0.151997ZM246.236 0.151997L249.235 0.0659657L249.151 -2.848H246.236V0.151997ZM247.58 47V50H250.667L250.579 46.914L247.58 47ZM241.619 46.914L240.275 0.0659657L234.277 0.238028L235.621 47.086L241.619 46.914ZM237.276 3.152H246.236V-2.848H237.276V3.152ZM243.237 0.238028L244.581 47.086L250.579 46.914L249.235 0.0659657L243.237 0.238028ZM247.58 44H238.62V50H247.58V44Z" fill="#29387E" fill-opacity="0.07" mask="url(#path-1-outside-1_1309_28041)"/>
</svg>
