<svg width="258" height="47" viewBox="0 0 258 47" fill="none" xmlns="http://www.w3.org/2000/svg">
<mask id="path-1-outside-1_508_35620" maskUnits="userSpaceOnUse" x="-3" y="-3" width="264" height="53" fill="black">
<rect fill="white" x="-3" y="-3" width="264" height="53"/>
<path d="M0.12 46V0.559998H30.392V6.896H7.288V20.464H26.616V26.416H7.288V46H0.12ZM49.4545 46.64C46.8518 46.64 44.4838 46.192 42.3505 45.296C40.2598 44.3573 38.4465 43.0987 36.9105 41.52C35.3745 39.8987 34.1798 38.064 33.3265 36.016C32.5158 33.9253 32.1105 31.7067 32.1105 29.36C32.1105 26.2027 32.8358 23.3227 34.2865 20.72C35.7372 18.0747 37.7638 15.9627 40.3665 14.384C42.9692 12.7627 46.0198 11.952 49.5185 11.952C53.0172 11.952 56.0252 12.7627 58.5425 14.384C61.1025 15.9627 63.0865 18.0533 64.4945 20.656C65.9025 23.2587 66.6065 26.0533 66.6065 29.04C66.6065 29.552 66.5852 30.0427 66.5425 30.512C66.4998 30.9387 66.4572 31.3013 66.4145 31.6H39.5985C39.7265 33.5627 40.2598 35.2907 41.1985 36.784C42.1798 38.2347 43.4172 39.3867 44.9105 40.24C46.4038 41.0507 48.0038 41.456 49.7105 41.456C51.5878 41.456 53.3585 40.9867 55.0225 40.048C56.7292 39.1093 57.8812 37.872 58.4785 36.336L64.4945 38.064C63.7692 39.6853 62.6598 41.1573 61.1665 42.48C59.7158 43.76 57.9878 44.784 55.9825 45.552C53.9772 46.2773 51.8012 46.64 49.4545 46.64ZM39.4065 26.928H59.6305C59.5025 25.008 58.9478 23.3227 57.9665 21.872C57.0278 20.3787 55.8118 19.2267 54.3185 18.416C52.8678 17.5627 51.2465 17.136 49.4545 17.136C47.7052 17.136 46.0838 17.5627 44.5905 18.416C43.1398 19.2267 41.9452 20.3787 41.0065 21.872C40.0678 23.3227 39.5345 25.008 39.4065 26.928ZM69.917 36.208C69.917 34.0747 70.5143 32.2187 71.709 30.64C72.9463 29.0187 74.6317 27.7813 76.765 26.928C78.8983 26.032 81.373 25.584 84.189 25.584C85.6823 25.584 87.197 25.6907 88.733 25.904C90.3117 26.1173 91.6983 26.4587 92.893 26.928V24.816C92.893 22.4693 92.189 20.6347 90.781 19.312C89.373 17.9893 87.3463 17.328 84.701 17.328C82.8237 17.328 81.053 17.6693 79.389 18.352C77.725 18.992 75.9543 19.9093 74.077 21.104L71.709 16.368C73.9277 14.8747 76.1463 13.7653 78.365 13.04C80.6263 12.3147 82.9943 11.952 85.469 11.952C89.949 11.952 93.469 13.1467 96.029 15.536C98.6317 17.8827 99.933 21.232 99.933 25.584V38.064C99.933 38.8747 100.061 39.4507 100.317 39.792C100.616 40.1333 101.106 40.3253 101.789 40.368V46C101.149 46.128 100.573 46.2133 100.061 46.256C99.549 46.2987 99.1223 46.32 98.781 46.32C97.2877 46.32 96.157 45.9573 95.389 45.232C94.621 44.5067 94.173 43.6533 94.045 42.672L93.853 40.752C92.4023 42.6293 90.5463 44.08 88.285 45.104C86.0237 46.128 83.741 46.64 81.437 46.64C79.2183 46.64 77.2343 46.192 75.485 45.296C73.7357 44.3573 72.3703 43.0987 71.389 41.52C70.4077 39.9413 69.917 38.1707 69.917 36.208ZM91.229 38.256C91.741 37.7013 92.1463 37.1467 92.445 36.592C92.7437 36.0373 92.893 35.5467 92.893 35.12V31.28C91.6983 30.8107 90.4397 30.4693 89.117 30.256C87.7943 30 86.493 29.872 85.213 29.872C82.653 29.872 80.5623 30.384 78.941 31.408C77.3623 32.432 76.573 33.84 76.573 35.632C76.573 36.6133 76.829 37.552 77.341 38.448C77.8957 39.344 78.6637 40.0693 79.645 40.624C80.669 41.1787 81.9277 41.456 83.421 41.456C84.957 41.456 86.429 41.1573 87.837 40.56C89.245 39.9627 90.3757 39.1947 91.229 38.256ZM126.848 44.272C126.251 44.5707 125.504 44.8907 124.608 45.232C123.712 45.5733 122.688 45.872 121.536 46.128C120.427 46.384 119.275 46.512 118.08 46.512C116.629 46.512 115.285 46.256 114.048 45.744C112.811 45.232 111.808 44.4213 111.04 43.312C110.315 42.16 109.952 40.688 109.952 38.896V17.968H105.536V12.528H109.952V1.52H116.992V12.528H124.288V17.968H116.992V36.656C117.077 37.808 117.44 38.6613 118.08 39.216C118.763 39.7707 119.595 40.048 120.576 40.048C121.557 40.048 122.496 39.8773 123.392 39.536C124.288 39.1947 124.949 38.9173 125.376 38.704L126.848 44.272ZM131.404 33.008V12.528H138.444V31.6C138.444 34.5867 138.977 36.848 140.044 38.384C141.153 39.8773 142.753 40.624 144.844 40.624C146.167 40.624 147.447 40.3467 148.684 39.792C149.964 39.2373 151.116 38.4267 152.14 37.36C153.207 36.2507 154.06 34.928 154.7 33.392V12.528H161.74V38.064C161.74 38.8747 161.889 39.4507 162.188 39.792C162.487 40.1333 162.977 40.3253 163.66 40.368V46C162.935 46.128 162.337 46.2133 161.868 46.256C161.399 46.2987 160.951 46.32 160.524 46.32C159.244 46.32 158.177 45.9787 157.324 45.296C156.471 44.5707 155.98 43.6533 155.852 42.544L155.724 39.216C154.231 41.648 152.289 43.504 149.9 44.784C147.511 46.0213 144.887 46.64 142.028 46.64C138.529 46.64 135.884 45.488 134.092 43.184C132.3 40.88 131.404 37.488 131.404 33.008ZM189.54 18.608C186.809 18.6507 184.377 19.2693 182.244 20.464C180.153 21.6587 178.66 23.344 177.764 25.52V46H170.724V12.528H177.252V20.016C178.404 17.712 179.919 15.8773 181.796 14.512C183.673 13.104 185.657 12.336 187.748 12.208C188.175 12.208 188.516 12.208 188.772 12.208C189.071 12.208 189.327 12.2293 189.54 12.272V18.608ZM209.205 46.64C206.602 46.64 204.234 46.192 202.101 45.296C200.01 44.3573 198.197 43.0987 196.661 41.52C195.125 39.8987 193.93 38.064 193.077 36.016C192.266 33.9253 191.861 31.7067 191.861 29.36C191.861 26.2027 192.586 23.3227 194.036 20.72C195.487 18.0747 197.514 15.9627 200.117 14.384C202.719 12.7627 205.77 11.952 209.269 11.952C212.767 11.952 215.775 12.7627 218.293 14.384C220.853 15.9627 222.837 18.0533 224.245 20.656C225.653 23.2587 226.357 26.0533 226.357 29.04C226.357 29.552 226.335 30.0427 226.293 30.512C226.25 30.9387 226.207 31.3013 226.165 31.6H199.349C199.477 33.5627 200.01 35.2907 200.949 36.784C201.93 38.2347 203.167 39.3867 204.661 40.24C206.154 41.0507 207.754 41.456 209.461 41.456C211.338 41.456 213.109 40.9867 214.773 40.048C216.479 39.1093 217.631 37.872 218.229 36.336L224.245 38.064C223.519 39.6853 222.41 41.1573 220.917 42.48C219.466 43.76 217.738 44.784 215.733 45.552C213.727 46.2773 211.551 46.64 209.205 46.64ZM199.157 26.928H219.381C219.253 25.008 218.698 23.3227 217.717 21.872C216.778 20.3787 215.562 19.2267 214.069 18.416C212.618 17.5627 210.997 17.136 209.205 17.136C207.455 17.136 205.834 17.5627 204.341 18.416C202.89 19.2267 201.695 20.3787 200.757 21.872C199.818 23.3227 199.285 25.008 199.157 26.928ZM244.003 46.64C241.187 46.64 238.52 46.192 236.003 45.296C233.486 44.3573 231.331 42.9707 229.539 41.136L232.163 36.4C234.083 38.1067 236.003 39.344 237.923 40.112C239.886 40.88 241.827 41.264 243.747 41.264C245.71 41.264 247.31 40.9013 248.547 40.176C249.784 39.408 250.403 38.2987 250.403 36.848C250.403 35.7813 250.083 34.992 249.443 34.48C248.803 33.968 247.864 33.52 246.627 33.136C245.432 32.752 243.982 32.3253 242.275 31.856C239.886 31.1307 237.88 30.384 236.259 29.616C234.638 28.8053 233.422 27.824 232.611 26.672C231.8 25.52 231.395 24.048 231.395 22.256C231.395 20.08 231.95 18.224 233.059 16.688C234.168 15.152 235.704 13.9787 237.667 13.168C239.672 12.3573 241.976 11.952 244.579 11.952C247.011 11.952 249.251 12.336 251.299 13.104C253.39 13.8293 255.224 14.9813 256.803 16.56L253.795 21.232C252.302 19.8667 250.766 18.864 249.187 18.224C247.651 17.584 245.987 17.264 244.195 17.264C243.171 17.264 242.19 17.392 241.251 17.648C240.312 17.8613 239.523 18.288 238.883 18.928C238.286 19.5253 237.987 20.3787 237.987 21.488C237.987 22.384 238.243 23.1093 238.755 23.664C239.267 24.2187 240.035 24.688 241.059 25.072C242.083 25.456 243.342 25.8827 244.835 26.352C247.438 27.12 249.656 27.888 251.491 28.656C253.326 29.3813 254.734 30.3413 255.715 31.536C256.739 32.688 257.251 34.288 257.251 36.336C257.251 39.5787 256.035 42.1173 253.603 43.952C251.214 45.744 248.014 46.64 244.003 46.64Z"/>
</mask>
<path d="M0.12 46H-2.88V49H0.12V46ZM0.12 0.559998V-2.44H-2.88V0.559998H0.12ZM30.392 0.559998H33.392V-2.44H30.392V0.559998ZM30.392 6.896V9.896H33.392V6.896H30.392ZM7.288 6.896V3.896H4.288V6.896H7.288ZM7.288 20.464H4.288V23.464H7.288V20.464ZM26.616 20.464H29.616V17.464H26.616V20.464ZM26.616 26.416V29.416H29.616V26.416H26.616ZM7.288 26.416V23.416H4.288V26.416H7.288ZM7.288 46V49H10.288V46H7.288ZM3.12 46V0.559998H-2.88V46H3.12ZM0.12 3.56H30.392V-2.44H0.12V3.56ZM27.392 0.559998V6.896H33.392V0.559998H27.392ZM30.392 3.896H7.288V9.896H30.392V3.896ZM4.288 6.896V20.464H10.288V6.896H4.288ZM7.288 23.464H26.616V17.464H7.288V23.464ZM23.616 20.464V26.416H29.616V20.464H23.616ZM26.616 23.416H7.288V29.416H26.616V23.416ZM4.288 26.416V46H10.288V26.416H4.288ZM7.288 43H0.12V49H7.288V43ZM42.3505 45.296L41.1217 48.0328L41.1551 48.0478L41.1888 48.0619L42.3505 45.296ZM36.9105 41.52L34.7326 43.5832L34.7464 43.5977L34.7603 43.6121L36.9105 41.52ZM33.3265 36.016L30.5294 37.1006L30.5429 37.1354L30.5573 37.1698L33.3265 36.016ZM34.2865 20.72L36.9069 22.1806L36.912 22.1716L36.9169 22.1625L34.2865 20.72ZM40.3665 14.384L41.9223 16.949L41.9376 16.9398L41.9527 16.9303L40.3665 14.384ZM58.5425 14.384L56.9181 16.9061L56.9428 16.9221L56.9678 16.9375L58.5425 14.384ZM64.4945 20.656L67.1331 19.2285L64.4945 20.656ZM66.5425 30.512L69.5276 30.8105L69.529 30.7971L69.5302 30.7836L66.5425 30.512ZM66.4145 31.6V34.6H69.0164L69.3844 32.0243L66.4145 31.6ZM39.5985 31.6V28.6H36.3965L36.6049 31.7952L39.5985 31.6ZM41.1985 36.784L38.6586 38.3805L38.6854 38.4232L38.7136 38.4649L41.1985 36.784ZM44.9105 40.24L43.4221 42.8447L43.4505 42.861L43.4792 42.8766L44.9105 40.24ZM55.0225 40.048L53.5767 37.4193L53.5626 37.4271L53.5485 37.4351L55.0225 40.048ZM58.4785 36.336L59.3067 33.4526L56.6749 32.6967L55.6825 35.2487L58.4785 36.336ZM64.4945 38.064L67.233 39.2891L68.6442 36.1346L65.3227 35.1806L64.4945 38.064ZM61.1665 42.48L63.1514 44.7295L63.1556 44.7258L61.1665 42.48ZM55.9825 45.552L57.0029 48.3731L57.0293 48.3636L57.0554 48.3536L55.9825 45.552ZM39.4065 26.928L36.4131 26.7284L36.1998 29.928H39.4065V26.928ZM59.6305 26.928V29.928H62.8372L62.6239 26.7284L59.6305 26.928ZM57.9665 21.872L55.4266 23.4685L55.4534 23.5112L55.4817 23.5529L57.9665 21.872ZM54.3185 18.416L52.7974 21.0018L52.8419 21.028L52.8872 21.0526L54.3185 18.416ZM44.5905 18.416L46.054 21.0348L46.0665 21.0278L46.0789 21.0207L44.5905 18.416ZM41.0065 21.872L43.5252 23.5018L43.5359 23.4852L43.5464 23.4685L41.0065 21.872ZM49.4545 43.64C47.2011 43.64 45.2345 43.2534 43.5122 42.5301L41.1888 48.0619C43.7332 49.1306 46.5026 49.64 49.4545 49.64V43.64ZM43.5793 42.5592C41.8194 41.7691 40.3223 40.7246 39.0607 39.4279L34.7603 43.6121C36.5707 45.4727 38.7002 46.9456 41.1217 48.0328L43.5793 42.5592ZM39.0884 39.4568C37.8014 38.0983 36.8079 36.5713 36.0957 34.8622L30.5573 37.1698C31.5518 39.5567 32.9476 41.699 34.7326 43.5832L39.0884 39.4568ZM36.1236 34.9314C35.4532 33.2026 35.1105 31.3532 35.1105 29.36H29.1105C29.1105 32.0601 29.5784 34.6481 30.5294 37.1006L36.1236 34.9314ZM35.1105 29.36C35.1105 26.6824 35.7201 24.3099 36.9069 22.1806L31.6661 19.2594C29.9516 22.3354 29.1105 25.723 29.1105 29.36H35.1105ZM36.9169 22.1625C38.1118 19.9836 39.766 18.257 41.9223 16.949L38.8107 11.819C35.7617 13.6684 33.3625 16.1658 31.6561 19.2775L36.9169 22.1625ZM41.9527 16.9303C44.0152 15.6456 46.4997 14.952 49.5185 14.952V8.952C45.54 8.952 41.9232 9.87977 38.7803 11.8377L41.9527 16.9303ZM49.5185 14.952C52.54 14.952 54.9621 15.6463 56.9181 16.9061L60.1669 11.8619C57.0883 9.87898 53.4943 8.952 49.5185 8.952V14.952ZM56.9678 16.9375C59.0884 18.2452 60.7021 19.9507 61.8559 22.0835L67.1331 19.2285C65.4709 16.156 63.1166 13.6801 60.1172 11.8305L56.9678 16.9375ZM61.8559 22.0835C63.0244 24.2435 63.6065 26.5469 63.6065 29.04H69.6065C69.6065 25.5597 68.7806 22.2739 67.1331 19.2285L61.8559 22.0835ZM63.6065 29.04C63.6065 29.469 63.5886 29.8687 63.5548 30.2404L69.5302 30.7836C69.5817 30.2166 69.6065 29.635 69.6065 29.04H63.6065ZM63.5574 30.2135C63.5173 30.614 63.4794 30.9322 63.4446 31.1757L69.3844 32.0243C69.4349 31.6705 69.4823 31.2633 69.5276 30.8105L63.5574 30.2135ZM66.4145 28.6H39.5985V34.6H66.4145V28.6ZM36.6049 31.7952C36.7615 34.1972 37.4252 36.4182 38.6586 38.3805L43.7384 35.1875C43.0945 34.1631 42.6915 32.9282 42.5921 31.4048L36.6049 31.7952ZM38.7136 38.4649C39.9472 40.2885 41.5228 41.7594 43.4221 42.8447L46.3989 37.6353C45.3115 37.0139 44.4124 36.1808 43.6833 35.1031L38.7136 38.4649ZM43.4792 42.8766C45.4139 43.9268 47.5062 44.456 49.7105 44.456V38.456C48.5014 38.456 47.3937 38.1745 46.3418 37.6034L43.4792 42.8766ZM49.7105 44.456C52.1137 44.456 54.391 43.8486 56.4965 42.6609L53.5485 37.4351C52.326 38.1247 51.0619 38.456 49.7105 38.456V44.456ZM56.4683 42.6767C58.6744 41.4633 60.3772 39.7307 61.2745 37.4233L55.6825 35.2487C55.3851 36.0133 54.784 36.7554 53.5767 37.4193L56.4683 42.6767ZM57.6503 39.2194L63.6663 40.9474L65.3227 35.1806L59.3067 33.4526L57.6503 39.2194ZM61.7561 36.8389C61.2253 38.0252 60.3906 39.1597 59.1774 40.2342L63.1556 44.7258C64.929 43.155 66.313 41.3455 67.233 39.2891L61.7561 36.8389ZM59.1816 40.2305C58.0275 41.2489 56.617 42.0965 54.9096 42.7504L57.0554 48.3536C59.3586 47.4715 61.4042 46.2711 63.1514 44.7295L59.1816 40.2305ZM54.9621 42.7309C53.3152 43.3266 51.4881 43.64 49.4545 43.64V49.64C52.1143 49.64 54.6391 49.2281 57.0029 48.3731L54.9621 42.7309ZM39.4065 29.928H59.6305V23.928H39.4065V29.928ZM62.6239 26.7284C62.4641 24.3321 61.7592 22.1244 60.4513 20.1911L55.4817 23.5529C56.1365 24.5209 56.5409 25.6839 56.6371 27.1276L62.6239 26.7284ZM60.5064 20.2755C59.3045 18.3633 57.7134 16.8454 55.7498 15.7794L52.8872 21.0526C53.9103 21.6079 54.7512 22.394 55.4266 23.4685L60.5064 20.2755ZM55.8396 15.8302C53.8978 14.688 51.7454 14.136 49.4545 14.136V20.136C50.7476 20.136 51.8378 20.4373 52.7974 21.0018L55.8396 15.8302ZM49.4545 14.136C47.1924 14.136 45.0568 14.6943 43.1021 15.8113L46.0789 21.0207C47.1109 20.431 48.2179 20.136 49.4545 20.136V14.136ZM43.127 15.7972C41.2106 16.8681 39.6558 18.3836 38.4666 20.2755L43.5464 23.4685C44.2345 22.3738 45.0691 21.5852 46.054 21.0348L43.127 15.7972ZM38.4878 20.2422C37.2413 22.1686 36.5712 24.3582 36.4131 26.7284L42.3999 27.1276C42.4978 25.6578 42.8943 24.4767 43.5252 23.5018L38.4878 20.2422ZM71.709 30.64L69.3241 28.82L69.3168 28.8297L71.709 30.64ZM76.765 26.928L77.8792 29.7134L77.903 29.7039L77.9267 29.6939L76.765 26.928ZM88.733 25.904L88.3203 28.8755L88.3312 28.877L88.733 25.904ZM92.893 26.928L91.796 29.7203L95.893 31.3298V26.928H92.893ZM90.781 19.312L92.835 17.1255L90.781 19.312ZM79.389 18.352L80.4659 21.152L80.4969 21.1401L80.5277 21.1275L79.389 18.352ZM74.077 21.104L71.3937 22.4456L72.8813 25.4208L75.6876 23.635L74.077 21.104ZM71.709 16.368L70.0339 13.8792L67.8466 15.3514L69.0257 17.7096L71.709 16.368ZM78.365 13.04L77.4487 10.1833L77.4407 10.1859L77.4328 10.1885L78.365 13.04ZM96.029 15.536L93.982 17.7292L94.0009 17.7468L94.0201 17.7641L96.029 15.536ZM100.317 39.792L97.917 41.592L97.9848 41.6824L98.0593 41.7675L100.317 39.792ZM101.789 40.368H104.789V37.5496L101.976 37.3738L101.789 40.368ZM101.789 46L102.377 48.9417L104.789 48.4594V46H101.789ZM100.061 46.256L99.8119 43.2664L100.061 46.256ZM95.389 45.232L93.3291 47.413L95.389 45.232ZM94.045 42.672L91.0599 42.9705L91.0644 43.0153L91.0702 43.06L94.045 42.672ZM93.853 40.752L96.8381 40.4535L96.0881 32.9532L91.4791 38.9177L93.853 40.752ZM88.285 45.104L89.5225 47.8369L88.285 45.104ZM75.485 45.296L74.0665 47.9395L74.0918 47.953L74.1174 47.9661L75.485 45.296ZM71.389 41.52L68.8411 43.1038L71.389 41.52ZM91.229 38.256L89.0246 36.2212L89.0169 36.2295L89.0092 36.238L91.229 38.256ZM92.445 36.592L95.0864 38.0143L92.445 36.592ZM92.893 31.28H95.893V29.2354L93.99 28.4877L92.893 31.28ZM89.117 30.256L88.5469 33.2013L88.593 33.2103L88.6393 33.2177L89.117 30.256ZM78.941 31.408L77.339 28.8715L77.3237 28.8812L77.3084 28.8911L78.941 31.408ZM77.341 38.448L74.7363 39.9364L74.7624 39.9822L74.7902 40.0271L77.341 38.448ZM79.645 40.624L78.1688 43.2357L78.1924 43.249L78.2161 43.2619L79.645 40.624ZM87.837 40.56L89.0087 43.3217L87.837 40.56ZM72.917 36.208C72.917 34.6743 73.3322 33.4665 74.1012 32.4503L69.3168 28.8297C67.6964 30.9709 66.917 33.475 66.917 36.208H72.917ZM74.0939 32.46C74.9625 31.3219 76.1837 30.3916 77.8792 29.7134L75.6508 24.1426C73.0797 25.171 70.9302 26.7155 69.3241 28.82L74.0939 32.46ZM77.9267 29.6939C79.6217 28.9821 81.6875 28.584 84.189 28.584V22.584C81.0584 22.584 78.175 23.0819 75.6033 24.1621L77.9267 29.6939ZM84.189 28.584C85.5391 28.584 86.9158 28.6804 88.3203 28.8755L89.1457 22.9325C87.4782 22.7009 85.8256 22.584 84.189 22.584V28.584ZM88.3312 28.877C89.7264 29.0655 90.8711 29.3569 91.796 29.7203L93.99 24.1357C92.5256 23.5605 90.897 23.1692 89.1348 22.931L88.3312 28.877ZM95.893 26.928V24.816H89.893V26.928H95.893ZM95.893 24.816C95.893 21.8327 94.9733 19.1342 92.835 17.1255L88.727 21.4985C89.4047 22.1352 89.893 23.106 89.893 24.816H95.893ZM92.835 17.1255C90.6926 15.1129 87.8238 14.328 84.701 14.328V20.328C86.8689 20.328 88.0534 20.8658 88.727 21.4985L92.835 17.1255ZM84.701 14.328C82.4505 14.328 80.2914 14.7391 78.2503 15.5765L80.5277 21.1275C81.8146 20.5995 83.1968 20.328 84.701 20.328V14.328ZM78.3121 15.552C76.4225 16.2787 74.4727 17.2963 72.4664 18.573L75.6876 23.635C77.436 22.5224 79.0275 21.7053 80.4659 21.152L78.3121 15.552ZM76.7603 19.7624L74.3923 15.0264L69.0257 17.7096L71.3937 22.4456L76.7603 19.7624ZM73.3841 18.8568C75.4058 17.496 77.3768 16.5193 79.2972 15.8915L77.4328 10.1885C74.9159 11.0113 72.4495 12.2533 70.0339 13.8792L73.3841 18.8568ZM79.2813 15.8966C81.2342 15.2702 83.2922 14.952 85.469 14.952V8.952C82.6965 8.952 80.0185 9.35909 77.4487 10.1833L79.2813 15.8966ZM85.469 14.952C89.4093 14.952 92.1199 15.9912 93.982 17.7292L98.076 13.3428C94.8181 10.3021 90.4887 8.952 85.469 8.952V14.952ZM94.0201 17.7641C95.8444 19.4089 96.933 21.8603 96.933 25.584H102.933C102.933 20.6037 101.419 16.3564 98.0379 13.3079L94.0201 17.7641ZM96.933 25.584V38.064H102.933V25.584H96.933ZM96.933 38.064C96.933 39.0228 97.0515 40.438 97.917 41.592L102.717 37.992C102.823 38.134 102.884 38.2567 102.916 38.3336C102.933 38.3727 102.943 38.4031 102.949 38.4226C102.955 38.4421 102.957 38.4528 102.958 38.4532C102.958 38.4536 102.956 38.4457 102.953 38.4283C102.951 38.411 102.947 38.3859 102.944 38.3522C102.938 38.284 102.933 38.1891 102.933 38.064H96.933ZM98.0593 41.7675C99.1004 42.9574 100.521 43.2946 101.602 43.3622L101.976 37.3738C101.858 37.3665 101.886 37.3529 102.002 37.3983C102.132 37.4492 102.359 37.5705 102.575 37.8165L98.0593 41.7675ZM98.789 40.368V46H104.789V40.368H98.789ZM101.201 43.0583C100.644 43.1695 100.184 43.2353 99.8119 43.2664L100.31 49.2456C100.962 49.1913 101.654 49.0865 102.377 48.9417L101.201 43.0583ZM99.8119 43.2664C99.3459 43.3052 99.009 43.32 98.781 43.32V49.32C99.2357 49.32 99.7521 49.2921 100.31 49.2456L99.8119 43.2664ZM98.781 43.32C97.736 43.32 97.4655 43.0666 97.4489 43.051L93.3291 47.413C94.8485 48.848 96.8393 49.32 98.781 49.32V43.32ZM97.4489 43.051C97.1468 42.7657 97.0522 42.532 97.0198 42.284L91.0702 43.06C91.2938 44.7747 92.0952 46.2477 93.3291 47.413L97.4489 43.051ZM97.0301 42.3735L96.8381 40.4535L90.8679 41.0505L91.0599 42.9705L97.0301 42.3735ZM91.4791 38.9177C90.3422 40.389 88.8837 41.5396 87.0475 42.3711L89.5225 47.8369C92.209 46.6204 94.4625 44.8697 96.2269 42.5863L91.4791 38.9177ZM87.0475 42.3711C85.1444 43.2329 83.2819 43.64 81.437 43.64V49.64C84.2001 49.64 86.9029 49.0231 89.5225 47.8369L87.0475 42.3711ZM81.437 43.64C79.632 43.64 78.1268 43.2785 76.8526 42.6259L74.1174 47.9661C76.3418 49.1055 78.8046 49.64 81.437 49.64V43.64ZM76.9035 42.6525C75.5843 41.9447 74.6221 41.0385 73.9369 39.9362L68.8411 43.1038C70.1186 45.1588 71.8871 46.77 74.0665 47.9395L76.9035 42.6525ZM73.9369 39.9362C73.2679 38.86 72.917 37.6436 72.917 36.208H66.917C66.917 38.6977 67.5475 41.0227 68.8411 43.1038L73.9369 39.9362ZM93.4334 40.2908C94.0836 39.5864 94.6476 38.8293 95.0864 38.0143L89.8036 35.1697C89.6451 35.464 89.3984 35.8162 89.0246 36.2212L93.4334 40.2908ZM95.0864 38.0143C95.5166 37.2154 95.893 36.2238 95.893 35.12H89.893C89.893 34.9847 89.9163 34.9171 89.911 34.9345C89.9087 34.9419 89.901 34.9655 89.8836 35.0062C89.8661 35.0469 89.8405 35.1012 89.8036 35.1697L95.0864 38.0143ZM95.893 35.12V31.28H89.893V35.12H95.893ZM93.99 28.4877C92.587 27.9366 91.12 27.5403 89.5947 27.2943L88.6393 33.2177C89.7593 33.3984 90.8097 33.6848 91.796 34.0723L93.99 28.4877ZM89.6871 27.3107C88.1864 27.0202 86.6941 26.872 85.213 26.872V32.872C86.2919 32.872 87.4023 32.9798 88.5469 33.2013L89.6871 27.3107ZM85.213 26.872C82.271 26.872 79.5754 27.4591 77.339 28.8715L80.543 33.9445C81.5493 33.3089 83.035 32.872 85.213 32.872V26.872ZM77.3084 28.8911C74.9283 30.435 73.573 32.7639 73.573 35.632H79.573C79.573 34.9161 79.7964 34.429 80.5736 33.9249L77.3084 28.8911ZM73.573 35.632C73.573 37.1627 73.9791 38.6114 74.7363 39.9364L79.9457 36.9596C79.6789 36.4926 79.573 36.064 79.573 35.632H73.573ZM74.7902 40.0271C75.629 41.382 76.7797 42.4505 78.1688 43.2357L81.1212 38.0123C80.5476 37.6881 80.1624 37.306 79.8918 36.8689L74.7902 40.0271ZM78.2161 43.2619C79.7856 44.112 81.566 44.456 83.421 44.456V38.456C82.2894 38.456 81.5524 38.2454 81.0739 37.9861L78.2161 43.2619ZM83.421 44.456C85.3578 44.456 87.2284 44.077 89.0087 43.3217L86.6654 37.7983C85.6296 38.2377 84.5562 38.456 83.421 38.456V44.456ZM89.0087 43.3217C90.735 42.5894 92.2502 41.5925 93.4488 40.274L89.0092 36.238C88.5011 36.7969 87.755 37.336 86.6654 37.7983L89.0087 43.3217ZM126.848 44.272L128.19 46.9553L130.372 45.8641L129.748 43.5052L126.848 44.272ZM124.608 45.232L125.676 48.0355L124.608 45.232ZM121.536 46.128L120.885 43.1994L120.873 43.2021L120.861 43.2048L121.536 46.128ZM111.04 43.312L108.501 44.9104L108.536 44.9658L108.573 45.0196L111.04 43.312ZM109.952 17.968H112.952V14.968H109.952V17.968ZM105.536 17.968H102.536V20.968H105.536V17.968ZM105.536 12.528V9.528H102.536V12.528H105.536ZM109.952 12.528V15.528H112.952V12.528H109.952ZM109.952 1.52V-1.48H106.952V1.52H109.952ZM116.992 1.52H119.992V-1.48H116.992V1.52ZM116.992 12.528H113.992V15.528H116.992V12.528ZM124.288 12.528H127.288V9.528H124.288V12.528ZM124.288 17.968V20.968H127.288V17.968H124.288ZM116.992 17.968V14.968H113.992V17.968H116.992ZM116.992 36.656H113.992V36.767L114 36.8776L116.992 36.656ZM118.08 39.216L116.115 41.4831L116.151 41.5143L116.188 41.5443L118.08 39.216ZM125.376 38.704L128.276 37.9372L127.334 34.3711L124.034 36.0207L125.376 38.704ZM125.506 41.5887C125.027 41.8283 124.379 42.1088 123.54 42.4285L125.676 48.0355C126.629 47.6725 127.474 47.3131 128.19 46.9553L125.506 41.5887ZM123.54 42.4285C122.807 42.7079 121.926 42.9681 120.885 43.1994L122.187 49.0566C123.45 48.7759 124.617 48.4387 125.676 48.0355L123.54 42.4285ZM120.861 43.2048C119.984 43.4073 119.059 43.512 118.08 43.512V49.512C119.491 49.512 120.869 49.3607 122.211 49.0512L120.861 43.2048ZM118.08 43.512C116.99 43.512 116.039 43.3213 115.195 42.9719L112.901 48.5161C114.531 49.1907 116.269 49.512 118.08 49.512V43.512ZM115.195 42.9719C114.495 42.6823 113.949 42.2432 113.507 41.6044L108.573 45.0196C109.667 46.5994 111.126 47.7817 112.901 48.5161L115.195 42.9719ZM113.579 41.7136C113.236 41.1695 112.952 40.2975 112.952 38.896H106.952C106.952 41.0785 107.393 43.1505 108.501 44.9104L113.579 41.7136ZM112.952 38.896V17.968H106.952V38.896H112.952ZM109.952 14.968H105.536V20.968H109.952V14.968ZM108.536 17.968V12.528H102.536V17.968H108.536ZM105.536 15.528H109.952V9.528H105.536V15.528ZM112.952 12.528V1.52H106.952V12.528H112.952ZM109.952 4.52H116.992V-1.48H109.952V4.52ZM113.992 1.52V12.528H119.992V1.52H113.992ZM116.992 15.528H124.288V9.528H116.992V15.528ZM121.288 12.528V17.968H127.288V12.528H121.288ZM124.288 14.968H116.992V20.968H124.288V14.968ZM113.992 17.968V36.656H119.992V17.968H113.992ZM114 36.8776C114.122 38.5257 114.685 40.2432 116.115 41.4831L120.045 36.9489C120.102 36.9983 120.109 37.0333 120.089 36.9866C120.063 36.9263 120.008 36.7598 119.984 36.4344L114 36.8776ZM116.188 41.5443C117.468 42.584 118.99 43.048 120.576 43.048V37.048C120.199 37.048 120.058 36.9573 119.972 36.8877L116.188 41.5443ZM120.576 43.048C121.914 43.048 123.215 42.8138 124.46 42.3395L122.324 36.7325C121.777 36.9409 121.201 37.048 120.576 37.048V43.048ZM124.46 42.3395C125.376 41.9905 126.152 41.6701 126.718 41.3873L124.034 36.0207C123.747 36.1645 123.2 36.3988 122.324 36.7325L124.46 42.3395ZM122.476 39.4708L123.948 45.0388L129.748 43.5052L128.276 37.9372L122.476 39.4708ZM131.404 12.528V9.528H128.404V12.528H131.404ZM138.444 12.528H141.444V9.528H138.444V12.528ZM140.044 38.384L137.58 40.0952L137.607 40.1345L137.636 40.173L140.044 38.384ZM148.684 39.792L147.491 37.0393L147.474 37.0468L147.457 37.0545L148.684 39.792ZM152.14 37.36L149.978 35.2807L149.976 35.2824L152.14 37.36ZM154.7 33.392L157.469 34.5458L157.7 33.992V33.392H154.7ZM154.7 12.528V9.528H151.7V12.528H154.7ZM161.74 12.528H164.74V9.528H161.74V12.528ZM162.188 39.792L164.446 37.8165L164.446 37.8165L162.188 39.792ZM163.66 40.368H166.66V37.5496L163.847 37.3738L163.66 40.368ZM163.66 46L164.181 48.9544L166.66 48.5169V46H163.66ZM161.868 46.256L161.596 43.2683L161.868 46.256ZM157.324 45.296L155.381 47.5818L155.415 47.6107L155.45 47.6386L157.324 45.296ZM155.852 42.544L152.854 42.6593L152.859 42.7739L152.872 42.8879L155.852 42.544ZM155.724 39.216L158.722 39.1007L158.342 29.2196L153.167 37.6462L155.724 39.216ZM149.9 44.784L151.28 47.448L151.298 47.4383L151.317 47.4284L149.9 44.784ZM134.092 43.184L136.46 41.3422L134.092 43.184ZM134.404 33.008V12.528H128.404V33.008H134.404ZM131.404 15.528H138.444V9.528H131.404V15.528ZM135.444 12.528V31.6H141.444V12.528H135.444ZM135.444 31.6C135.444 34.8628 136.012 37.8379 137.58 40.0952L142.508 36.6728C141.942 35.8581 141.444 34.3106 141.444 31.6H135.444ZM137.636 40.173C139.387 42.5305 141.939 43.624 144.844 43.624V37.624C143.567 37.624 142.92 37.2242 142.452 36.595L137.636 40.173ZM144.844 43.624C146.6 43.624 148.298 43.2527 149.911 42.5295L147.457 37.0545C146.595 37.4406 145.733 37.624 144.844 37.624V43.624ZM149.877 42.5447C151.544 41.8223 153.021 40.774 154.304 39.4376L149.976 35.2824C149.211 36.0793 148.384 36.6524 147.491 37.0393L149.877 42.5447ZM154.303 39.4393C155.647 38.0407 156.698 36.3972 157.469 34.5458L151.931 32.2382C151.422 33.4588 150.766 34.4606 149.978 35.2807L154.303 39.4393ZM157.7 33.392V12.528H151.7V33.392H157.7ZM154.7 15.528H161.74V9.528H154.7V15.528ZM158.74 12.528V38.064H164.74V12.528H158.74ZM158.74 38.064C158.74 39.0868 158.898 40.5877 159.93 41.7675L164.446 37.8165C164.685 38.0896 164.749 38.3225 164.756 38.3511C164.761 38.3705 164.756 38.3586 164.751 38.3068C164.745 38.2556 164.74 38.1761 164.74 38.064H158.74ZM159.93 41.7675C160.971 42.9574 162.392 43.2946 163.473 43.3622L163.847 37.3738C163.729 37.3665 163.757 37.3529 163.873 37.3983C164.003 37.4492 164.23 37.5705 164.446 37.8165L159.93 41.7675ZM160.66 40.368V46H166.66V40.368H160.66ZM163.139 43.0456C162.456 43.1662 161.949 43.2362 161.596 43.2683L162.14 49.2437C162.725 49.1904 163.414 49.0898 164.181 48.9544L163.139 43.0456ZM161.596 43.2683C161.208 43.3036 160.851 43.32 160.524 43.32V49.32C161.05 49.32 161.589 49.2937 162.14 49.2437L161.596 43.2683ZM160.524 43.32C159.803 43.32 159.432 43.1401 159.198 42.9534L155.45 47.6386C156.923 48.8172 158.685 49.32 160.524 49.32V43.32ZM159.267 43.0102C158.991 42.7757 158.873 42.5516 158.832 42.2001L152.872 42.8879C153.087 44.755 153.95 46.3656 155.381 47.5818L159.267 43.0102ZM158.85 42.4287L158.722 39.1007L152.726 39.3313L152.854 42.6593L158.85 42.4287ZM153.167 37.6462C151.937 39.6503 150.379 41.124 148.483 42.1396L151.317 47.4284C154.2 45.884 156.524 43.6457 158.281 40.7858L153.167 37.6462ZM148.52 42.12C146.584 43.1228 144.437 43.64 142.028 43.64V49.64C145.336 49.64 148.437 48.9198 151.28 47.448L148.52 42.12ZM142.028 43.64C139.25 43.64 137.568 42.7673 136.46 41.3422L131.724 45.0258C134.2 48.2087 137.809 49.64 142.028 49.64V43.64ZM136.46 41.3422C135.245 39.7804 134.404 37.1584 134.404 33.008H128.404C128.404 37.8176 129.355 41.9796 131.724 45.0258L136.46 41.3422ZM189.54 18.608L189.587 21.6076L192.54 21.5615V18.608H189.54ZM182.244 20.464L180.778 17.8465L180.767 17.8528L180.756 17.8593L182.244 20.464ZM177.764 25.52L174.99 24.3778L174.764 24.9265V25.52H177.764ZM177.764 46V49H180.764V46H177.764ZM170.724 46H167.724V49H170.724V46ZM170.724 12.528V9.528H167.724V12.528H170.724ZM177.252 12.528H180.252V9.528H177.252V12.528ZM177.252 20.016H174.252L179.935 21.3576L177.252 20.016ZM181.796 14.512L183.561 16.9382L183.578 16.9252L183.596 16.912L181.796 14.512ZM187.748 12.208V9.208H187.656L187.565 9.21361L187.748 12.208ZM189.54 12.272H192.54V9.81258L190.128 9.33026L189.54 12.272ZM189.493 15.6084C186.324 15.6579 183.394 16.3814 180.778 17.8465L183.71 23.0815C185.36 22.1572 187.294 21.6435 189.587 21.6076L189.493 15.6084ZM180.756 17.8593C178.1 19.3766 176.146 21.5696 174.99 24.3778L180.538 26.6622C181.174 25.1184 182.206 23.9407 183.732 23.0687L180.756 17.8593ZM174.764 25.52V46H180.764V25.52H174.764ZM177.764 43H170.724V49H177.764V43ZM173.724 46V12.528H167.724V46H173.724ZM170.724 15.528H177.252V9.528H170.724V15.528ZM174.252 12.528V20.016H180.252V12.528H174.252ZM179.935 21.3576C180.896 19.4356 182.113 17.9909 183.561 16.9382L180.031 12.0858C177.724 13.7637 175.912 15.9884 174.569 18.6744L179.935 21.3576ZM183.596 16.912C185.063 15.8121 186.495 15.2903 187.931 15.2024L187.565 9.21361C184.82 9.38166 182.284 10.3959 179.996 12.112L183.596 16.912ZM187.748 15.208C187.749 15.208 187.75 15.208 187.751 15.208C187.751 15.208 187.752 15.208 187.753 15.208C187.754 15.208 187.755 15.208 187.755 15.208C187.756 15.208 187.757 15.208 187.758 15.208C187.759 15.208 187.76 15.208 187.76 15.208C187.761 15.208 187.762 15.208 187.763 15.208C187.764 15.208 187.765 15.208 187.765 15.208C187.766 15.208 187.767 15.208 187.768 15.208C187.769 15.208 187.77 15.208 187.77 15.208C187.771 15.208 187.772 15.208 187.773 15.208C187.774 15.208 187.775 15.208 187.775 15.208C187.776 15.208 187.777 15.208 187.778 15.208C187.779 15.208 187.78 15.208 187.78 15.208C187.781 15.208 187.782 15.208 187.783 15.208C187.784 15.208 187.784 15.208 187.785 15.208C187.786 15.208 187.787 15.208 187.788 15.208C187.789 15.208 187.789 15.208 187.79 15.208C187.791 15.208 187.792 15.208 187.793 15.208C187.794 15.208 187.794 15.208 187.795 15.208C187.796 15.208 187.797 15.208 187.798 15.208C187.798 15.208 187.799 15.208 187.8 15.208C187.801 15.208 187.802 15.208 187.803 15.208C187.803 15.208 187.804 15.208 187.805 15.208C187.806 15.208 187.807 15.208 187.807 15.208C187.808 15.208 187.809 15.208 187.81 15.208C187.811 15.208 187.812 15.208 187.812 15.208C187.813 15.208 187.814 15.208 187.815 15.208C187.816 15.208 187.816 15.208 187.817 15.208C187.818 15.208 187.819 15.208 187.82 15.208C187.82 15.208 187.821 15.208 187.822 15.208C187.823 15.208 187.824 15.208 187.825 15.208C187.825 15.208 187.826 15.208 187.827 15.208C187.828 15.208 187.829 15.208 187.829 15.208C187.83 15.208 187.831 15.208 187.832 15.208C187.833 15.208 187.833 15.208 187.834 15.208C187.835 15.208 187.836 15.208 187.837 15.208C187.838 15.208 187.838 15.208 187.839 15.208C187.84 15.208 187.841 15.208 187.842 15.208C187.842 15.208 187.843 15.208 187.844 15.208C187.845 15.208 187.846 15.208 187.846 15.208C187.847 15.208 187.848 15.208 187.849 15.208C187.85 15.208 187.85 15.208 187.851 15.208C187.852 15.208 187.853 15.208 187.854 15.208C187.855 15.208 187.855 15.208 187.856 15.208C187.857 15.208 187.858 15.208 187.859 15.208C187.859 15.208 187.86 15.208 187.861 15.208C187.862 15.208 187.863 15.208 187.863 15.208C187.864 15.208 187.865 15.208 187.866 15.208C187.867 15.208 187.867 15.208 187.868 15.208C187.869 15.208 187.87 15.208 187.871 15.208C187.871 15.208 187.872 15.208 187.873 15.208C187.874 15.208 187.875 15.208 187.875 15.208C187.876 15.208 187.877 15.208 187.878 15.208C187.879 15.208 187.879 15.208 187.88 15.208C187.881 15.208 187.882 15.208 187.883 15.208C187.883 15.208 187.884 15.208 187.885 15.208C187.886 15.208 187.887 15.208 187.887 15.208C187.888 15.208 187.889 15.208 187.89 15.208C187.891 15.208 187.891 15.208 187.892 15.208C187.893 15.208 187.894 15.208 187.894 15.208C187.895 15.208 187.896 15.208 187.897 15.208C187.898 15.208 187.898 15.208 187.899 15.208C187.9 15.208 187.901 15.208 187.902 15.208C187.902 15.208 187.903 15.208 187.904 15.208C187.905 15.208 187.906 15.208 187.906 15.208C187.907 15.208 187.908 15.208 187.909 15.208C187.91 15.208 187.91 15.208 187.911 15.208C187.912 15.208 187.913 15.208 187.913 15.208C187.914 15.208 187.915 15.208 187.916 15.208C187.917 15.208 187.917 15.208 187.918 15.208C187.919 15.208 187.92 15.208 187.921 15.208C187.921 15.208 187.922 15.208 187.923 15.208C187.924 15.208 187.925 15.208 187.925 15.208C187.926 15.208 187.927 15.208 187.928 15.208C187.928 15.208 187.929 15.208 187.93 15.208C187.931 15.208 187.932 15.208 187.932 15.208C187.933 15.208 187.934 15.208 187.935 15.208C187.936 15.208 187.936 15.208 187.937 15.208C187.938 15.208 187.939 15.208 187.939 15.208C187.94 15.208 187.941 15.208 187.942 15.208C187.943 15.208 187.943 15.208 187.944 15.208C187.945 15.208 187.946 15.208 187.946 15.208C187.947 15.208 187.948 15.208 187.949 15.208C187.95 15.208 187.95 15.208 187.951 15.208C187.952 15.208 187.953 15.208 187.953 15.208C187.954 15.208 187.955 15.208 187.956 15.208C187.957 15.208 187.957 15.208 187.958 15.208C187.959 15.208 187.96 15.208 187.96 15.208C187.961 15.208 187.962 15.208 187.963 15.208C187.964 15.208 187.964 15.208 187.965 15.208C187.966 15.208 187.967 15.208 187.967 15.208C187.968 15.208 187.969 15.208 187.97 15.208C187.971 15.208 187.971 15.208 187.972 15.208C187.973 15.208 187.974 15.208 187.974 15.208C187.975 15.208 187.976 15.208 187.977 15.208C187.977 15.208 187.978 15.208 187.979 15.208C187.98 15.208 187.981 15.208 187.981 15.208C187.982 15.208 187.983 15.208 187.984 15.208C187.984 15.208 187.985 15.208 187.986 15.208C187.987 15.208 187.987 15.208 187.988 15.208C187.989 15.208 187.99 15.208 187.991 15.208C187.991 15.208 187.992 15.208 187.993 15.208C187.994 15.208 187.994 15.208 187.995 15.208C187.996 15.208 187.997 15.208 187.997 15.208C187.998 15.208 187.999 15.208 188 15.208C188.001 15.208 188.001 15.208 188.002 15.208C188.003 15.208 188.004 15.208 188.004 15.208C188.005 15.208 188.006 15.208 188.007 15.208C188.007 15.208 188.008 15.208 188.009 15.208C188.01 15.208 188.01 15.208 188.011 15.208C188.012 15.208 188.013 15.208 188.013 15.208C188.014 15.208 188.015 15.208 188.016 15.208C188.017 15.208 188.017 15.208 188.018 15.208C188.019 15.208 188.02 15.208 188.02 15.208C188.021 15.208 188.022 15.208 188.023 15.208C188.023 15.208 188.024 15.208 188.025 15.208C188.026 15.208 188.026 15.208 188.027 15.208C188.028 15.208 188.029 15.208 188.029 15.208C188.03 15.208 188.031 15.208 188.032 15.208C188.032 15.208 188.033 15.208 188.034 15.208C188.035 15.208 188.035 15.208 188.036 15.208C188.037 15.208 188.038 15.208 188.038 15.208C188.039 15.208 188.04 15.208 188.041 15.208C188.041 15.208 188.042 15.208 188.043 15.208C188.044 15.208 188.044 15.208 188.045 15.208C188.046 15.208 188.047 15.208 188.048 15.208C188.048 15.208 188.049 15.208 188.05 15.208C188.051 15.208 188.051 15.208 188.052 15.208C188.053 15.208 188.053 15.208 188.054 15.208C188.055 15.208 188.056 15.208 188.057 15.208C188.057 15.208 188.058 15.208 188.059 15.208C188.059 15.208 188.06 15.208 188.061 15.208C188.062 15.208 188.062 15.208 188.063 15.208C188.064 15.208 188.065 15.208 188.065 15.208C188.066 15.208 188.067 15.208 188.068 15.208C188.068 15.208 188.069 15.208 188.07 15.208C188.071 15.208 188.071 15.208 188.072 15.208C188.073 15.208 188.074 15.208 188.074 15.208C188.075 15.208 188.076 15.208 188.077 15.208C188.077 15.208 188.078 15.208 188.079 15.208C188.08 15.208 188.08 15.208 188.081 15.208C188.082 15.208 188.083 15.208 188.083 15.208C188.084 15.208 188.085 15.208 188.086 15.208C188.086 15.208 188.087 15.208 188.088 15.208C188.088 15.208 188.089 15.208 188.09 15.208C188.091 15.208 188.091 15.208 188.092 15.208C188.093 15.208 188.094 15.208 188.094 15.208C188.095 15.208 188.096 15.208 188.097 15.208C188.097 15.208 188.098 15.208 188.099 15.208C188.1 15.208 188.1 15.208 188.101 15.208C188.102 15.208 188.102 15.208 188.103 15.208C188.104 15.208 188.105 15.208 188.105 15.208C188.106 15.208 188.107 15.208 188.108 15.208C188.108 15.208 188.109 15.208 188.11 15.208C188.111 15.208 188.111 15.208 188.112 15.208C188.113 15.208 188.114 15.208 188.114 15.208C188.115 15.208 188.116 15.208 188.116 15.208C188.117 15.208 188.118 15.208 188.119 15.208C188.119 15.208 188.12 15.208 188.121 15.208C188.122 15.208 188.122 15.208 188.123 15.208C188.124 15.208 188.124 15.208 188.125 15.208C188.126 15.208 188.127 15.208 188.127 15.208C188.128 15.208 188.129 15.208 188.13 15.208C188.13 15.208 188.131 15.208 188.132 15.208C188.132 15.208 188.133 15.208 188.134 15.208C188.135 15.208 188.135 15.208 188.136 15.208C188.137 15.208 188.138 15.208 188.138 15.208C188.139 15.208 188.14 15.208 188.14 15.208C188.141 15.208 188.142 15.208 188.143 15.208C188.143 15.208 188.144 15.208 188.145 15.208C188.146 15.208 188.146 15.208 188.147 15.208C188.148 15.208 188.148 15.208 188.149 15.208C188.15 15.208 188.151 15.208 188.151 15.208C188.152 15.208 188.153 15.208 188.153 15.208C188.154 15.208 188.155 15.208 188.156 15.208C188.156 15.208 188.157 15.208 188.158 15.208C188.158 15.208 188.159 15.208 188.16 15.208C188.161 15.208 188.161 15.208 188.162 15.208C188.163 15.208 188.163 15.208 188.164 15.208C188.165 15.208 188.166 15.208 188.166 15.208C188.167 15.208 188.168 15.208 188.169 15.208C188.169 15.208 188.17 15.208 188.171 15.208C188.171 15.208 188.172 15.208 188.173 15.208C188.174 15.208 188.174 15.208 188.175 15.208C188.176 15.208 188.176 15.208 188.177 15.208C188.178 15.208 188.178 15.208 188.179 15.208C188.18 15.208 188.181 15.208 188.181 15.208C188.182 15.208 188.183 15.208 188.183 15.208C188.184 15.208 188.185 15.208 188.186 15.208C188.186 15.208 188.187 15.208 188.188 15.208C188.188 15.208 188.189 15.208 188.19 15.208C188.191 15.208 188.191 15.208 188.192 15.208C188.193 15.208 188.193 15.208 188.194 15.208C188.195 15.208 188.196 15.208 188.196 15.208C188.197 15.208 188.198 15.208 188.198 15.208C188.199 15.208 188.2 15.208 188.2 15.208C188.201 15.208 188.202 15.208 188.203 15.208C188.203 15.208 188.204 15.208 188.205 15.208C188.205 15.208 188.206 15.208 188.207 15.208C188.208 15.208 188.208 15.208 188.209 15.208C188.21 15.208 188.21 15.208 188.211 15.208C188.212 15.208 188.212 15.208 188.213 15.208C188.214 15.208 188.215 15.208 188.215 15.208C188.216 15.208 188.217 15.208 188.217 15.208C188.218 15.208 188.219 15.208 188.219 15.208C188.22 15.208 188.221 15.208 188.222 15.208C188.222 15.208 188.223 15.208 188.224 15.208C188.224 15.208 188.225 15.208 188.226 15.208C188.226 15.208 188.227 15.208 188.228 15.208C188.229 15.208 188.229 15.208 188.23 15.208C188.231 15.208 188.231 15.208 188.232 15.208C188.233 15.208 188.233 15.208 188.234 15.208C188.235 15.208 188.236 15.208 188.236 15.208C188.237 15.208 188.238 15.208 188.238 15.208C188.239 15.208 188.24 15.208 188.24 15.208C188.241 15.208 188.242 15.208 188.242 15.208C188.243 15.208 188.244 15.208 188.245 15.208C188.245 15.208 188.246 15.208 188.247 15.208C188.247 15.208 188.248 15.208 188.249 15.208C188.249 15.208 188.25 15.208 188.251 15.208C188.251 15.208 188.252 15.208 188.253 15.208C188.253 15.208 188.254 15.208 188.255 15.208C188.256 15.208 188.256 15.208 188.257 15.208C188.258 15.208 188.258 15.208 188.259 15.208C188.26 15.208 188.26 15.208 188.261 15.208C188.262 15.208 188.262 15.208 188.263 15.208C188.264 15.208 188.264 15.208 188.265 15.208C188.266 15.208 188.267 15.208 188.267 15.208C188.268 15.208 188.269 15.208 188.269 15.208C188.27 15.208 188.271 15.208 188.271 15.208C188.272 15.208 188.273 15.208 188.273 15.208C188.274 15.208 188.275 15.208 188.275 15.208C188.276 15.208 188.277 15.208 188.277 15.208C188.278 15.208 188.279 15.208 188.28 15.208C188.28 15.208 188.281 15.208 188.282 15.208C188.282 15.208 188.283 15.208 188.284 15.208C188.284 15.208 188.285 15.208 188.286 15.208C188.286 15.208 188.287 15.208 188.288 15.208C188.288 15.208 188.289 15.208 188.29 15.208C188.29 15.208 188.291 15.208 188.292 15.208C188.292 15.208 188.293 15.208 188.294 15.208C188.294 15.208 188.295 15.208 188.296 15.208C188.296 15.208 188.297 15.208 188.298 15.208C188.299 15.208 188.299 15.208 188.3 15.208C188.301 15.208 188.301 15.208 188.302 15.208C188.303 15.208 188.303 15.208 188.304 15.208C188.305 15.208 188.305 15.208 188.306 15.208C188.307 15.208 188.307 15.208 188.308 15.208C188.309 15.208 188.309 15.208 188.31 15.208C188.311 15.208 188.311 15.208 188.312 15.208C188.313 15.208 188.313 15.208 188.314 15.208C188.315 15.208 188.315 15.208 188.316 15.208C188.317 15.208 188.317 15.208 188.318 15.208C188.319 15.208 188.319 15.208 188.32 15.208C188.321 15.208 188.321 15.208 188.322 15.208C188.323 15.208 188.323 15.208 188.324 15.208C188.325 15.208 188.325 15.208 188.326 15.208C188.327 15.208 188.327 15.208 188.328 15.208C188.329 15.208 188.329 15.208 188.33 15.208C188.331 15.208 188.331 15.208 188.332 15.208C188.333 15.208 188.333 15.208 188.334 15.208C188.335 15.208 188.335 15.208 188.336 15.208C188.337 15.208 188.337 15.208 188.338 15.208C188.339 15.208 188.339 15.208 188.34 15.208C188.341 15.208 188.341 15.208 188.342 15.208C188.343 15.208 188.343 15.208 188.344 15.208C188.345 15.208 188.345 15.208 188.346 15.208C188.347 15.208 188.347 15.208 188.348 15.208C188.349 15.208 188.349 15.208 188.35 15.208C188.35 15.208 188.351 15.208 188.352 15.208C188.352 15.208 188.353 15.208 188.354 15.208C188.354 15.208 188.355 15.208 188.356 15.208C188.356 15.208 188.357 15.208 188.358 15.208C188.358 15.208 188.359 15.208 188.36 15.208C188.36 15.208 188.361 15.208 188.362 15.208C188.362 15.208 188.363 15.208 188.364 15.208C188.364 15.208 188.365 15.208 188.366 15.208C188.366 15.208 188.367 15.208 188.368 15.208C188.368 15.208 188.369 15.208 188.369 15.208C188.37 15.208 188.371 15.208 188.371 15.208C188.372 15.208 188.373 15.208 188.373 15.208C188.374 15.208 188.375 15.208 188.375 15.208C188.376 15.208 188.377 15.208 188.377 15.208C188.378 15.208 188.379 15.208 188.379 15.208C188.38 15.208 188.381 15.208 188.381 15.208C188.382 15.208 188.382 15.208 188.383 15.208C188.384 15.208 188.384 15.208 188.385 15.208C188.386 15.208 188.386 15.208 188.387 15.208C188.388 15.208 188.388 15.208 188.389 15.208C188.39 15.208 188.39 15.208 188.391 15.208C188.392 15.208 188.392 15.208 188.393 15.208C188.393 15.208 188.394 15.208 188.395 15.208C188.395 15.208 188.396 15.208 188.397 15.208C188.397 15.208 188.398 15.208 188.399 15.208C188.399 15.208 188.4 15.208 188.401 15.208C188.401 15.208 188.402 15.208 188.402 15.208C188.403 15.208 188.404 15.208 188.404 15.208C188.405 15.208 188.406 15.208 188.406 15.208C188.407 15.208 188.408 15.208 188.408 15.208C188.409 15.208 188.409 15.208 188.41 15.208C188.411 15.208 188.411 15.208 188.412 15.208C188.413 15.208 188.413 15.208 188.414 15.208C188.415 15.208 188.415 15.208 188.416 15.208C188.416 15.208 188.417 15.208 188.418 15.208C188.418 15.208 188.419 15.208 188.42 15.208C188.42 15.208 188.421 15.208 188.422 15.208C188.422 15.208 188.423 15.208 188.423 15.208C188.424 15.208 188.425 15.208 188.425 15.208C188.426 15.208 188.427 15.208 188.427 15.208C188.428 15.208 188.429 15.208 188.429 15.208C188.43 15.208 188.43 15.208 188.431 15.208C188.432 15.208 188.432 15.208 188.433 15.208C188.434 15.208 188.434 15.208 188.435 15.208C188.435 15.208 188.436 15.208 188.437 15.208C188.437 15.208 188.438 15.208 188.439 15.208C188.439 15.208 188.44 15.208 188.44 15.208C188.441 15.208 188.442 15.208 188.442 15.208C188.443 15.208 188.444 15.208 188.444 15.208C188.445 15.208 188.445 15.208 188.446 15.208C188.447 15.208 188.447 15.208 188.448 15.208C188.449 15.208 188.449 15.208 188.45 15.208C188.451 15.208 188.451 15.208 188.452 15.208C188.452 15.208 188.453 15.208 188.454 15.208C188.454 15.208 188.455 15.208 188.455 15.208C188.456 15.208 188.457 15.208 188.457 15.208C188.458 15.208 188.459 15.208 188.459 15.208C188.46 15.208 188.46 15.208 188.461 15.208C188.462 15.208 188.462 15.208 188.463 15.208C188.464 15.208 188.464 15.208 188.465 15.208C188.465 15.208 188.466 15.208 188.467 15.208C188.467 15.208 188.468 15.208 188.469 15.208C188.469 15.208 188.47 15.208 188.47 15.208C188.471 15.208 188.472 15.208 188.472 15.208C188.473 15.208 188.473 15.208 188.474 15.208C188.475 15.208 188.475 15.208 188.476 15.208C188.477 15.208 188.477 15.208 188.478 15.208C188.478 15.208 188.479 15.208 188.48 15.208C188.48 15.208 188.481 15.208 188.481 15.208C188.482 15.208 188.483 15.208 188.483 15.208C188.484 15.208 188.484 15.208 188.485 15.208C188.486 15.208 188.486 15.208 188.487 15.208C188.488 15.208 188.488 15.208 188.489 15.208C188.489 15.208 188.49 15.208 188.491 15.208C188.491 15.208 188.492 15.208 188.492 15.208C188.493 15.208 188.494 15.208 188.494 15.208C188.495 15.208 188.495 15.208 188.496 15.208C188.497 15.208 188.497 15.208 188.498 15.208C188.499 15.208 188.499 15.208 188.5 15.208C188.5 15.208 188.501 15.208 188.502 15.208C188.502 15.208 188.503 15.208 188.503 15.208C188.504 15.208 188.505 15.208 188.505 15.208C188.506 15.208 188.506 15.208 188.507 15.208C188.508 15.208 188.508 15.208 188.509 15.208C188.509 15.208 188.51 15.208 188.511 15.208C188.511 15.208 188.512 15.208 188.512 15.208C188.513 15.208 188.514 15.208 188.514 15.208C188.515 15.208 188.515 15.208 188.516 15.208C188.517 15.208 188.517 15.208 188.518 15.208C188.518 15.208 188.519 15.208 188.52 15.208C188.52 15.208 188.521 15.208 188.521 15.208C188.522 15.208 188.523 15.208 188.523 15.208C188.524 15.208 188.524 15.208 188.525 15.208C188.526 15.208 188.526 15.208 188.527 15.208C188.527 15.208 188.528 15.208 188.529 15.208C188.529 15.208 188.53 15.208 188.53 15.208C188.531 15.208 188.532 15.208 188.532 15.208C188.533 15.208 188.533 15.208 188.534 15.208C188.535 15.208 188.535 15.208 188.536 15.208C188.536 15.208 188.537 15.208 188.538 15.208C188.538 15.208 188.539 15.208 188.539 15.208C188.54 15.208 188.54 15.208 188.541 15.208C188.542 15.208 188.542 15.208 188.543 15.208C188.543 15.208 188.544 15.208 188.545 15.208C188.545 15.208 188.546 15.208 188.546 15.208C188.547 15.208 188.548 15.208 188.548 15.208C188.549 15.208 188.549 15.208 188.55 15.208C188.551 15.208 188.551 15.208 188.552 15.208C188.552 15.208 188.553 15.208 188.553 15.208C188.554 15.208 188.555 15.208 188.555 15.208C188.556 15.208 188.556 15.208 188.557 15.208C188.558 15.208 188.558 15.208 188.559 15.208C188.559 15.208 188.56 15.208 188.561 15.208C188.561 15.208 188.562 15.208 188.562 15.208C188.563 15.208 188.563 15.208 188.564 15.208C188.565 15.208 188.565 15.208 188.566 15.208C188.566 15.208 188.567 15.208 188.567 15.208C188.568 15.208 188.569 15.208 188.569 15.208C188.57 15.208 188.57 15.208 188.571 15.208C188.572 15.208 188.572 15.208 188.573 15.208C188.573 15.208 188.574 15.208 188.574 15.208C188.575 15.208 188.576 15.208 188.576 15.208C188.577 15.208 188.577 15.208 188.578 15.208C188.579 15.208 188.579 15.208 188.58 15.208C188.58 15.208 188.581 15.208 188.581 15.208C188.582 15.208 188.583 15.208 188.583 15.208C188.584 15.208 188.584 15.208 188.585 15.208C188.585 15.208 188.586 15.208 188.587 15.208C188.587 15.208 188.588 15.208 188.588 15.208C188.589 15.208 188.589 15.208 188.59 15.208C188.591 15.208 188.591 15.208 188.592 15.208C188.592 15.208 188.593 15.208 188.593 15.208C188.594 15.208 188.595 15.208 188.595 15.208C188.596 15.208 188.596 15.208 188.597 15.208C188.597 15.208 188.598 15.208 188.599 15.208C188.599 15.208 188.6 15.208 188.6 15.208C188.601 15.208 188.601 15.208 188.602 15.208C188.603 15.208 188.603 15.208 188.604 15.208C188.604 15.208 188.605 15.208 188.605 15.208C188.606 15.208 188.607 15.208 188.607 15.208C188.608 15.208 188.608 15.208 188.609 15.208C188.609 15.208 188.61 15.208 188.611 15.208C188.611 15.208 188.612 15.208 188.612 15.208C188.613 15.208 188.613 15.208 188.614 15.208C188.614 15.208 188.615 15.208 188.616 15.208C188.616 15.208 188.617 15.208 188.617 15.208C188.618 15.208 188.618 15.208 188.619 15.208C188.62 15.208 188.62 15.208 188.621 15.208C188.621 15.208 188.622 15.208 188.622 15.208C188.623 15.208 188.623 15.208 188.624 15.208C188.625 15.208 188.625 15.208 188.626 15.208C188.626 15.208 188.627 15.208 188.627 15.208C188.628 15.208 188.629 15.208 188.629 15.208C188.63 15.208 188.63 15.208 188.631 15.208C188.631 15.208 188.632 15.208 188.632 15.208C188.633 15.208 188.634 15.208 188.634 15.208C188.635 15.208 188.635 15.208 188.636 15.208C188.636 15.208 188.637 15.208 188.637 15.208C188.638 15.208 188.639 15.208 188.639 15.208C188.64 15.208 188.64 15.208 188.641 15.208C188.641 15.208 188.642 15.208 188.642 15.208C188.643 15.208 188.644 15.208 188.644 15.208C188.645 15.208 188.645 15.208 188.646 15.208C188.646 15.208 188.647 15.208 188.647 15.208C188.648 15.208 188.649 15.208 188.649 15.208C188.65 15.208 188.65 15.208 188.651 15.208C188.651 15.208 188.652 15.208 188.652 15.208C188.653 15.208 188.653 15.208 188.654 15.208C188.655 15.208 188.655 15.208 188.656 15.208C188.656 15.208 188.657 15.208 188.657 15.208C188.658 15.208 188.658 15.208 188.659 15.208C188.659 15.208 188.66 15.208 188.661 15.208C188.661 15.208 188.662 15.208 188.662 15.208C188.663 15.208 188.663 15.208 188.664 15.208C188.664 15.208 188.665 15.208 188.665 15.208C188.666 15.208 188.667 15.208 188.667 15.208C188.668 15.208 188.668 15.208 188.669 15.208C188.669 15.208 188.67 15.208 188.67 15.208C188.671 15.208 188.671 15.208 188.672 15.208C188.673 15.208 188.673 15.208 188.674 15.208C188.674 15.208 188.675 15.208 188.675 15.208C188.676 15.208 188.676 15.208 188.677 15.208C188.677 15.208 188.678 15.208 188.678 15.208C188.679 15.208 188.68 15.208 188.68 15.208C188.681 15.208 188.681 15.208 188.682 15.208C188.682 15.208 188.683 15.208 188.683 15.208C188.684 15.208 188.684 15.208 188.685 15.208C188.685 15.208 188.686 15.208 188.687 15.208C188.687 15.208 188.688 15.208 188.688 15.208C188.689 15.208 188.689 15.208 188.69 15.208C188.69 15.208 188.691 15.208 188.691 15.208C188.692 15.208 188.692 15.208 188.693 15.208C188.693 15.208 188.694 15.208 188.695 15.208C188.695 15.208 188.696 15.208 188.696 15.208C188.697 15.208 188.697 15.208 188.698 15.208C188.698 15.208 188.699 15.208 188.699 15.208C188.7 15.208 188.7 15.208 188.701 15.208C188.701 15.208 188.702 15.208 188.703 15.208C188.703 15.208 188.704 15.208 188.704 15.208C188.705 15.208 188.705 15.208 188.706 15.208C188.706 15.208 188.707 15.208 188.707 15.208C188.708 15.208 188.708 15.208 188.709 15.208C188.709 15.208 188.71 15.208 188.71 15.208C188.711 15.208 188.711 15.208 188.712 15.208C188.713 15.208 188.713 15.208 188.714 15.208C188.714 15.208 188.715 15.208 188.715 15.208C188.716 15.208 188.716 15.208 188.717 15.208C188.717 15.208 188.718 15.208 188.718 15.208C188.719 15.208 188.719 15.208 188.72 15.208C188.72 15.208 188.721 15.208 188.721 15.208C188.722 15.208 188.722 15.208 188.723 15.208C188.724 15.208 188.724 15.208 188.725 15.208C188.725 15.208 188.726 15.208 188.726 15.208C188.727 15.208 188.727 15.208 188.728 15.208C188.728 15.208 188.729 15.208 188.729 15.208C188.73 15.208 188.73 15.208 188.731 15.208C188.731 15.208 188.732 15.208 188.732 15.208C188.733 15.208 188.733 15.208 188.734 15.208C188.734 15.208 188.735 15.208 188.735 15.208C188.736 15.208 188.736 15.208 188.737 15.208C188.738 15.208 188.738 15.208 188.739 15.208C188.739 15.208 188.74 15.208 188.74 15.208C188.741 15.208 188.741 15.208 188.742 15.208C188.742 15.208 188.743 15.208 188.743 15.208C188.744 15.208 188.744 15.208 188.745 15.208C188.745 15.208 188.746 15.208 188.746 15.208C188.747 15.208 188.747 15.208 188.748 15.208C188.748 15.208 188.749 15.208 188.749 15.208C188.75 15.208 188.75 15.208 188.751 15.208C188.751 15.208 188.752 15.208 188.752 15.208C188.753 15.208 188.753 15.208 188.754 15.208C188.754 15.208 188.755 15.208 188.755 15.208C188.756 15.208 188.756 15.208 188.757 15.208C188.757 15.208 188.758 15.208 188.758 15.208C188.759 15.208 188.759 15.208 188.76 15.208C188.76 15.208 188.761 15.208 188.761 15.208C188.762 15.208 188.762 15.208 188.763 15.208C188.763 15.208 188.764 15.208 188.764 15.208C188.765 15.208 188.765 15.208 188.766 15.208C188.766 15.208 188.767 15.208 188.767 15.208C188.768 15.208 188.768 15.208 188.769 15.208C188.77 15.208 188.77 15.208 188.771 15.208C188.771 15.208 188.771 15.208 188.772 15.208V9.208C188.771 9.208 188.771 9.208 188.771 9.208C188.77 9.208 188.77 9.208 188.769 9.208C188.768 9.208 188.768 9.208 188.767 9.208C188.767 9.208 188.766 9.208 188.766 9.208C188.765 9.208 188.765 9.208 188.764 9.208C188.764 9.208 188.763 9.208 188.763 9.208C188.762 9.208 188.762 9.208 188.761 9.208C188.761 9.208 188.76 9.208 188.76 9.208C188.759 9.208 188.759 9.208 188.758 9.208C188.758 9.208 188.757 9.208 188.757 9.208C188.756 9.208 188.756 9.208 188.755 9.208C188.755 9.208 188.754 9.208 188.754 9.208C188.753 9.208 188.753 9.208 188.752 9.208C188.752 9.208 188.751 9.208 188.751 9.208C188.75 9.208 188.75 9.208 188.749 9.208C188.749 9.208 188.748 9.208 188.748 9.208C188.747 9.208 188.747 9.208 188.746 9.208C188.746 9.208 188.745 9.208 188.745 9.208C188.744 9.208 188.744 9.208 188.743 9.208C188.743 9.208 188.742 9.208 188.742 9.208C188.741 9.208 188.741 9.208 188.74 9.208C188.74 9.208 188.739 9.208 188.739 9.208C188.738 9.208 188.738 9.208 188.737 9.208C188.736 9.208 188.736 9.208 188.735 9.208C188.735 9.208 188.734 9.208 188.734 9.208C188.733 9.208 188.733 9.208 188.732 9.208C188.732 9.208 188.731 9.208 188.731 9.208C188.73 9.208 188.73 9.208 188.729 9.208C188.729 9.208 188.728 9.208 188.728 9.208C188.727 9.208 188.727 9.208 188.726 9.208C188.726 9.208 188.725 9.208 188.725 9.208C188.724 9.208 188.724 9.208 188.723 9.208C188.722 9.208 188.722 9.208 188.721 9.208C188.721 9.208 188.72 9.208 188.72 9.208C188.719 9.208 188.719 9.208 188.718 9.208C188.718 9.208 188.717 9.208 188.717 9.208C188.716 9.208 188.716 9.208 188.715 9.208C188.715 9.208 188.714 9.208 188.714 9.208C188.713 9.208 188.713 9.208 188.712 9.208C188.711 9.208 188.711 9.208 188.71 9.208C188.71 9.208 188.709 9.208 188.709 9.208C188.708 9.208 188.708 9.208 188.707 9.208C188.707 9.208 188.706 9.208 188.706 9.208C188.705 9.208 188.705 9.208 188.704 9.208C188.704 9.208 188.703 9.208 188.703 9.208C188.702 9.208 188.701 9.208 188.701 9.208C188.7 9.208 188.7 9.208 188.699 9.208C188.699 9.208 188.698 9.208 188.698 9.208C188.697 9.208 188.697 9.208 188.696 9.208C188.696 9.208 188.695 9.208 188.695 9.208C188.694 9.208 188.693 9.208 188.693 9.208C188.692 9.208 188.692 9.208 188.691 9.208C188.691 9.208 188.69 9.208 188.69 9.208C188.689 9.208 188.689 9.208 188.688 9.208C188.688 9.208 188.687 9.208 188.687 9.208C188.686 9.208 188.685 9.208 188.685 9.208C188.684 9.208 188.684 9.208 188.683 9.208C188.683 9.208 188.682 9.208 188.682 9.208C188.681 9.208 188.681 9.208 188.68 9.208C188.68 9.208 188.679 9.208 188.678 9.208C188.678 9.208 188.677 9.208 188.677 9.208C188.676 9.208 188.676 9.208 188.675 9.208C188.675 9.208 188.674 9.208 188.674 9.208C188.673 9.208 188.673 9.208 188.672 9.208C188.671 9.208 188.671 9.208 188.67 9.208C188.67 9.208 188.669 9.208 188.669 9.208C188.668 9.208 188.668 9.208 188.667 9.208C188.667 9.208 188.666 9.208 188.665 9.208C188.665 9.208 188.664 9.208 188.664 9.208C188.663 9.208 188.663 9.208 188.662 9.208C188.662 9.208 188.661 9.208 188.661 9.208C188.66 9.208 188.659 9.208 188.659 9.208C188.658 9.208 188.658 9.208 188.657 9.208C188.657 9.208 188.656 9.208 188.656 9.208C188.655 9.208 188.655 9.208 188.654 9.208C188.653 9.208 188.653 9.208 188.652 9.208C188.652 9.208 188.651 9.208 188.651 9.208C188.65 9.208 188.65 9.208 188.649 9.208C188.649 9.208 188.648 9.208 188.647 9.208C188.647 9.208 188.646 9.208 188.646 9.208C188.645 9.208 188.645 9.208 188.644 9.208C188.644 9.208 188.643 9.208 188.642 9.208C188.642 9.208 188.641 9.208 188.641 9.208C188.64 9.208 188.64 9.208 188.639 9.208C188.639 9.208 188.638 9.208 188.637 9.208C188.637 9.208 188.636 9.208 188.636 9.208C188.635 9.208 188.635 9.208 188.634 9.208C188.634 9.208 188.633 9.208 188.632 9.208C188.632 9.208 188.631 9.208 188.631 9.208C188.63 9.208 188.63 9.208 188.629 9.208C188.629 9.208 188.628 9.208 188.627 9.208C188.627 9.208 188.626 9.208 188.626 9.208C188.625 9.208 188.625 9.208 188.624 9.208C188.623 9.208 188.623 9.208 188.622 9.208C188.622 9.208 188.621 9.208 188.621 9.208C188.62 9.208 188.62 9.208 188.619 9.208C188.618 9.208 188.618 9.208 188.617 9.208C188.617 9.208 188.616 9.208 188.616 9.208C188.615 9.208 188.614 9.208 188.614 9.208C188.613 9.208 188.613 9.208 188.612 9.208C188.612 9.208 188.611 9.208 188.611 9.208C188.61 9.208 188.609 9.208 188.609 9.208C188.608 9.208 188.608 9.208 188.607 9.208C188.607 9.208 188.606 9.208 188.605 9.208C188.605 9.208 188.604 9.208 188.604 9.208C188.603 9.208 188.603 9.208 188.602 9.208C188.601 9.208 188.601 9.208 188.6 9.208C188.6 9.208 188.599 9.208 188.599 9.208C188.598 9.208 188.597 9.208 188.597 9.208C188.596 9.208 188.596 9.208 188.595 9.208C188.595 9.208 188.594 9.208 188.593 9.208C188.593 9.208 188.592 9.208 188.592 9.208C188.591 9.208 188.591 9.208 188.59 9.208C188.589 9.208 188.589 9.208 188.588 9.208C188.588 9.208 188.587 9.208 188.587 9.208C188.586 9.208 188.585 9.208 188.585 9.208C188.584 9.208 188.584 9.208 188.583 9.208C188.583 9.208 188.582 9.208 188.581 9.208C188.581 9.208 188.58 9.208 188.58 9.208C188.579 9.208 188.579 9.208 188.578 9.208C188.577 9.208 188.577 9.208 188.576 9.208C188.576 9.208 188.575 9.208 188.574 9.208C188.574 9.208 188.573 9.208 188.573 9.208C188.572 9.208 188.572 9.208 188.571 9.208C188.57 9.208 188.57 9.208 188.569 9.208C188.569 9.208 188.568 9.208 188.567 9.208C188.567 9.208 188.566 9.208 188.566 9.208C188.565 9.208 188.565 9.208 188.564 9.208C188.563 9.208 188.563 9.208 188.562 9.208C188.562 9.208 188.561 9.208 188.561 9.208C188.56 9.208 188.559 9.208 188.559 9.208C188.558 9.208 188.558 9.208 188.557 9.208C188.556 9.208 188.556 9.208 188.555 9.208C188.555 9.208 188.554 9.208 188.553 9.208C188.553 9.208 188.552 9.208 188.552 9.208C188.551 9.208 188.551 9.208 188.55 9.208C188.549 9.208 188.549 9.208 188.548 9.208C188.548 9.208 188.547 9.208 188.546 9.208C188.546 9.208 188.545 9.208 188.545 9.208C188.544 9.208 188.543 9.208 188.543 9.208C188.542 9.208 188.542 9.208 188.541 9.208C188.54 9.208 188.54 9.208 188.539 9.208C188.539 9.208 188.538 9.208 188.538 9.208C188.537 9.208 188.536 9.208 188.536 9.208C188.535 9.208 188.535 9.208 188.534 9.208C188.533 9.208 188.533 9.208 188.532 9.208C188.532 9.208 188.531 9.208 188.53 9.208C188.53 9.208 188.529 9.208 188.529 9.208C188.528 9.208 188.527 9.208 188.527 9.208C188.526 9.208 188.526 9.208 188.525 9.208C188.524 9.208 188.524 9.208 188.523 9.208C188.523 9.208 188.522 9.208 188.521 9.208C188.521 9.208 188.52 9.208 188.52 9.208C188.519 9.208 188.518 9.208 188.518 9.208C188.517 9.208 188.517 9.208 188.516 9.208C188.515 9.208 188.515 9.208 188.514 9.208C188.514 9.208 188.513 9.208 188.512 9.208C188.512 9.208 188.511 9.208 188.511 9.208C188.51 9.208 188.509 9.208 188.509 9.208C188.508 9.208 188.508 9.208 188.507 9.208C188.506 9.208 188.506 9.208 188.505 9.208C188.505 9.208 188.504 9.208 188.503 9.208C188.503 9.208 188.502 9.208 188.502 9.208C188.501 9.208 188.5 9.208 188.5 9.208C188.499 9.208 188.499 9.208 188.498 9.208C188.497 9.208 188.497 9.208 188.496 9.208C188.495 9.208 188.495 9.208 188.494 9.208C188.494 9.208 188.493 9.208 188.492 9.208C188.492 9.208 188.491 9.208 188.491 9.208C188.49 9.208 188.489 9.208 188.489 9.208C188.488 9.208 188.488 9.208 188.487 9.208C188.486 9.208 188.486 9.208 188.485 9.208C188.484 9.208 188.484 9.208 188.483 9.208C188.483 9.208 188.482 9.208 188.481 9.208C188.481 9.208 188.48 9.208 188.48 9.208C188.479 9.208 188.478 9.208 188.478 9.208C188.477 9.208 188.477 9.208 188.476 9.208C188.475 9.208 188.475 9.208 188.474 9.208C188.473 9.208 188.473 9.208 188.472 9.208C188.472 9.208 188.471 9.208 188.47 9.208C188.47 9.208 188.469 9.208 188.469 9.208C188.468 9.208 188.467 9.208 188.467 9.208C188.466 9.208 188.465 9.208 188.465 9.208C188.464 9.208 188.464 9.208 188.463 9.208C188.462 9.208 188.462 9.208 188.461 9.208C188.46 9.208 188.46 9.208 188.459 9.208C188.459 9.208 188.458 9.208 188.457 9.208C188.457 9.208 188.456 9.208 188.455 9.208C188.455 9.208 188.454 9.208 188.454 9.208C188.453 9.208 188.452 9.208 188.452 9.208C188.451 9.208 188.451 9.208 188.45 9.208C188.449 9.208 188.449 9.208 188.448 9.208C188.447 9.208 188.447 9.208 188.446 9.208C188.445 9.208 188.445 9.208 188.444 9.208C188.444 9.208 188.443 9.208 188.442 9.208C188.442 9.208 188.441 9.208 188.44 9.208C188.44 9.208 188.439 9.208 188.439 9.208C188.438 9.208 188.437 9.208 188.437 9.208C188.436 9.208 188.435 9.208 188.435 9.208C188.434 9.208 188.434 9.208 188.433 9.208C188.432 9.208 188.432 9.208 188.431 9.208C188.43 9.208 188.43 9.208 188.429 9.208C188.429 9.208 188.428 9.208 188.427 9.208C188.427 9.208 188.426 9.208 188.425 9.208C188.425 9.208 188.424 9.208 188.423 9.208C188.423 9.208 188.422 9.208 188.422 9.208C188.421 9.208 188.42 9.208 188.42 9.208C188.419 9.208 188.418 9.208 188.418 9.208C188.417 9.208 188.416 9.208 188.416 9.208C188.415 9.208 188.415 9.208 188.414 9.208C188.413 9.208 188.413 9.208 188.412 9.208C188.411 9.208 188.411 9.208 188.41 9.208C188.409 9.208 188.409 9.208 188.408 9.208C188.408 9.208 188.407 9.208 188.406 9.208C188.406 9.208 188.405 9.208 188.404 9.208C188.404 9.208 188.403 9.208 188.402 9.208C188.402 9.208 188.401 9.208 188.401 9.208C188.4 9.208 188.399 9.208 188.399 9.208C188.398 9.208 188.397 9.208 188.397 9.208C188.396 9.208 188.395 9.208 188.395 9.208C188.394 9.208 188.393 9.208 188.393 9.208C188.392 9.208 188.392 9.208 188.391 9.208C188.39 9.208 188.39 9.208 188.389 9.208C188.388 9.208 188.388 9.208 188.387 9.208C188.386 9.208 188.386 9.208 188.385 9.208C188.384 9.208 188.384 9.208 188.383 9.208C188.382 9.208 188.382 9.208 188.381 9.208C188.381 9.208 188.38 9.208 188.379 9.208C188.379 9.208 188.378 9.208 188.377 9.208C188.377 9.208 188.376 9.208 188.375 9.208C188.375 9.208 188.374 9.208 188.373 9.208C188.373 9.208 188.372 9.208 188.371 9.208C188.371 9.208 188.37 9.208 188.369 9.208C188.369 9.208 188.368 9.208 188.368 9.208C188.367 9.208 188.366 9.208 188.366 9.208C188.365 9.208 188.364 9.208 188.364 9.208C188.363 9.208 188.362 9.208 188.362 9.208C188.361 9.208 188.36 9.208 188.36 9.208C188.359 9.208 188.358 9.208 188.358 9.208C188.357 9.208 188.356 9.208 188.356 9.208C188.355 9.208 188.354 9.208 188.354 9.208C188.353 9.208 188.352 9.208 188.352 9.208C188.351 9.208 188.35 9.208 188.35 9.208C188.349 9.208 188.349 9.208 188.348 9.208C188.347 9.208 188.347 9.208 188.346 9.208C188.345 9.208 188.345 9.208 188.344 9.208C188.343 9.208 188.343 9.208 188.342 9.208C188.341 9.208 188.341 9.208 188.34 9.208C188.339 9.208 188.339 9.208 188.338 9.208C188.337 9.208 188.337 9.208 188.336 9.208C188.335 9.208 188.335 9.208 188.334 9.208C188.333 9.208 188.333 9.208 188.332 9.208C188.331 9.208 188.331 9.208 188.33 9.208C188.329 9.208 188.329 9.208 188.328 9.208C188.327 9.208 188.327 9.208 188.326 9.208C188.325 9.208 188.325 9.208 188.324 9.208C188.323 9.208 188.323 9.208 188.322 9.208C188.321 9.208 188.321 9.208 188.32 9.208C188.319 9.208 188.319 9.208 188.318 9.208C188.317 9.208 188.317 9.208 188.316 9.208C188.315 9.208 188.315 9.208 188.314 9.208C188.313 9.208 188.313 9.208 188.312 9.208C188.311 9.208 188.311 9.208 188.31 9.208C188.309 9.208 188.309 9.208 188.308 9.208C188.307 9.208 188.307 9.208 188.306 9.208C188.305 9.208 188.305 9.208 188.304 9.208C188.303 9.208 188.303 9.208 188.302 9.208C188.301 9.208 188.301 9.208 188.3 9.208C188.299 9.208 188.299 9.208 188.298 9.208C188.297 9.208 188.296 9.208 188.296 9.208C188.295 9.208 188.294 9.208 188.294 9.208C188.293 9.208 188.292 9.208 188.292 9.208C188.291 9.208 188.29 9.208 188.29 9.208C188.289 9.208 188.288 9.208 188.288 9.208C188.287 9.208 188.286 9.208 188.286 9.208C188.285 9.208 188.284 9.208 188.284 9.208C188.283 9.208 188.282 9.208 188.282 9.208C188.281 9.208 188.28 9.208 188.28 9.208C188.279 9.208 188.278 9.208 188.277 9.208C188.277 9.208 188.276 9.208 188.275 9.208C188.275 9.208 188.274 9.208 188.273 9.208C188.273 9.208 188.272 9.208 188.271 9.208C188.271 9.208 188.27 9.208 188.269 9.208C188.269 9.208 188.268 9.208 188.267 9.208C188.267 9.208 188.266 9.208 188.265 9.208C188.264 9.208 188.264 9.208 188.263 9.208C188.262 9.208 188.262 9.208 188.261 9.208C188.26 9.208 188.26 9.208 188.259 9.208C188.258 9.208 188.258 9.208 188.257 9.208C188.256 9.208 188.256 9.208 188.255 9.208C188.254 9.208 188.253 9.208 188.253 9.208C188.252 9.208 188.251 9.208 188.251 9.208C188.25 9.208 188.249 9.208 188.249 9.208C188.248 9.208 188.247 9.208 188.247 9.208C188.246 9.208 188.245 9.208 188.245 9.208C188.244 9.208 188.243 9.208 188.242 9.208C188.242 9.208 188.241 9.208 188.24 9.208C188.24 9.208 188.239 9.208 188.238 9.208C188.238 9.208 188.237 9.208 188.236 9.208C188.236 9.208 188.235 9.208 188.234 9.208C188.233 9.208 188.233 9.208 188.232 9.208C188.231 9.208 188.231 9.208 188.23 9.208C188.229 9.208 188.229 9.208 188.228 9.208C188.227 9.208 188.226 9.208 188.226 9.208C188.225 9.208 188.224 9.208 188.224 9.208C188.223 9.208 188.222 9.208 188.222 9.208C188.221 9.208 188.22 9.208 188.219 9.208C188.219 9.208 188.218 9.208 188.217 9.208C188.217 9.208 188.216 9.208 188.215 9.208C188.215 9.208 188.214 9.208 188.213 9.208C188.212 9.208 188.212 9.208 188.211 9.208C188.21 9.208 188.21 9.208 188.209 9.208C188.208 9.208 188.208 9.208 188.207 9.208C188.206 9.208 188.205 9.208 188.205 9.208C188.204 9.208 188.203 9.208 188.203 9.208C188.202 9.208 188.201 9.208 188.2 9.208C188.2 9.208 188.199 9.208 188.198 9.208C188.198 9.208 188.197 9.208 188.196 9.208C188.196 9.208 188.195 9.208 188.194 9.208C188.193 9.208 188.193 9.208 188.192 9.208C188.191 9.208 188.191 9.208 188.19 9.208C188.189 9.208 188.188 9.208 188.188 9.208C188.187 9.208 188.186 9.208 188.186 9.208C188.185 9.208 188.184 9.208 188.183 9.208C188.183 9.208 188.182 9.208 188.181 9.208C188.181 9.208 188.18 9.208 188.179 9.208C188.178 9.208 188.178 9.208 188.177 9.208C188.176 9.208 188.176 9.208 188.175 9.208C188.174 9.208 188.174 9.208 188.173 9.208C188.172 9.208 188.171 9.208 188.171 9.208C188.17 9.208 188.169 9.208 188.169 9.208C188.168 9.208 188.167 9.208 188.166 9.208C188.166 9.208 188.165 9.208 188.164 9.208C188.163 9.208 188.163 9.208 188.162 9.208C188.161 9.208 188.161 9.208 188.16 9.208C188.159 9.208 188.158 9.208 188.158 9.208C188.157 9.208 188.156 9.208 188.156 9.208C188.155 9.208 188.154 9.208 188.153 9.208C188.153 9.208 188.152 9.208 188.151 9.208C188.151 9.208 188.15 9.208 188.149 9.208C188.148 9.208 188.148 9.208 188.147 9.208C188.146 9.208 188.146 9.208 188.145 9.208C188.144 9.208 188.143 9.208 188.143 9.208C188.142 9.208 188.141 9.208 188.14 9.208C188.14 9.208 188.139 9.208 188.138 9.208C188.138 9.208 188.137 9.208 188.136 9.208C188.135 9.208 188.135 9.208 188.134 9.208C188.133 9.208 188.132 9.208 188.132 9.208C188.131 9.208 188.13 9.208 188.13 9.208C188.129 9.208 188.128 9.208 188.127 9.208C188.127 9.208 188.126 9.208 188.125 9.208C188.124 9.208 188.124 9.208 188.123 9.208C188.122 9.208 188.122 9.208 188.121 9.208C188.12 9.208 188.119 9.208 188.119 9.208C188.118 9.208 188.117 9.208 188.116 9.208C188.116 9.208 188.115 9.208 188.114 9.208C188.114 9.208 188.113 9.208 188.112 9.208C188.111 9.208 188.111 9.208 188.11 9.208C188.109 9.208 188.108 9.208 188.108 9.208C188.107 9.208 188.106 9.208 188.105 9.208C188.105 9.208 188.104 9.208 188.103 9.208C188.102 9.208 188.102 9.208 188.101 9.208C188.1 9.208 188.1 9.208 188.099 9.208C188.098 9.208 188.097 9.208 188.097 9.208C188.096 9.208 188.095 9.208 188.094 9.208C188.094 9.208 188.093 9.208 188.092 9.208C188.091 9.208 188.091 9.208 188.09 9.208C188.089 9.208 188.088 9.208 188.088 9.208C188.087 9.208 188.086 9.208 188.086 9.208C188.085 9.208 188.084 9.208 188.083 9.208C188.083 9.208 188.082 9.208 188.081 9.208C188.08 9.208 188.08 9.208 188.079 9.208C188.078 9.208 188.077 9.208 188.077 9.208C188.076 9.208 188.075 9.208 188.074 9.208C188.074 9.208 188.073 9.208 188.072 9.208C188.071 9.208 188.071 9.208 188.07 9.208C188.069 9.208 188.068 9.208 188.068 9.208C188.067 9.208 188.066 9.208 188.065 9.208C188.065 9.208 188.064 9.208 188.063 9.208C188.062 9.208 188.062 9.208 188.061 9.208C188.06 9.208 188.059 9.208 188.059 9.208C188.058 9.208 188.057 9.208 188.057 9.208C188.056 9.208 188.055 9.208 188.054 9.208C188.053 9.208 188.053 9.208 188.052 9.208C188.051 9.208 188.051 9.208 188.05 9.208C188.049 9.208 188.048 9.208 188.048 9.208C188.047 9.208 188.046 9.208 188.045 9.208C188.044 9.208 188.044 9.208 188.043 9.208C188.042 9.208 188.041 9.208 188.041 9.208C188.04 9.208 188.039 9.208 188.038 9.208C188.038 9.208 188.037 9.208 188.036 9.208C188.035 9.208 188.035 9.208 188.034 9.208C188.033 9.208 188.032 9.208 188.032 9.208C188.031 9.208 188.03 9.208 188.029 9.208C188.029 9.208 188.028 9.208 188.027 9.208C188.026 9.208 188.026 9.208 188.025 9.208C188.024 9.208 188.023 9.208 188.023 9.208C188.022 9.208 188.021 9.208 188.02 9.208C188.02 9.208 188.019 9.208 188.018 9.208C188.017 9.208 188.017 9.208 188.016 9.208C188.015 9.208 188.014 9.208 188.013 9.208C188.013 9.208 188.012 9.208 188.011 9.208C188.01 9.208 188.01 9.208 188.009 9.208C188.008 9.208 188.007 9.208 188.007 9.208C188.006 9.208 188.005 9.208 188.004 9.208C188.004 9.208 188.003 9.208 188.002 9.208C188.001 9.208 188.001 9.208 188 9.208C187.999 9.208 187.998 9.208 187.997 9.208C187.997 9.208 187.996 9.208 187.995 9.208C187.994 9.208 187.994 9.208 187.993 9.208C187.992 9.208 187.991 9.208 187.991 9.208C187.99 9.208 187.989 9.208 187.988 9.208C187.987 9.208 187.987 9.208 187.986 9.208C187.985 9.208 187.984 9.208 187.984 9.208C187.983 9.208 187.982 9.208 187.981 9.208C187.981 9.208 187.98 9.208 187.979 9.208C187.978 9.208 187.977 9.208 187.977 9.208C187.976 9.208 187.975 9.208 187.974 9.208C187.974 9.208 187.973 9.208 187.972 9.208C187.971 9.208 187.971 9.208 187.97 9.208C187.969 9.208 187.968 9.208 187.967 9.208C187.967 9.208 187.966 9.208 187.965 9.208C187.964 9.208 187.964 9.208 187.963 9.208C187.962 9.208 187.961 9.208 187.96 9.208C187.96 9.208 187.959 9.208 187.958 9.208C187.957 9.208 187.957 9.208 187.956 9.208C187.955 9.208 187.954 9.208 187.953 9.208C187.953 9.208 187.952 9.208 187.951 9.208C187.95 9.208 187.95 9.208 187.949 9.208C187.948 9.208 187.947 9.208 187.946 9.208C187.946 9.208 187.945 9.208 187.944 9.208C187.943 9.208 187.943 9.208 187.942 9.208C187.941 9.208 187.94 9.208 187.939 9.208C187.939 9.208 187.938 9.208 187.937 9.208C187.936 9.208 187.936 9.208 187.935 9.208C187.934 9.208 187.933 9.208 187.932 9.208C187.932 9.208 187.931 9.208 187.93 9.208C187.929 9.208 187.928 9.208 187.928 9.208C187.927 9.208 187.926 9.208 187.925 9.208C187.925 9.208 187.924 9.208 187.923 9.208C187.922 9.208 187.921 9.208 187.921 9.208C187.92 9.208 187.919 9.208 187.918 9.208C187.917 9.208 187.917 9.208 187.916 9.208C187.915 9.208 187.914 9.208 187.913 9.208C187.913 9.208 187.912 9.208 187.911 9.208C187.91 9.208 187.91 9.208 187.909 9.208C187.908 9.208 187.907 9.208 187.906 9.208C187.906 9.208 187.905 9.208 187.904 9.208C187.903 9.208 187.902 9.208 187.902 9.208C187.901 9.208 187.9 9.208 187.899 9.208C187.898 9.208 187.898 9.208 187.897 9.208C187.896 9.208 187.895 9.208 187.894 9.208C187.894 9.208 187.893 9.208 187.892 9.208C187.891 9.208 187.891 9.208 187.89 9.208C187.889 9.208 187.888 9.208 187.887 9.208C187.887 9.208 187.886 9.208 187.885 9.208C187.884 9.208 187.883 9.208 187.883 9.208C187.882 9.208 187.881 9.208 187.88 9.208C187.879 9.208 187.879 9.208 187.878 9.208C187.877 9.208 187.876 9.208 187.875 9.208C187.875 9.208 187.874 9.208 187.873 9.208C187.872 9.208 187.871 9.208 187.871 9.208C187.87 9.208 187.869 9.208 187.868 9.208C187.867 9.208 187.867 9.208 187.866 9.208C187.865 9.208 187.864 9.208 187.863 9.208C187.863 9.208 187.862 9.208 187.861 9.208C187.86 9.208 187.859 9.208 187.859 9.208C187.858 9.208 187.857 9.208 187.856 9.208C187.855 9.208 187.855 9.208 187.854 9.208C187.853 9.208 187.852 9.208 187.851 9.208C187.85 9.208 187.85 9.208 187.849 9.208C187.848 9.208 187.847 9.208 187.846 9.208C187.846 9.208 187.845 9.208 187.844 9.208C187.843 9.208 187.842 9.208 187.842 9.208C187.841 9.208 187.84 9.208 187.839 9.208C187.838 9.208 187.838 9.208 187.837 9.208C187.836 9.208 187.835 9.208 187.834 9.208C187.833 9.208 187.833 9.208 187.832 9.208C187.831 9.208 187.83 9.208 187.829 9.208C187.829 9.208 187.828 9.208 187.827 9.208C187.826 9.208 187.825 9.208 187.825 9.208C187.824 9.208 187.823 9.208 187.822 9.208C187.821 9.208 187.82 9.208 187.82 9.208C187.819 9.208 187.818 9.208 187.817 9.208C187.816 9.208 187.816 9.208 187.815 9.208C187.814 9.208 187.813 9.208 187.812 9.208C187.812 9.208 187.811 9.208 187.81 9.208C187.809 9.208 187.808 9.208 187.807 9.208C187.807 9.208 187.806 9.208 187.805 9.208C187.804 9.208 187.803 9.208 187.803 9.208C187.802 9.208 187.801 9.208 187.8 9.208C187.799 9.208 187.798 9.208 187.798 9.208C187.797 9.208 187.796 9.208 187.795 9.208C187.794 9.208 187.794 9.208 187.793 9.208C187.792 9.208 187.791 9.208 187.79 9.208C187.789 9.208 187.789 9.208 187.788 9.208C187.787 9.208 187.786 9.208 187.785 9.208C187.784 9.208 187.784 9.208 187.783 9.208C187.782 9.208 187.781 9.208 187.78 9.208C187.78 9.208 187.779 9.208 187.778 9.208C187.777 9.208 187.776 9.208 187.775 9.208C187.775 9.208 187.774 9.208 187.773 9.208C187.772 9.208 187.771 9.208 187.77 9.208C187.77 9.208 187.769 9.208 187.768 9.208C187.767 9.208 187.766 9.208 187.765 9.208C187.765 9.208 187.764 9.208 187.763 9.208C187.762 9.208 187.761 9.208 187.76 9.208C187.76 9.208 187.759 9.208 187.758 9.208C187.757 9.208 187.756 9.208 187.755 9.208C187.755 9.208 187.754 9.208 187.753 9.208C187.752 9.208 187.751 9.208 187.751 9.208C187.75 9.208 187.749 9.208 187.748 9.208V15.208ZM188.772 15.208C188.851 15.208 188.906 15.2109 188.939 15.2136C188.973 15.2165 188.975 15.2184 188.952 15.2137L190.128 9.33026C189.665 9.23755 189.201 9.208 188.772 9.208V15.208ZM186.54 12.272V18.608H192.54V12.272H186.54ZM202.1 45.296L200.872 48.0328L200.905 48.0478L200.939 48.0619L202.1 45.296ZM196.661 41.52L194.483 43.5832L194.496 43.5977L194.51 43.6121L196.661 41.52ZM193.077 36.016L190.279 37.1006L190.293 37.1354L190.307 37.1698L193.077 36.016ZM194.036 20.72L196.657 22.1806L196.662 22.1716L196.667 22.1625L194.036 20.72ZM200.117 14.384L201.672 16.949L201.688 16.9398L201.703 16.9303L200.117 14.384ZM218.292 14.384L216.668 16.9061L216.693 16.9221L216.718 16.9375L218.292 14.384ZM224.245 20.656L226.883 19.2285L224.245 20.656ZM226.293 30.512L229.278 30.8105L229.279 30.7971L229.28 30.7836L226.293 30.512ZM226.165 31.6V34.6H228.766L229.134 32.0243L226.165 31.6ZM199.348 31.6V28.6H196.146L196.355 31.7952L199.348 31.6ZM200.949 36.784L198.409 38.3805L198.435 38.4232L198.464 38.4649L200.949 36.784ZM204.661 40.24L203.172 42.8447L203.2 42.861L203.229 42.8766L204.661 40.24ZM214.773 40.048L213.327 37.4193L213.313 37.4271L213.299 37.4351L214.773 40.048ZM218.229 36.336L219.057 33.4526L216.425 32.6967L215.432 35.2487L218.229 36.336ZM224.245 38.064L226.983 39.2891L228.394 36.1346L225.073 35.1806L224.245 38.064ZM220.917 42.48L222.901 44.7295L222.906 44.7258L220.917 42.48ZM215.732 45.552L216.753 48.3731L216.779 48.3636L216.805 48.3536L215.732 45.552ZM199.156 26.928L196.163 26.7284L195.95 29.928H199.156V26.928ZM219.38 26.928V29.928H222.587L222.374 26.7284L219.38 26.928ZM217.717 21.872L215.177 23.4685L215.203 23.5112L215.232 23.5529L217.717 21.872ZM214.068 18.416L212.547 21.0018L212.592 21.028L212.637 21.0526L214.068 18.416ZM204.34 18.416L205.804 21.0348L205.816 21.0278L205.829 21.0207L204.34 18.416ZM200.757 21.872L203.275 23.5018L203.286 23.4852L203.296 23.4685L200.757 21.872ZM209.204 43.64C206.951 43.64 204.984 43.2534 203.262 42.5301L200.939 48.0619C203.483 49.1306 206.253 49.64 209.204 49.64V43.64ZM203.329 42.5592C201.569 41.7691 200.072 40.7246 198.811 39.4279L194.51 43.6121C196.321 45.4727 198.45 46.9456 200.872 48.0328L203.329 42.5592ZM198.838 39.4568C197.551 38.0983 196.558 36.5713 195.846 34.8622L190.307 37.1698C191.302 39.5567 192.698 41.699 194.483 43.5832L198.838 39.4568ZM195.874 34.9314C195.203 33.2026 194.861 31.3532 194.861 29.36H188.861C188.861 32.0601 189.328 34.6481 190.279 37.1006L195.874 34.9314ZM194.861 29.36C194.861 26.6824 195.47 24.3099 196.657 22.1806L191.416 19.2594C189.702 22.3354 188.861 25.723 188.861 29.36H194.861ZM196.667 22.1625C197.862 19.9836 199.516 18.257 201.672 16.949L198.561 11.819C195.512 13.6684 193.113 16.1658 191.406 19.2775L196.667 22.1625ZM201.703 16.9303C203.765 15.6456 206.25 14.952 209.268 14.952V8.952C205.29 8.952 201.673 9.87977 198.53 11.8377L201.703 16.9303ZM209.268 14.952C212.29 14.952 214.712 15.6463 216.668 16.9061L219.917 11.8619C216.838 9.87898 213.244 8.952 209.268 8.952V14.952ZM216.718 16.9375C218.838 18.2452 220.452 19.9507 221.606 22.0835L226.883 19.2285C225.221 16.156 222.867 13.6801 219.867 11.8305L216.718 16.9375ZM221.606 22.0835C222.774 24.2435 223.357 26.5469 223.357 29.04H229.357C229.357 25.5597 228.531 22.2739 226.883 19.2285L221.606 22.0835ZM223.357 29.04C223.357 29.469 223.339 29.8687 223.305 30.2404L229.28 30.7836C229.332 30.2166 229.357 29.635 229.357 29.04H223.357ZM223.307 30.2135C223.267 30.614 223.229 30.9322 223.195 31.1757L229.134 32.0243C229.185 31.6705 229.232 31.2633 229.278 30.8105L223.307 30.2135ZM226.165 28.6H199.348V34.6H226.165V28.6ZM196.355 31.7952C196.512 34.1972 197.175 36.4182 198.409 38.3805L203.488 35.1875C202.845 34.1631 202.441 32.9282 202.342 31.4048L196.355 31.7952ZM198.464 38.4649C199.697 40.2885 201.273 41.7594 203.172 42.8447L206.149 37.6353C205.061 37.0139 204.162 36.1808 203.433 35.1031L198.464 38.4649ZM203.229 42.8766C205.164 43.9268 207.256 44.456 209.46 44.456V38.456C208.251 38.456 207.144 38.1745 206.092 37.6034L203.229 42.8766ZM209.46 44.456C211.864 44.456 214.141 43.8486 216.246 42.6609L213.299 37.4351C212.076 38.1247 210.812 38.456 209.46 38.456V44.456ZM216.218 42.6767C218.424 41.4633 220.127 39.7307 221.025 37.4233L215.432 35.2487C215.135 36.0133 214.534 36.7554 213.327 37.4193L216.218 42.6767ZM217.4 39.2194L223.416 40.9474L225.073 35.1806L219.057 33.4526L217.4 39.2194ZM221.506 36.8389C220.975 38.0252 220.141 39.1597 218.927 40.2342L222.906 44.7258C224.679 43.155 226.063 41.3455 226.983 39.2891L221.506 36.8389ZM218.932 40.2305C217.777 41.2489 216.367 42.0965 214.66 42.7504L216.805 48.3536C219.109 47.4715 221.154 46.2711 222.901 44.7295L218.932 40.2305ZM214.712 42.7309C213.065 43.3266 211.238 43.64 209.204 43.64V49.64C211.864 49.64 214.389 49.2281 216.753 48.3731L214.712 42.7309ZM199.156 29.928H219.38V23.928H199.156V29.928ZM222.374 26.7284C222.214 24.3321 221.509 22.1244 220.201 20.1911L215.232 23.5529C215.886 24.5209 216.291 25.6839 216.387 27.1276L222.374 26.7284ZM220.256 20.2755C219.054 18.3633 217.463 16.8454 215.5 15.7794L212.637 21.0526C213.66 21.6079 214.501 22.394 215.177 23.4685L220.256 20.2755ZM215.59 15.8302C213.648 14.688 211.495 14.136 209.204 14.136V20.136C210.498 20.136 211.588 20.4373 212.547 21.0018L215.59 15.8302ZM209.204 14.136C206.942 14.136 204.807 14.6943 202.852 15.8113L205.829 21.0207C206.861 20.431 207.968 20.136 209.204 20.136V14.136ZM202.877 15.7972C200.961 16.8681 199.406 18.3836 198.217 20.2755L203.296 23.4685C203.985 22.3738 204.819 21.5852 205.804 21.0348L202.877 15.7972ZM198.238 20.2422C196.991 22.1686 196.321 24.3582 196.163 26.7284L202.15 27.1276C202.248 25.6578 202.644 24.4767 203.275 23.5018L198.238 20.2422ZM236.003 45.296L234.955 48.1069L234.976 48.1148L234.997 48.1223L236.003 45.296ZM229.539 41.136L226.915 39.6821L225.833 41.635L227.393 43.2322L229.539 41.136ZM232.163 36.4L234.156 34.1578L231.355 31.668L229.539 34.9461L232.163 36.4ZM237.923 40.112L236.809 42.8974L236.819 42.9016L236.83 42.9057L237.923 40.112ZM248.547 40.176L250.064 42.7641L250.097 42.7449L250.129 42.7249L248.547 40.176ZM249.443 34.48L247.569 36.8226H247.569L249.443 34.48ZM246.627 33.136L245.709 35.9921L245.723 35.9967L245.738 36.0012L246.627 33.136ZM242.275 31.856L241.404 34.7266L241.441 34.7381L241.48 34.7486L242.275 31.856ZM236.259 29.616L234.917 32.2993L234.946 32.3136L234.975 32.3272L236.259 29.616ZM232.611 26.672L230.158 28.3985L232.611 26.672ZM233.059 16.688L230.627 14.9315L233.059 16.688ZM237.667 13.168L236.543 10.3867L236.532 10.3909L236.522 10.3952L237.667 13.168ZM251.299 13.104L250.246 15.913L250.281 15.9261L250.316 15.9383L251.299 13.104ZM256.803 16.56L259.325 18.184L260.635 16.1496L258.924 14.4387L256.803 16.56ZM253.795 21.232L251.771 23.4461L254.394 25.8441L256.317 22.856L253.795 21.232ZM249.187 18.224L248.033 20.9932L248.046 20.9988L248.06 21.0042L249.187 18.224ZM241.251 17.648L241.916 20.5734L241.978 20.5592L242.04 20.5423L241.251 17.648ZM238.883 18.928L241.004 21.0493L238.883 18.928ZM238.755 23.664L236.551 25.6988L236.551 25.6988L238.755 23.664ZM241.059 25.072L242.112 22.263L241.059 25.072ZM244.835 26.352L243.936 29.214L243.961 29.2219L243.986 29.2293L244.835 26.352ZM251.491 28.656L250.333 31.4233L250.36 31.4349L250.388 31.4459L251.491 28.656ZM255.715 31.536L253.397 33.4402L253.434 33.4854L253.473 33.5291L255.715 31.536ZM253.603 43.952L255.403 46.352L255.41 46.3469L253.603 43.952ZM244.003 43.64C241.511 43.64 239.186 43.2447 237.009 42.4697L234.997 48.1223C237.854 49.1393 240.863 49.64 244.003 49.64V43.64ZM237.051 42.4851C234.928 41.6933 233.154 40.5432 231.685 39.0398L227.393 43.2322C229.508 45.3982 232.044 47.0214 234.955 48.1069L237.051 42.4851ZM232.163 42.5899L234.787 37.8539L229.539 34.9461L226.915 39.6821L232.163 42.5899ZM230.17 38.6422C232.289 40.5257 234.499 41.9736 236.809 42.8974L239.037 37.3266C237.507 36.7144 235.877 35.6876 234.156 34.1578L230.17 38.6422ZM236.83 42.9057C239.107 43.7967 241.418 44.264 243.747 44.264V38.264C242.236 38.264 240.665 37.9633 239.016 37.3183L236.83 42.9057ZM243.747 44.264C246.055 44.264 248.228 43.8407 250.064 42.7641L247.03 37.5879C246.392 37.9619 245.365 38.264 243.747 38.264V44.264ZM250.129 42.7249C252.244 41.4123 253.403 39.3413 253.403 36.848H247.403C247.403 37.1355 247.346 37.259 247.319 37.3068C247.292 37.3551 247.215 37.4719 246.965 37.6271L250.129 42.7249ZM253.403 36.848C253.403 35.1671 252.872 33.3815 251.317 32.1374L247.569 36.8226C247.528 36.7899 247.486 36.7471 247.449 36.6969C247.412 36.6473 247.392 36.6058 247.383 36.5831C247.366 36.5419 247.403 36.607 247.403 36.848H253.403ZM251.317 32.1374C250.264 31.2952 248.928 30.7089 247.516 30.2708L245.738 36.0012C246.801 36.3311 247.342 36.6408 247.569 36.8226L251.317 32.1374ZM247.545 30.2799C246.297 29.8788 244.803 29.4398 243.07 28.9634L241.48 34.7486C243.16 35.2108 244.568 35.6252 245.709 35.9921L247.545 30.2799ZM243.146 28.9854C240.848 28.2877 238.991 27.5905 237.543 26.9048L234.975 32.3272C236.77 33.1775 238.923 33.9737 241.404 34.7266L243.146 28.9854ZM237.601 26.9327C236.299 26.2821 235.519 25.5916 235.064 24.9455L230.158 28.3985C231.324 30.0564 232.976 31.3286 234.917 32.2993L237.601 26.9327ZM235.064 24.9455C234.695 24.4212 234.395 23.5984 234.395 22.256H228.395C228.395 24.4976 228.905 26.6188 230.158 28.3985L235.064 24.9455ZM234.395 22.256C234.395 20.6135 234.804 19.3957 235.491 18.4445L230.627 14.9315C229.095 17.0523 228.395 19.5465 228.395 22.256H234.395ZM235.491 18.4445C236.236 17.4131 237.301 16.5652 238.812 15.9408L236.522 10.3952C234.108 11.3922 232.101 12.8909 230.627 14.9315L235.491 18.4445ZM238.791 15.9493C240.375 15.3092 242.285 14.952 244.579 14.952V8.952C241.667 8.952 238.97 9.40544 236.543 10.3867L238.791 15.9493ZM244.579 14.952C246.691 14.952 248.57 15.2846 250.246 15.913L252.352 10.295C249.932 9.38735 247.331 8.952 244.579 8.952V14.952ZM250.316 15.9383C251.974 16.5136 253.421 17.4203 254.682 18.6813L258.924 14.4387C257.028 12.5424 254.805 11.145 252.282 10.2697L250.316 15.9383ZM254.281 14.936L251.273 19.608L256.317 22.856L259.325 18.184L254.281 14.936ZM255.819 19.0179C254.111 17.4562 252.279 16.2402 250.314 15.4438L248.06 21.0042C249.253 21.4878 250.492 22.2772 251.771 23.4461L255.819 19.0179ZM250.341 15.4548C248.412 14.651 246.352 14.264 244.195 14.264V20.264C245.622 20.264 246.89 20.517 248.033 20.9932L250.341 15.4548ZM244.195 14.264C242.918 14.264 241.671 14.424 240.462 14.7537L242.04 20.5423C242.709 20.36 243.424 20.264 244.195 20.264V14.264ZM240.586 14.7226C239.133 15.053 237.827 15.741 236.762 16.8067L241.004 21.0493C241.219 20.835 241.492 20.6697 241.916 20.5734L240.586 14.7226ZM236.762 16.8067C235.442 18.1265 234.987 19.8419 234.987 21.488H240.987C240.987 21.1969 241.027 21.0522 241.043 21.007C241.054 20.9752 241.046 21.0073 241.004 21.0493L236.762 16.8067ZM234.987 21.488C234.987 22.9885 235.434 24.4891 236.551 25.6988L240.959 21.6292C240.969 21.6395 240.981 21.6546 240.991 21.6725C241.002 21.6903 241.007 21.7029 241.008 21.7055C241.01 21.7116 240.987 21.6508 240.987 21.488H234.987ZM236.551 25.6988C237.491 26.7173 238.726 27.401 240.006 27.881L242.112 22.263C241.344 21.975 241.043 21.72 240.959 21.6292L236.551 25.6988ZM240.006 27.881C241.097 28.2902 242.41 28.7347 243.936 29.214L245.734 23.49C244.273 23.0307 243.069 22.6218 242.112 22.263L240.006 27.881ZM243.986 29.2293C246.519 29.9767 248.628 30.7097 250.333 31.4233L252.649 25.8887C250.685 25.0663 248.357 24.2633 245.684 23.4747L243.986 29.2293ZM250.388 31.4459C251.877 32.0345 252.816 32.7333 253.397 33.4402L258.033 29.6318C256.651 27.9494 254.774 26.7282 252.594 25.8661L250.388 31.4459ZM253.473 33.5291C253.867 33.9726 254.251 34.7772 254.251 36.336H260.251C260.251 33.7988 259.611 31.4034 257.957 29.5429L253.473 33.5291ZM254.251 36.336C254.251 38.7079 253.422 40.3305 251.796 41.5571L255.41 46.3469C258.648 43.9042 260.251 40.4494 260.251 36.336H254.251ZM251.803 41.552C250.085 42.8403 247.585 43.64 244.003 43.64V49.64C248.442 49.64 252.342 48.6477 255.403 46.352L251.803 41.552Z" fill="#29387E" fill-opacity="0.07" mask="url(#path-1-outside-1_508_35620)"/>
</svg>
