<svg width="45" height="45" viewBox="0 0 45 45" fill="none" xmlns="http://www.w3.org/2000/svg">
<rect width="45" height="45" rx="22.5" fill="white" fill-opacity="0.79"/>
<path d="M22.5 33.75C28.7134 33.75 33.75 28.7134 33.75 22.5C33.75 16.2866 28.7134 11.25 22.5 11.25C16.2866 11.25 11.25 16.2866 11.25 22.5C11.25 28.7134 16.2866 33.75 22.5 33.75Z" stroke="#29387E" stroke-width="1.5" stroke-linecap="round" stroke-linejoin="round"/>
<path d="M11.25 22.5H33.75" stroke="#29387E" stroke-width="1.5" stroke-linecap="round" stroke-linejoin="round"/>
<path d="M22.5 33.75C24.9851 33.75 27 28.7134 27 22.5C27 16.2866 24.9851 11.25 22.5 11.25C20.0149 11.25 18 16.2866 18 22.5C18 28.7134 20.0149 33.75 22.5 33.75Z" stroke="#29387E" stroke-width="1.5" stroke-linecap="round" stroke-linejoin="round"/>
<path d="M14.5469 14.7048C15.5904 15.7511 16.8303 16.5808 18.1955 17.1463C19.5606 17.7117 21.0241 18.0019 22.5018 18C23.9794 18.0019 25.4429 17.7117 26.808 17.1463C28.1732 16.5808 29.4131 15.7511 30.4566 14.7048M30.4566 30.2951C29.4131 29.2489 28.1732 28.4191 26.808 27.8537C25.4429 27.2882 23.9794 26.998 22.5018 27C21.0241 26.998 19.5606 27.2882 18.1955 27.8537C16.8303 28.4191 15.5904 29.2489 14.5469 30.2951" stroke="#29387E" stroke-width="1.5" stroke-linecap="round" stroke-linejoin="round"/>
</svg>
