<svg width="45" height="45" viewBox="0 0 45 45" fill="none" xmlns="http://www.w3.org/2000/svg">
<rect width="45" height="45" rx="22.5" fill="white" fill-opacity="0.79"/>
<g clip-path="url(#clip0_508_35607)">
<path fill-rule="evenodd" clip-rule="evenodd" d="M17.6878 12.6006C18.8035 12.5493 19.1592 12.5378 22.001 12.5378C24.8429 12.5378 25.1986 12.5502 26.3132 12.6006C27.4279 12.651 28.1888 12.8289 28.8546 13.0866C29.5517 13.3501 30.1842 13.7619 30.7073 14.2945C31.2399 14.8166 31.6507 15.4482 31.9132 16.1463C32.1719 16.812 32.3488 17.5729 32.4002 18.6857C32.4516 19.8032 32.463 20.1589 32.463 22.9998C32.463 25.8416 32.4506 26.1974 32.4002 27.313C32.3498 28.4257 32.1719 29.1866 31.9132 29.8524C31.6507 30.5506 31.2392 31.1831 30.7073 31.706C30.1842 32.2387 29.5517 32.6495 28.8546 32.912C28.1888 33.1707 27.4279 33.3476 26.3151 33.399C25.1986 33.4503 24.8429 33.4618 22.001 33.4618C19.1592 33.4618 18.8035 33.4494 17.6878 33.399C16.5751 33.3486 15.8142 33.1707 15.1484 32.912C14.4503 32.6495 13.8177 32.2379 13.2948 31.706C12.7625 31.1836 12.3506 30.5513 12.0878 29.8533C11.8301 29.1876 11.6532 28.4267 11.6018 27.3139C11.5505 26.1964 11.5391 25.8407 11.5391 22.9998C11.5391 20.158 11.5514 19.8022 11.6018 18.6876C11.6522 17.5729 11.8301 16.812 12.0878 16.1463C12.351 15.4482 12.7632 14.816 13.2957 14.2935C13.8179 13.7614 14.4498 13.3495 15.1475 13.0866C15.8132 12.8289 16.5741 12.652 17.6869 12.6006H17.6878ZM26.2286 14.4838C25.1253 14.4334 24.7944 14.4229 22.001 14.4229C19.2077 14.4229 18.8767 14.4334 17.7734 14.4838C16.7529 14.5304 16.1994 14.7006 15.8304 14.8442C15.3425 15.0344 14.9934 15.2599 14.6272 15.626C14.2801 15.9637 14.013 16.3748 13.8454 16.8291C13.7018 17.1982 13.5316 17.7517 13.485 18.7722C13.4346 19.8755 13.4241 20.2065 13.4241 22.9998C13.4241 25.7931 13.4346 26.1241 13.485 27.2274C13.5316 28.2479 13.7018 28.8014 13.8454 29.1705C14.0128 29.6241 14.2801 30.0359 14.6272 30.3736C14.9649 30.7207 15.3767 30.988 15.8304 31.1554C16.1994 31.299 16.7529 31.4692 17.7734 31.5158C18.8767 31.5662 19.2067 31.5767 22.001 31.5767C24.7953 31.5767 25.1253 31.5662 26.2286 31.5158C27.2491 31.4692 27.8027 31.299 28.1717 31.1554C28.6596 30.9652 29.0086 30.7397 29.3748 30.3736C29.7219 30.0359 29.9892 29.6241 30.1566 29.1705C30.3002 28.8014 30.4704 28.2479 30.5171 27.2274C30.5675 26.1241 30.5779 25.7931 30.5779 22.9998C30.5779 20.2065 30.5675 19.8755 30.5171 18.7722C30.4704 17.7517 30.3002 17.1982 30.1566 16.8291C29.9664 16.3412 29.741 15.9922 29.3748 15.626C29.0371 15.2789 28.626 15.0118 28.1717 14.8442C27.8027 14.7006 27.2491 14.5304 26.2286 14.4838ZM20.6647 26.2249C21.411 26.5356 22.242 26.5775 23.0158 26.3436C23.7895 26.1096 24.458 25.6143 24.9072 24.9421C25.3563 24.27 25.5581 23.4629 25.4782 22.6585C25.3983 21.8541 25.0416 21.1024 24.4691 20.5317C24.1041 20.167 23.6628 19.8877 23.1769 19.7139C22.691 19.5402 22.1726 19.4764 21.6591 19.527C21.1456 19.5777 20.6497 19.7415 20.2071 20.0069C19.7645 20.2722 19.3862 20.6323 19.0995 21.0613C18.8128 21.4904 18.6248 21.9777 18.5491 22.4881C18.4733 22.9985 18.5116 23.5194 18.6613 24.0132C18.811 24.507 19.0683 24.9615 19.4147 25.344C19.7612 25.7264 20.1881 26.0273 20.6647 26.2249ZM18.1986 19.1974C18.6979 18.698 19.2907 18.3019 19.9432 18.0317C20.5956 17.7614 21.2948 17.6223 22.001 17.6223C22.7072 17.6223 23.4065 17.7614 24.0589 18.0317C24.7113 18.3019 25.3041 18.698 25.8035 19.1974C26.3028 19.6967 26.6989 20.2895 26.9692 20.9419C27.2394 21.5944 27.3785 22.2936 27.3785 22.9998C27.3785 23.706 27.2394 24.4052 26.9692 25.0577C26.6989 25.7101 26.3028 26.3029 25.8035 26.8022C24.795 27.8107 23.4272 28.3773 22.001 28.3773C20.5748 28.3773 19.207 27.8107 18.1986 26.8022C17.1901 25.7938 16.6235 24.426 16.6235 22.9998C16.6235 21.5736 17.1901 20.2058 18.1986 19.1974ZM28.5711 18.4232C28.6949 18.3064 28.7939 18.1661 28.8624 18.0104C28.931 17.8547 28.9676 17.6868 28.97 17.5167C28.9725 17.3466 28.9408 17.1778 28.8769 17.0201C28.8129 16.8625 28.718 16.7193 28.5977 16.599C28.4774 16.4787 28.3342 16.3838 28.1766 16.3199C28.019 16.2559 27.8501 16.2242 27.68 16.2267C27.5099 16.2292 27.3421 16.2658 27.1864 16.3343C27.0307 16.4028 26.8903 16.5019 26.7736 16.6256C26.5466 16.8663 26.4223 17.1859 26.4271 17.5167C26.4319 17.8475 26.5655 18.1634 26.7994 18.3973C27.0333 18.6313 27.3492 18.7648 27.68 18.7696C28.0108 18.7745 28.3305 18.6502 28.5711 18.4232Z" fill="#29387E"/>
</g>
<defs>
<clipPath id="clip0_508_35607">
<rect width="21" height="21" fill="white" transform="translate(11.5 12.5)"/>
</clipPath>
</defs>
</svg>
