<svg width="329" height="52" viewBox="0 0 329 52" fill="none" xmlns="http://www.w3.org/2000/svg">
<mask id="path-1-outside-1_1309_28168" maskUnits="userSpaceOnUse" x="-3" y="-3" width="335" height="58" fill="black">
<rect fill="white" x="-3" y="-3" width="335" height="58"/>
<path d="M19.5719 41.008L20.8199 34.288C23.9239 34.288 26.6279 34.208 28.9319 34.048C31.2359 33.856 33.1399 33.584 34.6439 33.232C36.1799 32.848 37.3159 32.352 38.0519 31.744C38.8199 31.136 39.2039 30.4 39.2039 29.536C39.2039 28.384 39.0119 27.008 38.6279 25.408C38.2439 23.776 37.7479 22.128 37.1399 20.464L43.4279 18.64C43.8439 19.728 44.2439 20.928 44.6279 22.24C45.0119 23.52 45.3159 24.816 45.5399 26.128C45.7959 27.408 45.9239 28.608 45.9239 29.728C45.9239 31.712 45.4919 33.424 44.6279 34.864C43.7639 36.272 42.3239 37.44 40.3079 38.368C38.3239 39.264 35.6359 39.92 32.2439 40.336C28.8519 40.784 24.6279 41.008 19.5719 41.008ZM19.5239 41.008C16.0679 41.008 13.1399 40.736 10.7399 40.192C8.37188 39.68 6.43588 38.944 4.93188 37.984C3.45988 36.992 2.38788 35.84 1.71588 34.528C1.04388 33.216 0.707875 31.776 0.707875 30.208C0.707875 29.184 0.787875 28.16 0.947875 27.136C1.13988 26.08 1.36388 25.056 1.61988 24.064C1.90788 23.072 2.16388 22.176 2.38788 21.376L8.38788 22.768C8.25988 23.344 8.11588 23.968 7.95588 24.64C7.79588 25.312 7.66788 25.968 7.57188 26.608C7.47588 27.216 7.42788 27.776 7.42788 28.288C7.42788 29.472 7.84388 30.528 8.67588 31.456C9.53988 32.352 10.9479 33.056 12.8999 33.568C14.8519 34.048 17.4759 34.288 20.7719 34.288L21.7319 39.472L19.5239 41.008ZM27.4439 19.072C26.5159 19.072 25.7159 18.752 25.0439 18.112C24.4039 17.44 24.0839 16.656 24.0839 15.76C24.0839 14.832 24.4039 14.032 25.0439 13.36C25.7159 12.688 26.5159 12.352 27.4439 12.352C28.3399 12.352 29.1079 12.688 29.7479 13.36C30.3879 14.032 30.7079 14.832 30.7079 15.76C30.7079 16.656 30.3879 17.44 29.7479 18.112C29.1079 18.752 28.3399 19.072 27.4439 19.072ZM19.1399 19.024C18.2119 19.024 17.4119 18.704 16.7399 18.064C16.0999 17.392 15.7799 16.608 15.7799 15.712C15.7799 14.784 16.0999 13.984 16.7399 13.312C17.4119 12.64 18.2119 12.304 19.1399 12.304C20.0359 12.304 20.8039 12.64 21.4439 13.312C22.0839 13.984 22.4039 14.784 22.4039 15.712C22.4039 16.608 22.0839 17.392 21.4439 18.064C20.8039 18.704 20.0359 19.024 19.1399 19.024ZM80.9838 40.24C78.7438 40.24 76.8878 40.08 75.4158 39.76C73.9758 39.408 72.8398 38.88 72.0078 38.176C71.1758 37.44 70.5838 36.528 70.2318 35.44C69.8798 34.352 69.6718 33.056 69.6078 31.552L68.5998 4.864H75.3198L76.3278 28.336C76.3918 29.808 76.5518 30.912 76.8078 31.648C77.0638 32.384 77.5438 32.88 78.2478 33.136C78.9838 33.392 80.0558 33.52 81.4638 33.52C82.6798 33.52 83.5438 33.84 84.0558 34.48C84.5998 35.088 84.8718 35.856 84.8718 36.784C84.8718 37.776 84.5358 38.608 83.8638 39.28C83.1918 39.92 82.2318 40.24 80.9838 40.24ZM55.1598 40.24C54.2958 40.24 53.4158 40.16 52.5198 40C51.6558 39.872 51.0478 39.776 50.6958 39.712L51.6078 32.752C53.8158 33.04 55.9598 33.104 58.0398 32.944C60.1518 32.752 62.0398 32.24 63.7038 31.408C65.3998 30.544 66.7438 29.296 67.7358 27.664C68.7278 26 69.2238 23.856 69.2238 21.232L71.8158 28.768C71.4318 30.944 70.7758 32.752 69.8478 34.192C68.9518 35.6 67.8798 36.72 66.6318 37.552C65.4158 38.352 64.1198 38.944 62.7438 39.328C61.3678 39.712 60.0238 39.952 58.7118 40.048C57.3998 40.176 56.2158 40.24 55.1598 40.24ZM65.5758 33.664C65.0958 32.736 64.4078 31.648 63.5118 30.4C62.6158 29.12 61.5118 27.712 60.1998 26.176C58.9198 24.608 57.4478 22.96 55.7838 21.232C54.1198 19.472 52.2798 17.664 50.2638 15.808L54.4398 11.248C57.4158 14.064 59.8318 16.432 61.6878 18.352C63.5438 20.272 65.0158 21.888 66.1038 23.2C67.2238 24.48 68.0718 25.584 68.6478 26.512C69.2558 27.44 69.7678 28.336 70.1838 29.2L65.5758 33.664ZM81.0156 40.24L81.4956 33.52C82.2316 33.52 82.8556 33.344 83.3676 32.992C83.9116 32.608 84.4716 31.984 85.0476 31.12C85.6236 30.224 86.2956 29.024 87.0636 27.52C88.0236 25.6 89.0156 24.096 90.0396 23.008C91.0956 21.92 92.1676 21.152 93.2556 20.704C94.3756 20.224 95.4956 19.984 96.6156 19.984C98.0236 19.984 99.3356 20.288 100.552 20.896C101.768 21.504 102.824 22.336 103.72 23.392C104.616 24.416 105.304 25.6 105.784 26.944C106.296 28.256 106.552 29.616 106.552 31.024C106.552 32.72 106.184 34.256 105.448 35.632C104.744 36.976 103.752 38.048 102.472 38.848C101.224 39.616 99.7836 40 98.1516 40C96.7756 40 95.1756 39.76 93.3516 39.28C91.5276 38.8 89.6076 37.792 87.5916 36.256L90.0396 30.448C91.4796 31.44 92.8236 32.16 94.0716 32.608C95.3516 33.056 96.4076 33.28 97.2396 33.28C97.8796 33.28 98.4076 33.216 98.8236 33.088C99.2396 32.96 99.5436 32.752 99.7356 32.464C99.9276 32.176 100.024 31.792 100.024 31.312C100.024 30.64 99.8636 29.952 99.5436 29.248C99.2236 28.544 98.7916 27.952 98.2476 27.472C97.7356 26.96 97.1276 26.704 96.4236 26.704C95.7516 26.704 95.1756 26.96 94.6956 27.472C94.2476 27.952 93.7996 28.656 93.3516 29.584C92.9356 30.48 92.4236 31.536 91.8156 32.752C91.0796 34.224 90.3596 35.456 89.6556 36.448C88.9516 37.408 88.1996 38.176 87.3996 38.752C86.6316 39.296 85.7196 39.68 84.6636 39.904C83.6396 40.128 82.4236 40.24 81.0156 40.24ZM124.169 40.24C121.193 40.24 118.889 39.936 117.257 39.328C115.657 38.72 114.537 37.776 113.897 36.496C113.257 35.184 112.889 33.536 112.793 31.552L111.785 4.864H118.505L119.513 28.336C119.577 29.808 119.737 30.912 119.993 31.648C120.249 32.384 120.729 32.88 121.433 33.136C122.169 33.392 123.241 33.52 124.649 33.52C125.865 33.52 126.729 33.84 127.241 34.48C127.785 35.088 128.057 35.856 128.057 36.784C128.057 37.776 127.721 38.608 127.049 39.28C126.377 39.92 125.417 40.24 124.169 40.24ZM124.234 40.24L124.714 33.52H131.434C132.554 33.52 133.402 33.456 133.978 33.328C134.586 33.2 135.002 33.008 135.226 32.752C135.45 32.464 135.562 32.128 135.562 31.744C135.562 31.168 135.306 30.496 134.794 29.728C134.314 28.96 133.674 28.16 132.874 27.328C132.106 26.496 131.29 25.664 130.426 24.832C129.562 23.968 128.73 23.168 127.93 22.432C127.162 21.696 126.522 21.056 126.01 20.512C125.53 19.936 125.29 19.52 125.29 19.264C125.29 18.368 125.338 17.664 125.434 17.152C125.53 16.608 125.658 16.176 125.818 15.856C126.01 15.536 126.218 15.264 126.442 15.04C126.986 14.496 127.802 13.888 128.89 13.216C129.978 12.512 131.258 11.776 132.73 11.008C134.234 10.208 135.914 9.376 137.77 8.512C139.626 7.616 141.594 6.688 143.674 5.728L146.41 11.584C144.298 12.512 142.41 13.376 140.746 14.176C139.114 14.944 137.642 15.664 136.33 16.336C135.05 16.976 133.898 17.584 132.874 18.16C131.882 18.736 130.986 19.28 130.186 19.792L130.666 16.24C132.042 17.424 133.29 18.544 134.41 19.6C135.53 20.656 136.57 21.712 137.53 22.768C138.49 23.824 139.386 24.912 140.218 26.032C141.082 27.152 141.914 28.368 142.714 29.68C143.418 30.8 144.138 31.632 144.874 32.176C145.642 32.72 146.378 33.088 147.082 33.28C147.818 33.44 148.474 33.52 149.05 33.52C150.266 33.52 151.13 33.84 151.642 34.48C152.186 35.088 152.458 35.856 152.458 36.784C152.458 37.776 152.122 38.608 151.45 39.28C150.778 39.92 149.818 40.24 148.57 40.24C147.514 40.24 146.378 40.064 145.162 39.712C143.946 39.328 142.81 38.72 141.754 37.888C140.698 37.056 139.898 35.92 139.354 34.48L141.946 34.672C141.466 35.696 140.89 36.576 140.218 37.312C139.578 38.016 138.81 38.592 137.914 39.04C137.018 39.456 135.994 39.76 134.842 39.952C133.69 40.144 132.394 40.24 130.954 40.24H124.234ZM148.609 40.24L149.089 33.52C150.241 33.52 151.233 33.408 152.065 33.184C152.897 32.96 153.601 32.512 154.177 31.84C154.753 31.136 155.233 30.112 155.617 28.768C156.033 27.424 156.401 25.632 156.721 23.392L163.009 24.448C162.945 24.928 162.849 25.488 162.721 26.128C162.625 26.768 162.529 27.424 162.433 28.096C162.369 28.736 162.337 29.344 162.337 29.92C162.337 30.496 162.449 31.008 162.673 31.456C162.897 31.904 163.249 32.288 163.729 32.608C164.241 32.896 164.897 33.12 165.697 33.28C166.529 33.44 167.537 33.52 168.721 33.52C169.937 33.52 170.801 33.84 171.313 34.48C171.825 35.088 172.081 35.856 172.081 36.784C172.081 37.776 171.745 38.608 171.073 39.28C170.433 39.92 169.489 40.24 168.241 40.24C166.801 40.24 165.489 40.128 164.305 39.904C163.153 39.68 162.145 39.312 161.281 38.8C160.449 38.256 159.761 37.552 159.217 36.688C158.705 35.792 158.385 34.704 158.257 33.424H160.561C159.985 34.96 159.249 36.192 158.353 37.12C157.489 38.016 156.513 38.688 155.425 39.136C154.337 39.584 153.201 39.872 152.017 40C150.865 40.16 149.729 40.24 148.609 40.24ZM164.017 19.072C163.089 19.072 162.289 18.752 161.617 18.112C160.977 17.44 160.657 16.656 160.657 15.76C160.657 14.832 160.977 14.032 161.617 13.36C162.289 12.688 163.089 12.352 164.017 12.352C164.913 12.352 165.681 12.688 166.321 13.36C166.961 14.032 167.281 14.832 167.281 15.76C167.281 16.656 166.961 17.44 166.321 18.112C165.681 18.752 164.913 19.072 164.017 19.072ZM155.713 19.024C154.785 19.024 153.985 18.704 153.313 18.064C152.673 17.392 152.353 16.608 152.353 15.712C152.353 14.784 152.673 13.984 153.313 13.312C153.985 12.64 154.785 12.304 155.713 12.304C156.609 12.304 157.377 12.64 158.017 13.312C158.657 13.984 158.977 14.784 158.977 15.712C158.977 16.608 158.657 17.392 158.017 18.064C157.377 18.704 156.609 19.024 155.713 19.024ZM168.25 40.24L168.73 33.52C170.202 33.52 171.258 33.376 171.898 33.088C172.538 32.768 172.922 32.192 173.05 31.36C173.178 30.496 173.21 29.248 173.146 27.616L172.282 4.864H179.05L180.01 28.096C180.074 29.952 179.994 31.632 179.77 33.136C179.578 34.608 179.082 35.872 178.282 36.928C177.514 37.984 176.314 38.8 174.682 39.376C173.082 39.952 170.938 40.24 168.25 40.24ZM186.34 40L185.332 4.864H192.052L193.06 40H186.34ZM208.732 38.656C208.732 37.92 208.796 37.056 208.924 36.064C209.052 35.072 209.292 33.952 209.644 32.704C209.996 31.424 210.524 30 211.228 28.432L217.132 30.496C216.78 31.488 216.476 32.4 216.22 33.232C215.964 34.032 215.772 34.784 215.644 35.488C215.516 36.16 215.452 36.832 215.452 37.504C215.452 38.944 215.804 40.192 216.508 41.248C217.244 42.336 218.236 43.168 219.484 43.744C220.764 44.352 222.236 44.656 223.9 44.656C226.62 44.656 228.7 44.208 230.14 43.312C231.612 42.448 232.604 41.072 233.116 39.184C233.66 37.264 233.868 34.784 233.74 31.744L232.78 4.864H239.548L240.268 27.568C240.332 29.168 240.556 30.4 240.94 31.264C241.324 32.128 241.916 32.72 242.716 33.04C243.548 33.36 244.62 33.52 245.932 33.52C247.148 33.52 248.012 33.84 248.524 34.48C249.036 35.088 249.292 35.856 249.292 36.784C249.292 37.776 248.956 38.608 248.284 39.28C247.612 39.92 246.668 40.24 245.452 40.24C244.748 40.24 243.996 40.144 243.196 39.952C242.396 39.76 241.628 39.456 240.892 39.04C240.156 38.624 239.516 38.08 238.972 37.408C238.428 36.704 238.06 35.84 237.868 34.816L240.46 33.52C240.46 36.752 240.076 39.488 239.308 41.728C238.572 43.968 237.484 45.776 236.044 47.152C234.636 48.528 232.892 49.52 230.812 50.128C228.764 50.768 226.396 51.088 223.708 51.088C221.66 51.088 219.724 50.832 217.9 50.32C216.108 49.808 214.524 49.04 213.148 48.016C211.772 46.992 210.684 45.696 209.884 44.128C209.116 42.592 208.732 40.768 208.732 38.656ZM293.597 40.24C291.965 40.24 290.397 40.096 288.893 39.808C287.389 39.488 286.029 39.072 284.813 38.56C283.629 38.048 282.653 37.472 281.885 36.832L286.205 32.176C287.357 32.656 288.541 33.008 289.757 33.232C290.973 33.424 292.413 33.52 294.077 33.52C295.293 33.52 296.157 33.84 296.669 34.48C297.213 35.088 297.485 35.856 297.485 36.784C297.485 37.776 297.149 38.608 296.477 39.28C295.805 39.92 294.845 40.24 293.597 40.24ZM270.317 40.864C267.341 40.864 264.861 40.736 262.877 40.48C260.925 40.224 259.341 39.856 258.125 39.376C256.909 38.896 255.949 38.32 255.245 37.648C254.541 36.976 253.965 36.24 253.517 35.44L254.861 35.056C254.061 36.592 253.149 37.728 252.125 38.464C251.101 39.2 250.029 39.68 248.909 39.904C247.789 40.128 246.637 40.24 245.453 40.24L245.933 33.52C246.925 33.52 247.709 33.36 248.285 33.04C248.861 32.72 249.325 32.192 249.677 31.456C250.061 30.72 250.413 29.744 250.733 28.528C251.053 27.312 251.437 25.824 251.885 24.064L257.981 25.552C257.757 26.416 257.565 27.168 257.405 27.808C257.277 28.448 257.165 29.008 257.069 29.488C257.005 29.936 256.973 30.304 256.973 30.592C256.973 31.2 257.117 31.744 257.405 32.224C257.693 32.672 258.253 33.04 259.085 33.328C259.917 33.584 261.133 33.792 262.733 33.952C264.365 34.08 266.493 34.144 269.117 34.144C271.901 34.144 274.221 34.048 276.077 33.856C277.933 33.632 279.405 33.328 280.493 32.944C281.613 32.528 282.413 32.032 282.893 31.456C283.373 30.848 283.613 30.16 283.613 29.392C283.613 28.784 283.469 28.224 283.181 27.712C282.925 27.168 282.493 26.72 281.885 26.368C281.277 26.016 280.493 25.84 279.533 25.84C278.381 25.84 277.213 26.128 276.029 26.704C274.877 27.248 273.741 27.984 272.621 28.912C271.501 29.808 270.429 30.816 269.405 31.936C268.413 33.056 267.517 34.176 266.717 35.296L259.517 34.48C260.765 32.464 262.173 30.528 263.741 28.672C265.309 26.816 266.989 25.184 268.781 23.776C270.573 22.336 272.429 21.2 274.349 20.368C276.269 19.536 278.221 19.12 280.205 19.12C282.349 19.12 284.173 19.536 285.677 20.368C287.181 21.2 288.333 22.352 289.133 23.824C289.933 25.296 290.333 26.992 290.333 28.912C290.333 31.248 289.661 33.312 288.317 35.104C287.005 36.896 284.877 38.304 281.933 39.328C279.021 40.352 275.149 40.864 270.317 40.864ZM278.813 14.656C277.821 14.656 276.973 14.32 276.269 13.648C275.597 12.976 275.261 12.144 275.261 11.152C275.261 10.16 275.597 9.312 276.269 8.608C276.973 7.904 277.821 7.552 278.813 7.552C279.773 7.552 280.589 7.904 281.261 8.608C281.965 9.312 282.317 10.16 282.317 11.152C282.317 12.144 281.965 12.976 281.261 13.648C280.589 14.32 279.773 14.656 278.813 14.656ZM293.641 40.24L294.121 33.568C296.777 33.568 298.905 33.552 300.505 33.52C302.137 33.488 303.401 33.424 304.297 33.328C305.225 33.2 305.913 33.056 306.361 32.896C306.809 32.704 307.193 32.496 307.513 32.272C307.897 31.984 308.217 31.6 308.473 31.12C308.761 30.608 308.985 29.936 309.145 29.104C309.305 28.272 309.385 27.232 309.385 25.984C309.385 24.416 309.241 23.104 308.953 22.048C308.697 20.96 308.313 20.144 307.801 19.6C307.321 19.056 306.729 18.784 306.025 18.784C305.513 18.784 305.033 18.96 304.585 19.312C304.137 19.632 303.769 20.08 303.481 20.656C303.193 21.232 303.049 21.888 303.049 22.624C303.049 23.04 303.161 23.408 303.385 23.728C303.609 24.048 303.961 24.288 304.441 24.448C304.921 24.608 305.529 24.688 306.265 24.688C306.969 24.688 307.705 24.608 308.473 24.448C309.273 24.256 310.009 24 310.681 23.68L310.873 29.392C310.361 29.744 309.769 30.064 309.097 30.352C308.425 30.64 307.705 30.864 306.937 31.024C306.201 31.152 305.449 31.216 304.681 31.216C302.985 31.216 301.513 30.992 300.265 30.544C299.049 30.064 298.105 29.296 297.433 28.24C296.761 27.184 296.425 25.744 296.425 23.92C296.425 22.512 296.665 21.12 297.145 19.744C297.625 18.336 298.313 17.072 299.209 15.952C300.105 14.8 301.161 13.888 302.377 13.216C303.593 12.512 304.937 12.16 306.409 12.16C308.585 12.16 310.377 12.8 311.785 14.08C313.225 15.328 314.281 17.024 314.953 19.168C315.657 21.28 316.009 23.632 316.009 26.224C316.009 28.496 315.673 30.48 315.001 32.176C314.329 33.84 313.529 35.152 312.601 36.112C311.833 36.912 310.953 37.584 309.961 38.128C308.969 38.672 307.753 39.104 306.313 39.424C304.905 39.712 303.161 39.92 301.081 40.048C299.033 40.176 296.553 40.24 293.641 40.24ZM306.313 7.696C305.321 7.696 304.473 7.36 303.769 6.688C303.097 6.016 302.761 5.184 302.761 4.192C302.761 3.2 303.097 2.352 303.769 1.648C304.473 0.943998 305.321 0.591998 306.313 0.591998C307.273 0.591998 308.089 0.943998 308.761 1.648C309.465 2.352 309.817 3.2 309.817 4.192C309.817 5.184 309.465 6.016 308.761 6.688C308.089 7.36 307.273 7.696 306.313 7.696ZM321.715 40L320.707 4.864H327.427L328.435 40H321.715Z"/>
</mask>
<path d="M19.5719 41.008L16.6223 40.4602L15.9634 44.008H19.5719V41.008ZM20.8199 34.288V31.288H18.3257L17.8703 33.7402L20.8199 34.288ZM28.9319 34.048L29.1397 37.0408L29.1604 37.0394L29.181 37.0376L28.9319 34.048ZM34.6439 33.232L35.3275 36.1531L35.3495 36.1479L35.3715 36.1424L34.6439 33.232ZM38.0519 31.744L36.1898 29.3919L36.1653 29.4112L36.1412 29.4311L38.0519 31.744ZM38.6279 25.408L35.7076 26.0951L35.7107 26.1081L38.6279 25.408ZM37.1399 20.464L36.3041 17.5828L33.22 18.4774L34.3221 21.4936L37.1399 20.464ZM43.4279 18.64L46.23 17.5686L45.2439 14.9895L42.5921 15.7588L43.4279 18.64ZM44.6279 22.24L41.7487 23.0827L41.7515 23.0924L41.7544 23.102L44.6279 22.24ZM45.5399 26.128L42.5827 26.6329L42.5898 26.6747L42.5981 26.7164L45.5399 26.128ZM44.6279 34.864L47.1848 36.433L47.1927 36.4203L47.2004 36.4075L44.6279 34.864ZM40.3079 38.368L41.5426 41.1021L41.5525 41.0977L41.5623 41.0931L40.3079 38.368ZM32.2439 40.336L31.8787 37.3583L31.8649 37.36L31.8511 37.3618L32.2439 40.336ZM19.5239 41.008V44.008H20.4647L21.2371 43.4707L19.5239 41.008ZM10.7399 40.192L11.4031 37.2662L11.3885 37.2629L11.3739 37.2598L10.7399 40.192ZM4.93188 37.984L3.25531 40.4718L3.28629 40.4927L3.31777 40.5128L4.93188 37.984ZM1.71588 34.528L4.38601 33.1604H4.386L1.71588 34.528ZM0.947875 27.136L-2.00373 26.5993L-2.0104 26.636L-2.01616 26.6729L0.947875 27.136ZM1.61988 24.064L-1.26116 23.2276L-1.27371 23.2708L-1.28496 23.3144L1.61988 24.064ZM2.38788 21.376L3.06587 18.4536L0.272235 17.8055L-0.501017 20.5671L2.38788 21.376ZM8.38787 22.768L11.3164 23.4188L11.9612 20.5173L9.06587 19.8456L8.38787 22.768ZM7.95588 24.64L10.8743 25.3349L7.95588 24.64ZM7.57188 26.608L10.5352 27.0759L10.537 27.0645L10.5387 27.053L7.57188 26.608ZM8.67588 31.456L6.44217 33.4586L6.47853 33.4992L6.51634 33.5384L8.67588 31.456ZM12.8999 33.568L12.1387 36.4698L12.1611 36.4757L12.1835 36.4812L12.8999 33.568ZM20.7719 34.288L23.7217 33.7417L23.2673 31.288H20.7719V34.288ZM21.7319 39.472L23.4451 41.9347L25.0342 40.8292L24.6817 38.9257L21.7319 39.472ZM25.0439 18.112L22.8715 20.181L22.9219 20.2339L22.9749 20.2844L25.0439 18.112ZM25.0439 13.36L22.9226 11.2387L22.8967 11.2645L22.8715 11.291L25.0439 13.36ZM29.7479 13.36L27.5755 15.429L27.5755 15.429L29.7479 13.36ZM29.7479 18.112L31.8692 20.2333L31.8951 20.2075L31.9203 20.181L29.7479 18.112ZM16.7399 18.064L14.5675 20.133L14.6179 20.186L14.6709 20.2364L16.7399 18.064ZM16.7399 13.312L14.6186 11.1907L14.5927 11.2165L14.5675 11.243L16.7399 13.312ZM21.4439 13.312L23.6163 11.243L23.6163 11.243L21.4439 13.312ZM21.4439 18.064L23.5652 20.1853L23.5911 20.1595L23.6163 20.133L21.4439 18.064ZM22.5214 41.5558L23.7694 34.8358L17.8703 33.7402L16.6223 40.4602L22.5214 41.5558ZM20.8199 37.288C23.9714 37.288 26.7477 37.2069 29.1397 37.0408L28.724 31.0552C26.508 31.2091 23.8764 31.288 20.8199 31.288V37.288ZM29.181 37.0376C31.5671 36.8388 33.6291 36.5506 35.3275 36.1531L33.9602 30.3109C32.6506 30.6174 30.9047 30.8732 28.6827 31.0584L29.181 37.0376ZM35.3715 36.1424C37.091 35.7125 38.7265 35.078 39.9625 34.0569L36.1412 29.4311C35.9053 29.626 35.2687 29.9835 33.9163 30.3216L35.3715 36.1424ZM39.914 34.0961C41.2919 33.0053 42.2039 31.4472 42.2039 29.536H36.2039C36.2039 29.528 36.205 29.5004 36.2147 29.4599C36.2246 29.4188 36.2395 29.3801 36.2561 29.3483C36.2912 29.2811 36.3018 29.3032 36.1898 29.3919L39.914 34.0961ZM42.2039 29.536C42.2039 28.0715 41.9627 26.4483 41.545 24.7079L35.7107 26.1081C36.061 27.5677 36.2039 28.6965 36.2039 29.536H42.2039ZM41.5481 24.7209C41.1353 22.9665 40.6043 21.2042 39.9577 19.4344L34.3221 21.4936C34.8914 23.0518 35.3524 24.5855 35.7076 26.0951L41.5481 24.7209ZM37.9757 23.3452L44.2637 21.5212L42.5921 15.7588L36.3041 17.5828L37.9757 23.3452ZM40.6257 19.7114C41.0086 20.7127 41.3835 21.8351 41.7487 23.0827L47.5071 21.3973C47.1042 20.0209 46.6792 18.7433 46.23 17.5686L40.6257 19.7114ZM41.7544 23.102C42.1034 24.2653 42.3793 25.442 42.5827 26.6329L48.4971 25.6231C48.2524 24.19 47.9204 22.7747 47.5014 21.378L41.7544 23.102ZM42.5981 26.7164C42.8216 27.8336 42.9239 28.8348 42.9239 29.728H48.9239C48.9239 28.3812 48.7702 26.9824 48.4816 25.5396L42.5981 26.7164ZM42.9239 29.728C42.9239 31.2678 42.5925 32.4253 42.0554 33.3205L47.2004 36.4075C48.3912 34.4227 48.9239 32.1562 48.9239 29.728H42.9239ZM42.0709 33.295C41.6072 34.0506 40.7115 34.8796 39.0534 35.6429L41.5623 41.0931C43.9363 40.0004 45.9206 38.4934 47.1848 36.433L42.0709 33.295ZM39.0731 35.6339C37.4756 36.3553 35.1207 36.9607 31.8787 37.3583L32.6091 43.3137C36.151 42.8793 39.1721 42.1727 41.5426 41.1021L39.0731 35.6339ZM31.8511 37.3618C28.6348 37.7866 24.5522 38.008 19.5719 38.008V44.008C24.7035 44.008 29.0689 43.7814 32.6367 43.3102L31.8511 37.3618ZM19.5239 38.008C16.2089 38.008 13.5178 37.7456 11.4031 37.2662L10.0767 43.1178C12.762 43.7264 15.9269 44.008 19.5239 44.008V38.008ZM11.3739 37.2598C9.23758 36.7979 7.66362 36.1686 6.54598 35.4552L3.31777 40.5128C5.20813 41.7194 7.50617 42.5621 10.1059 43.1242L11.3739 37.2598ZM6.60844 35.4962C5.47145 34.73 4.78396 33.9373 4.38601 33.1604L-0.954255 35.8956C-0.0082081 37.7427 1.4483 39.254 3.25531 40.4718L6.60844 35.4962ZM4.386 33.1604C3.94456 32.2985 3.70788 31.3315 3.70788 30.208H-2.29212C-2.29212 32.2205 -1.85681 34.1335 -0.954255 35.8956L4.386 33.1604ZM3.70788 30.208C3.70788 29.3409 3.77556 28.4718 3.91191 27.5991L-2.01616 26.6729C-2.19981 27.8482 -2.29212 29.0271 -2.29212 30.208H3.70788ZM3.89948 27.6727C4.07909 26.6848 4.28771 25.732 4.52471 24.8136L-1.28496 23.3144C-1.55996 24.38 -1.79934 25.4752 -2.00373 26.5993L3.89948 27.6727ZM4.50091 24.9004C4.79097 23.9014 5.04966 22.996 5.27677 22.1849L-0.501017 20.5671C-0.721915 21.356 -0.975216 22.2426 -1.26116 23.2276L4.50091 24.9004ZM1.70988 24.2984L7.70988 25.6904L9.06587 19.8456L3.06587 18.4536L1.70988 24.2984ZM5.45931 22.1172C5.33508 22.6763 5.19454 23.2854 5.03746 23.9451L10.8743 25.3349C11.0372 24.6506 11.1847 24.0117 11.3164 23.4188L5.45931 22.1172ZM5.03746 23.9451C4.8591 24.6942 4.71446 25.4337 4.60507 26.163L10.5387 27.053C10.6213 26.5023 10.7326 25.9298 10.8743 25.3349L5.03746 23.9451ZM4.60859 26.1401C4.49287 26.873 4.42788 27.5917 4.42788 28.288H10.4279C10.4279 27.9603 10.4589 27.559 10.5352 27.0759L4.60859 26.1401ZM4.42788 28.288C4.42788 30.2527 5.14518 32.012 6.44217 33.4586L10.9096 29.4534C10.5426 29.044 10.4279 28.6913 10.4279 28.288H4.42788ZM6.51634 33.5384C7.93115 35.0056 9.95245 35.8964 12.1387 36.4698L13.661 30.6662C11.9433 30.2156 11.1486 29.6984 10.8354 29.3736L6.51634 33.5384ZM12.1835 36.4812C14.4708 37.0437 17.367 37.288 20.7719 37.288V31.288C17.5847 31.288 15.2329 31.0523 13.6162 30.6548L12.1835 36.4812ZM17.822 34.8343L18.782 40.0183L24.6817 38.9257L23.7217 33.7417L17.822 34.8343ZM20.0187 37.0093L17.8107 38.5453L21.2371 43.4707L23.4451 41.9347L20.0187 37.0093ZM27.4439 16.072C27.3319 16.072 27.2812 16.0542 27.262 16.0466C27.2429 16.0389 27.1939 16.0168 27.1128 15.9396L22.9749 20.2844C24.2047 21.4557 25.7455 22.072 27.4439 22.072V16.072ZM27.2163 16.043C27.1298 15.9522 27.1069 15.8997 27.1014 15.8863C27.0967 15.8748 27.0839 15.8422 27.0839 15.76H21.0839C21.0839 17.4563 21.7212 18.9732 22.8715 20.181L27.2163 16.043ZM27.0839 15.76C27.0839 15.648 27.1017 15.5973 27.1093 15.5782C27.117 15.559 27.1391 15.51 27.2163 15.429L22.8715 11.291C21.7002 12.5209 21.0839 14.0617 21.0839 15.76H27.0839ZM27.1652 15.4813C27.2525 15.3941 27.301 15.3735 27.3096 15.3699C27.3167 15.3669 27.3507 15.352 27.4439 15.352V9.352C25.699 9.352 24.142 10.0192 22.9226 11.2387L27.1652 15.4813ZM27.4439 15.352C27.4795 15.352 27.4961 15.3552 27.4981 15.3556C27.4996 15.3559 27.4953 15.3551 27.4894 15.3525C27.4837 15.3499 27.486 15.35 27.4975 15.3583C27.5097 15.367 27.5363 15.3878 27.5755 15.429L31.9203 11.291C30.7368 10.0484 29.1933 9.352 27.4439 9.352V15.352ZM27.5755 15.429C27.6527 15.51 27.6748 15.559 27.6824 15.5782C27.6901 15.5973 27.7079 15.648 27.7079 15.76H33.7079C33.7079 14.0617 33.0916 12.5209 31.9203 11.291L27.5755 15.429ZM27.7079 15.76C27.7079 15.8422 27.695 15.8748 27.6903 15.8863C27.6849 15.8997 27.662 15.9522 27.5755 16.043L31.9203 20.181C33.0705 18.9732 33.7079 17.4563 33.7079 15.76H27.7079ZM27.6266 15.9907C27.5907 16.0265 27.566 16.045 27.5539 16.0533C27.5476 16.0576 27.5434 16.06 27.5413 16.0611C27.5393 16.0623 27.5383 16.0627 27.538 16.0628C27.5378 16.0629 27.5372 16.0631 27.5358 16.0635C27.5344 16.0639 27.5311 16.0649 27.5253 16.066C27.5144 16.0681 27.4886 16.072 27.4439 16.072V22.072C29.1446 22.072 30.673 21.4295 31.8692 20.2333L27.6266 15.9907ZM19.1399 16.024C19.0279 16.024 18.9772 16.0062 18.958 15.9986C18.9389 15.9909 18.8899 15.9688 18.8088 15.8916L14.6709 20.2364C15.9007 21.4077 17.4415 22.024 19.1399 22.024V16.024ZM18.9123 15.995C18.8258 15.9042 18.8029 15.8517 18.7974 15.8383C18.7927 15.8268 18.7799 15.7942 18.7799 15.712H12.7799C12.7799 17.4083 13.4172 18.9252 14.5675 20.133L18.9123 15.995ZM18.7799 15.712C18.7799 15.6 18.7977 15.5493 18.8053 15.5302C18.813 15.511 18.8351 15.462 18.9123 15.381L14.5675 11.243C13.3962 12.4729 12.7799 14.0137 12.7799 15.712H18.7799ZM18.8612 15.4333C18.9485 15.3461 18.997 15.3255 19.0056 15.3219C19.0127 15.3189 19.0467 15.304 19.1399 15.304V9.304C17.395 9.304 15.838 9.97125 14.6186 11.1907L18.8612 15.4333ZM19.1399 15.304C19.1755 15.304 19.1921 15.3072 19.1941 15.3076C19.1956 15.3079 19.1913 15.3071 19.1854 15.3045C19.1797 15.302 19.182 15.302 19.1935 15.3103C19.2057 15.319 19.2323 15.3398 19.2715 15.381L23.6163 11.243C22.4328 10.0004 20.8893 9.304 19.1399 9.304V15.304ZM19.2715 15.381C19.3487 15.462 19.3708 15.511 19.3784 15.5302C19.3861 15.5493 19.4039 15.6 19.4039 15.712H25.4039C25.4039 14.0137 24.7876 12.4729 23.6163 11.243L19.2715 15.381ZM19.4039 15.712C19.4039 15.7942 19.391 15.8268 19.3863 15.8383C19.3809 15.8517 19.358 15.9042 19.2715 15.995L23.6163 20.133C24.7665 18.9252 25.4039 17.4083 25.4039 15.712H19.4039ZM19.3226 15.9427C19.2867 15.9785 19.262 15.997 19.2499 16.0053C19.2436 16.0096 19.2394 16.012 19.2373 16.0131C19.2353 16.0143 19.2343 16.0147 19.234 16.0148C19.2338 16.0149 19.2332 16.0151 19.2318 16.0155C19.2304 16.0159 19.2271 16.0169 19.2213 16.018C19.2104 16.0201 19.1846 16.024 19.1399 16.024V22.024C20.8406 22.024 22.369 21.3815 23.5652 20.1853L19.3226 15.9427ZM75.4157 39.76L74.7034 42.6742L74.7408 42.6833L74.7785 42.6915L75.4157 39.76ZM72.0078 38.176L70.02 40.423L70.0447 40.4449L70.0699 40.4662L72.0078 38.176ZM70.2318 35.44L73.0861 34.5165V34.5165L70.2318 35.44ZM69.6077 31.552L66.6099 31.6652L66.6102 31.6724L66.6105 31.6795L69.6077 31.552ZM68.5998 4.864V1.864H65.4843L65.6019 4.97723L68.5998 4.864ZM75.3197 4.864L78.317 4.73528L78.1937 1.864H75.3197V4.864ZM76.3278 28.336L73.3305 28.4647L73.3306 28.4663L76.3278 28.336ZM76.8078 31.648L79.6412 30.6624V30.6624L76.8078 31.648ZM78.2477 33.136L77.2225 35.9554L77.2423 35.9626L77.2622 35.9695L78.2477 33.136ZM84.0557 34.48L81.7131 36.3541L81.7648 36.4187L81.82 36.4804L84.0557 34.48ZM83.8638 39.28L85.9327 41.4524L85.9592 41.4272L85.9851 41.4013L83.8638 39.28ZM52.5197 40L53.0471 37.0467L53.0034 37.0389L52.9594 37.0324L52.5197 40ZM50.6958 39.712L47.7212 39.3222L47.3503 42.1529L50.1591 42.6636L50.6958 39.712ZM51.6077 32.752L51.9958 29.7772L49.0227 29.3894L48.6332 32.3622L51.6077 32.752ZM58.0397 32.944L58.2698 35.9352L58.2906 35.9336L58.3114 35.9317L58.0397 32.944ZM63.7038 31.408L65.0454 34.0913L65.0555 34.0862L65.0655 34.0811L63.7038 31.408ZM67.7357 27.664L70.2993 29.2222L70.306 29.2112L70.3126 29.2002L67.7357 27.664ZM69.2238 21.232L72.0606 20.2563L66.2238 21.232H69.2238ZM71.8158 28.768L74.7701 29.2894L74.9049 28.5256L74.6526 27.7923L71.8158 28.768ZM69.8477 34.192L67.326 32.5669L67.3214 32.5741L67.3168 32.5814L69.8477 34.192ZM66.6318 37.552L68.2806 40.0583L68.2882 40.0532L68.2959 40.0481L66.6318 37.552ZM62.7438 39.328L61.9374 36.4384L62.7438 39.328ZM58.7118 40.048L58.4928 37.056L58.4566 37.0587L58.4205 37.0622L58.7118 40.048ZM65.5758 33.664L62.9111 35.0423L64.7649 38.6264L67.6631 35.8187L65.5758 33.664ZM63.5117 30.4L61.0541 32.1204L61.0643 32.1351L61.0748 32.1496L63.5117 30.4ZM60.1997 26.176L57.8758 28.0731L57.8969 28.099L57.9186 28.1245L60.1997 26.176ZM55.7837 21.232L53.6038 23.293L53.6133 23.303L53.6228 23.3129L55.7837 21.232ZM50.2638 15.808L48.0513 13.7819L46.0305 15.9885L48.2318 18.0151L50.2638 15.808ZM54.4398 11.248L56.5017 9.06891L54.2868 6.97307L52.2273 9.22188L54.4398 11.248ZM61.6878 18.352L63.8447 16.2669L61.6878 18.352ZM66.1038 23.2L63.7945 25.115L63.8198 25.1456L63.846 25.1755L66.1038 23.2ZM68.6478 26.512L66.0988 28.0941L66.1182 28.1253L66.1384 28.1561L68.6478 26.512ZM70.1838 29.2L72.2711 31.3547L73.8257 29.8487L72.8868 27.8986L70.1838 29.2ZM80.9837 37.24C78.8651 37.24 77.2411 37.0867 76.053 36.8285L74.7785 42.6915C76.5344 43.0733 78.6224 43.24 80.9837 43.24V37.24ZM76.1281 36.8458C74.9851 36.5664 74.3189 36.2017 73.9456 35.8858L70.0699 40.4662C71.3606 41.5583 72.9664 42.2496 74.7034 42.6742L76.1281 36.8458ZM73.9955 35.929C73.5778 35.5595 73.2779 35.1095 73.0861 34.5165L67.3774 36.3635C67.8896 37.9465 68.7737 39.3205 70.02 40.423L73.9955 35.929ZM73.0861 34.5165C72.8389 33.7527 72.6609 32.738 72.605 31.4245L66.6105 31.6795C66.6826 33.374 66.9206 34.9513 67.3774 36.3635L73.0861 34.5165ZM72.6056 31.4388L71.5976 4.75077L65.6019 4.97723L66.6099 31.6652L72.6056 31.4388ZM68.5998 7.864H75.3197V1.864H68.5998V7.864ZM72.3225 4.99271L73.3305 28.4647L79.325 28.2073L78.317 4.73528L72.3225 4.99271ZM73.3306 28.4663C73.3981 30.0194 73.5717 31.4761 73.9743 32.6336L79.6412 30.6624C79.5318 30.3479 79.3854 29.5966 79.3249 28.2057L73.3306 28.4663ZM73.9743 32.6336C74.5129 34.182 75.6321 35.377 77.2225 35.9554L79.273 30.3166C79.3114 30.3306 79.4128 30.3796 79.5156 30.4857C79.6157 30.5892 79.6445 30.6719 79.6412 30.6624L73.9743 32.6336ZM77.2622 35.9695C78.4743 36.3911 79.9453 36.52 81.4638 36.52V30.52C80.1662 30.52 79.4932 30.3929 79.2333 30.3025L77.2622 35.9695ZM81.4638 36.52C81.638 36.52 81.7656 36.5316 81.8536 36.5451C81.9413 36.5586 81.9799 36.5726 81.9818 36.5732C81.9821 36.5733 81.9455 36.5597 81.8892 36.5204C81.8311 36.4799 81.7689 36.4238 81.7131 36.3541L86.3984 32.6059C85.0838 30.9627 83.1374 30.52 81.4638 30.52V36.52ZM81.82 36.4804C81.8318 36.4936 81.8345 36.4984 81.8399 36.5135C81.8473 36.5346 81.8717 36.6144 81.8717 36.784H87.8717C87.8717 35.2265 87.3955 33.7136 86.2915 32.4796L81.82 36.4804ZM81.8717 36.784C81.8717 36.9357 81.8474 37.0055 81.838 37.0286C81.8297 37.0492 81.8106 37.0905 81.7424 37.1587L85.9851 41.4013C87.2466 40.1398 87.8717 38.5328 87.8717 36.784H81.8717ZM81.7948 37.1076C81.7948 37.1076 81.7948 37.1076 81.7948 37.1076C81.7948 37.1076 81.7948 37.1076 81.7948 37.1076C81.7948 37.1076 81.7946 37.1077 81.7941 37.1081C81.7933 37.1087 81.7905 37.1108 81.7847 37.1142C81.7738 37.1206 81.7453 37.1359 81.6911 37.1539C81.5787 37.1914 81.3576 37.24 80.9837 37.24V43.24C82.7305 43.24 84.5332 42.7853 85.9327 41.4524L81.7948 37.1076ZM55.1598 37.24C54.4817 37.24 53.7783 37.1773 53.0471 37.0467L51.9924 42.9533C53.0532 43.1427 54.1098 43.24 55.1598 43.24V37.24ZM52.9594 37.0324C52.095 36.9043 51.5308 36.8146 51.2324 36.7604L50.1591 42.6636C50.5647 42.7374 51.2165 42.8397 52.0801 42.9676L52.9594 37.0324ZM53.6703 40.1018L54.5823 33.1418L48.6332 32.3622L47.7212 39.3222L53.6703 40.1018ZM51.2197 35.7268C53.619 36.0397 55.9705 36.112 58.2698 35.9352L57.8097 29.9528C55.949 30.096 54.0125 30.0403 51.9958 29.7772L51.2197 35.7268ZM58.3114 35.9317C60.7443 35.7105 63.0034 35.1123 65.0454 34.0913L62.3621 28.7247C61.0761 29.3677 59.5592 29.7935 57.7681 29.9563L58.3114 35.9317ZM65.0655 34.0811C67.2596 32.9634 69.019 31.3285 70.2993 29.2222L65.1722 26.1058C64.4685 27.2635 63.5399 28.1246 62.342 28.7349L65.0655 34.0811ZM70.3126 29.2002C71.6629 26.9351 72.2238 24.212 72.2238 21.232H66.2238C66.2238 23.5 65.7925 25.0649 65.1589 26.1278L70.3126 29.2002ZM66.3869 22.2077L68.9789 29.7437L74.6526 27.7923L72.0606 20.2563L66.3869 22.2077ZM68.8614 28.2466C68.5275 30.1386 67.985 31.5443 67.326 32.5669L72.3695 35.8171C73.5665 33.9597 74.336 31.7494 74.7701 29.2894L68.8614 28.2466ZM67.3168 32.5814C66.6196 33.6769 65.8309 34.4803 64.9677 35.0558L68.2959 40.0481C69.9286 38.9597 71.2839 37.5231 72.3787 35.8026L67.3168 32.5814ZM64.9829 35.0457C64.0212 35.6784 63.0087 36.1394 61.9374 36.4384L63.5501 42.2176C65.2308 41.7486 66.8103 41.0256 68.2806 40.0583L64.9829 35.0457ZM61.9374 36.4384C60.737 36.7734 59.5899 36.9757 58.4928 37.056L58.9307 43.04C60.4576 42.9283 61.9985 42.6506 63.5501 42.2176L61.9374 36.4384ZM58.4205 37.0622C57.1827 37.1829 56.0981 37.24 55.1598 37.24V43.24C56.3334 43.24 57.6168 43.1691 59.0031 43.0338L58.4205 37.0622ZM68.2404 32.2857C67.6705 31.1839 66.894 29.967 65.9487 28.6504L61.0748 32.1496C61.9215 33.329 62.521 34.2881 62.9111 35.0423L68.2404 32.2857ZM65.9694 28.6796C65.0051 27.3019 63.8383 25.8168 62.4809 24.2275L57.9186 28.1245C59.1852 29.6072 60.2264 30.9381 61.0541 32.1204L65.9694 28.6796ZM62.5237 24.2789C61.1835 22.6371 59.6555 20.9277 57.9447 19.1511L53.6228 23.3129C55.24 24.9923 56.656 26.5789 57.8758 28.0731L62.5237 24.2789ZM57.9637 19.171C56.2464 17.3546 54.3562 15.4979 52.2957 13.6009L48.2318 18.0151C50.2033 19.8301 51.9931 21.5894 53.6038 23.293L57.9637 19.171ZM52.4762 17.8341L56.6522 13.2741L52.2273 9.22188L48.0513 13.7819L52.4762 17.8341ZM52.3778 13.4271C55.3365 16.2267 57.7174 18.5612 59.5308 20.4371L63.8447 16.2669C61.9461 14.3028 59.495 11.9013 56.5017 9.06891L52.3778 13.4271ZM59.5308 20.4371C61.3598 22.3292 62.7742 23.8846 63.7945 25.115L68.413 21.285C67.2573 19.8913 65.7277 18.2148 63.8447 16.2669L59.5308 20.4371ZM63.846 25.1755C64.9107 26.3923 65.6426 27.3591 66.0988 28.0941L71.1967 24.9299C70.5009 23.8089 69.5368 22.5677 68.3615 21.2245L63.846 25.1755ZM66.1384 28.1561C66.6853 28.9909 67.1297 29.7724 67.4807 30.5014L72.8868 27.8986C72.4058 26.8996 71.8262 25.8891 71.1571 24.8679L66.1384 28.1561ZM68.0964 27.0453L63.4884 31.5093L67.6631 35.8187L72.2711 31.3547L68.0964 27.0453ZM81.0156 40.24L78.0232 40.0263L77.7937 43.24H81.0156V40.24ZM81.4956 33.52V30.52H78.7023L78.5033 33.3063L81.4956 33.52ZM83.3676 32.992L85.0672 35.4641L85.0825 35.4536L85.0977 35.4429L83.3676 32.992ZM85.0476 31.12L87.5438 32.7841L87.5576 32.7633L87.5712 32.7423L85.0476 31.12ZM87.0636 27.52L89.7354 28.8843L89.7412 28.873L89.7469 28.8616L87.0636 27.52ZM90.0396 23.008L87.8869 20.9186L87.8708 20.9351L87.855 20.9519L90.0396 23.008ZM93.2556 20.704L94.3979 23.478L94.4177 23.4699L94.4374 23.4614L93.2556 20.704ZM100.552 20.896L101.893 18.2127V18.2127L100.552 20.896ZM103.72 23.392L101.432 25.3329L101.447 25.3503L101.462 25.3675L103.72 23.392ZM105.784 26.944L102.958 27.953L102.973 27.994L102.989 28.0346L105.784 26.944ZM105.448 35.632L102.802 34.217L102.796 34.2285L102.79 34.24L105.448 35.632ZM102.472 38.848L104.044 41.403L104.053 41.3975L104.062 41.392L102.472 38.848ZM93.3516 39.28L92.5881 42.1812L93.3516 39.28ZM87.5916 36.256L84.8271 35.0908L83.9241 37.2333L85.7735 38.6423L87.5916 36.256ZM90.0396 30.448L91.7415 27.9775L88.7066 25.8867L87.2751 29.2828L90.0396 30.448ZM94.0716 32.608L93.058 35.4316L93.0693 35.4356L93.0806 35.4396L94.0716 32.608ZM98.8236 33.088L97.9414 30.2207L98.8236 33.088ZM99.5436 29.248L96.8125 30.4894L96.8125 30.4894L99.5436 29.248ZM98.2476 27.472L96.1263 29.5933L96.1925 29.6595L96.2628 29.7215L98.2476 27.472ZM94.6956 27.472L92.507 25.4202L92.5025 25.425L94.6956 27.472ZM93.3516 29.584L90.65 28.2798L90.6401 28.3001L90.6306 28.3207L93.3516 29.584ZM91.8156 32.752L89.1323 31.4104L91.8156 32.752ZM89.6556 36.448L92.0748 38.2221L92.0886 38.2033L92.1021 38.1842L89.6556 36.448ZM87.3996 38.752L89.1337 41.2001L89.1431 41.1934L89.1525 41.1866L87.3996 38.752ZM84.6636 39.904L84.0411 36.9693L84.0318 36.9713L84.0225 36.9733L84.6636 39.904ZM84.008 40.4537L84.488 33.7337L78.5033 33.3063L78.0232 40.0263L84.008 40.4537ZM81.4956 36.52C82.724 36.52 83.9684 36.2196 85.0672 35.4641L81.668 30.5199C81.694 30.502 81.7113 30.4978 81.7012 30.5007C81.6872 30.5046 81.6248 30.52 81.4956 30.52V36.52ZM85.0977 35.4429C86.0637 34.761 86.8648 33.8026 87.5438 32.7841L82.5515 29.4559C82.0785 30.1654 81.7596 30.455 81.6376 30.5411L85.0977 35.4429ZM87.5712 32.7423C88.2224 31.7292 88.9451 30.4321 89.7354 28.8843L84.3918 26.1557C83.6461 27.6159 83.0248 28.7188 82.5241 29.4977L87.5712 32.7423ZM89.7469 28.8616C90.6281 27.0992 91.4667 25.869 92.2242 25.0641L87.855 20.9519C86.5646 22.323 85.4191 24.1008 84.3803 26.1784L89.7469 28.8616ZM92.1924 25.0974C93.0412 24.2228 93.7828 23.7313 94.3979 23.478L92.1134 17.93C90.5525 18.5727 89.15 19.6172 87.8869 20.9186L92.1924 25.0974ZM94.4374 23.4614C95.2171 23.1273 95.9365 22.984 96.6156 22.984V16.984C95.0548 16.984 93.5342 17.3207 92.0739 17.9466L94.4374 23.4614ZM96.6156 22.984C97.575 22.984 98.4256 23.1871 99.21 23.5793L101.893 18.2127C100.246 17.3889 98.4722 16.984 96.6156 16.984V22.984ZM99.21 23.5793C100.057 24.0028 100.793 24.5798 101.432 25.3329L106.007 21.4511C104.854 20.0922 103.478 19.0052 101.893 18.2127L99.21 23.5793ZM101.462 25.3675C102.098 26.0941 102.599 26.9464 102.958 27.953L108.609 25.935C108.008 24.2536 107.134 22.7379 105.977 21.4165L101.462 25.3675ZM102.989 28.0346C103.365 28.9991 103.552 29.9892 103.552 31.024H109.552C109.552 29.2428 109.226 27.5129 108.578 25.8534L102.989 28.0346ZM103.552 31.024C103.552 32.2703 103.286 33.3135 102.802 34.217L108.093 37.047C109.082 35.1985 109.552 33.1697 109.552 31.024H103.552ZM102.79 34.24C102.332 35.1146 101.707 35.7879 100.882 36.304L104.062 41.392C105.796 40.3081 107.155 38.8374 108.105 37.024L102.79 34.24ZM100.899 36.293C100.177 36.7378 99.2934 37 98.1516 37V43C100.274 43 102.271 42.4942 104.044 41.403L100.899 36.293ZM98.1516 37C97.1085 37 95.775 36.8156 94.1151 36.3788L92.5881 42.1812C94.5763 42.7044 96.4427 43 98.1516 43V37ZM94.1151 36.3788C92.78 36.0274 91.2134 35.2439 89.4098 33.8697L85.7735 38.6423C88.0019 40.3401 90.2752 41.5726 92.5881 42.1812L94.1151 36.3788ZM90.3561 37.4212L92.8041 31.6132L87.2751 29.2828L84.8271 35.0908L90.3561 37.4212ZM88.3377 32.9185C89.9275 34.0137 91.5031 34.8734 93.058 35.4316L95.0852 29.7844C94.1441 29.4466 93.0317 28.8663 91.7415 27.9775L88.3377 32.9185ZM93.0806 35.4396C94.5047 35.938 95.9249 36.28 97.2396 36.28V30.28C96.8904 30.28 96.1986 30.174 95.0627 29.7764L93.0806 35.4396ZM97.2396 36.28C98.0519 36.28 98.9039 36.2021 99.7059 35.9553L97.9414 30.2207C97.9113 30.2299 97.7074 30.28 97.2396 30.28V36.28ZM99.7059 35.9553C100.608 35.6777 101.566 35.1263 102.232 34.1281L97.2395 30.7999C97.5209 30.3777 97.871 30.2423 97.9414 30.2207L99.7059 35.9553ZM102.232 34.1281C102.857 33.1907 103.024 32.1629 103.024 31.312H97.0236C97.0236 31.4211 96.9985 31.1613 97.2395 30.7999L102.232 34.1281ZM103.024 31.312C103.024 30.1518 102.745 29.0419 102.275 28.0066L96.8125 30.4894C96.9819 30.8621 97.0236 31.1282 97.0236 31.312H103.024ZM102.275 28.0066C101.792 26.9435 101.114 26.0004 100.232 25.2225L96.2628 29.7215C96.4692 29.9036 96.6557 30.1445 96.8125 30.4894L102.275 28.0066ZM100.369 25.3507C99.3123 24.294 97.9483 23.704 96.4236 23.704V29.704C96.403 29.704 96.3322 29.6983 96.2435 29.6609C96.1563 29.6242 96.1179 29.5849 96.1263 29.5933L100.369 25.3507ZM96.4236 23.704C94.8819 23.704 93.5258 24.3335 92.507 25.4202L96.8842 29.5238C96.8846 29.5235 96.8699 29.5391 96.8381 29.5622C96.8058 29.5857 96.7614 29.6128 96.706 29.6374C96.5855 29.691 96.4792 29.704 96.4236 29.704V23.704ZM92.5025 25.425C91.7661 26.214 91.1635 27.216 90.65 28.2798L96.0533 30.8882C96.4358 30.096 96.7292 29.69 96.8888 29.519L92.5025 25.425ZM90.6306 28.3207C90.2304 29.1827 89.7318 30.2114 89.1323 31.4104L94.4989 34.0936C95.1154 32.8606 95.6409 31.7773 96.0727 30.8473L90.6306 28.3207ZM89.1323 31.4104C88.4428 32.7895 87.7994 33.88 87.2091 34.7118L92.1021 38.1842C92.9198 37.032 93.7165 35.6585 94.4989 34.0936L89.1323 31.4104ZM87.2364 34.6739C86.6812 35.4311 86.1447 35.9588 85.6467 36.3174L89.1525 41.1866C90.2545 40.3932 91.2221 39.3849 92.0748 38.2221L87.2364 34.6739ZM85.6656 36.3039C85.2766 36.5795 84.7557 36.8177 84.0411 36.9693L85.2861 42.8387C86.6835 42.5423 87.9867 42.0125 89.1337 41.2001L85.6656 36.3039ZM84.0225 36.9733C83.2668 37.1386 82.2764 37.24 81.0156 37.24V43.24C82.5708 43.24 84.0125 43.1174 85.3047 42.8347L84.0225 36.9733ZM117.257 39.328L116.191 42.1324L116.201 42.1358L116.21 42.1392L117.257 39.328ZM113.897 36.496L111.201 37.8113L111.207 37.8245L111.214 37.8376L113.897 36.496ZM112.793 31.552L109.795 31.6652L109.796 31.6811L109.797 31.697L112.793 31.552ZM111.785 4.864V1.864H108.67L108.787 4.97723L111.785 4.864ZM118.505 4.864L121.502 4.73528L121.379 1.864H118.505V4.864ZM119.513 28.336L116.516 28.4647L116.516 28.4663L119.513 28.336ZM119.993 31.648L117.16 32.6336L119.993 31.648ZM121.433 33.136L120.408 35.9554L120.428 35.9626L120.448 35.9695L121.433 33.136ZM127.241 34.48L124.899 36.3541L124.95 36.4187L125.005 36.4804L127.241 34.48ZM127.049 39.28L129.118 41.4524L129.145 41.4272L129.17 41.4013L127.049 39.28ZM124.169 37.24C121.334 37.24 119.445 36.9418 118.304 36.5168L116.21 42.1392C118.333 42.9302 121.052 43.24 124.169 43.24V37.24ZM118.323 36.5236C117.28 36.1276 116.82 35.6334 116.58 35.1544L111.214 37.8376C112.254 39.9186 114.034 41.3124 116.191 42.1324L118.323 36.5236ZM116.593 35.1807C116.184 34.3409 115.873 33.1224 115.79 31.407L109.797 31.697C109.906 33.9496 110.331 36.0271 111.201 37.8113L116.593 35.1807ZM115.791 31.4388L114.783 4.75077L108.787 4.97723L109.795 31.6652L115.791 31.4388ZM111.785 7.864H118.505V1.864H111.785V7.864ZM115.508 4.99271L116.516 28.4647L122.51 28.2073L121.502 4.73528L115.508 4.99271ZM116.516 28.4663C116.583 30.0194 116.757 31.4761 117.16 32.6336L122.827 30.6624C122.717 30.3479 122.571 29.5966 122.51 28.2057L116.516 28.4663ZM117.16 32.6336C117.698 34.182 118.817 35.377 120.408 35.9554L122.458 30.3166C122.497 30.3306 122.598 30.3796 122.701 30.4857C122.801 30.5892 122.83 30.6719 122.827 30.6624L117.16 32.6336ZM120.448 35.9695C121.66 36.3911 123.131 36.52 124.649 36.52V30.52C123.352 30.52 122.679 30.3929 122.419 30.3025L120.448 35.9695ZM124.649 36.52C124.823 36.52 124.951 36.5316 125.039 36.5451C125.127 36.5586 125.165 36.5726 125.167 36.5732C125.167 36.5733 125.131 36.5597 125.075 36.5204C125.016 36.4799 124.954 36.4238 124.899 36.3541L129.584 32.6059C128.269 30.9627 126.323 30.52 124.649 30.52V36.52ZM125.005 36.4804C125.017 36.4936 125.02 36.4984 125.025 36.5135C125.033 36.5346 125.057 36.6144 125.057 36.784H131.057C131.057 35.2265 130.581 33.7136 129.477 32.4796L125.005 36.4804ZM125.057 36.784C125.057 36.9357 125.033 37.0055 125.023 37.0286C125.015 37.0492 124.996 37.0905 124.928 37.1587L129.17 41.4013C130.432 40.1398 131.057 38.5328 131.057 36.784H125.057ZM124.98 37.1076C124.98 37.1076 124.98 37.1076 124.98 37.1076C124.98 37.1076 124.98 37.1076 124.98 37.1076C124.98 37.1076 124.98 37.1077 124.98 37.1081C124.979 37.1087 124.976 37.1108 124.97 37.1142C124.959 37.1206 124.931 37.1359 124.876 37.1539C124.764 37.1914 124.543 37.24 124.169 37.24V43.24C125.916 43.24 127.719 42.7853 129.118 41.4524L124.98 37.1076ZM124.234 40.24L121.242 40.0263L121.012 43.24H124.234V40.24ZM124.714 33.52V30.52H121.921L121.722 33.3063L124.714 33.52ZM133.978 33.328L133.36 30.3923L133.344 30.3958L133.328 30.3994L133.978 33.328ZM135.226 32.752L137.484 34.7275L137.541 34.6623L137.594 34.5938L135.226 32.752ZM134.794 29.728L132.25 31.318L132.274 31.3554L132.298 31.3921L134.794 29.728ZM132.874 27.328L130.67 29.3628L130.691 29.3853L130.712 29.4073L132.874 27.328ZM130.426 24.832L128.305 26.9533L128.325 26.9733L128.345 26.993L130.426 24.832ZM127.93 22.432L125.855 24.598L125.877 24.6191L125.899 24.6398L127.93 22.432ZM126.01 20.512L123.706 22.4326L123.764 22.5021L123.826 22.5681L126.01 20.512ZM125.434 17.152L128.383 17.7049L128.386 17.6891L128.389 17.6734L125.434 17.152ZM125.818 15.856L123.246 14.3125L123.187 14.4113L123.135 14.5144L125.818 15.856ZM126.442 15.04L124.321 12.9187L124.321 12.9187L126.442 15.04ZM128.89 13.216L130.467 15.7684L130.494 15.7518L130.52 15.7347L128.89 13.216ZM132.73 11.008L134.118 13.6678L134.129 13.6622L134.139 13.6566L132.73 11.008ZM137.77 8.512L139.036 11.2317L139.056 11.2228L139.075 11.2137L137.77 8.512ZM143.674 5.728L146.392 4.45812L145.128 1.7528L142.417 3.00412L143.674 5.728ZM146.41 11.584L147.617 14.3306L150.428 13.0956L149.128 10.3141L146.41 11.584ZM140.746 14.176L142.024 16.8905L142.035 16.8852L142.046 16.8798L140.746 14.176ZM136.33 16.336L137.672 19.0193L137.685 19.0128L137.698 19.0061L136.33 16.336ZM132.874 18.16L131.404 15.5453L131.386 15.5553L131.368 15.5656L132.874 18.16ZM130.186 19.792L127.213 19.3902L126.346 25.8119L131.804 22.3188L130.186 19.792ZM130.666 16.24L132.623 13.966L128.434 10.361L127.693 15.8382L130.666 16.24ZM134.41 19.6L132.352 21.7828L134.41 19.6ZM137.53 22.768L139.75 20.75L137.53 22.768ZM140.218 26.032L137.81 27.821L137.826 27.8428L137.843 27.8644L140.218 26.032ZM142.714 29.68L140.153 31.2418L140.164 31.2592L140.174 31.2765L142.714 29.68ZM144.874 32.176L143.091 34.5885L143.116 34.6065L143.14 34.6241L144.874 32.176ZM147.082 33.28L146.293 36.1743L146.369 36.1949L146.445 36.2115L147.082 33.28ZM151.642 34.48L149.3 36.3541L149.351 36.4187L149.407 36.4804L151.642 34.48ZM151.45 39.28L153.519 41.4524L153.546 41.4272L153.572 41.4013L151.45 39.28ZM145.162 39.712L144.259 42.5727L144.293 42.5836L144.328 42.5937L145.162 39.712ZM141.754 37.888L139.898 40.2445L141.754 37.888ZM139.354 34.48L139.576 31.4882L134.886 31.1408L136.548 35.5402L139.354 34.48ZM141.946 34.672L144.663 35.9453L146.511 32.0019L142.168 31.6802L141.946 34.672ZM140.218 37.312L138.003 35.2892L137.999 35.294L140.218 37.312ZM137.914 39.04L139.178 41.761L139.217 41.7427L139.256 41.7233L137.914 39.04ZM134.842 39.952L135.336 42.9112L134.842 39.952ZM127.227 40.4537L127.707 33.7337L121.722 33.3063L121.242 40.0263L127.227 40.4537ZM124.714 36.52H131.434V30.52H124.714V36.52ZM131.434 36.52C132.615 36.52 133.727 36.4571 134.629 36.2566L133.328 30.3994C133.078 30.4549 132.493 30.52 131.434 30.52V36.52ZM134.596 36.2636C135.381 36.0984 136.602 35.7362 137.484 34.7275L132.969 30.7765C133.212 30.4979 133.44 30.3867 133.489 30.3641C133.543 30.3392 133.516 30.3595 133.36 30.3923L134.596 36.2636ZM137.594 34.5938C138.25 33.7503 138.562 32.7576 138.562 31.744H132.562C132.562 31.6407 132.578 31.4979 132.632 31.3353C132.687 31.1709 132.768 31.0264 132.858 30.9102L137.594 34.5938ZM138.562 31.744C138.562 30.3173 137.95 29.0535 137.291 28.0639L132.298 31.3921C132.463 31.6392 132.538 31.7988 132.567 31.876C132.596 31.9524 132.562 31.8991 132.562 31.744H138.562ZM137.338 28.138C136.723 27.1539 135.944 26.1916 135.037 25.2487L130.712 29.4073C131.405 30.1284 131.905 30.7661 132.25 31.318L137.338 28.138ZM135.079 25.2932C134.269 24.4155 133.411 23.5415 132.507 22.671L128.345 26.993C129.17 27.7865 129.944 28.5765 130.67 29.3628L135.079 25.2932ZM132.548 22.7107C131.658 21.8208 130.796 20.9916 129.962 20.2242L125.899 24.6398C126.665 25.3444 127.467 26.1152 128.305 26.9533L132.548 22.7107ZM130.006 20.266C129.261 19.5521 128.66 18.9504 128.195 18.4559L123.826 22.5681C124.384 23.1616 125.064 23.8399 125.855 24.598L130.006 20.266ZM128.315 18.5914C128.229 18.488 128.166 18.4073 128.123 18.3478C128.079 18.2866 128.065 18.2616 128.069 18.2688C128.07 18.2713 128.113 18.3444 128.161 18.477C128.204 18.599 128.29 18.878 128.29 19.264H122.29C122.29 20.2037 122.683 20.9392 122.872 21.2672C123.111 21.6821 123.41 22.0772 123.706 22.4326L128.315 18.5914ZM128.29 19.264C128.29 18.4416 128.337 17.9503 128.383 17.7049L122.486 16.5991C122.34 17.3777 122.29 18.2944 122.29 19.264H128.29ZM128.389 17.6734C128.421 17.4892 128.453 17.3585 128.479 17.2723C128.505 17.1836 128.517 17.1663 128.502 17.1976L123.135 14.5144C122.795 15.1937 122.602 15.9386 122.48 16.6306L128.389 17.6734ZM128.391 17.3995C128.478 17.2536 128.541 17.1844 128.564 17.1613L124.321 12.9187C123.896 13.3436 123.542 13.8184 123.246 14.3125L128.391 17.3995ZM128.564 17.1613C128.871 16.8539 129.465 16.3873 130.467 15.7684L127.314 10.6636C126.14 11.3887 125.102 12.1381 124.321 12.9187L128.564 17.1613ZM130.52 15.7347C131.512 15.0932 132.707 14.4039 134.118 13.6678L131.343 8.34824C129.81 9.14813 128.445 9.93077 127.261 10.6973L130.52 15.7347ZM134.139 13.6566C135.588 12.886 137.219 12.0776 139.036 11.2317L136.504 5.79225C134.609 6.67439 132.881 7.53004 131.322 8.35938L134.139 13.6566ZM139.075 11.2137C140.913 10.326 142.866 9.40539 144.932 8.45188L142.417 3.00412C140.323 3.9706 138.339 4.90602 136.466 5.81034L139.075 11.2137ZM140.956 6.99787L143.692 12.8539L149.128 10.3141L146.392 4.45812L140.956 6.99787ZM145.204 8.83744C143.068 9.77596 141.148 10.6543 139.446 11.4722L142.046 16.8798C143.673 16.0977 145.529 15.248 147.617 14.3306L145.204 8.83744ZM139.469 11.4615C137.813 12.2408 136.31 12.9757 134.963 13.6659L137.698 19.0061C138.974 18.3523 140.416 17.6472 142.024 16.8905L139.469 11.4615ZM134.989 13.6527C133.674 14.31 132.478 14.9409 131.404 15.5453L134.345 20.7747C135.319 20.2271 136.427 19.642 137.672 19.0193L134.989 13.6527ZM131.368 15.5656C130.346 16.1591 129.412 16.7257 128.569 17.2652L131.804 22.3188C132.561 21.8343 133.419 21.3129 134.381 20.7544L131.368 15.5656ZM133.159 20.1938L133.639 16.6418L127.693 15.8382L127.213 19.3902L133.159 20.1938ZM128.71 18.514C130.057 19.6735 131.271 20.7629 132.352 21.7828L136.468 17.4172C135.31 16.3251 134.028 15.1745 132.623 13.966L128.71 18.514ZM132.352 21.7828C133.421 22.79 134.406 23.7912 135.311 24.786L139.75 20.75C138.735 19.6328 137.64 18.522 136.468 17.4172L132.352 21.7828ZM135.311 24.786C136.206 25.7705 137.038 26.7822 137.81 27.821L142.627 24.243C141.734 23.0418 140.775 21.8775 139.75 20.75L135.311 24.786ZM137.843 27.8644C138.635 28.8906 139.405 30.0154 140.153 31.2418L145.276 28.1182C144.424 26.7206 143.53 25.4134 142.594 24.1996L137.843 27.8644ZM140.174 31.2765C140.996 32.5841 141.952 33.7465 143.091 34.5885L146.658 29.7635C146.325 29.5175 145.84 29.0159 145.254 28.0835L140.174 31.2765ZM143.14 34.6241C144.116 35.3151 145.168 35.8676 146.293 36.1743L147.872 30.3857C147.588 30.3084 147.169 30.1249 146.608 29.7279L143.14 34.6241ZM146.445 36.2115C147.33 36.404 148.206 36.52 149.05 36.52V30.52C148.742 30.52 148.306 30.476 147.72 30.3485L146.445 36.2115ZM149.05 36.52C149.225 36.52 149.352 36.5316 149.44 36.5451C149.528 36.5586 149.567 36.5726 149.568 36.5732C149.569 36.5733 149.532 36.5597 149.476 36.5204C149.418 36.4799 149.356 36.4238 149.3 36.3541L153.985 32.6059C152.67 30.9627 150.724 30.52 149.05 30.52V36.52ZM149.407 36.4804C149.418 36.4936 149.421 36.4984 149.426 36.5135C149.434 36.5346 149.458 36.6144 149.458 36.784H155.458C155.458 35.2265 154.982 33.7136 153.878 32.4796L149.407 36.4804ZM149.458 36.784C149.458 36.9357 149.434 37.0055 149.425 37.0286C149.416 37.0492 149.397 37.0905 149.329 37.1587L153.572 41.4013C154.833 40.1398 155.458 38.5328 155.458 36.784H149.458ZM149.381 37.1076C149.381 37.1076 149.381 37.1076 149.381 37.1076C149.381 37.1076 149.381 37.1076 149.381 37.1076C149.381 37.1076 149.381 37.1077 149.381 37.1081C149.38 37.1087 149.377 37.1108 149.371 37.1142C149.36 37.1206 149.332 37.1359 149.278 37.1539C149.165 37.1914 148.944 37.24 148.57 37.24V43.24C150.317 43.24 152.12 42.7853 153.519 41.4524L149.381 37.1076ZM148.57 37.24C147.846 37.24 146.993 37.1189 145.997 36.8303L144.328 42.5937C145.763 43.0091 147.183 43.24 148.57 43.24V37.24ZM146.066 36.8513C145.214 36.5822 144.398 36.1515 143.611 35.5315L139.898 40.2445C141.223 41.2885 142.679 42.0738 144.259 42.5727L146.066 36.8513ZM143.611 35.5315C143.043 35.0838 142.54 34.4248 142.161 33.4198L136.548 35.5402C137.256 37.4152 138.354 39.0282 139.898 40.2445L143.611 35.5315ZM139.133 37.4718L141.725 37.6638L142.168 31.6802L139.576 31.4882L139.133 37.4718ZM139.23 33.3987C138.861 34.1853 138.446 34.8041 138.003 35.2892L142.434 39.3348C143.335 38.3479 144.071 37.2067 144.663 35.9453L139.23 33.3987ZM137.999 35.294C137.621 35.7096 137.155 36.0655 136.573 36.3567L139.256 41.7233C140.466 41.1185 141.536 40.3224 142.438 39.33L137.999 35.294ZM136.651 36.319C136.04 36.6029 135.282 36.8374 134.349 36.9928L135.336 42.9112C136.707 42.6826 137.997 42.3091 139.178 41.761L136.651 36.319ZM134.349 36.9928C133.393 37.1523 132.266 37.24 130.954 37.24V43.24C132.523 43.24 133.988 43.1357 135.336 42.9112L134.349 36.9928ZM130.954 37.24H124.234V43.24H130.954V37.24ZM148.609 40.24L145.617 40.0263L145.387 43.24H148.609V40.24ZM149.089 33.52V30.52H146.296L146.097 33.3063L149.089 33.52ZM154.177 31.84L156.455 33.7924L156.477 33.7663L156.499 33.7397L154.177 31.84ZM155.617 28.768L152.752 27.8809L152.742 27.9123L152.733 27.9438L155.617 28.768ZM156.721 23.392L157.218 20.4334L154.186 19.9243L153.752 22.9677L156.721 23.392ZM163.009 24.448L165.983 24.8445L166.366 21.9698L163.506 21.4894L163.009 24.448ZM162.721 26.128L159.78 25.5396L159.765 25.611L159.755 25.683L162.721 26.128ZM162.433 28.096L159.464 27.6717L159.455 27.7345L159.448 27.7975L162.433 28.096ZM163.729 32.608L162.065 35.1042L162.16 35.1671L162.259 35.2227L163.729 32.608ZM165.697 33.28L165.109 36.2217L165.12 36.2239L165.131 36.226L165.697 33.28ZM171.313 34.48L168.971 36.3541L168.994 36.3835L169.019 36.4124L171.313 34.48ZM171.073 39.28L173.195 41.4013L171.073 39.28ZM164.305 39.904L163.733 42.8488L163.74 42.8503L163.748 42.8517L164.305 39.904ZM161.281 38.8L159.64 41.3109L159.695 41.3471L159.752 41.3809L161.281 38.8ZM159.217 36.688L156.613 38.1764L156.644 38.2321L156.679 38.2864L159.217 36.688ZM158.257 33.424V30.424H154.942L155.272 33.7225L158.257 33.424ZM160.561 33.424L163.37 34.4774L164.89 30.424H160.561V33.424ZM158.353 37.12L156.195 35.0362L156.194 35.0376L158.353 37.12ZM155.425 39.136L154.283 36.362L155.425 39.136ZM152.017 40L151.695 37.0174L151.65 37.0223L151.605 37.0285L152.017 40ZM161.617 18.112L159.445 20.181L159.495 20.234L159.548 20.2844L161.617 18.112ZM161.617 13.36L159.496 11.2387L159.47 11.2645L159.445 11.291L161.617 13.36ZM166.321 13.36L164.149 15.429L164.149 15.429L166.321 13.36ZM166.321 18.112L168.443 20.2333L168.469 20.2075L168.494 20.181L166.321 18.112ZM153.313 18.064L151.141 20.133L151.191 20.186L151.244 20.2364L153.313 18.064ZM153.313 13.312L151.192 11.1907L151.166 11.2165L151.141 11.243L153.313 13.312ZM158.017 13.312L160.19 11.243V11.243L158.017 13.312ZM158.017 18.064L160.139 20.1853L160.165 20.1595L160.19 20.133L158.017 18.064ZM151.602 40.4537L152.082 33.7337L146.097 33.3063L145.617 40.0263L151.602 40.4537ZM149.089 36.52C150.422 36.52 151.69 36.3919 152.845 36.0808L151.285 30.2872C150.777 30.4241 150.06 30.52 149.089 30.52V36.52ZM152.845 36.0808C154.277 35.6954 155.498 34.9095 156.455 33.7924L151.9 29.8876C151.705 30.1145 151.518 30.2246 151.285 30.2872L152.845 36.0808ZM156.499 33.7397C157.435 32.5958 158.06 31.1397 158.502 29.5922L152.733 27.9438C152.407 29.0843 152.072 29.6762 151.855 29.9403L156.499 33.7397ZM158.483 29.655C158.965 28.0972 159.361 26.131 159.691 23.8163L153.752 22.9677C153.442 25.133 153.101 26.7508 152.752 27.8809L158.483 29.655ZM156.225 26.3506L162.513 27.4066L163.506 21.4894L157.218 20.4334L156.225 26.3506ZM160.036 24.0515C159.983 24.4496 159.899 24.943 159.78 25.5396L165.663 26.7164C165.8 26.033 165.908 25.4064 165.983 24.8445L160.036 24.0515ZM159.755 25.683C159.657 26.3302 159.56 26.9931 159.464 27.6717L165.403 28.5203C165.498 27.8549 165.593 27.2058 165.688 26.573L159.755 25.683ZM159.448 27.7975C159.375 28.5254 159.337 29.2336 159.337 29.92H165.337C165.337 29.4544 165.363 28.9466 165.418 28.3945L159.448 27.7975ZM159.337 29.92C159.337 30.8917 159.529 31.8747 159.99 32.7976L165.357 30.1144C165.361 30.1228 165.357 30.1193 165.352 30.0949C165.346 30.0691 165.337 30.0134 165.337 29.92H159.337ZM159.99 32.7976C160.481 33.7795 161.218 34.5391 162.065 35.1042L165.393 30.1118C165.333 30.0715 165.314 30.0492 165.317 30.0528C165.318 30.0545 165.324 30.0609 165.332 30.0724C165.34 30.0839 165.349 30.0981 165.357 30.1144L159.99 32.7976ZM162.259 35.2227C163.13 35.7126 164.11 36.022 165.109 36.2217L166.286 30.3383C165.684 30.218 165.353 30.0794 165.2 29.9933L162.259 35.2227ZM165.131 36.226C166.207 36.4329 167.416 36.52 168.721 36.52V30.52C167.659 30.52 166.852 30.4471 166.264 30.334L165.131 36.226ZM168.721 36.52C168.896 36.52 169.023 36.5316 169.111 36.5451C169.199 36.5586 169.238 36.5726 169.239 36.5732C169.24 36.5733 169.203 36.5597 169.147 36.5204C169.089 36.4799 169.027 36.4238 168.971 36.3541L173.656 32.6059C172.341 30.9627 170.395 30.52 168.721 30.52V36.52ZM169.019 36.4124C169.026 36.4209 169.033 36.4297 169.043 36.4607C169.056 36.4977 169.081 36.5961 169.081 36.784H175.081C175.081 35.2736 174.65 33.7848 173.608 32.5476L169.019 36.4124ZM169.081 36.784C169.081 36.9357 169.057 37.0055 169.048 37.0286C169.039 37.0492 169.02 37.0905 168.952 37.1587L173.195 41.4013C174.456 40.1398 175.081 38.5328 175.081 36.784H169.081ZM168.952 37.1587C168.99 37.1211 169.003 37.1315 168.922 37.1588C168.827 37.191 168.617 37.24 168.241 37.24V43.24C169.977 43.24 171.807 42.7894 173.195 41.4013L168.952 37.1587ZM168.241 37.24C166.954 37.24 165.832 37.1396 164.863 36.9563L163.748 42.8517C165.147 43.1164 166.649 43.24 168.241 43.24V37.24ZM164.878 36.9592C164.008 36.7899 163.334 36.5291 162.811 36.2191L159.752 41.3809C160.957 42.0949 162.299 42.5701 163.733 42.8488L164.878 36.9592ZM162.923 36.2891C162.462 35.9877 162.077 35.5986 161.756 35.0896L156.679 38.2864C157.446 39.5054 158.437 40.5243 159.64 41.3109L162.923 36.2891ZM161.822 35.1996C161.564 34.7475 161.339 34.0868 161.242 33.1255L155.272 33.7225C155.432 35.3212 155.847 36.8365 156.613 38.1764L161.822 35.1996ZM158.257 36.424H160.561V30.424H158.257V36.424ZM157.752 32.3706C157.283 33.6228 156.74 34.4721 156.195 35.0362L160.512 39.2038C161.759 37.9119 162.688 36.2972 163.37 34.4774L157.752 32.3706ZM156.194 35.0376C155.601 35.6528 154.966 36.0808 154.283 36.362L156.568 41.91C158.061 41.2952 159.378 40.3792 160.513 39.2024L156.194 35.0376ZM154.283 36.362C153.46 36.7007 152.601 36.9195 151.695 37.0174L152.34 42.9826C153.802 42.8245 155.214 42.4673 156.568 41.91L154.283 36.362ZM151.605 37.0285C150.584 37.1703 149.586 37.24 148.609 37.24V43.24C149.873 43.24 151.147 43.1497 152.43 42.9715L151.605 37.0285ZM164.017 16.072C163.905 16.072 163.855 16.0542 163.836 16.0466C163.816 16.0389 163.767 16.0168 163.686 15.9396L159.548 20.2844C160.778 21.4557 162.319 22.072 164.017 22.072V16.072ZM163.79 16.043C163.703 15.9522 163.68 15.8997 163.675 15.8863C163.67 15.8748 163.657 15.8422 163.657 15.76H157.657C157.657 17.4563 158.295 18.9732 159.445 20.181L163.79 16.043ZM163.657 15.76C163.657 15.648 163.675 15.5973 163.683 15.5782C163.69 15.559 163.713 15.5101 163.79 15.429L159.445 11.291C158.274 12.5209 157.657 14.0617 157.657 15.76H163.657ZM163.739 15.4813C163.826 15.3941 163.874 15.3735 163.883 15.3699C163.89 15.3669 163.924 15.352 164.017 15.352V9.352C162.273 9.352 160.715 10.0193 159.496 11.2387L163.739 15.4813ZM164.017 15.352C164.053 15.352 164.07 15.3552 164.072 15.3556C164.073 15.3559 164.069 15.3551 164.063 15.3525C164.057 15.3499 164.059 15.35 164.071 15.3583C164.083 15.367 164.11 15.3878 164.149 15.429L168.494 11.291C167.31 10.0484 165.767 9.352 164.017 9.352V15.352ZM164.149 15.429C164.226 15.5101 164.248 15.559 164.256 15.5782C164.264 15.5973 164.281 15.648 164.281 15.76H170.281C170.281 14.0617 169.665 12.5209 168.494 11.291L164.149 15.429ZM164.281 15.76C164.281 15.8422 164.269 15.8748 164.264 15.8863C164.258 15.8997 164.235 15.9522 164.149 16.043L168.494 20.181C169.644 18.9732 170.281 17.4563 170.281 15.76H164.281ZM164.2 15.9907C164.164 16.0265 164.14 16.045 164.127 16.0533C164.121 16.0576 164.117 16.06 164.115 16.0611C164.113 16.0623 164.112 16.0627 164.112 16.0628C164.111 16.0629 164.111 16.0631 164.109 16.0635C164.108 16.0639 164.105 16.0649 164.099 16.066C164.088 16.0681 164.062 16.072 164.017 16.072V22.072C165.718 22.072 167.247 21.4295 168.443 20.2333L164.2 15.9907ZM155.713 16.024C155.601 16.024 155.551 16.0062 155.532 15.9986C155.512 15.9909 155.463 15.9688 155.382 15.8916L151.244 20.2364C152.474 21.4077 154.015 22.024 155.713 22.024V16.024ZM155.486 15.995C155.399 15.9042 155.376 15.8517 155.371 15.8383C155.366 15.8268 155.353 15.7942 155.353 15.712H149.353C149.353 17.4083 149.991 18.9252 151.141 20.133L155.486 15.995ZM155.353 15.712C155.353 15.6 155.371 15.5493 155.379 15.5302C155.386 15.511 155.409 15.462 155.486 15.381L151.141 11.243C149.97 12.4729 149.353 14.0137 149.353 15.712H155.353ZM155.435 15.4333C155.522 15.3461 155.57 15.3255 155.579 15.3219C155.586 15.3189 155.62 15.304 155.713 15.304V9.304C153.969 9.304 152.411 9.97125 151.192 11.1907L155.435 15.4333ZM155.713 15.304C155.749 15.304 155.766 15.3072 155.768 15.3076C155.769 15.3079 155.765 15.3071 155.759 15.3045C155.753 15.302 155.755 15.302 155.767 15.3103C155.779 15.319 155.806 15.3398 155.845 15.381L160.19 11.243C159.006 10.0004 157.463 9.304 155.713 9.304V15.304ZM155.845 15.381C155.922 15.462 155.944 15.511 155.952 15.5302C155.96 15.5493 155.977 15.6 155.977 15.712H161.977C161.977 14.0137 161.361 12.4729 160.19 11.243L155.845 15.381ZM155.977 15.712C155.977 15.7942 155.965 15.8268 155.96 15.8383C155.954 15.8517 155.931 15.9042 155.845 15.995L160.19 20.133C161.34 18.9252 161.977 17.4083 161.977 15.712H155.977ZM155.896 15.9427C155.86 15.9785 155.836 15.997 155.823 16.0053C155.817 16.0096 155.813 16.012 155.811 16.0131C155.809 16.0143 155.808 16.0147 155.808 16.0148C155.807 16.0149 155.807 16.0151 155.805 16.0155C155.804 16.0159 155.801 16.0169 155.795 16.018C155.784 16.0201 155.758 16.024 155.713 16.024V22.024C157.414 22.024 158.943 21.3815 160.139 20.1853L155.896 15.9427ZM168.25 40.24L165.258 40.0263L165.028 43.24H168.25V40.24ZM168.73 33.52V30.52H165.937L165.738 33.3063L168.73 33.52ZM171.898 33.088L173.129 35.8238L173.185 35.7986L173.24 35.7713L171.898 33.088ZM173.05 31.36L176.015 31.8162L176.016 31.8079L176.018 31.7996L173.05 31.36ZM173.146 27.616L170.148 27.7298L170.148 27.7336L173.146 27.616ZM172.282 4.864V1.864H169.166L169.284 4.97784L172.282 4.864ZM179.05 4.864L182.047 4.74014L181.929 1.864H179.05V4.864ZM180.01 28.096L183.008 27.9926L183.008 27.9824L183.007 27.9721L180.01 28.096ZM179.77 33.136L176.803 32.6941L176.799 32.721L176.795 32.748L179.77 33.136ZM178.282 36.928L175.891 35.1164L175.873 35.1398L175.856 35.1635L178.282 36.928ZM174.682 39.376L173.684 36.547L173.675 36.5502L173.666 36.5533L174.682 39.376ZM171.242 40.4537L171.722 33.7337L165.738 33.3063L165.258 40.0263L171.242 40.4537ZM168.73 36.52C170.261 36.52 171.869 36.3907 173.129 35.8238L170.667 30.3522C170.708 30.3338 170.595 30.3885 170.221 30.4395C169.867 30.4878 169.377 30.52 168.73 30.52V36.52ZM173.24 35.7713C174.912 34.9352 175.769 33.4159 176.015 31.8162L170.085 30.9038C170.073 30.9794 170.073 30.8975 170.17 30.7519C170.277 30.5905 170.426 30.47 170.556 30.4047L173.24 35.7713ZM176.018 31.7996C176.187 30.6558 176.21 29.1859 176.144 27.4984L170.148 27.7336C170.21 29.3101 170.169 30.3362 170.082 30.9204L176.018 31.7996ZM176.144 27.5022L175.28 4.75016L169.284 4.97784L170.148 27.7298L176.144 27.5022ZM172.282 7.864H179.05V1.864H172.282V7.864ZM176.053 4.98786L177.013 28.2199L183.007 27.9721L182.047 4.74014L176.053 4.98786ZM177.012 28.1994C177.071 29.9114 176.995 31.4049 176.803 32.6941L182.737 33.5779C182.993 31.8591 183.077 29.9926 183.008 27.9926L177.012 28.1994ZM176.795 32.748C176.662 33.7664 176.339 34.5245 175.891 35.1164L180.673 38.7396C181.825 37.2195 182.494 35.4496 182.745 33.524L176.795 32.748ZM175.856 35.1635C175.545 35.5914 174.927 36.1083 173.684 36.547L175.68 42.205C177.701 41.4917 179.483 40.3766 180.708 38.6925L175.856 35.1635ZM173.666 36.5533C172.525 36.9641 170.769 37.24 168.25 37.24V43.24C171.107 43.24 173.639 42.9399 175.698 42.1987L173.666 36.5533ZM186.34 40L183.341 40.086L183.425 43H186.34V40ZM185.332 4.864V1.864H182.245L182.333 4.95003L185.332 4.864ZM192.052 4.864L195.051 4.77797L194.967 1.864H192.052V4.864ZM193.06 40V43H196.147L196.059 39.914L193.06 40ZM189.339 39.914L188.331 4.77797L182.333 4.95003L183.341 40.086L189.339 39.914ZM185.332 7.864H192.052V1.864H185.332V7.864ZM189.053 4.95003L190.061 40.086L196.059 39.914L195.051 4.77797L189.053 4.95003ZM193.06 37H186.34V43H193.06V37ZM208.924 36.064L211.9 36.4479L208.924 36.064ZM209.644 32.704L212.532 33.5184L212.534 33.5089L212.537 33.4995L209.644 32.704ZM211.228 28.432L212.218 25.6001L209.619 24.6914L208.492 27.2032L211.228 28.432ZM217.132 30.496L219.96 31.4992L220.968 28.6587L218.122 27.6641L217.132 30.496ZM216.22 33.232L219.078 34.1463L219.083 34.1303L219.088 34.1143L216.22 33.232ZM215.644 35.488L218.591 36.0493L218.594 36.037L218.596 36.0247L215.644 35.488ZM216.508 41.248L214.012 42.9121L214.018 42.9205L214.024 42.9289L216.508 41.248ZM219.484 43.744L220.772 41.0342L220.757 41.0271L220.742 41.0201L219.484 43.744ZM230.14 43.312L228.622 40.7248L228.588 40.7444L228.555 40.7648L230.14 43.312ZM233.116 39.184L230.23 38.3662L230.225 38.3825L230.221 38.3988L233.116 39.184ZM233.74 31.744L230.742 31.8511L230.743 31.8606L230.743 31.8702L233.74 31.744ZM232.78 4.864V1.864H229.671L229.782 4.97107L232.78 4.864ZM239.548 4.864L242.547 4.76891L242.455 1.864H239.548V4.864ZM240.268 27.568L237.27 27.6631L237.27 27.6755L237.271 27.6879L240.268 27.568ZM240.94 31.264L238.199 32.4824V32.4824L240.94 31.264ZM242.716 33.04L241.602 35.8254L241.621 35.8329L241.639 35.84L242.716 33.04ZM248.524 34.48L246.182 36.3541L246.205 36.3835L246.23 36.4124L248.524 34.48ZM248.284 39.28L250.353 41.4524L250.38 41.4272L250.406 41.4013L248.284 39.28ZM243.196 39.952L242.496 42.8692L243.196 39.952ZM240.892 39.04L242.369 36.4283L240.892 39.04ZM238.972 37.408L236.599 39.2423L236.619 39.2692L236.641 39.2956L238.972 37.408ZM237.868 34.816L236.527 32.1327L234.503 33.1447L234.92 35.3689L237.868 34.816ZM240.46 33.52H243.46V28.6659L239.119 30.8367L240.46 33.52ZM239.308 41.728L236.471 40.755L236.464 40.7732L236.458 40.7915L239.308 41.728ZM236.044 47.152L233.972 44.983L233.96 44.9947L233.948 45.0064L236.044 47.152ZM230.812 50.128L229.971 47.2485L229.944 47.2563L229.918 47.2646L230.812 50.128ZM217.9 50.32L217.076 53.2046L217.09 53.2084L217.9 50.32ZM209.884 44.128L207.201 45.4696L207.207 45.4805L207.212 45.4914L209.884 44.128ZM211.732 38.656C211.732 38.0846 211.783 37.3544 211.9 36.4479L205.949 35.6801C205.81 36.7576 205.732 37.7554 205.732 38.656H211.732ZM211.9 36.4479C212.004 35.6366 212.209 34.6642 212.532 33.5184L206.757 31.8896C206.376 33.2398 206.1 34.5074 205.949 35.6801L211.9 36.4479ZM212.537 33.4995C212.838 32.4035 213.307 31.127 213.965 29.6608L208.492 27.2032C207.742 28.873 207.154 30.4445 206.752 31.9085L212.537 33.4995ZM210.238 31.2639L216.142 33.3279L218.122 27.6641L212.218 25.6001L210.238 31.2639ZM214.305 29.4928C213.942 30.5169 213.624 31.4698 213.353 32.3497L219.088 34.1143C219.329 33.3302 219.619 32.4591 219.96 31.4992L214.305 29.4928ZM213.363 32.3177C213.074 33.2207 212.848 34.0999 212.693 34.9513L218.596 36.0247C218.697 35.4681 218.855 34.8433 219.078 34.1463L213.363 32.3177ZM212.697 34.9267C212.535 35.7804 212.452 36.6403 212.452 37.504H218.452C218.452 37.0237 218.498 36.5396 218.591 36.0493L212.697 34.9267ZM212.452 37.504C212.452 39.454 212.937 41.299 214.012 42.9121L219.005 39.5839C218.672 39.085 218.452 38.434 218.452 37.504H212.452ZM214.024 42.9289C215.081 44.4915 216.507 45.6738 218.227 46.4679L220.742 41.0201C219.966 40.6622 219.408 40.1805 218.993 39.5671L214.024 42.9289ZM218.197 46.4538C219.944 47.2834 221.868 47.656 223.9 47.656V41.656C222.605 41.656 221.585 41.4206 220.772 41.0342L218.197 46.4538ZM223.9 47.656C226.874 47.656 229.603 47.1796 231.725 45.8592L228.555 40.7648C227.798 41.2364 226.367 41.656 223.9 41.656V47.656ZM231.659 45.8992C233.908 44.5792 235.327 42.4951 236.012 39.9692L230.221 38.3988C229.882 39.6489 229.317 40.3168 228.622 40.7248L231.659 45.8992ZM236.003 40.0018C236.667 37.6586 236.873 34.8275 236.738 31.6178L230.743 31.8702C230.864 34.7405 230.654 36.8694 230.23 38.3662L236.003 40.0018ZM236.738 31.6369L235.778 4.75692L229.782 4.97107L230.742 31.8511L236.738 31.6369ZM232.78 7.864H239.548V1.864H232.78V7.864ZM236.55 4.95909L237.27 27.6631L243.267 27.4729L242.547 4.76891L236.55 4.95909ZM237.271 27.6879C237.341 29.4409 237.59 31.1121 238.199 32.4824L243.682 30.0456C243.523 29.6879 243.324 28.8951 243.266 27.4481L237.271 27.6879ZM238.199 32.4824C238.867 33.9847 240.002 35.1855 241.602 35.8254L243.831 30.2546C243.809 30.2461 243.801 30.2404 243.799 30.2396C243.798 30.239 243.797 30.2382 243.794 30.2347C243.79 30.2305 243.743 30.1843 243.682 30.0456L238.199 32.4824ZM241.639 35.84C242.937 36.339 244.41 36.52 245.932 36.52V30.52C244.831 30.52 244.16 30.381 243.793 30.24L241.639 35.84ZM245.932 36.52C246.107 36.52 246.234 36.5316 246.322 36.5451C246.41 36.5586 246.449 36.5726 246.45 36.5732C246.451 36.5733 246.414 36.5597 246.358 36.5204C246.3 36.4799 246.238 36.4238 246.182 36.3541L250.867 32.6059C249.552 30.9627 247.606 30.52 245.932 30.52V36.52ZM246.23 36.4124C246.237 36.4209 246.244 36.4297 246.254 36.4607C246.267 36.4977 246.292 36.5961 246.292 36.784H252.292C252.292 35.2736 251.861 33.7848 250.819 32.5476L246.23 36.4124ZM246.292 36.784C246.292 36.9357 246.268 37.0055 246.259 37.0286C246.25 37.0492 246.231 37.0905 246.163 37.1587L250.406 41.4013C251.667 40.1398 252.292 38.5328 252.292 36.784H246.292ZM246.215 37.1076C246.213 37.1103 246.208 37.1143 246.197 37.1208C246.186 37.1276 246.159 37.142 246.109 37.1588C246.007 37.1934 245.802 37.24 245.452 37.24V43.24C247.192 43.24 248.967 42.7724 250.353 41.4524L246.215 37.1076ZM245.452 37.24C245.02 37.24 244.505 37.1808 243.896 37.0348L242.496 42.8692C243.488 43.1072 244.477 43.24 245.452 43.24V37.24ZM243.896 37.0348C243.376 36.9098 242.868 36.7107 242.369 36.4283L239.416 41.6517C240.389 42.2013 241.417 42.6102 242.496 42.8692L243.896 37.0348ZM242.369 36.4283C241.968 36.202 241.616 35.9062 241.304 35.5204L236.641 39.2956C237.416 40.2538 238.345 41.046 239.416 41.6517L242.369 36.4283ZM241.346 35.5737C241.138 35.3046 240.936 34.9002 240.817 34.2631L234.92 35.3689C235.184 36.7798 235.718 38.1034 236.599 39.2423L241.346 35.5737ZM239.21 37.4993L241.802 36.2033L239.119 30.8367L236.527 32.1327L239.21 37.4993ZM237.46 33.52C237.46 36.5332 237.1 38.9192 236.471 40.755L242.146 42.701C243.053 40.0568 243.46 36.9708 243.46 33.52H237.46ZM236.458 40.7915C235.848 42.6491 234.995 44.0052 233.972 44.983L238.117 49.321C239.974 47.5468 241.297 45.2869 242.158 42.6645L236.458 40.7915ZM233.948 45.0064C232.926 46.0049 231.627 46.7643 229.971 47.2485L231.654 53.0075C234.158 52.2757 236.347 51.0511 238.141 49.2976L233.948 45.0064ZM229.918 47.2646C228.222 47.7945 226.166 48.088 223.708 48.088V54.088C226.627 54.088 229.307 53.7415 231.707 52.9914L229.918 47.2646ZM223.708 48.088C221.912 48.088 220.251 47.8638 218.711 47.4316L217.09 53.2084C219.198 53.8002 221.408 54.088 223.708 54.088V48.088ZM218.725 47.4354C217.251 47.0144 216 46.3989 214.939 45.6093L211.357 50.4227C213.048 51.6811 214.966 52.6016 217.076 53.2046L218.725 47.4354ZM214.939 45.6093C213.943 44.8681 213.153 43.9329 212.557 42.7646L207.212 45.4914C208.216 47.4591 209.601 49.1159 211.357 50.4227L214.939 45.6093ZM212.568 42.7864C212.05 41.7517 211.732 40.4074 211.732 38.656H205.732C205.732 41.1286 206.182 43.4323 207.201 45.4696L212.568 42.7864ZM288.893 39.808L288.269 42.7423L288.299 42.7487L288.329 42.7545L288.893 39.808ZM284.813 38.56L283.622 41.3136L283.636 41.3193L283.649 41.3249L284.813 38.56ZM281.885 36.832L279.686 34.7915L277.534 37.111L279.965 39.1367L281.885 36.832ZM286.205 32.176L287.359 29.4068L285.428 28.6024L284.006 30.1355L286.205 32.176ZM289.757 33.232L289.214 36.1824L289.251 36.1893L289.289 36.1953L289.757 33.232ZM296.669 34.48L294.327 36.3541L294.378 36.4187L294.433 36.4804L296.669 34.48ZM296.477 39.28L298.546 41.4524L298.573 41.4272L298.598 41.4013L296.477 39.28ZM262.877 40.48L262.487 43.4545L262.493 43.4553L262.877 40.48ZM258.125 39.376L257.024 42.1665L258.125 39.376ZM255.245 37.648L257.317 35.4779L255.245 37.648ZM253.517 35.44L252.693 32.5554L249.047 33.5972L250.9 36.9058L253.517 35.44ZM254.861 35.056L257.522 36.4418L260.744 30.2551L254.037 32.1714L254.861 35.056ZM252.125 38.464L253.876 40.9L252.125 38.464ZM245.453 40.24L242.461 40.0263L242.231 43.24H245.453V40.24ZM245.933 33.52V30.52H243.14L242.941 33.3063L245.933 33.52ZM248.285 33.04L246.828 30.4175L248.285 33.04ZM249.677 31.456L247.017 30.0683L246.993 30.1146L246.971 30.1616L249.677 31.456ZM250.733 28.528L253.634 29.2915L250.733 28.528ZM251.885 24.064L252.597 21.1496L249.711 20.4451L248.978 23.324L251.885 24.064ZM257.981 25.552L260.885 26.3049L261.649 23.3592L258.693 22.6376L257.981 25.552ZM257.405 27.808L254.495 27.0804L254.477 27.1497L254.463 27.2197L257.405 27.808ZM257.069 29.488L254.127 28.8997L254.111 28.9813L254.099 29.0637L257.069 29.488ZM257.405 32.224L254.833 33.7675L254.857 33.8073L254.882 33.8463L257.405 32.224ZM259.085 33.328L258.104 36.163L258.153 36.18L258.203 36.1953L259.085 33.328ZM262.733 33.952L262.435 36.9371L262.467 36.9403L262.499 36.9428L262.733 33.952ZM276.077 33.856L276.386 36.8401L276.411 36.8374L276.437 36.8344L276.077 33.856ZM280.493 32.944L281.492 35.773L281.515 35.7648L281.538 35.7563L280.493 32.944ZM282.893 31.456L285.198 33.3766L285.223 33.3461L285.248 33.3149L282.893 31.456ZM283.181 27.712L280.467 28.9894L280.513 29.0879L280.566 29.1828L283.181 27.712ZM281.885 26.368L283.388 23.7717L281.885 26.368ZM276.029 26.704L277.31 29.4167L277.326 29.4093L277.342 29.4017L276.029 26.704ZM272.621 28.912L274.495 31.2546L274.515 31.2385L274.535 31.2221L272.621 28.912ZM269.405 31.936L267.191 29.9117L267.175 29.9292L267.159 29.9469L269.405 31.936ZM266.717 35.296L266.379 38.2769L268.133 38.4756L269.158 37.0397L266.717 35.296ZM259.517 34.48L256.966 32.9009L254.474 36.9276L259.179 37.4609L259.517 34.48ZM263.741 28.672L261.449 26.7359L263.741 28.672ZM268.781 23.776L270.635 26.135L270.647 26.1248L270.66 26.1145L268.781 23.776ZM274.349 20.368L275.542 23.1207L274.349 20.368ZM285.677 20.368L287.129 17.7429L285.677 20.368ZM289.133 23.824L286.497 25.2565V25.2565L289.133 23.824ZM288.317 35.104L285.917 33.304L285.907 33.3178L285.897 33.3318L288.317 35.104ZM281.933 39.328L280.948 36.4945L280.938 36.4979L281.933 39.328ZM276.269 13.648L274.148 15.7693L274.172 15.794L274.198 15.8181L276.269 13.648ZM276.269 8.608L274.148 6.48668L274.123 6.51134L274.099 6.53657L276.269 8.608ZM281.261 8.608L279.091 10.6794L279.115 10.7047L279.14 10.7293L281.261 8.608ZM281.261 13.648L279.19 11.4779L279.164 11.502L279.14 11.5267L281.261 13.648ZM293.597 37.24C292.142 37.24 290.764 37.1117 289.457 36.8615L288.329 42.7545C290.031 43.0803 291.788 43.24 293.597 43.24V37.24ZM289.517 36.8737C288.169 36.5867 286.993 36.2229 285.977 35.7951L283.649 41.3249C285.065 41.9211 286.609 42.3893 288.269 42.7423L289.517 36.8737ZM286.004 35.8064C285.011 35.3772 284.3 34.9392 283.806 34.5273L279.965 39.1367C281.006 40.0048 282.247 40.7188 283.622 41.3136L286.004 35.8064ZM284.084 38.8725L288.404 34.2165L284.006 30.1355L279.686 34.7915L284.084 38.8725ZM285.051 34.9452C286.398 35.5063 287.786 35.9194 289.214 36.1824L290.301 30.2816C289.296 30.0966 288.316 29.8057 287.359 29.4068L285.051 34.9452ZM289.289 36.1953C290.703 36.4185 292.307 36.52 294.077 36.52V30.52C292.519 30.52 291.243 30.4295 290.225 30.2687L289.289 36.1953ZM294.077 36.52C294.251 36.52 294.379 36.5316 294.467 36.5451C294.555 36.5586 294.593 36.5726 294.595 36.5732C294.595 36.5733 294.559 36.5597 294.503 36.5204C294.444 36.4799 294.382 36.4238 294.327 36.3541L299.012 32.6059C297.697 30.9627 295.751 30.52 294.077 30.52V36.52ZM294.433 36.4804C294.445 36.4936 294.448 36.4984 294.453 36.5135C294.461 36.5346 294.485 36.6144 294.485 36.784H300.485C300.485 35.2265 300.009 33.7136 298.905 32.4796L294.433 36.4804ZM294.485 36.784C294.485 36.9357 294.461 37.0055 294.451 37.0286C294.443 37.0492 294.424 37.0905 294.356 37.1587L298.598 41.4013C299.86 40.1398 300.485 38.5328 300.485 36.784H294.485ZM294.408 37.1076C294.408 37.1076 294.408 37.1076 294.408 37.1076C294.408 37.1076 294.408 37.1076 294.408 37.1076C294.408 37.1076 294.408 37.1077 294.408 37.1081C294.407 37.1087 294.404 37.1108 294.398 37.1142C294.387 37.1206 294.359 37.1359 294.304 37.1539C294.192 37.1914 293.971 37.24 293.597 37.24V43.24C295.344 43.24 297.147 42.7853 298.546 41.4524L294.408 37.1076ZM270.317 37.864C267.414 37.864 265.073 37.7384 263.261 37.5047L262.493 43.4553C264.65 43.7336 267.268 43.864 270.317 43.864V37.864ZM263.267 37.5055C261.449 37.2671 260.13 36.9421 259.227 36.5855L257.024 42.1665C258.552 42.7699 260.401 43.1809 262.487 43.4545L263.267 37.5055ZM259.227 36.5855C258.254 36.2018 257.662 35.8078 257.317 35.4779L253.174 39.8181C254.236 40.8322 255.564 41.5902 257.024 42.1665L259.227 36.5855ZM257.317 35.4779C256.815 34.9995 256.428 34.498 256.135 33.9742L250.9 36.9058C251.502 37.982 252.267 38.9525 253.174 39.8181L257.317 35.4779ZM254.341 38.3246L255.685 37.9406L254.037 32.1714L252.693 32.5554L254.341 38.3246ZM252.2 33.6702C251.541 34.9369 250.902 35.6488 250.374 36.028L253.876 40.9C255.396 39.8073 256.582 38.2471 257.522 36.4418L252.2 33.6702ZM250.374 36.028C249.661 36.5407 248.98 36.8305 248.321 36.9623L249.497 42.8457C251.078 42.5295 252.541 41.8593 253.876 40.9L250.374 36.028ZM248.321 36.9623C247.401 37.1461 246.447 37.24 245.453 37.24V43.24C246.827 43.24 248.177 43.1099 249.497 42.8457L248.321 36.9623ZM248.445 40.4537L248.926 33.7337L242.941 33.3063L242.461 40.0263L248.445 40.4537ZM245.933 36.52C247.197 36.52 248.551 36.3243 249.742 35.6625L246.828 30.4175C246.858 30.4008 246.819 30.4292 246.665 30.4606C246.511 30.4921 246.273 30.52 245.933 30.52V36.52ZM249.742 35.6625C250.98 34.9746 251.828 33.9127 252.384 32.7504L246.971 30.1616C246.895 30.3201 246.836 30.3965 246.812 30.4237C246.791 30.4469 246.796 30.4352 246.828 30.4175L249.742 35.6625ZM252.337 32.8437C252.863 31.8357 253.283 30.6254 253.634 29.2915L247.832 27.7645C247.543 28.8626 247.259 29.6043 247.017 30.0683L252.337 32.8437ZM253.634 29.2915C253.957 28.0651 254.343 26.5688 254.792 24.804L248.978 23.324C248.531 25.0792 248.149 26.5589 247.832 27.7645L253.634 29.2915ZM251.174 26.9784L257.27 28.4664L258.693 22.6376L252.597 21.1496L251.174 26.9784ZM255.077 24.7991C254.852 25.6688 254.657 26.4296 254.495 27.0804L260.316 28.5356C260.473 27.9064 260.663 27.1632 260.885 26.3049L255.077 24.7991ZM254.463 27.2197C254.335 27.8596 254.223 28.4197 254.127 28.8997L260.011 30.0763C260.107 29.5963 260.219 29.0364 260.347 28.3964L254.463 27.2197ZM254.099 29.0637C254.025 29.5826 253.973 30.1058 253.973 30.592H259.973C259.973 30.5022 259.985 30.2894 260.039 29.9123L254.099 29.0637ZM253.973 30.592C253.973 31.6953 254.241 32.7814 254.833 33.7675L259.978 30.6805C259.978 30.6805 259.978 30.681 259.978 30.6821C259.979 30.6832 259.98 30.6845 259.98 30.6859C259.982 30.689 259.982 30.6902 259.981 30.6883C259.981 30.6861 259.973 30.6576 259.973 30.592H253.973ZM254.882 33.8463C255.704 35.125 257.018 35.7869 258.104 36.163L260.066 30.493C259.946 30.4512 259.855 30.4136 259.791 30.3833C259.726 30.3528 259.695 30.3331 259.689 30.3289C259.672 30.3178 259.795 30.3941 259.929 30.6017L254.882 33.8463ZM258.203 36.1953C259.322 36.5397 260.773 36.7709 262.435 36.9371L263.032 30.9669C261.493 30.8131 260.512 30.6283 259.967 30.4607L258.203 36.1953ZM262.499 36.9428C264.241 37.0794 266.455 37.144 269.117 37.144V31.144C266.531 31.144 264.49 31.0806 262.968 30.9612L262.499 36.9428ZM269.117 37.144C271.959 37.144 274.391 37.0465 276.386 36.8401L275.768 30.8719C274.052 31.0495 271.843 31.144 269.117 31.144V37.144ZM276.437 36.8344C278.394 36.5981 280.11 36.2607 281.492 35.773L279.495 30.115C278.701 30.3953 277.472 30.6659 275.718 30.8776L276.437 36.8344ZM281.538 35.7563C282.885 35.2557 284.24 34.5259 285.198 33.3766L280.588 29.5354C280.599 29.5224 280.546 29.5905 280.352 29.7103C280.16 29.8295 279.869 29.9756 279.449 30.1317L281.538 35.7563ZM285.248 33.3149C286.142 32.1824 286.613 30.8409 286.613 29.392H280.613C280.613 29.4579 280.604 29.4864 280.601 29.4959C280.597 29.5057 280.585 29.5382 280.538 29.5971L285.248 33.3149ZM286.613 29.392C286.613 28.2876 286.345 27.2184 285.796 26.2412L280.566 29.1828C280.593 29.2296 280.613 29.2804 280.613 29.392H286.613ZM285.896 26.4346C285.338 25.2494 284.433 24.3768 283.388 23.7717L280.382 28.9643C280.429 28.9912 280.46 29.0131 280.479 29.0279C280.489 29.0352 280.495 29.0409 280.499 29.0446C280.504 29.0484 280.506 29.0503 280.506 29.0504C280.506 29.0504 280.504 29.0489 280.501 29.0456C280.499 29.0422 280.495 29.0376 280.491 29.0317C280.482 29.0193 280.474 29.0048 280.467 28.9894L285.896 26.4346ZM283.388 23.7717C282.186 23.0757 280.836 22.84 279.533 22.84V28.84C280.151 28.84 280.368 28.9563 280.382 28.9643L283.388 23.7717ZM279.533 22.84C277.865 22.84 276.251 23.2599 274.717 24.0063L277.342 29.4017C278.175 28.9961 278.897 28.84 279.533 28.84V22.84ZM274.748 23.9913C273.34 24.6563 271.994 25.5359 270.707 26.6019L274.535 31.2221C275.489 30.4321 276.415 29.8397 277.31 29.4167L274.748 23.9913ZM270.747 26.5694C269.499 27.5679 268.314 28.6835 267.191 29.9117L271.619 33.9603C272.544 32.9485 273.503 32.0481 274.495 31.2546L270.747 26.5694ZM267.159 29.9469C266.104 31.1385 265.142 32.3402 264.276 33.5523L269.158 37.0397C269.893 36.0118 270.722 34.9735 271.651 33.9251L267.159 29.9469ZM267.055 32.3151L259.855 31.4991L259.179 37.4609L266.379 38.2769L267.055 32.3151ZM262.068 36.0591C263.237 34.1713 264.557 32.3544 266.033 30.6081L261.449 26.7359C259.789 28.7016 258.294 30.7567 256.966 32.9009L262.068 36.0591ZM266.033 30.6081C267.478 28.8973 269.013 27.4092 270.635 26.135L266.928 21.417C264.965 22.9588 263.14 24.7347 261.449 26.7359L266.033 30.6081ZM270.66 26.1145C272.263 24.8263 273.891 23.836 275.542 23.1207L273.156 17.6153C270.967 18.564 268.883 19.8457 266.902 21.4375L270.66 26.1145ZM275.542 23.1207C277.106 22.4427 278.654 22.12 280.205 22.12V16.12C277.789 16.12 275.432 16.6293 273.156 17.6153L275.542 23.1207ZM280.205 22.12C281.965 22.12 283.262 22.4607 284.225 22.9931L287.129 17.7429C285.084 16.6113 282.733 16.12 280.205 16.12V22.12ZM284.225 22.9931C285.243 23.556 285.978 24.3003 286.497 25.2565L291.769 22.3915C290.689 20.4037 289.12 18.844 287.129 17.7429L284.225 22.9931ZM286.497 25.2565C287.025 26.2283 287.333 27.4186 287.333 28.912H293.333C293.333 26.5654 292.841 24.3637 291.769 22.3915L286.497 25.2565ZM287.333 28.912C287.333 30.6287 286.854 32.0546 285.917 33.304L290.717 36.904C292.468 34.5694 293.333 31.8673 293.333 28.912H287.333ZM285.897 33.3318C285.063 34.4709 283.541 35.5926 280.948 36.4945L282.919 42.1615C286.214 41.0154 288.948 39.3211 290.738 36.8762L285.897 33.3318ZM280.938 36.4979C278.474 37.3644 274.98 37.864 270.317 37.864V43.864C275.319 43.864 279.569 43.3396 282.928 42.1581L280.938 36.4979ZM278.813 11.656C278.576 11.656 278.475 11.6059 278.341 11.4779L274.198 15.8181C275.472 17.0341 277.066 17.656 278.813 17.656V11.656ZM278.39 11.5267C278.322 11.4585 278.303 11.4172 278.295 11.3966C278.286 11.3735 278.261 11.3037 278.261 11.152H272.261C272.261 12.9008 272.886 14.5078 274.148 15.7693L278.39 11.5267ZM278.261 11.152C278.261 10.9149 278.311 10.8135 278.439 10.6794L274.099 6.53657C272.883 7.81051 272.261 9.40505 272.261 11.152H278.261ZM278.39 10.7293C278.534 10.5856 278.62 10.552 278.813 10.552V4.552C277.022 4.552 275.412 5.22237 274.148 6.48668L278.39 10.7293ZM278.813 10.552C278.918 10.552 278.953 10.5691 278.957 10.5706C278.961 10.5725 279.007 10.5909 279.091 10.6794L283.431 6.53657C282.202 5.24879 280.606 4.552 278.813 4.552V10.552ZM279.14 10.7293C279.284 10.873 279.317 10.9589 279.317 11.152H285.317C285.317 9.3611 284.647 7.75099 283.382 6.48668L279.14 10.7293ZM279.317 11.152C279.317 11.286 279.295 11.3397 279.29 11.3511C279.286 11.3612 279.268 11.4028 279.19 11.4779L283.333 15.8181C284.642 14.5678 285.317 12.946 285.317 11.152H279.317ZM279.14 11.5267C279.062 11.6044 279.017 11.6241 279.003 11.63C278.988 11.6361 278.936 11.656 278.813 11.656V17.656C280.56 17.656 282.141 17.0103 283.382 15.7693L279.14 11.5267ZM293.641 40.24L290.648 40.0247L290.417 43.24H293.641V40.24ZM294.121 33.568V30.568H291.329L291.128 33.3527L294.121 33.568ZM300.505 33.52L300.446 30.5206L300.445 30.5206L300.505 33.52ZM304.297 33.328L304.616 36.3109L304.661 36.3061L304.707 36.2999L304.297 33.328ZM306.361 32.896L307.37 35.7212L307.457 35.69L307.542 35.6534L306.361 32.896ZM307.513 32.272L309.233 34.7297L309.273 34.7015L309.313 34.672L307.513 32.272ZM308.473 31.12L305.858 29.6492L305.841 29.6785L305.826 29.7082L308.473 31.12ZM308.953 22.048L306.032 22.7351L306.044 22.7865L306.058 22.8374L308.953 22.048ZM307.801 19.6L305.551 21.5849L305.583 21.621L305.616 21.6561L307.801 19.6ZM304.585 19.312L306.328 21.7532L306.384 21.7133L306.438 21.671L304.585 19.312ZM304.441 24.448L303.492 27.294L304.441 24.448ZM308.473 24.448L309.085 27.3849L309.129 27.3757L309.173 27.3652L308.473 24.448ZM310.681 23.68L313.679 23.5792L313.525 19.0027L309.391 20.9714L310.681 23.68ZM310.873 29.392L312.572 31.8641L313.926 30.9333L313.871 29.2912L310.873 29.392ZM306.937 31.024L307.451 33.9796L307.5 33.9711L307.548 33.9609L306.937 31.024ZM300.265 30.544L299.163 33.3345L299.207 33.3517L299.251 33.3676L300.265 30.544ZM297.433 28.24L294.902 29.8506V29.8506L297.433 28.24ZM297.145 19.744L299.977 20.7321L299.981 20.7221L299.984 20.712L297.145 19.744ZM299.209 15.952L301.551 17.8261L301.564 17.81L301.577 17.7938L299.209 15.952ZM302.377 13.216L303.828 15.8417L303.854 15.8273L303.88 15.8123L302.377 13.216ZM311.785 14.08L309.767 16.2998L309.793 16.3238L309.82 16.3471L311.785 14.08ZM314.953 19.168L312.09 20.0653L312.098 20.091L312.107 20.1167L314.953 19.168ZM315.001 32.176L317.782 33.2994L317.786 33.2903L317.79 33.2811L315.001 32.176ZM312.601 36.112L310.444 34.0269L310.436 34.0344L312.601 36.112ZM309.961 38.128L308.518 35.4976L309.961 38.128ZM306.313 39.424L306.914 42.3631L306.939 42.3581L306.963 42.3526L306.313 39.424ZM301.081 40.048L300.896 37.0537L300.893 37.0538L301.081 40.048ZM303.769 6.688L301.647 8.80932L301.672 8.83398L301.697 8.85807L303.769 6.688ZM303.769 1.648L301.647 -0.473321L301.623 -0.448658L301.599 -0.423428L303.769 1.648ZM308.761 1.648L306.591 3.71943L306.615 3.74466L306.639 3.76932L308.761 1.648ZM308.761 6.688L306.689 4.51793L306.664 4.54202L306.639 4.56668L308.761 6.688ZM296.633 40.4553L297.113 33.7833L291.128 33.3527L290.648 40.0247L296.633 40.4553ZM294.121 36.568C296.785 36.568 298.936 36.552 300.565 36.5194L300.445 30.5206C298.873 30.552 296.768 30.568 294.121 30.568V36.568ZM300.563 36.5194C302.225 36.4868 303.591 36.4208 304.616 36.3109L303.977 30.3451C303.211 30.4272 302.048 30.4892 300.446 30.5206L300.563 36.5194ZM304.707 36.2999C305.683 36.1652 306.621 35.9887 307.37 35.7212L305.352 30.0708C305.205 30.1233 304.767 30.2348 303.887 30.3561L304.707 36.2999ZM307.542 35.6534C308.135 35.3993 308.709 35.0966 309.233 34.7297L305.792 29.8143C305.676 29.8954 305.482 30.0087 305.179 30.1386L307.542 35.6534ZM309.313 34.672C310.092 34.0875 310.685 33.3474 311.12 32.5318L305.826 29.7082C305.786 29.7831 305.754 29.826 305.736 29.8474C305.719 29.868 305.711 29.8733 305.713 29.872L309.313 34.672ZM311.087 32.5908C311.587 31.7026 311.894 30.6921 312.091 29.6705L306.199 28.5375C306.075 29.1799 305.934 29.5134 305.858 29.6492L311.087 32.5908ZM312.091 29.6705C312.299 28.5868 312.385 27.3419 312.385 25.984H306.385C306.385 27.1221 306.31 27.9572 306.199 28.5375L312.091 29.6705ZM312.385 25.984C312.385 24.254 312.228 22.6563 311.847 21.2586L306.058 22.8374C306.253 23.5517 306.385 24.578 306.385 25.984H312.385ZM311.873 21.3609C311.552 19.9958 310.995 18.6163 309.985 17.5439L305.616 21.6561C305.616 21.6557 305.63 21.6709 305.655 21.7095C305.681 21.7484 305.717 21.809 305.758 21.8974C305.843 22.0778 305.941 22.3483 306.032 22.7351L311.873 21.3609ZM310.05 17.6151C309.021 16.4482 307.619 15.784 306.025 15.784V21.784C305.98 21.784 305.872 21.7727 305.744 21.714C305.619 21.6564 305.557 21.591 305.551 21.5849L310.05 17.6151ZM306.025 15.784C304.764 15.784 303.645 16.2353 302.731 16.953L306.438 21.671C306.442 21.6676 306.401 21.7005 306.313 21.7326C306.222 21.7661 306.12 21.784 306.025 21.784V15.784ZM302.841 16.8708C301.932 17.5199 301.267 18.3751 300.797 19.3144L306.164 21.9976C306.219 21.8884 306.264 21.825 306.291 21.7922C306.304 21.7758 306.314 21.7658 306.32 21.7606C306.325 21.7554 306.328 21.7534 306.328 21.7532L302.841 16.8708ZM300.797 19.3144C300.273 20.3629 300.049 21.4891 300.049 22.624H306.049C306.049 22.2869 306.112 22.1011 306.164 21.9976L300.797 19.3144ZM300.049 22.624C300.049 23.6132 300.326 24.5906 300.927 25.4484L305.842 22.0076C305.909 22.1024 305.965 22.2156 306.003 22.3385C306.04 22.4598 306.049 22.56 306.049 22.624H300.049ZM300.927 25.4484C301.616 26.433 302.582 26.9907 303.492 27.294L305.389 21.602C305.339 21.5853 305.601 21.663 305.842 22.0076L300.927 25.4484ZM303.492 27.294C304.383 27.591 305.339 27.688 306.265 27.688V21.688C305.718 21.688 305.459 21.625 305.389 21.602L303.492 27.294ZM306.265 27.688C307.196 27.688 308.138 27.5822 309.085 27.3849L307.861 21.5111C307.271 21.6338 306.741 21.688 306.265 21.688V27.688ZM309.173 27.3652C310.155 27.1294 311.091 26.8073 311.97 26.3886L309.391 20.9714C308.926 21.1927 308.39 21.3826 307.772 21.5308L309.173 27.3652ZM307.682 23.7808L307.874 29.4928L313.871 29.2912L313.679 23.5792L307.682 23.7808ZM309.173 26.9199C308.849 27.1424 308.436 27.3711 307.915 27.5946L310.278 33.1094C311.101 32.7569 311.872 32.3456 312.572 31.8641L309.173 26.9199ZM307.915 27.5946C307.439 27.7984 306.911 27.9648 306.325 28.0871L307.548 33.9609C308.498 33.7632 309.41 33.4816 310.278 33.1094L307.915 27.5946ZM306.423 28.0684C305.861 28.166 305.281 28.216 304.681 28.216V34.216C305.616 34.216 306.54 34.138 307.451 33.9796L306.423 28.0684ZM304.681 28.216C303.238 28.216 302.125 28.0242 301.278 27.7204L299.251 33.3676C300.901 33.9598 302.731 34.216 304.681 34.216V28.216ZM301.366 27.7535C300.711 27.495 300.28 27.1263 299.964 26.6294L294.902 29.8506C295.929 31.4657 297.386 32.6329 299.163 33.3345L301.366 27.7535ZM299.964 26.6294C299.708 26.2272 299.425 25.4198 299.425 23.92H293.425C293.425 26.0682 293.814 28.1408 294.902 29.8506L299.964 26.6294ZM299.425 23.92C299.425 22.8602 299.604 21.8017 299.977 20.7321L294.312 18.7559C293.725 20.4383 293.425 22.1638 293.425 23.92H299.425ZM299.984 20.712C300.356 19.6201 300.88 18.6651 301.551 17.8261L296.866 14.0779C295.745 15.4789 294.893 17.0518 294.305 18.776L299.984 20.712ZM301.577 17.7938C302.236 16.946 302.985 16.3074 303.828 15.8417L300.926 10.5903C299.336 11.4686 297.973 12.654 296.841 14.1102L301.577 17.7938ZM303.88 15.8123C304.617 15.3855 305.438 15.16 306.409 15.16V9.16C304.435 9.16 302.568 9.63845 300.874 10.6197L303.88 15.8123ZM306.409 15.16C307.953 15.16 308.99 15.594 309.767 16.2998L313.803 11.8602C311.763 10.006 309.216 9.16 306.409 9.16V15.16ZM309.82 16.3471C310.769 17.1697 311.554 18.356 312.09 20.0653L317.815 18.2707C317.007 15.692 315.68 13.4863 313.749 11.8129L309.82 16.3471ZM312.107 20.1167C312.693 21.8772 313.009 23.9026 313.009 26.224H319.009C319.009 23.3614 318.62 20.6828 317.799 18.2193L312.107 20.1167ZM313.009 26.224C313.009 28.2072 312.715 29.8013 312.212 31.0709L317.79 33.2811C318.631 31.1587 319.009 28.7848 319.009 26.224H313.009ZM312.219 31.0526C311.645 32.4747 311.029 33.4219 310.444 34.0269L314.758 38.1971C316.029 36.8821 317.013 35.2053 317.782 33.2994L312.219 31.0526ZM310.436 34.0344C309.884 34.6101 309.248 35.0971 308.518 35.4976L311.403 40.7584C312.657 40.0709 313.781 39.2139 314.765 38.1896L310.436 34.0344ZM308.518 35.4976C307.837 35.8712 306.904 36.2194 305.662 36.4954L306.963 42.3526C308.601 41.9886 310.1 41.4728 311.403 40.7584L308.518 35.4976ZM305.711 36.4849C304.487 36.7353 302.893 36.9308 300.896 37.0537L301.265 43.0423C303.429 42.9092 305.322 42.6887 306.914 42.3631L305.711 36.4849ZM300.893 37.0538C298.928 37.1767 296.514 37.24 293.641 37.24V43.24C296.592 43.24 299.138 43.1753 301.268 43.0422L300.893 37.0538ZM306.313 4.696C306.076 4.696 305.974 4.6459 305.84 4.51793L301.697 8.85807C302.971 10.0741 304.566 10.696 306.313 10.696V4.696ZM305.89 4.56668C305.822 4.49848 305.803 4.45718 305.794 4.43661C305.785 4.41348 305.761 4.34368 305.761 4.192H299.761C299.761 5.94078 300.386 7.54781 301.647 8.80932L305.89 4.56668ZM305.761 4.192C305.761 3.95495 305.811 3.85349 305.939 3.71943L301.599 -0.423428C300.383 0.850508 299.761 2.44505 299.761 4.192H305.761ZM305.89 3.76932C306.034 3.62562 306.12 3.592 306.313 3.592V-2.408C304.522 -2.408 302.912 -1.73763 301.647 -0.473321L305.89 3.76932ZM306.313 3.592C306.417 3.592 306.453 3.60914 306.456 3.61063C306.461 3.61251 306.506 3.63086 306.591 3.71943L310.931 -0.423429C309.701 -1.71122 308.105 -2.408 306.313 -2.408V3.592ZM306.639 3.76932C306.783 3.91301 306.817 3.9989 306.817 4.192H312.817C312.817 2.4011 312.146 0.790986 310.882 -0.47332L306.639 3.76932ZM306.817 4.192C306.817 4.32602 306.795 4.37973 306.79 4.39108C306.785 4.40118 306.768 4.44277 306.689 4.51793L310.832 8.85806C312.142 7.60777 312.817 5.98599 312.817 4.192H306.817ZM306.639 4.56668C306.562 4.64437 306.517 4.66406 306.502 4.66996C306.487 4.67612 306.435 4.696 306.313 4.696V10.696C308.059 10.696 309.641 10.0503 310.882 8.80932L306.639 4.56668ZM321.715 40L318.716 40.086L318.8 43H321.715V40ZM320.707 4.864V1.864H317.62L317.708 4.95003L320.707 4.864ZM327.427 4.864L330.426 4.77797L330.342 1.864H327.427V4.864ZM328.435 40V43H331.522L331.434 39.914L328.435 40ZM324.714 39.914L323.706 4.77797L317.708 4.95003L318.716 40.086L324.714 39.914ZM320.707 7.864H327.427V1.864H320.707V7.864ZM324.428 4.95003L325.436 40.086L331.434 39.914L330.426 4.77797L324.428 4.95003ZM328.435 37H321.715V43H328.435V37Z" fill="#29387E" fill-opacity="0.07" mask="url(#path-1-outside-1_1309_28168)"/>
</svg>
