<svg width="393" height="206" viewBox="0 0 393 206" fill="none" xmlns="http://www.w3.org/2000/svg">
<mask id="mask0_1309_28822" style="mask-type:alpha" maskUnits="userSpaceOnUse" x="37" y="18" width="356" height="132">
<rect x="37" y="18" width="356" height="131.882" rx="20" fill="#38D4FF"/>
</mask>
<g mask="url(#mask0_1309_28822)">
<rect x="-51.5859" y="-39.4646" width="240.185" height="266.191" transform="rotate(-16.2312 -51.5859 -39.4646)" fill="url(#paint0_linear_1309_28822)"/>
</g>
<path d="M105.249 60.6809V56.4409H101.069V54.9609H105.249V50.8209H106.769V54.9609H110.949V56.4409H106.769V60.6809H105.249ZM114.401 61.4409V59.7009H117.681V49.1009H118.721L114.721 51.5409V49.5409L118.261 47.3409H119.761V59.7009H122.841V61.4409H114.401ZM126.193 63.9009L125.313 63.2209C125.7 62.8076 125.96 62.4276 126.093 62.0809C126.24 61.7343 126.313 61.3743 126.313 61.0009L126.753 61.4409H125.173V59.0609H127.553V60.6809C127.553 61.2809 127.453 61.8343 127.253 62.3409C127.053 62.8609 126.7 63.3809 126.193 63.9009ZM134.74 61.6209C133.113 61.6209 131.86 61.0009 130.98 59.7609C130.113 58.5076 129.68 56.7143 129.68 54.3809C129.68 52.0076 130.113 50.2143 130.98 49.0009C131.86 47.7743 133.113 47.1609 134.74 47.1609C136.38 47.1609 137.633 47.7743 138.5 49.0009C139.366 50.2143 139.8 52.0009 139.8 54.3609C139.8 56.7076 139.36 58.5076 138.48 59.7609C137.613 61.0009 136.366 61.6209 134.74 61.6209ZM134.74 59.8809C135.766 59.8809 136.526 59.4343 137.02 58.5409C137.526 57.6476 137.78 56.2543 137.78 54.3609C137.78 52.4543 137.526 51.0676 137.02 50.2009C136.526 49.3209 135.766 48.8809 134.74 48.8809C133.726 48.8809 132.966 49.3209 132.46 50.2009C131.953 51.0676 131.7 52.4476 131.7 54.3409C131.7 56.2476 131.953 57.6476 132.46 58.5409C132.98 59.4343 133.74 59.8809 134.74 59.8809ZM146.732 61.6209C145.105 61.6209 143.852 61.0009 142.972 59.7609C142.105 58.5076 141.672 56.7143 141.672 54.3809C141.672 52.0076 142.105 50.2143 142.972 49.0009C143.852 47.7743 145.105 47.1609 146.732 47.1609C148.372 47.1609 149.625 47.7743 150.492 49.0009C151.358 50.2143 151.792 52.0009 151.792 54.3609C151.792 56.7076 151.352 58.5076 150.472 59.7609C149.605 61.0009 148.358 61.6209 146.732 61.6209ZM146.732 59.8809C147.758 59.8809 148.518 59.4343 149.012 58.5409C149.518 57.6476 149.772 56.2543 149.772 54.3609C149.772 52.4543 149.518 51.0676 149.012 50.2009C148.518 49.3209 147.758 48.8809 146.732 48.8809C145.718 48.8809 144.958 49.3209 144.452 50.2009C143.945 51.0676 143.692 52.4476 143.692 54.3409C143.692 56.2476 143.945 57.6476 144.452 58.5409C144.972 59.4343 145.732 59.8809 146.732 59.8809ZM158.724 61.6209C157.097 61.6209 155.844 61.0009 154.964 59.7609C154.097 58.5076 153.664 56.7143 153.664 54.3809C153.664 52.0076 154.097 50.2143 154.964 49.0009C155.844 47.7743 157.097 47.1609 158.724 47.1609C160.364 47.1609 161.617 47.7743 162.484 49.0009C163.351 50.2143 163.784 52.0009 163.784 54.3609C163.784 56.7076 163.344 58.5076 162.464 59.7609C161.597 61.0009 160.351 61.6209 158.724 61.6209ZM158.724 59.8809C159.751 59.8809 160.511 59.4343 161.004 58.5409C161.511 57.6476 161.764 56.2543 161.764 54.3609C161.764 52.4543 161.511 51.0676 161.004 50.2009C160.511 49.3209 159.751 48.8809 158.724 48.8809C157.711 48.8809 156.951 49.3209 156.444 50.2009C155.937 51.0676 155.684 52.4476 155.684 54.3409C155.684 56.2476 155.937 57.6476 156.444 58.5409C156.964 59.4343 157.724 59.8809 158.724 59.8809ZM166.916 63.9009L166.036 63.2209C166.423 62.8076 166.683 62.4276 166.816 62.0809C166.963 61.7343 167.036 61.3743 167.036 61.0009L167.476 61.4409H165.896V59.0609H168.276V60.6809C168.276 61.2809 168.176 61.8343 167.976 62.3409C167.776 62.8609 167.423 63.3809 166.916 63.9009ZM175.462 61.6209C173.836 61.6209 172.582 61.0009 171.702 59.7609C170.836 58.5076 170.402 56.7143 170.402 54.3809C170.402 52.0076 170.836 50.2143 171.702 49.0009C172.582 47.7743 173.836 47.1609 175.462 47.1609C177.102 47.1609 178.356 47.7743 179.222 49.0009C180.089 50.2143 180.522 52.0009 180.522 54.3609C180.522 56.7076 180.082 58.5076 179.202 59.7609C178.336 61.0009 177.089 61.6209 175.462 61.6209ZM175.462 59.8809C176.489 59.8809 177.249 59.4343 177.742 58.5409C178.249 57.6476 178.502 56.2543 178.502 54.3609C178.502 52.4543 178.249 51.0676 177.742 50.2009C177.249 49.3209 176.489 48.8809 175.462 48.8809C174.449 48.8809 173.689 49.3209 173.182 50.2009C172.676 51.0676 172.422 52.4476 172.422 54.3409C172.422 56.2476 172.676 57.6476 173.182 58.5409C173.702 59.4343 174.462 59.8809 175.462 59.8809ZM187.454 61.6209C185.828 61.6209 184.574 61.0009 183.694 59.7609C182.828 58.5076 182.394 56.7143 182.394 54.3809C182.394 52.0076 182.828 50.2143 183.694 49.0009C184.574 47.7743 185.828 47.1609 187.454 47.1609C189.094 47.1609 190.348 47.7743 191.214 49.0009C192.081 50.2143 192.514 52.0009 192.514 54.3609C192.514 56.7076 192.074 58.5076 191.194 59.7609C190.328 61.0009 189.081 61.6209 187.454 61.6209ZM187.454 59.8809C188.481 59.8809 189.241 59.4343 189.734 58.5409C190.241 57.6476 190.494 56.2543 190.494 54.3609C190.494 52.4543 190.241 51.0676 189.734 50.2009C189.241 49.3209 188.481 48.8809 187.454 48.8809C186.441 48.8809 185.681 49.3209 185.174 50.2009C184.668 51.0676 184.414 52.4476 184.414 54.3409C184.414 56.2476 184.668 57.6476 185.174 58.5409C185.694 59.4343 186.454 59.8809 187.454 59.8809ZM199.447 61.6209C197.82 61.6209 196.567 61.0009 195.687 59.7609C194.82 58.5076 194.387 56.7143 194.387 54.3809C194.387 52.0076 194.82 50.2143 195.687 49.0009C196.567 47.7743 197.82 47.1609 199.447 47.1609C201.087 47.1609 202.34 47.7743 203.207 49.0009C204.073 50.2143 204.507 52.0009 204.507 54.3609C204.507 56.7076 204.067 58.5076 203.187 59.7609C202.32 61.0009 201.073 61.6209 199.447 61.6209ZM199.447 59.8809C200.473 59.8809 201.233 59.4343 201.727 58.5409C202.233 57.6476 202.487 56.2543 202.487 54.3609C202.487 52.4543 202.233 51.0676 201.727 50.2009C201.233 49.3209 200.473 48.8809 199.447 48.8809C198.433 48.8809 197.673 49.3209 197.167 50.2009C196.66 51.0676 196.407 52.4476 196.407 54.3409C196.407 56.2476 196.66 57.6476 197.167 58.5409C197.687 59.4343 198.447 59.8809 199.447 59.8809ZM211.291 60.8809C211.291 60.5743 211.317 60.2143 211.371 59.8009C211.424 59.3876 211.524 58.9209 211.671 58.4009C211.817 57.8676 212.037 57.2743 212.331 56.6209L214.791 57.4809C214.644 57.8943 214.517 58.2743 214.411 58.6209C214.304 58.9543 214.224 59.2676 214.171 59.5609C214.117 59.8409 214.091 60.1209 214.091 60.4009C214.091 61.0009 214.237 61.5209 214.531 61.9609C214.837 62.4143 215.251 62.7609 215.771 63.0009C216.304 63.2543 216.917 63.3809 217.611 63.3809C218.744 63.3809 219.611 63.1943 220.211 62.8209C220.824 62.4609 221.237 61.8876 221.451 61.1009C221.677 60.3009 221.764 59.2676 221.711 58.0009L221.311 46.8009H224.131L224.431 56.2609C224.457 56.9276 224.551 57.4409 224.711 57.8009C224.871 58.1609 225.117 58.4076 225.451 58.5409C225.797 58.6743 226.244 58.7409 226.791 58.7409C227.297 58.7409 227.657 58.8743 227.871 59.1409C228.084 59.3943 228.191 59.7143 228.191 60.1009C228.191 60.5143 228.051 60.8609 227.771 61.1409C227.491 61.4076 227.097 61.5409 226.591 61.5409C226.297 61.5409 225.984 61.5009 225.651 61.4209C225.317 61.3409 224.997 61.2143 224.691 61.0409C224.384 60.8676 224.117 60.6409 223.891 60.3609C223.664 60.0676 223.511 59.7076 223.431 59.2809L224.511 58.7409C224.511 60.0876 224.351 61.2276 224.031 62.1609C223.724 63.0943 223.271 63.8476 222.671 64.4209C222.084 64.9943 221.357 65.4076 220.491 65.6609C219.637 65.9276 218.651 66.0609 217.531 66.0609C216.677 66.0609 215.871 65.9543 215.111 65.7409C214.364 65.5276 213.704 65.2076 213.131 64.7809C212.557 64.3543 212.104 63.8143 211.771 63.1609C211.451 62.5209 211.291 61.7609 211.291 60.8809ZM226.591 61.5409L226.791 58.7409C227.298 58.7409 227.698 58.6943 227.991 58.6009C228.298 58.5076 228.538 58.3209 228.711 58.0409C228.898 57.7476 229.051 57.3209 229.171 56.7609C229.304 56.2009 229.438 55.4543 229.571 54.5209L232.191 54.9609C232.164 55.1609 232.124 55.3943 232.071 55.6609C232.031 55.9276 231.991 56.2009 231.951 56.4809C231.924 56.7476 231.911 57.0009 231.911 57.2409C231.911 57.5609 231.978 57.8343 232.111 58.0609C232.258 58.2743 232.511 58.4409 232.871 58.5609C233.244 58.6809 233.778 58.7409 234.471 58.7409C234.978 58.7409 235.338 58.8743 235.551 59.1409C235.764 59.3943 235.871 59.7143 235.871 60.1009C235.871 60.5143 235.731 60.8609 235.451 61.1409C235.184 61.4076 234.791 61.5409 234.271 61.5409C233.351 61.5409 232.604 61.4543 232.031 61.2809C231.458 61.1076 231.031 60.8143 230.751 60.4009C230.471 59.9876 230.291 59.4209 230.211 58.7009H231.171C230.931 59.3409 230.651 59.8543 230.331 60.2409C230.011 60.6143 229.651 60.8943 229.251 61.0809C228.851 61.2676 228.424 61.3876 227.971 61.4409C227.531 61.5076 227.071 61.5409 226.591 61.5409ZM230.151 66.1409C229.764 66.1409 229.431 66.0076 229.151 65.7409C228.884 65.4743 228.751 65.1476 228.751 64.7609C228.751 64.3743 228.884 64.0343 229.151 63.7409C229.431 63.4609 229.764 63.3209 230.151 63.3209C230.538 63.3209 230.864 63.4609 231.131 63.7409C231.411 64.0343 231.551 64.3743 231.551 64.7609C231.551 65.1476 231.411 65.4743 231.131 65.7409C230.864 66.0076 230.538 66.1409 230.151 66.1409ZM234.267 61.5409L234.467 58.7609C235.574 58.7609 236.46 58.7543 237.127 58.7409C237.807 58.7276 238.334 58.7009 238.707 58.6609C239.094 58.6076 239.38 58.5476 239.567 58.4809C239.754 58.4009 239.914 58.3143 240.047 58.2209C240.207 58.1009 240.34 57.9409 240.447 57.7409C240.567 57.5276 240.66 57.2476 240.727 56.9009C240.794 56.5543 240.827 56.1209 240.827 55.6009C240.827 54.9476 240.767 54.4009 240.647 53.9609C240.54 53.5076 240.38 53.1676 240.167 52.9409C239.967 52.7143 239.72 52.6009 239.427 52.6009C239.214 52.6009 239.014 52.6743 238.827 52.8209C238.64 52.9543 238.487 53.1409 238.367 53.3809C238.247 53.6209 238.187 53.8943 238.187 54.2009C238.187 54.3743 238.234 54.5276 238.327 54.6609C238.42 54.7943 238.567 54.8943 238.767 54.9609C238.967 55.0276 239.22 55.0609 239.527 55.0609C239.82 55.0609 240.127 55.0276 240.447 54.9609C240.78 54.8809 241.087 54.7743 241.367 54.6409L241.447 57.0209C241.234 57.1676 240.987 57.3009 240.707 57.4209C240.427 57.5409 240.127 57.6343 239.807 57.7009C239.5 57.7543 239.187 57.7809 238.867 57.7809C238.16 57.7809 237.547 57.6876 237.027 57.5009C236.52 57.3009 236.127 56.9809 235.847 56.5409C235.567 56.1009 235.427 55.5009 235.427 54.7409C235.427 54.1543 235.527 53.5743 235.727 53.0009C235.927 52.4143 236.214 51.8876 236.587 51.4209C236.96 50.9409 237.4 50.5609 237.907 50.2809C238.414 49.9876 238.974 49.8409 239.587 49.8409C240.494 49.8409 241.24 50.1076 241.827 50.6409C242.427 51.1609 242.867 51.8676 243.147 52.7609C243.44 53.6409 243.587 54.6209 243.587 55.7009C243.587 56.6476 243.447 57.4743 243.167 58.1809C242.887 58.8743 242.554 59.4209 242.167 59.8209C241.847 60.1543 241.48 60.4343 241.067 60.6609C240.654 60.8876 240.147 61.0676 239.547 61.2009C238.96 61.3209 238.234 61.4076 237.367 61.4609C236.514 61.5143 235.48 61.5409 234.267 61.5409ZM241.287 48.0209C240.9 48.0209 240.567 47.8876 240.287 47.6209C240.02 47.3409 239.887 47.0143 239.887 46.6409C239.887 46.2543 240.02 45.9209 240.287 45.6409C240.567 45.3609 240.9 45.2209 241.287 45.2209C241.66 45.2209 241.98 45.3609 242.247 45.6409C242.514 45.9209 242.647 46.2543 242.647 46.6409C242.647 47.0143 242.514 47.3409 242.247 47.6209C241.98 47.8876 241.66 48.0209 241.287 48.0209ZM237.827 48.0009C237.44 48.0009 237.107 47.8676 236.827 47.6009C236.56 47.3209 236.427 46.9943 236.427 46.6209C236.427 46.2343 236.56 45.9009 236.827 45.6209C237.107 45.3409 237.44 45.2009 237.827 45.2009C238.2 45.2009 238.52 45.3409 238.787 45.6209C239.054 45.9009 239.187 46.2343 239.187 46.6209C239.187 46.9943 239.054 47.3209 238.787 47.6009C238.52 47.8676 238.2 48.0009 237.827 48.0009ZM250.217 60.8809C250.217 60.4143 250.277 59.8343 250.397 59.1409C250.53 58.4343 250.817 57.5943 251.257 56.6209L253.717 57.4809C253.49 58.1076 253.317 58.6476 253.197 59.1009C253.077 59.5409 253.017 59.9743 253.017 60.4009C253.017 61.0009 253.15 61.5143 253.417 61.9409C253.697 62.3676 254.103 62.6943 254.637 62.9209C255.183 63.1476 255.85 63.2609 256.637 63.2609C257.437 63.2609 258.103 63.1743 258.637 63.0009C259.17 62.8276 259.59 62.5809 259.897 62.2609C260.203 61.9543 260.423 61.5943 260.557 61.1809C260.69 60.7676 260.757 60.3209 260.757 59.8409C260.757 59.4676 260.71 59.0476 260.617 58.5809C260.537 58.1143 260.417 57.6076 260.257 57.0609C260.097 56.5009 259.917 55.9143 259.717 55.3009L262.517 54.5809C262.65 55.0876 262.757 55.5209 262.837 55.8809C262.93 56.2409 263.01 56.5409 263.077 56.7809C263.143 57.0076 263.197 57.1943 263.237 57.3409C263.37 57.7409 263.55 58.0409 263.777 58.2409C264.003 58.4409 264.297 58.5743 264.657 58.6409C265.03 58.7076 265.477 58.7409 265.997 58.7409C266.503 58.7409 266.863 58.8743 267.077 59.1409C267.29 59.3943 267.397 59.7143 267.397 60.1009C267.397 60.5143 267.257 60.8609 266.977 61.1409C266.697 61.4076 266.303 61.5409 265.797 61.5409C265.343 61.5409 264.89 61.4809 264.437 61.3609C263.997 61.2276 263.617 61.0143 263.297 60.7209C262.977 60.4276 262.77 60.0343 262.677 59.5409L263.417 60.3409C263.39 61.2476 263.21 62.0543 262.877 62.7609C262.543 63.4676 262.077 64.0676 261.477 64.5609C260.89 65.0543 260.177 65.4276 259.337 65.6809C258.51 65.9343 257.583 66.0609 256.557 66.0609C255.663 66.0609 254.83 65.9609 254.057 65.7609C253.297 65.5743 252.623 65.2676 252.037 64.8409C251.463 64.4276 251.017 63.8943 250.697 63.2409C250.377 62.5876 250.217 61.8009 250.217 60.8809ZM256.737 53.2809C256.323 53.2809 255.97 53.1409 255.677 52.8609C255.397 52.5809 255.257 52.2343 255.257 51.8209C255.257 51.4076 255.397 51.0543 255.677 50.7609C255.97 50.4676 256.323 50.3209 256.737 50.3209C257.137 50.3209 257.477 50.4676 257.757 50.7609C258.05 51.0543 258.197 51.4076 258.197 51.8209C258.197 52.2343 258.05 52.5809 257.757 52.8609C257.477 53.1409 257.137 53.2809 256.737 53.2809ZM265.79 61.5409L265.99 58.7409C266.297 58.7409 266.557 58.6676 266.77 58.5209C266.997 58.3609 267.23 58.1009 267.47 57.7409C267.71 57.3676 267.99 56.8676 268.31 56.2409C268.71 55.4409 269.124 54.8143 269.55 54.3609C269.99 53.9076 270.437 53.5876 270.89 53.4009C271.357 53.2009 271.824 53.1009 272.29 53.1009C272.877 53.1009 273.424 53.2276 273.93 53.4809C274.437 53.7343 274.877 54.0809 275.25 54.5209C275.624 54.9476 275.91 55.4409 276.11 56.0009C276.324 56.5476 276.43 57.1143 276.43 57.7009C276.43 58.4076 276.277 59.0476 275.97 59.6209C275.677 60.1809 275.264 60.6276 274.73 60.9609C274.21 61.2809 273.61 61.4409 272.93 61.4409C272.357 61.4409 271.69 61.3409 270.93 61.1409C270.17 60.9409 269.37 60.5209 268.53 59.8809L269.55 57.4609C270.15 57.8743 270.71 58.1743 271.23 58.3609C271.764 58.5476 272.204 58.6409 272.55 58.6409C272.817 58.6409 273.037 58.6143 273.21 58.5609C273.384 58.5076 273.51 58.4209 273.59 58.3009C273.67 58.1809 273.71 58.0209 273.71 57.8209C273.71 57.5409 273.644 57.2543 273.51 56.9609C273.377 56.6676 273.197 56.4209 272.97 56.2209C272.757 56.0076 272.504 55.9009 272.21 55.9009C271.93 55.9009 271.69 56.0076 271.49 56.2209C271.304 56.4209 271.117 56.7143 270.93 57.1009C270.757 57.4743 270.544 57.9143 270.29 58.4209C269.984 59.0343 269.684 59.5476 269.39 59.9609C269.097 60.3609 268.784 60.6809 268.45 60.9209C268.13 61.1476 267.75 61.3076 267.31 61.4009C266.884 61.4943 266.377 61.5409 265.79 61.5409ZM293.883 61.5409C292.936 61.5409 292.116 61.4209 291.423 61.1809C290.743 60.9276 290.216 60.5276 289.843 59.9809C289.47 59.4209 289.256 58.6743 289.203 57.7409L288.843 49.6809H291.663L292.003 56.7609C292.03 57.3076 292.116 57.7276 292.263 58.0209C292.423 58.3009 292.65 58.4943 292.943 58.6009C293.236 58.6943 293.616 58.7409 294.083 58.7409C294.59 58.7409 294.95 58.8743 295.163 59.1409C295.376 59.3943 295.483 59.7143 295.483 60.1009C295.483 60.5143 295.343 60.8609 295.063 61.1409C294.796 61.4076 294.403 61.5409 293.883 61.5409ZM290.223 59.6809C289.33 59.8809 288.47 59.9743 287.643 59.9609C286.816 59.9343 286.076 59.7876 285.423 59.5209C284.77 59.2409 284.25 58.8409 283.863 58.3209C283.49 57.8009 283.303 57.1409 283.303 56.3409C283.303 55.6343 283.456 54.9943 283.763 54.4209C284.083 53.8343 284.523 53.3209 285.083 52.8809C285.656 52.4409 286.323 52.0676 287.083 51.7609C287.843 51.4543 288.67 51.2209 289.563 51.0609L289.843 53.9009C289.27 53.9276 288.75 54.0076 288.283 54.1409C287.83 54.2609 287.436 54.4209 287.103 54.6209C286.783 54.8209 286.536 55.0476 286.363 55.3009C286.19 55.5409 286.103 55.8009 286.103 56.0809C286.103 56.3076 286.183 56.4943 286.343 56.6409C286.503 56.7876 286.716 56.9076 286.983 57.0009C287.25 57.0809 287.556 57.1276 287.903 57.1409C288.25 57.1543 288.603 57.1343 288.963 57.0809C289.336 57.0276 289.703 56.9409 290.063 56.8209L290.223 59.6809ZM293.876 61.5409L294.076 58.7409C294.663 58.7409 295.123 58.7009 295.456 58.6209C295.803 58.5409 296.05 58.3943 296.196 58.1809C296.343 57.9543 296.416 57.6343 296.416 57.2209C296.416 56.8476 296.363 56.4009 296.256 55.8809C296.163 55.3609 296.036 54.8209 295.876 54.2609C295.716 53.7009 295.556 53.1876 295.396 52.7209L298.156 51.9609C298.316 52.4143 298.476 52.9409 298.636 53.5409C298.796 54.1409 298.93 54.7609 299.036 55.4009C299.156 56.0276 299.216 56.6343 299.216 57.2209C299.216 57.9543 299.123 58.5743 298.936 59.0809C298.75 59.5743 298.49 59.9876 298.156 60.3209C297.836 60.6409 297.45 60.8943 296.996 61.0809C296.556 61.2543 296.07 61.3743 295.536 61.4409C295.003 61.5076 294.45 61.5409 293.876 61.5409ZM296.336 66.1409C295.95 66.1409 295.616 66.0076 295.336 65.7409C295.07 65.4743 294.936 65.1476 294.936 64.7609C294.936 64.3743 295.07 64.0343 295.336 63.7409C295.616 63.4609 295.95 63.3209 296.336 63.3209C296.723 63.3209 297.05 63.4609 297.316 63.7409C297.596 64.0343 297.736 64.3743 297.736 64.7609C297.736 65.1476 297.596 65.4743 297.316 65.7409C297.05 66.0076 296.723 66.1409 296.336 66.1409ZM312.536 65.2009C311.643 65.2009 310.803 65.1009 310.016 64.9009C309.243 64.7143 308.556 64.4143 307.956 64.0009C307.369 63.6009 306.909 63.0743 306.576 62.4209C306.243 61.7809 306.076 61.0076 306.076 60.1009C306.076 59.7943 306.096 59.4476 306.136 59.0609C306.189 58.6743 306.296 58.2143 306.456 57.6809C306.616 57.1343 306.863 56.5009 307.196 55.7809L309.636 56.7209C309.436 57.2009 309.283 57.6076 309.176 57.9409C309.069 58.2609 308.989 58.5543 308.936 58.8209C308.896 59.0743 308.876 59.3409 308.876 59.6209C308.876 60.0609 308.969 60.4543 309.156 60.8009C309.356 61.1476 309.629 61.4409 309.976 61.6809C310.336 61.9209 310.769 62.1009 311.276 62.2209C311.796 62.3409 312.376 62.4009 313.016 62.4009C313.843 62.4009 314.563 62.3476 315.176 62.2409C315.789 62.1476 316.303 62.0076 316.716 61.8209C317.143 61.6476 317.483 61.4343 317.736 61.1809C317.989 60.9276 318.169 60.6543 318.276 60.3609C318.409 60.0143 318.496 59.6543 318.536 59.2809C318.589 58.8943 318.616 58.4543 318.616 57.9609C318.616 57.3743 318.563 56.8743 318.456 56.4609C318.363 56.0343 318.216 55.7076 318.016 55.4809C317.816 55.2543 317.569 55.1409 317.276 55.1409C317.036 55.1409 316.816 55.2209 316.616 55.3809C316.429 55.5409 316.283 55.7409 316.176 55.9809C316.069 56.2076 316.016 56.4409 316.016 56.6809C316.016 56.8809 316.063 57.0476 316.156 57.1809C316.263 57.3143 316.416 57.4209 316.616 57.5009C316.816 57.5676 317.063 57.6009 317.356 57.6009C317.649 57.6009 317.976 57.5676 318.336 57.5009C318.696 57.4209 319.016 57.3009 319.296 57.1409L319.496 59.5609C319.176 59.8143 318.743 60.0076 318.196 60.1409C317.663 60.2609 317.163 60.3209 316.696 60.3209C316.003 60.3209 315.396 60.2276 314.876 60.0409C314.369 59.8409 313.976 59.5143 313.696 59.0609C313.416 58.6076 313.276 57.9943 313.276 57.2209C313.276 56.6609 313.376 56.1009 313.576 55.5409C313.776 54.9676 314.056 54.4409 314.416 53.9609C314.776 53.4809 315.209 53.1009 315.716 52.8209C316.223 52.5276 316.783 52.3809 317.396 52.3809C318.263 52.3809 318.989 52.6343 319.576 53.1409C320.176 53.6343 320.629 54.2943 320.936 55.1209C321.256 55.9343 321.416 56.8209 321.416 57.7809C321.416 58.6743 321.323 59.4609 321.136 60.1409C320.963 60.8076 320.736 61.4009 320.456 61.9209C320.123 62.5076 319.703 63.0076 319.196 63.4209C318.703 63.8476 318.123 64.1876 317.456 64.4409C316.803 64.7076 316.063 64.9009 315.236 65.0209C314.409 65.1409 313.509 65.2009 312.536 65.2009ZM319.176 50.5609C318.789 50.5609 318.456 50.4276 318.176 50.1609C317.909 49.8809 317.776 49.5543 317.776 49.1809C317.776 48.7943 317.909 48.4609 318.176 48.1809C318.456 47.9009 318.789 47.7609 319.176 47.7609C319.549 47.7609 319.869 47.9009 320.136 48.1809C320.403 48.4609 320.536 48.7943 320.536 49.1809C320.536 49.5543 320.403 49.8809 320.136 50.1609C319.869 50.4276 319.549 50.5609 319.176 50.5609ZM315.716 50.5409C315.329 50.5409 314.996 50.4076 314.716 50.1409C314.449 49.8609 314.316 49.5343 314.316 49.1609C314.316 48.7743 314.449 48.4409 314.716 48.1609C314.996 47.8809 315.329 47.7409 315.716 47.7409C316.089 47.7409 316.409 47.8809 316.676 48.1609C316.943 48.4409 317.076 48.7743 317.076 49.1609C317.076 49.5343 316.943 49.8609 316.676 50.1409C316.409 50.4076 316.089 50.5409 315.716 50.5409ZM323.337 66.0409L322.757 63.2409C323.703 63.1209 324.53 62.9743 325.237 62.8009C325.943 62.6409 326.537 62.4143 327.017 62.1209C327.497 61.8276 327.857 61.4276 328.097 60.9209C328.337 60.4009 328.457 59.7343 328.457 58.9209C328.457 58.1343 328.337 57.5076 328.097 57.0409C327.857 56.5743 327.537 56.3409 327.137 56.3409C326.857 56.3409 326.623 56.4409 326.437 56.6409C326.25 56.8276 326.11 57.0543 326.017 57.3209C325.937 57.5743 325.897 57.8009 325.897 58.0009C325.897 58.1209 325.93 58.2476 325.997 58.3809C326.063 58.5143 326.21 58.6276 326.437 58.7209C326.663 58.8143 327.017 58.8676 327.497 58.8809C327.99 58.8943 328.657 58.8476 329.497 58.7409H332.857C333.363 58.7409 333.723 58.8743 333.937 59.1409C334.163 59.3943 334.277 59.7143 334.277 60.1009C334.277 60.5143 334.137 60.8609 333.857 61.1409C333.577 61.4076 333.177 61.5409 332.657 61.5409H327.157C326.317 61.5409 325.597 61.4409 324.997 61.2409C324.397 61.0409 323.937 60.7209 323.617 60.2809C323.297 59.8276 323.137 59.2276 323.137 58.4809C323.137 57.8809 323.237 57.2809 323.437 56.6809C323.65 56.0809 323.943 55.5343 324.317 55.0409C324.69 54.5343 325.123 54.1343 325.617 53.8409C326.123 53.5343 326.67 53.3809 327.257 53.3809C328.057 53.3809 328.757 53.6276 329.357 54.1209C329.957 54.6143 330.423 55.2676 330.757 56.0809C331.103 56.8943 331.277 57.7809 331.277 58.7409C331.277 60.2476 330.957 61.5276 330.317 62.5809C329.677 63.6343 328.763 64.4476 327.577 65.0209C326.39 65.6076 324.977 65.9476 323.337 66.0409ZM332.685 61.5409L332.885 58.7409C333.685 58.7409 334.298 58.7009 334.725 58.6209C335.152 58.5409 335.445 58.3943 335.605 58.1809C335.778 57.9543 335.865 57.6343 335.865 57.2209C335.865 56.8476 335.812 56.4009 335.705 55.8809C335.612 55.3609 335.485 54.8209 335.325 54.2609C335.178 53.7009 335.018 53.1876 334.845 52.7209L337.605 51.9609C337.778 52.4143 337.945 52.9409 338.105 53.5409C338.265 54.1409 338.398 54.7609 338.505 55.4009C338.612 56.0276 338.665 56.6343 338.665 57.2209C338.665 58.1276 338.518 58.8676 338.225 59.4409C337.932 60.0009 337.518 60.4343 336.985 60.7409C336.465 61.0476 335.838 61.2609 335.105 61.3809C334.372 61.4876 333.565 61.5409 332.685 61.5409ZM336.505 47.6609C336.172 47.6609 335.878 47.5343 335.625 47.2809C335.385 47.0276 335.265 46.7276 335.265 46.3809C335.265 46.0343 335.385 45.7409 335.625 45.5009C335.878 45.2609 336.172 45.1409 336.505 45.1409C336.852 45.1409 337.145 45.2609 337.385 45.5009C337.625 45.7409 337.745 46.0343 337.745 46.3809C337.745 46.7276 337.625 47.0276 337.385 47.2809C337.145 47.5343 336.852 47.6609 336.505 47.6609ZM334.905 50.3009C334.572 50.3009 334.278 50.1743 334.025 49.9209C333.785 49.6676 333.665 49.3676 333.665 49.0209C333.665 48.6743 333.785 48.3809 334.025 48.1409C334.278 47.9009 334.572 47.7809 334.905 47.7809C335.252 47.7809 335.545 47.9009 335.785 48.1409C336.025 48.3809 336.145 48.6743 336.145 49.0209C336.145 49.3676 336.025 49.6676 335.785 49.9209C335.545 50.1743 335.252 50.3009 334.905 50.3009ZM338.005 50.3009C337.672 50.3009 337.378 50.1743 337.125 49.9209C336.885 49.6676 336.765 49.3676 336.765 49.0209C336.765 48.6743 336.885 48.3809 337.125 48.1409C337.378 47.9009 337.672 47.7809 338.005 47.7809C338.352 47.7809 338.645 47.9009 338.885 48.1409C339.125 48.3809 339.245 48.6743 339.245 49.0209C339.245 49.3676 339.125 49.6676 338.885 49.9209C338.645 50.1743 338.352 50.3009 338.005 50.3009ZM341.012 66.0409L340.432 63.2409C341.379 63.1209 342.206 62.9743 342.912 62.8009C343.619 62.6409 344.212 62.4143 344.692 62.1209C345.172 61.8276 345.532 61.4276 345.772 60.9209C346.012 60.4009 346.132 59.7343 346.132 58.9209C346.132 58.1343 346.012 57.5076 345.772 57.0409C345.532 56.5743 345.212 56.3409 344.812 56.3409C344.532 56.3409 344.299 56.4409 344.112 56.6409C343.926 56.8276 343.786 57.0543 343.692 57.3209C343.612 57.5743 343.572 57.8009 343.572 58.0009C343.572 58.1209 343.606 58.2476 343.672 58.3809C343.739 58.5143 343.886 58.6276 344.112 58.7209C344.339 58.8143 344.692 58.8676 345.172 58.8809C345.666 58.8943 346.332 58.8476 347.172 58.7409H350.532C351.039 58.7409 351.399 58.8743 351.612 59.1409C351.839 59.3943 351.952 59.7143 351.952 60.1009C351.952 60.5143 351.812 60.8609 351.532 61.1409C351.252 61.4076 350.852 61.5409 350.332 61.5409H344.832C343.992 61.5409 343.272 61.4409 342.672 61.2409C342.072 61.0409 341.612 60.7209 341.292 60.2809C340.972 59.8276 340.812 59.2276 340.812 58.4809C340.812 57.8809 340.912 57.2809 341.112 56.6809C341.326 56.0809 341.619 55.5343 341.992 55.0409C342.366 54.5343 342.799 54.1343 343.292 53.8409C343.799 53.5343 344.346 53.3809 344.932 53.3809C345.732 53.3809 346.432 53.6276 347.032 54.1209C347.632 54.6143 348.099 55.2676 348.432 56.0809C348.779 56.8943 348.952 57.7809 348.952 58.7409C348.952 60.2476 348.632 61.5276 347.992 62.5809C347.352 63.6343 346.439 64.4476 345.252 65.0209C344.066 65.6076 342.652 65.9476 341.012 66.0409ZM350.361 61.5409L350.561 58.7409C350.867 58.7409 351.127 58.6676 351.341 58.5209C351.567 58.3609 351.801 58.1009 352.041 57.7409C352.281 57.3676 352.561 56.8676 352.881 56.2409C353.281 55.4409 353.694 54.8143 354.121 54.3609C354.561 53.9076 355.007 53.5876 355.461 53.4009C355.927 53.2009 356.394 53.1009 356.861 53.1009C357.447 53.1009 357.994 53.2276 358.501 53.4809C359.007 53.7343 359.447 54.0809 359.821 54.5209C360.194 54.9476 360.481 55.4409 360.681 56.0009C360.894 56.5476 361.001 57.1143 361.001 57.7009C361.001 58.4076 360.847 59.0476 360.541 59.6209C360.247 60.1809 359.834 60.6276 359.301 60.9609C358.781 61.2809 358.181 61.4409 357.501 61.4409C356.927 61.4409 356.261 61.3409 355.501 61.1409C354.741 60.9409 353.941 60.5209 353.101 59.8809L354.121 57.4609C354.721 57.8743 355.281 58.1743 355.801 58.3609C356.334 58.5476 356.774 58.6409 357.121 58.6409C357.387 58.6409 357.607 58.6143 357.781 58.5609C357.954 58.5076 358.081 58.4209 358.161 58.3009C358.241 58.1809 358.281 58.0209 358.281 57.8209C358.281 57.5409 358.214 57.2543 358.081 56.9609C357.947 56.6676 357.767 56.4209 357.541 56.2209C357.327 56.0076 357.074 55.9009 356.781 55.9009C356.501 55.9009 356.261 56.0076 356.061 56.2209C355.874 56.4209 355.687 56.7143 355.501 57.1009C355.327 57.4743 355.114 57.9143 354.861 58.4209C354.554 59.0343 354.254 59.5476 353.961 59.9609C353.667 60.3609 353.354 60.6809 353.021 60.9209C352.701 61.1476 352.321 61.3076 351.881 61.4009C351.454 61.4943 350.947 61.5409 350.361 61.5409ZM129.134 93.8609L129.654 91.0609C130.947 91.0609 132.074 91.0276 133.034 90.9609C133.994 90.8809 134.787 90.7676 135.414 90.6209C136.054 90.4609 136.527 90.2543 136.834 90.0009C137.154 89.7476 137.314 89.4409 137.314 89.0809C137.314 88.6009 137.234 88.0276 137.074 87.3609C136.914 86.6809 136.707 85.9943 136.454 85.3009L139.074 84.5409C139.247 84.9943 139.414 85.4943 139.574 86.0409C139.734 86.5743 139.861 87.1143 139.954 87.6609C140.061 88.1943 140.114 88.6943 140.114 89.1609C140.114 89.9876 139.934 90.7009 139.574 91.3009C139.214 91.8876 138.614 92.3743 137.774 92.7609C136.947 93.1343 135.827 93.4076 134.414 93.5809C133.001 93.7676 131.241 93.8609 129.134 93.8609ZM129.114 93.8609C127.674 93.8609 126.454 93.7476 125.454 93.5209C124.467 93.3076 123.661 93.0009 123.034 92.6009C122.421 92.1876 121.974 91.7076 121.694 91.1609C121.414 90.6143 121.274 90.0143 121.274 89.3609C121.274 88.9343 121.307 88.5076 121.374 88.0809C121.454 87.6409 121.547 87.2143 121.654 86.8009C121.774 86.3876 121.881 86.0143 121.974 85.6809L124.474 86.2609C124.421 86.5009 124.361 86.7609 124.294 87.0409C124.227 87.3209 124.174 87.5943 124.134 87.8609C124.094 88.1143 124.074 88.3476 124.074 88.5609C124.074 89.0543 124.247 89.4943 124.594 89.8809C124.954 90.2543 125.541 90.5476 126.354 90.7609C127.167 90.9609 128.261 91.0609 129.634 91.0609L130.034 93.2209L129.114 93.8609ZM132.414 84.7209C132.027 84.7209 131.694 84.5876 131.414 84.3209C131.147 84.0409 131.014 83.7143 131.014 83.3409C131.014 82.9543 131.147 82.6209 131.414 82.3409C131.694 82.0609 132.027 81.9209 132.414 81.9209C132.787 81.9209 133.107 82.0609 133.374 82.3409C133.641 82.6209 133.774 82.9543 133.774 83.3409C133.774 83.7143 133.641 84.0409 133.374 84.3209C133.107 84.5876 132.787 84.7209 132.414 84.7209ZM128.954 84.7009C128.567 84.7009 128.234 84.5676 127.954 84.3009C127.687 84.0209 127.554 83.6943 127.554 83.3209C127.554 82.9343 127.687 82.6009 127.954 82.3209C128.234 82.0409 128.567 81.9009 128.954 81.9009C129.327 81.9009 129.647 82.0409 129.914 82.3209C130.181 82.6009 130.314 82.9343 130.314 83.3209C130.314 83.6943 130.181 84.0209 129.914 84.3009C129.647 84.5676 129.327 84.7009 128.954 84.7009ZM147.462 93.5409C146.222 93.5409 145.262 93.4143 144.582 93.1609C143.916 92.9076 143.449 92.5143 143.182 91.9809C142.916 91.4343 142.762 90.7476 142.722 89.9209L142.302 78.8009H145.102L145.522 88.5809C145.549 89.1943 145.616 89.6543 145.722 89.9609C145.829 90.2676 146.029 90.4743 146.322 90.5809C146.629 90.6876 147.076 90.7409 147.662 90.7409C148.169 90.7409 148.529 90.8743 148.742 91.1409C148.969 91.3943 149.082 91.7143 149.082 92.1009C149.082 92.5143 148.942 92.8609 148.662 93.1409C148.382 93.4076 147.982 93.5409 147.462 93.5409ZM147.49 93.5409L147.69 90.7409H150.55C150.83 90.7409 151.076 90.7276 151.29 90.7009C151.503 90.6609 151.676 90.6009 151.81 90.5209C151.956 90.4409 152.063 90.3409 152.13 90.2209C152.196 90.1009 152.23 89.9609 152.23 89.8009C152.23 89.6409 152.143 89.3876 151.97 89.0409C151.81 88.6809 151.456 88.2476 150.91 87.7409C150.616 87.4743 150.296 87.1943 149.95 86.9009C149.616 86.5943 149.296 86.3076 148.99 86.0409C148.683 85.7609 148.43 85.5143 148.23 85.3009C148.03 85.0876 147.93 84.9343 147.93 84.8409C147.93 84.6409 147.943 84.4209 147.97 84.1809C147.996 83.9409 148.036 83.7209 148.09 83.5209C148.156 83.3209 148.243 83.1743 148.35 83.0809C148.576 82.8676 148.91 82.6209 149.35 82.3409C149.803 82.0476 150.343 81.7343 150.97 81.4009C151.596 81.0543 152.296 80.6943 153.07 80.3209C153.856 79.9343 154.696 79.5476 155.59 79.1609L156.73 81.6009C155.996 81.9209 155.303 82.2343 154.65 82.5409C153.996 82.8343 153.383 83.1276 152.81 83.4209C152.25 83.7009 151.73 83.9809 151.25 84.2609C150.783 84.5276 150.37 84.7943 150.01 85.0609L150.27 83.5809C151.403 84.4476 152.303 85.2276 152.97 85.9209C153.65 86.6143 154.156 87.2343 154.49 87.7809C154.823 88.3143 155.043 88.7943 155.15 89.2209C155.256 89.6343 155.31 90.0009 155.31 90.3209C155.31 90.6409 155.23 90.9876 155.07 91.3609C154.923 91.7209 154.65 92.0676 154.25 92.4009C153.863 92.7343 153.316 93.0076 152.61 93.2209C151.903 93.4343 150.996 93.5409 149.89 93.5409H147.49ZM156.091 98.0609L155.071 95.5809C155.777 95.3409 156.424 95.0609 157.011 94.7409C157.611 94.4209 158.131 94.0676 158.571 93.6809C159.011 93.2943 159.351 92.8743 159.591 92.4209C159.831 91.9543 159.951 91.4543 159.951 90.9209C159.951 90.3609 159.824 89.7476 159.571 89.0809C159.317 88.4143 159.011 87.7343 158.651 87.0409L161.271 85.7809C161.511 86.1943 161.717 86.6409 161.891 87.1209C162.077 87.5876 162.231 88.0076 162.351 88.3809C162.471 88.7543 162.551 89.0076 162.591 89.1409C162.777 89.7809 163.031 90.2076 163.351 90.4209C163.684 90.6343 164.217 90.7409 164.951 90.7409C165.457 90.7409 165.817 90.8743 166.031 91.1409C166.257 91.3943 166.371 91.7143 166.371 92.1009C166.371 92.5143 166.231 92.8609 165.951 93.1409C165.671 93.4076 165.271 93.5409 164.751 93.5409C164.204 93.5409 163.724 93.4609 163.311 93.3009C162.897 93.1409 162.564 92.9076 162.311 92.6009C162.071 92.2943 161.917 91.9343 161.851 91.5209L162.591 91.9409C162.511 92.6476 162.277 93.3143 161.891 93.9409C161.517 94.5809 161.031 95.1676 160.431 95.7009C159.831 96.2343 159.157 96.7009 158.411 97.1009C157.664 97.5009 156.891 97.8209 156.091 98.0609ZM164.775 93.5409L164.975 90.7409C165.415 90.7409 165.775 90.7076 166.055 90.6409C166.335 90.5609 166.561 90.3943 166.735 90.1409C166.921 89.8743 167.081 89.4809 167.215 88.9609C167.361 88.4276 167.521 87.7076 167.695 86.8009L170.295 87.2809C170.241 87.5743 170.168 87.9409 170.075 88.3809C169.995 88.8209 169.955 89.2009 169.955 89.5209C169.955 89.7743 170.001 89.9943 170.095 90.1809C170.201 90.3543 170.375 90.4943 170.615 90.6009C170.868 90.6943 171.215 90.7409 171.655 90.7409C172.001 90.7409 172.295 90.7076 172.535 90.6409C172.788 90.5609 173.001 90.3943 173.175 90.1409C173.361 89.8743 173.521 89.4676 173.655 88.9209C173.801 88.3609 173.941 87.6076 174.075 86.6609L176.715 87.0809C176.661 87.3876 176.608 87.7143 176.555 88.0609C176.501 88.4076 176.455 88.7276 176.415 89.0209C176.375 89.3143 176.355 89.5543 176.355 89.7409C176.355 89.9143 176.401 90.0809 176.495 90.2409C176.601 90.3876 176.788 90.5076 177.055 90.6009C177.335 90.6943 177.721 90.7409 178.215 90.7409C178.815 90.7409 179.255 90.6143 179.535 90.3609C179.828 90.0943 179.975 89.6943 179.975 89.1609C179.975 88.8543 179.968 88.5276 179.955 88.1809C179.941 87.8209 179.915 87.4209 179.875 86.9809C179.848 86.5276 179.795 86.0143 179.715 85.4409L182.295 85.2409C182.388 86.3876 182.495 87.3209 182.615 88.0409C182.735 88.7609 182.895 89.3209 183.095 89.7209C183.308 90.1076 183.588 90.3743 183.935 90.5209C184.295 90.6676 184.761 90.7409 185.335 90.7409C185.841 90.7409 186.201 90.8743 186.415 91.1409C186.641 91.3943 186.755 91.7143 186.755 92.1009C186.755 92.5143 186.615 92.8609 186.335 93.1409C186.068 93.4076 185.668 93.5409 185.135 93.5409C184.775 93.5409 184.401 93.5076 184.015 93.4409C183.628 93.3876 183.255 93.2743 182.895 93.1009C182.535 92.9143 182.215 92.6476 181.935 92.3009C181.655 91.9543 181.435 91.4943 181.275 90.9209L181.635 91.0409C181.448 91.7076 181.195 92.2209 180.875 92.5809C180.555 92.9409 180.161 93.1943 179.695 93.3409C179.228 93.4743 178.668 93.5409 178.015 93.5409C177.415 93.5409 176.881 93.4609 176.415 93.3009C175.948 93.1409 175.575 92.8809 175.295 92.5209C175.028 92.1476 174.888 91.6476 174.875 91.0209H175.555C175.288 91.7676 174.981 92.3209 174.635 92.6809C174.288 93.0409 173.868 93.2743 173.375 93.3809C172.881 93.4876 172.261 93.5409 171.515 93.5409C171.061 93.5409 170.615 93.4943 170.175 93.4009C169.735 93.2943 169.341 93.0609 168.995 92.7009C168.648 92.3276 168.395 91.7409 168.235 90.9409L169.315 90.9009C169.035 91.6876 168.668 92.2676 168.215 92.6409C167.775 93.0143 167.268 93.2609 166.695 93.3809C166.121 93.4876 165.481 93.5409 164.775 93.5409ZM175.035 81.1609C174.701 81.1609 174.408 81.0343 174.155 80.7809C173.915 80.5276 173.795 80.2276 173.795 79.8809C173.795 79.5343 173.915 79.2409 174.155 79.0009C174.408 78.7609 174.701 78.6409 175.035 78.6409C175.381 78.6409 175.675 78.7609 175.915 79.0009C176.155 79.2409 176.275 79.5343 176.275 79.8809C176.275 80.2276 176.155 80.5276 175.915 80.7809C175.675 81.0343 175.381 81.1609 175.035 81.1609ZM173.435 83.8009C173.101 83.8009 172.808 83.6743 172.555 83.4209C172.315 83.1676 172.195 82.8676 172.195 82.5209C172.195 82.1743 172.315 81.8809 172.555 81.6409C172.808 81.4009 173.101 81.2809 173.435 81.2809C173.781 81.2809 174.075 81.4009 174.315 81.6409C174.555 81.8809 174.675 82.1743 174.675 82.5209C174.675 82.8676 174.555 83.1676 174.315 83.4209C174.075 83.6743 173.781 83.8009 173.435 83.8009ZM176.535 83.8009C176.201 83.8009 175.908 83.6743 175.655 83.4209C175.415 83.1676 175.295 82.8676 175.295 82.5209C175.295 82.1743 175.415 81.8809 175.655 81.6409C175.908 81.4009 176.201 81.2809 176.535 81.2809C176.881 81.2809 177.175 81.4009 177.415 81.6409C177.655 81.8809 177.775 82.1743 177.775 82.5209C177.775 82.8676 177.655 83.1676 177.415 83.4209C177.175 83.6743 176.881 83.8009 176.535 83.8009ZM185.146 93.5409L185.346 90.7409C185.959 90.7409 186.399 90.6809 186.666 90.5609C186.932 90.4276 187.092 90.1876 187.146 89.8409C187.199 89.4809 187.212 88.9609 187.186 88.2809L186.826 78.8009H189.646L190.046 88.4809C190.072 89.2543 190.039 89.9543 189.946 90.5809C189.866 91.1943 189.659 91.7209 189.326 92.1609C189.006 92.6009 188.506 92.9409 187.826 93.1809C187.159 93.4209 186.266 93.5409 185.146 93.5409ZM192.683 93.4409L192.263 78.8009H195.063L195.483 93.4409H192.683ZM197.692 98.0409L197.112 95.2409C198.059 95.1209 198.885 94.9743 199.592 94.8009C200.299 94.6409 200.892 94.4143 201.372 94.1209C201.852 93.8276 202.212 93.4276 202.452 92.9209C202.692 92.4009 202.812 91.7343 202.812 90.9209C202.812 90.6276 202.785 90.3343 202.732 90.0409C202.679 89.7343 202.599 89.4543 202.492 89.2009C202.385 88.9476 202.245 88.7409 202.072 88.5809C201.912 88.4209 201.719 88.3409 201.492 88.3409C201.252 88.3409 201.039 88.4276 200.852 88.6009C200.665 88.7609 200.519 88.9676 200.412 89.2209C200.305 89.4609 200.252 89.7076 200.252 89.9609C200.252 90.1476 200.299 90.3076 200.392 90.4409C200.485 90.5609 200.625 90.6543 200.812 90.7209C200.999 90.7743 201.232 90.8009 201.512 90.8009C201.832 90.8009 202.159 90.7676 202.492 90.7009C202.839 90.6209 203.152 90.5143 203.432 90.3809L203.512 92.5609C203.192 92.8143 202.825 93.0409 202.412 93.2409C201.999 93.4276 201.499 93.5209 200.912 93.5209C200.432 93.5209 199.985 93.4676 199.572 93.3609C199.159 93.2409 198.792 93.0609 198.472 92.8209C198.165 92.5809 197.925 92.2743 197.752 91.9009C197.579 91.5143 197.492 91.0543 197.492 90.5209C197.492 89.8676 197.599 89.2343 197.812 88.6209C198.025 88.0076 198.319 87.4609 198.692 86.9809C199.079 86.4876 199.519 86.1009 200.012 85.8209C200.519 85.5276 201.052 85.3809 201.612 85.3809C202.279 85.3809 202.859 85.5476 203.352 85.8809C203.859 86.2143 204.279 86.6543 204.612 87.2009C204.945 87.7343 205.199 88.3143 205.372 88.9409C205.545 89.5676 205.632 90.1676 205.632 90.7409C205.632 92.2476 205.312 93.5276 204.672 94.5809C204.032 95.6343 203.119 96.4476 201.932 97.0209C200.745 97.6076 199.332 97.9476 197.692 98.0409ZM222.965 93.5409C222.018 93.5409 221.198 93.4209 220.505 93.1809C219.825 92.9276 219.298 92.5276 218.925 91.9809C218.552 91.4209 218.338 90.6743 218.285 89.7409L217.925 81.6809H220.745L221.085 88.7609C221.112 89.3076 221.198 89.7276 221.345 90.0209C221.505 90.3009 221.732 90.4943 222.025 90.6009C222.318 90.6943 222.698 90.7409 223.165 90.7409C223.672 90.7409 224.032 90.8743 224.245 91.1409C224.458 91.3943 224.565 91.7143 224.565 92.1009C224.565 92.5143 224.425 92.8609 224.145 93.1409C223.878 93.4076 223.485 93.5409 222.965 93.5409ZM219.305 91.6809C218.412 91.8809 217.552 91.9743 216.725 91.9609C215.898 91.9343 215.158 91.7876 214.505 91.5209C213.852 91.2409 213.332 90.8409 212.945 90.3209C212.572 89.8009 212.385 89.1409 212.385 88.3409C212.385 87.6343 212.538 86.9943 212.845 86.4209C213.165 85.8343 213.605 85.3209 214.165 84.8809C214.738 84.4409 215.405 84.0676 216.165 83.7609C216.925 83.4543 217.752 83.2209 218.645 83.0609L218.925 85.9009C218.352 85.9276 217.832 86.0076 217.365 86.1409C216.912 86.2609 216.518 86.4209 216.185 86.6209C215.865 86.8209 215.618 87.0476 215.445 87.3009C215.272 87.5409 215.185 87.8009 215.185 88.0809C215.185 88.3076 215.265 88.4943 215.425 88.6409C215.585 88.7876 215.798 88.9076 216.065 89.0009C216.332 89.0809 216.638 89.1276 216.985 89.1409C217.332 89.1543 217.685 89.1343 218.045 89.0809C218.418 89.0276 218.785 88.9409 219.145 88.8209L219.305 91.6809ZM219.365 79.6209C218.978 79.6209 218.645 79.4876 218.365 79.2209C218.098 78.9409 217.965 78.6143 217.965 78.2409C217.965 77.8543 218.098 77.5209 218.365 77.2409C218.645 76.9609 218.978 76.8209 219.365 76.8209C219.738 76.8209 220.058 76.9609 220.325 77.2409C220.592 77.5209 220.725 77.8543 220.725 78.2409C220.725 78.6143 220.592 78.9409 220.325 79.2209C220.058 79.4876 219.738 79.6209 219.365 79.6209ZM215.905 79.6009C215.518 79.6009 215.185 79.4676 214.905 79.2009C214.638 78.9209 214.505 78.5943 214.505 78.2209C214.505 77.8343 214.638 77.5009 214.905 77.2209C215.185 76.9409 215.518 76.8009 215.905 76.8009C216.278 76.8009 216.598 76.9409 216.865 77.2209C217.132 77.5009 217.265 77.8343 217.265 78.2209C217.265 78.5943 217.132 78.9209 216.865 79.2009C216.598 79.4676 216.278 79.6009 215.905 79.6009ZM222.958 93.5409L223.158 90.7409C223.958 90.7409 224.572 90.7009 224.998 90.6209C225.425 90.5409 225.718 90.3943 225.878 90.1809C226.052 89.9543 226.138 89.6343 226.138 89.2209C226.138 88.8476 226.085 88.4009 225.978 87.8809C225.885 87.3609 225.758 86.8209 225.598 86.2609C225.452 85.7009 225.292 85.1876 225.118 84.7209L227.878 83.9609C228.052 84.4143 228.218 84.9409 228.378 85.5409C228.538 86.1409 228.672 86.7609 228.778 87.4009C228.885 88.0276 228.938 88.6343 228.938 89.2209C228.938 90.1276 228.792 90.8676 228.498 91.4409C228.205 92.0009 227.792 92.4343 227.258 92.7409C226.738 93.0476 226.112 93.2609 225.378 93.3809C224.645 93.4876 223.838 93.5409 222.958 93.5409ZM227.898 98.1809C227.512 98.1809 227.178 98.0409 226.898 97.7609C226.632 97.4943 226.498 97.1743 226.498 96.8009C226.498 96.4143 226.632 96.0809 226.898 95.8009C227.178 95.5209 227.512 95.3809 227.898 95.3809C228.272 95.3809 228.592 95.5209 228.858 95.8009C229.125 96.0809 229.258 96.4143 229.258 96.8009C229.258 97.1743 229.125 97.4943 228.858 97.7609C228.592 98.0409 228.272 98.1809 227.898 98.1809ZM224.438 98.1809C224.052 98.1809 223.718 98.0409 223.438 97.7609C223.172 97.4943 223.038 97.1743 223.038 96.8009C223.038 96.4143 223.172 96.0809 223.438 95.8009C223.718 95.5209 224.052 95.3809 224.438 95.3809C224.812 95.3809 225.132 95.5209 225.398 95.8009C225.665 96.0809 225.798 96.4143 225.798 96.8009C225.798 97.1743 225.665 97.4943 225.398 97.7609C225.132 98.0409 224.812 98.1809 224.438 98.1809ZM230.466 98.0409L229.446 95.4809C230.592 95.0809 231.519 94.6409 232.226 94.1609C232.946 93.6809 233.472 93.1676 233.806 92.6209C234.152 92.0743 234.326 91.5076 234.326 90.9209C234.326 90.5476 234.272 90.1609 234.166 89.7609C234.059 89.3476 233.906 88.9143 233.706 88.4609C233.519 88.0076 233.292 87.5343 233.026 87.0409L235.646 85.7809C236.112 86.6743 236.472 87.5276 236.726 88.3409C236.992 89.1543 237.126 89.9143 237.126 90.6209C237.126 91.2743 237.039 91.9009 236.866 92.5009C236.706 93.1009 236.452 93.6609 236.106 94.1809C235.772 94.7143 235.339 95.2143 234.806 95.6809C234.272 96.1476 233.646 96.5743 232.926 96.9609C232.206 97.3609 231.386 97.7209 230.466 98.0409ZM244.669 93.5409C243.429 93.5409 242.469 93.4143 241.789 93.1609C241.123 92.9076 240.656 92.5143 240.389 91.9809C240.123 91.4343 239.969 90.7476 239.929 89.9209L239.509 78.8009H242.309L242.729 88.5809C242.756 89.1943 242.823 89.6543 242.929 89.9609C243.036 90.2676 243.236 90.4743 243.529 90.5809C243.836 90.6876 244.283 90.7409 244.869 90.7409C245.376 90.7409 245.736 90.8743 245.949 91.1409C246.176 91.3943 246.289 91.7143 246.289 92.1009C246.289 92.5143 246.149 92.8609 245.869 93.1409C245.589 93.4076 245.189 93.5409 244.669 93.5409ZM257.777 93.5409C257.163 93.5409 256.59 93.4943 256.057 93.4009C255.537 93.3076 255.057 93.1476 254.617 92.9209C254.177 92.6809 253.783 92.3543 253.437 91.9409C253.103 91.5276 252.823 91.0076 252.597 90.3809L254.177 89.1209C254.417 89.5476 254.71 89.8809 255.057 90.1209C255.403 90.3476 255.817 90.5076 256.297 90.6009C256.777 90.6943 257.337 90.7409 257.977 90.7409C258.483 90.7409 258.843 90.8743 259.057 91.1409C259.27 91.3943 259.377 91.7143 259.377 92.1009C259.377 92.5143 259.237 92.8609 258.957 93.1409C258.69 93.4076 258.297 93.5409 257.777 93.5409ZM244.697 93.5409L244.897 90.7409C245.617 90.7409 246.33 90.7009 247.037 90.6209C247.743 90.5409 248.43 90.4209 249.097 90.2609C249.763 90.1009 250.397 89.8943 250.997 89.6409C251.61 89.3876 252.183 89.0809 252.717 88.7209C252.317 88.4809 251.883 88.2743 251.417 88.1009C250.95 87.9276 250.45 87.8009 249.917 87.7209C249.397 87.6276 248.843 87.5809 248.257 87.5809C248.043 87.5809 247.817 87.5876 247.577 87.6009C247.35 87.6143 247.117 87.6409 246.877 87.6809C246.637 87.7076 246.397 87.7476 246.157 87.8009L245.757 85.0609C246.143 84.9543 246.55 84.8809 246.977 84.8409C247.417 84.7876 247.803 84.7609 248.137 84.7609C248.857 84.7609 249.517 84.8409 250.117 85.0009C250.73 85.1609 251.29 85.3609 251.797 85.6009C252.317 85.8409 252.797 86.0809 253.237 86.3209C253.69 86.5609 254.117 86.7609 254.517 86.9209C254.93 87.0809 255.33 87.1609 255.717 87.1609H256.457L256.777 89.8209C256.203 89.8476 255.663 89.9609 255.157 90.1609C254.663 90.3476 254.17 90.5876 253.677 90.8809C253.197 91.1609 252.677 91.4543 252.117 91.7609C251.57 92.0676 250.95 92.3543 250.257 92.6209C249.563 92.8876 248.763 93.1076 247.857 93.2809C246.95 93.4543 245.897 93.5409 244.697 93.5409ZM250.357 98.0409C249.97 98.0409 249.637 97.9076 249.357 97.6409C249.09 97.3743 248.957 97.0476 248.957 96.6609C248.957 96.2743 249.09 95.9343 249.357 95.6409C249.637 95.3609 249.97 95.2209 250.357 95.2209C250.743 95.2209 251.07 95.3609 251.337 95.6409C251.617 95.9343 251.757 96.2743 251.757 96.6609C251.757 97.0476 251.617 97.3743 251.337 97.6409C251.07 97.9076 250.743 98.0409 250.357 98.0409ZM257.783 93.5409L257.983 90.7409C258.463 90.7409 258.876 90.6943 259.223 90.6009C259.569 90.5076 259.863 90.3209 260.103 90.0409C260.343 89.7476 260.543 89.3209 260.703 88.7609C260.876 88.2009 261.029 87.4543 261.163 86.5209L263.783 86.9609C263.756 87.1609 263.716 87.3943 263.663 87.6609C263.623 87.9276 263.583 88.2009 263.543 88.4809C263.516 88.7476 263.503 89.0009 263.503 89.2409C263.503 89.4809 263.549 89.6943 263.643 89.8809C263.736 90.0676 263.883 90.2276 264.083 90.3609C264.296 90.4809 264.569 90.5743 264.903 90.6409C265.249 90.7076 265.669 90.7409 266.163 90.7409C266.669 90.7409 267.029 90.8743 267.243 91.1409C267.456 91.3943 267.563 91.7143 267.563 92.1009C267.563 92.5143 267.423 92.8609 267.143 93.1409C266.876 93.4076 266.483 93.5409 265.963 93.5409C265.363 93.5409 264.816 93.4943 264.323 93.4009C263.843 93.3076 263.423 93.1543 263.063 92.9409C262.716 92.7143 262.429 92.4209 262.203 92.0609C261.989 91.6876 261.856 91.2343 261.803 90.7009H262.763C262.523 91.3409 262.216 91.8543 261.843 92.2409C261.483 92.6143 261.076 92.8943 260.623 93.0809C260.169 93.2676 259.696 93.3876 259.203 93.4409C258.723 93.5076 258.249 93.5409 257.783 93.5409ZM264.203 84.7209C263.816 84.7209 263.483 84.5876 263.203 84.3209C262.936 84.0409 262.803 83.7143 262.803 83.3409C262.803 82.9543 262.936 82.6209 263.203 82.3409C263.483 82.0609 263.816 81.9209 264.203 81.9209C264.576 81.9209 264.896 82.0609 265.163 82.3409C265.429 82.6209 265.563 82.9543 265.563 83.3409C265.563 83.7143 265.429 84.0409 265.163 84.3209C264.896 84.5876 264.576 84.7209 264.203 84.7209ZM260.743 84.7009C260.356 84.7009 260.023 84.5676 259.743 84.3009C259.476 84.0209 259.343 83.6943 259.343 83.3209C259.343 82.9343 259.476 82.6009 259.743 82.3209C260.023 82.0409 260.356 81.9009 260.743 81.9009C261.116 81.9009 261.436 82.0409 261.703 82.3209C261.969 82.6009 262.103 82.9343 262.103 83.3209C262.103 83.6943 261.969 84.0209 261.703 84.3009C261.436 84.5676 261.116 84.7009 260.743 84.7009ZM265.966 93.5409L266.166 90.7409C266.779 90.7409 267.219 90.6809 267.486 90.5609C267.753 90.4276 267.913 90.1876 267.966 89.8409C268.019 89.4809 268.033 88.9609 268.006 88.2809L267.646 78.8009H270.466L270.866 88.4809C270.893 89.2543 270.859 89.9543 270.766 90.5809C270.686 91.1943 270.479 91.7209 270.146 92.1609C269.826 92.6009 269.326 92.9409 268.646 93.1809C267.979 93.4209 267.086 93.5409 265.966 93.5409ZM273.504 93.4409L273.084 78.8009H275.884L276.304 93.4409H273.504ZM291.204 93.8609L291.724 91.0609C293.018 91.0609 294.144 91.0276 295.104 90.9609C296.064 90.8809 296.858 90.7676 297.484 90.6209C298.124 90.4609 298.598 90.2543 298.904 90.0009C299.224 89.7476 299.384 89.4409 299.384 89.0809C299.384 88.6009 299.304 88.0276 299.144 87.3609C298.984 86.6809 298.778 85.9943 298.524 85.3009L301.144 84.5409C301.318 84.9943 301.484 85.4943 301.644 86.0409C301.804 86.5743 301.931 87.1143 302.024 87.6609C302.131 88.1943 302.184 88.6943 302.184 89.1609C302.184 89.9876 302.004 90.7009 301.644 91.3009C301.284 91.8876 300.684 92.3743 299.844 92.7609C299.018 93.1343 297.898 93.4076 296.484 93.5809C295.071 93.7676 293.311 93.8609 291.204 93.8609ZM291.184 93.8609C289.744 93.8609 288.524 93.7476 287.524 93.5209C286.538 93.3076 285.731 93.0009 285.104 92.6009C284.491 92.1876 284.044 91.7076 283.764 91.1609C283.484 90.6143 283.344 90.0143 283.344 89.3609C283.344 88.9343 283.378 88.5076 283.444 88.0809C283.524 87.6409 283.618 87.2143 283.724 86.8009C283.844 86.3876 283.951 86.0143 284.044 85.6809L286.544 86.2609C286.491 86.5009 286.431 86.7609 286.364 87.0409C286.298 87.3209 286.244 87.5943 286.204 87.8609C286.164 88.1143 286.144 88.3476 286.144 88.5609C286.144 89.0543 286.318 89.4943 286.664 89.8809C287.024 90.2543 287.611 90.5476 288.424 90.7609C289.238 90.9609 290.331 91.0609 291.704 91.0609L292.104 93.2209L291.184 93.8609ZM294.484 84.7209C294.098 84.7209 293.764 84.5876 293.484 84.3209C293.218 84.0409 293.084 83.7143 293.084 83.3409C293.084 82.9543 293.218 82.6209 293.484 82.3409C293.764 82.0609 294.098 81.9209 294.484 81.9209C294.858 81.9209 295.178 82.0609 295.444 82.3409C295.711 82.6209 295.844 82.9543 295.844 83.3409C295.844 83.7143 295.711 84.0409 295.444 84.3209C295.178 84.5876 294.858 84.7209 294.484 84.7209ZM291.024 84.7009C290.638 84.7009 290.304 84.5676 290.024 84.3009C289.758 84.0209 289.624 83.6943 289.624 83.3209C289.624 82.9343 289.758 82.6009 290.024 82.3209C290.304 82.0409 290.638 81.9009 291.024 81.9009C291.398 81.9009 291.718 82.0409 291.984 82.3209C292.251 82.6009 292.384 82.9343 292.384 83.3209C292.384 83.6943 292.251 84.0209 291.984 84.3009C291.718 84.5676 291.398 84.7009 291.024 84.7009ZM309.533 93.5409C308.293 93.5409 307.333 93.4143 306.653 93.1609C305.986 92.9076 305.519 92.5143 305.253 91.9809C304.986 91.4343 304.833 90.7476 304.793 89.9209L304.373 78.8009H307.173L307.593 88.5809C307.619 89.1943 307.686 89.6543 307.793 89.9609C307.899 90.2676 308.099 90.4743 308.393 90.5809C308.699 90.6876 309.146 90.7409 309.733 90.7409C310.239 90.7409 310.599 90.8743 310.813 91.1409C311.039 91.3943 311.153 91.7143 311.153 92.1009C311.153 92.5143 311.013 92.8609 310.733 93.1409C310.453 93.4076 310.053 93.5409 309.533 93.5409ZM309.56 93.5409L309.76 90.7409C310.067 90.7409 310.327 90.6676 310.54 90.5209C310.767 90.3609 311 90.1009 311.24 89.7409C311.48 89.3676 311.76 88.8676 312.08 88.2409C312.48 87.4409 312.893 86.8143 313.32 86.3609C313.76 85.9076 314.207 85.5876 314.66 85.4009C315.127 85.2009 315.593 85.1009 316.06 85.1009C316.647 85.1009 317.193 85.2276 317.7 85.4809C318.207 85.7343 318.647 86.0809 319.02 86.5209C319.393 86.9476 319.68 87.4409 319.88 88.0009C320.093 88.5476 320.2 89.1143 320.2 89.7009C320.2 90.4076 320.047 91.0476 319.74 91.6209C319.447 92.1809 319.033 92.6276 318.5 92.9609C317.98 93.2809 317.38 93.4409 316.7 93.4409C316.127 93.4409 315.46 93.3409 314.7 93.1409C313.94 92.9409 313.14 92.5209 312.3 91.8809L313.32 89.4609C313.92 89.8743 314.48 90.1743 315 90.3609C315.533 90.5476 315.973 90.6409 316.32 90.6409C316.587 90.6409 316.807 90.6143 316.98 90.5609C317.153 90.5076 317.28 90.4209 317.36 90.3009C317.44 90.1809 317.48 90.0209 317.48 89.8209C317.48 89.5409 317.413 89.2543 317.28 88.9609C317.147 88.6676 316.967 88.4209 316.74 88.2209C316.527 88.0076 316.273 87.9009 315.98 87.9009C315.7 87.9009 315.46 88.0076 315.26 88.2209C315.073 88.4209 314.887 88.7143 314.7 89.1009C314.527 89.4743 314.313 89.9143 314.06 90.4209C313.753 91.0343 313.453 91.5476 313.16 91.9609C312.867 92.3609 312.553 92.6809 312.22 92.9209C311.9 93.1476 311.52 93.3076 311.08 93.4009C310.653 93.4943 310.147 93.5409 309.56 93.5409ZM334.801 93.5409C333.867 93.5409 333.094 93.4743 332.481 93.3409C331.881 93.1943 331.407 92.9743 331.061 92.6809C330.714 92.3743 330.467 91.9943 330.321 91.5409C330.174 91.0876 330.087 90.5476 330.061 89.9209L329.641 78.8009H332.441L332.861 88.5809C332.887 89.1943 332.954 89.6543 333.061 89.9609C333.167 90.2676 333.367 90.4743 333.661 90.5809C333.967 90.6876 334.414 90.7409 335.001 90.7409C335.507 90.7409 335.867 90.8743 336.081 91.1409C336.307 91.3943 336.421 91.7143 336.421 92.1009C336.421 92.5143 336.281 92.8609 336.001 93.1409C335.721 93.4076 335.321 93.5409 334.801 93.5409ZM324.041 93.5409C323.681 93.5409 323.314 93.5076 322.941 93.4409C322.581 93.3876 322.327 93.3476 322.181 93.3209L322.561 90.4209C323.481 90.5409 324.374 90.5676 325.241 90.5009C326.121 90.4209 326.907 90.2076 327.601 89.8609C328.307 89.5009 328.867 88.9809 329.281 88.3009C329.694 87.6076 329.901 86.7143 329.901 85.6209L330.981 88.7609C330.821 89.6676 330.547 90.4209 330.161 91.0209C329.787 91.6076 329.341 92.0743 328.821 92.4209C328.314 92.7543 327.774 93.0009 327.201 93.1609C326.627 93.3209 326.067 93.4209 325.521 93.4609C324.974 93.5143 324.481 93.5409 324.041 93.5409ZM328.381 90.8009C328.181 90.4143 327.894 89.9609 327.521 89.4409C327.147 88.9076 326.687 88.3209 326.141 87.6809C325.607 87.0276 324.994 86.3409 324.301 85.6209C323.607 84.8876 322.841 84.1343 322.001 83.3609L323.741 81.4609C324.981 82.6343 325.987 83.6209 326.761 84.4209C327.534 85.2209 328.147 85.8943 328.601 86.4409C329.067 86.9743 329.421 87.4343 329.661 87.8209C329.914 88.2076 330.127 88.5809 330.301 88.9409L328.381 90.8009ZM334.734 93.5409L334.934 90.7409C335.867 90.7409 336.707 90.6809 337.454 90.5609C338.2 90.4276 338.854 90.2543 339.414 90.0409C339.987 89.8276 340.46 89.5809 340.834 89.3009C341.22 89.0209 341.507 88.7276 341.694 88.4209C341.894 88.1009 341.994 87.7876 341.994 87.4809C341.994 87.3076 341.947 87.1476 341.854 87.0009C341.774 86.8409 341.634 86.7143 341.434 86.6209C341.234 86.5143 340.96 86.4609 340.614 86.4609C340.44 86.4609 340.234 86.4809 339.994 86.5209C339.754 86.5609 339.514 86.6209 339.274 86.7009C339.034 86.7676 338.807 86.8609 338.594 86.9809C338.874 87.1943 339.18 87.4676 339.514 87.8009C339.847 88.1209 340.18 88.4609 340.514 88.8209C340.847 89.1676 341.134 89.5076 341.374 89.8409C341.654 89.9609 341.96 90.0809 342.294 90.2009C342.64 90.3076 343.014 90.4009 343.414 90.4809C343.814 90.5609 344.234 90.6276 344.674 90.6809C345.114 90.7209 345.567 90.7409 346.034 90.7409C346.54 90.7409 346.9 90.8743 347.114 91.1409C347.34 91.3943 347.454 91.7143 347.454 92.1009C347.454 92.5143 347.314 92.8609 347.034 93.1409C346.754 93.4076 346.354 93.5409 345.834 93.5409C344.767 93.5409 343.82 93.4609 342.994 93.3009C342.167 93.1276 341.427 92.8809 340.774 92.5609C340.134 92.2276 339.534 91.8276 338.974 91.3609C338.814 91.0809 338.587 90.7809 338.294 90.4609C338.014 90.1276 337.714 89.8076 337.394 89.5009C337.087 89.1943 336.807 88.9409 336.554 88.7409C336.487 88.6876 336.407 88.5476 336.314 88.3209C336.234 88.0809 336.16 87.8343 336.094 87.5809C336.027 87.3143 335.994 87.1276 335.994 87.0209C335.994 86.7143 336.134 86.3876 336.414 86.0409C336.707 85.6943 337.094 85.3743 337.574 85.0809C338.067 84.7743 338.607 84.5276 339.194 84.3409C339.794 84.1409 340.4 84.0409 341.014 84.0409C341.84 84.0409 342.527 84.1676 343.074 84.4209C343.634 84.6609 344.054 85.0009 344.334 85.4409C344.614 85.8676 344.754 86.3676 344.754 86.9409C344.754 87.5809 344.614 88.2209 344.334 88.8609C344.054 89.4876 343.64 90.0809 343.094 90.6409C342.56 91.2009 341.887 91.7009 341.074 92.1409C340.274 92.5676 339.34 92.9076 338.274 93.1609C337.22 93.4143 336.04 93.5409 334.734 93.5409ZM345.849 93.5409L346.049 90.7409C346.662 90.7409 347.102 90.6809 347.369 90.5609C347.636 90.4276 347.796 90.1876 347.849 89.8409C347.902 89.4809 347.916 88.9609 347.889 88.2809L347.529 78.8009H350.349L350.749 88.4809C350.776 89.2543 350.742 89.9543 350.649 90.5809C350.569 91.1943 350.362 91.7209 350.029 92.1609C349.709 92.6009 349.209 92.9409 348.529 93.1809C347.862 93.4209 346.969 93.5409 345.849 93.5409ZM353.386 93.4409L352.966 78.8009H355.766L356.186 93.4409H353.386ZM359.455 95.9009L358.575 95.2209C358.962 94.8076 359.222 94.4276 359.355 94.0809C359.502 93.7343 359.575 93.3743 359.575 93.0009L360.015 93.4409H358.435V91.0609H360.815V92.6809C360.815 93.2809 360.715 93.8343 360.515 94.3409C360.315 94.8609 359.962 95.3809 359.455 95.9009Z" fill="white"/>
<defs>
<linearGradient id="paint0_linear_1309_28822" x1="-101.134" y1="-55.9754" x2="134.539" y2="232.994" gradientUnits="userSpaceOnUse">
<stop stop-color="#5956E9"/>
<stop offset="1" stop-color="#38D4FF" stop-opacity="0"/>
</linearGradient>
</defs>
</svg>
