<svg width="430" height="206" viewBox="0 0 430 206" fill="none" xmlns="http://www.w3.org/2000/svg">
<g filter="url(#filter0_d_537_5743)">
<rect x="37" y="18" width="356" height="131.882" rx="20" fill="#263A7D"/>
</g>
<mask id="mask0_537_5743" style="mask-type:alpha" maskUnits="userSpaceOnUse" x="37" y="18" width="356" height="132">
<rect x="37" y="18" width="356" height="131.882" rx="20" fill="#38D4FF"/>
</mask>
<g mask="url(#mask0_537_5743)">
<rect x="176.57" y="-39.4646" width="240.185" height="266.191" transform="rotate(-16.2312 176.57 -39.4646)" fill="url(#paint0_linear_537_5743)"/>
</g>
<path d="M73.04 89.4409V77.0809H68.22V75.3409H79.94V77.0809H75.12V89.4409H73.04ZM80.1236 89.4409V81.8609C80.1236 81.4476 80.1103 81.0343 80.0836 80.6209C80.0703 80.1943 80.0436 79.7743 80.0036 79.3609H81.9636L82.1836 81.9609H81.8636C81.9969 81.3343 82.2236 80.8143 82.5436 80.4009C82.8636 79.9876 83.2503 79.6809 83.7036 79.4809C84.1703 79.2809 84.6569 79.1809 85.1636 79.1809C85.3769 79.1809 85.5569 79.1943 85.7036 79.2209C85.8503 79.2343 85.9969 79.2609 86.1436 79.3009L86.1236 81.1009C85.8969 81.0076 85.6969 80.9543 85.5236 80.9409C85.3636 80.9143 85.1636 80.9009 84.9236 80.9009C84.3369 80.9009 83.8369 81.0343 83.4236 81.3009C83.0103 81.5543 82.6969 81.9009 82.4836 82.3409C82.2703 82.7809 82.1636 83.2543 82.1636 83.7609V89.4409H80.1236ZM91.2827 89.6209C90.0693 89.6209 89.156 89.2943 88.5427 88.6409C87.9427 87.9743 87.6427 86.9543 87.6427 85.5809V79.3609H89.6627V85.5409C89.6627 86.3809 89.836 87.0009 90.1827 87.4009C90.5293 87.8009 91.056 88.0009 91.7627 88.0009C92.5627 88.0009 93.2093 87.7343 93.7027 87.2009C94.196 86.6676 94.4427 85.9609 94.4427 85.0809V79.3609H96.4627V89.4409H94.5027V87.2809H94.7627C94.4827 88.0276 94.036 88.6076 93.4227 89.0209C92.8093 89.4209 92.096 89.6209 91.2827 89.6209ZM102.881 89.6209C102.041 89.6209 101.268 89.5143 100.561 89.3009C99.8547 89.0876 99.2681 88.7876 98.8014 88.4009L99.4214 87.0209C99.9147 87.3943 100.461 87.6743 101.061 87.8609C101.661 88.0476 102.275 88.1409 102.901 88.1409C103.635 88.1409 104.188 88.0143 104.561 87.7609C104.935 87.4943 105.121 87.1343 105.121 86.6809C105.121 86.3343 105.001 86.0543 104.761 85.8409C104.535 85.6276 104.155 85.4676 103.621 85.3609L101.701 84.9809C100.848 84.7943 100.201 84.4743 99.7614 84.0209C99.3214 83.5676 99.1014 82.9876 99.1014 82.2809C99.1014 81.6809 99.2614 81.1476 99.5814 80.6809C99.9147 80.2143 100.381 79.8476 100.981 79.5809C101.595 79.3143 102.308 79.1809 103.121 79.1809C103.868 79.1809 104.561 79.2876 105.201 79.5009C105.841 79.7143 106.375 80.0209 106.801 80.4209L106.161 81.7609C105.748 81.4143 105.281 81.1476 104.761 80.9609C104.241 80.7609 103.715 80.6609 103.181 80.6609C102.435 80.6609 101.881 80.8009 101.521 81.0809C101.161 81.3609 100.981 81.7276 100.981 82.1809C100.981 82.5276 101.088 82.8143 101.301 83.0409C101.528 83.2543 101.881 83.4209 102.361 83.5409L104.281 83.9209C105.188 84.1076 105.868 84.4143 106.321 84.8409C106.775 85.2676 107.001 85.8409 107.001 86.5609C107.001 87.1876 106.828 87.7343 106.481 88.2009C106.135 88.6676 105.655 89.0209 105.041 89.2609C104.428 89.5009 103.708 89.6209 102.881 89.6209ZM113.205 89.6209C112.111 89.6209 111.285 89.3276 110.725 88.7409C110.165 88.1409 109.885 87.2476 109.885 86.0609V80.9209H107.925V79.3609H109.885V76.7009L111.905 76.1609V79.3609H114.705V80.9209H111.905V85.8809C111.905 86.6276 112.038 87.1609 112.305 87.4809C112.571 87.8009 112.958 87.9609 113.465 87.9609C113.718 87.9609 113.938 87.9409 114.125 87.9009C114.325 87.8476 114.505 87.7876 114.665 87.7209V89.3609C114.465 89.4409 114.231 89.5009 113.965 89.5409C113.698 89.5943 113.445 89.6209 113.205 89.6209ZM121.113 89.6209C119.486 89.6209 118.206 89.1609 117.273 88.2409C116.339 87.3209 115.873 86.0476 115.873 84.4209C115.873 83.3676 116.073 82.4476 116.473 81.6609C116.886 80.8743 117.453 80.2676 118.173 79.8409C118.906 79.4009 119.753 79.1809 120.713 79.1809C121.659 79.1809 122.453 79.3809 123.093 79.7809C123.733 80.1809 124.219 80.7476 124.553 81.4809C124.886 82.2009 125.053 83.0543 125.053 84.0409V84.6809H117.453V83.5209H123.673L123.333 83.7809C123.333 82.7809 123.106 82.0076 122.653 81.4609C122.213 80.9009 121.573 80.6209 120.733 80.6209C119.799 80.6209 119.079 80.9476 118.573 81.6009C118.066 82.2409 117.813 83.1276 117.813 84.2609V84.4609C117.813 85.6476 118.099 86.5409 118.673 87.1409C119.259 87.7409 120.086 88.0409 121.153 88.0409C121.739 88.0409 122.286 87.9609 122.793 87.8009C123.313 87.6276 123.806 87.3476 124.273 86.9609L124.933 88.3409C124.466 88.7543 123.899 89.0743 123.233 89.3009C122.566 89.5143 121.859 89.6209 121.113 89.6209ZM131.231 89.6209C130.351 89.6209 129.571 89.4143 128.891 89.0009C128.224 88.5876 127.704 87.9876 127.331 87.2009C126.971 86.4143 126.791 85.4809 126.791 84.4009C126.791 83.3076 126.971 82.3743 127.331 81.6009C127.704 80.8276 128.224 80.2343 128.891 79.8209C129.571 79.3943 130.351 79.1809 131.231 79.1809C132.097 79.1809 132.857 79.4009 133.511 79.8409C134.177 80.2676 134.617 80.8543 134.831 81.6009H134.591V74.7209H136.611V89.4409H134.611V87.1609H134.851C134.624 87.9209 134.184 88.5209 133.531 88.9609C132.877 89.4009 132.111 89.6209 131.231 89.6209ZM131.731 88.0409C132.597 88.0409 133.297 87.7343 133.831 87.1209C134.364 86.5076 134.631 85.6009 134.631 84.4009C134.631 83.2009 134.364 82.3009 133.831 81.7009C133.297 81.0876 132.597 80.7809 131.731 80.7809C130.851 80.7809 130.144 81.0876 129.611 81.7009C129.091 82.3009 128.831 83.2009 128.831 84.4009C128.831 85.6009 129.091 86.5076 129.611 87.1209C130.144 87.7343 130.851 88.0409 131.731 88.0409ZM150.27 89.6209C149.39 89.6209 148.623 89.4009 147.97 88.9609C147.317 88.5209 146.883 87.9209 146.67 87.1609H146.89V89.4409H144.89V74.7209H146.91V81.6009H146.67C146.897 80.8543 147.33 80.2676 147.97 79.8409C148.623 79.4009 149.39 79.1809 150.27 79.1809C151.163 79.1809 151.943 79.3943 152.61 79.8209C153.277 80.2343 153.79 80.8343 154.15 81.6209C154.523 82.3943 154.71 83.3276 154.71 84.4209C154.71 85.5009 154.523 86.4343 154.15 87.2209C153.79 87.9943 153.27 88.5876 152.59 89.0009C151.923 89.4143 151.15 89.6209 150.27 89.6209ZM149.77 88.0409C150.637 88.0409 151.337 87.7409 151.87 87.1409C152.403 86.5276 152.67 85.6209 152.67 84.4209C152.67 83.2076 152.403 82.3009 151.87 81.7009C151.337 81.0876 150.637 80.7809 149.77 80.7809C148.89 80.7809 148.183 81.0876 147.65 81.7009C147.13 82.3009 146.87 83.2009 146.87 84.4009C146.87 85.6009 147.13 86.5076 147.65 87.1209C148.183 87.7343 148.89 88.0409 149.77 88.0409ZM156.602 93.9809L156.122 92.3409C156.749 92.2076 157.269 92.0476 157.682 91.8609C158.109 91.6743 158.462 91.4276 158.742 91.1209C159.022 90.8276 159.262 90.4476 159.462 89.9809L159.962 88.8009L159.922 89.6209L155.542 79.3609H157.702L161.102 87.7609H160.562L163.962 79.3609H166.042L161.422 90.1609C161.129 90.8276 160.815 91.3876 160.482 91.8409C160.149 92.2943 159.789 92.6609 159.402 92.9409C159.015 93.2209 158.589 93.4409 158.122 93.6009C157.655 93.7609 157.149 93.8876 156.602 93.9809ZM177.695 89.4409V86.0169H182.879V70.3369H184.863L178.207 74.3049V70.4009L184.063 66.8809H187.007V86.0169H191.871V89.4409H177.695ZM197.01 93.6969L195.378 92.4169C196.061 91.7129 196.53 91.0516 196.786 90.4329C197.063 89.8356 197.202 89.1956 197.202 88.5129L198.066 89.4409H195.058V84.9929H199.538V87.9369C199.538 89.0249 199.346 90.0169 198.962 90.9129C198.599 91.8303 197.949 92.7583 197.01 93.6969ZM210.868 89.7609C208.222 89.7609 206.185 88.7583 204.756 86.7529C203.326 84.7263 202.612 81.8463 202.612 78.1129C202.612 74.3369 203.326 71.4676 204.756 69.5049C206.185 67.5423 208.222 66.5609 210.868 66.5609C213.534 66.5609 215.572 67.5423 216.98 69.5049C218.409 71.4676 219.124 74.3263 219.124 78.0809C219.124 81.8356 218.409 84.7263 216.98 86.7529C215.572 88.7583 213.534 89.7609 210.868 89.7609ZM210.868 86.3689C212.318 86.3689 213.396 85.7076 214.1 84.3849C214.804 83.0409 215.156 80.9396 215.156 78.0809C215.156 75.2223 214.804 73.1529 214.1 71.8729C213.396 70.5716 212.318 69.9209 210.868 69.9209C209.438 69.9209 208.361 70.5716 207.636 71.8729C206.932 73.1529 206.58 75.2223 206.58 78.0809C206.58 80.9396 206.932 83.0409 207.636 84.3849C208.361 85.7076 209.438 86.3689 210.868 86.3689ZM230.055 89.7609C227.41 89.7609 225.372 88.7583 223.943 86.7529C222.514 84.7263 221.799 81.8463 221.799 78.1129C221.799 74.3369 222.514 71.4676 223.943 69.5049C225.372 67.5423 227.41 66.5609 230.055 66.5609C232.722 66.5609 234.759 67.5423 236.167 69.5049C237.596 71.4676 238.311 74.3263 238.311 78.0809C238.311 81.8356 237.596 84.7263 236.167 86.7529C234.759 88.7583 232.722 89.7609 230.055 89.7609ZM230.055 86.3689C231.506 86.3689 232.583 85.7076 233.287 84.3849C233.991 83.0409 234.343 80.9396 234.343 78.0809C234.343 75.2223 233.991 73.1529 233.287 71.8729C232.583 70.5716 231.506 69.9209 230.055 69.9209C228.626 69.9209 227.548 70.5716 226.823 71.8729C226.119 73.1529 225.767 75.2223 225.767 78.0809C225.767 80.9396 226.119 83.0409 226.823 84.3849C227.548 85.7076 228.626 86.3689 230.055 86.3689ZM249.243 89.7609C246.597 89.7609 244.56 88.7583 243.131 86.7529C241.701 84.7263 240.987 81.8463 240.987 78.1129C240.987 74.3369 241.701 71.4676 243.131 69.5049C244.56 67.5423 246.597 66.5609 249.243 66.5609C251.909 66.5609 253.947 67.5423 255.355 69.5049C256.784 71.4676 257.499 74.3263 257.499 78.0809C257.499 81.8356 256.784 84.7263 255.355 86.7529C253.947 88.7583 251.909 89.7609 249.243 89.7609ZM249.243 86.3689C250.693 86.3689 251.771 85.7076 252.475 84.3849C253.179 83.0409 253.531 80.9396 253.531 78.0809C253.531 75.2223 253.179 73.1529 252.475 71.8729C251.771 70.5716 250.693 69.9209 249.243 69.9209C247.813 69.9209 246.736 70.5716 246.011 71.8729C245.307 73.1529 244.955 75.2223 244.955 78.0809C244.955 80.9396 245.307 83.0409 246.011 84.3849C246.736 85.7076 247.813 86.3689 249.243 86.3689ZM262.51 93.6969L260.878 92.4169C261.561 91.7129 262.03 91.0516 262.286 90.4329C262.563 89.8356 262.702 89.1956 262.702 88.5129L263.566 89.4409H260.558V84.9929H265.038V87.9369C265.038 89.0249 264.846 90.0169 264.462 90.9129C264.099 91.8303 263.449 92.7583 262.51 93.6969ZM276.368 89.7609C273.722 89.7609 271.685 88.7583 270.256 86.7529C268.826 84.7263 268.112 81.8463 268.112 78.1129C268.112 74.3369 268.826 71.4676 270.256 69.5049C271.685 67.5423 273.722 66.5609 276.368 66.5609C279.034 66.5609 281.072 67.5423 282.48 69.5049C283.909 71.4676 284.624 74.3263 284.624 78.0809C284.624 81.8356 283.909 84.7263 282.48 86.7529C281.072 88.7583 279.034 89.7609 276.368 89.7609ZM276.368 86.3689C277.818 86.3689 278.896 85.7076 279.6 84.3849C280.304 83.0409 280.656 80.9396 280.656 78.0809C280.656 75.2223 280.304 73.1529 279.6 71.8729C278.896 70.5716 277.818 69.9209 276.368 69.9209C274.938 69.9209 273.861 70.5716 273.136 71.8729C272.432 73.1529 272.08 75.2223 272.08 78.0809C272.08 80.9396 272.432 83.0409 273.136 84.3849C273.861 85.7076 274.938 86.3689 276.368 86.3689ZM295.555 89.7609C292.91 89.7609 290.872 88.7583 289.443 86.7529C288.014 84.7263 287.299 81.8463 287.299 78.1129C287.299 74.3369 288.014 71.4676 289.443 69.5049C290.872 67.5423 292.91 66.5609 295.555 66.5609C298.222 66.5609 300.259 67.5423 301.667 69.5049C303.096 71.4676 303.811 74.3263 303.811 78.0809C303.811 81.8356 303.096 84.7263 301.667 86.7529C300.259 88.7583 298.222 89.7609 295.555 89.7609ZM295.555 86.3689C297.006 86.3689 298.083 85.7076 298.787 84.3849C299.491 83.0409 299.843 80.9396 299.843 78.0809C299.843 75.2223 299.491 73.1529 298.787 71.8729C298.083 70.5716 297.006 69.9209 295.555 69.9209C294.126 69.9209 293.048 70.5716 292.323 71.8729C291.619 73.1529 291.267 75.2223 291.267 78.0809C291.267 80.9396 291.619 83.0409 292.323 84.3849C293.048 85.7076 294.126 86.3689 295.555 86.3689ZM314.743 89.7609C312.097 89.7609 310.06 88.7583 308.631 86.7529C307.201 84.7263 306.487 81.8463 306.487 78.1129C306.487 74.3369 307.201 71.4676 308.631 69.5049C310.06 67.5423 312.097 66.5609 314.743 66.5609C317.409 66.5609 319.447 67.5423 320.855 69.5049C322.284 71.4676 322.999 74.3263 322.999 78.0809C322.999 81.8356 322.284 84.7263 320.855 86.7529C319.447 88.7583 317.409 89.7609 314.743 89.7609ZM314.743 86.3689C316.193 86.3689 317.271 85.7076 317.975 84.3849C318.679 83.0409 319.031 80.9396 319.031 78.0809C319.031 75.2223 318.679 73.1529 317.975 71.8729C317.271 70.5716 316.193 69.9209 314.743 69.9209C313.313 69.9209 312.236 70.5716 311.511 71.8729C310.807 73.1529 310.455 75.2223 310.455 78.0809C310.455 80.9396 310.807 83.0409 311.511 84.3849C312.236 85.7076 313.313 86.3689 314.743 86.3689ZM332.49 88.1929V81.6649H326.058V78.8489H332.49V72.4809H335.402V78.8489H341.802V81.6649H335.402V88.1929H332.49ZM69.66 121.441V107.341H75.54C77.06 107.341 78.2267 107.661 79.04 108.301C79.8667 108.941 80.28 109.841 80.28 111.001C80.28 111.868 80.02 112.594 79.5 113.181C78.98 113.768 78.2667 114.161 77.36 114.361V114.061C78.4 114.194 79.2067 114.561 79.78 115.161C80.3533 115.761 80.64 116.554 80.64 117.541C80.64 118.794 80.2133 119.761 79.36 120.441C78.52 121.108 77.3333 121.441 75.8 121.441H69.66ZM71.68 119.821H75.58C76.5267 119.821 77.2667 119.641 77.8 119.281C78.3467 118.921 78.62 118.314 78.62 117.461C78.62 116.608 78.3467 116.001 77.8 115.641C77.2667 115.281 76.5267 115.101 75.58 115.101H71.68V119.821ZM71.68 113.501H75.22C76.2333 113.501 76.9933 113.308 77.5 112.921C78.0067 112.534 78.26 111.968 78.26 111.221C78.26 110.474 78.0067 109.908 77.5 109.521C76.9933 109.134 76.2333 108.941 75.22 108.941H71.68V113.501ZM83.1314 121.441V113.861C83.1314 113.448 83.1181 113.034 83.0914 112.621C83.0781 112.194 83.0514 111.774 83.0114 111.361H84.9714L85.1914 113.961H84.8714C85.0047 113.334 85.2314 112.814 85.5514 112.401C85.8714 111.988 86.2581 111.681 86.7114 111.481C87.1781 111.281 87.6647 111.181 88.1714 111.181C88.3847 111.181 88.5647 111.194 88.7114 111.221C88.8581 111.234 89.0047 111.261 89.1514 111.301L89.1314 113.101C88.9047 113.008 88.7047 112.954 88.5314 112.941C88.3714 112.914 88.1714 112.901 87.9314 112.901C87.3447 112.901 86.8447 113.034 86.4314 113.301C86.0181 113.554 85.7047 113.901 85.4914 114.341C85.2781 114.781 85.1714 115.254 85.1714 115.761V121.441H83.1314ZM94.4728 121.621C93.5795 121.621 92.7995 121.414 92.1328 121.001C91.4661 120.588 90.9461 119.988 90.5728 119.201C90.2128 118.414 90.0328 117.481 90.0328 116.401C90.0328 115.308 90.2128 114.374 90.5728 113.601C90.9461 112.828 91.4661 112.234 92.1328 111.821C92.7995 111.394 93.5795 111.181 94.4728 111.181C95.3528 111.181 96.1195 111.401 96.7728 111.841C97.4261 112.281 97.8595 112.881 98.0728 113.641H97.8528L98.0528 111.361H100.013C99.9728 111.774 99.9328 112.188 99.8928 112.601C99.8661 113.001 99.8528 113.394 99.8528 113.781V121.441H97.8328V119.201H98.0528C97.8395 119.948 97.3995 120.541 96.7328 120.981C96.0795 121.408 95.3261 121.621 94.4728 121.621ZM94.9728 120.041C95.8395 120.041 96.5328 119.734 97.0528 119.121C97.5861 118.508 97.8528 117.601 97.8528 116.401C97.8528 115.201 97.5861 114.301 97.0528 113.701C96.5328 113.088 95.8395 112.781 94.9728 112.781C94.0928 112.781 93.3861 113.088 92.8528 113.701C92.3328 114.301 92.0728 115.201 92.0728 116.401C92.0728 117.601 92.3328 118.508 92.8528 119.121C93.3728 119.734 94.0795 120.041 94.9728 120.041ZM102.8 121.441V113.781C102.8 113.394 102.78 113.001 102.74 112.601C102.714 112.188 102.68 111.774 102.64 111.361H104.6L104.78 113.481H104.54C104.847 112.734 105.32 112.168 105.96 111.781C106.6 111.381 107.34 111.181 108.18 111.181C109.367 111.181 110.26 111.508 110.86 112.161C111.474 112.814 111.78 113.828 111.78 115.201V121.441H109.76V115.321C109.76 114.428 109.58 113.788 109.22 113.401C108.874 113.001 108.34 112.801 107.62 112.801C106.767 112.801 106.087 113.068 105.58 113.601C105.074 114.121 104.82 114.828 104.82 115.721V121.441H102.8ZM118.516 121.621C117.636 121.621 116.856 121.414 116.176 121.001C115.509 120.588 114.989 119.988 114.616 119.201C114.256 118.414 114.076 117.481 114.076 116.401C114.076 115.308 114.256 114.374 114.616 113.601C114.989 112.828 115.509 112.234 116.176 111.821C116.856 111.394 117.636 111.181 118.516 111.181C119.382 111.181 120.142 111.401 120.796 111.841C121.462 112.268 121.902 112.854 122.116 113.601H121.876V106.721H123.896V121.441H121.896V119.161H122.136C121.909 119.921 121.469 120.521 120.816 120.961C120.162 121.401 119.396 121.621 118.516 121.621ZM119.016 120.041C119.882 120.041 120.582 119.734 121.116 119.121C121.649 118.508 121.916 117.601 121.916 116.401C121.916 115.201 121.649 114.301 121.116 113.701C120.582 113.088 119.882 112.781 119.016 112.781C118.136 112.781 117.429 113.088 116.896 113.701C116.376 114.301 116.116 115.201 116.116 116.401C116.116 117.601 116.376 118.508 116.896 119.121C117.429 119.734 118.136 120.041 119.016 120.041ZM130.303 121.621C129.463 121.621 128.69 121.514 127.983 121.301C127.277 121.088 126.69 120.788 126.223 120.401L126.843 119.021C127.337 119.394 127.883 119.674 128.483 119.861C129.083 120.048 129.697 120.141 130.323 120.141C131.057 120.141 131.61 120.014 131.983 119.761C132.357 119.494 132.543 119.134 132.543 118.681C132.543 118.334 132.423 118.054 132.183 117.841C131.957 117.628 131.577 117.468 131.043 117.361L129.123 116.981C128.27 116.794 127.623 116.474 127.183 116.021C126.743 115.568 126.523 114.988 126.523 114.281C126.523 113.681 126.683 113.148 127.003 112.681C127.337 112.214 127.803 111.848 128.403 111.581C129.017 111.314 129.73 111.181 130.543 111.181C131.29 111.181 131.983 111.288 132.623 111.501C133.263 111.714 133.797 112.021 134.223 112.421L133.583 113.761C133.17 113.414 132.703 113.148 132.183 112.961C131.663 112.761 131.137 112.661 130.603 112.661C129.857 112.661 129.303 112.801 128.943 113.081C128.583 113.361 128.403 113.728 128.403 114.181C128.403 114.528 128.51 114.814 128.723 115.041C128.95 115.254 129.303 115.421 129.783 115.541L131.703 115.921C132.61 116.108 133.29 116.414 133.743 116.841C134.197 117.268 134.423 117.841 134.423 118.561C134.423 119.188 134.25 119.734 133.903 120.201C133.557 120.668 133.077 121.021 132.463 121.261C131.85 121.501 131.13 121.621 130.303 121.621ZM153.756 121.621C153.143 121.381 152.563 121.068 152.016 120.681C151.47 120.294 150.99 119.901 150.576 119.501L151.036 119.521C150.45 120.174 149.75 120.688 148.936 121.061C148.123 121.434 147.25 121.621 146.316 121.621C145.316 121.621 144.456 121.468 143.736 121.161C143.03 120.854 142.483 120.428 142.096 119.881C141.723 119.334 141.536 118.694 141.536 117.961C141.536 117.041 141.803 116.261 142.336 115.621C142.87 114.981 143.616 114.361 144.576 113.761L145.236 113.361L144.936 113.741C144.336 113.114 143.896 112.541 143.616 112.021C143.336 111.488 143.196 110.934 143.196 110.361C143.196 109.721 143.35 109.161 143.656 108.681C143.963 108.201 144.39 107.828 144.936 107.561C145.496 107.294 146.156 107.161 146.916 107.161C147.89 107.161 148.683 107.428 149.296 107.961C149.923 108.481 150.236 109.201 150.236 110.121C150.236 110.601 150.136 111.061 149.936 111.501C149.75 111.928 149.43 112.341 148.976 112.741C148.536 113.141 147.936 113.561 147.176 114.001L147.236 113.581L150.936 117.521H150.516C150.863 116.961 151.13 116.301 151.316 115.541C151.503 114.768 151.616 113.948 151.656 113.081H153.376C153.35 114.188 153.19 115.228 152.896 116.201C152.603 117.161 152.21 118.008 151.716 118.741L151.696 118.201C152.043 118.574 152.456 118.934 152.936 119.281C153.416 119.628 153.936 119.921 154.496 120.161L153.756 121.621ZM146.396 120.021C147.143 120.021 147.803 119.881 148.376 119.601C148.963 119.308 149.47 118.881 149.896 118.321L149.856 118.841L145.576 114.381L146.376 114.401L145.776 114.761C145.27 115.081 144.85 115.401 144.516 115.721C144.183 116.028 143.936 116.348 143.776 116.681C143.616 117.014 143.536 117.401 143.536 117.841C143.536 118.521 143.776 119.054 144.256 119.441C144.75 119.828 145.463 120.021 146.396 120.021ZM146.916 108.581C146.356 108.581 145.903 108.741 145.556 109.061C145.223 109.381 145.056 109.808 145.056 110.341C145.056 110.608 145.103 110.861 145.196 111.101C145.29 111.341 145.45 111.608 145.676 111.901C145.903 112.181 146.21 112.528 146.596 112.941L146.076 112.981C146.956 112.474 147.596 112.014 147.996 111.601C148.396 111.188 148.596 110.721 148.596 110.201C148.596 109.708 148.443 109.314 148.136 109.021C147.83 108.728 147.423 108.581 146.916 108.581ZM161.203 121.441V107.341H167.083C168.603 107.341 169.77 107.661 170.583 108.301C171.41 108.941 171.823 109.841 171.823 111.001C171.823 111.868 171.563 112.594 171.043 113.181C170.523 113.768 169.81 114.161 168.903 114.361V114.061C169.943 114.194 170.75 114.561 171.323 115.161C171.896 115.761 172.183 116.554 172.183 117.541C172.183 118.794 171.756 119.761 170.903 120.441C170.063 121.108 168.876 121.441 167.343 121.441H161.203ZM163.223 119.821H167.123C168.07 119.821 168.81 119.641 169.343 119.281C169.89 118.921 170.163 118.314 170.163 117.461C170.163 116.608 169.89 116.001 169.343 115.641C168.81 115.281 168.07 115.101 167.123 115.101H163.223V119.821ZM163.223 113.501H166.763C167.776 113.501 168.536 113.308 169.043 112.921C169.55 112.534 169.803 111.968 169.803 111.221C169.803 110.474 169.55 109.908 169.043 109.521C168.536 109.134 167.776 108.941 166.763 108.941H163.223V113.501ZM178.294 121.621C177.081 121.621 176.168 121.294 175.554 120.641C174.954 119.974 174.654 118.954 174.654 117.581V111.361H176.674V117.541C176.674 118.381 176.848 119.001 177.194 119.401C177.541 119.801 178.068 120.001 178.774 120.001C179.574 120.001 180.221 119.734 180.714 119.201C181.208 118.668 181.454 117.961 181.454 117.081V111.361H183.474V121.441H181.514V119.281H181.774C181.494 120.028 181.048 120.608 180.434 121.021C179.821 121.421 179.108 121.621 178.294 121.621ZM189.893 121.621C189.053 121.621 188.28 121.514 187.573 121.301C186.866 121.088 186.28 120.788 185.813 120.401L186.433 119.021C186.926 119.394 187.473 119.674 188.073 119.861C188.673 120.048 189.286 120.141 189.913 120.141C190.646 120.141 191.2 120.014 191.573 119.761C191.946 119.494 192.133 119.134 192.133 118.681C192.133 118.334 192.013 118.054 191.773 117.841C191.546 117.628 191.166 117.468 190.633 117.361L188.713 116.981C187.86 116.794 187.213 116.474 186.773 116.021C186.333 115.568 186.113 114.988 186.113 114.281C186.113 113.681 186.273 113.148 186.593 112.681C186.926 112.214 187.393 111.848 187.993 111.581C188.606 111.314 189.32 111.181 190.133 111.181C190.88 111.181 191.573 111.288 192.213 111.501C192.853 111.714 193.386 112.021 193.813 112.421L193.173 113.761C192.76 113.414 192.293 113.148 191.773 112.961C191.253 112.761 190.726 112.661 190.193 112.661C189.446 112.661 188.893 112.801 188.533 113.081C188.173 113.361 187.993 113.728 187.993 114.181C187.993 114.528 188.1 114.814 188.313 115.041C188.54 115.254 188.893 115.421 189.373 115.541L191.293 115.921C192.2 116.108 192.88 116.414 193.333 116.841C193.786 117.268 194.013 117.841 194.013 118.561C194.013 119.188 193.84 119.734 193.493 120.201C193.146 120.668 192.666 121.021 192.053 121.261C191.44 121.501 190.72 121.621 189.893 121.621ZM196.394 121.441V111.361H198.414V121.441H196.394ZM196.234 109.261V107.161H198.574V109.261H196.234ZM201.375 121.441V113.781C201.375 113.394 201.355 113.001 201.315 112.601C201.288 112.188 201.255 111.774 201.215 111.361H203.175L203.355 113.481H203.115C203.421 112.734 203.895 112.168 204.535 111.781C205.175 111.381 205.915 111.181 206.755 111.181C207.941 111.181 208.835 111.508 209.435 112.161C210.048 112.814 210.355 113.828 210.355 115.201V121.441H208.335V115.321C208.335 114.428 208.155 113.788 207.795 113.401C207.448 113.001 206.915 112.801 206.195 112.801C205.341 112.801 204.661 113.068 204.155 113.601C203.648 114.121 203.395 114.828 203.395 115.721V121.441H201.375ZM217.89 121.621C216.263 121.621 214.983 121.161 214.05 120.241C213.117 119.321 212.65 118.048 212.65 116.421C212.65 115.368 212.85 114.448 213.25 113.661C213.663 112.874 214.23 112.268 214.95 111.841C215.683 111.401 216.53 111.181 217.49 111.181C218.437 111.181 219.23 111.381 219.87 111.781C220.51 112.181 220.997 112.748 221.33 113.481C221.663 114.201 221.83 115.054 221.83 116.041V116.681H214.23V115.521H220.45L220.11 115.781C220.11 114.781 219.883 114.008 219.43 113.461C218.99 112.901 218.35 112.621 217.51 112.621C216.577 112.621 215.857 112.948 215.35 113.601C214.843 114.241 214.59 115.128 214.59 116.261V116.461C214.59 117.648 214.877 118.541 215.45 119.141C216.037 119.741 216.863 120.041 217.93 120.041C218.517 120.041 219.063 119.961 219.57 119.801C220.09 119.628 220.583 119.348 221.05 118.961L221.71 120.341C221.243 120.754 220.677 121.074 220.01 121.301C219.343 121.514 218.637 121.621 217.89 121.621ZM227.608 121.621C226.768 121.621 225.995 121.514 225.288 121.301C224.581 121.088 223.995 120.788 223.528 120.401L224.148 119.021C224.641 119.394 225.188 119.674 225.788 119.861C226.388 120.048 227.001 120.141 227.628 120.141C228.361 120.141 228.915 120.014 229.288 119.761C229.661 119.494 229.848 119.134 229.848 118.681C229.848 118.334 229.728 118.054 229.488 117.841C229.261 117.628 228.881 117.468 228.348 117.361L226.428 116.981C225.575 116.794 224.928 116.474 224.488 116.021C224.048 115.568 223.828 114.988 223.828 114.281C223.828 113.681 223.988 113.148 224.308 112.681C224.641 112.214 225.108 111.848 225.708 111.581C226.321 111.314 227.035 111.181 227.848 111.181C228.595 111.181 229.288 111.288 229.928 111.501C230.568 111.714 231.101 112.021 231.528 112.421L230.888 113.761C230.475 113.414 230.008 113.148 229.488 112.961C228.968 112.761 228.441 112.661 227.908 112.661C227.161 112.661 226.608 112.801 226.248 113.081C225.888 113.361 225.708 113.728 225.708 114.181C225.708 114.528 225.815 114.814 226.028 115.041C226.255 115.254 226.608 115.421 227.088 115.541L229.008 115.921C229.915 116.108 230.595 116.414 231.048 116.841C231.501 117.268 231.728 117.841 231.728 118.561C231.728 119.188 231.555 119.734 231.208 120.201C230.861 120.668 230.381 121.021 229.768 121.261C229.155 121.501 228.435 121.621 227.608 121.621ZM237.569 121.621C236.729 121.621 235.956 121.514 235.249 121.301C234.542 121.088 233.956 120.788 233.489 120.401L234.109 119.021C234.602 119.394 235.149 119.674 235.749 119.861C236.349 120.048 236.962 120.141 237.589 120.141C238.322 120.141 238.876 120.014 239.249 119.761C239.622 119.494 239.809 119.134 239.809 118.681C239.809 118.334 239.689 118.054 239.449 117.841C239.222 117.628 238.842 117.468 238.309 117.361L236.389 116.981C235.536 116.794 234.889 116.474 234.449 116.021C234.009 115.568 233.789 114.988 233.789 114.281C233.789 113.681 233.949 113.148 234.269 112.681C234.602 112.214 235.069 111.848 235.669 111.581C236.282 111.314 236.996 111.181 237.809 111.181C238.556 111.181 239.249 111.288 239.889 111.501C240.529 111.714 241.062 112.021 241.489 112.421L240.849 113.761C240.436 113.414 239.969 113.148 239.449 112.961C238.929 112.761 238.402 112.661 237.869 112.661C237.122 112.661 236.569 112.801 236.209 113.081C235.849 113.361 235.669 113.728 235.669 114.181C235.669 114.528 235.776 114.814 235.989 115.041C236.216 115.254 236.569 115.421 237.049 115.541L238.969 115.921C239.876 116.108 240.556 116.414 241.009 116.841C241.462 117.268 241.689 117.841 241.689 118.561C241.689 119.188 241.516 119.734 241.169 120.201C240.822 120.668 240.342 121.021 239.729 121.261C239.116 121.501 238.396 121.621 237.569 121.621ZM248.73 121.621C247.103 121.621 245.823 121.161 244.89 120.241C243.957 119.321 243.49 118.048 243.49 116.421C243.49 115.368 243.69 114.448 244.09 113.661C244.503 112.874 245.07 112.268 245.79 111.841C246.523 111.401 247.37 111.181 248.33 111.181C249.277 111.181 250.07 111.381 250.71 111.781C251.35 112.181 251.837 112.748 252.17 113.481C252.503 114.201 252.67 115.054 252.67 116.041V116.681H245.07V115.521H251.29L250.95 115.781C250.95 114.781 250.723 114.008 250.27 113.461C249.83 112.901 249.19 112.621 248.35 112.621C247.417 112.621 246.697 112.948 246.19 113.601C245.683 114.241 245.43 115.128 245.43 116.261V116.461C245.43 117.648 245.717 118.541 246.29 119.141C246.877 119.741 247.703 120.041 248.77 120.041C249.357 120.041 249.903 119.961 250.41 119.801C250.93 119.628 251.423 119.348 251.89 118.961L252.55 120.341C252.083 120.754 251.517 121.074 250.85 121.301C250.183 121.514 249.477 121.621 248.73 121.621ZM258.448 121.621C257.608 121.621 256.834 121.514 256.128 121.301C255.421 121.088 254.834 120.788 254.368 120.401L254.988 119.021C255.481 119.394 256.028 119.674 256.628 119.861C257.228 120.048 257.841 120.141 258.468 120.141C259.201 120.141 259.754 120.014 260.128 119.761C260.501 119.494 260.688 119.134 260.688 118.681C260.688 118.334 260.568 118.054 260.328 117.841C260.101 117.628 259.721 117.468 259.188 117.361L257.268 116.981C256.414 116.794 255.768 116.474 255.328 116.021C254.888 115.568 254.668 114.988 254.668 114.281C254.668 113.681 254.828 113.148 255.148 112.681C255.481 112.214 255.948 111.848 256.548 111.581C257.161 111.314 257.874 111.181 258.688 111.181C259.434 111.181 260.128 111.288 260.768 111.501C261.408 111.714 261.941 112.021 262.368 112.421L261.728 113.761C261.314 113.414 260.848 113.148 260.328 112.961C259.808 112.761 259.281 112.661 258.748 112.661C258.001 112.661 257.448 112.801 257.088 113.081C256.728 113.361 256.548 113.728 256.548 114.181C256.548 114.528 256.654 114.814 256.868 115.041C257.094 115.254 257.448 115.421 257.928 115.541L259.848 115.921C260.754 116.108 261.434 116.414 261.888 116.841C262.341 117.268 262.568 117.841 262.568 118.561C262.568 119.188 262.394 119.734 262.048 120.201C261.701 120.668 261.221 121.021 260.608 121.261C259.994 121.501 259.274 121.621 258.448 121.621Z" fill="white"/>
<defs>
<filter id="filter0_d_537_5743" x="0" y="0" width="430" height="205.882" filterUnits="userSpaceOnUse" color-interpolation-filters="sRGB">
<feFlood flood-opacity="0" result="BackgroundImageFix"/>
<feColorMatrix in="SourceAlpha" type="matrix" values="0 0 0 0 0 0 0 0 0 0 0 0 0 0 0 0 0 0 127 0" result="hardAlpha"/>
<feOffset dy="19"/>
<feGaussianBlur stdDeviation="18.5"/>
<feComposite in2="hardAlpha" operator="out"/>
<feColorMatrix type="matrix" values="0 0 0 0 0.3375 0 0 0 0 0.3375 0 0 0 0 0.3375 0 0 0 0.25 0"/>
<feBlend mode="normal" in2="BackgroundImageFix" result="effect1_dropShadow_537_5743"/>
<feBlend mode="normal" in="SourceGraphic" in2="effect1_dropShadow_537_5743" result="shape"/>
</filter>
<linearGradient id="paint0_linear_537_5743" x1="127.023" y1="-55.9754" x2="362.695" y2="232.994" gradientUnits="userSpaceOnUse">
<stop stop-color="#5956E9"/>
<stop offset="1" stop-color="#38D4FF" stop-opacity="0"/>
</linearGradient>
</defs>
</svg>
