<svg width="82" height="82" viewBox="0 0 82 82" fill="none" xmlns="http://www.w3.org/2000/svg">
<path d="M58.6997 43.3128C54.9295 43.3116 51.283 44.6583 48.4186 47.1098C48.0214 46.6445 47.6141 46.1918 47.1783 45.756C44.2902 42.8627 40.7027 40.7657 36.7645 39.6691C39.5743 38.4226 41.9625 36.3884 43.6402 33.8127C45.3178 31.237 46.2129 28.2303 46.2172 25.1564V22.8869C46.2172 18.6734 44.5434 14.6325 41.564 11.6532C38.5846 8.67379 34.5437 7 30.3303 7C26.1168 7 22.0759 8.67379 19.0966 11.6532C16.1172 14.6325 14.4434 18.6734 14.4434 22.8869V25.1564C14.4467 28.2341 15.3431 31.2447 17.0239 33.823C18.7046 36.4013 21.0974 38.4364 23.912 39.6815C18.9094 41.0849 14.5017 44.0831 11.3589 48.2205C8.21614 52.358 6.51006 57.4083 6.5 62.604L6.5 68.2779C6.5 69.4817 6.97823 70.6363 7.82947 71.4875C8.68072 72.3388 9.83526 72.817 11.0391 72.817H49.6215C49.8908 72.8136 50.1593 72.7862 50.4238 72.7353C52.5162 74.0152 54.8767 74.793 57.3202 75.0075C59.7637 75.2221 62.2236 74.8676 64.5071 73.9719C66.7905 73.0762 68.8354 71.6636 70.4814 69.845C72.1273 68.0263 73.3295 65.8511 73.9937 63.4899C74.6578 61.1286 74.7659 58.6456 74.3094 56.2356C73.8529 53.8256 72.8442 51.5541 71.3626 49.5994C69.8809 47.6446 67.9664 46.0597 65.7694 44.969C63.5724 43.8783 61.1525 43.3114 58.6997 43.3128ZM16.713 25.1564V22.8869C16.713 19.2753 18.1477 15.8117 20.7014 13.258C23.2551 10.7042 26.7188 9.26955 30.3303 9.26955C33.9418 9.26955 37.4054 10.7042 39.9592 13.258C42.5129 15.8117 43.9476 19.2753 43.9476 22.8869V25.1564C43.9476 28.768 42.5129 32.2316 39.9592 34.7853C37.4054 37.339 33.9418 38.7737 30.3303 38.7737C26.7188 38.7737 23.2551 37.339 20.7014 34.7853C18.1477 32.2316 16.713 28.768 16.713 25.1564ZM11.0391 70.5474C10.4372 70.5474 9.85991 70.3083 9.43429 69.8827C9.00866 69.4571 8.76955 68.8798 8.76955 68.2779V62.604C8.77046 58.3402 10.0356 54.1725 12.4049 50.6276C14.7742 47.0827 18.1414 44.3199 22.0807 42.6885C26.02 41.0571 30.3546 40.6303 34.5365 41.4621C38.7183 42.294 42.5597 44.347 45.5749 47.3617C46.0072 47.7941 46.4078 48.2457 46.7982 48.7121C44.0972 51.7561 42.6736 55.7242 42.8234 59.791C42.9733 63.8579 44.685 67.7104 47.6027 70.5474H11.0391ZM58.6997 72.817C56.0064 72.817 53.3737 72.0184 51.1343 70.5221C48.895 69.0258 47.1496 66.899 46.1189 64.4108C45.0883 61.9226 44.8186 59.1846 45.344 56.5431C45.8695 53.9016 47.1664 51.4752 49.0708 49.5708C50.9752 47.6664 53.4016 46.3695 56.0431 45.844C58.6846 45.3186 61.4226 45.5883 63.9108 46.6189C66.399 47.6496 68.5258 49.395 70.0221 51.6343C71.5183 53.8737 72.317 56.5064 72.317 59.1997C72.3131 62.81 70.8772 66.2714 68.3243 68.8243C65.7714 71.3772 62.31 72.8131 58.6997 72.817Z" fill="url(#paint0_linear_508_35790)"/>
<path d="M63.4795 52.8295L55.443 63.1627L53.8294 61.5491C53.6153 61.3424 53.3287 61.228 53.0312 61.2306C52.7336 61.2332 52.449 61.3525 52.2386 61.5629C52.0282 61.7733 51.9089 62.0579 51.9063 62.3554C51.9037 62.653 52.0181 62.9396 52.2248 63.1537L54.7474 65.6763C54.9602 65.8891 55.2488 66.0087 55.5497 66.0087H55.62C55.7806 65.9987 55.9372 65.9547 56.0794 65.8796C56.2216 65.8044 56.3463 65.6999 56.445 65.573L65.2702 54.2252C65.3656 54.108 65.4366 53.973 65.4791 53.8279C65.5216 53.6829 65.5347 53.5309 65.5177 53.3807C65.5006 53.2306 65.4538 53.0853 65.3798 52.9535C65.3059 52.8217 65.2063 52.7061 65.0871 52.6132C64.9678 52.5204 64.8312 52.4524 64.6853 52.4131C64.5394 52.3738 64.3871 52.364 64.2373 52.3844C64.0876 52.4047 63.9434 52.4548 63.8133 52.5316C63.6832 52.6084 63.5697 52.7105 63.4795 52.8317V52.8295Z" fill="url(#paint1_linear_508_35790)"/>
<defs>
<linearGradient id="paint0_linear_508_35790" x1="11.5" y1="51" x2="72.5" y2="51" gradientUnits="userSpaceOnUse">
<stop stop-color="#374BA8"/>
<stop offset="1" stop-color="#2FB7F0"/>
</linearGradient>
<linearGradient id="paint1_linear_508_35790" x1="52.9063" y1="61.1876" x2="65.1075" y2="61.1876" gradientUnits="userSpaceOnUse">
<stop stop-color="#374BA8"/>
<stop offset="1" stop-color="#2FB7F0"/>
</linearGradient>
</defs>
</svg>
