<svg width="76" height="67" viewBox="0 0 76 67" fill="none" xmlns="http://www.w3.org/2000/svg">
<path d="M38.9247 20.7422C36.9728 20.7401 35.1014 19.9638 33.7212 18.5835C32.3409 17.2033 31.5646 15.3319 31.5625 13.38C31.5625 12.101 31.8079 9.93231 33.5538 10.3884C35.0475 10.9486 34.2193 12.2223 34.2286 13.3813C34.2266 14.3838 34.5451 15.3606 35.1376 16.1693C35.7301 16.9779 36.5655 17.576 37.522 17.8762C38.4784 18.1764 39.5058 18.1631 40.4541 17.8381C41.4024 17.5132 42.2221 16.8936 42.7933 16.0698C43.3646 15.2461 43.6576 14.2613 43.6296 13.2592C43.6016 12.2571 43.254 11.2903 42.6376 10.4997C42.0212 9.70918 41.1682 9.13636 40.2032 8.86488C39.2382 8.59341 38.2117 8.63749 37.2735 8.99069C36.9449 9.12228 36.5775 9.11793 36.2521 8.97862C35.9267 8.8393 35.6699 8.57642 35.5383 8.2478C35.4068 7.91919 35.4111 7.55176 35.5504 7.22635C35.6897 6.90094 35.9526 6.6442 36.2812 6.51262C37.2901 6.12279 38.3725 5.96005 39.4514 6.03596C40.5303 6.11187 41.5793 6.42457 42.5236 6.95182C43.468 7.47907 44.2846 8.20791 44.9153 9.08653C45.5461 9.96514 45.9755 10.9719 46.1731 12.0353C46.3706 13.0987 46.3314 14.1926 46.0583 15.2391C45.7852 16.2856 45.2849 17.2591 44.5929 18.0904C43.9009 18.9216 43.0342 19.5902 42.0546 20.0485C41.0749 20.5068 40.0063 20.7437 38.9247 20.7422ZM38.9274 36.2775C35.8083 36.2819 32.7404 35.4846 30.018 33.9622C26.9011 32.0509 25.1752 30.3971 25.8941 28.3338C26.7485 26.4997 28.1231 24.9571 29.847 23.8979C31.5709 22.8386 33.5681 22.3094 35.5904 22.376H42.2657C44.2879 22.3094 46.2852 22.8386 48.0091 23.8979C49.733 24.9571 51.1076 26.4997 51.9619 28.3338C52.6861 30.3931 50.9443 32.0576 47.838 33.9608C45.1156 35.4843 42.0471 36.2821 38.9274 36.2775ZM28.4202 29.2194C32.7602 34.9905 45.1092 34.9678 49.4358 29.2194C47.1498 23.9565 40.2478 25.1382 35.5904 25.0435C34.1211 24.9814 32.6648 25.3418 31.394 26.0819C30.1232 26.822 29.0912 27.9108 28.4202 29.2194ZM30.4582 66.824C30.0646 66.8204 29.6765 66.7316 29.3205 66.5639C28.9644 66.3961 28.6489 66.1533 28.3955 65.8522C28.1421 65.551 27.9569 65.1986 27.8525 64.8192C27.7481 64.4397 27.727 64.0421 27.7907 63.6537L28.9844 56.6983L23.9189 51.7355C23.5571 51.3825 23.3013 50.9353 23.1803 50.4446C23.0594 49.9538 23.078 49.439 23.2342 48.9583C23.3905 48.4776 23.678 48.0502 24.0643 47.7243C24.4507 47.3984 24.9205 47.187 25.4207 47.1141L32.4041 46.1005L35.5597 39.7492C35.7877 39.301 36.1352 38.9246 36.5639 38.6617C36.9925 38.3988 37.4856 38.2597 37.9884 38.2597C38.4913 38.2597 38.9843 38.3988 39.413 38.6617C39.8416 38.9246 40.1892 39.301 40.4171 39.7492L43.5407 46.0765L50.5562 47.1141C51.0562 47.1872 51.5259 47.3987 51.9121 47.7247C52.2982 48.0507 52.5856 48.4781 52.7416 48.9588C52.8977 49.4395 52.9163 49.9542 52.7952 50.4449C52.6742 50.9355 52.4183 51.3826 52.0566 51.7355L47.0044 56.661L48.1848 63.6537C48.2701 64.152 48.2143 64.6642 48.0237 65.1324C47.8331 65.6006 47.5153 66.0061 47.1062 66.3031C46.6971 66.6001 46.213 66.7767 45.7088 66.8129C45.2046 66.849 44.7003 66.7434 44.253 66.5079L38.0071 63.2256L31.7239 66.5093C31.3339 66.7156 30.8994 66.8237 30.4582 66.824ZM37.9884 60.5528C38.4281 60.5528 38.8612 60.6599 39.2501 60.8649L45.496 64.1485L44.3637 57.1491C44.2896 56.7163 44.3219 56.272 44.4579 55.8544C44.5938 55.4369 44.8292 55.0587 45.1439 54.7524L50.1947 49.8269L43.1886 48.7399C42.7537 48.6769 42.3406 48.509 41.9851 48.2506C41.6295 47.9922 41.3422 47.6511 41.148 47.2568L38.0271 40.9296L38.0138 40.9123L34.8261 47.2582C34.6317 47.6518 34.3445 47.9922 33.9892 48.2501C33.634 48.508 33.2213 48.6757 32.7869 48.7386L25.8034 49.7549L30.8343 54.7524C31.1489 55.0589 31.3842 55.4374 31.5199 55.8552C31.6556 56.273 31.6876 56.7175 31.6132 57.1505L30.4195 64.1045L36.7267 60.8649C37.1157 60.6599 37.5487 60.5528 37.9884 60.5528Z" fill="url(#paint0_linear_508_35800)"/>
<path d="M68.5907 60.0548C68.1742 60.0543 67.7642 59.9527 67.3957 59.7587L61.8073 56.8165L56.299 59.7587C55.8739 59.9749 55.3973 60.0692 54.9219 60.0313C54.4466 59.9933 53.9909 59.8247 53.6055 59.5438C53.22 59.263 52.9198 58.8811 52.738 58.4402C52.5561 57.9994 52.4998 57.5168 52.5752 57.0459L52.9153 55.096C52.9804 54.7515 53.1784 54.4466 53.4666 54.247C53.7548 54.0475 54.11 53.9694 54.4553 54.0297C54.8006 54.09 55.1083 54.2838 55.3118 54.5692C55.5153 54.8546 55.5983 55.2087 55.5428 55.5548L55.2387 57.302L60.6576 54.4558C61.0254 54.2613 61.435 54.1593 61.851 54.1589C62.267 54.1584 62.6769 54.2594 63.045 54.4531L68.4546 57.3033L67.4197 51.2668C67.3497 50.8547 67.3822 50.4317 67.5143 50.0352C67.6464 49.6386 67.8741 49.2806 68.1772 48.9928L72.5465 44.7275L66.4941 43.8473C66.0773 43.7906 65.6812 43.6311 65.3415 43.3831C65.0018 43.1351 64.7291 42.8065 64.5481 42.4268L61.854 36.9585L59.1385 42.4429C58.957 42.8185 58.6855 43.1436 58.3481 43.389C58.0107 43.6345 57.6179 43.7928 57.2046 43.8499L52.1991 44.5808C51.8491 44.6321 51.493 44.5423 51.2093 44.331C50.9255 44.1198 50.7373 43.8045 50.686 43.4545C50.6347 43.1045 50.7245 42.7484 50.9358 42.4647C51.147 42.1809 51.4623 41.9927 51.8123 41.9414L56.8272 41.2092L59.5533 35.5928C59.7684 35.1678 60.0969 34.8107 60.5026 34.5611C60.9083 34.3115 61.3751 34.1791 61.8514 34.1787C62.3277 34.1783 62.7948 34.3098 63.2009 34.5587C63.607 34.8076 63.9362 35.1642 64.152 35.5888L66.9462 41.2598L73.1267 42.1174C73.6046 42.1854 74.0536 42.3869 74.4219 42.6989C74.7902 43.0108 75.063 43.4205 75.2087 43.8806C75.3569 44.3346 75.3739 44.8213 75.2575 45.2845C75.1412 45.7477 74.8963 46.1687 74.5511 46.4987L70.0298 50.9121L71.1181 57.0512C71.1786 57.4192 71.1586 57.7959 71.0598 58.1555C70.9609 58.5151 70.7853 58.849 70.5452 59.1343C70.3051 59.4197 70.0061 59.6497 69.6687 59.8086C69.3314 59.9675 68.9636 60.0515 68.5907 60.0548ZM20.8617 60.0548C20.4457 60.0541 20.0361 59.9525 19.668 59.7587L14.0797 56.8165L8.57137 59.7587C8.14677 59.9816 7.66826 60.0812 7.18999 60.0462C6.71171 60.0113 6.25278 59.8431 5.86513 59.5608C5.47748 59.2785 5.17659 58.8933 4.99653 58.4489C4.81646 58.0044 4.76441 57.5184 4.84625 57.0459L5.91591 50.8174L1.42123 46.4921C1.07974 46.1583 0.838104 45.7359 0.723488 45.2723C0.608872 44.8087 0.625813 44.3224 0.772408 43.8679C0.919004 43.4134 1.18944 43.0088 1.55333 42.6996C1.91722 42.3904 2.36014 42.1888 2.83232 42.1174L9.09953 41.2105L11.823 35.5941C12.0383 35.1695 12.3669 34.8127 12.7724 34.5633C13.178 34.3139 13.6446 34.1815 14.1207 34.181C14.5968 34.1804 15.0638 34.3117 15.4699 34.5601C15.876 34.8086 16.2055 35.1646 16.4217 35.5888L19.2172 41.2598L24.1507 41.9414C24.3244 41.9662 24.4916 42.0251 24.6425 42.1146C24.7934 42.2041 24.9252 42.3226 25.0303 42.4631C25.1354 42.6037 25.2117 42.7636 25.2548 42.9337C25.298 43.1038 25.3071 43.2808 25.2818 43.4544C25.2564 43.6281 25.197 43.795 25.107 43.9457C25.017 44.0963 24.8982 44.2278 24.7573 44.3324C24.6164 44.437 24.4563 44.5128 24.286 44.5555C24.1158 44.5981 23.9388 44.6067 23.7653 44.5808L18.7638 43.8473C18.3472 43.7904 17.9514 43.6308 17.612 43.3828C17.2725 43.1348 17.0001 42.8063 16.8192 42.4268L14.1237 36.9585L11.4082 42.4415C11.2268 42.8188 10.9545 43.1452 10.6158 43.3913C10.2771 43.6373 9.88256 43.7954 9.46764 43.8513L3.42983 44.7262L7.80981 49.0022C8.10508 49.2935 8.32597 49.6516 8.45387 50.0462C8.58177 50.4408 8.61292 50.8603 8.54469 51.2695L7.50972 57.3033L12.9273 54.4558C13.2951 54.2613 13.7047 54.1593 14.1207 54.1589C14.5367 54.1584 14.9466 54.2594 15.3147 54.4531L20.727 57.3033L20.4336 55.5454C20.3752 55.1965 20.4579 54.8387 20.6633 54.5506C20.8688 54.2626 21.1803 54.068 21.5293 54.0097C21.8782 53.9513 22.236 54.0339 22.5241 54.2394C22.8121 54.4449 23.0067 54.7564 23.065 55.1053L23.3905 57.0566C23.4499 57.4243 23.4291 57.8006 23.3296 58.1596C23.23 58.5186 23.0541 58.8519 22.8139 59.1366C22.5736 59.4213 22.2747 59.6508 21.9375 59.8093C21.6003 59.9677 21.2329 60.0515 20.8604 60.0548H20.8617Z" fill="url(#paint1_linear_508_35800)"/>
<path d="M45.0778 41.3017C44.7636 41.2957 44.4615 41.1793 44.2246 40.9729C43.9876 40.7665 43.8309 40.4832 43.7818 40.1728C43.7328 39.8624 43.7947 39.5446 43.9565 39.2752C44.1184 39.0059 44.3699 38.8021 44.667 38.6996C64.473 31.9016 59.8529 3.03024 38.9226 2.66747C34.663 2.67051 30.5352 4.14463 27.2373 6.84051C23.9393 9.5364 21.6737 13.2886 20.8235 17.4625C19.9734 21.6364 20.5909 25.9758 22.5716 29.7469C24.5523 33.518 27.7747 36.4892 31.6938 38.1581C32.0192 38.2971 32.2761 38.5597 32.4079 38.8881C32.5397 39.2165 32.5357 39.5839 32.3967 39.9093C32.2577 40.2347 31.9951 40.4916 31.6667 40.6234C31.3382 40.7552 30.9709 40.7512 30.6455 40.6122C26.1605 38.7022 22.473 35.3017 20.2065 30.986C17.9401 26.6702 17.2339 21.7041 18.2074 16.9276C19.1809 12.1511 21.7743 7.85745 25.549 4.77294C29.3237 1.68842 34.0479 0.0023786 38.9226 0C63.1312 0.432129 68.1567 34.0515 45.0778 41.3017Z" fill="url(#paint2_linear_508_35800)"/>
<defs>
<linearGradient id="paint0_linear_508_35800" x1="26.0327" y1="42.8706" x2="52.1436" y2="42.8706" gradientUnits="userSpaceOnUse">
<stop stop-color="#374BA8"/>
<stop offset="1" stop-color="#2FB7F0"/>
</linearGradient>
<linearGradient id="paint1_linear_508_35800" x1="8.00134" y1="49.8614" x2="73.5013" y2="49.8614" gradientUnits="userSpaceOnUse">
<stop stop-color="#374BA8"/>
<stop offset="1" stop-color="#2FB7F0"/>
</linearGradient>
<linearGradient id="paint2_linear_508_35800" x1="21.9356" y1="25.0317" x2="58.9429" y2="25.0317" gradientUnits="userSpaceOnUse">
<stop stop-color="#374BA8"/>
<stop offset="1" stop-color="#2FB7F0"/>
</linearGradient>
</defs>
</svg>
