<svg width="45" height="45" viewBox="0 0 45 45" fill="none" xmlns="http://www.w3.org/2000/svg">
<rect width="45" height="45" rx="22.5" fill="white" fill-opacity="0.79"/>
<path d="M29.5508 15.4101C28.634 14.484 27.542 13.7497 26.3384 13.2501C25.1349 12.7505 23.8439 12.4955 22.5408 12.5001C17.0808 12.5001 12.6308 16.9501 12.6308 22.4101C12.6308 24.1601 13.0908 25.8601 13.9508 27.3601L12.5508 32.5001L17.8008 31.1201C19.2508 31.9101 20.8808 32.3301 22.5408 32.3301C28.0008 32.3301 32.4508 27.8801 32.4508 22.4201C32.4508 19.7701 31.4208 17.2801 29.5508 15.4101ZM22.5408 30.6501C21.0608 30.6501 19.6108 30.2501 18.3408 29.5001L18.0408 29.3201L14.9208 30.1401L15.7508 27.1001L15.5508 26.7901C14.7285 25.477 14.2919 23.9593 14.2908 22.4101C14.2908 17.8701 17.9908 14.1701 22.5308 14.1701C24.7308 14.1701 26.8008 15.0301 28.3508 16.5901C29.1183 17.354 29.7265 18.2627 30.1402 19.2635C30.5539 20.2642 30.7648 21.3372 30.7608 22.4201C30.7808 26.9601 27.0808 30.6501 22.5408 30.6501ZM27.0608 24.4901C26.8108 24.3701 25.5908 23.7701 25.3708 23.6801C25.1408 23.6001 24.9808 23.5601 24.8108 23.8001C24.6408 24.0501 24.1708 24.6101 24.0308 24.7701C23.8908 24.9401 23.7408 24.9601 23.4908 24.8301C23.2408 24.7101 22.4408 24.4401 21.5008 23.6001C20.7608 22.9401 20.2708 22.1301 20.1208 21.8801C19.9808 21.6301 20.1008 21.5001 20.2308 21.3701C20.3408 21.2601 20.4808 21.0801 20.6008 20.9401C20.7208 20.8001 20.7708 20.6901 20.8508 20.5301C20.9308 20.3601 20.8908 20.2201 20.8308 20.1001C20.7708 19.9801 20.2708 18.7601 20.0708 18.2601C19.8708 17.7801 19.6608 17.8401 19.5108 17.8301H19.0308C18.8608 17.8301 18.6008 17.8901 18.3708 18.1401C18.1508 18.3901 17.5108 18.9901 17.5108 20.2101C17.5108 21.4301 18.4008 22.6101 18.5208 22.7701C18.6408 22.9401 20.2708 25.4401 22.7508 26.5101C23.3408 26.7701 23.8008 26.9201 24.1608 27.0301C24.7508 27.2201 25.2908 27.1901 25.7208 27.1301C26.2008 27.0601 27.1908 26.5301 27.3908 25.9501C27.6008 25.3701 27.6008 24.8801 27.5308 24.7701C27.4608 24.6601 27.3108 24.6101 27.0608 24.4901Z" fill="#29387E"/>
</svg>
