<svg width="578" height="61" viewBox="0 0 578 61" fill="none" xmlns="http://www.w3.org/2000/svg">
<mask id="path-1-outside-1_508_36095" maskUnits="userSpaceOnUse" x="-5" y="-3" width="586" height="67" fill="black">
<rect fill="white" x="-5" y="-3" width="586" height="67"/>
<path d="M21.248 1.752H27.968L33.6 17.176L39.296 1.752H46.016L38.208 21.976L44.992 38.68L59.136 1.56H67.008L48.384 47H42.176L33.664 26.648L25.088 47H18.816L0.256 1.56H8.064L22.272 38.68L29.056 21.976L21.248 1.752ZM101.49 47H94.45V28.248C94.45 25.2187 93.8953 22.9573 92.786 21.464C91.6767 19.9707 90.1193 19.224 88.114 19.224C86.8767 19.224 85.5967 19.5653 84.274 20.248C82.9513 20.9307 81.778 21.8693 80.754 23.064C79.73 24.216 78.9833 25.56 78.514 27.096V47H71.474V0.279999H78.514V20.248C79.794 17.9867 81.5433 16.216 83.762 14.936C85.9807 13.6133 88.37 12.952 90.93 12.952C93.0207 12.952 94.7487 13.3147 96.114 14.04C97.4793 14.7653 98.546 15.768 99.314 17.048C100.125 18.2853 100.679 19.736 100.978 21.4C101.319 23.0213 101.49 24.7493 101.49 26.584V47ZM107.23 37.208C107.23 35.0747 107.827 33.2187 109.022 31.64C110.259 30.0187 111.944 28.7813 114.078 27.928C116.211 27.032 118.686 26.584 121.502 26.584C122.995 26.584 124.51 26.6907 126.046 26.904C127.624 27.1173 129.011 27.4587 130.206 27.928V25.816C130.206 23.4693 129.502 21.6347 128.094 20.312C126.686 18.9893 124.659 18.328 122.014 18.328C120.136 18.328 118.366 18.6693 116.702 19.352C115.038 19.992 113.267 20.9093 111.39 22.104L109.022 17.368C111.24 15.8747 113.459 14.7653 115.678 14.04C117.939 13.3147 120.307 12.952 122.782 12.952C127.262 12.952 130.782 14.1467 133.342 16.536C135.944 18.8827 137.246 22.232 137.246 26.584V39.064C137.246 39.8747 137.374 40.4507 137.63 40.792C137.928 41.1333 138.419 41.3253 139.102 41.368V47C138.462 47.128 137.886 47.2133 137.374 47.256C136.862 47.2987 136.435 47.32 136.094 47.32C134.6 47.32 133.47 46.9573 132.702 46.232C131.934 45.5067 131.486 44.6533 131.358 43.672L131.166 41.752C129.715 43.6293 127.859 45.08 125.598 46.104C123.336 47.128 121.054 47.64 118.75 47.64C116.531 47.64 114.547 47.192 112.798 46.296C111.048 45.3573 109.683 44.0987 108.702 42.52C107.72 40.9413 107.23 39.1707 107.23 37.208ZM128.542 39.256C129.054 38.7013 129.459 38.1467 129.758 37.592C130.056 37.0373 130.206 36.5467 130.206 36.12V32.28C129.011 31.8107 127.752 31.4693 126.43 31.256C125.107 31 123.806 30.872 122.526 30.872C119.966 30.872 117.875 31.384 116.254 32.408C114.675 33.432 113.885 34.84 113.885 36.632C113.885 37.6133 114.142 38.552 114.654 39.448C115.208 40.344 115.976 41.0693 116.958 41.624C117.982 42.1787 119.24 42.456 120.734 42.456C122.27 42.456 123.742 42.1573 125.15 41.56C126.558 40.9627 127.688 40.1947 128.542 39.256ZM164.161 45.272C163.563 45.5707 162.817 45.8907 161.921 46.232C161.025 46.5733 160.001 46.872 158.849 47.128C157.739 47.384 156.587 47.512 155.393 47.512C153.942 47.512 152.598 47.256 151.361 46.744C150.123 46.232 149.121 45.4213 148.353 44.312C147.627 43.16 147.265 41.688 147.265 39.896V18.968H142.849V13.528H147.265V2.52H154.305V13.528H161.601V18.968H154.305V37.656C154.39 38.808 154.753 39.6613 155.393 40.216C156.075 40.7707 156.907 41.048 157.889 41.048C158.87 41.048 159.809 40.8773 160.705 40.536C161.601 40.1947 162.262 39.9173 162.689 39.704L164.161 45.272ZM180.941 47.64C178.125 47.64 175.458 47.192 172.941 46.296C170.423 45.3573 168.269 43.9707 166.477 42.136L169.101 37.4C171.021 39.1067 172.941 40.344 174.861 41.112C176.823 41.88 178.765 42.264 180.685 42.264C182.647 42.264 184.247 41.9013 185.485 41.176C186.722 40.408 187.341 39.2987 187.341 37.848C187.341 36.7813 187.021 35.992 186.381 35.48C185.741 34.968 184.802 34.52 183.565 34.136C182.37 33.752 180.919 33.3253 179.213 32.856C176.823 32.1307 174.818 31.384 173.197 30.616C171.575 29.8053 170.359 28.824 169.549 27.672C168.738 26.52 168.333 25.048 168.333 23.256C168.333 21.08 168.887 19.224 169.997 17.688C171.106 16.152 172.642 14.9787 174.605 14.168C176.61 13.3573 178.914 12.952 181.517 12.952C183.949 12.952 186.189 13.336 188.237 14.104C190.327 14.8293 192.162 15.9813 193.741 17.56L190.733 22.232C189.239 20.8667 187.703 19.864 186.125 19.224C184.589 18.584 182.925 18.264 181.133 18.264C180.109 18.264 179.127 18.392 178.189 18.648C177.25 18.8613 176.461 19.288 175.821 19.928C175.223 20.5253 174.925 21.3787 174.925 22.488C174.925 23.384 175.181 24.1093 175.693 24.664C176.205 25.2187 176.973 25.688 177.997 26.072C179.021 26.456 180.279 26.8827 181.773 27.352C184.375 28.12 186.594 28.888 188.429 29.656C190.263 30.3813 191.671 31.3413 192.653 32.536C193.677 33.688 194.189 35.288 194.189 37.336C194.189 40.5787 192.973 43.1173 190.541 44.952C188.151 46.744 184.951 47.64 180.941 47.64ZM213.99 1.56H220.774L238.438 47H230.886L226.086 34.648H208.55L203.814 47H196.198L213.99 1.56ZM224.678 29.336L217.382 9.432L209.83 29.336H224.678ZM262.17 47.64C259.482 47.64 257.114 47 255.066 45.72C253.018 44.44 251.396 42.776 250.202 40.728V60.632H243.161V13.528H249.37V19.544C250.65 17.5387 252.314 15.9387 254.362 14.744C256.41 13.5493 258.692 12.952 261.21 12.952C263.514 12.952 265.626 13.4213 267.546 14.36C269.466 15.256 271.13 16.5147 272.538 18.136C273.946 19.7573 275.034 21.6133 275.802 23.704C276.612 25.752 277.018 27.928 277.018 30.232C277.018 33.432 276.378 36.3547 275.097 39C273.86 41.6453 272.111 43.7573 269.85 45.336C267.631 46.872 265.071 47.64 262.17 47.64ZM259.866 41.624C261.359 41.624 262.703 41.304 263.898 40.664C265.135 40.024 266.18 39.1707 267.034 38.104C267.93 37.0373 268.612 35.8213 269.082 34.456C269.551 33.0907 269.786 31.6827 269.786 30.232C269.786 28.696 269.53 27.2453 269.018 25.88C268.506 24.5147 267.759 23.32 266.778 22.296C265.839 21.272 264.73 20.4613 263.45 19.864C262.212 19.2667 260.847 18.968 259.354 18.968C258.458 18.968 257.519 19.1387 256.538 19.48C255.556 19.8213 254.639 20.2907 253.786 20.888C252.932 21.4853 252.186 22.1893 251.546 23C250.906 23.8107 250.458 24.664 250.202 25.56V34.328C250.799 35.6933 251.588 36.9307 252.57 38.04C253.551 39.1067 254.682 39.9813 255.962 40.664C257.242 41.304 258.543 41.624 259.866 41.624ZM302.357 47.64C299.669 47.64 297.301 47 295.253 45.72C293.205 44.44 291.584 42.776 290.389 40.728V60.632H283.349V13.528H289.557V19.544C290.837 17.5387 292.501 15.9387 294.549 14.744C296.597 13.5493 298.88 12.952 301.397 12.952C303.701 12.952 305.813 13.4213 307.733 14.36C309.653 15.256 311.317 16.5147 312.725 18.136C314.133 19.7573 315.221 21.6133 315.989 23.704C316.8 25.752 317.205 27.928 317.205 30.232C317.205 33.432 316.565 36.3547 315.285 39C314.048 41.6453 312.298 43.7573 310.037 45.336C307.818 46.872 305.258 47.64 302.357 47.64ZM300.053 41.624C301.546 41.624 302.89 41.304 304.085 40.664C305.322 40.024 306.368 39.1707 307.221 38.104C308.117 37.0373 308.8 35.8213 309.269 34.456C309.738 33.0907 309.973 31.6827 309.973 30.232C309.973 28.696 309.717 27.2453 309.205 25.88C308.693 24.5147 307.946 23.32 306.965 22.296C306.026 21.272 304.917 20.4613 303.637 19.864C302.4 19.2667 301.034 18.968 299.541 18.968C298.645 18.968 297.706 19.1387 296.725 19.48C295.744 19.8213 294.826 20.2907 293.973 20.888C293.12 21.4853 292.373 22.1893 291.733 23C291.093 23.8107 290.645 24.664 290.389 25.56V34.328C290.986 35.6933 291.776 36.9307 292.757 38.04C293.738 39.1067 294.869 39.9813 296.149 40.664C297.429 41.304 298.73 41.624 300.053 41.624ZM337.365 23.96C337.365 21.1867 337.856 18.4773 338.837 15.832C339.818 13.144 341.248 10.712 343.125 8.536C345.045 6.31733 347.37 4.568 350.101 3.288C352.832 1.96533 355.925 1.304 359.381 1.304C363.477 1.304 367.018 2.24266 370.005 4.12C372.992 5.95466 375.21 8.32266 376.661 11.224L371.029 15C370.176 13.1653 369.088 11.7147 367.765 10.648C366.485 9.58133 365.077 8.83466 363.541 8.408C362.048 7.98133 360.576 7.768 359.125 7.768C356.736 7.768 354.645 8.25866 352.853 9.24C351.061 10.1787 349.546 11.4373 348.309 13.016C347.114 14.5947 346.197 16.3653 345.557 18.328C344.96 20.2907 344.661 22.2533 344.661 24.216C344.661 26.392 345.024 28.504 345.749 30.552C346.474 32.5573 347.477 34.3493 348.757 35.928C350.08 37.464 351.637 38.68 353.429 39.576C355.221 40.472 357.184 40.92 359.317 40.92C360.768 40.92 362.282 40.664 363.861 40.152C365.44 39.64 366.89 38.8507 368.213 37.784C369.578 36.6747 370.645 35.224 371.413 33.432L377.365 36.824C376.426 39.0853 374.954 41.0053 372.949 42.584C370.986 44.1627 368.768 45.3573 366.293 46.168C363.861 46.9787 361.45 47.384 359.061 47.384C355.861 47.384 352.938 46.7227 350.293 45.4C347.648 44.0347 345.365 42.2427 343.445 40.024C341.525 37.7627 340.032 35.2453 338.965 32.472C337.898 29.656 337.365 26.8187 337.365 23.96ZM413.115 47H406.075V28.248C406.075 25.2187 405.52 22.9573 404.411 21.464C403.302 19.9707 401.744 19.224 399.739 19.224C398.502 19.224 397.222 19.5653 395.899 20.248C394.576 20.9307 393.403 21.8693 392.379 23.064C391.355 24.216 390.608 25.56 390.139 27.096V47H383.099V0.279999H390.139V20.248C391.419 17.9867 393.168 16.216 395.387 14.936C397.606 13.6133 399.995 12.952 402.555 12.952C404.646 12.952 406.374 13.3147 407.739 14.04C409.104 14.7653 410.171 15.768 410.939 17.048C411.75 18.2853 412.304 19.736 412.603 21.4C412.944 23.0213 413.115 24.7493 413.115 26.584V47ZM418.855 37.208C418.855 35.0747 419.452 33.2187 420.647 31.64C421.884 30.0187 423.569 28.7813 425.703 27.928C427.836 27.032 430.311 26.584 433.127 26.584C434.62 26.584 436.135 26.6907 437.671 26.904C439.249 27.1173 440.636 27.4587 441.831 27.928V25.816C441.831 23.4693 441.127 21.6347 439.719 20.312C438.311 18.9893 436.284 18.328 433.639 18.328C431.761 18.328 429.991 18.6693 428.327 19.352C426.663 19.992 424.892 20.9093 423.015 22.104L420.647 17.368C422.865 15.8747 425.084 14.7653 427.303 14.04C429.564 13.3147 431.932 12.952 434.407 12.952C438.887 12.952 442.407 14.1467 444.967 16.536C447.569 18.8827 448.871 22.232 448.871 26.584V39.064C448.871 39.8747 448.999 40.4507 449.255 40.792C449.553 41.1333 450.044 41.3253 450.727 41.368V47C450.087 47.128 449.511 47.2133 448.999 47.256C448.487 47.2987 448.06 47.32 447.719 47.32C446.225 47.32 445.095 46.9573 444.327 46.232C443.559 45.5067 443.111 44.6533 442.983 43.672L442.791 41.752C441.34 43.6293 439.484 45.08 437.223 46.104C434.961 47.128 432.679 47.64 430.375 47.64C428.156 47.64 426.172 47.192 424.423 46.296C422.673 45.3573 421.308 44.0987 420.327 42.52C419.345 40.9413 418.855 39.1707 418.855 37.208ZM440.167 39.256C440.679 38.7013 441.084 38.1467 441.383 37.592C441.681 37.0373 441.831 36.5467 441.831 36.12V32.28C440.636 31.8107 439.377 31.4693 438.055 31.256C436.732 31 435.431 30.872 434.151 30.872C431.591 30.872 429.5 31.384 427.879 32.408C426.3 33.432 425.51 34.84 425.51 36.632C425.51 37.6133 425.767 38.552 426.279 39.448C426.833 40.344 427.601 41.0693 428.583 41.624C429.607 42.1787 430.865 42.456 432.359 42.456C433.895 42.456 435.367 42.1573 436.775 41.56C438.183 40.9627 439.313 40.1947 440.167 39.256ZM475.786 45.272C475.188 45.5707 474.442 45.8907 473.546 46.232C472.65 46.5733 471.626 46.872 470.474 47.128C469.364 47.384 468.212 47.512 467.018 47.512C465.567 47.512 464.223 47.256 462.986 46.744C461.748 46.232 460.746 45.4213 459.978 44.312C459.252 43.16 458.89 41.688 458.89 39.896V18.968H454.474V13.528H458.89V2.52H465.93V13.528H473.226V18.968H465.93V37.656C466.015 38.808 466.378 39.6613 467.018 40.216C467.7 40.7707 468.532 41.048 469.514 41.048C470.495 41.048 471.434 40.8773 472.33 40.536C473.226 40.1947 473.887 39.9173 474.314 39.704L475.786 45.272ZM498.71 47.64C496.15 47.64 493.824 47.0427 491.734 45.848C489.686 44.6107 488.064 42.968 486.87 40.92V47H480.661V0.279999H487.702V19.864C489.024 17.7307 490.667 16.0453 492.63 14.808C494.635 13.5707 496.982 12.952 499.67 12.952C501.888 12.952 503.915 13.4213 505.75 14.36C507.584 15.2987 509.142 16.5787 510.422 18.2C511.744 19.8213 512.747 21.6773 513.43 23.768C514.155 25.8587 514.518 28.0773 514.518 30.424C514.518 32.7707 514.112 34.9893 513.302 37.08C512.534 39.1707 511.424 41.0053 509.974 42.584C508.523 44.1627 506.838 45.4 504.918 46.296C503.04 47.192 500.971 47.64 498.71 47.64ZM496.854 41.624C498.39 41.624 499.798 41.3253 501.078 40.728C502.358 40.088 503.467 39.256 504.406 38.232C505.344 37.208 506.048 36.0133 506.518 34.648C507.03 33.2827 507.286 31.8747 507.286 30.424C507.286 28.4187 506.859 26.5413 506.006 24.792C505.195 23.0427 504.043 21.6347 502.55 20.568C501.056 19.5013 499.328 18.968 497.366 18.968C495.958 18.968 494.635 19.3093 493.398 19.992C492.16 20.632 491.051 21.5067 490.07 22.616C489.131 23.6827 488.342 24.8773 487.702 26.2V35.032C487.958 36.0133 488.406 36.9093 489.046 37.72C489.686 38.488 490.432 39.1707 491.286 39.768C492.139 40.3227 493.056 40.7707 494.038 41.112C495.019 41.4533 495.958 41.624 496.854 41.624ZM535.889 47.64C533.244 47.64 530.876 47.192 528.785 46.296C526.694 45.3573 524.881 44.0773 523.345 42.456C521.852 40.8347 520.7 39 519.889 36.952C519.078 34.8613 518.673 32.6427 518.673 30.296C518.673 27.9493 519.078 25.7307 519.889 23.64C520.7 21.5493 521.852 19.7147 523.345 18.136C524.881 16.5147 526.694 15.256 528.785 14.36C530.918 13.4213 533.286 12.952 535.889 12.952C538.492 12.952 540.838 13.4213 542.929 14.36C545.062 15.256 546.876 16.5147 548.369 18.136C549.905 19.7147 551.078 21.5493 551.889 23.64C552.7 25.7307 553.105 27.9493 553.105 30.296C553.105 32.6427 552.7 34.8613 551.889 36.952C551.078 39 549.905 40.8347 548.369 42.456C546.876 44.0773 545.062 45.3573 542.929 46.296C540.838 47.192 538.492 47.64 535.889 47.64ZM525.905 30.36C525.905 32.4933 526.353 34.4133 527.249 36.12C528.145 37.8267 529.34 39.1707 530.833 40.152C532.326 41.1333 534.012 41.624 535.889 41.624C537.724 41.624 539.388 41.1333 540.881 40.152C542.417 39.128 543.633 37.7627 544.529 36.056C545.425 34.3067 545.873 32.3867 545.873 30.296C545.873 28.1627 545.425 26.2427 544.529 24.536C543.633 22.8293 542.417 21.4853 540.881 20.504C539.388 19.48 537.724 18.968 535.889 18.968C534.012 18.968 532.326 19.48 530.833 20.504C529.34 21.528 528.145 22.8933 527.249 24.6C526.353 26.264 525.905 28.184 525.905 30.36ZM577.473 45.272C576.876 45.5707 576.129 45.8907 575.233 46.232C574.337 46.5733 573.313 46.872 572.161 47.128C571.052 47.384 569.9 47.512 568.705 47.512C567.254 47.512 565.91 47.256 564.673 46.744C563.436 46.232 562.433 45.4213 561.665 44.312C560.94 43.16 560.577 41.688 560.577 39.896V18.968H556.161V13.528H560.577V2.52H567.617V13.528H574.913V18.968H567.617V37.656C567.702 38.808 568.065 39.6613 568.705 40.216C569.388 40.7707 570.22 41.048 571.201 41.048C572.182 41.048 573.121 40.8773 574.017 40.536C574.913 40.1947 575.574 39.9173 576.001 39.704L577.473 45.272Z"/>
</mask>
<path d="M21.248 1.752V-1.248H16.874L18.4493 2.8325L21.248 1.752ZM27.968 1.752L30.786 0.723015L30.0663 -1.248H27.968V1.752ZM33.6 17.176L30.782 18.205L33.5841 25.8789L36.4142 18.2153L33.6 17.176ZM39.296 1.752V-1.248H37.2059L36.4818 0.712719L39.296 1.752ZM46.016 1.752L48.8147 2.8325L50.39 -1.248H46.016V1.752ZM38.208 21.976L35.4093 20.8955L34.9814 22.004L35.4285 23.1048L38.208 21.976ZM44.992 38.68L42.2125 39.8088L45.081 46.8719L47.7954 39.7482L44.992 38.68ZM59.136 1.56V-1.44H57.0687L56.3326 0.49181L59.136 1.56ZM67.008 1.56L69.7839 2.69772L71.4798 -1.44H67.008V1.56ZM48.384 47V50H50.3966L51.1599 48.1377L48.384 47ZM42.176 47L39.4083 48.1576L40.1789 50H42.176V47ZM33.664 26.648L36.4317 25.4904L33.6744 18.8977L30.8994 25.4831L33.664 26.648ZM25.088 47V50H27.0793L27.8526 48.1649L25.088 47ZM18.816 47L16.0387 48.1344L16.8008 50H18.816V47ZM0.256 1.56V-1.44H-4.20995L-2.52126 2.69437L0.256 1.56ZM8.064 1.56L10.8658 0.487593L10.128 -1.44H8.064V1.56ZM22.272 38.68L19.4702 39.7524L22.1893 46.8563L25.0515 39.8088L22.272 38.68ZM29.056 21.976L31.8355 23.1048L32.2826 22.004L31.8547 20.8955L29.056 21.976ZM21.248 4.752H27.968V-1.248H21.248V4.752ZM25.15 2.78098L30.782 18.205L36.418 16.147L30.786 0.723015L25.15 2.78098ZM36.4142 18.2153L42.1102 2.79128L36.4818 0.712719L30.7858 16.1367L36.4142 18.2153ZM39.296 4.752H46.016V-1.248H39.296V4.752ZM43.2173 0.671501L35.4093 20.8955L41.0067 23.0565L48.8147 2.8325L43.2173 0.671501ZM35.4285 23.1048L42.2125 39.8088L47.7715 37.5512L40.9875 20.8472L35.4285 23.1048ZM47.7954 39.7482L61.9394 2.62819L56.3326 0.49181L42.1886 37.6118L47.7954 39.7482ZM59.136 4.56H67.008V-1.44H59.136V4.56ZM64.2321 0.422272L45.6081 45.8623L51.1599 48.1377L69.7839 2.69772L64.2321 0.422272ZM48.384 44H42.176V50H48.384V44ZM44.9437 45.8424L36.4317 25.4904L30.8963 27.8056L39.4083 48.1576L44.9437 45.8424ZM30.8994 25.4831L22.3234 45.8351L27.8526 48.1649L36.4286 27.8129L30.8994 25.4831ZM25.088 44H18.816V50H25.088V44ZM21.5933 45.8656L3.03326 0.425623L-2.52126 2.69437L16.0387 48.1344L21.5933 45.8656ZM0.256 4.56H8.064V-1.44H0.256V4.56ZM5.26222 2.6324L19.4702 39.7524L25.0738 37.6076L10.8658 0.487593L5.26222 2.6324ZM25.0515 39.8088L31.8355 23.1048L26.2765 20.8472L19.4925 37.5512L25.0515 39.8088ZM31.8547 20.8955L24.0467 0.671501L18.4493 2.8325L26.2573 23.0565L31.8547 20.8955ZM101.49 47V50H104.49V47H101.49ZM94.45 47H91.45V50H94.45V47ZM84.274 20.248L82.8981 17.5821L84.274 20.248ZM80.754 23.064L82.9962 25.0571L83.0142 25.0369L83.0318 25.0164L80.754 23.064ZM78.514 27.096L75.6449 26.2193L75.514 26.6479V27.096H78.514ZM78.514 47V50H81.514V47H78.514ZM71.474 47H68.474V50H71.474V47ZM71.474 0.279999V-2.72H68.474V0.279999H71.474ZM78.514 0.279999H81.514V-2.72H78.514V0.279999ZM78.514 20.248H75.514V31.6382L81.1248 21.7258L78.514 20.248ZM83.762 14.936L85.2612 17.5346L85.2798 17.5238L85.2982 17.5128L83.762 14.936ZM96.114 14.04L97.5215 11.3907L97.5215 11.3906L96.114 14.04ZM99.314 17.048L96.7415 18.5915L96.7721 18.6424L96.8046 18.6921L99.314 17.048ZM100.978 21.4L98.0252 21.93L98.0331 21.9741L98.0424 22.018L100.978 21.4ZM101.49 44H94.45V50H101.49V44ZM97.45 47V28.248H91.45V47H97.45ZM97.45 28.248C97.45 24.9461 96.8623 21.9205 95.1942 19.675L90.3778 23.253C90.9284 23.9942 91.45 25.4913 91.45 28.248H97.45ZM95.1942 19.675C93.4695 17.3533 90.9824 16.224 88.114 16.224V22.224C89.2563 22.224 89.8838 22.5881 90.3778 23.253L95.1942 19.675ZM88.114 16.224C86.3101 16.224 84.5606 16.7241 82.8981 17.5821L85.6499 22.9139C86.6328 22.4066 87.4432 22.224 88.114 22.224V16.224ZM82.8981 17.5821C81.2122 18.4522 79.7374 19.6402 78.4762 21.1116L83.0318 25.0164C83.8186 24.0985 84.6904 23.4091 85.6499 22.9139L82.8981 17.5821ZM78.5118 21.0709C77.1888 22.5592 76.235 24.2882 75.6449 26.2193L81.3831 27.9727C81.7317 26.8318 82.2712 25.8728 82.9962 25.0571L78.5118 21.0709ZM75.514 27.096V47H81.514V27.096H75.514ZM78.514 44H71.474V50H78.514V44ZM74.474 47V0.279999H68.474V47H74.474ZM71.474 3.28H78.514V-2.72H71.474V3.28ZM75.514 0.279999V20.248H81.514V0.279999H75.514ZM81.1248 21.7258C82.1449 19.9235 83.5135 18.5429 85.2612 17.5346L82.2628 12.3374C79.5732 13.8891 77.4431 16.0498 75.9032 18.7702L81.1248 21.7258ZM85.2982 17.5128C87.0567 16.4645 88.9159 15.952 90.93 15.952V9.952C87.8241 9.952 84.9046 10.7622 82.2258 12.3592L85.2982 17.5128ZM90.93 15.952C92.6951 15.952 93.9002 16.261 94.7065 16.6893L97.5215 11.3906C95.5972 10.3684 93.3462 9.952 90.93 9.952V15.952ZM94.7065 16.6893C95.6083 17.1684 96.2644 17.7964 96.7415 18.5915L101.886 15.5045C100.828 13.7396 99.3504 12.3623 97.5215 11.3907L94.7065 16.6893ZM96.8046 18.6921C97.3646 19.5468 97.7877 20.6069 98.0252 21.93L103.931 20.87C103.571 18.865 102.885 17.0239 101.823 15.4039L96.8046 18.6921ZM98.0424 22.018C98.3366 23.4158 98.49 24.9352 98.49 26.584H104.49C104.49 24.5635 104.302 22.6269 103.914 20.782L98.0424 22.018ZM98.49 26.584V47H104.49V26.584H98.49ZM109.021 31.64L106.637 29.82L106.629 29.8297L109.021 31.64ZM114.077 27.928L115.192 30.7134L115.216 30.7039L115.239 30.6939L114.077 27.928ZM126.046 26.904L125.633 29.8755L125.644 29.877L126.046 26.904ZM130.206 27.928L129.109 30.7203L133.206 32.3298V27.928H130.206ZM128.094 20.312L130.148 18.1255L128.094 20.312ZM116.701 19.352L117.778 22.152L117.809 22.1401L117.84 22.1275L116.701 19.352ZM111.39 22.104L108.706 23.4456L110.194 26.4208L113 24.635L111.39 22.104ZM109.021 17.368L107.346 14.8792L105.159 16.3514L106.338 18.7096L109.021 17.368ZM115.677 14.04L114.761 11.1833L114.753 11.1859L114.745 11.1885L115.677 14.04ZM133.342 16.536L131.295 18.7292L131.313 18.7468L131.333 18.7641L133.342 16.536ZM137.63 40.792L135.23 42.592L135.297 42.6824L135.372 42.7675L137.63 40.792ZM139.102 41.368H142.102V38.5496L139.289 38.3738L139.102 41.368ZM139.102 47L139.69 49.9417L142.102 49.4594V47H139.102ZM137.374 47.256L137.124 44.2664L137.374 47.256ZM132.702 46.232L130.642 48.413L132.702 46.232ZM131.357 43.672L128.372 43.9705L128.377 44.0153L128.383 44.06L131.357 43.672ZM131.165 41.752L134.151 41.4535L133.401 33.9532L128.792 39.9177L131.165 41.752ZM125.598 46.104L126.835 48.8369L125.598 46.104ZM112.798 46.296L111.379 48.9395L111.404 48.953L111.43 48.9661L112.798 46.296ZM108.701 42.52L106.154 44.1038L108.701 42.52ZM128.542 39.256L126.337 37.2212L126.329 37.2295L126.322 37.238L128.542 39.256ZM129.758 37.592L132.399 39.0143L129.758 37.592ZM130.206 32.28H133.206V30.2354L131.302 29.4877L130.206 32.28ZM126.43 31.256L125.859 34.2013L125.905 34.2103L125.952 34.2177L126.43 31.256ZM116.254 32.408L114.652 29.8715L114.636 29.8812L114.621 29.8911L116.254 32.408ZM114.654 39.448L112.049 40.9364L112.075 40.9822L112.103 41.0271L114.654 39.448ZM116.958 41.624L115.481 44.2357L115.505 44.249L115.529 44.2619L116.958 41.624ZM125.15 41.56L126.321 44.3217L125.15 41.56ZM110.229 37.208C110.229 35.6743 110.645 34.4665 111.414 33.4503L106.629 29.8297C105.009 31.9709 104.229 34.475 104.229 37.208H110.229ZM111.406 33.46C112.275 32.3219 113.496 31.3916 115.192 30.7134L112.963 25.1426C110.392 26.171 108.243 27.7155 106.637 29.82L111.406 33.46ZM115.239 30.6939C116.934 29.9821 119 29.584 121.502 29.584V23.584C118.371 23.584 115.488 24.0819 112.916 25.1621L115.239 30.6939ZM121.502 29.584C122.852 29.584 124.228 29.6804 125.633 29.8755L126.458 23.9325C124.791 23.7009 123.138 23.584 121.502 23.584V29.584ZM125.644 29.877C127.039 30.0655 128.184 30.3569 129.109 30.7203L131.302 25.1357C129.838 24.5605 128.209 24.1692 126.447 23.931L125.644 29.877ZM133.206 27.928V25.816H127.206V27.928H133.206ZM133.206 25.816C133.206 22.8327 132.286 20.1342 130.148 18.1255L126.039 22.4985C126.717 23.1352 127.206 24.106 127.206 25.816H133.206ZM130.148 18.1255C128.005 16.1129 125.136 15.328 122.014 15.328V21.328C124.181 21.328 125.366 21.8658 126.039 22.4985L130.148 18.1255ZM122.014 15.328C119.763 15.328 117.604 15.7391 115.563 16.5765L117.84 22.1275C119.127 21.5995 120.509 21.328 122.014 21.328V15.328ZM115.625 16.552C113.735 17.2787 111.785 18.2963 109.779 19.573L113 24.635C114.749 23.5224 116.34 22.7053 117.778 22.152L115.625 16.552ZM114.073 20.7624L111.705 16.0264L106.338 18.7096L108.706 23.4456L114.073 20.7624ZM110.697 19.8568C112.718 18.496 114.689 17.5193 116.61 16.8915L114.745 11.1885C112.228 12.0113 109.762 13.2533 107.346 14.8792L110.697 19.8568ZM116.594 16.8966C118.547 16.2702 120.605 15.952 122.782 15.952V9.952C120.009 9.952 117.331 10.3591 114.761 11.1833L116.594 16.8966ZM122.782 15.952C126.722 15.952 129.432 16.9912 131.295 18.7292L135.388 14.3428C132.131 11.3021 127.801 9.952 122.782 9.952V15.952ZM131.333 18.7641C133.157 20.4089 134.245 22.8603 134.245 26.584H140.245C140.245 21.6037 138.731 17.3564 135.35 14.3079L131.333 18.7641ZM134.245 26.584V39.064H140.245V26.584H134.245ZM134.245 39.064C134.245 40.0228 134.364 41.438 135.23 42.592L140.029 38.992C140.136 39.134 140.197 39.2567 140.229 39.3336C140.245 39.3727 140.256 39.4031 140.262 39.4226C140.268 39.4421 140.27 39.4528 140.27 39.4532C140.27 39.4536 140.268 39.4457 140.266 39.4283C140.263 39.411 140.26 39.3859 140.257 39.3522C140.251 39.284 140.245 39.1891 140.245 39.064H134.245ZM135.372 42.7675C136.413 43.9574 137.834 44.2946 138.914 44.3622L139.289 38.3738C139.171 38.3665 139.199 38.3529 139.315 38.3983C139.445 38.4492 139.672 38.5705 139.887 38.8165L135.372 42.7675ZM136.102 41.368V47H142.102V41.368H136.102ZM138.513 44.0583C137.957 44.1695 137.497 44.2353 137.124 44.2664L137.623 50.2456C138.274 50.1913 138.966 50.0865 139.69 49.9417L138.513 44.0583ZM137.124 44.2664C136.658 44.3052 136.321 44.32 136.094 44.32V50.32C136.548 50.32 137.065 50.2921 137.623 50.2456L137.124 44.2664ZM136.094 44.32C135.049 44.32 134.778 44.0666 134.761 44.051L130.642 48.413C132.161 49.848 134.152 50.32 136.094 50.32V44.32ZM134.761 44.051C134.459 43.7657 134.365 43.532 134.332 43.284L128.383 44.06C128.606 45.7747 129.408 47.2477 130.642 48.413L134.761 44.051ZM134.343 43.3735L134.151 41.4535L128.18 42.0505L128.372 43.9705L134.343 43.3735ZM128.792 39.9177C127.655 41.389 126.196 42.5396 124.36 43.3711L126.835 48.8369C129.521 47.6204 131.775 45.8697 133.539 43.5863L128.792 39.9177ZM124.36 43.3711C122.457 44.2329 120.594 44.64 118.749 44.64V50.64C121.513 50.64 124.215 50.0231 126.835 48.8369L124.36 43.3711ZM118.749 44.64C116.945 44.64 115.439 44.2785 114.165 43.6259L111.43 48.9661C113.654 50.1055 116.117 50.64 118.749 50.64V44.64ZM114.216 43.6525C112.897 42.9447 111.935 42.0385 111.249 40.9362L106.154 44.1038C107.431 46.1588 109.2 47.77 111.379 48.9395L114.216 43.6525ZM111.249 40.9362C110.58 39.86 110.229 38.6436 110.229 37.208H104.229C104.229 39.6977 104.86 42.0227 106.154 44.1038L111.249 40.9362ZM130.746 41.2908C131.396 40.5864 131.96 39.8293 132.399 39.0143L127.116 36.1697C126.958 36.464 126.711 36.8162 126.337 37.2212L130.746 41.2908ZM132.399 39.0143C132.829 38.2154 133.206 37.2238 133.206 36.12H127.206C127.206 35.9847 127.229 35.9171 127.223 35.9345C127.221 35.9419 127.214 35.9655 127.196 36.0062C127.179 36.0469 127.153 36.1012 127.116 36.1697L132.399 39.0143ZM133.206 36.12V32.28H127.206V36.12H133.206ZM131.302 29.4877C129.899 28.9366 128.432 28.5403 126.907 28.2943L125.952 34.2177C127.072 34.3984 128.122 34.6848 129.109 35.0723L131.302 29.4877ZM127 28.3107C125.499 28.0202 124.007 27.872 122.525 27.872V33.872C123.604 33.872 124.715 33.9798 125.859 34.2013L127 28.3107ZM122.525 27.872C119.584 27.872 116.888 28.4591 114.652 29.8715L117.855 34.9445C118.862 34.3089 120.347 33.872 122.525 33.872V27.872ZM114.621 29.8911C112.241 31.435 110.885 33.7639 110.885 36.632H116.885C116.885 35.9161 117.109 35.429 117.886 34.9249L114.621 29.8911ZM110.885 36.632C110.885 38.1627 111.292 39.6114 112.049 40.9364L117.258 37.9596C116.991 37.4926 116.885 37.064 116.885 36.632H110.885ZM112.103 41.0271C112.941 42.382 114.092 43.4505 115.481 44.2357L118.434 39.0123C117.86 38.6881 117.475 38.306 117.204 37.8689L112.103 41.0271ZM115.529 44.2619C117.098 45.112 118.878 45.456 120.733 45.456V39.456C119.602 39.456 118.865 39.2454 118.386 38.9861L115.529 44.2619ZM120.733 45.456C122.67 45.456 124.541 45.077 126.321 44.3217L123.978 38.7983C122.942 39.2377 121.869 39.456 120.733 39.456V45.456ZM126.321 44.3217C128.048 43.5894 129.563 42.5925 130.761 41.274L126.322 37.238C125.814 37.7969 125.067 38.336 123.978 38.7983L126.321 44.3217ZM164.161 45.272L165.502 47.9553L167.684 46.8641L167.061 44.5052L164.161 45.272ZM161.921 46.232L162.988 49.0355L161.921 46.232ZM158.848 47.128L158.198 44.1994L158.186 44.2021L158.174 44.2048L158.848 47.128ZM148.352 44.312L145.814 45.9104L145.849 45.9658L145.886 46.0196L148.352 44.312ZM147.264 18.968H150.264V15.968H147.264V18.968ZM142.848 18.968H139.848V21.968H142.848V18.968ZM142.848 13.528V10.528H139.848V13.528H142.848ZM147.264 13.528V16.528H150.264V13.528H147.264ZM147.264 2.52V-0.480003H144.264V2.52H147.264ZM154.305 2.52H157.305V-0.480003H154.305V2.52ZM154.305 13.528H151.305V16.528H154.305V13.528ZM161.6 13.528H164.6V10.528H161.6V13.528ZM161.6 18.968V21.968H164.6V18.968H161.6ZM154.305 18.968V15.968H151.305V18.968H154.305ZM154.305 37.656H151.305V37.767L151.313 37.8776L154.305 37.656ZM155.393 40.216L153.428 42.4831L153.464 42.5143L153.501 42.5443L155.393 40.216ZM162.689 39.704L165.589 38.9372L164.646 35.3711L161.347 37.0207L162.689 39.704ZM162.819 42.5887C162.34 42.8283 161.692 43.1088 160.853 43.4285L162.988 49.0355C163.941 48.6725 164.787 48.3131 165.502 47.9553L162.819 42.5887ZM160.853 43.4285C160.119 43.7079 159.239 43.9681 158.198 44.1994L159.499 50.0566C160.762 49.7759 161.93 49.4387 162.988 49.0355L160.853 43.4285ZM158.174 44.2048C157.296 44.4073 156.371 44.512 155.393 44.512V50.512C156.803 50.512 158.182 50.3607 159.523 50.0512L158.174 44.2048ZM155.393 44.512C154.302 44.512 153.352 44.3213 152.508 43.9719L150.213 49.5161C151.844 50.1907 153.581 50.512 155.393 50.512V44.512ZM152.508 43.9719C151.808 43.6823 151.261 43.2432 150.819 42.6044L145.886 46.0196C146.98 47.5994 148.439 48.7817 150.213 49.5161L152.508 43.9719ZM150.891 42.7136C150.549 42.1695 150.264 41.2975 150.264 39.896H144.264C144.264 42.0785 144.706 44.1505 145.814 45.9104L150.891 42.7136ZM150.264 39.896V18.968H144.264V39.896H150.264ZM147.264 15.968H142.848V21.968H147.264V15.968ZM145.848 18.968V13.528H139.848V18.968H145.848ZM142.848 16.528H147.264V10.528H142.848V16.528ZM150.264 13.528V2.52H144.264V13.528H150.264ZM147.264 5.52H154.305V-0.480003H147.264V5.52ZM151.305 2.52V13.528H157.305V2.52H151.305ZM154.305 16.528H161.6V10.528H154.305V16.528ZM158.6 13.528V18.968H164.6V13.528H158.6ZM161.6 15.968H154.305V21.968H161.6V15.968ZM151.305 18.968V37.656H157.305V18.968H151.305ZM151.313 37.8776C151.435 39.5257 151.997 41.2432 153.428 42.4831L157.357 37.9489C157.414 37.9983 157.421 38.0333 157.401 37.9866C157.376 37.9263 157.32 37.7598 157.296 37.4344L151.313 37.8776ZM153.501 42.5443C154.78 43.584 156.303 44.048 157.889 44.048V38.048C157.512 38.048 157.37 37.9573 157.284 37.8877L153.501 42.5443ZM157.889 44.048C159.226 44.048 160.527 43.8138 161.772 43.3395L159.637 37.7325C159.09 37.9409 158.514 38.048 157.889 38.048V44.048ZM161.772 43.3395C162.689 42.9905 163.464 42.6701 164.03 42.3873L161.347 37.0207C161.059 37.1645 160.512 37.3988 159.637 37.7325L161.772 43.3395ZM159.788 40.4708L161.26 46.0388L167.061 44.5052L165.589 38.9372L159.788 40.4708ZM172.941 46.296L171.892 49.1069L171.913 49.1148L171.935 49.1223L172.941 46.296ZM166.477 42.136L163.852 40.6821L162.77 42.635L164.33 44.2322L166.477 42.136ZM169.1 37.4L171.094 35.1578L168.293 32.668L166.476 35.9461L169.1 37.4ZM174.861 41.112L173.746 43.8974L173.757 43.9016L173.767 43.9057L174.861 41.112ZM185.484 41.176L187.002 43.7641L187.034 43.7449L187.067 43.7249L185.484 41.176ZM186.38 35.48L184.506 37.8226H184.506L186.38 35.48ZM183.564 34.136L182.646 36.9921L182.661 36.9967L182.675 37.0012L183.564 34.136ZM179.212 32.856L178.341 35.7266L178.379 35.7381L178.417 35.7486L179.212 32.856ZM173.197 30.616L171.855 33.2993L171.883 33.3136L171.912 33.3272L173.197 30.616ZM169.548 27.672L167.095 29.3985L169.548 27.672ZM169.997 17.688L167.564 15.9315L169.997 17.688ZM174.605 14.168L173.48 11.3867L173.47 11.3909L173.459 11.3952L174.605 14.168ZM188.236 14.104L187.183 16.913L187.218 16.9261L187.253 16.9383L188.236 14.104ZM193.741 17.56L196.263 19.184L197.573 17.1496L195.862 15.4387L193.741 17.56ZM190.732 22.232L188.708 24.4461L191.331 26.8441L193.255 23.856L190.732 22.232ZM186.124 19.224L184.971 21.9932L184.984 21.9988L184.997 22.0042L186.124 19.224ZM178.189 18.648L178.853 21.5734L178.916 21.5592L178.978 21.5423L178.189 18.648ZM175.82 19.928L177.942 22.0493L175.82 19.928ZM175.693 24.664L173.488 26.6988L173.488 26.6988L175.693 24.664ZM177.997 26.072L179.05 23.263L177.997 26.072ZM181.773 27.352L180.873 30.214L180.898 30.2219L180.923 30.2293L181.773 27.352ZM188.428 29.656L187.27 32.4233L187.298 32.4349L187.326 32.4459L188.428 29.656ZM192.652 32.536L190.334 34.4402L190.371 34.4854L190.41 34.5291L192.652 32.536ZM190.54 44.952L192.341 47.352L192.347 47.3469L190.54 44.952ZM180.941 44.64C178.449 44.64 176.124 44.2447 173.946 43.4697L171.935 49.1223C174.792 50.1393 177.8 50.64 180.941 50.64V44.64ZM173.989 43.4851C171.865 42.6933 170.091 41.5432 168.623 40.0398L164.33 44.2322C166.446 46.3982 168.981 48.0214 171.892 49.1069L173.989 43.4851ZM169.101 43.5899L171.725 38.8539L166.476 35.9461L163.852 40.6821L169.101 43.5899ZM167.107 39.6422C169.226 41.5257 171.437 42.9736 173.746 43.8974L175.975 38.3266C174.444 37.7144 172.815 36.6876 171.094 35.1578L167.107 39.6422ZM173.767 43.9057C176.044 44.7967 178.355 45.264 180.684 45.264V39.264C179.174 39.264 177.602 38.9633 175.954 38.3183L173.767 43.9057ZM180.684 45.264C182.992 45.264 185.165 44.8407 187.002 43.7641L183.967 38.5879C183.329 38.9619 182.302 39.264 180.684 39.264V45.264ZM187.067 43.7249C189.181 42.4123 190.34 40.3413 190.34 37.848H184.34C184.34 38.1355 184.283 38.259 184.256 38.3068C184.229 38.3551 184.152 38.4719 183.902 38.6271L187.067 43.7249ZM190.34 37.848C190.34 36.1671 189.81 34.3815 188.255 33.1374L184.506 37.8226C184.466 37.7899 184.423 37.7471 184.386 37.6969C184.35 37.6473 184.329 37.6058 184.32 37.5831C184.304 37.5419 184.34 37.607 184.34 37.848H190.34ZM188.255 33.1374C187.202 32.2952 185.865 31.7089 184.454 31.2708L182.675 37.0012C183.738 37.3311 184.279 37.6408 184.506 37.8226L188.255 33.1374ZM184.483 31.2799C183.235 30.8788 181.741 30.4398 180.008 29.9634L178.417 35.7486C180.098 36.2108 181.505 36.6252 182.646 36.9921L184.483 31.2799ZM180.084 29.9854C177.786 29.2877 175.928 28.5905 174.481 27.9048L171.912 33.3272C173.707 34.1775 175.861 34.9737 178.341 35.7266L180.084 29.9854ZM174.538 27.9327C173.237 27.2821 172.457 26.5916 172.002 25.9455L167.095 29.3985C168.262 31.0564 169.913 32.3286 171.855 33.2993L174.538 27.9327ZM172.002 25.9455C171.633 25.4212 171.333 24.5984 171.333 23.256H165.333C165.333 25.4976 165.843 27.6188 167.095 29.3985L172.002 25.9455ZM171.333 23.256C171.333 21.6135 171.742 20.3957 172.429 19.4445L167.564 15.9315C166.033 18.0523 165.333 20.5465 165.333 23.256H171.333ZM172.429 19.4445C173.173 18.4131 174.238 17.5652 175.75 16.9408L173.459 11.3952C171.046 12.3922 169.038 13.8909 167.564 15.9315L172.429 19.4445ZM175.729 16.9493C177.312 16.3092 179.223 15.952 181.516 15.952V9.952C178.605 9.952 175.907 10.4054 173.48 11.3867L175.729 16.9493ZM181.516 15.952C183.629 15.952 185.508 16.2846 187.183 16.913L189.29 11.295C186.869 10.3874 184.268 9.952 181.516 9.952V15.952ZM187.253 16.9383C188.912 17.5136 190.358 18.4203 191.619 19.6813L195.862 15.4387C193.966 13.5424 191.743 12.145 189.22 11.2697L187.253 16.9383ZM191.218 15.936L188.21 20.608L193.255 23.856L196.263 19.184L191.218 15.936ZM192.757 20.0179C191.049 18.4562 189.216 17.2402 187.252 16.4438L184.997 22.0042C186.19 22.4878 187.43 23.2772 188.708 24.4461L192.757 20.0179ZM187.278 16.4548C185.349 15.651 183.29 15.264 181.133 15.264V21.264C182.559 21.264 183.828 21.517 184.971 21.9932L187.278 16.4548ZM181.133 15.264C179.856 15.264 178.608 15.424 177.399 15.7537L178.978 21.5423C179.646 21.36 180.361 21.264 181.133 21.264V15.264ZM177.524 15.7226C176.07 16.053 174.765 16.741 173.699 17.8067L177.942 22.0493C178.156 21.835 178.43 21.6697 178.853 21.5734L177.524 15.7226ZM173.699 17.8067C172.379 19.1265 171.924 20.8419 171.924 22.488H177.924C177.924 22.1969 177.964 22.0522 177.98 22.007C177.991 21.9752 177.984 22.0073 177.942 22.0493L173.699 17.8067ZM171.924 22.488C171.924 23.9885 172.371 25.4891 173.488 26.6988L177.897 22.6292C177.906 22.6395 177.918 22.6546 177.929 22.6725C177.94 22.6903 177.945 22.7029 177.945 22.7055C177.948 22.7116 177.924 22.6508 177.924 22.488H171.924ZM173.488 26.6988C174.428 27.7173 175.663 28.401 176.943 28.881L179.05 23.263C178.282 22.975 177.981 22.72 177.897 22.6292L173.488 26.6988ZM176.943 28.881C178.034 29.2902 179.348 29.7347 180.873 30.214L182.672 24.49C181.21 24.0307 180.007 23.6218 179.05 23.263L176.943 28.881ZM180.923 30.2293C183.456 30.9767 185.565 31.7097 187.27 32.4233L189.587 26.8887C187.622 26.0663 185.294 25.2633 182.622 24.4747L180.923 30.2293ZM187.326 32.4459C188.814 33.0345 189.754 33.7333 190.334 34.4402L194.971 30.6318C193.589 28.9494 191.712 27.7282 189.531 26.8661L187.326 32.4459ZM190.41 34.5291C190.805 34.9726 191.189 35.7772 191.189 37.336H197.189C197.189 34.7988 196.548 32.4034 194.895 30.5429L190.41 34.5291ZM191.189 37.336C191.189 39.7079 190.36 41.3305 188.734 42.5571L192.347 47.3469C195.585 44.9042 197.189 41.4494 197.189 37.336H191.189ZM188.74 42.552C187.023 43.8403 184.523 44.64 180.941 44.64V50.64C185.38 50.64 189.28 49.6477 192.34 47.352L188.74 42.552ZM213.99 1.56V-1.44H211.943L211.197 0.466206L213.99 1.56ZM220.774 1.56L223.57 0.47304L222.827 -1.44H220.774V1.56ZM238.438 47V50H242.823L241.234 45.913L238.438 47ZM230.886 47L228.09 48.0866L228.833 50H230.886V47ZM226.086 34.648L228.882 33.5614L228.139 31.648H226.086V34.648ZM208.55 34.648V31.648H206.487L205.749 33.574L208.55 34.648ZM203.814 47V50H205.877L206.615 48.074L203.814 47ZM196.198 47L193.405 45.9062L191.802 50H196.198V47ZM224.678 29.336V32.336H228.973L227.495 28.3035L224.678 29.336ZM217.382 9.432L220.199 8.3995L217.43 0.847486L214.577 8.36776L217.382 9.432ZM209.83 29.336L207.025 28.2718L205.483 32.336H209.83V29.336ZM213.99 4.56H220.774V-1.44H213.99V4.56ZM217.978 2.64696L235.642 48.087L241.234 45.913L223.57 0.47304L217.978 2.64696ZM238.438 44H230.886V50H238.438V44ZM233.682 45.9134L228.882 33.5614L223.29 35.7346L228.09 48.0866L233.682 45.9134ZM226.086 31.648H208.55V37.648H226.086V31.648ZM205.749 33.574L201.013 45.926L206.615 48.074L211.351 35.722L205.749 33.574ZM203.814 44H196.198V50H203.814V44ZM198.992 48.0938L216.783 2.65379L211.197 0.466206L193.405 45.9062L198.992 48.0938ZM227.495 28.3035L220.199 8.3995L214.565 10.4645L221.861 30.3685L227.495 28.3035ZM214.577 8.36776L207.025 28.2718L212.635 30.4002L220.187 10.4962L214.577 8.36776ZM209.83 32.336H224.678V26.336H209.83V32.336ZM255.066 45.72L253.476 48.264L255.066 45.72ZM250.202 40.728L252.793 39.2164L247.202 29.6312V40.728H250.202ZM250.202 60.632V63.632H253.202V60.632H250.202ZM243.161 60.632H240.161V63.632H243.161V60.632ZM243.161 13.528V10.528H240.161V13.528H243.161ZM249.37 13.528H252.37V10.528H249.37V13.528ZM249.37 19.544H246.37V29.8198L251.898 21.1581L249.37 19.544ZM254.361 14.744L255.873 17.3353L254.361 14.744ZM267.546 14.36L266.228 17.0552L266.252 17.0671L266.277 17.0785L267.546 14.36ZM272.538 18.136L274.803 16.1689L272.538 18.136ZM275.802 23.704L272.986 24.7385L272.998 24.7735L273.012 24.8081L275.802 23.704ZM275.098 39L272.397 37.6933L272.388 37.7111L272.38 37.7289L275.098 39ZM269.849 45.336L271.557 47.8026L271.567 47.7959L269.849 45.336ZM263.897 40.664L262.519 37.9993L262.5 38.0093L262.481 38.0196L263.897 40.664ZM267.034 38.104L264.736 36.1744L264.713 36.2019L264.691 36.2299L267.034 38.104ZM266.777 22.296L264.566 24.3232L264.589 24.3477L264.612 24.3717L266.777 22.296ZM263.449 19.864L262.145 22.5657L262.163 22.5742L262.181 22.5825L263.449 19.864ZM256.538 19.48L257.523 22.3135V22.3135L256.538 19.48ZM251.546 23L249.191 21.1411V21.1411L251.546 23ZM250.202 25.56L247.317 24.7358L247.202 25.1398V25.56H250.202ZM250.202 34.328H247.202V34.9555L247.453 35.5305L250.202 34.328ZM252.57 38.04L250.323 40.0277L250.342 40.0496L250.362 40.0712L252.57 38.04ZM255.962 40.664L254.55 43.3111L254.585 43.3296L254.62 43.3473L255.962 40.664ZM262.169 44.64C259.978 44.64 258.174 44.1251 256.655 43.176L253.476 48.264C256.053 49.8749 258.985 50.64 262.169 50.64V44.64ZM256.655 43.176C255.012 42.1489 253.738 40.8361 252.793 39.2164L247.61 42.2396C249.055 44.7159 251.023 46.7311 253.476 48.264L256.655 43.176ZM247.202 40.728V60.632H253.202V40.728H247.202ZM250.202 57.632H243.161V63.632H250.202V57.632ZM246.161 60.632V13.528H240.161V60.632H246.161ZM243.161 16.528H249.37V10.528H243.161V16.528ZM246.37 13.528V19.544H252.37V13.528H246.37ZM251.898 21.1581C252.923 19.5533 254.238 18.2889 255.873 17.3353L252.85 12.1527C250.389 13.5885 248.376 15.524 246.841 17.9299L251.898 21.1581ZM255.873 17.3353C257.434 16.425 259.189 15.952 261.21 15.952V9.952C258.195 9.952 255.385 10.6737 252.85 12.1527L255.873 17.3353ZM261.21 15.952C263.093 15.952 264.75 16.3324 266.228 17.0552L268.863 11.6648C266.501 10.5102 263.934 9.952 261.21 9.952V15.952ZM266.277 17.0785C267.81 17.7942 269.136 18.7949 270.272 20.1031L274.803 16.1689C273.123 14.2344 271.121 12.7178 268.814 11.6414L266.277 17.0785ZM270.272 20.1031C271.433 21.4393 272.338 22.9766 272.986 24.7385L278.618 22.6695C277.729 20.2501 276.458 18.0753 274.803 16.1689L270.272 20.1031ZM273.012 24.8081C273.677 26.4886 274.018 28.2884 274.018 30.232H280.018C280.018 27.5676 279.547 25.0154 278.591 22.5999L273.012 24.8081ZM274.018 30.232C274.018 33.0203 273.463 35.4906 272.397 37.6933L277.798 40.3067C279.292 37.2187 280.018 33.8437 280.018 30.232H274.018ZM272.38 37.7289C271.352 39.9263 269.936 41.617 268.132 42.8761L271.567 47.7959C274.286 45.8977 276.368 43.3644 277.815 40.2711L272.38 37.7289ZM268.142 42.8694C266.463 44.0316 264.509 44.64 262.169 44.64V50.64C265.633 50.64 268.798 49.7124 271.557 47.8026L268.142 42.8694ZM259.866 44.624C261.802 44.624 263.641 44.205 265.314 43.3084L262.481 38.0196C261.765 38.403 260.916 38.624 259.866 38.624V44.624ZM265.276 43.3287C266.879 42.4995 268.255 41.3795 269.376 39.9781L264.691 36.2299C264.105 36.9618 263.391 37.5485 262.519 37.9993L265.276 43.3287ZM269.331 40.0336C270.472 38.6744 271.334 37.1323 271.919 35.4312L266.244 33.4808C265.891 34.5104 265.387 35.4003 264.736 36.1744L269.331 40.0336ZM271.919 35.4312C272.496 33.7505 272.785 32.0129 272.785 30.232H266.785C266.785 31.3524 266.605 32.4308 266.244 33.4808L271.919 35.4312ZM272.785 30.232C272.785 28.3557 272.471 26.5465 271.826 24.8266L266.209 26.9334C266.588 27.9442 266.785 29.0363 266.785 30.232H272.785ZM271.826 24.8266C271.176 23.0914 270.214 21.5463 268.943 20.2203L264.612 24.3717C265.303 25.0937 265.835 25.9379 266.209 26.9334L271.826 24.8266ZM268.989 20.2688C267.78 18.9498 266.349 17.9063 264.718 17.1455L262.181 22.5825C263.11 23.0164 263.898 23.5942 264.566 24.3232L268.989 20.2688ZM264.754 17.1623C263.075 16.352 261.259 15.968 259.354 15.968V21.968C260.435 21.968 261.349 22.1813 262.145 22.5657L264.754 17.1623ZM259.354 15.968C258.073 15.968 256.801 16.2122 255.552 16.6465L257.523 22.3135C258.237 22.0651 258.842 21.968 259.354 21.968V15.968ZM255.552 16.6465C254.309 17.0789 253.144 17.6749 252.065 18.4303L255.506 23.3457C256.133 22.9065 256.803 22.5638 257.523 22.3135L255.552 16.6465ZM252.065 18.4303C250.974 19.1938 250.014 20.099 249.191 21.1411L253.9 24.8589C254.357 24.2797 254.89 23.7768 255.506 23.3457L252.065 18.4303ZM249.191 21.1411C248.335 22.2255 247.691 23.4249 247.317 24.7358L253.086 26.3842C253.224 25.9031 253.476 25.3959 253.9 24.8589L249.191 21.1411ZM247.202 25.56V34.328H253.202V25.56H247.202ZM247.453 35.5305C248.175 37.1803 249.133 38.6829 250.323 40.0277L254.816 36.0523C254.044 35.1785 253.423 34.2064 252.95 33.1255L247.453 35.5305ZM250.362 40.0712C251.572 41.3867 252.972 42.4695 254.55 43.3111L257.373 38.0169C256.391 37.4931 255.53 36.8266 254.777 36.0088L250.362 40.0712ZM254.62 43.3473C256.282 44.1781 258.04 44.624 259.866 44.624V38.624C259.046 38.624 258.201 38.4299 257.303 37.9807L254.62 43.3473ZM295.253 45.72L293.663 48.264L295.253 45.72ZM290.389 40.728L292.98 39.2164L287.389 29.6312V40.728H290.389ZM290.389 60.632V63.632H293.389V60.632H290.389ZM283.349 60.632H280.349V63.632H283.349V60.632ZM283.349 13.528V10.528H280.349V13.528H283.349ZM289.557 13.528H292.557V10.528H289.557V13.528ZM289.557 19.544H286.557V29.8198L292.086 21.1581L289.557 19.544ZM294.549 14.744L296.061 17.3353L294.549 14.744ZM307.733 14.36L306.415 17.0552L306.44 17.0671L306.464 17.0785L307.733 14.36ZM312.725 18.136L314.99 16.1689L312.725 18.136ZM315.989 23.704L313.173 24.7385L313.186 24.7735L313.2 24.8081L315.989 23.704ZM315.285 39L312.585 37.6933L312.576 37.7111L312.568 37.7289L315.285 39ZM310.037 45.336L311.745 47.8026L311.754 47.7959L310.037 45.336ZM304.085 40.664L302.707 37.9993L302.687 38.0093L302.668 38.0196L304.085 40.664ZM307.221 38.104L304.924 36.1744L304.901 36.2019L304.878 36.2299L307.221 38.104ZM306.965 22.296L304.754 24.3232L304.776 24.3477L304.799 24.3717L306.965 22.296ZM303.637 19.864L302.333 22.5657L302.35 22.5742L302.368 22.5825L303.637 19.864ZM296.725 19.48L297.711 22.3135V22.3135L296.725 19.48ZM291.733 23L289.378 21.1411V21.1411L291.733 23ZM290.389 25.56L287.504 24.7358L287.389 25.1398V25.56H290.389ZM290.389 34.328H287.389V34.9555L287.641 35.5305L290.389 34.328ZM292.757 38.04L290.51 40.0277L290.529 40.0496L290.549 40.0712L292.757 38.04ZM296.149 40.664L294.737 43.3111L294.772 43.3296L294.807 43.3473L296.149 40.664ZM302.357 44.64C300.166 44.64 298.362 44.1251 296.843 43.176L293.663 48.264C296.24 49.8749 299.172 50.64 302.357 50.64V44.64ZM296.843 43.176C295.2 42.1489 293.925 40.8361 292.98 39.2164L287.798 42.2396C289.242 44.7159 291.21 46.7311 293.663 48.264L296.843 43.176ZM287.389 40.728V60.632H293.389V40.728H287.389ZM290.389 57.632H283.349V63.632H290.389V57.632ZM286.349 60.632V13.528H280.349V60.632H286.349ZM283.349 16.528H289.557V10.528H283.349V16.528ZM286.557 13.528V19.544H292.557V13.528H286.557ZM292.086 21.1581C293.11 19.5533 294.426 18.2889 296.061 17.3353L293.037 12.1527C290.576 13.5885 288.564 15.524 287.028 17.9299L292.086 21.1581ZM296.061 17.3353C297.621 16.425 299.377 15.952 301.397 15.952V9.952C298.383 9.952 295.573 10.6737 293.037 12.1527L296.061 17.3353ZM301.397 15.952C303.281 15.952 304.937 16.3324 306.415 17.0552L309.051 11.6648C306.689 10.5102 304.121 9.952 301.397 9.952V15.952ZM306.464 17.0785C307.998 17.7942 309.324 18.7949 310.46 20.1031L314.99 16.1689C313.31 14.2344 311.308 12.7178 309.002 11.6414L306.464 17.0785ZM310.46 20.1031C311.62 21.4393 312.526 22.9766 313.173 24.7385L318.805 22.6695C317.916 20.2501 316.646 18.0753 314.99 16.1689L310.46 20.1031ZM313.2 24.8081C313.865 26.4886 314.205 28.2884 314.205 30.232H320.205C320.205 27.5676 319.735 25.0154 318.778 22.5999L313.2 24.8081ZM314.205 30.232C314.205 33.0203 313.65 35.4906 312.585 37.6933L317.985 40.3067C319.48 37.2187 320.205 33.8437 320.205 30.232H314.205ZM312.568 37.7289C311.54 39.9263 310.123 41.617 308.32 42.8761L311.754 47.7959C314.473 45.8977 316.556 43.3644 318.002 40.2711L312.568 37.7289ZM308.329 42.8694C306.651 44.0316 304.696 44.64 302.357 44.64V50.64C305.82 50.64 308.986 49.7124 311.745 47.8026L308.329 42.8694ZM300.053 44.624C301.989 44.624 303.828 44.205 305.502 43.3084L302.668 38.0196C301.953 38.403 301.103 38.624 300.053 38.624V44.624ZM305.463 43.3287C307.066 42.4995 308.442 41.3795 309.564 39.9781L304.878 36.2299C304.293 36.9618 303.578 37.5485 302.707 37.9993L305.463 43.3287ZM309.518 40.0336C310.66 38.6744 311.521 37.1323 312.106 35.4312L306.432 33.4808C306.078 34.5104 305.574 35.4003 304.924 36.1744L309.518 40.0336ZM312.106 35.4312C312.684 33.7505 312.973 32.0129 312.973 30.232H306.973C306.973 31.3524 306.793 32.4308 306.432 33.4808L312.106 35.4312ZM312.973 30.232C312.973 28.3557 312.659 26.5465 312.014 24.8266L306.396 26.9334C306.775 27.9442 306.973 29.0363 306.973 30.232H312.973ZM312.014 24.8266C311.363 23.0914 310.402 21.5463 309.131 20.2203L304.799 24.3717C305.491 25.0937 306.023 25.9379 306.396 26.9334L312.014 24.8266ZM309.176 20.2688C307.967 18.9498 306.536 17.9063 304.906 17.1455L302.368 22.5825C303.298 23.0164 304.085 23.5942 304.754 24.3232L309.176 20.2688ZM304.941 17.1623C303.263 16.352 301.446 15.968 299.541 15.968V21.968C300.623 21.968 301.537 22.1813 302.333 22.5657L304.941 17.1623ZM299.541 15.968C298.261 15.968 296.988 16.2122 295.739 16.6465L297.711 22.3135C298.425 22.0651 299.029 21.968 299.541 21.968V15.968ZM295.739 16.6465C294.496 17.0789 293.332 17.6749 292.253 18.4303L295.693 23.3457C296.321 22.9065 296.991 22.5638 297.711 22.3135L295.739 16.6465ZM292.253 18.4303C291.162 19.1938 290.201 20.099 289.378 21.1411L294.088 24.8589C294.545 24.2797 295.077 23.7768 295.693 23.3457L292.253 18.4303ZM289.378 21.1411C288.522 22.2255 287.879 23.4249 287.504 24.7358L293.274 26.3842C293.411 25.9031 293.664 25.3959 294.088 24.8589L289.378 21.1411ZM287.389 25.56V34.328H293.389V25.56H287.389ZM287.641 35.5305C288.362 37.1803 289.32 38.6829 290.51 40.0277L295.004 36.0523C294.231 35.1785 293.61 34.2064 293.137 33.1255L287.641 35.5305ZM290.549 40.0712C291.76 41.3867 293.159 42.4695 294.737 43.3111L297.561 38.0169C296.579 37.4931 295.717 36.8266 294.965 36.0088L290.549 40.0712ZM294.807 43.3473C296.469 44.1781 298.227 44.624 300.053 44.624V38.624C299.234 38.624 298.389 38.4299 297.491 37.9807L294.807 43.3473ZM338.837 15.832L341.65 16.8754L341.652 16.8681L341.655 16.8608L338.837 15.832ZM343.125 8.536L340.856 6.57287L340.854 6.5763L343.125 8.536ZM350.101 3.288L351.374 6.00438L351.392 5.99627L351.409 5.98794L350.101 3.288ZM370.005 4.12L368.408 6.65991L368.422 6.66814L368.435 6.67623L370.005 4.12ZM376.661 11.224L378.332 13.7158L380.526 12.2449L379.344 9.88236L376.661 11.224ZM371.029 15L368.309 16.2652L369.787 19.4443L372.7 17.4918L371.029 15ZM367.765 10.648L365.844 12.9527L365.863 12.9681L365.882 12.9832L367.765 10.648ZM363.541 8.408L362.717 11.2926L362.727 11.2956L362.738 11.2985L363.541 8.408ZM352.853 9.24L354.245 11.8975L354.27 11.8846L354.294 11.8713L352.853 9.24ZM348.309 13.016L345.948 11.1654L345.932 11.1854L345.917 11.2057L348.309 13.016ZM345.557 18.328L342.705 17.3979L342.696 17.4261L342.687 17.4545L345.557 18.328ZM345.749 30.552L342.921 31.5535L342.924 31.563L342.928 31.5724L345.749 30.552ZM348.757 35.928L346.427 37.8174L346.455 37.8519L346.484 37.8856L348.757 35.928ZM353.429 39.576L352.087 42.2593V42.2593L353.429 39.576ZM363.861 40.152L362.935 37.2983L363.861 40.152ZM368.213 37.784L370.096 40.1193L370.105 40.1123L368.213 37.784ZM371.413 33.432L372.898 30.8255L369.979 29.1619L368.656 32.2502L371.413 33.432ZM377.365 36.824L380.136 37.9741L381.151 35.5286L378.85 34.2175L377.365 36.824ZM372.949 42.584L371.093 40.2268L371.081 40.2365L371.069 40.2464L372.949 42.584ZM366.293 46.168L365.359 43.3171L365.352 43.3195L365.344 43.322L366.293 46.168ZM350.293 45.4L348.917 48.0659L348.934 48.0747L348.951 48.0833L350.293 45.4ZM343.445 40.024L341.158 41.9657L341.167 41.9765L341.176 41.9871L343.445 40.024ZM338.965 32.472L336.16 33.5347L336.162 33.5418L336.165 33.5489L338.965 32.472ZM340.365 23.96C340.365 21.5491 340.79 19.1927 341.65 16.8754L336.024 14.7886C334.921 17.7619 334.365 20.8242 334.365 23.96H340.365ZM341.655 16.8608C342.511 14.5151 343.755 12.3982 345.396 10.4957L340.854 6.5763C338.74 9.02577 337.125 11.7729 336.019 14.8032L341.655 16.8608ZM345.393 10.4991C347.03 8.60751 349.014 7.11094 351.374 6.00438L348.828 0.571621C345.727 2.02505 343.06 4.02716 340.857 6.57287L345.393 10.4991ZM351.409 5.98794C353.678 4.88856 356.315 4.304 359.381 4.304V-1.696C355.535 -1.696 351.985 -0.957895 348.793 0.588055L351.409 5.98794ZM359.381 4.304C363.005 4.304 365.973 5.12899 368.408 6.65991L371.602 1.58009C368.064 -0.643663 363.949 -1.696 359.381 -1.696V4.304ZM368.435 6.67623C370.984 8.24237 372.798 10.2054 373.978 12.5656L379.344 9.88236C377.623 6.43988 374.999 3.66696 371.575 1.56377L368.435 6.67623ZM374.99 8.73221L369.358 12.5082L372.7 17.4918L378.332 13.7158L374.99 8.73221ZM373.749 13.7348C372.739 11.5628 371.39 9.71733 369.648 8.31276L365.882 12.9832C366.785 13.712 367.612 14.7679 368.309 16.2652L373.749 13.7348ZM369.686 8.34333C368.094 7.01693 366.308 6.06311 364.344 5.51744L362.738 11.2985C363.846 11.6062 364.876 12.1457 365.844 12.9527L369.686 8.34333ZM364.365 5.52343C362.623 5.02557 360.873 4.768 359.125 4.768V10.768C360.278 10.768 361.473 10.9371 362.717 11.2926L364.365 5.52343ZM359.125 4.768C356.318 4.768 353.715 5.34738 351.412 6.60871L354.294 11.8713C355.575 11.1699 357.154 10.768 359.125 10.768V4.768ZM351.461 6.5825C349.296 7.71667 347.45 9.24917 345.948 11.1654L350.67 14.8666C351.643 13.6255 352.826 12.6407 354.245 11.8975L351.461 6.5825ZM345.917 11.2057C344.512 13.0614 343.444 15.132 342.705 17.3979L348.409 19.2581C348.95 17.5986 349.716 16.1279 350.701 14.8263L345.917 11.2057ZM342.687 17.4545C342.007 19.6874 341.661 21.9442 341.661 24.216H347.661C347.661 22.5625 347.912 20.8939 348.427 19.2015L342.687 17.4545ZM341.661 24.216C341.661 26.7327 342.082 29.1834 342.921 31.5535L348.577 29.5505C347.966 27.8246 347.661 26.0513 347.661 24.216H341.661ZM342.928 31.5724C343.762 33.8771 344.926 35.9659 346.427 37.8174L351.087 34.0386C350.029 32.7328 349.187 31.2375 348.57 29.5316L342.928 31.5724ZM346.484 37.8856C348.063 39.7192 349.936 41.1834 352.087 42.2593L354.771 36.8927C353.338 36.1766 352.097 35.2088 351.03 33.9704L346.484 37.8856ZM352.087 42.2593C354.323 43.377 356.749 43.92 359.317 43.92V37.92C357.618 37.92 356.119 37.567 354.771 36.8927L352.087 42.2593ZM359.317 43.92C361.124 43.92 362.951 43.6009 364.787 43.0057L362.935 37.2983C361.613 37.7271 360.412 37.92 359.317 37.92V43.92ZM364.787 43.0057C366.722 42.378 368.496 41.4101 370.096 40.1192L366.33 35.4488C365.285 36.2912 364.158 36.902 362.935 37.2983L364.787 43.0057ZM370.105 40.1123C371.887 38.6645 373.232 36.8032 374.17 34.6138L368.656 32.2502C368.058 33.6448 367.27 34.6848 366.321 35.4557L370.105 40.1123ZM369.928 36.0385L375.88 39.4305L378.85 34.2175L372.898 30.8255L369.928 36.0385ZM374.594 35.6739C373.861 37.4407 372.713 38.9516 371.093 40.2268L374.805 44.9412C377.195 43.0591 378.992 40.7299 380.136 37.9741L374.594 35.6739ZM371.069 40.2464C369.398 41.5906 367.502 42.6152 365.359 43.3171L367.227 49.0189C370.034 48.0995 372.575 46.7347 374.829 44.9216L371.069 40.2464ZM365.344 43.322C363.196 44.0381 361.105 44.384 359.061 44.384V50.384C361.796 50.384 364.526 49.9192 367.242 49.0141L365.344 43.322ZM359.061 44.384C356.288 44.384 353.83 43.8144 351.635 42.7167L348.951 48.0833C352.047 49.631 355.434 50.384 359.061 50.384V44.384ZM351.669 42.7341C349.358 41.5414 347.38 39.9863 345.714 38.0609L341.176 41.9871C343.35 44.499 345.937 46.5279 348.917 48.0659L351.669 42.7341ZM345.732 38.0823C344.031 36.0787 342.711 33.8539 341.765 31.3951L336.165 33.5489C337.353 36.6368 339.019 39.4466 341.158 41.9657L345.732 38.0823ZM341.77 31.4093C340.825 28.9145 340.365 26.4365 340.365 23.96H334.365C334.365 27.2008 334.971 30.3975 336.16 33.5347L341.77 31.4093ZM413.115 47V50H416.115V47H413.115ZM406.075 47H403.075V50H406.075V47ZM395.899 20.248L394.523 17.5821L395.899 20.248ZM392.379 23.064L394.621 25.0571L394.639 25.0369L394.657 25.0164L392.379 23.064ZM390.139 27.096L387.27 26.2193L387.139 26.6479V27.096H390.139ZM390.139 47V50H393.139V47H390.139ZM383.099 47H380.099V50H383.099V47ZM383.099 0.279999V-2.72H380.099V0.279999H383.099ZM390.139 0.279999H393.139V-2.72H390.139V0.279999ZM390.139 20.248H387.139V31.6382L392.75 21.7258L390.139 20.248ZM395.387 14.936L396.886 17.5346L396.905 17.5238L396.923 17.5128L395.387 14.936ZM407.739 14.04L409.146 11.3907L409.146 11.3906L407.739 14.04ZM410.939 17.048L408.367 18.5915L408.397 18.6424L408.43 18.6921L410.939 17.048ZM412.603 21.4L409.65 21.93L409.658 21.9741L409.667 22.018L412.603 21.4ZM413.115 44H406.075V50H413.115V44ZM409.075 47V28.248H403.075V47H409.075ZM409.075 28.248C409.075 24.9461 408.487 21.9205 406.819 19.675L402.003 23.253C402.553 23.9942 403.075 25.4913 403.075 28.248H409.075ZM406.819 19.675C405.094 17.3533 402.607 16.224 399.739 16.224V22.224C400.881 22.224 401.509 22.5881 402.003 23.253L406.819 19.675ZM399.739 16.224C397.935 16.224 396.186 16.7241 394.523 17.5821L397.275 22.9139C398.258 22.4066 399.068 22.224 399.739 22.224V16.224ZM394.523 17.5821C392.837 18.4522 391.362 19.6402 390.101 21.1116L394.657 25.0164C395.444 24.0985 396.315 23.4091 397.275 22.9139L394.523 17.5821ZM390.137 21.0709C388.814 22.5592 387.86 24.2882 387.27 26.2193L393.008 27.9727C393.357 26.8318 393.896 25.8728 394.621 25.0571L390.137 21.0709ZM387.139 27.096V47H393.139V27.096H387.139ZM390.139 44H383.099V50H390.139V44ZM386.099 47V0.279999H380.099V47H386.099ZM383.099 3.28H390.139V-2.72H383.099V3.28ZM387.139 0.279999V20.248H393.139V0.279999H387.139ZM392.75 21.7258C393.77 19.9235 395.138 18.5429 396.886 17.5346L393.888 12.3374C391.198 13.8891 389.068 16.0498 387.528 18.7702L392.75 21.7258ZM396.923 17.5128C398.682 16.4645 400.541 15.952 402.555 15.952V9.952C399.449 9.952 396.53 10.7622 393.851 12.3592L396.923 17.5128ZM402.555 15.952C404.32 15.952 405.525 16.261 406.332 16.6893L409.146 11.3906C407.222 10.3684 404.971 9.952 402.555 9.952V15.952ZM406.332 16.6893C407.233 17.1684 407.889 17.7964 408.367 18.5915L413.511 15.5045C412.453 13.7396 410.975 12.3623 409.146 11.3907L406.332 16.6893ZM408.43 18.6921C408.99 19.5468 409.413 20.6069 409.65 21.93L415.556 20.87C415.196 18.865 414.51 17.0239 413.448 15.4039L408.43 18.6921ZM409.667 22.018C409.962 23.4158 410.115 24.9352 410.115 26.584H416.115C416.115 24.5635 415.927 22.6269 415.539 20.782L409.667 22.018ZM410.115 26.584V47H416.115V26.584H410.115ZM420.647 31.64L418.262 29.82L418.254 29.8297L420.647 31.64ZM425.703 27.928L426.817 30.7134L426.841 30.7039L426.864 30.6939L425.703 27.928ZM437.671 26.904L437.258 29.8755L437.269 29.877L437.671 26.904ZM441.831 27.928L440.734 30.7203L444.831 32.3298V27.928H441.831ZM439.719 20.312L441.773 18.1255L439.719 20.312ZM428.327 19.352L429.403 22.152L429.434 22.1401L429.465 22.1275L428.327 19.352ZM423.014 22.104L420.331 23.4456L421.819 26.4208L424.625 24.635L423.014 22.104ZM420.647 17.368L418.971 14.8792L416.784 16.3514L417.963 18.7096L420.647 17.368ZM427.302 14.04L426.386 11.1833L426.378 11.1859L426.37 11.1885L427.302 14.04ZM444.966 16.536L442.92 18.7292L442.938 18.7468L442.958 18.7641L444.966 16.536ZM449.255 40.792L446.854 42.592L446.922 42.6824L446.997 42.7675L449.255 40.792ZM450.727 41.368H453.727V38.5496L450.914 38.3738L450.727 41.368ZM450.727 47L451.315 49.9417L453.727 49.4594V47H450.727ZM448.999 47.256L448.749 44.2664L448.999 47.256ZM444.327 46.232L442.267 48.413L444.327 46.232ZM442.983 43.672L439.997 43.9705L440.002 44.0153L440.008 44.06L442.983 43.672ZM442.79 41.752L445.776 41.4535L445.026 33.9532L440.417 39.9177L442.79 41.752ZM437.223 46.104L438.46 48.8369L437.223 46.104ZM424.422 46.296L423.004 48.9395L423.029 48.953L423.055 48.9661L424.422 46.296ZM420.327 42.52L417.779 44.1038L420.327 42.52ZM440.167 39.256L437.962 37.2212L437.954 37.2295L437.947 37.238L440.167 39.256ZM441.383 37.592L444.024 39.0143L441.383 37.592ZM441.831 32.28H444.831V30.2354L442.927 29.4877L441.831 32.28ZM438.055 31.256L437.484 34.2013L437.53 34.2103L437.577 34.2177L438.055 31.256ZM427.879 32.408L426.277 29.8715L426.261 29.8812L426.246 29.8911L427.879 32.408ZM426.279 39.448L423.674 40.9364L423.7 40.9822L423.728 41.0271L426.279 39.448ZM428.582 41.624L427.106 44.2357L427.13 44.249L427.154 44.2619L428.582 41.624ZM436.775 41.56L437.946 44.3217H437.946L436.775 41.56ZM421.854 37.208C421.854 35.6743 422.27 34.4665 423.039 33.4503L418.254 29.8297C416.634 31.9709 415.854 34.475 415.854 37.208H421.854ZM423.031 33.46C423.9 32.3219 425.121 31.3916 426.817 30.7134L424.588 25.1426C422.017 26.171 419.868 27.7155 418.262 29.82L423.031 33.46ZM426.864 30.6939C428.559 29.9821 430.625 29.584 433.126 29.584V23.584C429.996 23.584 427.113 24.0819 424.541 25.1621L426.864 30.6939ZM433.126 29.584C434.477 29.584 435.853 29.6804 437.258 29.8755L438.083 23.9325C436.416 23.7009 434.763 23.584 433.126 23.584V29.584ZM437.269 29.877C438.664 30.0655 439.809 30.3569 440.734 30.7203L442.927 25.1357C441.463 24.5605 439.834 24.1692 438.072 23.931L437.269 29.877ZM444.831 27.928V25.816H438.831V27.928H444.831ZM444.831 25.816C444.831 22.8327 443.911 20.1342 441.773 18.1255L437.664 22.4985C438.342 23.1352 438.831 24.106 438.831 25.816H444.831ZM441.773 18.1255C439.63 16.1129 436.761 15.328 433.638 15.328V21.328C435.806 21.328 436.991 21.8658 437.664 22.4985L441.773 18.1255ZM433.638 15.328C431.388 15.328 429.229 15.7391 427.188 16.5765L429.465 22.1275C430.752 21.5995 432.134 21.328 433.638 21.328V15.328ZM427.25 16.552C425.36 17.2787 423.41 18.2963 421.404 19.573L424.625 24.635C426.374 23.5224 427.965 22.7053 429.403 22.152L427.25 16.552ZM425.698 20.7624L423.33 16.0264L417.963 18.7096L420.331 23.4456L425.698 20.7624ZM422.322 19.8568C424.343 18.496 426.314 17.5193 428.235 16.8915L426.37 11.1885C423.853 12.0113 421.387 13.2533 418.971 14.8792L422.322 19.8568ZM428.219 16.8966C430.172 16.2702 432.23 15.952 434.406 15.952V9.952C431.634 9.952 428.956 10.3591 426.386 11.1833L428.219 16.8966ZM434.406 15.952C438.347 15.952 441.057 16.9912 442.92 18.7292L447.013 14.3428C443.756 11.3021 439.426 9.952 434.406 9.952V15.952ZM442.958 18.7641C444.782 20.4089 445.871 22.8603 445.871 26.584H451.871C451.871 21.6037 450.356 17.3564 446.975 14.3079L442.958 18.7641ZM445.871 26.584V39.064H451.871V26.584H445.871ZM445.871 39.064C445.871 40.0228 445.989 41.438 446.854 42.592L451.655 38.992C451.761 39.134 451.822 39.2567 451.854 39.3336C451.87 39.3727 451.881 39.4031 451.887 39.4226C451.893 39.4421 451.895 39.4528 451.895 39.4532C451.895 39.4536 451.893 39.4457 451.891 39.4283C451.888 39.411 451.885 39.3859 451.882 39.3522C451.875 39.284 451.871 39.1891 451.871 39.064H445.871ZM446.997 42.7675C448.038 43.9574 449.459 44.2946 450.539 44.3622L450.914 38.3738C450.796 38.3665 450.824 38.3529 450.94 38.3983C451.07 38.4492 451.297 38.5705 451.512 38.8165L446.997 42.7675ZM447.727 41.368V47H453.727V41.368H447.727ZM450.138 44.0583C449.582 44.1695 449.122 44.2353 448.749 44.2664L449.248 50.2456C449.899 50.1913 450.591 50.0865 451.315 49.9417L450.138 44.0583ZM448.749 44.2664C448.283 44.3052 447.947 44.32 447.719 44.32V50.32C448.173 50.32 448.69 50.2921 449.248 50.2456L448.749 44.2664ZM447.719 44.32C446.674 44.32 446.403 44.0666 446.386 44.051L442.267 48.413C443.786 49.848 445.777 50.32 447.719 50.32V44.32ZM446.386 44.051C446.084 43.7657 445.99 43.532 445.957 43.284L440.008 44.06C440.231 45.7747 441.033 47.2477 442.267 48.413L446.386 44.051ZM445.968 43.3735L445.776 41.4535L439.805 42.0505L439.997 43.9705L445.968 43.3735ZM440.417 39.9177C439.28 41.389 437.821 42.5396 435.985 43.3711L438.46 48.8369C441.146 47.6204 443.4 45.8697 445.164 43.5863L440.417 39.9177ZM435.985 43.3711C434.082 44.2329 432.219 44.64 430.375 44.64V50.64C433.138 50.64 435.84 50.0231 438.46 48.8369L435.985 43.3711ZM430.375 44.64C428.57 44.64 427.064 44.2785 425.79 43.6259L423.055 48.9661C425.279 50.1055 427.742 50.64 430.375 50.64V44.64ZM425.841 43.6525C424.522 42.9447 423.56 42.0385 422.874 40.9362L417.779 44.1038C419.056 46.1588 420.825 47.77 423.004 48.9395L425.841 43.6525ZM422.874 40.9362C422.205 39.86 421.854 38.6436 421.854 37.208H415.854C415.854 39.6977 416.485 42.0227 417.779 44.1038L422.874 40.9362ZM442.371 41.2908C443.021 40.5864 443.585 39.8293 444.024 39.0143L438.741 36.1697C438.583 36.464 438.336 36.8162 437.962 37.2212L442.371 41.2908ZM444.024 39.0143C444.454 38.2154 444.831 37.2238 444.831 36.12H438.831C438.831 35.9847 438.854 35.9171 438.848 35.9345C438.846 35.9419 438.839 35.9655 438.821 36.0062C438.804 36.0469 438.778 36.1012 438.741 36.1697L444.024 39.0143ZM444.831 36.12V32.28H438.831V36.12H444.831ZM442.927 29.4877C441.524 28.9366 440.057 28.5403 438.532 28.2943L437.577 34.2177C438.697 34.3984 439.747 34.6848 440.734 35.0723L442.927 29.4877ZM438.625 28.3107C437.124 28.0202 435.632 27.872 434.151 27.872V33.872C435.229 33.872 436.34 33.9798 437.484 34.2013L438.625 28.3107ZM434.151 27.872C431.209 27.872 428.513 28.4591 426.277 29.8715L429.48 34.9445C430.487 34.3089 431.972 33.872 434.151 33.872V27.872ZM426.246 29.8911C423.866 31.435 422.51 33.7639 422.51 36.632H428.51C428.51 35.9161 428.734 35.429 429.511 34.9249L426.246 29.8911ZM422.51 36.632C422.51 38.1627 422.917 39.6114 423.674 40.9364L428.883 37.9596C428.616 37.4926 428.51 37.064 428.51 36.632H422.51ZM423.728 41.0271C424.566 42.382 425.717 43.4505 427.106 44.2357L430.059 39.0123C429.485 38.6881 429.1 38.306 428.829 37.8689L423.728 41.0271ZM427.154 44.2619C428.723 45.112 430.503 45.456 432.358 45.456V39.456C431.227 39.456 430.49 39.2454 430.011 38.9861L427.154 44.2619ZM432.358 45.456C434.295 45.456 436.166 45.077 437.946 44.3217L435.603 38.7983C434.567 39.2377 433.494 39.456 432.358 39.456V45.456ZM437.946 44.3217C439.673 43.5894 441.188 42.5925 442.386 41.274L437.947 37.238C437.439 37.7969 436.693 38.336 435.603 38.7983L437.946 44.3217ZM475.785 45.272L477.127 47.9553L479.309 46.8641L478.686 44.5052L475.785 45.272ZM473.546 46.232L474.613 49.0355L473.546 46.232ZM470.474 47.128L469.823 44.1994L469.811 44.2021L469.799 44.2048L470.474 47.128ZM459.978 44.312L457.439 45.9104L457.474 45.9658L457.511 46.0196L459.978 44.312ZM458.889 18.968H461.889V15.968H458.889V18.968ZM454.474 18.968H451.474V21.968H454.474V18.968ZM454.474 13.528V10.528H451.474V13.528H454.474ZM458.889 13.528V16.528H461.889V13.528H458.889ZM458.889 2.52V-0.480003H455.889V2.52H458.889ZM465.93 2.52H468.93V-0.480003H465.93V2.52ZM465.93 13.528H462.93V16.528H465.93V13.528ZM473.225 13.528H476.225V10.528H473.225V13.528ZM473.225 18.968V21.968H476.225V18.968H473.225ZM465.93 18.968V15.968H462.93V18.968H465.93ZM465.93 37.656H462.93V37.767L462.938 37.8776L465.93 37.656ZM467.017 40.216L465.053 42.4831L465.089 42.5143L465.126 42.5443L467.017 40.216ZM474.314 39.704L477.214 38.9372L476.271 35.3711L472.972 37.0207L474.314 39.704ZM474.444 42.5887C473.965 42.8283 473.317 43.1088 472.478 43.4285L474.613 49.0355C475.566 48.6725 476.412 48.3131 477.127 47.9553L474.444 42.5887ZM472.478 43.4285C471.744 43.7079 470.864 43.9681 469.823 44.1994L471.124 50.0566C472.387 49.7759 473.555 49.4387 474.613 49.0355L472.478 43.4285ZM469.799 44.2048C468.921 44.4073 467.996 44.512 467.017 44.512V50.512C468.428 50.512 469.807 50.3607 471.148 50.0512L469.799 44.2048ZM467.017 44.512C465.927 44.512 464.977 44.3213 464.133 43.9719L461.838 49.5161C463.469 50.1907 465.206 50.512 467.017 50.512V44.512ZM464.133 43.9719C463.433 43.6823 462.886 43.2432 462.444 42.6044L457.511 46.0196C458.605 47.5994 460.064 48.7817 461.838 49.5161L464.133 43.9719ZM462.516 42.7136C462.174 42.1695 461.889 41.2975 461.889 39.896H455.889C455.889 42.0785 456.331 44.1505 457.439 45.9104L462.516 42.7136ZM461.889 39.896V18.968H455.889V39.896H461.889ZM458.889 15.968H454.474V21.968H458.889V15.968ZM457.474 18.968V13.528H451.474V18.968H457.474ZM454.474 16.528H458.889V10.528H454.474V16.528ZM461.889 13.528V2.52H455.889V13.528H461.889ZM458.889 5.52H465.93V-0.480003H458.889V5.52ZM462.93 2.52V13.528H468.93V2.52H462.93ZM465.93 16.528H473.225V10.528H465.93V16.528ZM470.225 13.528V18.968H476.225V13.528H470.225ZM473.225 15.968H465.93V21.968H473.225V15.968ZM462.93 18.968V37.656H468.93V18.968H462.93ZM462.938 37.8776C463.06 39.5257 463.622 41.2432 465.053 42.4831L468.982 37.9489C469.039 37.9983 469.046 38.0333 469.026 37.9866C469.001 37.9263 468.945 37.7598 468.921 37.4344L462.938 37.8776ZM465.126 42.5443C466.405 43.584 467.928 44.048 469.513 44.048V38.048C469.137 38.048 468.995 37.9573 468.909 37.8877L465.126 42.5443ZM469.513 44.048C470.851 44.048 472.152 43.8138 473.397 43.3395L471.262 37.7325C470.715 37.9409 470.139 38.048 469.513 38.048V44.048ZM473.397 43.3395C474.314 42.9905 475.089 42.6701 475.655 42.3873L472.972 37.0207C472.684 37.1645 472.137 37.3988 471.262 37.7325L473.397 43.3395ZM471.413 40.4708L472.885 46.0388L478.686 44.5052L477.214 38.9372L471.413 40.4708ZM491.733 45.848L490.182 48.4157L490.213 48.4346L490.245 48.4527L491.733 45.848ZM486.87 40.92L489.461 39.4084L483.87 29.8232V40.92H486.87ZM486.87 47V50H489.87V47H486.87ZM480.661 47H477.661V50H480.661V47ZM480.661 0.279999V-2.72H477.661V0.279999H480.661ZM487.702 0.279999H490.702V-2.72H487.702V0.279999ZM487.702 19.864H484.702V30.396L490.251 21.4448L487.702 19.864ZM492.63 14.808L491.054 12.2549L491.042 12.2625L491.03 12.2702L492.63 14.808ZM505.75 14.36L507.116 11.6893L505.75 14.36ZM510.422 18.2L508.067 20.0589L508.082 20.0778L508.097 20.0964L510.422 18.2ZM513.43 23.768L510.578 24.6992L510.586 24.7253L510.595 24.7513L513.43 23.768ZM513.302 37.08L510.504 35.9954L510.495 36.0204L510.486 36.0455L513.302 37.08ZM509.974 42.584L512.182 44.6139L509.974 42.584ZM504.918 46.296L503.649 43.5775L503.637 43.583L503.625 43.5886L504.918 46.296ZM501.078 40.728L502.346 43.4465L502.383 43.4294L502.419 43.4113L501.078 40.728ZM504.405 38.232L502.194 36.2048L504.405 38.232ZM506.518 34.648L503.709 33.5946L503.694 33.6335L503.68 33.6728L506.518 34.648ZM506.005 24.792L503.284 26.0534L503.296 26.0805L503.309 26.1073L506.005 24.792ZM493.397 19.992L494.776 22.6567L494.811 22.6382L494.847 22.6187L493.397 19.992ZM490.069 22.616L487.823 20.6283L487.817 20.6341L490.069 22.616ZM487.702 26.2L485.001 24.8933L484.702 25.5123V26.2H487.702ZM487.702 35.032H484.702V35.4169L484.799 35.7893L487.702 35.032ZM489.046 37.72L486.691 39.5789L486.715 39.6101L486.741 39.6405L489.046 37.72ZM491.285 39.768L489.565 42.2257L489.607 42.2552L489.651 42.2833L491.285 39.768ZM494.038 41.112L495.023 38.2785L494.038 41.112ZM498.71 44.64C496.637 44.64 494.831 44.1625 493.222 43.2433L490.245 48.4527C492.818 49.9229 495.662 50.64 498.71 50.64V44.64ZM493.285 43.2803C491.662 42.2999 490.4 41.0188 489.461 39.4084L484.278 42.4316C485.728 44.9173 487.709 46.9214 490.182 48.4157L493.285 43.2803ZM483.87 40.92V47H489.87V40.92H483.87ZM486.87 44H480.661V50H486.87V44ZM483.661 47V0.279999H477.661V47H483.661ZM480.661 3.28H487.702V-2.72H480.661V3.28ZM484.702 0.279999V19.864H490.702V0.279999H484.702ZM490.251 21.4448C491.354 19.6661 492.683 18.3209 494.229 17.3458L491.03 12.2702C488.651 13.7698 486.694 15.7952 485.152 18.2832L490.251 21.4448ZM494.205 17.3611C495.673 16.4553 497.458 15.952 499.669 15.952V9.952C496.505 9.952 493.597 10.686 491.054 12.2549L494.205 17.3611ZM499.669 15.952C501.45 15.952 503.003 16.3248 504.383 17.0307L507.116 11.6893C504.826 10.5178 502.326 9.952 499.669 9.952V15.952ZM504.383 17.0307C505.833 17.7725 507.053 18.7753 508.067 20.0589L512.776 16.3411C511.23 14.3821 509.335 12.8248 507.116 11.6893L504.383 17.0307ZM508.097 20.0964C509.174 21.4168 510.004 22.9418 510.578 24.6992L516.281 22.8368C515.49 20.4128 514.314 18.2259 512.746 16.3036L508.097 20.0964ZM510.595 24.7513C511.204 26.5071 511.518 28.3917 511.518 30.424H517.518C517.518 27.763 517.105 25.2102 516.264 22.7847L510.595 24.7513ZM511.518 30.424C511.518 32.4172 511.175 34.2666 510.504 35.9954L516.099 38.1646C517.05 35.7121 517.518 33.1241 517.518 30.424H511.518ZM510.486 36.0455C509.847 37.7825 508.939 39.2756 507.765 40.5541L512.182 44.6139C513.909 42.7351 515.22 40.5588 516.117 38.1145L510.486 36.0455ZM507.765 40.5541C506.576 41.8475 505.209 42.8493 503.649 43.5775L506.186 49.0145C508.466 47.9507 510.47 46.4778 512.182 44.6139L507.765 40.5541ZM503.625 43.5886C502.186 44.2756 500.563 44.64 498.71 44.64V50.64C501.378 50.64 503.895 50.1084 506.21 49.0034L503.625 43.5886ZM496.854 44.624C498.789 44.624 500.635 44.245 502.346 43.4465L499.809 38.0095C498.96 38.4056 497.99 38.624 496.854 38.624V44.624ZM502.419 43.4113C504.017 42.6125 505.423 41.5613 506.617 40.2592L502.194 36.2048C501.51 36.9507 500.698 37.5635 499.736 38.0447L502.419 43.4113ZM506.617 40.2592C507.845 38.9193 508.757 37.3628 509.355 35.6232L503.68 33.6728C503.34 34.6639 502.843 35.4967 502.194 36.2048L506.617 40.2592ZM509.326 35.7014C509.964 34.001 510.285 32.2363 510.285 30.424H504.285C504.285 31.513 504.095 32.5643 503.709 33.5946L509.326 35.7014ZM510.285 30.424C510.285 27.9771 509.761 25.6483 508.702 23.4767L503.309 26.1073C503.957 27.4343 504.285 28.8602 504.285 30.424H510.285ZM508.727 23.5306C507.71 21.3347 506.231 19.5109 504.293 18.1268L500.806 23.0092C501.855 23.7584 502.68 24.7506 503.284 26.0534L508.727 23.5306ZM504.293 18.1268C502.255 16.6709 499.908 15.968 497.366 15.968V21.968C498.749 21.968 499.857 22.3318 500.806 23.0092L504.293 18.1268ZM497.366 15.968C495.449 15.968 493.628 16.4387 491.948 17.3653L494.847 22.6187C495.642 22.18 496.466 21.968 497.366 21.968V15.968ZM492.019 17.3273C490.433 18.148 489.034 19.2593 487.823 20.6283L492.316 24.6037C493.068 23.754 493.888 23.116 494.776 22.6567L492.019 17.3273ZM487.817 20.6341C486.693 21.9114 485.755 23.3347 485.001 24.8933L490.402 27.5067C490.928 26.4199 491.568 25.4539 492.322 24.5979L487.817 20.6341ZM484.702 26.2V35.032H490.702V26.2H484.702ZM484.799 35.7893C485.161 37.1793 485.799 38.449 486.691 39.5789L491.4 35.8611C491.012 35.3696 490.754 34.8474 490.604 34.2747L484.799 35.7893ZM486.741 39.6405C487.558 40.6211 488.503 41.4824 489.565 42.2257L493.006 37.3103C492.361 36.8589 491.813 36.3549 491.35 35.7994L486.741 39.6405ZM489.651 42.2833C490.711 42.9726 491.847 43.5263 493.052 43.9455L495.023 38.2785C494.265 38.015 493.567 37.6727 492.92 37.2527L489.651 42.2833ZM493.052 43.9455C494.301 44.3798 495.573 44.624 496.854 44.624V38.624C496.342 38.624 495.737 38.5269 495.023 38.2785L493.052 43.9455ZM528.785 46.296L527.556 49.0328L527.58 49.0433L527.603 49.0534L528.785 46.296ZM523.345 42.456L521.138 44.4884L521.153 44.5039L521.167 44.5192L523.345 42.456ZM519.889 36.952L517.092 38.0366L517.096 38.0464L517.1 38.0561L519.889 36.952ZM519.889 23.64L522.686 24.7246L519.889 23.64ZM523.345 18.136L521.167 16.0728L521.166 16.0744L523.345 18.136ZM528.785 14.36L529.967 17.1174L529.98 17.1118L529.993 17.1059L528.785 14.36ZM542.929 14.36L541.7 17.0968L541.734 17.1118L541.767 17.1259L542.929 14.36ZM548.369 18.136L546.162 20.1684L546.19 20.1986L546.219 20.2281L548.369 18.136ZM551.889 23.64L549.092 24.7246V24.7246L551.889 23.64ZM551.889 36.952L554.678 38.0561L554.682 38.0464L554.686 38.0366L551.889 36.952ZM548.369 42.456L546.191 40.3928L546.177 40.4081L546.162 40.4236L548.369 42.456ZM542.929 46.296L544.111 49.0534L544.124 49.0478L544.137 49.0419L542.929 46.296ZM527.249 36.12L524.593 37.5145L527.249 36.12ZM530.833 40.152L532.481 37.6449L530.833 40.152ZM540.881 40.152L542.529 42.6591L542.537 42.6537L542.545 42.6481L540.881 40.152ZM544.529 36.056L547.185 37.4505L547.192 37.4371L547.199 37.4236L544.529 36.056ZM544.529 24.536L541.873 25.9305L544.529 24.536ZM540.881 20.504L539.184 22.9782L539.225 23.0058L539.266 23.0321L540.881 20.504ZM530.833 20.504L529.136 18.0298L530.833 20.504ZM527.249 24.6L529.89 26.0223L529.898 26.0084L529.905 25.9945L527.249 24.6ZM535.889 44.64C533.584 44.64 531.628 44.2506 529.967 43.5386L527.603 49.0534C530.123 50.1334 532.903 50.64 535.889 50.64V44.64ZM530.014 43.5592C528.271 42.7767 526.782 41.7223 525.523 40.3928L521.167 44.5192C522.98 46.4324 525.118 47.938 527.556 49.0328L530.014 43.5592ZM525.552 40.4236C524.308 39.073 523.353 37.553 522.678 35.8479L517.1 38.0561C518.046 40.447 519.396 42.5963 521.138 44.4884L525.552 40.4236ZM522.686 35.8674C522.016 34.1386 521.673 32.2892 521.673 30.296H515.673C515.673 32.9961 516.141 35.5841 517.092 38.0366L522.686 35.8674ZM521.673 30.296C521.673 28.3028 522.016 26.4534 522.686 24.7246L517.092 22.5554C516.141 25.0079 515.673 27.5959 515.673 30.296H521.673ZM522.686 24.7246C523.361 22.9847 524.307 21.4847 525.524 20.1976L521.166 16.0744C519.396 17.9447 518.039 20.1139 517.092 22.5554L522.686 24.7246ZM525.523 20.1992C526.772 18.8803 528.245 17.8554 529.967 17.1174L527.603 11.6026C525.144 12.6566 522.99 14.149 521.167 16.0728L525.523 20.1992ZM529.993 17.1059C531.704 16.3534 533.654 15.952 535.889 15.952V9.952C532.919 9.952 530.133 10.4893 527.577 11.6141L529.993 17.1059ZM535.889 15.952C538.126 15.952 540.045 16.3537 541.7 17.0968L544.158 11.6232C541.632 10.489 538.858 9.952 535.889 9.952V15.952ZM541.767 17.1259C543.524 17.8637 544.975 18.8795 546.162 20.1684L550.576 16.1036C548.776 14.1499 546.601 12.6483 544.091 11.5941L541.767 17.1259ZM546.219 20.2281C547.469 21.5125 548.424 23.0028 549.092 24.7246L554.686 22.5554C553.732 20.0958 552.341 17.9169 550.519 16.0439L546.219 20.2281ZM549.092 24.7246C549.762 26.4534 550.105 28.3028 550.105 30.296H556.105C556.105 27.5959 555.637 25.0079 554.686 22.5554L549.092 24.7246ZM550.105 30.296C550.105 32.2892 549.762 34.1386 549.092 35.8674L554.686 38.0366C555.637 35.5841 556.105 32.9961 556.105 30.296H550.105ZM549.1 35.8479C548.432 37.535 547.468 39.0452 546.191 40.3928L550.547 44.5192C552.342 42.6241 553.725 40.465 554.678 38.0561L549.1 35.8479ZM546.162 40.4236C544.965 41.7235 543.498 42.7682 541.721 43.5501L544.137 49.0419C546.627 47.9465 548.786 46.4311 550.576 44.4884L546.162 40.4236ZM541.747 43.5386C540.08 44.2531 538.144 44.64 535.889 44.64V50.64C538.84 50.64 541.597 50.1309 544.111 49.0534L541.747 43.5386ZM522.905 30.36C522.905 32.9264 523.448 35.3333 524.593 37.5145L529.905 34.7255C529.258 33.4934 528.905 32.0603 528.905 30.36H522.905ZM524.593 37.5145C525.706 39.6351 527.234 41.3766 529.185 42.6591L532.481 37.6449C531.445 36.9647 530.584 36.0183 529.905 34.7255L524.593 37.5145ZM529.185 42.6591C531.194 43.9787 533.457 44.624 535.889 44.624V38.624C534.566 38.624 533.459 38.2879 532.481 37.6449L529.185 42.6591ZM535.889 44.624C538.293 44.624 540.532 43.971 542.529 42.6591L539.233 37.6449C538.243 38.2957 537.155 38.624 535.889 38.624V44.624ZM542.545 42.6481C544.517 41.3332 546.067 39.5812 547.185 37.4505L541.873 34.6615C541.199 35.9441 540.317 36.9228 539.217 37.6558L542.545 42.6481ZM547.199 37.4236C548.326 35.2242 548.873 32.8311 548.873 30.296H542.873C542.873 31.9422 542.524 33.3892 541.859 34.6884L547.199 37.4236ZM548.873 30.296C548.873 27.7296 548.33 25.3227 547.185 23.1415L541.873 25.9305C542.52 27.1626 542.873 28.5957 542.873 30.296H548.873ZM547.185 23.1415C546.061 21.0004 544.497 19.2544 542.496 17.9759L539.266 23.0321C540.337 23.7162 541.205 24.6582 541.873 25.9305L547.185 23.1415ZM542.578 18.0298C540.578 16.6585 538.321 15.968 535.889 15.968V21.968C537.127 21.968 538.198 22.3015 539.184 22.9782L542.578 18.0298ZM535.889 15.968C533.43 15.968 531.148 16.6502 529.136 18.0298L532.53 22.9782C533.504 22.3098 534.594 21.968 535.889 21.968V15.968ZM529.136 18.0298C527.214 19.348 525.701 21.0949 524.593 23.2055L529.905 25.9945C530.589 24.6918 531.465 23.708 532.53 22.9782L529.136 18.0298ZM524.608 23.1777C523.443 25.341 522.905 27.7633 522.905 30.36H528.905C528.905 28.6047 529.263 27.187 529.89 26.0223L524.608 23.1777ZM577.473 45.272L578.815 47.9553L580.997 46.8641L580.373 44.5052L577.473 45.272ZM575.233 46.232L576.301 49.0355L575.233 46.232ZM572.161 47.128L571.51 44.1994L571.498 44.2021L571.486 44.2048L572.161 47.128ZM561.665 44.312L559.126 45.9104L559.161 45.9658L559.198 46.0196L561.665 44.312ZM560.577 18.968H563.577V15.968H560.577V18.968ZM556.161 18.968H553.161V21.968H556.161V18.968ZM556.161 13.528V10.528H553.161V13.528H556.161ZM560.577 13.528V16.528H563.577V13.528H560.577ZM560.577 2.52V-0.480003H557.577V2.52H560.577ZM567.617 2.52H570.617V-0.480003H567.617V2.52ZM567.617 13.528H564.617V16.528H567.617V13.528ZM574.913 13.528H577.913V10.528H574.913V13.528ZM574.913 18.968V21.968H577.913V18.968H574.913ZM567.617 18.968V15.968H564.617V18.968H567.617ZM567.617 37.656H564.617V37.767L564.625 37.8776L567.617 37.656ZM568.705 40.216L566.74 42.4831L566.776 42.5143L566.813 42.5443L568.705 40.216ZM576.001 39.704L578.901 38.9372L577.959 35.3711L574.659 37.0207L576.001 39.704ZM576.131 42.5887C575.652 42.8283 575.004 43.1088 574.165 43.4285L576.301 49.0355C577.254 48.6725 578.099 48.3131 578.815 47.9553L576.131 42.5887ZM574.165 43.4285C573.432 43.7079 572.551 43.9681 571.51 44.1994L572.812 50.0566C574.075 49.7759 575.242 49.4387 576.301 49.0355L574.165 43.4285ZM571.486 44.2048C570.609 44.4073 569.684 44.512 568.705 44.512V50.512C570.116 50.512 571.494 50.3607 572.836 50.0512L571.486 44.2048ZM568.705 44.512C567.615 44.512 566.664 44.3213 565.82 43.9719L563.526 49.5161C565.156 50.1907 566.894 50.512 568.705 50.512V44.512ZM565.82 43.9719C565.12 43.6823 564.574 43.2432 564.132 42.6044L559.198 46.0196C560.292 47.5994 561.751 48.7817 563.526 49.5161L565.82 43.9719ZM564.204 42.7136C563.861 42.1695 563.577 41.2975 563.577 39.896H557.577C557.577 42.0785 558.018 44.1505 559.126 45.9104L564.204 42.7136ZM563.577 39.896V18.968H557.577V39.896H563.577ZM560.577 15.968H556.161V21.968H560.577V15.968ZM559.161 18.968V13.528H553.161V18.968H559.161ZM556.161 16.528H560.577V10.528H556.161V16.528ZM563.577 13.528V2.52H557.577V13.528H563.577ZM560.577 5.52H567.617V-0.480003H560.577V5.52ZM564.617 2.52V13.528H570.617V2.52H564.617ZM567.617 16.528H574.913V10.528H567.617V16.528ZM571.913 13.528V18.968H577.913V13.528H571.913ZM574.913 15.968H567.617V21.968H574.913V15.968ZM564.617 18.968V37.656H570.617V18.968H564.617ZM564.625 37.8776C564.747 39.5257 565.31 41.2432 566.74 42.4831L570.67 37.9489C570.727 37.9983 570.734 38.0333 570.714 37.9866C570.688 37.9263 570.633 37.7598 570.609 37.4344L564.625 37.8776ZM566.813 42.5443C568.093 43.584 569.615 44.048 571.201 44.048V38.048C570.824 38.048 570.682 37.9573 570.597 37.8877L566.813 42.5443ZM571.201 44.048C572.539 44.048 573.84 43.8138 575.085 43.3395L572.949 37.7325C572.402 37.9409 571.826 38.048 571.201 38.048V44.048ZM575.085 43.3395C576.001 42.9905 576.777 42.6701 577.343 42.3873L574.659 37.0207C574.372 37.1645 573.825 37.3988 572.949 37.7325L575.085 43.3395ZM573.101 40.4708L574.573 46.0388L580.373 44.5052L578.901 38.9372L573.101 40.4708Z" fill="#29387E" fill-opacity="0.07" mask="url(#path-1-outside-1_508_36095)"/>
</svg>
